<svg id="圖層_1" data-name="圖層 1" xmlns="http://www.w3.org/2000/svg" viewBox="0 0 114.63 156.73"><defs><style>.cls-1{fill:#fff;}</style></defs><path class="cls-1" d="M58.4,59.48c4.59-2.78,9-1.55,13.49-.14,9.66,3,19.36,6,29,9,6,1.9,8.07,4.75,8.06,11,0,9.26-.33,18.53,0,27.77.3,9.49-5.12,16.47-9.56,23.92a3.55,3.55,0,0,1-2.66,1q-30.42.09-60.84,0a4.06,4.06,0,0,1-2.7-1.08c-11.73-12.59-22.07-26.09-27-43-1.44-5,0-9,3.45-10.73,3.68-1.8,7.91-.38,11,3.83,3.32,4.6,6.44,9.33,12.62,10.58,4.76,1,5.51.49,5.51-4.34q0-36.84,0-73.68c0-4.68,1.81-7.09,5.71-7.84,5.35-1,8.36,1.43,8.95,7.17Q55.65,35.13,58,57.17C58,57.78,58.19,58.39,58.4,59.48Z"/><path class="cls-1" d="M34.17,138.55h64.7c0,2.31,0,4.46,0,6.6,0,4.78-1.13,5.91-5.87,5.91q-23.06,0-46.12,0c-2.56,0-5.13,0-7.69,0-3.32,0-5-1.56-5-4.89C34.16,143.78,34.17,141.36,34.17,138.55Z"/><path d="M114.55,88.75c0-3,.07-6.21.08-9.33,0-8.73-3.7-13.79-12-16.42-5-1.56-10-3.13-14.88-4.64C83.09,56.92,78.3,55.43,73.59,54a30,30,0,0,0-9.23-1.79c-.41,0-.82,0-1.22,0L62.81,49c-1.25-12-2.54-24.35-3.78-36.53C58.24,4.67,53.62,0,46.69,0h0a17.67,17.67,0,0,0-3.31.33c-3.83.75-10.27,3.48-10.28,13.39q0,21.83,0,43.65V85.85c-2.79-1-4.71-3.55-7.4-7.29l-.5-.7C22,73.45,17.53,70.92,12.9,70.92a12.83,12.83,0,0,0-5.73,1.35c-6.08,3-8.58,9.8-6.39,17.37,5.45,18.78,17,33.11,27.73,44.69v6.79c0,1.79,0,3.45,0,5.1,0,6.39,4.16,10.51,10.53,10.51h.23l2.74,0H93c2.92,0,6.24-.35,8.71-2.85s2.78-5.77,2.8-8.67c0-1.49,0-3,0-4.51v-7.18l1.68-2.73c4.08-6.56,8.7-14,8.39-23.78C114.39,101,114.47,94.76,114.55,88.75Zm-15.68,56.4c0,4.78-1.13,5.91-5.87,5.91H42c-.94,0-1.88,0-2.83,0h-.14c-3.23,0-4.86-1.6-4.88-4.89,0-2.41,0-4.83,0-7.64h64.7C98.87,140.86,98.88,143,98.87,145.15Zm10.07-38c.3,9.49-5.12,16.47-9.56,23.92a3.55,3.55,0,0,1-2.66,1q-15,0-30,0-15.44,0-30.87,0a4.06,4.06,0,0,1-2.7-1.08c-11.73-12.59-22.07-26.09-27-43-1.44-5,0-9,3.45-10.73a7.36,7.36,0,0,1,3.24-.76c2.76,0,5.54,1.58,7.71,4.59,3.32,4.6,6.44,9.33,12.62,10.58a16.52,16.52,0,0,0,3,.41c2.12,0,2.52-1.2,2.52-4.75q0-36.84,0-73.68c0-4.68,1.81-7.09,5.71-7.84a11.39,11.39,0,0,1,2.23-.24c4,0,6.22,2.52,6.72,7.41Q55.65,35.13,58,57.17c.07.61.22,1.22.43,2.31a11.17,11.17,0,0,1,6-1.67,25.43,25.43,0,0,1,7.53,1.53c9.66,3,19.36,6,29,9,6,1.9,8.07,4.75,8.06,11C109,88.67,108.64,97.94,108.94,107.18Z"/></svg>