<?xml version="1.0" encoding="utf-8"?>
<!-- Generator: Adobe Illustrator 24.2.0, SVG Export Plug-In . SVG Version: 6.00 Build 0)  -->
<svg version="1.1" id="圖層_1" shape-rendering="crispEdges"
	 xmlns="http://www.w3.org/2000/svg" xmlns:xlink="http://www.w3.org/1999/xlink" x="0px" y="0px" viewBox="0 0 236 237.1"
	 style="enable-background:new 0 0 236 237.1;" xml:space="preserve">
<style type="text/css">
	.st0{fill:#877215;}
	.st1{fill:#FBEDAA;}
	.st2{fill:#A88F1E;}
</style>
<path class="st0" d="M220,8V4C149.4,4,78.6,4,8,4v4H4c0,70.6,0,141.4,0,212h4v4c7.8,0,16.2,0,24,0c0-62.6,0-125.4,0-188h4v-4
	c62.6,0,125.4,0,188,0c0-7.8,0-16.2,0-24H220z"/>
<g>
	<path class="st1" d="M16,4c68,0,136,0,204,0V0C149.4,0,78.6,0,8,0v4C10,4,14,4,16,4z"/>
	<rect x="4" y="4" class="st1" width="4" height="4"/>
	<rect x="220" y="4" class="st1" width="4" height="4"/>
	<path class="st1" d="M224,8c0,70.6,0,141.4,0,212h4c0-70.6,0-141.4,0-212H224z"/>
	<path class="st1" d="M4,212C4,144,4,76,4,8H0c0,70.6,0,141.4,0,212h4C4,218,4,214,4,212z"/>
	<rect x="4" y="220" class="st1" width="4" height="4"/>
	<rect x="220" y="220" class="st1" width="4" height="4"/>
	<path class="st1" d="M212,224c-68,0-136,0-204,0v4c70.6,0,141.4,0,212,0v-4C218,224,214,224,212,224z"/>
</g>
<g>
	<path class="st2" d="M232,20v-4h-4c0,68,0,136,0,204h-4v4h-4v4c-68,0-136,0-204,0v4h4v4c68,0,136,0,204,0v-4h4v-4h4v-4h4
		c0-68,0-136,0-204H232z"/>
	<path class="st2" d="M224,220c0-62.6,0-125.4,0-188c-62.6,0-125.4,0-188,0v4h-4c0,62.6,0,125.4,0,188c62.6,0,125.4,0,188,0v-4H224z
		"/>
</g>
</svg>
