<?xml version="1.0" encoding="utf-8"?>
<!-- Generator: Adobe Illustrator 24.2.0, SVG Export Plug-In . SVG Version: 6.00 Build 0)  -->
<svg version="1.1" id="圖層_1" shape-rendering="crispEdges"
	 xmlns="http://www.w3.org/2000/svg" xmlns:xlink="http://www.w3.org/1999/xlink" x="0px" y="0px" viewBox="0 0 168 228"
	 style="enable-background:new 0 0 168 228;" xml:space="preserve">
<style type="text/css">
	.st0{fill:#DAF1F5;}
	.st1{fill:#DBDFD9;}
	.st2{fill:#D6DBD5;}
	.st3{fill:#C96B6F;}
	.st4{fill:#CB8685;}
	.st5{fill:#D16961;}
	.st6{fill:#CD655D;}
	.st7{fill:#9F4D50;}
	.st8{fill:#CC635C;}
	.st9{fill:#DCD38C;}
	.st10{fill:#D67671;}
	.st11{fill:#C0AB32;}
	.st12{fill:#495A43;}
	.st13{fill:#CCD3D6;}
	.st14{fill:#BFAA31;}
	.st15{fill:#1E3D4B;}
	.st16{fill:#E0E5DD;}
	.st17{fill:#D8D5CD;}
	.st18{fill:#DBD18B;}
	.st19{fill:#D88488;}
	.st20{fill:#E08279;}
	.st21{fill:#DC7D76;}
	.st22{fill:#DB7B75;}
	.st23{fill:#D8C4B5;}
	.st24{fill:#E0D2BF;}
	.st25{fill:#E0C1A8;}
	.st26{fill:#D6B7A0;}
	.st27{fill:#D8E7EB;}
	.st28{fill:#DCCEBC;}
	.st29{fill:#DCBDA5;}
	.st30{fill:#DBCDBB;}
	.st31{fill:#D6C8B7;}
	.st32{fill:#DCE1DA;}
	.st33{fill:#DBBCA3;}
	.st34{fill:#758D6B;}
	.st35{fill:#657B5D;}
	.st36{fill:#5CC1D6;}
	.st37{fill:#D2E0F0;}
	.st38{fill:#5397A7;}
	.st39{fill:#5E7457;}
	.st40{fill:#254A5A;}
	.st41{fill:#4C5E46;}
	.st42{fill:#2A5365;}
</style>
<rect x="92" y="16" class="st0" width="4" height="4"/>
<rect x="64" y="40" class="st1" width="4" height="4"/>
<rect x="144" y="60" class="st2" width="4" height="4"/>
<rect x="76" y="64" class="st3" width="4" height="4"/>
<rect x="68" y="84" class="st4" width="4" height="4"/>
<g>
	<polygon class="st5" points="84,76 80,76 80,80 84,80 88,80 88,76 	"/>
	<rect x="76" y="80" class="st5" width="4" height="4"/>
	<rect x="72" y="84" class="st5" width="4" height="4"/>
</g>
<g>
	<polygon class="st6" points="112,48 112,52 108,52 108,56 108,60 104,60 104,64 100,64 100,68 104,68 108,68 108,64 112,64 112,60 
		112,56 116,56 116,52 116,48 	"/>
	<rect x="88" y="72" class="st6" width="4" height="4"/>
	<rect x="108" y="72" class="st6" width="4" height="4"/>
	<rect x="92" y="76" class="st6" width="4" height="4"/>
	<rect x="96" y="80" class="st6" width="4" height="4"/>
	<polygon class="st6" points="100,84 100,88 104,88 108,88 108,84 104,84 	"/>
	<polygon class="st6" points="92,88 88,88 88,92 92,92 96,92 100,92 100,88 96,88 	"/>
</g>
<g>
	<polygon class="st7" points="96,84 96,80 92,80 92,84 88,84 88,88 92,88 96,88 100,88 100,84 	"/>
	<rect x="100" y="88" class="st7" width="4" height="4"/>
</g>
<g>
	<rect x="132" y="60" class="st8" width="4" height="4"/>
	<rect x="128" y="64" class="st8" width="4" height="4"/>
	<rect x="124" y="68" class="st8" width="4" height="4"/>
	<polygon class="st8" points="116,72 112,72 112,76 116,76 120,76 124,76 124,72 120,72 	"/>
	<rect x="108" y="88" class="st8" width="4" height="4"/>
	<polygon class="st8" points="112,96 112,100 112,104 116,104 116,100 116,96 116,92 112,92 	"/>
</g>
<rect x="80" y="104" class="st9" width="4" height="4"/>
<rect x="120" y="104" class="st10" width="4" height="4"/>
<rect x="84" y="108" class="st11" width="4" height="4"/>
<rect x="116" y="108" class="st10" width="4" height="4"/>
<g>
	<polygon class="st12" points="64,92 64,96 68,96 72,96 72,92 68,92 	"/>
	<polygon class="st12" points="80,96 76,96 76,100 80,100 84,100 84,96 	"/>
	<polygon class="st12" points="88,100 84,100 84,104 88,104 92,104 92,100 	"/>
	<polygon class="st12" points="96,104 92,104 92,108 96,108 100,108 100,104 	"/>
	<polygon class="st12" points="104,108 100,108 100,112 104,112 108,112 108,108 	"/>
	<rect x="108" y="112" class="st12" width="4" height="4"/>
</g>
<rect x="80" y="116" class="st9" width="4" height="4"/>
<rect x="120" y="116" class="st13" width="4" height="4"/>
<rect x="84" y="120" class="st14" width="4" height="4"/>
<rect x="80" y="124" class="st9" width="4" height="4"/>
<rect x="84" y="128" class="st14" width="4" height="4"/>
<rect x="88" y="128" class="st14" width="4" height="4"/>
<g>
	<polygon class="st15" points="68,88 64,88 60,88 56,88 52,88 48,88 44,88 40,88 40,92 44,92 48,92 52,92 56,92 60,92 64,92 68,92 
		72,92 72,88 	"/>
	<polygon class="st15" points="80,92 76,92 72,92 72,96 76,96 80,96 84,96 84,92 	"/>
	<polygon class="st15" points="88,96 84,96 84,100 88,100 92,100 92,96 	"/>
	<polygon class="st15" points="96,100 92,100 92,104 96,104 100,104 100,100 	"/>
	<polygon class="st15" points="104,104 100,104 100,108 104,108 108,108 108,104 	"/>
	<rect x="108" y="108" class="st15" width="4" height="4"/>
	<rect x="112" y="112" class="st15" width="4" height="4"/>
	<rect x="116" y="116" class="st15" width="4" height="4"/>
	<rect x="124" y="120" class="st15" width="4" height="4"/>
	<polygon class="st15" points="128,124 128,128 128,132 132,132 132,128 132,124 	"/>
</g>
<rect x="24" y="132" class="st16" width="4" height="4"/>
<rect x="40" y="136" class="st17" width="4" height="4"/>
<rect x="76" y="136" class="st18" width="4" height="4"/>
<rect x="80" y="136" class="st14" width="4" height="4"/>
<rect x="20" y="140" class="st16" width="4" height="4"/>
<g>
	<rect x="100" y="24" class="st19" width="4" height="4"/>
	<polygon class="st19" points="80,60 76,60 76,64 80,64 80,68 84,68 84,64 84,60 84,56 80,56 	"/>
	<polygon class="st19" points="72,72 72,76 72,80 68,80 68,84 72,84 76,84 76,80 76,76 80,76 80,72 76,72 	"/>
	<polygon class="st19" points="40,136 36,136 36,140 36,144 40,144 44,144 44,140 40,140 	"/>
</g>
<rect x="72" y="140" class="st9" width="4" height="4"/>
<g>
	<polygon class="st20" points="104,28 100,28 100,32 104,32 104,36 104,40 108,40 108,36 108,32 108,28 	"/>
	<rect x="64" y="52" class="st20" width="4" height="4"/>
	<rect x="96" y="52" class="st20" width="4" height="4"/>
	<polygon class="st20" points="92,60 92,64 96,64 96,60 96,56 92,56 	"/>
	<polygon class="st20" points="88,60 84,60 84,64 84,68 80,68 80,72 80,76 84,76 88,76 88,72 92,72 92,68 92,64 88,64 	"/>
	<rect x="76" y="76" class="st20" width="4" height="4"/>
	<polygon class="st20" points="40,144 40,148 44,148 48,148 48,144 44,144 	"/>
</g>
<rect x="76" y="144" class="st14" width="4" height="4"/>
<rect x="56" y="148" class="st9" width="4" height="4"/>
<rect x="24" y="152" class="st17" width="4" height="4"/>
<rect x="60" y="152" class="st9" width="4" height="4"/>
<rect x="68" y="152" class="st18" width="4" height="4"/>
<rect x="32" y="156" class="st17" width="4" height="4"/>
<g>
	<polygon class="st21" points="112,68 112,64 108,64 108,68 104,68 100,68 100,64 104,64 104,60 108,60 108,56 108,52 112,52 
		112,48 112,44 112,40 112,36 108,36 108,40 108,44 104,44 104,48 104,52 100,52 100,56 100,60 96,60 96,64 92,64 92,68 92,72 
		92,76 96,76 96,80 100,80 100,84 104,84 108,84 108,80 104,80 104,76 108,76 108,72 112,72 116,72 116,68 	"/>
	<rect x="108" y="76" class="st21" width="4" height="4"/>
	<polygon class="st21" points="96,92 92,92 92,96 96,96 100,96 104,96 104,92 100,92 	"/>
	<polygon class="st21" points="84,104 84,108 88,108 88,112 92,112 92,108 92,104 88,104 	"/>
	<polygon class="st21" points="84,116 84,120 88,120 88,116 88,112 84,112 	"/>
	<rect x="48" y="148" class="st21" width="4" height="4"/>
	<polygon class="st21" points="56,152 52,152 52,156 56,156 60,156 60,152 	"/>
	<polygon class="st21" points="60,156 60,160 64,160 68,160 68,156 64,156 	"/>
</g>
<g>
	<polygon class="st22" points="60,48 60,52 64,52 64,48 64,44 60,44 	"/>
	<polygon class="st22" points="128,56 124,56 124,60 124,64 120,64 116,64 116,68 116,72 120,72 124,72 124,68 128,68 128,64 
		132,64 132,60 128,60 	"/>
	<polygon class="st22" points="140,56 136,56 132,56 132,60 136,60 140,60 144,60 144,56 	"/>
	<polygon class="st22" points="116,84 116,80 112,80 108,80 108,84 108,88 112,88 112,84 	"/>
	<polygon class="st22" points="120,84 116,84 116,88 112,88 112,92 116,92 116,96 116,100 116,104 116,108 120,108 120,104 120,100 
		124,100 124,96 120,96 120,92 124,92 124,88 120,88 	"/>
	<polygon class="st22" points="88,112 88,116 88,120 88,124 88,128 92,128 92,124 92,120 92,116 96,116 96,112 92,112 	"/>
	<polygon class="st22" points="88,132 88,136 84,136 84,140 84,144 80,144 80,148 76,148 76,152 72,152 72,156 76,156 80,156 
		80,152 84,152 84,148 88,148 92,148 92,144 88,144 88,140 92,140 92,136 96,136 96,132 96,128 92,128 92,132 	"/>
	<rect x="68" y="156" class="st22" width="4" height="4"/>
</g>
<rect x="24" y="160" class="st17" width="4" height="4"/>
<g>
	<rect x="96" y="20" class="st23" width="4" height="4"/>
	<rect x="76" y="56" class="st23" width="4" height="4"/>
	<rect x="76" y="68" class="st23" width="4" height="4"/>
	<rect x="68" y="76" class="st23" width="4" height="4"/>
	<polygon class="st23" points="36,140 32,140 32,144 32,148 28,148 28,152 28,156 24,156 24,160 28,160 28,164 32,164 32,160 
		32,156 36,156 36,152 40,152 40,148 40,144 36,144 	"/>
</g>
<g>
	<rect x="52" y="140" class="st24" width="4" height="4"/>
	<rect x="48" y="144" class="st24" width="4" height="4"/>
	<polygon class="st24" points="36,152 36,156 36,160 32,160 32,164 32,168 28,168 28,172 32,172 36,172 36,168 40,168 40,164 
		40,160 44,160 44,156 44,152 40,152 	"/>
</g>
<g>
	<rect x="68" y="52" class="st25" width="4" height="4"/>
	<polygon class="st25" points="40,148 40,152 44,152 44,156 48,156 48,152 48,148 44,148 	"/>
	<rect x="40" y="160" class="st25" width="4" height="4"/>
	<rect x="36" y="168" class="st25" width="4" height="4"/>
</g>
<g>
	<rect x="120" y="100" class="st26" width="4" height="4"/>
	<rect x="108" y="136" class="st26" width="4" height="4"/>
	<polygon class="st26" points="100,140 100,144 104,144 108,144 108,140 104,140 	"/>
	<polygon class="st26" points="100,156 96,156 92,156 92,160 96,160 100,160 104,160 108,160 108,156 104,156 	"/>
	<polygon class="st26" points="92,168 88,168 88,172 92,172 96,172 100,172 100,168 96,168 	"/>
</g>
<g>
	<rect x="60" y="96" class="st27" width="4" height="4"/>
	<rect x="40" y="132" class="st27" width="4" height="4"/>
	<rect x="20" y="164" class="st27" width="4" height="4"/>
	<rect x="24" y="172" class="st27" width="4" height="4"/>
</g>
<rect x="32" y="176" class="st16" width="4" height="4"/>
<g>
	<rect x="52" y="148" class="st28" width="4" height="4"/>
	<polygon class="st28" points="48,160 48,164 44,164 44,168 40,168 40,172 40,176 44,176 48,176 48,180 48,184 52,184 52,180 
		56,180 56,176 56,172 56,168 56,164 56,160 52,160 	"/>
	<rect x="60" y="164" class="st28" width="4" height="4"/>
</g>
<g>
	<rect x="104" y="40" class="st29" width="4" height="4"/>
	<rect x="100" y="48" class="st29" width="4" height="4"/>
	<rect x="96" y="56" class="st29" width="4" height="4"/>
	<rect x="112" y="64" class="st29" width="4" height="4"/>
	<rect x="104" y="76" class="st29" width="4" height="4"/>
	<rect x="96" y="96" class="st29" width="4" height="4"/>
	<polygon class="st29" points="60,156 56,156 52,156 52,152 48,152 48,156 44,156 44,160 44,164 48,164 48,160 52,160 56,160 
		56,164 56,168 56,172 56,176 60,176 60,172 60,168 60,164 64,164 64,160 60,160 	"/>
	<rect x="40" y="164" class="st29" width="4" height="4"/>
	<rect x="36" y="172" class="st29" width="4" height="4"/>
	<polygon class="st29" points="40,176 40,180 40,184 44,184 44,180 48,180 48,176 44,176 	"/>
	<rect x="52" y="180" class="st29" width="4" height="4"/>
</g>
<g>
	<rect x="100" y="96" class="st30" width="4" height="4"/>
	<polygon class="st30" points="104,116 104,112 100,112 100,116 100,120 104,120 104,124 108,124 108,120 108,116 	"/>
	<rect x="104" y="128" class="st30" width="4" height="4"/>
	<rect x="100" y="136" class="st30" width="4" height="4"/>
	<polygon class="st30" points="84,160 84,164 88,164 92,164 92,160 88,160 	"/>
	<polygon class="st30" points="76,164 72,164 72,168 76,168 76,172 80,172 80,176 84,176 84,172 88,172 88,168 84,168 84,164 
		80,164 	"/>
	<polygon class="st30" points="76,172 72,172 72,168 68,168 64,168 60,168 60,172 60,176 64,176 64,180 68,180 68,184 72,184 
		76,184 80,184 80,180 80,176 76,176 	"/>
	<polygon class="st30" points="60,176 56,176 56,180 56,184 60,184 64,184 64,180 60,180 	"/>
</g>
<g>
	<polygon class="st31" points="108,128 108,132 104,132 104,136 104,140 108,140 108,136 112,136 112,132 112,128 	"/>
	<polygon class="st31" points="104,144 100,144 100,148 96,148 96,152 96,156 100,156 104,156 108,156 108,152 108,148 112,148 
		112,144 112,140 108,140 108,144 	"/>
	<polygon class="st31" points="96,160 92,160 92,164 88,164 88,168 92,168 96,168 100,168 104,168 104,164 104,160 100,160 	"/>
	<polygon class="st31" points="88,172 84,172 84,176 84,180 88,180 92,180 92,176 96,176 96,172 92,172 	"/>
	<rect x="80" y="180" class="st31" width="4" height="4"/>
</g>
<rect x="88" y="180" class="st2" width="4" height="4"/>
<rect x="36" y="184" class="st32" width="4" height="4"/>
<rect x="64" y="184" class="st1" width="4" height="4"/>
<g>
	<rect x="128" y="56" class="st33" width="4" height="4"/>
	<rect x="120" y="60" class="st33" width="4" height="4"/>
	<rect x="112" y="84" class="st33" width="4" height="4"/>
	<rect x="120" y="92" class="st33" width="4" height="4"/>
	<polygon class="st33" points="104,120 100,120 100,116 100,112 100,108 96,108 92,108 92,112 96,112 96,116 92,116 92,120 92,124 
		92,128 96,128 96,132 96,136 92,136 92,140 88,140 88,144 92,144 92,148 88,148 84,148 84,152 80,152 80,156 76,156 72,156 72,160 
		68,160 64,160 64,164 64,168 68,168 72,168 72,164 76,164 80,164 84,164 84,160 88,160 92,160 92,156 96,156 96,152 96,148 
		100,148 100,144 100,140 100,136 104,136 104,132 104,128 108,128 108,124 104,124 	"/>
	<rect x="84" y="164" class="st33" width="4" height="4"/>
	<rect x="72" y="168" class="st33" width="4" height="4"/>
	<rect x="76" y="172" class="st33" width="4" height="4"/>
	<rect x="60" y="176" class="st33" width="4" height="4"/>
	<rect x="80" y="176" class="st33" width="4" height="4"/>
	<rect x="64" y="180" class="st33" width="4" height="4"/>
	<rect x="52" y="184" class="st33" width="4" height="4"/>
	<rect x="76" y="184" class="st33" width="4" height="4"/>
</g>
<g>
	<rect x="88" y="16" class="st34" width="4" height="4"/>
	<rect x="84" y="20" class="st34" width="4" height="4"/>
	<polygon class="st34" points="112,20 112,16 108,16 108,20 104,20 104,24 104,28 108,28 108,32 112,32 112,28 112,24 116,24 
		116,20 	"/>
	<polygon class="st34" points="80,28 76,28 76,32 76,36 72,36 72,40 72,44 76,44 76,40 80,40 80,36 80,32 84,32 84,28 84,24 80,24 	
		"/>
	<polygon class="st34" points="100,36 96,36 96,40 96,44 92,44 92,48 92,52 88,52 88,56 88,60 88,64 92,64 92,60 92,56 96,56 96,52 
		100,52 100,48 104,48 104,44 104,40 104,36 104,32 100,32 	"/>
	<polygon class="st34" points="68,48 68,52 72,52 72,48 72,44 68,44 	"/>
	<rect x="64" y="56" class="st34" width="4" height="4"/>
	<polygon class="st34" points="64,64 64,60 60,60 60,64 60,68 64,68 	"/>
	<polygon class="st34" points="80,84 76,84 76,88 72,88 72,92 76,92 80,92 80,88 84,88 84,84 84,80 80,80 	"/>
	<polygon class="st34" points="56,88 56,84 56,80 60,80 60,76 60,72 60,68 56,68 56,72 56,76 52,76 52,80 52,84 48,84 48,88 52,88 	
		"/>
	<polygon class="st34" points="68,96 64,96 64,100 64,104 60,104 60,108 60,112 56,112 56,116 56,120 52,120 52,124 52,128 48,128 
		48,132 48,136 44,136 44,140 44,144 48,144 52,144 52,140 56,140 56,136 60,136 60,132 60,128 64,128 64,124 64,120 68,120 68,116 
		68,112 72,112 72,108 72,104 76,104 76,100 76,96 72,96 	"/>
	<polygon class="st34" points="44,100 48,100 48,96 48,92 44,92 44,96 40,96 40,100 40,104 44,104 	"/>
	<polygon class="st34" points="36,108 36,112 40,112 40,108 40,104 36,104 	"/>
	<polygon class="st34" points="32,116 32,120 28,120 28,124 28,128 32,128 32,124 36,124 36,120 36,116 36,112 32,112 	"/>
	<rect x="24" y="128" class="st34" width="4" height="4"/>
	<polygon class="st34" points="28,140 28,136 24,136 20,136 20,140 24,140 	"/>
	<polygon class="st34" points="16,148 16,152 20,152 20,148 20,144 16,144 	"/>
	<polygon class="st34" points="12,156 12,160 16,160 16,156 16,152 12,152 	"/>
	<polygon class="st34" points="8,164 8,168 8,172 8,176 8,180 12,180 12,176 12,172 12,168 12,164 12,160 8,160 	"/>
	<polygon class="st34" points="28,172 28,176 24,176 24,180 24,184 24,188 24,192 28,192 28,188 32,188 32,184 32,180 32,176 
		36,176 36,172 32,172 	"/>
</g>
<rect x="48" y="188" class="st32" width="4" height="4"/>
<rect x="76" y="188" class="st2" width="4" height="4"/>
<g>
	<polygon class="st35" points="96,8 96,12 100,12 104,12 104,8 100,8 	"/>
	<rect x="124" y="8" class="st35" width="4" height="4"/>
	<polygon class="st35" points="88,12 88,16 92,16 96,16 96,12 92,12 	"/>
	<rect x="128" y="12" class="st35" width="4" height="4"/>
	<rect x="84" y="16" class="st35" width="4" height="4"/>
	<rect x="80" y="20" class="st35" width="4" height="4"/>
	<polygon class="st35" points="132,20 128,20 128,16 124,16 120,16 120,12 116,12 116,16 112,16 112,20 116,20 116,24 112,24 
		112,28 112,32 108,32 108,36 112,36 112,40 112,44 112,48 116,48 116,52 116,56 112,56 112,60 112,64 116,64 120,64 120,60 120,56 
		124,56 124,52 124,48 128,48 128,44 128,40 132,40 132,36 132,32 136,32 136,28 136,24 136,20 	"/>
	<rect x="76" y="24" class="st35" width="4" height="4"/>
	<polygon class="st35" points="72,32 72,36 76,36 76,32 76,28 72,28 	"/>
	<polygon class="st35" points="68,40 68,44 72,44 72,40 72,36 68,36 	"/>
	<polygon class="st35" points="64,48 64,52 68,52 68,48 68,44 64,44 	"/>
	<polygon class="st35" points="60,56 60,60 64,60 64,56 64,52 60,52 	"/>
	<polygon class="st35" points="56,64 56,68 60,68 60,64 60,60 56,60 	"/>
	<polygon class="st35" points="52,72 52,76 56,76 56,72 56,68 52,68 	"/>
	<polygon class="st35" points="48,80 48,84 52,84 52,80 52,76 48,76 	"/>
	<rect x="44" y="84" class="st35" width="4" height="4"/>
	<rect x="40" y="92" class="st35" width="4" height="4"/>
	<polygon class="st35" points="88,92 88,88 88,84 92,84 92,80 92,76 88,76 88,80 84,80 84,84 84,88 80,88 80,92 84,92 84,96 88,96 
		92,96 92,92 	"/>
	<rect x="92" y="96" class="st35" width="4" height="4"/>
	<polygon class="st35" points="40,100 40,96 36,96 36,100 36,104 40,104 	"/>
	<polygon class="st35" points="76,100 76,104 72,104 72,108 72,112 68,112 68,116 68,120 64,120 64,124 64,128 60,128 60,132 
		60,136 56,136 56,140 56,144 52,144 52,148 56,148 60,148 60,152 64,152 64,156 68,156 68,152 72,152 72,148 72,144 72,140 76,140 
		76,136 80,136 80,132 80,128 80,124 84,124 84,120 80,120 80,116 84,116 84,112 84,108 80,108 80,104 84,104 84,100 80,100 	"/>
	<polygon class="st35" points="36,108 36,104 32,104 32,108 32,112 36,112 	"/>
	<polygon class="st35" points="32,116 32,112 28,112 28,116 28,120 32,120 	"/>
	<polygon class="st35" points="28,124 28,120 24,120 24,124 24,128 28,128 	"/>
	<polygon class="st35" points="20,132 20,136 24,136 24,132 24,128 20,128 	"/>
	<polygon class="st35" points="16,140 16,144 20,144 20,140 20,136 16,136 	"/>
	<polygon class="st35" points="12,148 12,152 16,152 16,148 16,144 12,144 	"/>
	<polygon class="st35" points="8,156 8,160 12,160 12,156 12,152 8,152 	"/>
	<polygon class="st35" points="4,164 4,168 4,172 4,176 4,180 4,184 4,188 8,188 8,192 12,192 12,188 12,184 12,180 8,180 8,176 
		8,172 8,168 8,164 8,160 4,160 	"/>
	<polygon class="st35" points="48,180 44,180 44,184 40,184 40,188 36,188 36,184 40,184 40,180 40,176 36,176 36,180 32,180 
		32,184 32,188 28,188 28,192 28,196 28,200 32,200 36,200 40,200 40,196 44,196 48,196 48,192 48,188 52,188 52,184 48,184 	"/>
	<polygon class="st35" points="12,200 16,200 16,196 16,192 12,192 12,196 	"/>
</g>
<g>
	<polygon class="st36" points="124,12 120,12 120,16 124,16 128,16 128,12 	"/>
	<polygon class="st36" points="88,20 88,24 84,24 84,28 88,28 92,28 92,24 96,24 96,20 92,20 	"/>
	<rect x="52" y="92" class="st36" width="4" height="4"/>
	<rect x="48" y="96" class="st36" width="4" height="4"/>
	<rect x="32" y="128" class="st36" width="4" height="4"/>
	<polygon class="st36" points="28,136 28,140 32,140 32,136 32,132 28,132 	"/>
	<polygon class="st36" points="24,144 24,148 28,148 28,144 28,140 24,140 	"/>
	<polygon class="st36" points="20,152 20,156 24,156 24,152 24,148 20,148 	"/>
	<polygon class="st36" points="16,160 16,164 16,168 16,172 20,172 20,168 20,164 20,160 20,156 16,156 	"/>
	<rect x="28" y="200" class="st36" width="4" height="4"/>
</g>
<g>
	<polygon class="st37" points="84,28 84,32 80,32 80,36 80,40 76,40 76,44 76,48 72,48 72,52 76,52 80,52 80,48 84,48 84,44 84,40 
		88,40 88,36 88,32 92,32 92,28 88,28 	"/>
	<polygon class="st37" points="68,56 68,60 64,60 64,64 64,68 64,72 68,72 68,68 72,68 72,64 76,64 76,60 76,56 72,56 	"/>
	<rect x="144" y="80" class="st37" width="4" height="4"/>
	<rect x="136" y="96" class="st37" width="4" height="4"/>
	<polygon class="st37" points="44,100 44,104 44,108 40,108 40,112 40,116 36,116 36,120 40,120 44,120 44,116 48,116 48,112 
		48,108 52,108 52,104 52,100 48,100 	"/>
	<polygon class="st37" points="24,188 24,184 24,180 20,180 16,180 16,184 16,188 20,188 20,192 20,196 24,196 24,200 28,200 
		28,196 28,192 24,192 	"/>
	<rect x="32" y="200" class="st37" width="4" height="4"/>
</g>
<g>
	<polygon class="st38" points="116,8 112,8 108,8 104,8 104,12 100,12 96,12 96,16 96,20 100,20 100,24 104,24 104,20 108,20 
		108,16 112,16 116,16 116,12 120,12 124,12 124,8 120,8 	"/>
	<polygon class="st38" points="128,16 128,20 132,20 136,20 136,16 132,16 	"/>
	<polygon class="st38" points="92,24 92,28 92,32 88,32 88,36 88,40 84,40 84,44 84,48 80,48 80,52 76,52 72,52 72,56 76,56 80,56 
		84,56 84,60 88,60 88,56 88,52 92,52 92,48 92,44 96,44 96,40 96,36 100,36 100,32 100,28 100,24 96,24 	"/>
	<rect x="72" y="44" class="st38" width="4" height="4"/>
	<polygon class="st38" points="72,68 68,68 68,72 64,72 64,68 60,68 60,72 60,76 60,80 56,80 56,84 56,88 60,88 64,88 68,88 68,84 
		68,80 68,76 72,76 72,72 76,72 76,68 76,64 72,64 	"/>
	<rect x="152" y="64" class="st38" width="4" height="4"/>
	<polygon class="st38" points="148,72 148,76 152,76 152,72 152,68 148,68 	"/>
	<rect x="144" y="76" class="st38" width="4" height="4"/>
	<rect x="48" y="92" class="st38" width="4" height="4"/>
	<polygon class="st38" points="56,92 56,96 52,96 52,100 52,104 52,108 48,108 48,112 48,116 44,116 44,120 40,120 36,120 36,124 
		32,124 32,128 36,128 36,132 32,132 32,136 32,140 36,140 36,136 40,136 40,132 44,132 44,136 48,136 48,132 48,128 52,128 52,124 
		52,120 56,120 56,116 56,112 60,112 60,108 60,104 64,104 64,100 60,100 60,96 64,96 64,92 60,92 	"/>
	<polygon class="st38" points="132,104 132,108 136,108 136,104 136,100 132,100 	"/>
	<rect x="40" y="104" class="st38" width="4" height="4"/>
	<rect x="128" y="108" class="st38" width="4" height="4"/>
	<rect x="36" y="112" class="st38" width="4" height="4"/>
	<rect x="28" y="128" class="st38" width="4" height="4"/>
	<polygon class="st38" points="28,144 28,148 32,148 32,144 32,140 28,140 	"/>
	<rect x="20" y="144" class="st38" width="4" height="4"/>
	<rect x="24" y="148" class="st38" width="4" height="4"/>
	<rect x="16" y="152" class="st38" width="4" height="4"/>
	<polygon class="st38" points="24,156 20,156 20,160 20,164 24,164 24,160 	"/>
	<polygon class="st38" points="28,204 28,200 24,200 24,196 20,196 20,192 20,188 16,188 16,184 16,180 20,180 24,180 24,176 
		24,172 28,172 28,168 32,168 32,164 28,164 24,164 24,168 20,168 20,172 16,172 16,168 16,164 16,160 12,160 12,164 12,168 12,172 
		12,176 12,180 12,184 12,188 12,192 16,192 16,196 16,200 20,200 20,204 24,204 24,208 28,208 32,208 36,208 36,204 32,204 	"/>
</g>
<g>
	<polygon class="st39" points="124,4 120,4 116,4 112,4 112,8 116,8 120,8 124,8 128,8 128,4 	"/>
	<polygon class="st39" points="88,8 88,12 92,12 96,12 96,8 92,8 	"/>
	<rect x="84" y="12" class="st39" width="4" height="4"/>
	<rect x="80" y="16" class="st39" width="4" height="4"/>
	<rect x="76" y="20" class="st39" width="4" height="4"/>
	<rect x="72" y="24" class="st39" width="4" height="4"/>
	<polygon class="st39" points="148,24 148,20 148,16 144,16 144,12 140,12 140,8 136,8 132,8 128,8 128,12 132,12 132,16 136,16 
		136,20 136,24 136,28 136,32 132,32 132,36 132,40 128,40 128,44 128,48 124,48 124,52 124,56 128,56 132,56 136,56 140,56 144,56 
		144,52 148,52 148,48 148,44 148,40 152,40 152,36 152,32 152,28 152,24 	"/>
	<polygon class="st39" points="68,32 68,36 72,36 72,32 72,28 68,28 	"/>
	<rect x="64" y="36" class="st39" width="4" height="4"/>
	<polygon class="st39" points="60,56 60,52 56,52 56,56 56,60 60,60 	"/>
	<rect x="120" y="56" class="st39" width="4" height="4"/>
	<polygon class="st39" points="136,64 132,64 132,68 128,68 128,72 124,72 124,76 120,76 116,76 112,76 112,80 116,80 116,84 
		120,84 120,88 124,88 124,92 128,92 128,88 128,84 132,84 132,80 132,76 136,76 136,72 136,68 140,68 140,64 140,60 136,60 	"/>
	<polygon class="st39" points="56,64 56,60 52,60 52,64 52,68 56,68 	"/>
	<polygon class="st39" points="52,72 52,68 48,68 48,72 48,76 52,76 	"/>
	<rect x="44" y="80" class="st39" width="4" height="4"/>
	<rect x="40" y="84" class="st39" width="4" height="4"/>
	<rect x="36" y="92" class="st39" width="4" height="4"/>
	<rect x="32" y="100" class="st39" width="4" height="4"/>
	<polygon class="st39" points="112,100 112,96 112,92 108,92 108,88 104,88 104,92 104,96 104,100 100,100 100,104 104,104 108,104 
		108,108 112,108 112,112 116,112 116,108 116,104 112,104 	"/>
	<rect x="28" y="108" class="st39" width="4" height="4"/>
	<rect x="104" y="112" class="st39" width="4" height="4"/>
	<rect x="24" y="116" class="st39" width="4" height="4"/>
	<polygon class="st39" points="108,120 108,124 112,124 112,120 112,116 108,116 	"/>
	<rect x="20" y="124" class="st39" width="4" height="4"/>
	<rect x="84" y="124" class="st39" width="4" height="4"/>
	<polygon class="st39" points="80,132 80,136 84,136 88,136 88,132 84,132 84,128 80,128 	"/>
	<polygon class="st39" points="20,132 20,128 16,128 16,132 16,136 20,136 	"/>
	<polygon class="st39" points="16,140 16,136 12,136 12,140 12,144 16,144 	"/>
	<polygon class="st39" points="76,140 76,144 80,144 84,144 84,140 80,140 	"/>
	<polygon class="st39" points="72,148 72,152 76,152 76,148 76,144 72,144 	"/>
	<rect x="8" y="148" class="st39" width="4" height="4"/>
	<polygon class="st39" points="68,184 68,188 64,188 64,184 60,184 56,184 56,188 52,188 52,192 48,192 48,196 44,196 40,196 
		40,200 36,200 36,204 36,208 32,208 28,208 24,208 24,204 20,204 20,200 16,200 12,200 12,204 16,204 16,208 20,208 20,212 24,212 
		24,216 28,216 32,216 36,216 40,216 44,216 48,216 52,216 56,216 56,212 60,212 64,212 64,208 68,208 68,204 72,204 72,200 72,196 
		76,196 76,192 76,188 76,184 72,184 	"/>
	<rect x="8" y="192" class="st39" width="4" height="4"/>
</g>
<g>
	<polygon class="st40" points="164,52 164,48 164,44 164,40 164,36 160,36 160,40 160,44 160,48 160,52 156,52 156,56 156,60 
		152,60 152,64 156,64 156,68 152,68 152,72 152,76 148,76 148,80 148,84 144,84 144,88 144,92 140,92 140,96 140,100 136,100 
		136,104 136,108 132,108 132,112 128,112 128,116 124,116 124,120 128,120 128,124 132,124 136,124 136,120 136,116 140,116 
		140,112 140,108 144,108 144,104 144,100 148,100 148,96 148,92 152,92 152,88 152,84 156,84 156,80 156,76 160,76 160,72 160,68 
		164,68 164,64 164,60 164,56 168,56 168,52 	"/>
	<rect x="112" y="116" class="st40" width="4" height="4"/>
	<rect x="120" y="120" class="st40" width="4" height="4"/>
	<polygon class="st40" points="124,128 124,132 124,136 120,136 120,140 116,140 116,144 116,148 112,148 112,152 112,156 108,156 
		108,160 108,164 104,164 104,168 104,172 100,172 100,176 100,180 96,180 96,184 96,188 92,188 92,192 92,196 88,196 88,200 
		88,204 84,204 84,208 80,208 80,212 84,212 88,212 88,208 92,208 92,204 96,204 96,200 96,196 100,196 100,192 100,188 104,188 
		104,184 108,184 108,180 108,176 112,176 112,172 112,168 116,168 116,164 116,160 120,160 120,156 120,152 124,152 124,148 
		124,144 128,144 128,140 128,136 128,132 128,128 128,124 124,124 	"/>
	<rect x="76" y="212" class="st40" width="4" height="4"/>
	<polygon class="st40" points="68,216 68,220 72,220 76,220 76,216 72,216 	"/>
</g>
<g>
	<polygon class="st41" points="100,8 104,8 108,8 112,8 112,4 108,4 104,4 100,4 96,4 92,4 92,8 96,8 	"/>
	<rect x="84" y="8" class="st41" width="4" height="4"/>
	<rect x="80" y="12" class="st41" width="4" height="4"/>
	<rect x="76" y="16" class="st41" width="4" height="4"/>
	<rect x="72" y="20" class="st41" width="4" height="4"/>
	<rect x="68" y="24" class="st41" width="4" height="4"/>
	<polygon class="st41" points="156,28 156,24 156,20 152,20 152,16 148,16 148,20 148,24 152,24 152,28 152,32 152,36 152,40 
		148,40 148,44 148,48 148,52 144,52 144,56 144,60 148,60 148,64 144,64 144,60 140,60 140,64 140,68 136,68 136,72 136,76 132,76 
		132,80 132,84 128,84 128,88 128,92 124,92 124,96 124,100 124,104 124,108 120,108 120,112 116,112 116,116 120,116 124,116 
		128,116 128,112 128,108 132,108 132,104 132,100 136,100 136,96 140,96 140,92 144,92 144,88 144,84 144,80 144,76 148,76 148,72 
		148,68 152,68 152,64 152,60 156,60 156,56 156,52 160,52 160,48 160,44 160,40 160,36 160,32 160,28 	"/>
	<rect x="64" y="32" class="st41" width="4" height="4"/>
	<rect x="60" y="40" class="st41" width="4" height="4"/>
	<rect x="56" y="48" class="st41" width="4" height="4"/>
	<rect x="52" y="56" class="st41" width="4" height="4"/>
	<rect x="48" y="64" class="st41" width="4" height="4"/>
	<polygon class="st41" points="48,76 48,72 44,72 44,76 44,80 48,80 	"/>
	<rect x="32" y="96" class="st41" width="4" height="4"/>
	<rect x="28" y="104" class="st41" width="4" height="4"/>
	<rect x="24" y="112" class="st41" width="4" height="4"/>
	<rect x="20" y="120" class="st41" width="4" height="4"/>
	<polygon class="st41" points="120,120 116,120 112,120 112,124 108,124 108,128 112,128 112,132 112,136 112,140 112,144 112,148 
		116,148 116,144 116,140 120,140 120,136 124,136 124,132 124,128 124,124 120,124 	"/>
	<rect x="16" y="124" class="st41" width="4" height="4"/>
	<rect x="12" y="132" class="st41" width="4" height="4"/>
	<rect x="8" y="144" class="st41" width="4" height="4"/>
	<polygon class="st41" points="108,152 108,156 112,156 112,152 112,148 108,148 	"/>
	<rect x="4" y="156" class="st41" width="4" height="4"/>
	<rect x="104" y="160" class="st41" width="4" height="4"/>
	<rect x="100" y="168" class="st41" width="4" height="4"/>
	<polygon class="st41" points="96,176 92,176 92,180 92,184 88,184 88,180 84,180 84,184 80,184 80,188 80,192 76,192 76,196 
		72,196 72,200 72,204 68,204 68,208 64,208 64,212 60,212 56,212 56,216 52,216 48,216 44,216 40,216 36,216 32,216 28,216 28,220 
		32,220 36,220 36,224 40,224 44,224 48,224 52,224 56,224 60,224 64,224 64,220 68,220 68,216 72,216 76,216 76,212 80,212 80,208 
		84,208 84,204 88,204 88,200 88,196 92,196 92,192 92,188 96,188 96,184 96,180 100,180 100,176 100,172 96,172 	"/>
	<rect x="4" y="188" class="st41" width="4" height="4"/>
	<rect x="8" y="196" class="st41" width="4" height="4"/>
	<rect x="12" y="204" class="st41" width="4" height="4"/>
	<rect x="16" y="208" class="st41" width="4" height="4"/>
</g>
<g>
	<polygon class="st42" points="124,0 120,0 116,0 112,0 108,0 104,0 100,0 96,0 92,0 92,4 96,4 100,4 104,4 108,4 112,4 116,4 
		120,4 124,4 128,4 128,0 	"/>
	<polygon class="st42" points="84,4 84,8 88,8 92,8 92,4 88,4 	"/>
	<polygon class="st42" points="136,4 132,4 128,4 128,8 132,8 136,8 140,8 140,4 	"/>
	<rect x="80" y="8" class="st42" width="4" height="4"/>
	<rect x="140" y="8" class="st42" width="4" height="4"/>
	<rect x="76" y="12" class="st42" width="4" height="4"/>
	<polygon class="st42" points="148,12 144,12 144,16 148,16 152,16 152,12 	"/>
	<rect x="72" y="16" class="st42" width="4" height="4"/>
	<rect x="152" y="16" class="st42" width="4" height="4"/>
	<rect x="68" y="20" class="st42" width="4" height="4"/>
	<polygon class="st42" points="160,20 156,20 156,24 156,28 160,28 160,24 	"/>
	<polygon class="st42" points="64,28 64,32 68,32 68,28 68,24 64,24 	"/>
	<polygon class="st42" points="164,28 160,28 160,32 160,36 164,36 164,32 	"/>
	<polygon class="st42" points="60,36 60,40 64,40 64,36 64,32 60,32 	"/>
	<polygon class="st42" points="164,36 164,40 164,44 164,48 164,52 168,52 168,48 168,44 168,40 168,36 	"/>
	<polygon class="st42" points="56,44 56,48 60,48 60,44 60,40 56,40 	"/>
	<polygon class="st42" points="52,52 52,56 56,56 56,52 56,48 52,48 	"/>
	<polygon class="st42" points="48,60 48,64 52,64 52,60 52,56 48,56 	"/>
	<polygon class="st42" points="164,60 164,64 164,68 168,68 168,64 168,60 168,56 164,56 	"/>
	<polygon class="st42" points="44,68 44,72 48,72 48,68 48,64 44,64 	"/>
	<polygon class="st42" points="160,72 160,76 164,76 164,72 164,68 160,68 	"/>
	<polygon class="st42" points="40,76 40,80 36,80 36,84 36,88 40,88 40,84 44,84 44,80 44,76 44,72 40,72 	"/>
	<polygon class="st42" points="156,80 156,84 160,84 160,80 160,76 156,76 	"/>
	<polygon class="st42" points="152,88 152,92 156,92 156,88 156,84 152,84 	"/>
	<rect x="32" y="92" class="st42" width="4" height="4"/>
	<polygon class="st42" points="148,96 148,100 152,100 152,96 152,92 148,92 	"/>
	<polygon class="st42" points="32,100 32,96 28,96 28,100 28,104 32,104 	"/>
	<polygon class="st42" points="144,104 144,108 148,108 148,104 148,100 144,100 	"/>
	<polygon class="st42" points="28,108 28,104 24,104 24,108 24,112 28,112 	"/>
	<polygon class="st42" points="140,112 140,116 144,116 144,112 144,108 140,108 	"/>
	<polygon class="st42" points="24,116 24,112 20,112 20,116 20,120 24,120 	"/>
	<polygon class="st42" points="136,120 136,124 140,124 140,120 140,116 136,116 	"/>
	<rect x="16" y="120" class="st42" width="4" height="4"/>
	<rect x="132" y="124" class="st42" width="4" height="4"/>
	<polygon class="st42" points="16,128 16,124 12,124 12,128 12,132 16,132 	"/>
	<polygon class="st42" points="12,140 12,136 12,132 8,132 8,136 8,140 8,144 12,144 	"/>
	<rect x="124" y="144" class="st42" width="4" height="4"/>
	<polygon class="st42" points="8,152 8,148 8,144 4,144 4,148 4,152 4,156 8,156 	"/>
	<rect x="120" y="152" class="st42" width="4" height="4"/>
	<rect x="116" y="160" class="st42" width="4" height="4"/>
	<rect x="112" y="168" class="st42" width="4" height="4"/>
	<rect x="108" y="176" class="st42" width="4" height="4"/>
	<polygon class="st42" points="4,184 4,180 4,176 4,172 4,168 4,164 4,160 4,156 0,156 0,160 0,164 0,168 0,172 0,176 0,180 0,184 
		0,188 0,192 4,192 4,188 	"/>
	<rect x="104" y="184" class="st42" width="4" height="4"/>
	<polygon class="st42" points="100,192 100,196 104,196 104,192 104,188 100,188 	"/>
	<polygon class="st42" points="8,192 4,192 4,196 4,200 8,200 8,196 	"/>
	<polygon class="st42" points="96,200 96,204 100,204 100,200 100,196 96,196 	"/>
	<polygon class="st42" points="12,200 8,200 8,204 8,208 12,208 12,204 	"/>
	<rect x="92" y="204" class="st42" width="4" height="4"/>
	<rect x="12" y="208" class="st42" width="4" height="4"/>
	<rect x="88" y="208" class="st42" width="4" height="4"/>
	<polygon class="st42" points="20,212 16,212 16,216 20,216 24,216 24,212 	"/>
	<polygon class="st42" points="80,212 80,216 84,216 88,216 88,212 84,212 	"/>
	<rect x="24" y="216" class="st42" width="4" height="4"/>
	<rect x="76" y="216" class="st42" width="4" height="4"/>
	<polygon class="st42" points="32,220 28,220 28,224 32,224 36,224 36,220 	"/>
	<polygon class="st42" points="68,220 64,220 64,224 68,224 72,224 76,224 76,220 72,220 	"/>
	<polygon class="st42" points="56,224 52,224 48,224 44,224 40,224 36,224 36,228 40,228 44,228 48,228 52,228 56,228 60,228 
		64,228 64,224 60,224 	"/>
</g>
</svg>
