<?xml version="1.0" encoding="utf-8"?>
<!-- Generator: Adobe Illustrator 24.2.0, SVG Export Plug-In . SVG Version: 6.00 Build 0)  -->
<svg version="1.1" id="圖層_1" shape-rendering="crispEdges"
	 xmlns="http://www.w3.org/2000/svg" xmlns:xlink="http://www.w3.org/1999/xlink" x="0px" y="0px" viewBox="0 0 168 228.4"
	 style="enable-background:new 0 0 168 228.4;" xml:space="preserve">
<style type="text/css">
	.st0{fill:#DCD115;}
	.st1{fill:#D8E3B6;}
	.st2{fill:#E0D518;}
	.st3{fill:#E0CF5F;}
	.st4{fill:#D8D726;}
	.st5{fill:#998A2D;}
	.st6{fill:#D6CA10;}
	.st7{fill:#DBCF14;}
	.st8{fill:#495A43;}
	.st9{fill:#1E3D4B;}
	.st10{fill:#BCB243;}
	.st11{fill:#DCCA5C;}
	.st12{fill:#C4AF35;}
	.st13{fill:#BFAA31;}
	.st14{fill:#F4F3C7;}
	.st15{fill:#758D6B;}
	.st16{fill:#C0AB32;}
	.st17{fill:#E0E0A9;}
	.st18{fill:#DCDCA5;}
	.st19{fill:#DBC95A;}
	.st20{fill:#657B5D;}
	.st21{fill:#5CC1D6;}
	.st22{fill:#D2E0F0;}
	.st23{fill:#5397A7;}
	.st24{fill:#D6D6A0;}
	.st25{fill:#DBDBA4;}
	.st26{fill:#5E7457;}
	.st27{fill:#254A5A;}
	.st28{fill:#4C5E46;}
	.st29{fill:#2A5365;}
</style>
<g>
	<rect x="120" y="24" class="st0" width="4" height="4"/>
	<rect x="116" y="28" class="st0" width="4" height="4"/>
</g>
<g>
	<rect x="92" y="40" class="st1" width="4" height="4"/>
	<polygon class="st1" points="88,48 88,52 92,52 92,48 92,44 88,44 	"/>
	<polygon class="st1" points="84,56 84,60 88,60 88,56 88,52 84,52 	"/>
</g>
<g>
	<rect x="100" y="28" class="st2" width="4" height="4"/>
	<rect x="76" y="76" class="st2" width="4" height="4"/>
</g>
<g>
	<polygon class="st3" points="104,36 100,36 100,40 104,40 108,40 108,36 	"/>
	<rect x="96" y="40" class="st3" width="4" height="4"/>
	<polygon class="st3" points="92,48 92,52 88,52 88,56 88,60 88,64 88,68 92,68 92,64 92,60 92,56 96,56 96,52 96,48 96,44 92,44 	
		"/>
	<polygon class="st3" points="84,72 84,76 84,80 88,80 88,76 88,72 88,68 84,68 	"/>
</g>
<g>
	<polygon class="st4" points="100,20 100,24 100,28 104,28 104,24 104,20 	"/>
	<rect x="84" y="40" class="st4" width="4" height="4"/>
	<rect x="76" y="64" class="st4" width="4" height="4"/>
	<rect x="72" y="76" class="st4" width="4" height="4"/>
	<rect x="68" y="80" class="st4" width="4" height="4"/>
</g>
<g>
	<rect x="104" y="40" class="st5" width="4" height="4"/>
	<polygon class="st5" points="108,48 104,48 104,52 100,52 100,56 96,56 96,60 96,64 100,64 100,68 96,68 92,68 92,72 92,76 92,80 
		92,84 96,84 96,80 100,80 100,76 100,72 104,72 104,68 104,64 104,60 108,60 108,56 108,52 112,52 112,48 	"/>
</g>
<rect x="128" y="92" class="st6" width="4" height="4"/>
<g>
	<rect x="136" y="32" class="st7" width="4" height="4"/>
	<rect x="132" y="36" class="st7" width="4" height="4"/>
	<rect x="128" y="40" class="st7" width="4" height="4"/>
	<rect x="136" y="56" class="st7" width="4" height="4"/>
	<polygon class="st7" points="128,60 124,60 124,64 128,64 132,64 136,64 136,60 132,60 	"/>
	<polygon class="st7" points="124,76 120,76 120,80 124,80 128,80 132,80 132,76 128,76 	"/>
	<polygon class="st7" points="120,88 120,92 124,92 128,92 128,88 124,88 	"/>
	<rect x="108" y="100" class="st7" width="4" height="4"/>
</g>
<g>
	<polygon class="st8" points="64,92 64,96 68,96 72,96 72,92 68,92 	"/>
	<polygon class="st8" points="80,96 76,96 76,100 80,100 84,100 84,96 	"/>
	<polygon class="st8" points="88,100 84,100 84,104 88,104 92,104 92,100 	"/>
	<polygon class="st8" points="96,104 92,104 92,108 96,108 100,108 100,104 	"/>
	<polygon class="st8" points="104,108 100,108 100,112 104,112 108,112 108,108 	"/>
	<rect x="108" y="112" class="st8" width="4" height="4"/>
</g>
<g>
	<polygon class="st9" points="68,88 64,88 60,88 56,88 52,88 48,88 44,88 40,88 40,92 44,92 48,92 52,92 56,92 60,92 64,92 68,92 
		72,92 72,88 	"/>
	<polygon class="st9" points="80,92 76,92 72,92 72,96 76,96 80,96 84,96 84,92 	"/>
	<polygon class="st9" points="88,96 84,96 84,100 88,100 92,100 92,96 	"/>
	<polygon class="st9" points="96,100 92,100 92,104 96,104 100,104 100,100 	"/>
	<polygon class="st9" points="104,104 100,104 100,108 104,108 108,108 108,104 	"/>
	<rect x="108" y="108" class="st9" width="4" height="4"/>
	<rect x="112" y="112" class="st9" width="4" height="4"/>
	<polygon class="st9" points="120,116 116,116 116,120 120,120 124,120 124,116 	"/>
	<rect x="124" y="120" class="st9" width="4" height="4"/>
	<polygon class="st9" points="128,124 128,128 128,132 132,132 132,128 132,124 	"/>
</g>
<rect x="44" y="132" class="st10" width="4" height="4"/>
<rect x="40" y="136" class="st10" width="4" height="4"/>
<rect x="40" y="140" class="st10" width="4" height="4"/>
<g>
	<polygon class="st11" points="116,40 116,36 112,36 108,36 108,40 112,40 112,44 112,48 116,48 116,52 116,56 120,56 120,52 
		120,48 120,44 120,40 	"/>
	<rect x="108" y="52" class="st11" width="4" height="4"/>
	<polygon class="st11" points="112,60 108,60 108,64 108,68 104,68 104,72 104,76 104,80 100,80 100,84 100,88 96,88 96,92 100,92 
		100,96 104,96 104,92 104,88 108,88 108,84 108,80 108,76 112,76 112,72 112,68 112,64 116,64 116,60 116,56 112,56 	"/>
	<polygon class="st11" points="88,80 84,80 84,84 84,88 88,88 88,84 	"/>
	<polygon class="st11" points="92,88 88,88 88,92 88,96 92,96 96,96 96,92 92,92 	"/>
	<polygon class="st11" points="80,108 80,112 80,116 84,116 84,112 84,108 84,104 80,104 	"/>
	<rect x="76" y="116" class="st11" width="4" height="4"/>
	<polygon class="st11" points="72,124 72,128 72,132 76,132 76,128 76,124 76,120 72,120 	"/>
	<polygon class="st11" points="68,136 68,140 68,144 68,148 68,152 72,152 72,148 72,144 72,140 72,136 72,132 68,132 	"/>
	<rect x="64" y="156" class="st11" width="4" height="4"/>
</g>
<g>
	<polygon class="st12" points="100,40 100,44 96,44 96,48 96,52 96,56 100,56 100,52 100,48 104,48 104,44 104,40 	"/>
	<polygon class="st12" points="92,60 92,64 96,64 96,60 96,56 92,56 	"/>
	<rect x="88" y="68" class="st12" width="4" height="4"/>
	<rect x="60" y="120" class="st12" width="4" height="4"/>
	<rect x="56" y="124" class="st12" width="4" height="4"/>
	<polygon class="st12" points="48,128 48,132 52,132 56,132 56,128 52,128 	"/>
	<polygon class="st12" points="40,148 40,152 44,152 44,148 44,144 40,144 	"/>
	<polygon class="st12" points="36,156 36,160 36,164 40,164 40,160 40,156 40,152 36,152 	"/>
</g>
<g>
	<rect x="80" y="132" class="st13" width="4" height="4"/>
	<polygon class="st13" points="76,140 76,144 76,148 80,148 80,144 80,140 80,136 76,136 	"/>
	<polygon class="st13" points="72,152 72,156 76,156 76,152 76,148 72,148 	"/>
	<polygon class="st13" points="68,160 68,164 72,164 72,160 72,156 68,156 	"/>
</g>
<rect x="20" y="184" class="st14" width="4" height="4"/>
<g>
	<rect x="88" y="16" class="st15" width="4" height="4"/>
	<rect x="84" y="20" class="st15" width="4" height="4"/>
	<polygon class="st15" points="112,20 112,16 108,16 108,20 104,20 104,24 104,28 104,32 108,32 112,32 112,28 112,24 116,24 
		116,20 	"/>
	<polygon class="st15" points="80,28 76,28 76,32 76,36 72,36 72,40 72,44 76,44 76,40 80,40 80,36 80,32 84,32 84,28 84,24 80,24 	
		"/>
	<polygon class="st15" points="68,48 68,52 64,52 64,56 64,60 68,60 68,56 72,56 72,52 72,48 72,44 68,44 	"/>
	<polygon class="st15" points="60,64 60,68 64,68 64,64 64,60 60,60 	"/>
	<polygon class="st15" points="56,72 56,76 52,76 52,80 52,84 48,84 48,88 52,88 56,88 56,84 56,80 60,80 60,76 60,72 60,68 56,68 	
		"/>
	<polygon class="st15" points="76,84 72,84 72,88 72,92 76,92 80,92 80,88 80,84 80,80 76,80 	"/>
	<polygon class="st15" points="68,96 64,96 64,100 64,104 60,104 60,108 60,112 56,112 56,116 56,120 52,120 52,124 52,128 56,128 
		56,124 60,124 60,120 64,120 68,120 68,116 68,112 72,112 72,108 72,104 76,104 76,100 76,96 72,96 	"/>
	<polygon class="st15" points="44,100 48,100 48,96 48,92 44,92 44,96 40,96 40,100 40,104 44,104 	"/>
	<polygon class="st15" points="40,108 40,104 36,104 36,108 36,112 40,112 	"/>
	<polygon class="st15" points="32,124 36,124 36,120 36,116 36,112 32,112 32,116 32,120 28,120 28,124 28,128 32,128 	"/>
	<rect x="60" y="124" class="st15" width="4" height="4"/>
	<polygon class="st15" points="56,132 52,132 48,132 48,136 44,136 44,140 44,144 44,148 44,152 40,152 40,156 40,160 40,164 
		44,164 44,160 44,156 48,156 48,152 48,148 52,148 52,144 56,144 56,140 56,136 60,136 60,132 60,128 56,128 	"/>
	<polygon class="st15" points="24,140 28,140 28,136 28,132 28,128 24,128 24,132 24,136 20,136 20,140 20,144 24,144 	"/>
	<polygon class="st15" points="16,148 16,152 20,152 20,148 20,144 16,144 	"/>
	<polygon class="st15" points="12,156 12,160 16,160 16,156 16,152 12,152 	"/>
	<polygon class="st15" points="8,164 8,168 8,172 8,176 8,180 12,180 12,176 12,172 12,168 12,164 12,160 8,160 	"/>
	<polygon class="st15" points="36,160 32,160 32,164 32,168 28,168 28,172 28,176 24,176 24,180 24,184 24,188 28,188 32,188 
		32,184 32,180 36,180 36,176 36,172 40,172 40,168 40,164 36,164 	"/>
</g>
<g>
	<polygon class="st16" points="112,40 108,40 108,44 104,44 104,48 108,48 112,48 112,44 	"/>
	<rect x="100" y="48" class="st16" width="4" height="4"/>
	<polygon class="st16" points="112,48 112,52 112,56 116,56 116,52 116,48 	"/>
	<rect x="108" y="56" class="st16" width="4" height="4"/>
	<polygon class="st16" points="104,64 104,68 108,68 108,64 108,60 104,60 	"/>
	<polygon class="st16" points="100,68 100,64 96,64 92,64 92,68 96,68 	"/>
	<polygon class="st16" points="100,76 100,80 104,80 104,76 104,72 100,72 	"/>
	<polygon class="st16" points="96,84 92,84 92,80 92,76 92,72 88,72 88,76 88,80 88,84 88,88 92,88 92,92 96,92 96,88 100,88 
		100,84 100,80 96,80 	"/>
	<rect x="96" y="92" class="st16" width="4" height="4"/>
	<rect x="88" y="104" class="st16" width="4" height="4"/>
	<rect x="84" y="108" class="st16" width="4" height="4"/>
	<rect x="76" y="112" class="st16" width="4" height="4"/>
	<polygon class="st16" points="68,116 68,120 72,120 76,120 76,116 72,116 	"/>
	<rect x="64" y="120" class="st16" width="4" height="4"/>
	<rect x="60" y="164" class="st16" width="4" height="4"/>
	<polygon class="st16" points="44,168 44,164 40,164 40,168 40,172 40,176 44,176 44,172 	"/>
	<rect x="56" y="168" class="st16" width="4" height="4"/>
	<polygon class="st16" points="48,172 48,176 52,176 56,176 56,172 52,172 	"/>
	<polygon class="st16" points="44,180 40,180 40,184 44,184 48,184 48,180 48,176 44,176 	"/>
	<rect x="36" y="184" class="st16" width="4" height="4"/>
	<rect x="48" y="184" class="st16" width="4" height="4"/>
</g>
<g>
	<polygon class="st17" points="104,32 100,32 100,36 104,36 108,36 108,32 	"/>
	<rect x="96" y="36" class="st17" width="4" height="4"/>
	<polygon class="st17" points="84,64 84,68 88,68 88,64 88,60 84,60 	"/>
	<polygon class="st17" points="80,72 80,76 80,80 80,84 80,88 84,88 84,84 84,80 84,76 84,72 84,68 80,68 	"/>
	<rect x="24" y="188" class="st17" width="4" height="4"/>
</g>
<g>
	<polygon class="st18" points="124,40 124,36 120,36 120,32 116,32 112,32 108,32 108,36 112,36 116,36 116,40 120,40 120,44 
		120,48 120,52 120,56 124,56 124,52 124,48 128,48 128,44 128,40 	"/>
	<polygon class="st18" points="116,60 116,64 120,64 120,60 120,56 116,56 	"/>
	<polygon class="st18" points="112,68 112,72 116,72 116,68 116,64 112,64 	"/>
	<rect x="108" y="76" class="st18" width="4" height="4"/>
	<rect x="84" y="88" class="st18" width="4" height="4"/>
	<rect x="32" y="184" class="st18" width="4" height="4"/>
	<rect x="28" y="188" class="st18" width="4" height="4"/>
</g>
<g>
	<rect x="104" y="88" class="st19" width="4" height="4"/>
	<rect x="100" y="96" class="st19" width="4" height="4"/>
	<polygon class="st19" points="92,112 92,116 96,116 96,112 96,108 92,108 	"/>
	<rect x="88" y="116" class="st19" width="4" height="4"/>
	<polygon class="st19" points="84,124 84,128 88,128 88,124 88,120 84,120 	"/>
	<rect x="80" y="128" class="st19" width="4" height="4"/>
	<rect x="68" y="152" class="st19" width="4" height="4"/>
	<polygon class="st19" points="68,180 68,176 68,172 68,168 68,164 68,160 64,160 64,164 64,168 64,172 64,176 64,180 64,184 
		64,188 68,188 68,184 	"/>
	<rect x="68" y="188" class="st19" width="4" height="4"/>
</g>
<g>
	<polygon class="st20" points="96,8 96,12 100,12 104,12 104,8 100,8 	"/>
	<rect x="124" y="8" class="st20" width="4" height="4"/>
	<polygon class="st20" points="88,12 88,16 92,16 96,16 96,12 92,12 	"/>
	<rect x="128" y="12" class="st20" width="4" height="4"/>
	<rect x="84" y="16" class="st20" width="4" height="4"/>
	<rect x="80" y="20" class="st20" width="4" height="4"/>
	<polygon class="st20" points="132,20 128,20 128,16 124,16 120,16 120,12 116,12 116,16 112,16 112,20 116,20 116,24 112,24 
		112,28 112,32 116,32 116,28 120,28 120,24 124,24 124,28 120,28 120,32 120,36 124,36 124,40 128,40 132,40 132,36 132,32 136,32 
		136,28 136,24 136,20 	"/>
	<rect x="76" y="24" class="st20" width="4" height="4"/>
	<polygon class="st20" points="72,32 72,36 76,36 76,32 76,28 72,28 	"/>
	<polygon class="st20" points="68,40 68,44 72,44 72,40 72,36 68,36 	"/>
	<polygon class="st20" points="64,48 64,52 68,52 68,48 68,44 64,44 	"/>
	<polygon class="st20" points="60,56 60,60 64,60 64,56 64,52 60,52 	"/>
	<polygon class="st20" points="56,64 56,68 60,68 60,64 60,60 56,60 	"/>
	<polygon class="st20" points="52,72 52,76 56,76 56,72 56,68 52,68 	"/>
	<polygon class="st20" points="48,80 48,84 52,84 52,80 52,76 48,76 	"/>
	<rect x="44" y="84" class="st20" width="4" height="4"/>
	<rect x="80" y="88" class="st20" width="4" height="4"/>
	<rect x="40" y="92" class="st20" width="4" height="4"/>
	<rect x="84" y="92" class="st20" width="4" height="4"/>
	<polygon class="st20" points="92,96 92,100 96,100 100,100 100,96 96,96 	"/>
	<polygon class="st20" points="40,100 40,96 36,96 36,100 36,104 40,104 	"/>
	<polygon class="st20" points="80,100 76,100 76,104 72,104 72,108 72,112 68,112 68,116 72,116 76,116 76,112 80,112 80,108 
		80,104 84,104 84,100 	"/>
	<rect x="84" y="104" class="st20" width="4" height="4"/>
	<polygon class="st20" points="36,108 36,104 32,104 32,108 32,112 36,112 	"/>
	<rect x="88" y="108" class="st20" width="4" height="4"/>
	<polygon class="st20" points="84,116 80,116 80,120 76,120 76,124 76,128 76,132 72,132 72,136 72,140 72,144 76,144 76,140 
		76,136 80,136 80,132 80,128 84,128 84,124 84,120 88,120 88,116 88,112 84,112 	"/>
	<polygon class="st20" points="32,116 32,112 28,112 28,116 28,120 32,120 	"/>
	<polygon class="st20" points="28,124 28,120 24,120 24,124 24,128 28,128 	"/>
	<polygon class="st20" points="72,124 72,120 68,120 68,124 64,124 64,128 60,128 60,132 60,136 56,136 56,140 56,144 52,144 
		52,148 48,148 48,152 48,156 44,156 44,160 44,164 44,168 44,172 44,176 48,176 48,172 52,172 56,172 56,168 60,168 60,164 64,164 
		64,160 64,156 68,156 68,152 68,148 68,144 68,140 68,136 68,132 72,132 72,128 	"/>
	<polygon class="st20" points="20,132 20,136 24,136 24,132 24,128 20,128 	"/>
	<polygon class="st20" points="16,140 16,144 20,144 20,140 20,136 16,136 	"/>
	<polygon class="st20" points="12,148 12,152 16,152 16,148 16,144 12,144 	"/>
	<polygon class="st20" points="8,156 8,160 12,160 12,156 12,152 8,152 	"/>
	<polygon class="st20" points="4,164 4,168 4,172 4,176 4,180 4,184 4,188 8,188 8,192 12,192 12,188 12,184 12,180 8,180 8,176 
		8,172 8,168 8,164 8,160 4,160 	"/>
	<rect x="56" y="172" class="st20" width="4" height="4"/>
	<polygon class="st20" points="44,180 44,176 40,176 40,172 36,172 36,176 36,180 32,180 32,184 36,184 40,184 40,180 	"/>
	<polygon class="st20" points="48,176 48,180 48,184 52,184 56,184 56,180 56,176 52,176 	"/>
	<polygon class="st20" points="40,184 40,188 36,188 32,188 32,192 28,192 28,196 28,200 32,200 36,200 40,200 40,196 44,196 
		48,196 48,192 52,192 52,188 48,188 48,184 44,184 	"/>
	<polygon class="st20" points="12,200 16,200 16,196 16,192 12,192 12,196 	"/>
</g>
<g>
	<polygon class="st21" points="124,12 120,12 120,16 124,16 128,16 128,12 	"/>
	<polygon class="st21" points="92,20 88,20 88,24 84,24 84,28 88,28 92,28 92,24 96,24 96,20 96,16 92,16 	"/>
	<rect x="52" y="92" class="st21" width="4" height="4"/>
	<rect x="48" y="96" class="st21" width="4" height="4"/>
	<rect x="32" y="128" class="st21" width="4" height="4"/>
	<polygon class="st21" points="28,136 28,140 32,140 32,136 32,132 28,132 	"/>
	<polygon class="st21" points="24,144 24,148 28,148 28,144 28,140 24,140 	"/>
	<polygon class="st21" points="20,152 20,156 24,156 24,152 24,148 20,148 	"/>
	<polygon class="st21" points="16,160 16,164 16,168 16,172 20,172 20,168 20,164 20,160 20,156 16,156 	"/>
	<rect x="28" y="200" class="st21" width="4" height="4"/>
</g>
<g>
	<polygon class="st22" points="84,28 84,32 80,32 80,36 80,40 76,40 76,44 76,48 72,48 72,52 76,52 80,52 80,48 84,48 84,44 84,40 
		88,40 88,36 88,32 92,32 92,28 88,28 	"/>
	<polygon class="st22" points="68,56 68,60 64,60 64,64 64,68 64,72 68,72 68,68 72,68 72,64 76,64 76,60 76,56 72,56 	"/>
	<rect x="144" y="80" class="st22" width="4" height="4"/>
	<rect x="136" y="96" class="st22" width="4" height="4"/>
	<polygon class="st22" points="44,100 44,104 44,108 40,108 40,112 40,116 36,116 36,120 40,120 44,120 44,116 48,116 48,112 
		48,108 52,108 52,104 52,100 48,100 	"/>
	<polygon class="st22" points="24,184 24,180 20,180 16,180 16,184 16,188 20,188 20,184 	"/>
	<polygon class="st22" points="24,188 20,188 20,192 20,196 24,196 24,200 28,200 28,196 28,192 24,192 	"/>
	<rect x="32" y="200" class="st22" width="4" height="4"/>
</g>
<g>
	<polygon class="st23" points="116,8 112,8 108,8 104,8 104,12 100,12 96,12 96,16 96,20 96,24 92,24 92,28 92,32 88,32 88,36 
		88,40 88,44 92,44 92,40 96,40 96,36 100,36 100,32 100,28 100,24 100,20 104,20 108,20 108,16 112,16 116,16 116,12 120,12 
		124,12 124,8 120,8 	"/>
	<polygon class="st23" points="128,16 128,20 132,20 136,20 136,16 132,16 	"/>
	<rect x="72" y="44" class="st23" width="4" height="4"/>
	<polygon class="st23" points="84,48 80,48 80,52 76,52 72,52 72,56 76,56 76,60 76,64 80,64 80,68 84,68 84,64 84,60 84,56 84,52 
		88,52 88,48 88,44 84,44 	"/>
	<polygon class="st23" points="76,64 72,64 72,68 68,68 68,72 64,72 64,68 60,68 60,72 60,76 60,80 56,80 56,84 56,88 60,88 64,88 
		68,88 72,88 72,84 68,84 68,80 72,80 72,76 76,76 80,76 80,72 80,68 76,68 	"/>
	<rect x="152" y="64" class="st23" width="4" height="4"/>
	<polygon class="st23" points="148,72 148,76 152,76 152,72 152,68 148,68 	"/>
	<rect x="144" y="76" class="st23" width="4" height="4"/>
	<rect x="72" y="80" class="st23" width="4" height="4"/>
	<rect x="48" y="92" class="st23" width="4" height="4"/>
	<polygon class="st23" points="56,92 56,96 52,96 52,100 52,104 52,108 48,108 48,112 48,116 44,116 44,120 40,120 36,120 36,124 
		32,124 32,128 36,128 36,132 32,132 32,136 32,140 28,140 28,144 28,148 24,148 24,152 24,156 20,156 20,160 20,164 20,168 20,172 
		16,172 16,168 16,164 16,160 12,160 12,164 12,168 12,172 12,176 12,180 12,184 12,188 12,192 16,192 16,196 16,200 20,200 20,204 
		24,204 24,208 28,208 32,208 36,208 36,204 32,204 28,204 28,200 24,200 24,196 20,196 20,192 20,188 16,188 16,184 16,180 20,180 
		24,180 24,176 28,176 28,172 28,168 32,168 32,164 32,160 36,160 36,156 36,152 40,152 40,148 40,144 40,140 40,136 44,136 44,132 
		48,132 48,128 52,128 52,124 52,120 56,120 56,116 56,112 60,112 60,108 60,104 64,104 64,100 64,96 64,92 60,92 	"/>
	<polygon class="st23" points="132,104 132,108 136,108 136,104 136,100 132,100 	"/>
	<rect x="40" y="104" class="st23" width="4" height="4"/>
	<rect x="128" y="108" class="st23" width="4" height="4"/>
	<rect x="36" y="112" class="st23" width="4" height="4"/>
	<rect x="28" y="128" class="st23" width="4" height="4"/>
	<rect x="20" y="144" class="st23" width="4" height="4"/>
	<rect x="16" y="152" class="st23" width="4" height="4"/>
</g>
<rect x="72" y="204" class="st24" width="4" height="4"/>
<g>
	<polygon class="st25" points="124,48 124,52 124,56 128,56 128,52 128,48 	"/>
	<polygon class="st25" points="120,60 120,64 116,64 116,68 116,72 112,72 112,76 112,80 108,80 108,84 108,88 108,92 104,92 
		104,96 104,100 108,100 112,100 112,96 116,96 116,92 120,92 120,88 120,84 120,80 120,76 120,72 124,72 124,68 124,64 124,60 
		124,56 120,56 	"/>
	<rect x="52" y="188" class="st25" width="4" height="4"/>
	<polygon class="st25" points="56,196 56,200 56,204 60,204 60,200 60,196 60,192 56,192 	"/>
	<polygon class="st25" points="68,196 68,200 68,204 72,204 72,200 72,196 72,192 68,192 	"/>
	<rect x="52" y="204" class="st25" width="4" height="4"/>
	<rect x="48" y="212" class="st25" width="4" height="4"/>
</g>
<g>
	<polygon class="st26" points="124,4 120,4 116,4 112,4 112,8 116,8 120,8 124,8 128,8 128,4 	"/>
	<polygon class="st26" points="96,12 96,8 92,8 88,8 88,12 92,12 	"/>
	<rect x="84" y="12" class="st26" width="4" height="4"/>
	<rect x="80" y="16" class="st26" width="4" height="4"/>
	<rect x="76" y="20" class="st26" width="4" height="4"/>
	<rect x="72" y="24" class="st26" width="4" height="4"/>
	<polygon class="st26" points="148,24 148,20 148,16 144,16 144,12 140,12 140,8 136,8 132,8 128,8 128,12 132,12 132,16 136,16 
		136,20 136,24 136,28 136,32 140,32 140,36 136,36 136,40 132,40 132,44 128,44 128,48 128,52 128,56 124,56 124,60 128,60 132,60 
		136,60 136,56 140,56 140,60 144,60 144,56 144,52 148,52 148,48 148,44 148,40 152,40 152,36 152,32 152,28 152,24 	"/>
	<polygon class="st26" points="72,32 72,28 68,28 68,32 68,36 72,36 	"/>
	<rect x="132" y="32" class="st26" width="4" height="4"/>
	<polygon class="st26" points="68,40 68,36 64,36 64,40 64,44 68,44 	"/>
	<polygon class="st26" points="64,48 64,44 60,44 60,48 60,52 64,52 	"/>
	<polygon class="st26" points="60,56 60,52 56,52 56,56 56,60 60,60 	"/>
	<polygon class="st26" points="136,64 132,64 128,64 124,64 124,68 124,72 120,72 120,76 124,76 128,76 132,76 136,76 136,72 
		136,68 140,68 140,64 140,60 136,60 	"/>
	<polygon class="st26" points="56,64 56,60 52,60 52,64 52,68 56,68 	"/>
	<polygon class="st26" points="52,72 52,68 48,68 48,72 48,76 52,76 	"/>
	<rect x="44" y="80" class="st26" width="4" height="4"/>
	<polygon class="st26" points="124,80 120,80 120,84 120,88 124,88 128,88 128,84 132,84 132,80 128,80 	"/>
	<rect x="40" y="84" class="st26" width="4" height="4"/>
	<rect x="36" y="92" class="st26" width="4" height="4"/>
	<polygon class="st26" points="116,92 116,96 112,96 112,100 112,104 108,104 108,108 112,108 112,112 116,112 116,108 120,108 
		120,104 120,100 124,100 124,96 124,92 120,92 	"/>
	<rect x="32" y="100" class="st26" width="4" height="4"/>
	<polygon class="st26" points="104,100 100,100 100,104 104,104 108,104 108,100 	"/>
	<rect x="28" y="108" class="st26" width="4" height="4"/>
	<rect x="88" y="112" class="st26" width="4" height="4"/>
	<polygon class="st26" points="108,112 104,112 100,112 100,108 96,108 96,112 96,116 92,116 92,120 88,120 88,124 88,128 84,128 
		84,132 84,136 80,136 80,140 80,144 80,148 76,148 76,152 76,156 72,156 72,160 72,164 68,164 68,168 68,172 68,176 68,180 68,184 
		68,188 72,188 72,192 72,196 76,196 76,192 76,188 80,188 80,184 80,180 84,180 84,176 84,172 88,172 88,168 88,164 92,164 92,160 
		92,156 96,156 96,152 96,148 100,148 100,144 100,140 104,140 104,136 104,132 108,132 108,128 108,124 112,124 112,120 112,116 
		108,116 	"/>
	<rect x="24" y="116" class="st26" width="4" height="4"/>
	<rect x="20" y="124" class="st26" width="4" height="4"/>
	<polygon class="st26" points="20,132 20,128 16,128 16,132 16,136 20,136 	"/>
	<polygon class="st26" points="16,140 16,136 12,136 12,140 12,144 16,144 	"/>
	<rect x="72" y="144" class="st26" width="4" height="4"/>
	<rect x="8" y="148" class="st26" width="4" height="4"/>
	<polygon class="st26" points="64,184 64,180 64,176 64,172 64,168 60,168 60,172 60,176 56,176 56,180 56,184 52,184 52,188 
		56,188 56,192 60,192 60,196 60,200 60,204 56,204 56,208 52,208 52,204 56,204 56,200 56,196 56,192 52,192 48,192 48,196 44,196 
		40,196 40,200 36,200 36,204 36,208 32,208 28,208 24,208 24,204 20,204 20,200 16,200 12,200 12,204 16,204 16,208 20,208 20,212 
		24,212 24,216 28,216 32,216 36,216 40,216 44,216 48,216 48,212 52,212 52,216 56,216 56,212 60,212 64,212 64,208 68,208 68,204 
		68,200 68,196 68,192 68,188 64,188 	"/>
	<rect x="8" y="192" class="st26" width="4" height="4"/>
</g>
<g>
	<polygon class="st27" points="164,52 164,48 164,44 164,40 164,36 160,36 160,40 160,44 160,48 160,52 156,52 156,56 156,60 
		152,60 152,64 156,64 156,68 152,68 152,72 152,76 148,76 148,80 148,84 144,84 144,88 144,92 140,92 140,96 140,100 136,100 
		136,104 136,108 132,108 132,112 128,112 128,116 124,116 124,120 128,120 128,124 132,124 136,124 136,120 136,116 140,116 
		140,112 140,108 144,108 144,104 144,100 148,100 148,96 148,92 152,92 152,88 152,84 156,84 156,80 156,76 160,76 160,72 160,68 
		164,68 164,64 164,60 164,56 168,56 168,52 	"/>
	<rect x="112" y="116" class="st27" width="4" height="4"/>
	<rect x="120" y="120" class="st27" width="4" height="4"/>
	<polygon class="st27" points="124,128 124,132 124,136 120,136 120,140 116,140 116,144 116,148 112,148 112,152 112,156 108,156 
		108,160 108,164 104,164 104,168 104,172 100,172 100,176 100,180 96,180 96,184 96,188 92,188 92,192 92,196 88,196 88,200 
		88,204 84,204 84,208 80,208 80,212 84,212 88,212 88,208 92,208 92,204 96,204 96,200 96,196 100,196 100,192 100,188 104,188 
		104,184 108,184 108,180 108,176 112,176 112,172 112,168 116,168 116,164 116,160 120,160 120,156 120,152 124,152 124,148 
		124,144 128,144 128,140 128,136 128,132 128,128 128,124 124,124 	"/>
	<rect x="76" y="212" class="st27" width="4" height="4"/>
	<polygon class="st27" points="68,216 68,220 72,220 76,220 76,216 72,216 	"/>
</g>
<g>
	<polygon class="st28" points="100,8 104,8 108,8 112,8 112,4 108,4 104,4 100,4 96,4 92,4 92,8 96,8 	"/>
	<rect x="84" y="8" class="st28" width="4" height="4"/>
	<rect x="80" y="12" class="st28" width="4" height="4"/>
	<rect x="76" y="16" class="st28" width="4" height="4"/>
	<rect x="72" y="20" class="st28" width="4" height="4"/>
	<rect x="68" y="24" class="st28" width="4" height="4"/>
	<polygon class="st28" points="156,28 156,24 156,20 152,20 152,16 148,16 148,20 148,24 152,24 152,28 152,32 152,36 152,40 
		148,40 148,44 148,48 148,52 144,52 144,56 144,60 140,60 140,64 140,68 136,68 136,72 136,76 132,76 132,80 132,84 128,84 128,88 
		128,92 132,92 132,96 128,96 128,92 124,92 124,96 124,100 120,100 120,104 120,108 116,108 116,112 116,116 120,116 124,116 
		128,116 128,112 128,108 132,108 132,104 132,100 136,100 136,96 140,96 140,92 144,92 144,88 144,84 144,80 144,76 148,76 148,72 
		148,68 152,68 152,64 152,60 156,60 156,56 156,52 160,52 160,48 160,44 160,40 160,36 160,32 160,28 	"/>
	<rect x="64" y="32" class="st28" width="4" height="4"/>
	<rect x="60" y="40" class="st28" width="4" height="4"/>
	<rect x="56" y="48" class="st28" width="4" height="4"/>
	<rect x="52" y="56" class="st28" width="4" height="4"/>
	<rect x="48" y="64" class="st28" width="4" height="4"/>
	<polygon class="st28" points="48,76 48,72 44,72 44,76 44,80 48,80 	"/>
	<rect x="32" y="96" class="st28" width="4" height="4"/>
	<rect x="28" y="104" class="st28" width="4" height="4"/>
	<rect x="24" y="112" class="st28" width="4" height="4"/>
	<rect x="20" y="120" class="st28" width="4" height="4"/>
	<polygon class="st28" points="120,120 116,120 112,120 112,124 108,124 108,128 108,132 104,132 104,136 104,140 100,140 100,144 
		100,148 96,148 96,152 96,156 92,156 92,160 92,164 88,164 88,168 88,172 84,172 84,176 84,180 80,180 80,184 80,188 76,188 
		76,192 76,196 72,196 72,200 72,204 76,204 76,208 72,208 72,204 68,204 68,208 64,208 64,212 60,212 56,212 56,216 52,216 48,216 
		44,216 40,216 36,216 32,216 28,216 28,220 32,220 36,220 36,224 40,224 44,224 48,224 52,224 56,224 60,224 64,224 64,220 68,220 
		68,216 72,216 76,216 76,212 80,212 80,208 84,208 84,204 88,204 88,200 88,196 92,196 92,192 92,188 96,188 96,184 96,180 
		100,180 100,176 100,172 104,172 104,168 104,164 108,164 108,160 108,156 112,156 112,152 112,148 116,148 116,144 116,140 
		120,140 120,136 124,136 124,132 124,128 124,124 120,124 	"/>
	<rect x="16" y="124" class="st28" width="4" height="4"/>
	<rect x="12" y="132" class="st28" width="4" height="4"/>
	<rect x="8" y="144" class="st28" width="4" height="4"/>
	<rect x="4" y="156" class="st28" width="4" height="4"/>
	<rect x="4" y="188" class="st28" width="4" height="4"/>
	<rect x="8" y="196" class="st28" width="4" height="4"/>
	<rect x="12" y="204" class="st28" width="4" height="4"/>
	<rect x="16" y="208" class="st28" width="4" height="4"/>
</g>
<g>
	<polygon class="st29" points="124,0 120,0 116,0 112,0 108,0 104,0 100,0 96,0 92,0 92,4 96,4 100,4 104,4 108,4 112,4 116,4 
		120,4 124,4 128,4 128,0 	"/>
	<polygon class="st29" points="84,4 84,8 88,8 92,8 92,4 88,4 	"/>
	<polygon class="st29" points="136,4 132,4 128,4 128,8 132,8 136,8 140,8 140,4 	"/>
	<rect x="80" y="8" class="st29" width="4" height="4"/>
	<rect x="140" y="8" class="st29" width="4" height="4"/>
	<rect x="76" y="12" class="st29" width="4" height="4"/>
	<polygon class="st29" points="148,12 144,12 144,16 148,16 152,16 152,12 	"/>
	<rect x="72" y="16" class="st29" width="4" height="4"/>
	<rect x="152" y="16" class="st29" width="4" height="4"/>
	<rect x="68" y="20" class="st29" width="4" height="4"/>
	<polygon class="st29" points="160,20 156,20 156,24 156,28 160,28 160,24 	"/>
	<polygon class="st29" points="64,28 64,32 68,32 68,28 68,24 64,24 	"/>
	<polygon class="st29" points="164,28 160,28 160,32 160,36 164,36 164,32 	"/>
	<polygon class="st29" points="60,36 60,40 64,40 64,36 64,32 60,32 	"/>
	<polygon class="st29" points="164,36 164,40 164,44 164,48 164,52 168,52 168,48 168,44 168,40 168,36 	"/>
	<polygon class="st29" points="56,44 56,48 60,48 60,44 60,40 56,40 	"/>
	<polygon class="st29" points="52,52 52,56 56,56 56,52 56,48 52,48 	"/>
	<polygon class="st29" points="48,60 48,64 52,64 52,60 52,56 48,56 	"/>
	<polygon class="st29" points="164,60 164,64 164,68 168,68 168,64 168,60 168,56 164,56 	"/>
	<polygon class="st29" points="44,68 44,72 48,72 48,68 48,64 44,64 	"/>
	<polygon class="st29" points="160,72 160,76 164,76 164,72 164,68 160,68 	"/>
	<polygon class="st29" points="40,76 40,80 36,80 36,84 36,88 40,88 40,84 44,84 44,80 44,76 44,72 40,72 	"/>
	<polygon class="st29" points="156,80 156,84 160,84 160,80 160,76 156,76 	"/>
	<polygon class="st29" points="152,88 152,92 156,92 156,88 156,84 152,84 	"/>
	<rect x="32" y="92" class="st29" width="4" height="4"/>
	<polygon class="st29" points="148,96 148,100 152,100 152,96 152,92 148,92 	"/>
	<polygon class="st29" points="32,100 32,96 28,96 28,100 28,104 32,104 	"/>
	<polygon class="st29" points="144,104 144,108 148,108 148,104 148,100 144,100 	"/>
	<polygon class="st29" points="28,108 28,104 24,104 24,108 24,112 28,112 	"/>
	<polygon class="st29" points="140,112 140,116 144,116 144,112 144,108 140,108 	"/>
	<polygon class="st29" points="24,116 24,112 20,112 20,116 20,120 24,120 	"/>
	<polygon class="st29" points="136,120 136,124 140,124 140,120 140,116 136,116 	"/>
	<rect x="16" y="120" class="st29" width="4" height="4"/>
	<rect x="132" y="124" class="st29" width="4" height="4"/>
	<polygon class="st29" points="16,128 16,124 12,124 12,128 12,132 16,132 	"/>
	<polygon class="st29" points="12,140 12,136 12,132 8,132 8,136 8,140 8,144 12,144 	"/>
	<rect x="124" y="144" class="st29" width="4" height="4"/>
	<polygon class="st29" points="8,152 8,148 8,144 4,144 4,148 4,152 4,156 8,156 	"/>
	<rect x="120" y="152" class="st29" width="4" height="4"/>
	<rect x="116" y="160" class="st29" width="4" height="4"/>
	<rect x="112" y="168" class="st29" width="4" height="4"/>
	<rect x="108" y="176" class="st29" width="4" height="4"/>
	<polygon class="st29" points="4,184 4,180 4,176 4,172 4,168 4,164 4,160 4,156 0,156 0,160 0,164 0,168 0,172 0,176 0,180 0,184 
		0,188 0,192 4,192 4,188 	"/>
	<rect x="104" y="184" class="st29" width="4" height="4"/>
	<polygon class="st29" points="100,192 100,196 104,196 104,192 104,188 100,188 	"/>
	<polygon class="st29" points="8,192 4,192 4,196 4,200 8,200 8,196 	"/>
	<polygon class="st29" points="96,200 96,204 100,204 100,200 100,196 96,196 	"/>
	<polygon class="st29" points="12,200 8,200 8,204 8,208 12,208 12,204 	"/>
	<rect x="92" y="204" class="st29" width="4" height="4"/>
	<rect x="12" y="208" class="st29" width="4" height="4"/>
	<rect x="88" y="208" class="st29" width="4" height="4"/>
	<polygon class="st29" points="20,212 16,212 16,216 20,216 24,216 24,212 	"/>
	<polygon class="st29" points="80,212 80,216 84,216 88,216 88,212 84,212 	"/>
	<rect x="24" y="216" class="st29" width="4" height="4"/>
	<rect x="76" y="216" class="st29" width="4" height="4"/>
	<polygon class="st29" points="32,220 28,220 28,224 32,224 36,224 36,220 	"/>
	<polygon class="st29" points="68,220 64,220 64,224 68,224 72,224 76,224 76,220 72,220 	"/>
	<polygon class="st29" points="56,224 52,224 48,224 44,224 40,224 36,224 36,228 40,228 44,228 48,228 52,228 56,228 60,228 
		64,228 64,224 60,224 	"/>
</g>
</svg>
