<?xml version="1.0" encoding="utf-8"?>
<!-- Generator: Adobe Illustrator 24.2.0, SVG Export Plug-In . SVG Version: 6.00 Build 0)  -->
<svg version="1.1" id="圖層_1" shape-rendering="crispEdges"
	 xmlns="http://www.w3.org/2000/svg" xmlns:xlink="http://www.w3.org/1999/xlink" x="0px" y="0px" viewBox="0 0 236 237.1"
	 style="enable-background:new 0 0 236 237.1;" xml:space="preserve">
<style type="text/css">
	.st0{fill:#877215;}
	.st1{fill:#FBEDAA;}
	.st2{fill:#A88F1E;}
</style>
<polygon class="st0" points="220,8 220,4 216,4 212,4 208,4 204,4 200,4 196,4 192,4 188,4 184,4 180,4 176,4 172,4 168,4 164,4 
	160,4 156,4 152,4 148,4 144,4 140,4 136,4 132,4 128,4 124,4 120,4 116,4 112,4 108,4 104,4 100,4 96,4 92,4 88,4 84,4 80,4 76,4 
	72,4 68,4 64,4 60,4 56,4 52,4 48,4 44,4 40,4 36,4 32,4 28,4 24,4 20,4 16,4 12,4 8,4 8,8 4,8 4,12 4,16 4,20 4,24 4,28 4,32 4,36 
	4,40 4,44 4,48 4,52 4,56 4,60 4,64 4,68 4,72 4,76 4,80 4,84 4,88 4,92 4,96 4,100 4,104 4,108 4,112 4,116 4,120 4,124 4,128 
	4,132 4,136 4,140 4,144 4,148 4,152 4,156 4,160 4,164 4,168 4,172 4,176 4,180 4,184 4,188 4,192 4,196 4,200 4,204 4,208 4,212 
	4,216 4,220 8,220 8,224 12,224 16,224 20,224 24,224 28,224 32,224 32,220 32,216 32,212 32,208 32,204 32,200 32,196 32,192 
	32,188 32,184 32,180 32,176 32,172 32,168 32,164 32,160 32,156 32,152 32,148 32,144 32,140 32,136 32,132 32,128 32,124 32,120 
	32,116 32,112 32,108 32,104 32,100 32,96 32,92 32,88 32,84 32,80 32,76 32,72 32,68 32,64 32,60 32,56 32,52 32,48 32,44 32,40 
	32,36 36,36 36,32 40,32 44,32 48,32 52,32 56,32 60,32 64,32 68,32 72,32 76,32 80,32 84,32 88,32 92,32 96,32 100,32 104,32 
	108,32 112,32 116,32 120,32 124,32 128,32 132,32 136,32 140,32 144,32 148,32 152,32 156,32 160,32 164,32 168,32 172,32 176,32 
	180,32 184,32 188,32 192,32 196,32 200,32 204,32 208,32 212,32 216,32 220,32 224,32 224,28 224,24 224,20 224,16 224,12 224,8 
	"/>
<g>
	<polygon class="st1" points="16,4 20,4 24,4 28,4 32,4 36,4 40,4 44,4 48,4 52,4 56,4 60,4 64,4 68,4 72,4 76,4 80,4 84,4 88,4 
		92,4 96,4 100,4 104,4 108,4 112,4 116,4 120,4 124,4 128,4 132,4 136,4 140,4 144,4 148,4 152,4 156,4 160,4 164,4 168,4 172,4 
		176,4 180,4 184,4 188,4 192,4 196,4 200,4 204,4 208,4 212,4 216,4 220,4 220,0 216,0 212,0 208,0 204,0 200,0 196,0 192,0 188,0 
		184,0 180,0 176,0 172,0 168,0 164,0 160,0 156,0 152,0 148,0 144,0 140,0 136,0 132,0 128,0 124,0 120,0 116,0 112,0 108,0 104,0 
		100,0 96,0 92,0 88,0 84,0 80,0 76,0 72,0 68,0 64,0 60,0 56,0 52,0 48,0 44,0 40,0 36,0 32,0 28,0 24,0 20,0 16,0 12,0 8,0 8,4 
		12,4 	"/>
	<rect x="4" y="4" class="st1" width="4" height="4"/>
	<rect x="220" y="4" class="st1" width="4" height="4"/>
	<polygon class="st1" points="224,8 224,12 224,16 224,20 224,24 224,28 224,32 224,36 224,40 224,44 224,48 224,52 224,56 224,60 
		224,64 224,68 224,72 224,76 224,80 224,84 224,88 224,92 224,96 224,100 224,104 224,108 224,112 224,116 224,120 224,124 
		224,128 224,132 224,136 224,140 224,144 224,148 224,152 224,156 224,160 224,164 224,168 224,172 224,176 224,180 224,184 
		224,188 224,192 224,196 224,200 224,204 224,208 224,212 224,216 224,220 228,220 228,216 228,212 228,208 228,204 228,200 
		228,196 228,192 228,188 228,184 228,180 228,176 228,172 228,168 228,164 228,160 228,156 228,152 228,148 228,144 228,140 
		228,136 228,132 228,128 228,124 228,120 228,116 228,112 228,108 228,104 228,100 228,96 228,92 228,88 228,84 228,80 228,76 
		228,72 228,68 228,64 228,60 228,56 228,52 228,48 228,44 228,40 228,36 228,32 228,28 228,24 228,20 228,16 228,12 228,8 	"/>
	<polygon class="st1" points="4,212 4,208 4,204 4,200 4,196 4,192 4,188 4,184 4,180 4,176 4,172 4,168 4,164 4,160 4,156 4,152 
		4,148 4,144 4,140 4,136 4,132 4,128 4,124 4,120 4,116 4,112 4,108 4,104 4,100 4,96 4,92 4,88 4,84 4,80 4,76 4,72 4,68 4,64 
		4,60 4,56 4,52 4,48 4,44 4,40 4,36 4,32 4,28 4,24 4,20 4,16 4,12 4,8 0,8 0,12 0,16 0,20 0,24 0,28 0,32 0,36 0,40 0,44 0,48 
		0,52 0,56 0,60 0,64 0,68 0,72 0,76 0,80 0,84 0,88 0,92 0,96 0,100 0,104 0,108 0,112 0,116 0,120 0,124 0,128 0,132 0,136 0,140 
		0,144 0,148 0,152 0,156 0,160 0,164 0,168 0,172 0,176 0,180 0,184 0,188 0,192 0,196 0,200 0,204 0,208 0,212 0,216 0,220 4,220 
		4,216 	"/>
	<rect x="4" y="220" class="st1" width="4" height="4"/>
	<rect x="220" y="220" class="st1" width="4" height="4"/>
	<polygon class="st1" points="212,224 208,224 204,224 200,224 196,224 192,224 188,224 184,224 180,224 176,224 172,224 168,224 
		164,224 160,224 156,224 152,224 148,224 144,224 140,224 136,224 132,224 128,224 124,224 120,224 116,224 112,224 108,224 
		104,224 100,224 96,224 92,224 88,224 84,224 80,224 76,224 72,224 68,224 64,224 60,224 56,224 52,224 48,224 44,224 40,224 
		36,224 32,224 28,224 24,224 20,224 16,224 12,224 8,224 8,228 12,228 16,228 20,228 24,228 28,228 32,228 36,228 40,228 44,228 
		48,228 52,228 56,228 60,228 64,228 68,228 72,228 76,228 80,228 84,228 88,228 92,228 96,228 100,228 104,228 108,228 112,228 
		116,228 120,228 124,228 128,228 132,228 136,228 140,228 144,228 148,228 152,228 156,228 160,228 164,228 168,228 172,228 
		176,228 180,228 184,228 188,228 192,228 196,228 200,228 204,228 208,228 212,228 216,228 220,228 220,224 216,224 	"/>
</g>
<g>
	<polygon class="st2" points="232,20 232,16 228,16 228,20 228,24 228,28 228,32 228,36 228,40 228,44 228,48 228,52 228,56 228,60 
		228,64 228,68 228,72 228,76 228,80 228,84 228,88 228,92 228,96 228,100 228,104 228,108 228,112 228,116 228,120 228,124 
		228,128 228,132 228,136 228,140 228,144 228,148 228,152 228,156 228,160 228,164 228,168 228,172 228,176 228,180 228,184 
		228,188 228,192 228,196 228,200 228,204 228,208 228,212 228,216 228,220 224,220 224,224 220,224 220,228 216,228 212,228 
		208,228 204,228 200,228 196,228 192,228 188,228 184,228 180,228 176,228 172,228 168,228 164,228 160,228 156,228 152,228 
		148,228 144,228 140,228 136,228 132,228 128,228 124,228 120,228 116,228 112,228 108,228 104,228 100,228 96,228 92,228 88,228 
		84,228 80,228 76,228 72,228 68,228 64,228 60,228 56,228 52,228 48,228 44,228 40,228 36,228 32,228 28,228 24,228 20,228 16,228 
		16,232 20,232 20,236 24,236 28,236 32,236 36,236 40,236 44,236 48,236 52,236 56,236 60,236 64,236 68,236 72,236 76,236 80,236 
		84,236 88,236 92,236 96,236 100,236 104,236 108,236 112,236 116,236 120,236 124,236 128,236 132,236 136,236 140,236 144,236 
		148,236 152,236 156,236 160,236 164,236 168,236 172,236 176,236 180,236 184,236 188,236 192,236 196,236 200,236 204,236 
		208,236 212,236 216,236 220,236 224,236 224,232 228,232 228,228 232,228 232,224 236,224 236,220 236,216 236,212 236,208 
		236,204 236,200 236,196 236,192 236,188 236,184 236,180 236,176 236,172 236,168 236,164 236,160 236,156 236,152 236,148 
		236,144 236,140 236,136 236,132 236,128 236,124 236,120 236,116 236,112 236,108 236,104 236,100 236,96 236,92 236,88 236,84 
		236,80 236,76 236,72 236,68 236,64 236,60 236,56 236,52 236,48 236,44 236,40 236,36 236,32 236,28 236,24 236,20 	"/>
	<polygon class="st2" points="224,220 224,216 224,212 224,208 224,204 224,200 224,196 224,192 224,188 224,184 224,180 224,176 
		224,172 224,168 224,164 224,160 224,156 224,152 224,148 224,144 224,140 224,136 224,132 224,128 224,124 224,120 224,116 
		224,112 224,108 224,104 224,100 224,96 224,92 224,88 224,84 224,80 224,76 224,72 224,68 224,64 224,60 224,56 224,52 224,48 
		224,44 224,40 224,36 224,32 220,32 216,32 212,32 208,32 204,32 200,32 196,32 192,32 188,32 184,32 180,32 176,32 172,32 168,32 
		164,32 160,32 156,32 152,32 148,32 144,32 140,32 136,32 132,32 128,32 124,32 120,32 116,32 112,32 108,32 104,32 100,32 96,32 
		92,32 88,32 84,32 80,32 76,32 72,32 68,32 64,32 60,32 56,32 52,32 48,32 44,32 40,32 36,32 36,36 32,36 32,40 32,44 32,48 32,52 
		32,56 32,60 32,64 32,68 32,72 32,76 32,80 32,84 32,88 32,92 32,96 32,100 32,104 32,108 32,112 32,116 32,120 32,124 32,128 
		32,132 32,136 32,140 32,144 32,148 32,152 32,156 32,160 32,164 32,168 32,172 32,176 32,180 32,184 32,188 32,192 32,196 32,200 
		32,204 32,208 32,212 32,216 32,220 32,224 36,224 40,224 44,224 48,224 52,224 56,224 60,224 64,224 68,224 72,224 76,224 80,224 
		84,224 88,224 92,224 96,224 100,224 104,224 108,224 112,224 116,224 120,224 124,224 128,224 132,224 136,224 140,224 144,224 
		148,224 152,224 156,224 160,224 164,224 168,224 172,224 176,224 180,224 184,224 188,224 192,224 196,224 200,224 204,224 
		208,224 212,224 216,224 220,224 220,220 	"/>
</g>
</svg>
