<?xml version="1.0" encoding="utf-8"?>
<!-- Generator: Adobe Illustrator 24.2.0, SVG Export Plug-In . SVG Version: 6.00 Build 0)  -->
<svg version="1.1" id="圖層_1" shape-rendering="crispEdges"
	 xmlns="http://www.w3.org/2000/svg" xmlns:xlink="http://www.w3.org/1999/xlink" x="0px" y="0px" viewBox="0 0 744 476.1"
	 style="enable-background:new 0 0 744 476.1;" xml:space="preserve">
<style type="text/css">
	.st0{fill:#F0CD2C;}
	.st1{fill:#DBBA25;}
	.st2{fill:#BDA120;}
	.st3{fill:#A87D22;}
	.st4{fill:#DDC452;}
	.st5{fill:#877215;}
	.st6{fill:#D9CB87;}
	.st7{fill:#FFF6CC;}
	.st8{fill:#FFFAE4;}
	.st9{fill:#FFD40E;}
	.st10{fill:#FFFBE9;}
	.st11{fill:#ECE3B6;}
	.st12{fill:#C7AA25;}
	.st13{fill:#A88F1E;}
	.st14{fill:#F0D96E;}
</style>
<g>
	<polygon class="st0" points="664,400.1 660,400.1 656,400.1 652,400.1 652,404.1 656,404.1 660,404.1 664,404.1 668,404.1 
		672,404.1 672,400.1 668,400.1 	"/>
	<polygon class="st0" points="688,400.1 688,404.1 688,408.1 688,412.1 688,416.1 688,420.1 688,424.1 692,424.1 692,420.1 
		692,416.1 692,412.1 692,408.1 692,404.1 692,400.1 	"/>
</g>
<g>
	<polygon class="st1" points="660,392.1 660,396.1 664,396.1 668,396.1 668,392.1 664,392.1 	"/>
	<rect x="656" y="396.1" class="st1" width="4" height="4"/>
	<rect x="676" y="396.1" class="st1" width="4" height="4"/>
	<polygon class="st1" points="680,400.1 680,404.1 680,408.1 680,412.1 680,416.1 680,420.1 680,424.1 684,424.1 684,420.1 
		684,416.1 684,412.1 684,408.1 684,404.1 684,400.1 	"/>
	<polygon class="st1" points="72,412.1 72,416.1 72,420.1 72,424.1 76,424.1 76,420.1 76,416.1 76,412.1 76,408.1 72,408.1 	"/>
	<polygon class="st1" points="96,412.1 96,408.1 92,408.1 88,408.1 88,412.1 92,412.1 	"/>
	<polygon class="st1" points="116,408.1 112,408.1 112,412.1 112,416.1 112,420.1 112,424.1 112,428.1 116,428.1 116,424.1 
		116,420.1 120,420.1 124,420.1 124,416.1 120,416.1 116,416.1 116,412.1 120,412.1 124,412.1 124,408.1 120,408.1 	"/>
	<polygon class="st1" points="140,408.1 136,408.1 136,412.1 136,416.1 136,420.1 136,424.1 136,428.1 140,428.1 140,424.1 
		140,420.1 144,420.1 148,420.1 148,416.1 144,416.1 140,416.1 140,412.1 144,412.1 148,412.1 148,408.1 144,408.1 	"/>
	<polygon class="st1" points="156,412.1 156,416.1 160,416.1 160,412.1 160,408.1 156,408.1 	"/>
	<polygon class="st1" points="180,408.1 176,408.1 176,412.1 180,412.1 184,412.1 188,412.1 188,408.1 184,408.1 	"/>
	<polygon class="st1" points="256,412.1 256,408.1 252,408.1 248,408.1 248,412.1 252,412.1 	"/>
	<polygon class="st1" points="280,408.1 276,408.1 276,412.1 280,412.1 284,412.1 288,412.1 288,408.1 284,408.1 	"/>
	<polygon class="st1" points="96,416.1 92,416.1 88,416.1 88,412.1 84,412.1 84,416.1 84,420.1 84,424.1 84,428.1 88,428.1 
		88,424.1 88,420.1 92,420.1 96,420.1 96,424.1 96,428.1 100,428.1 100,424.1 100,420.1 100,416.1 100,412.1 96,412.1 	"/>
	<rect x="172" y="412.1" class="st1" width="4" height="4"/>
	<rect x="232" y="412.1" class="st1" width="4" height="4"/>
	<polygon class="st1" points="256,416.1 252,416.1 248,416.1 248,412.1 244,412.1 244,416.1 244,420.1 244,424.1 244,428.1 
		248,428.1 248,424.1 248,420.1 252,420.1 256,420.1 256,424.1 256,428.1 260,428.1 260,424.1 260,420.1 260,416.1 260,412.1 
		256,412.1 	"/>
	<polygon class="st1" points="272,416.1 272,420.1 272,424.1 276,424.1 276,420.1 276,416.1 276,412.1 272,412.1 	"/>
	<polygon class="st1" points="180,420.1 184,420.1 184,416.1 180,416.1 176,416.1 176,420.1 	"/>
	<polygon class="st1" points="224,416.1 224,412.1 228,412.1 232,412.1 232,408.1 228,408.1 224,408.1 220,408.1 220,412.1 
		220,416.1 220,420.1 220,424.1 220,428.1 224,428.1 228,428.1 232,428.1 232,424.1 228,424.1 224,424.1 224,420.1 228,420.1 
		232,420.1 232,416.1 228,416.1 	"/>
	<rect x="60" y="420.1" class="st1" width="4" height="4"/>
	<rect x="184" y="420.1" class="st1" width="4" height="4"/>
	<rect x="232" y="420.1" class="st1" width="4" height="4"/>
	<polygon class="st1" points="288,420.1 288,416.1 284,416.1 280,416.1 280,420.1 284,420.1 284,424.1 288,424.1 	"/>
	<polygon class="st1" points="656,424.1 656,428.1 656,432.1 660,432.1 660,428.1 660,424.1 660,420.1 656,420.1 	"/>
	<polygon class="st1" points="64,424.1 64,428.1 68,428.1 72,428.1 72,424.1 68,424.1 	"/>
	<polygon class="st1" points="176,424.1 172,424.1 172,428.1 176,428.1 180,428.1 184,428.1 184,424.1 180,424.1 	"/>
	<polygon class="st1" points="280,428.1 284,428.1 284,424.1 280,424.1 276,424.1 276,428.1 	"/>
</g>
<g>
	<rect x="656" y="416.1" class="st2" width="4" height="4"/>
	<rect x="680" y="424.1" class="st2" width="4" height="4"/>
	<rect x="676" y="428.1" class="st2" width="4" height="4"/>
	<polygon class="st2" points="664,436.1 660,436.1 656,436.1 656,440.1 660,440.1 664,440.1 668,440.1 672,440.1 672,436.1 
		668,436.1 	"/>
</g>
<polygon class="st3" points="676,432.1 676,428.1 676,424.1 676,420.1 676,416.1 676,412.1 676,408.1 676,404.1 676,400.1 
	672,400.1 672,404.1 668,404.1 668,408.1 668,412.1 668,416.1 668,420.1 668,424.1 668,428.1 668,432.1 668,436.1 672,436.1 
	672,440.1 676,440.1 680,440.1 680,436.1 680,432.1 "/>
<g>
	<rect y="452.1" class="st4" width="4" height="4"/>
	<path class="st4" d="M380.1,258.1h-4v-4v-4h-4v-4v-4h-4v-4v-4v-4h-4v-4v-4h-4v-4v-4h-4v-4v-4h-4v-4v-4h-4v-4v-4h-4l-0.1-6v-4h-4v-8
		v-4h-4v-4v-4h-4v-4v-4v-4h-4v-4v-4h-4v-4v-4h-4v-4v-4h-4v-4v-4h-4v-4v-4h-4v-4v-4h-4v-4v-4h-4v-4v-4h-4v-4v-4v-4h-4v-4v-4h-4v-4v-4
		h-4v-4v-4h-4v-4v-4h-4v-4v-4h-4v-4v-4h4h4h4h4h4h4h4h4h4h4h4h4h4h4h4h4h4h4h4h4h4h4h4h4h4h4h4h4h4h4h4h4h4h4h4h4h4h4h4h4h4h4h4h4h4
		h4h4h4h4h4h4h4h4h4h4h4h4h4h4h4h4h4h4h4h4h4h4h4h4h4h4h4h4h4h4h4h4h4h4h4h4h4h4h4h4h4h4h4h4h4h4h4h4h4h4h4h4h4h4h4h4h4h4h4h4h4h4h4
		h4h4h4h4h4v4h4v-4v-4v-4h-4h-4h-4h-4h-4h-4h-4h-4h-4h-4h-4h-4h-4h-4h-4h-4h-4h-4h-4h-4h-4h-4h-4h-4h-4h-4h-4h-4h-4h-4h-4h-4h-4h-4
		h-4h-4h-4h-4h-4h-4h-4h-4h-4h-4h-4h-4h-4h-4h-4h-4h-4h-4h-4h-4h-4h-4h-4h-4h-4h-4h-4h-4h-4h-4h-4h-4h-4h-4h-4h-4h-4h-4h-4h-4h-4h-4
		h-4h-4h-4h-4h-4h-4h-4h-4h-4h-4h-4h-4h-4h-4h-4h-4h-4h-4h-4h-4h-4h-4h-4h-4h-4h-4h-4h-4h-4h-4h-4h-4h-4h-4h-4h-4h-4h-4h-4v4v4h-4
		h-4h-4h-4h-4h-4h-4h-4h-4h-4h-4h-4h-4h-4h-4h-4h-4h-4h-4h-4h-4h-4h-4h-4h-4h-4h-4h-4h-4h-4h-4h-4h-4h-4h-4h-4h-4h-4h-4h-4h-4h-4h-4
		h-4h-4h-4h-4h-4h-4h-4h-4h-4h-4h-4h-4h-4h-4h-4h-4v4h-4v4h-4v4v4v4v4v4v4v4v4v4v4v4v4v4v4v4v4v4v4v4v4v4v4v4v4v4v4v4v4v4v4v4v4v4v4
		v4v4v4v4v4v4v4v4v4v4v4v4v4v4v4v4v4v4v4v4v4v4v4v4v4v4v4v4v4v4v4v4v4v4v4v4v4v4v4v4v4v4v4v4v4v4v4v4v4v4h4h4h4h4h4h4h4h4h4h4h4h4h4
		h4h4h4h4h4h4h4h4h4h4h4h4h4h4h4h4h4h4h4h4h4h4h4h4h4h4h4h4h4h4h4h4h4h4h4h4h4h4h4h4h4h4h4h4h4h4h4h4h4h4h4h4h4h4h4h4h4h4h4h4h4h4h4
		h4h4h4h4h4h4h4h4h4h4h4h4h4h4h4h4h4h4h4h4h4h4h4h4h4v-4h-4v-4v-4v-4h-4v-4v-4h-4v-4v-4h-4v-4v-4h-4v-4v-4h-4v-4v-4v-4h-4v-4v-4h-4
		v-4v-4h-4v-4v-4h-4v-4v-4h-4v-4v-4h-4L380.1,258.1z"/>
</g>
<g>
	<polygon class="st5" points="720,12.1 716,12.1 712,12.1 708,12.1 704,12.1 700,12.1 696,12.1 692,12.1 688,12.1 684,12.1 
		680,12.1 676,12.1 672,12.1 668,12.1 664,12.1 660,12.1 656,12.1 652,12.1 648,12.1 644,12.1 640,12.1 636,12.1 632,12.1 628,12.1 
		624,12.1 620,12.1 616,12.1 612,12.1 608,12.1 604,12.1 600,12.1 596,12.1 592,12.1 588,12.1 584,12.1 580,12.1 576,12.1 572,12.1 
		568,12.1 564,12.1 560,12.1 556,12.1 552,12.1 548,12.1 544,12.1 540,12.1 536,12.1 532,12.1 528,12.1 524,12.1 520,12.1 516,12.1 
		512,12.1 508,12.1 504,12.1 500,12.1 496,12.1 492,12.1 488,12.1 484,12.1 480,12.1 476,12.1 472,12.1 468,12.1 464,12.1 460,12.1 
		456,12.1 452,12.1 448,12.1 444,12.1 440,12.1 436,12.1 432,12.1 428,12.1 424,12.1 420,12.1 416,12.1 412,12.1 408,12.1 404,12.1 
		400,12.1 396,12.1 392,12.1 388,12.1 384,12.1 380,12.1 376,12.1 372,12.1 368,12.1 364,12.1 360,12.1 356,12.1 352,12.1 348,12.1 
		344,12.1 340,12.1 336,12.1 332,12.1 328,12.1 324,12.1 320,12.1 316,12.1 312,12.1 308,12.1 304,12.1 300,12.1 296,12.1 292,12.1 
		288,12.1 284,12.1 280,12.1 276,12.1 272,12.1 268,12.1 264,12.1 260,12.1 256,12.1 252,12.1 248,12.1 244,12.1 240,12.1 236,12.1 
		232,12.1 228,12.1 224,12.1 220,12.1 216,12.1 212,12.1 208,12.1 204,12.1 200,12.1 196,12.1 192,12.1 188,12.1 184,12.1 180,12.1 
		176,12.1 172,12.1 168,12.1 164,12.1 160,12.1 156,12.1 152,12.1 148,12.1 144,12.1 140,12.1 136,12.1 132,12.1 128,12.1 124,12.1 
		120,12.1 116,12.1 112,12.1 108,12.1 104,12.1 100,12.1 96,12.1 92,12.1 88,12.1 84,12.1 80,12.1 76,12.1 72,12.1 68,12.1 64,12.1 
		60,12.1 56,12.1 52,12.1 48,12.1 44,12.1 40,12.1 36,12.1 32,12.1 28,12.1 24,12.1 20,12.1 20,16.1 16,16.1 16,20.1 12,20.1 
		12,24.1 12,28.1 12,32.1 12,36.1 12,40.1 12,44.1 12,48.1 12,52.1 12,56.1 12,60.1 12,64.1 12,68.1 12,72.1 12,76.1 12,80.1 
		12,84.1 12,88.1 12,92.1 12,96.1 12,100.1 12,104.1 12,108.1 12,112.1 12,116.1 12,120.1 12,124.1 12,128.1 12,132.1 12,136.1 
		12,140.1 12,144.1 12,148.1 12,152.1 12,156.1 12,160.1 12,164.1 12,168.1 12,172.1 12,176.1 12,180.1 12,184.1 12,188.1 12,192.1 
		12,196.1 12,200.1 12,204.1 12,208.1 12,212.1 12,216.1 12,220.1 12,224.1 12,228.1 12,232.1 12,236.1 12,240.1 12,244.1 12,248.1 
		12,252.1 12,256.1 12,260.1 12,264.1 12,268.1 12,272.1 12,276.1 12,280.1 12,284.1 12,288.1 12,292.1 12,296.1 12,300.1 12,304.1 
		12,308.1 12,312.1 12,316.1 12,320.1 12,324.1 12,328.1 12,332.1 12,336.1 12,340.1 12,344.1 12,348.1 12,352.1 12,356.1 12,360.1 
		12,364.1 12,368.1 12,372.1 12,376.1 12,380.1 12,384.1 12,388.1 12,392.1 12,396.1 12,400.1 12,404.1 12,408.1 12,412.1 12,416.1 
		12,420.1 12,424.1 12,428.1 12,432.1 12,436.1 12,440.1 12,444.1 12,448.1 12,452.1 16,452.1 16,448.1 16,444.1 16,440.1 16,436.1 
		16,432.1 16,428.1 16,424.1 16,420.1 16,416.1 16,412.1 16,408.1 16,404.1 16,400.1 16,396.1 16,392.1 16,388.1 16,384.1 16,380.1 
		16,376.1 16,372.1 16,368.1 16,364.1 16,360.1 16,356.1 16,352.1 16,348.1 16,344.1 16,340.1 16,336.1 16,332.1 16,328.1 16,324.1 
		16,320.1 16,316.1 16,312.1 16,308.1 16,304.1 16,300.1 16,296.1 16,292.1 16,288.1 16,284.1 16,280.1 16,276.1 16,272.1 16,268.1 
		16,264.1 16,260.1 16,256.1 16,252.1 16,248.1 16,244.1 16,240.1 16,236.1 16,232.1 16,228.1 16,224.1 16,220.1 16,216.1 16,212.1 
		16,208.1 16,204.1 16,200.1 16,196.1 16,192.1 16,188.1 16,184.1 16,180.1 16,176.1 16,172.1 16,168.1 16,164.1 16,160.1 16,156.1 
		16,152.1 16,148.1 16,144.1 16,140.1 16,136.1 16,132.1 16,128.1 16,124.1 16,120.1 16,116.1 16,112.1 16,108.1 16,104.1 16,100.1 
		16,96.1 16,92.1 16,88.1 16,84.1 16,80.1 16,76.1 16,72.1 16,68.1 16,64.1 16,60.1 16,56.1 16,52.1 16,48.1 16,44.1 16,40.1 
		16,36.1 16,32.1 16,28.1 16,24.1 20,24.1 20,20.1 24,20.1 24,16.1 28,16.1 32,16.1 36,16.1 40,16.1 44,16.1 48,16.1 52,16.1 
		56,16.1 60,16.1 64,16.1 68,16.1 72,16.1 76,16.1 80,16.1 84,16.1 88,16.1 92,16.1 96,16.1 100,16.1 104,16.1 108,16.1 112,16.1 
		116,16.1 120,16.1 124,16.1 128,16.1 132,16.1 136,16.1 140,16.1 144,16.1 148,16.1 152,16.1 156,16.1 160,16.1 164,16.1 168,16.1 
		172,16.1 176,16.1 180,16.1 184,16.1 188,16.1 192,16.1 196,16.1 200,16.1 204,16.1 208,16.1 212,16.1 216,16.1 220,16.1 224,16.1 
		228,16.1 232,16.1 236,16.1 240,16.1 244,16.1 248,16.1 252,16.1 256,16.1 260,16.1 264,16.1 268,16.1 272,16.1 276,16.1 280,16.1 
		284,16.1 288,16.1 292,16.1 296,16.1 300,16.1 304,16.1 308,16.1 312,16.1 316,16.1 320,16.1 324,16.1 328,16.1 332,16.1 336,16.1 
		340,16.1 344,16.1 348,16.1 352,16.1 356,16.1 360,16.1 364,16.1 368,16.1 372,16.1 376,16.1 380,16.1 384,16.1 388,16.1 392,16.1 
		396,16.1 400,16.1 404,16.1 408,16.1 412,16.1 416,16.1 420,16.1 424,16.1 428,16.1 432,16.1 436,16.1 440,16.1 444,16.1 448,16.1 
		452,16.1 456,16.1 460,16.1 464,16.1 468,16.1 472,16.1 476,16.1 480,16.1 484,16.1 488,16.1 492,16.1 496,16.1 500,16.1 504,16.1 
		508,16.1 512,16.1 516,16.1 520,16.1 524,16.1 528,16.1 532,16.1 536,16.1 540,16.1 544,16.1 548,16.1 552,16.1 556,16.1 560,16.1 
		564,16.1 568,16.1 572,16.1 576,16.1 580,16.1 584,16.1 588,16.1 592,16.1 596,16.1 600,16.1 604,16.1 608,16.1 612,16.1 616,16.1 
		620,16.1 624,16.1 628,16.1 632,16.1 636,16.1 640,16.1 644,16.1 648,16.1 652,16.1 656,16.1 660,16.1 664,16.1 668,16.1 672,16.1 
		676,16.1 680,16.1 684,16.1 688,16.1 692,16.1 696,16.1 700,16.1 704,16.1 708,16.1 712,16.1 716,16.1 720,16.1 724,16.1 724,12.1 
			"/>
	<rect x="16" y="452.1" class="st5" width="4" height="4"/>
</g>
<polygon class="st6" points="28,456.1 28,452.1 24,452.1 24,448.1 24,444.1 24,440.1 24,436.1 24,432.1 24,428.1 24,424.1 24,420.1 
	24,416.1 24,412.1 24,408.1 24,404.1 24,400.1 24,396.1 24,392.1 24,388.1 24,384.1 24,380.1 24,376.1 24,372.1 24,368.1 20,368.1 
	16,368.1 16,372.1 16,376.1 16,380.1 16,384.1 16,388.1 16,392.1 16,396.1 16,400.1 16,404.1 16,408.1 16,412.1 16,416.1 16,420.1 
	16,424.1 16,428.1 16,432.1 16,436.1 16,440.1 16,444.1 16,448.1 16,452.1 20,452.1 20,456.1 24,456.1 24,460.1 28,460.1 32,460.1 
	32,456.1 "/>
<g>
	<polygon class="st7" points="92,416.1 96,416.1 96,412.1 92,412.1 88,412.1 88,416.1 	"/>
	<polygon class="st7" points="224,412.1 224,416.1 228,416.1 232,416.1 232,412.1 228,412.1 	"/>
	<polygon class="st7" points="252,416.1 256,416.1 256,412.1 252,412.1 248,412.1 248,416.1 	"/>
	<polygon class="st7" points="224,420.1 224,424.1 228,424.1 232,424.1 232,420.1 228,420.1 	"/>
	<path class="st7" d="M468,452.1v-4v-4h-4v-4v-4h-4v-4v-4h-4v-4v-4h-4v-4v-4h-4v-4v-4h-4v-4v-4h-4v-4v-4h-4v-4v-4h-4v-4v-4h-4v-4h-4
		h-4h-4h-4h-4h-4h-4h-4h-4h-4h-4h-4h-4h-4h-4h-4h-4h-4h-4h-4h-4h-4h-4h-4h-4h-4h-4h-4h-4h-4h-4h-4h-4h-4h-4h-4h-4h-4h-4h-4h-4h-4h-4
		h-4h-4h-4h-4h-4h-4h-4h-4h-4h-4h-4h-4h-4h-4h-4h-4h-4h-4h-4h-4h-4h-4h-4h-4h-4h-4h-4h-4h-4h-4h-4h-4h-4h-4h-4h-4h-4h-4h-4h-4h-4h-4
		h-4h-4h-4h-4h-4h-4h-4h-4h-4h-4h-4h-4h-4h-4h-4h-4v4v4v4v4v4v4v4v4v4v4v4v4v4v4v4v4v4v4v4v4v4h4v4h4v4h4h4h4h4h4h4h4h4h4h4h4h4h4h4
		h4h4h4h4h4h4h4h4h4h4h4h4h4h4h4h4h4h4h4h4h4h4h4h4h4h4h4h4h4h4h4h4h4h4h4h4h4h4h4h4h4h4h4h4h4h4h4h4h4h4h4h4h4h4h4h4h4h4h4h4h4h4h4
		h4h4h4h4h4h4h4h4h4h4h4h4h4h4h4h4h4h4h4h4h4h4h4h4h4h4h4h4h4h4h4h4h4v-4v-4H468z M256,424.1v-4h-4h-4v4v4h-4v-4v-4v-4v-4h4v-4h4h4
		v4h4v4v4v4v4h-4V424.1z M96,424.1v-4h-4h-4v4v4h-4v-4v-4v-4v-4h4v-4h4h4v4h4v4v4v4v4h-4V424.1z M156,412.1v-4h4v4v4h-4V412.1z
		 M60,424.1v-4h4v4h4h4v-4v-4v-4v-4h4v4v4v4v4h-4v4h-4h-4v-4H60z M112,424.1v-4v-4v-4v-4h4h4h4v4h-4h-4v4h4h4v4h-4h-4v4v4h-4V424.1z
		 M136,424.1v-4v-4v-4v-4h4h4h4v4h-4h-4v4h4h4v4h-4h-4v4v4h-4V424.1z M172,424.1h4h4h4v-4h-4h-4v-4h-4v-4h4v-4h4h4h4v4h-4h-4h-4v4h4
		h4v4h4v4h-4v4h-4h-4h-4V424.1z M220,424.1v-4v-4v-4v-4h4h4h4v4h4v4h-4v4h4v4h-4v4h-4h-4h-4V424.1z M272,424.1v-4v-4v-4h4v-4h4h4h4
		v4h-4h-4h-4v4v4v4h4h4v-4h-4v-4h4h4v4v4h-4v4h-4h-4v-4H272z"/>
</g>
<g>
	<path class="st8" d="M724,368.1h-4h-4h-4h-4h-4h-4h-4h-4h-4h-4h-4h-4h-4h-4h-4h-4h-4h-4h-4h-4h-4h-4h-4h-4h-4h-4h-4h-4h-4h-4h-4h-4
		h-4h-4h-4h-4h-4h-4h-4h-4h-4h-4h-4h-4h-4h-4h-4h-4h-4h-4h-4h-4h-4h-4h-4h-4h-4h-4h-4h-4h-4h-4h-4h-4h-4h-4h-4h-4h-4h-4h-4h-4h-4h-4
		v4h4v4v4h4v4v4h4v4v4h4v4v4h4v4v4h4v4v4h4v4v4h4v4v4h4v4v4h4v4v4h4v4v4h4h4h4h4h4h4h4h4h4h4h4h4h4h4h4h4h4h4h4h4h4h4h4h4h4h4h4h4h4
		h4h4h4h4h4h4h4h4h4h4h4h4h4h4h4h4h4h4h4h4h4h4h4h4h4h4h4h4h4h4h4h4v-4h4h4v-4v-4h4v-4v-4v-4v-4v-4v-4v-4v-4v-4v-4v-4v-4v-4v-4v-4
		v-4v-4v-4v-4v-4H724z M652,436.1v-4h-4v-4v-4v-4v-4v-4v-4v-4h4v-4h4v-4h4v-4h4h4v4h4v-4h4h4h4v4h4v4h4v4v4v4v4v4v4v4h-4v4h-4v4h-4
		v4h-4h-4h-4h-4h-4h-4v-4H652z"/>
	<polygon class="st8" points="664,400.1 668,400.1 668,396.1 664,396.1 660,396.1 660,400.1 	"/>
	<rect x="672" y="396.1" class="st8" width="4" height="4"/>
	<rect x="680" y="396.1" class="st8" width="4" height="4"/>
	<polygon class="st8" points="684,404.1 684,408.1 684,412.1 684,416.1 684,420.1 684,424.1 684,428.1 688,428.1 688,424.1 
		688,420.1 688,416.1 688,412.1 688,408.1 688,404.1 688,400.1 684,400.1 	"/>
	<polygon class="st8" points="680,420.1 680,416.1 680,412.1 680,408.1 680,404.1 680,400.1 676,400.1 676,404.1 676,408.1 
		676,412.1 676,416.1 676,420.1 676,424.1 676,428.1 680,428.1 680,424.1 	"/>
	<rect x="680" y="428.1" class="st8" width="4" height="4"/>
</g>
<g>
	<polygon class="st9" points="28,4.1 32,4.1 36,4.1 40,4.1 44,4.1 48,4.1 52,4.1 56,4.1 60,4.1 64,4.1 68,4.1 72,4.1 76,4.1 80,4.1 
		84,4.1 88,4.1 92,4.1 96,4.1 100,4.1 104,4.1 108,4.1 112,4.1 116,4.1 120,4.1 124,4.1 128,4.1 132,4.1 136,4.1 140,4.1 144,4.1 
		148,4.1 152,4.1 156,4.1 160,4.1 164,4.1 168,4.1 172,4.1 176,4.1 180,4.1 184,4.1 188,4.1 192,4.1 196,4.1 200,4.1 204,4.1 
		208,4.1 212,4.1 216,4.1 220,4.1 224,4.1 228,4.1 232,4.1 236,4.1 240,4.1 244,4.1 248,4.1 252,4.1 256,4.1 260,4.1 264,4.1 
		268,4.1 272,4.1 276,4.1 280,4.1 284,4.1 288,4.1 292,4.1 296,4.1 300,4.1 304,4.1 308,4.1 312,4.1 316,4.1 320,4.1 324,4.1 
		328,4.1 332,4.1 336,4.1 340,4.1 344,4.1 348,4.1 352,4.1 356,4.1 360,4.1 364,4.1 368,4.1 372,4.1 376,4.1 380,4.1 384,4.1 
		388,4.1 392,4.1 396,4.1 400,4.1 404,4.1 408,4.1 412,4.1 416,4.1 420,4.1 424,4.1 428,4.1 432,4.1 436,4.1 440,4.1 444,4.1 
		448,4.1 452,4.1 456,4.1 460,4.1 464,4.1 468,4.1 472,4.1 476,4.1 480,4.1 484,4.1 488,4.1 492,4.1 496,4.1 500,4.1 504,4.1 
		508,4.1 512,4.1 516,4.1 520,4.1 524,4.1 528,4.1 532,4.1 536,4.1 540,4.1 544,4.1 548,4.1 552,4.1 556,4.1 560,4.1 564,4.1 
		568,4.1 572,4.1 576,4.1 580,4.1 584,4.1 588,4.1 592,4.1 596,4.1 600,4.1 604,4.1 608,4.1 612,4.1 616,4.1 620,4.1 624,4.1 
		628,4.1 632,4.1 636,4.1 640,4.1 644,4.1 648,4.1 652,4.1 656,4.1 660,4.1 664,4.1 668,4.1 672,4.1 676,4.1 680,4.1 684,4.1 
		688,4.1 692,4.1 696,4.1 700,4.1 704,4.1 708,4.1 712,4.1 716,4.1 720,4.1 720,0.1 716,0.1 712,0.1 708,0.1 704,0.1 700,0.1 
		696,0.1 692,0.1 688,0.1 684,0.1 680,0.1 676,0.1 672,0.1 668,0.1 664,0.1 660,0.1 656,0.1 652,0.1 648,0.1 644,0.1 640,0.1 
		636,0.1 632,0.1 628,0.1 624,0.1 620,0.1 616,0.1 612,0.1 608,0.1 604,0.1 600,0.1 596,0.1 592,0.1 588,0.1 584,0.1 580,0.1 
		576,0.1 572,0.1 568,0.1 564,0.1 560,0.1 556,0.1 552,0.1 548,0.1 544,0.1 540,0.1 536,0.1 532,0.1 528,0.1 524,0.1 520,0.1 
		516,0.1 512,0.1 508,0.1 504,0.1 500,0.1 496,0.1 492,0.1 488,0.1 484,0.1 480,0.1 476,0.1 472,0.1 468,0.1 464,0.1 460,0.1 
		456,0.1 452,0.1 448,0.1 444,0.1 440,0.1 436,0.1 432,0.1 428,0.1 424,0.1 420,0.1 416,0.1 412,0.1 408,0.1 404,0.1 400,0.1 
		396,0.1 392,0.1 388,0.1 384,0.1 380,0.1 376,0.1 372,0.1 368,0.1 364,0.1 360,0.1 356,0.1 352,0.1 348,0.1 344,0.1 340,0.1 
		336,0.1 332,0.1 328,0.1 324,0.1 320,0.1 316,0.1 312,0.1 308,0.1 304,0.1 300,0.1 296,0.1 292,0.1 288,0.1 284,0.1 280,0.1 
		276,0.1 272,0.1 268,0.1 264,0.1 260,0.1 256,0.1 252,0.1 248,0.1 244,0.1 240,0.1 236,0.1 232,0.1 228,0.1 224,0.1 220,0.1 
		216,0.1 212,0.1 208,0.1 204,0.1 200,0.1 196,0.1 192,0.1 188,0.1 184,0.1 180,0.1 176,0.1 172,0.1 168,0.1 164,0.1 160,0.1 
		156,0.1 152,0.1 148,0.1 144,0.1 140,0.1 136,0.1 132,0.1 128,0.1 124,0.1 120,0.1 116,0.1 112,0.1 108,0.1 104,0.1 100,0.1 
		96,0.1 92,0.1 88,0.1 84,0.1 80,0.1 76,0.1 72,0.1 68,0.1 64,0.1 60,0.1 56,0.1 52,0.1 48,0.1 44,0.1 40,0.1 36,0.1 32,0.1 28,0.1 
		24,0.1 20,0.1 20,4.1 24,4.1 	"/>
	<polygon class="st9" points="20,4.1 16,4.1 12,4.1 12,8.1 16,8.1 20,8.1 	"/>
	<rect x="8" y="8.1" class="st9" width="4" height="4"/>
	<rect x="724" y="8.1" class="st9" width="4" height="4"/>
	<polygon class="st9" points="4,16.1 4,20.1 8,20.1 8,16.1 8,12.1 4,12.1 	"/>
	<polygon class="st9" points="728,16.1 728,20.1 728,24.1 728,28.1 728,32.1 728,36.1 728,40.1 728,44.1 728,48.1 728,52.1 
		728,56.1 728,60.1 728,64.1 728,68.1 728,72.1 728,76.1 728,80.1 728,84.1 728,88.1 728,92.1 728,96.1 728,100.1 728,104.1 
		728,108.1 728,112.1 728,116.1 728,120.1 728,124.1 728,128.1 728,132.1 728,136.1 728,140.1 728,144.1 728,148.1 728,152.1 
		728,156.1 728,160.1 728,164.1 728,168.1 728,172.1 728,176.1 728,180.1 728,184.1 728,188.1 728,192.1 728,196.1 728,200.1 
		728,204.1 728,208.1 728,212.1 728,216.1 728,220.1 728,224.1 728,228.1 728,232.1 728,236.1 728,240.1 728,244.1 728,248.1 
		728,252.1 728,256.1 728,260.1 728,264.1 728,268.1 728,272.1 728,276.1 728,280.1 728,284.1 728,288.1 728,292.1 728,296.1 
		728,300.1 728,304.1 728,308.1 728,312.1 728,316.1 728,320.1 728,324.1 728,328.1 728,332.1 728,336.1 728,340.1 728,344.1 
		728,348.1 728,352.1 728,356.1 728,360.1 728,364.1 728,368.1 728,372.1 728,376.1 728,380.1 728,384.1 728,388.1 728,392.1 
		728,396.1 728,400.1 728,404.1 728,408.1 728,412.1 728,416.1 728,420.1 728,424.1 728,428.1 728,432.1 728,436.1 728,440.1 
		728,444.1 728,448.1 732,448.1 732,444.1 732,440.1 732,436.1 732,432.1 732,428.1 732,424.1 732,420.1 732,416.1 732,412.1 
		732,408.1 732,404.1 732,400.1 732,396.1 732,392.1 732,388.1 732,384.1 732,380.1 732,376.1 732,372.1 732,368.1 732,364.1 
		732,360.1 732,356.1 732,352.1 732,348.1 732,344.1 732,340.1 732,336.1 732,332.1 732,328.1 732,324.1 732,320.1 732,316.1 
		732,312.1 732,308.1 732,304.1 732,300.1 732,296.1 732,292.1 732,288.1 732,284.1 732,280.1 732,276.1 732,272.1 732,268.1 
		732,264.1 732,260.1 732,256.1 732,252.1 732,248.1 732,244.1 732,240.1 732,236.1 732,232.1 732,228.1 732,224.1 732,220.1 
		732,216.1 732,212.1 732,208.1 732,204.1 732,200.1 732,196.1 732,192.1 732,188.1 732,184.1 732,180.1 732,176.1 732,172.1 
		732,168.1 732,164.1 732,160.1 732,156.1 732,152.1 732,148.1 732,144.1 732,140.1 732,136.1 732,132.1 732,128.1 732,124.1 
		732,120.1 732,116.1 732,112.1 732,108.1 732,104.1 732,100.1 732,96.1 732,92.1 732,88.1 732,84.1 732,80.1 732,76.1 732,72.1 
		732,68.1 732,64.1 732,60.1 732,56.1 732,52.1 732,48.1 732,44.1 732,40.1 732,36.1 732,32.1 732,28.1 732,24.1 732,20.1 732,16.1 
			"/>
	<polygon class="st9" points="0,24.1 0,28.1 0,32.1 0,36.1 0,40.1 0,44.1 0,48.1 0,52.1 0,56.1 0,60.1 0,64.1 0,68.1 0,72.1 0,76.1 
		0,80.1 0,84.1 0,88.1 0,92.1 0,96.1 0,100.1 0,104.1 0,108.1 0,112.1 0,116.1 0,120.1 0,124.1 0,128.1 0,132.1 0,136.1 0,140.1 
		0,144.1 0,148.1 0,152.1 0,156.1 0,160.1 0,164.1 0,168.1 0,172.1 0,176.1 0,180.1 0,184.1 0,188.1 0,192.1 0,196.1 0,200.1 
		0,204.1 0,208.1 0,212.1 0,216.1 0,220.1 0,224.1 0,228.1 0,232.1 0,236.1 0,240.1 0,244.1 0,248.1 0,252.1 0,256.1 0,260.1 
		0,264.1 0,268.1 0,272.1 0,276.1 0,280.1 0,284.1 0,288.1 0,292.1 0,296.1 0,300.1 0,304.1 0,308.1 0,312.1 0,316.1 0,320.1 
		0,324.1 0,328.1 0,332.1 0,336.1 0,340.1 0,344.1 0,348.1 0,352.1 0,356.1 0,360.1 0,364.1 0,368.1 0,372.1 0,376.1 0,380.1 
		0,384.1 0,388.1 0,392.1 0,396.1 0,400.1 0,404.1 0,408.1 0,412.1 0,416.1 0,420.1 0,424.1 0,428.1 0,432.1 0,436.1 0,440.1 
		0,444.1 0,448.1 0,452.1 4,452.1 4,448.1 4,444.1 4,440.1 4,436.1 4,432.1 4,428.1 4,424.1 4,420.1 4,416.1 4,412.1 4,408.1 
		4,404.1 4,400.1 4,396.1 4,392.1 4,388.1 4,384.1 4,380.1 4,376.1 4,372.1 4,368.1 4,364.1 4,360.1 4,356.1 4,352.1 4,348.1 
		4,344.1 4,340.1 4,336.1 4,332.1 4,328.1 4,324.1 4,320.1 4,316.1 4,312.1 4,308.1 4,304.1 4,300.1 4,296.1 4,292.1 4,288.1 
		4,284.1 4,280.1 4,276.1 4,272.1 4,268.1 4,264.1 4,260.1 4,256.1 4,252.1 4,248.1 4,244.1 4,240.1 4,236.1 4,232.1 4,228.1 
		4,224.1 4,220.1 4,216.1 4,212.1 4,208.1 4,204.1 4,200.1 4,196.1 4,192.1 4,188.1 4,184.1 4,180.1 4,176.1 4,172.1 4,168.1 
		4,164.1 4,160.1 4,156.1 4,152.1 4,148.1 4,144.1 4,140.1 4,136.1 4,132.1 4,128.1 4,124.1 4,120.1 4,116.1 4,112.1 4,108.1 
		4,104.1 4,100.1 4,96.1 4,92.1 4,88.1 4,84.1 4,80.1 4,76.1 4,72.1 4,68.1 4,64.1 4,60.1 4,56.1 4,52.1 4,48.1 4,44.1 4,40.1 
		4,36.1 4,32.1 4,28.1 4,24.1 4,20.1 0,20.1 	"/>
	<polygon class="st9" points="680,392.1 676,392.1 672,392.1 672,396.1 676,396.1 680,396.1 684,396.1 684,392.1 	"/>
	<rect x="668" y="396.1" class="st9" width="4" height="4"/>
	<rect x="684" y="396.1" class="st9" width="4" height="4"/>
	<polygon class="st9" points="660,424.1 660,428.1 660,432.1 664,432.1 668,432.1 668,428.1 668,424.1 668,420.1 668,416.1 
		668,412.1 668,408.1 668,404.1 664,404.1 660,404.1 656,404.1 652,404.1 648,404.1 648,408.1 648,412.1 648,416.1 648,420.1 
		648,424.1 648,428.1 648,432.1 652,432.1 656,432.1 656,428.1 656,424.1 656,420.1 656,416.1 660,416.1 660,420.1 	"/>
	<polygon class="st9" points="724,452.1 724,456.1 728,456.1 728,452.1 728,448.1 724,448.1 	"/>
	<polygon class="st9" points="716,456.1 716,460.1 720,460.1 724,460.1 724,456.1 720,456.1 	"/>
	<polygon class="st9" points="708,460.1 704,460.1 700,460.1 696,460.1 692,460.1 688,460.1 684,460.1 680,460.1 676,460.1 
		672,460.1 668,460.1 664,460.1 660,460.1 656,460.1 652,460.1 648,460.1 644,460.1 640,460.1 636,460.1 632,460.1 628,460.1 
		624,460.1 620,460.1 616,460.1 612,460.1 608,460.1 604,460.1 600,460.1 596,460.1 592,460.1 588,460.1 584,460.1 580,460.1 
		576,460.1 572,460.1 568,460.1 564,460.1 560,460.1 556,460.1 552,460.1 548,460.1 544,460.1 540,460.1 536,460.1 532,460.1 
		528,460.1 524,460.1 520,460.1 516,460.1 512,460.1 508,460.1 504,460.1 500,460.1 496,460.1 492,460.1 488,460.1 484,460.1 
		480,460.1 476,460.1 472,460.1 468,460.1 464,460.1 460,460.1 456,460.1 452,460.1 448,460.1 444,460.1 440,460.1 436,460.1 
		432,460.1 428,460.1 424,460.1 420,460.1 416,460.1 412,460.1 408,460.1 404,460.1 400,460.1 396,460.1 392,460.1 388,460.1 
		384,460.1 380,460.1 376,460.1 372,460.1 368,460.1 364,460.1 360,460.1 356,460.1 352,460.1 348,460.1 344,460.1 340,460.1 
		336,460.1 332,460.1 328,460.1 324,460.1 320,460.1 316,460.1 312,460.1 308,460.1 304,460.1 300,460.1 296,460.1 292,460.1 
		288,460.1 284,460.1 280,460.1 276,460.1 272,460.1 268,460.1 264,460.1 260,460.1 256,460.1 252,460.1 248,460.1 244,460.1 
		240,460.1 236,460.1 232,460.1 228,460.1 224,460.1 220,460.1 216,460.1 212,460.1 208,460.1 204,460.1 200,460.1 196,460.1 
		192,460.1 188,460.1 184,460.1 180,460.1 176,460.1 172,460.1 168,460.1 164,460.1 160,460.1 156,460.1 152,460.1 148,460.1 
		144,460.1 140,460.1 136,460.1 132,460.1 128,460.1 124,460.1 120,460.1 116,460.1 112,460.1 108,460.1 104,460.1 100,460.1 
		96,460.1 92,460.1 88,460.1 84,460.1 80,460.1 76,460.1 72,460.1 68,460.1 64,460.1 60,460.1 56,460.1 52,460.1 48,460.1 44,460.1 
		40,460.1 36,460.1 32,460.1 28,460.1 24,460.1 20,460.1 20,464.1 24,464.1 28,464.1 32,464.1 36,464.1 40,464.1 44,464.1 48,464.1 
		52,464.1 56,464.1 60,464.1 64,464.1 68,464.1 72,464.1 76,464.1 80,464.1 84,464.1 88,464.1 92,464.1 96,464.1 100,464.1 
		104,464.1 108,464.1 112,464.1 116,464.1 120,464.1 124,464.1 128,464.1 132,464.1 136,464.1 140,464.1 144,464.1 148,464.1 
		152,464.1 156,464.1 160,464.1 164,464.1 168,464.1 172,464.1 176,464.1 180,464.1 184,464.1 188,464.1 192,464.1 196,464.1 
		200,464.1 204,464.1 208,464.1 212,464.1 216,464.1 220,464.1 224,464.1 228,464.1 232,464.1 236,464.1 240,464.1 244,464.1 
		248,464.1 252,464.1 256,464.1 260,464.1 264,464.1 268,464.1 272,464.1 276,464.1 280,464.1 284,464.1 288,464.1 292,464.1 
		296,464.1 300,464.1 304,464.1 308,464.1 312,464.1 316,464.1 320,464.1 324,464.1 328,464.1 332,464.1 336,464.1 340,464.1 
		344,464.1 348,464.1 352,464.1 356,464.1 360,464.1 364,464.1 368,464.1 372,464.1 376,464.1 380,464.1 384,464.1 388,464.1 
		392,464.1 396,464.1 400,464.1 404,464.1 408,464.1 412,464.1 416,464.1 420,464.1 424,464.1 428,464.1 432,464.1 436,464.1 
		440,464.1 444,464.1 448,464.1 452,464.1 456,464.1 460,464.1 464,464.1 468,464.1 472,464.1 476,464.1 480,464.1 484,464.1 
		488,464.1 492,464.1 496,464.1 500,464.1 504,464.1 508,464.1 512,464.1 516,464.1 520,464.1 524,464.1 528,464.1 532,464.1 
		536,464.1 540,464.1 544,464.1 548,464.1 552,464.1 556,464.1 560,464.1 564,464.1 568,464.1 572,464.1 576,464.1 580,464.1 
		584,464.1 588,464.1 592,464.1 596,464.1 600,464.1 604,464.1 608,464.1 612,464.1 616,464.1 620,464.1 624,464.1 628,464.1 
		632,464.1 636,464.1 640,464.1 644,464.1 648,464.1 652,464.1 656,464.1 660,464.1 664,464.1 668,464.1 672,464.1 676,464.1 
		680,464.1 684,464.1 688,464.1 692,464.1 696,464.1 700,464.1 704,464.1 708,464.1 712,464.1 716,464.1 716,460.1 712,460.1 	"/>
</g>
<g>
	<polygon class="st10" points="36,4.1 32,4.1 28,4.1 24,4.1 20,4.1 20,8.1 24,8.1 28,8.1 32,8.1 36,8.1 40,8.1 44,8.1 44,4.1 
		40,4.1 	"/>
	<polygon class="st10" points="80,4.1 76,4.1 72,4.1 68,4.1 64,4.1 60,4.1 60,8.1 64,8.1 68,8.1 72,8.1 76,8.1 80,8.1 84,8.1 
		88,8.1 88,4.1 84,4.1 	"/>
	<polygon class="st10" points="676,4.1 672,4.1 668,4.1 664,4.1 660,4.1 656,4.1 652,4.1 648,4.1 644,4.1 640,4.1 636,4.1 632,4.1 
		628,4.1 624,4.1 620,4.1 616,4.1 612,4.1 608,4.1 604,4.1 600,4.1 596,4.1 592,4.1 588,4.1 584,4.1 580,4.1 576,4.1 572,4.1 
		568,4.1 564,4.1 560,4.1 556,4.1 552,4.1 548,4.1 544,4.1 540,4.1 536,4.1 532,4.1 528,4.1 524,4.1 520,4.1 516,4.1 512,4.1 
		508,4.1 504,4.1 500,4.1 496,4.1 492,4.1 488,4.1 484,4.1 480,4.1 476,4.1 472,4.1 468,4.1 464,4.1 460,4.1 456,4.1 452,4.1 
		448,4.1 444,4.1 440,4.1 436,4.1 432,4.1 428,4.1 424,4.1 420,4.1 416,4.1 412,4.1 408,4.1 404,4.1 400,4.1 396,4.1 392,4.1 
		388,4.1 384,4.1 380,4.1 376,4.1 372,4.1 368,4.1 364,4.1 360,4.1 356,4.1 352,4.1 348,4.1 344,4.1 340,4.1 336,4.1 332,4.1 
		328,4.1 324,4.1 320,4.1 316,4.1 312,4.1 308,4.1 304,4.1 300,4.1 296,4.1 292,4.1 288,4.1 284,4.1 280,4.1 276,4.1 272,4.1 
		268,4.1 264,4.1 260,4.1 256,4.1 252,4.1 248,4.1 244,4.1 240,4.1 236,4.1 232,4.1 228,4.1 224,4.1 220,4.1 216,4.1 212,4.1 
		208,4.1 204,4.1 200,4.1 196,4.1 192,4.1 188,4.1 184,4.1 180,4.1 176,4.1 172,4.1 168,4.1 164,4.1 160,4.1 156,4.1 152,4.1 
		148,4.1 144,4.1 140,4.1 136,4.1 132,4.1 128,4.1 124,4.1 120,4.1 116,4.1 112,4.1 108,4.1 104,4.1 100,4.1 96,4.1 92,4.1 92,8.1 
		96,8.1 100,8.1 104,8.1 108,8.1 112,8.1 116,8.1 120,8.1 124,8.1 128,8.1 132,8.1 136,8.1 140,8.1 144,8.1 148,8.1 152,8.1 
		156,8.1 160,8.1 164,8.1 168,8.1 172,8.1 176,8.1 180,8.1 184,8.1 188,8.1 192,8.1 196,8.1 200,8.1 204,8.1 208,8.1 212,8.1 
		216,8.1 220,8.1 224,8.1 228,8.1 232,8.1 236,8.1 240,8.1 244,8.1 248,8.1 252,8.1 256,8.1 260,8.1 264,8.1 268,8.1 272,8.1 
		276,8.1 280,8.1 284,8.1 288,8.1 292,8.1 296,8.1 300,8.1 304,8.1 308,8.1 312,8.1 316,8.1 320,8.1 324,8.1 328,8.1 332,8.1 
		336,8.1 340,8.1 344,8.1 348,8.1 352,8.1 356,8.1 360,8.1 364,8.1 368,8.1 372,8.1 376,8.1 380,8.1 384,8.1 388,8.1 392,8.1 
		396,8.1 400,8.1 404,8.1 408,8.1 412,8.1 416,8.1 420,8.1 424,8.1 428,8.1 432,8.1 436,8.1 440,8.1 444,8.1 448,8.1 452,8.1 
		456,8.1 460,8.1 464,8.1 468,8.1 472,8.1 476,8.1 480,8.1 484,8.1 488,8.1 492,8.1 496,8.1 500,8.1 504,8.1 508,8.1 512,8.1 
		516,8.1 520,8.1 524,8.1 528,8.1 532,8.1 536,8.1 540,8.1 544,8.1 548,8.1 552,8.1 556,8.1 560,8.1 564,8.1 568,8.1 572,8.1 
		576,8.1 580,8.1 584,8.1 588,8.1 592,8.1 596,8.1 600,8.1 604,8.1 608,8.1 612,8.1 616,8.1 620,8.1 624,8.1 628,8.1 632,8.1 
		636,8.1 640,8.1 644,8.1 648,8.1 652,8.1 656,8.1 660,8.1 664,8.1 668,8.1 672,8.1 676,8.1 680,8.1 684,8.1 684,4.1 680,4.1 	"/>
	<polygon class="st10" points="12,8.1 12,12.1 16,12.1 20,12.1 20,8.1 16,8.1 	"/>
	<polygon class="st10" points="8,16.1 8,20.1 12,20.1 12,16.1 12,12.1 8,12.1 	"/>
	<rect x="728" y="12.1" class="st10" width="4" height="4"/>
	<polygon class="st10" points="732,16.1 732,20.1 732,24.1 736,24.1 736,20.1 736,16.1 	"/>
	<rect x="4" y="20.1" class="st10" width="4" height="4"/>
	<polygon class="st10" points="4,36.1 4,40.1 4,44.1 4,48.1 4,52.1 4,56.1 4,60.1 4,64.1 4,68.1 4,72.1 4,76.1 4,80.1 4,84.1 
		4,88.1 4,92.1 4,96.1 4,100.1 4,104.1 4,108.1 4,112.1 4,116.1 4,120.1 4,124.1 4,128.1 4,132.1 4,136.1 4,140.1 4,144.1 4,148.1 
		4,152.1 4,156.1 4,160.1 4,164.1 4,168.1 4,172.1 4,176.1 4,180.1 4,184.1 4,188.1 4,192.1 4,196.1 4,200.1 4,204.1 4,208.1 
		4,212.1 4,216.1 4,220.1 4,224.1 4,228.1 4,232.1 4,236.1 4,240.1 4,244.1 4,248.1 4,252.1 4,256.1 4,260.1 4,264.1 4,268.1 
		4,272.1 4,276.1 4,280.1 4,284.1 4,288.1 4,292.1 4,296.1 4,300.1 4,304.1 4,308.1 4,312.1 4,316.1 4,320.1 4,324.1 4,328.1 
		4,332.1 4,336.1 4,340.1 4,344.1 4,348.1 4,352.1 4,356.1 4,360.1 4,364.1 4,368.1 4,372.1 4,376.1 4,380.1 4,384.1 4,388.1 
		4,392.1 4,396.1 4,400.1 4,404.1 4,408.1 8,408.1 8,404.1 8,400.1 8,396.1 8,392.1 8,388.1 8,384.1 8,380.1 8,376.1 8,372.1 
		8,368.1 8,364.1 8,360.1 8,356.1 8,352.1 8,348.1 8,344.1 8,340.1 8,336.1 8,332.1 8,328.1 8,324.1 8,320.1 8,316.1 8,312.1 
		8,308.1 8,304.1 8,300.1 8,296.1 8,292.1 8,288.1 8,284.1 8,280.1 8,276.1 8,272.1 8,268.1 8,264.1 8,260.1 8,256.1 8,252.1 
		8,248.1 8,244.1 8,240.1 8,236.1 8,232.1 8,228.1 8,224.1 8,220.1 8,216.1 8,212.1 8,208.1 8,204.1 8,200.1 8,196.1 8,192.1 
		8,188.1 8,184.1 8,180.1 8,176.1 8,172.1 8,168.1 8,164.1 8,160.1 8,156.1 8,152.1 8,148.1 8,144.1 8,140.1 8,136.1 8,132.1 
		8,128.1 8,124.1 8,120.1 8,116.1 8,112.1 8,108.1 8,104.1 8,100.1 8,96.1 8,92.1 8,88.1 8,84.1 8,80.1 8,76.1 8,72.1 8,68.1 
		8,64.1 8,60.1 8,56.1 8,52.1 8,48.1 8,44.1 8,40.1 8,36.1 8,32.1 4,32.1 	"/>
	<polygon class="st10" points="732,444.1 732,448.1 736,448.1 736,444.1 736,440.1 732,440.1 	"/>
	<polygon class="st10" points="4,448.1 4,452.1 8,452.1 8,448.1 8,444.1 4,444.1 	"/>
	<polygon class="st10" points="728,452.1 728,456.1 732,456.1 732,452.1 732,448.1 728,448.1 	"/>
	<rect x="724" y="456.1" class="st10" width="4" height="4"/>
	<polygon class="st10" points="16,460.1 12,460.1 12,464.1 16,464.1 20,464.1 20,460.1 	"/>
	<rect x="20" y="464.1" class="st10" width="4" height="4"/>
	<polygon class="st10" points="32,464.1 32,468.1 36,468.1 40,468.1 40,464.1 36,464.1 	"/>
	<rect x="704" y="464.1" class="st10" width="4" height="4"/>
</g>
<g>
	<polygon class="st11" points="52,8.1 56,8.1 60,8.1 60,4.1 56,4.1 52,4.1 48,4.1 44,4.1 44,8.1 48,8.1 	"/>
	<rect x="88" y="4.1" class="st11" width="4" height="4"/>
	<polygon class="st11" points="724,4.1 720,4.1 716,4.1 712,4.1 708,4.1 704,4.1 700,4.1 696,4.1 692,4.1 688,4.1 684,4.1 684,8.1 
		688,8.1 692,8.1 696,8.1 700,8.1 704,8.1 708,8.1 712,8.1 716,8.1 720,8.1 724,8.1 728,8.1 728,4.1 	"/>
	<rect x="728" y="8.1" class="st11" width="4" height="4"/>
	<polygon class="st11" points="732,24.1 732,28.1 732,32.1 732,36.1 732,40.1 732,44.1 732,48.1 732,52.1 732,56.1 732,60.1 
		732,64.1 732,68.1 732,72.1 732,76.1 732,80.1 732,84.1 732,88.1 732,92.1 732,96.1 732,100.1 732,104.1 732,108.1 732,112.1 
		732,116.1 732,120.1 732,124.1 732,128.1 732,132.1 732,136.1 732,140.1 732,144.1 732,148.1 732,152.1 732,156.1 732,160.1 
		732,164.1 732,168.1 732,172.1 732,176.1 732,180.1 732,184.1 732,188.1 732,192.1 732,196.1 732,200.1 732,204.1 732,208.1 
		732,212.1 732,216.1 732,220.1 732,224.1 732,228.1 732,232.1 732,236.1 732,240.1 732,244.1 732,248.1 732,252.1 732,256.1 
		732,260.1 732,264.1 732,268.1 732,272.1 732,276.1 732,280.1 732,284.1 732,288.1 732,292.1 732,296.1 732,300.1 732,304.1 
		732,308.1 732,312.1 732,316.1 732,320.1 732,324.1 732,328.1 732,332.1 732,336.1 732,340.1 732,344.1 732,348.1 732,352.1 
		732,356.1 732,360.1 732,364.1 732,368.1 732,372.1 732,376.1 732,380.1 732,384.1 732,388.1 732,392.1 732,396.1 732,400.1 
		732,404.1 732,408.1 732,412.1 732,416.1 732,420.1 732,424.1 732,428.1 732,432.1 732,436.1 732,440.1 736,440.1 736,436.1 
		736,432.1 736,428.1 736,424.1 736,420.1 736,416.1 736,412.1 736,408.1 736,404.1 736,400.1 736,396.1 736,392.1 736,388.1 
		736,384.1 736,380.1 736,376.1 736,372.1 736,368.1 736,364.1 736,360.1 736,356.1 736,352.1 736,348.1 736,344.1 736,340.1 
		736,336.1 736,332.1 736,328.1 736,324.1 736,320.1 736,316.1 736,312.1 736,308.1 736,304.1 736,300.1 736,296.1 736,292.1 
		736,288.1 736,284.1 736,280.1 736,276.1 736,272.1 736,268.1 736,264.1 736,260.1 736,256.1 736,252.1 736,248.1 736,244.1 
		736,240.1 736,236.1 736,232.1 736,228.1 736,224.1 736,220.1 736,216.1 736,212.1 736,208.1 736,204.1 736,200.1 736,196.1 
		736,192.1 736,188.1 736,184.1 736,180.1 736,176.1 736,172.1 736,168.1 736,164.1 736,160.1 736,156.1 736,152.1 736,148.1 
		736,144.1 736,140.1 736,136.1 736,132.1 736,128.1 736,124.1 736,120.1 736,116.1 736,112.1 736,108.1 736,104.1 736,100.1 
		736,96.1 736,92.1 736,88.1 736,84.1 736,80.1 736,76.1 736,72.1 736,68.1 736,64.1 736,60.1 736,56.1 736,52.1 736,48.1 736,44.1 
		736,40.1 736,36.1 736,32.1 736,28.1 736,24.1 	"/>
	<polygon class="st11" points="8,28.1 8,24.1 4,24.1 4,28.1 4,32.1 8,32.1 	"/>
	<polygon class="st11" points="8,440.1 8,436.1 8,432.1 8,428.1 8,424.1 8,420.1 8,416.1 8,412.1 8,408.1 4,408.1 4,412.1 4,416.1 
		4,420.1 4,424.1 4,428.1 4,432.1 4,436.1 4,440.1 4,444.1 8,444.1 	"/>
	<polygon class="st11" points="8,456.1 8,460.1 12,460.1 12,456.1 12,452.1 8,452.1 	"/>
	<polygon class="st11" points="716,460.1 716,464.1 720,464.1 724,464.1 724,460.1 720,460.1 	"/>
	<polygon class="st11" points="24,464.1 24,468.1 28,468.1 32,468.1 32,464.1 28,464.1 	"/>
	<polygon class="st11" points="696,464.1 692,464.1 688,464.1 684,464.1 680,464.1 676,464.1 672,464.1 668,464.1 664,464.1 
		660,464.1 656,464.1 652,464.1 648,464.1 644,464.1 640,464.1 636,464.1 632,464.1 628,464.1 624,464.1 620,464.1 616,464.1 
		612,464.1 608,464.1 604,464.1 600,464.1 596,464.1 592,464.1 588,464.1 584,464.1 580,464.1 576,464.1 572,464.1 568,464.1 
		564,464.1 560,464.1 556,464.1 552,464.1 548,464.1 544,464.1 540,464.1 536,464.1 532,464.1 528,464.1 524,464.1 520,464.1 
		516,464.1 512,464.1 508,464.1 504,464.1 500,464.1 496,464.1 492,464.1 488,464.1 484,464.1 480,464.1 476,464.1 472,464.1 
		468,464.1 464,464.1 460,464.1 456,464.1 452,464.1 448,464.1 444,464.1 440,464.1 436,464.1 432,464.1 428,464.1 424,464.1 
		420,464.1 416,464.1 412,464.1 408,464.1 404,464.1 400,464.1 396,464.1 392,464.1 388,464.1 384,464.1 380,464.1 376,464.1 
		372,464.1 368,464.1 364,464.1 360,464.1 356,464.1 352,464.1 348,464.1 344,464.1 340,464.1 336,464.1 332,464.1 328,464.1 
		324,464.1 320,464.1 316,464.1 312,464.1 308,464.1 304,464.1 300,464.1 296,464.1 292,464.1 288,464.1 284,464.1 280,464.1 
		276,464.1 272,464.1 268,464.1 264,464.1 260,464.1 256,464.1 252,464.1 248,464.1 244,464.1 240,464.1 236,464.1 232,464.1 
		228,464.1 224,464.1 220,464.1 216,464.1 212,464.1 208,464.1 204,464.1 200,464.1 196,464.1 192,464.1 188,464.1 184,464.1 
		180,464.1 176,464.1 172,464.1 168,464.1 164,464.1 160,464.1 156,464.1 152,464.1 148,464.1 144,464.1 140,464.1 136,464.1 
		132,464.1 128,464.1 124,464.1 120,464.1 116,464.1 112,464.1 108,464.1 104,464.1 100,464.1 96,464.1 92,464.1 88,464.1 84,464.1 
		80,464.1 76,464.1 72,464.1 68,464.1 64,464.1 60,464.1 56,464.1 52,464.1 48,464.1 44,464.1 40,464.1 40,468.1 44,468.1 48,468.1 
		52,468.1 56,468.1 60,468.1 64,468.1 68,468.1 72,468.1 76,468.1 80,468.1 84,468.1 88,468.1 92,468.1 96,468.1 100,468.1 
		104,468.1 108,468.1 112,468.1 116,468.1 120,468.1 124,468.1 128,468.1 132,468.1 136,468.1 140,468.1 144,468.1 148,468.1 
		152,468.1 156,468.1 160,468.1 164,468.1 168,468.1 172,468.1 176,468.1 180,468.1 184,468.1 188,468.1 192,468.1 196,468.1 
		200,468.1 204,468.1 208,468.1 212,468.1 216,468.1 220,468.1 224,468.1 228,468.1 232,468.1 236,468.1 240,468.1 244,468.1 
		248,468.1 252,468.1 256,468.1 260,468.1 264,468.1 268,468.1 272,468.1 276,468.1 280,468.1 284,468.1 288,468.1 292,468.1 
		296,468.1 300,468.1 304,468.1 308,468.1 312,468.1 316,468.1 320,468.1 324,468.1 328,468.1 332,468.1 336,468.1 340,468.1 
		344,468.1 348,468.1 352,468.1 356,468.1 360,468.1 364,468.1 368,468.1 372,468.1 376,468.1 380,468.1 384,468.1 388,468.1 
		392,468.1 396,468.1 400,468.1 404,468.1 408,468.1 412,468.1 416,468.1 420,468.1 424,468.1 428,468.1 432,468.1 436,468.1 
		440,468.1 444,468.1 448,468.1 452,468.1 456,468.1 460,468.1 464,468.1 468,468.1 472,468.1 476,468.1 480,468.1 484,468.1 
		488,468.1 492,468.1 496,468.1 500,468.1 504,468.1 508,468.1 512,468.1 516,468.1 520,468.1 524,468.1 528,468.1 532,468.1 
		536,468.1 540,468.1 544,468.1 548,468.1 552,468.1 556,468.1 560,468.1 564,468.1 568,468.1 572,468.1 576,468.1 580,468.1 
		584,468.1 588,468.1 592,468.1 596,468.1 600,468.1 604,468.1 608,468.1 612,468.1 616,468.1 620,468.1 624,468.1 628,468.1 
		632,468.1 636,468.1 640,468.1 644,468.1 648,468.1 652,468.1 656,468.1 660,468.1 664,468.1 668,468.1 672,468.1 676,468.1 
		680,468.1 684,468.1 688,468.1 692,468.1 696,468.1 700,468.1 704,468.1 704,464.1 700,464.1 	"/>
	<polygon class="st11" points="708,464.1 708,468.1 712,468.1 716,468.1 716,464.1 712,464.1 	"/>
</g>
<g>
	<rect x="720" y="0.1" class="st12" width="4" height="4"/>
	<rect x="728" y="4.1" class="st12" width="4" height="4"/>
	<polygon class="st12" points="720,8.1 716,8.1 712,8.1 708,8.1 704,8.1 700,8.1 696,8.1 692,8.1 688,8.1 684,8.1 680,8.1 676,8.1 
		672,8.1 668,8.1 664,8.1 660,8.1 656,8.1 652,8.1 648,8.1 644,8.1 640,8.1 636,8.1 632,8.1 628,8.1 624,8.1 620,8.1 616,8.1 
		612,8.1 608,8.1 604,8.1 600,8.1 596,8.1 592,8.1 588,8.1 584,8.1 580,8.1 576,8.1 572,8.1 568,8.1 564,8.1 560,8.1 556,8.1 
		552,8.1 548,8.1 544,8.1 540,8.1 536,8.1 532,8.1 528,8.1 524,8.1 520,8.1 516,8.1 512,8.1 508,8.1 504,8.1 500,8.1 496,8.1 
		492,8.1 488,8.1 484,8.1 480,8.1 476,8.1 472,8.1 468,8.1 464,8.1 460,8.1 456,8.1 452,8.1 448,8.1 444,8.1 440,8.1 436,8.1 
		432,8.1 428,8.1 424,8.1 420,8.1 416,8.1 412,8.1 408,8.1 404,8.1 400,8.1 396,8.1 392,8.1 388,8.1 384,8.1 380,8.1 376,8.1 
		372,8.1 368,8.1 364,8.1 360,8.1 356,8.1 352,8.1 348,8.1 344,8.1 340,8.1 336,8.1 332,8.1 328,8.1 324,8.1 320,8.1 316,8.1 
		312,8.1 308,8.1 304,8.1 300,8.1 296,8.1 292,8.1 288,8.1 284,8.1 280,8.1 276,8.1 272,8.1 268,8.1 264,8.1 260,8.1 256,8.1 
		252,8.1 248,8.1 244,8.1 240,8.1 236,8.1 232,8.1 228,8.1 224,8.1 220,8.1 216,8.1 212,8.1 208,8.1 204,8.1 200,8.1 196,8.1 
		192,8.1 188,8.1 184,8.1 180,8.1 176,8.1 172,8.1 168,8.1 164,8.1 160,8.1 156,8.1 152,8.1 148,8.1 144,8.1 140,8.1 136,8.1 
		132,8.1 128,8.1 124,8.1 120,8.1 116,8.1 112,8.1 108,8.1 104,8.1 100,8.1 96,8.1 92,8.1 88,8.1 84,8.1 80,8.1 76,8.1 72,8.1 
		68,8.1 64,8.1 60,8.1 56,8.1 52,8.1 48,8.1 44,8.1 40,8.1 36,8.1 32,8.1 28,8.1 24,8.1 20,8.1 20,12.1 24,12.1 28,12.1 32,12.1 
		36,12.1 40,12.1 44,12.1 48,12.1 52,12.1 56,12.1 60,12.1 64,12.1 68,12.1 72,12.1 76,12.1 80,12.1 84,12.1 88,12.1 92,12.1 
		96,12.1 100,12.1 104,12.1 108,12.1 112,12.1 116,12.1 120,12.1 124,12.1 128,12.1 132,12.1 136,12.1 140,12.1 144,12.1 148,12.1 
		152,12.1 156,12.1 160,12.1 164,12.1 168,12.1 172,12.1 176,12.1 180,12.1 184,12.1 188,12.1 192,12.1 196,12.1 200,12.1 204,12.1 
		208,12.1 212,12.1 216,12.1 220,12.1 224,12.1 228,12.1 232,12.1 236,12.1 240,12.1 244,12.1 248,12.1 252,12.1 256,12.1 260,12.1 
		264,12.1 268,12.1 272,12.1 276,12.1 280,12.1 284,12.1 288,12.1 292,12.1 296,12.1 300,12.1 304,12.1 308,12.1 312,12.1 316,12.1 
		320,12.1 324,12.1 328,12.1 332,12.1 336,12.1 340,12.1 344,12.1 348,12.1 352,12.1 356,12.1 360,12.1 364,12.1 368,12.1 372,12.1 
		376,12.1 380,12.1 384,12.1 388,12.1 392,12.1 396,12.1 400,12.1 404,12.1 408,12.1 412,12.1 416,12.1 420,12.1 424,12.1 428,12.1 
		432,12.1 436,12.1 440,12.1 444,12.1 448,12.1 452,12.1 456,12.1 460,12.1 464,12.1 468,12.1 472,12.1 476,12.1 480,12.1 484,12.1 
		488,12.1 492,12.1 496,12.1 500,12.1 504,12.1 508,12.1 512,12.1 516,12.1 520,12.1 524,12.1 528,12.1 532,12.1 536,12.1 540,12.1 
		544,12.1 548,12.1 552,12.1 556,12.1 560,12.1 564,12.1 568,12.1 572,12.1 576,12.1 580,12.1 584,12.1 588,12.1 592,12.1 596,12.1 
		600,12.1 604,12.1 608,12.1 612,12.1 616,12.1 620,12.1 624,12.1 628,12.1 632,12.1 636,12.1 640,12.1 644,12.1 648,12.1 652,12.1 
		656,12.1 660,12.1 664,12.1 668,12.1 672,12.1 676,12.1 680,12.1 684,12.1 688,12.1 692,12.1 696,12.1 700,12.1 704,12.1 708,12.1 
		712,12.1 716,12.1 720,12.1 724,12.1 724,8.1 	"/>
	<polygon class="st12" points="12,12.1 12,16.1 12,20.1 16,20.1 16,16.1 20,16.1 20,12.1 16,12.1 	"/>
	<rect x="724" y="12.1" class="st12" width="4" height="4"/>
	<polygon class="st12" points="732,16.1 736,16.1 736,12.1 736,8.1 732,8.1 732,12.1 	"/>
	<polygon class="st12" points="8,24.1 8,28.1 8,32.1 8,36.1 8,40.1 8,44.1 8,48.1 8,52.1 8,56.1 8,60.1 8,64.1 8,68.1 8,72.1 
		8,76.1 8,80.1 8,84.1 8,88.1 8,92.1 8,96.1 8,100.1 8,104.1 8,108.1 8,112.1 8,116.1 8,120.1 8,124.1 8,128.1 8,132.1 8,136.1 
		8,140.1 8,144.1 8,148.1 8,152.1 8,156.1 8,160.1 8,164.1 8,168.1 8,172.1 8,176.1 8,180.1 8,184.1 8,188.1 8,192.1 8,196.1 
		8,200.1 8,204.1 8,208.1 8,212.1 8,216.1 8,220.1 8,224.1 8,228.1 8,232.1 8,236.1 8,240.1 8,244.1 8,248.1 8,252.1 8,256.1 
		8,260.1 8,264.1 8,268.1 8,272.1 8,276.1 8,280.1 8,284.1 8,288.1 8,292.1 8,296.1 8,300.1 8,304.1 8,308.1 8,312.1 8,316.1 
		8,320.1 8,324.1 8,328.1 8,332.1 8,336.1 8,340.1 8,344.1 8,348.1 8,352.1 8,356.1 8,360.1 8,364.1 8,368.1 8,372.1 8,376.1 
		8,380.1 8,384.1 8,388.1 8,392.1 8,396.1 8,400.1 8,404.1 8,408.1 8,412.1 8,416.1 8,420.1 8,424.1 8,428.1 8,432.1 8,436.1 
		8,440.1 8,444.1 8,448.1 8,452.1 12,452.1 12,448.1 12,444.1 12,440.1 12,436.1 12,432.1 12,428.1 12,424.1 12,420.1 12,416.1 
		12,412.1 12,408.1 12,404.1 12,400.1 12,396.1 12,392.1 12,388.1 12,384.1 12,380.1 12,376.1 12,372.1 12,368.1 12,364.1 12,360.1 
		12,356.1 12,352.1 12,348.1 12,344.1 12,340.1 12,336.1 12,332.1 12,328.1 12,324.1 12,320.1 12,316.1 12,312.1 12,308.1 12,304.1 
		12,300.1 12,296.1 12,292.1 12,288.1 12,284.1 12,280.1 12,276.1 12,272.1 12,268.1 12,264.1 12,260.1 12,256.1 12,252.1 12,248.1 
		12,244.1 12,240.1 12,236.1 12,232.1 12,228.1 12,224.1 12,220.1 12,216.1 12,212.1 12,208.1 12,204.1 12,200.1 12,196.1 12,192.1 
		12,188.1 12,184.1 12,180.1 12,176.1 12,172.1 12,168.1 12,164.1 12,160.1 12,156.1 12,152.1 12,148.1 12,144.1 12,140.1 12,136.1 
		12,132.1 12,128.1 12,124.1 12,120.1 12,116.1 12,112.1 12,108.1 12,104.1 12,100.1 12,96.1 12,92.1 12,88.1 12,84.1 12,80.1 
		12,76.1 12,72.1 12,68.1 12,64.1 12,60.1 12,56.1 12,52.1 12,48.1 12,44.1 12,40.1 12,36.1 12,32.1 12,28.1 12,24.1 12,20.1 
		8,20.1 	"/>
	<polygon class="st12" points="104,24.1 108,24.1 112,24.1 116,24.1 120,24.1 124,24.1 128,24.1 132,24.1 136,24.1 140,24.1 
		144,24.1 148,24.1 152,24.1 156,24.1 160,24.1 164,24.1 168,24.1 172,24.1 176,24.1 180,24.1 184,24.1 188,24.1 192,24.1 196,24.1 
		200,24.1 204,24.1 208,24.1 212,24.1 216,24.1 220,24.1 224,24.1 228,24.1 232,24.1 236,24.1 240,24.1 244,24.1 248,24.1 252,24.1 
		256,24.1 260,24.1 264,24.1 268,24.1 268,20.1 268,16.1 264,16.1 260,16.1 256,16.1 252,16.1 248,16.1 244,16.1 240,16.1 236,16.1 
		232,16.1 228,16.1 224,16.1 220,16.1 216,16.1 212,16.1 208,16.1 204,16.1 200,16.1 196,16.1 192,16.1 188,16.1 184,16.1 180,16.1 
		176,16.1 172,16.1 168,16.1 164,16.1 160,16.1 156,16.1 152,16.1 148,16.1 144,16.1 140,16.1 136,16.1 132,16.1 128,16.1 124,16.1 
		120,16.1 116,16.1 112,16.1 108,16.1 104,16.1 100,16.1 96,16.1 92,16.1 88,16.1 84,16.1 80,16.1 76,16.1 72,16.1 68,16.1 64,16.1 
		60,16.1 56,16.1 52,16.1 48,16.1 44,16.1 40,16.1 36,16.1 32,16.1 28,16.1 24,16.1 24,20.1 20,20.1 20,24.1 16,24.1 16,28.1 
		16,32.1 16,36.1 16,40.1 16,44.1 16,48.1 16,52.1 16,56.1 16,60.1 16,64.1 16,68.1 16,72.1 16,76.1 16,80.1 16,84.1 16,88.1 
		16,92.1 16,96.1 16,100.1 16,104.1 16,108.1 16,112.1 16,116.1 16,120.1 16,124.1 16,128.1 16,132.1 16,136.1 16,140.1 16,144.1 
		16,148.1 16,152.1 16,156.1 16,160.1 16,164.1 16,168.1 16,172.1 16,176.1 16,180.1 16,184.1 16,188.1 16,192.1 16,196.1 16,200.1 
		16,204.1 16,208.1 16,212.1 16,216.1 16,220.1 16,224.1 16,228.1 16,232.1 16,236.1 16,240.1 16,244.1 16,248.1 16,252.1 16,256.1 
		16,260.1 16,264.1 16,268.1 16,272.1 16,276.1 16,280.1 16,284.1 16,288.1 16,292.1 16,296.1 16,300.1 16,304.1 16,308.1 16,312.1 
		16,316.1 16,320.1 16,324.1 16,328.1 16,332.1 16,336.1 16,340.1 16,344.1 16,348.1 16,352.1 16,356.1 16,360.1 16,364.1 16,368.1 
		20,368.1 24,368.1 24,364.1 24,360.1 24,356.1 24,352.1 24,348.1 24,344.1 24,340.1 24,336.1 24,332.1 24,328.1 24,324.1 24,320.1 
		24,316.1 24,312.1 24,308.1 24,304.1 24,300.1 24,296.1 24,292.1 24,288.1 24,284.1 24,280.1 24,276.1 24,272.1 24,268.1 24,264.1 
		24,260.1 24,256.1 24,252.1 24,248.1 24,244.1 24,240.1 24,236.1 24,232.1 24,228.1 24,224.1 24,220.1 24,216.1 24,212.1 24,208.1 
		24,204.1 24,200.1 24,196.1 24,192.1 24,188.1 24,184.1 24,180.1 24,176.1 24,172.1 24,168.1 24,164.1 24,160.1 24,156.1 24,152.1 
		24,148.1 24,144.1 24,140.1 24,136.1 24,132.1 24,128.1 24,124.1 24,120.1 24,116.1 24,112.1 24,108.1 24,104.1 24,100.1 24,96.1 
		24,92.1 24,88.1 24,84.1 24,80.1 24,76.1 24,72.1 24,68.1 24,64.1 24,60.1 24,56.1 24,52.1 24,48.1 24,44.1 24,40.1 24,36.1 
		24,32.1 28,32.1 28,28.1 32,28.1 32,24.1 36,24.1 40,24.1 44,24.1 48,24.1 52,24.1 56,24.1 60,24.1 64,24.1 68,24.1 72,24.1 
		76,24.1 80,24.1 84,24.1 88,24.1 92,24.1 96,24.1 100,24.1 	"/>
	<polygon class="st12" points="740,36.1 740,32.1 736,32.1 736,36.1 736,40.1 736,44.1 736,48.1 736,52.1 736,56.1 736,60.1 
		740,60.1 740,64.1 744,64.1 744,60.1 744,56.1 744,52.1 744,48.1 744,44.1 744,40.1 744,36.1 	"/>
	<polygon class="st12" points="740,140.1 736,140.1 736,144.1 736,148.1 736,152.1 736,156.1 736,160.1 736,164.1 736,168.1 
		736,172.1 736,176.1 736,180.1 736,184.1 736,188.1 736,192.1 736,196.1 736,200.1 736,204.1 736,208.1 736,212.1 736,216.1 
		736,220.1 736,224.1 736,228.1 736,232.1 736,236.1 736,240.1 736,244.1 736,248.1 736,252.1 736,256.1 736,260.1 736,264.1 
		736,268.1 736,272.1 736,276.1 736,280.1 736,284.1 736,288.1 736,292.1 736,296.1 736,300.1 736,304.1 736,308.1 736,312.1 
		736,316.1 736,320.1 736,324.1 736,328.1 736,332.1 736,336.1 736,340.1 736,344.1 736,348.1 736,352.1 736,356.1 736,360.1 
		740,360.1 740,364.1 744,364.1 744,360.1 744,356.1 744,352.1 744,348.1 744,344.1 744,340.1 744,336.1 744,332.1 744,328.1 
		744,324.1 744,320.1 744,316.1 744,312.1 744,308.1 744,304.1 744,300.1 744,296.1 744,292.1 744,288.1 744,284.1 744,280.1 
		744,276.1 744,272.1 744,268.1 744,264.1 744,260.1 744,256.1 744,252.1 744,248.1 744,244.1 744,240.1 744,236.1 744,232.1 
		744,228.1 744,224.1 744,220.1 744,216.1 744,212.1 744,208.1 744,204.1 744,200.1 744,196.1 744,192.1 744,188.1 744,184.1 
		744,180.1 744,176.1 744,172.1 744,168.1 744,164.1 744,160.1 744,156.1 744,152.1 744,148.1 744,144.1 740,144.1 	"/>
	<rect x="688" y="424.1" class="st12" width="4" height="4"/>
	<rect x="684" y="428.1" class="st12" width="4" height="4"/>
	<polygon class="st12" points="740,428.1 736,428.1 736,432.1 736,436.1 740,436.1 740,440.1 744,440.1 744,436.1 744,432.1 
		740,432.1 	"/>
	<rect x="680" y="432.1" class="st12" width="4" height="4"/>
	<polygon class="st12" points="8,452.1 4,452.1 4,456.1 4,460.1 8,460.1 8,456.1 	"/>
	<polygon class="st12" points="12,460.1 16,460.1 20,460.1 24,460.1 24,456.1 20,456.1 16,456.1 16,452.1 12,452.1 12,456.1 	"/>
	<rect x="8" y="460.1" class="st12" width="4" height="4"/>
	<polygon class="st12" points="16,468.1 20,468.1 20,464.1 16,464.1 12,464.1 12,468.1 	"/>
	<polygon class="st12" points="24,472.1 28,472.1 28,476.1 32,476.1 36,476.1 40,476.1 44,476.1 48,476.1 48,472.1 44,472.1 
		44,468.1 40,468.1 36,468.1 32,468.1 28,468.1 24,468.1 20,468.1 20,472.1 	"/>
	<polygon class="st12" points="704,468.1 700,468.1 696,468.1 692,468.1 688,468.1 684,468.1 680,468.1 676,468.1 672,468.1 
		668,468.1 664,468.1 660,468.1 656,468.1 652,468.1 648,468.1 644,468.1 640,468.1 636,468.1 632,468.1 628,468.1 624,468.1 
		620,468.1 616,468.1 612,468.1 608,468.1 604,468.1 600,468.1 596,468.1 592,468.1 588,468.1 584,468.1 580,468.1 576,468.1 
		572,468.1 568,468.1 564,468.1 560,468.1 556,468.1 552,468.1 548,468.1 544,468.1 540,468.1 536,468.1 532,468.1 528,468.1 
		524,468.1 520,468.1 516,468.1 512,468.1 508,468.1 504,468.1 500,468.1 496,468.1 492,468.1 488,468.1 484,468.1 480,468.1 
		476,468.1 472,468.1 468,468.1 464,468.1 460,468.1 456,468.1 452,468.1 448,468.1 444,468.1 440,468.1 436,468.1 432,468.1 
		428,468.1 424,468.1 420,468.1 416,468.1 412,468.1 408,468.1 404,468.1 400,468.1 396,468.1 392,468.1 388,468.1 384,468.1 
		380,468.1 376,468.1 372,468.1 368,468.1 364,468.1 360,468.1 356,468.1 352,468.1 348,468.1 344,468.1 340,468.1 336,468.1 
		332,468.1 328,468.1 324,468.1 320,468.1 316,468.1 312,468.1 308,468.1 304,468.1 300,468.1 296,468.1 292,468.1 288,468.1 
		284,468.1 280,468.1 276,468.1 272,468.1 268,468.1 264,468.1 260,468.1 256,468.1 252,468.1 248,468.1 244,468.1 240,468.1 
		236,468.1 232,468.1 228,468.1 224,468.1 220,468.1 216,468.1 212,468.1 208,468.1 204,468.1 200,468.1 196,468.1 192,468.1 
		188,468.1 184,468.1 180,468.1 176,468.1 172,468.1 168,468.1 164,468.1 160,468.1 156,468.1 152,468.1 148,468.1 144,468.1 
		140,468.1 136,468.1 132,468.1 128,468.1 124,468.1 120,468.1 116,468.1 112,468.1 108,468.1 104,468.1 100,468.1 100,472.1 
		104,472.1 104,476.1 108,476.1 112,476.1 116,476.1 120,476.1 124,476.1 128,476.1 132,476.1 136,476.1 140,476.1 144,476.1 
		148,476.1 152,476.1 156,476.1 160,476.1 164,476.1 168,476.1 172,476.1 176,476.1 180,476.1 184,476.1 188,476.1 192,476.1 
		196,476.1 200,476.1 204,476.1 208,476.1 212,476.1 216,476.1 220,476.1 224,476.1 228,476.1 232,476.1 236,476.1 240,476.1 
		244,476.1 248,476.1 252,476.1 256,476.1 260,476.1 264,476.1 268,476.1 272,476.1 276,476.1 280,476.1 284,476.1 288,476.1 
		292,476.1 296,476.1 300,476.1 304,476.1 308,476.1 312,476.1 316,476.1 320,476.1 324,476.1 328,476.1 332,476.1 336,476.1 
		340,476.1 344,476.1 348,476.1 352,476.1 356,476.1 360,476.1 364,476.1 368,476.1 372,476.1 376,476.1 380,476.1 384,476.1 
		388,476.1 392,476.1 396,476.1 400,476.1 404,476.1 408,476.1 412,476.1 416,476.1 420,476.1 424,476.1 428,476.1 432,476.1 
		436,476.1 440,476.1 444,476.1 448,476.1 452,476.1 456,476.1 460,476.1 464,476.1 468,476.1 472,476.1 476,476.1 480,476.1 
		484,476.1 488,476.1 492,476.1 496,476.1 500,476.1 504,476.1 508,476.1 512,476.1 516,476.1 520,476.1 524,476.1 528,476.1 
		532,476.1 536,476.1 540,476.1 544,476.1 548,476.1 552,476.1 556,476.1 560,476.1 564,476.1 568,476.1 572,476.1 576,476.1 
		580,476.1 584,476.1 588,476.1 592,476.1 596,476.1 600,476.1 604,476.1 608,476.1 612,476.1 616,476.1 620,476.1 624,476.1 
		628,476.1 632,476.1 636,476.1 640,476.1 644,476.1 648,476.1 652,476.1 656,476.1 660,476.1 664,476.1 668,476.1 672,476.1 
		676,476.1 680,476.1 684,476.1 688,476.1 692,476.1 696,476.1 700,476.1 704,476.1 708,476.1 708,472.1 704,472.1 	"/>
</g>
<g>
	<polygon class="st13" points="740,20.1 740,16.1 740,12.1 736,12.1 736,16.1 736,20.1 736,24.1 736,28.1 736,32.1 740,32.1 
		740,36.1 744,36.1 744,32.1 744,28.1 744,24.1 744,20.1 	"/>
	<polygon class="st13" points="740,60.1 736,60.1 736,64.1 736,68.1 736,72.1 736,76.1 736,80.1 736,84.1 736,88.1 736,92.1 
		736,96.1 736,100.1 736,104.1 736,108.1 736,112.1 736,116.1 736,120.1 736,124.1 736,128.1 736,132.1 736,136.1 736,140.1 
		740,140.1 740,144.1 744,144.1 744,140.1 744,136.1 744,132.1 744,128.1 744,124.1 744,120.1 744,116.1 744,112.1 744,108.1 
		744,104.1 744,100.1 744,96.1 744,92.1 744,88.1 744,84.1 744,80.1 744,76.1 744,72.1 744,68.1 744,64.1 740,64.1 	"/>
	<polygon class="st13" points="740,360.1 736,360.1 736,364.1 736,368.1 736,372.1 736,376.1 736,380.1 736,384.1 736,388.1 
		736,392.1 736,396.1 736,400.1 736,404.1 736,408.1 736,412.1 736,416.1 736,420.1 736,424.1 736,428.1 740,428.1 740,432.1 
		744,432.1 744,428.1 744,424.1 744,420.1 744,416.1 744,412.1 744,408.1 744,404.1 744,400.1 744,396.1 744,392.1 744,388.1 
		744,384.1 744,380.1 744,376.1 744,372.1 744,368.1 744,364.1 740,364.1 	"/>
	<polygon class="st13" points="660,432.1 656,432.1 652,432.1 652,436.1 656,436.1 660,436.1 664,436.1 668,436.1 668,432.1 
		664,432.1 	"/>
	<polygon class="st13" points="740,436.1 736,436.1 736,440.1 736,444.1 736,448.1 732,448.1 732,452.1 732,456.1 728,456.1 
		728,460.1 724,460.1 724,464.1 720,464.1 716,464.1 716,468.1 712,468.1 708,468.1 704,468.1 704,472.1 708,472.1 708,476.1 
		712,476.1 716,476.1 720,476.1 720,472.1 724,472.1 728,472.1 728,468.1 732,468.1 732,464.1 736,464.1 736,460.1 740,460.1 
		740,456.1 740,452.1 740,448.1 744,448.1 744,444.1 744,440.1 740,440.1 	"/>
	<polygon class="st13" points="100,468.1 96,468.1 92,468.1 88,468.1 84,468.1 80,468.1 76,468.1 72,468.1 68,468.1 64,468.1 
		60,468.1 56,468.1 52,468.1 48,468.1 44,468.1 44,472.1 48,472.1 48,476.1 52,476.1 56,476.1 60,476.1 64,476.1 68,476.1 72,476.1 
		76,476.1 80,476.1 84,476.1 88,476.1 92,476.1 96,476.1 100,476.1 104,476.1 104,472.1 100,472.1 	"/>
</g>
<polygon class="st14" points="724,28.1 724,24.1 720,24.1 716,24.1 712,24.1 708,24.1 704,24.1 700,24.1 696,24.1 692,24.1 
	688,24.1 684,24.1 680,24.1 676,24.1 672,24.1 668,24.1 664,24.1 660,24.1 656,24.1 652,24.1 648,24.1 644,24.1 640,24.1 636,24.1 
	632,24.1 628,24.1 624,24.1 620,24.1 616,24.1 612,24.1 608,24.1 604,24.1 600,24.1 596,24.1 592,24.1 588,24.1 584,24.1 580,24.1 
	576,24.1 572,24.1 568,24.1 564,24.1 560,24.1 556,24.1 552,24.1 548,24.1 544,24.1 540,24.1 536,24.1 532,24.1 528,24.1 524,24.1 
	520,24.1 516,24.1 512,24.1 508,24.1 504,24.1 500,24.1 496,24.1 492,24.1 488,24.1 484,24.1 480,24.1 476,24.1 472,24.1 468,24.1 
	464,24.1 460,24.1 456,24.1 452,24.1 448,24.1 444,24.1 440,24.1 436,24.1 432,24.1 428,24.1 424,24.1 420,24.1 416,24.1 412,24.1 
	408,24.1 404,24.1 400,24.1 396,24.1 392,24.1 388,24.1 384,24.1 380,24.1 376,24.1 372,24.1 368,24.1 364,24.1 360,24.1 356,24.1 
	352,24.1 348,24.1 344,24.1 340,24.1 336,24.1 332,24.1 328,24.1 324,24.1 320,24.1 316,24.1 312,24.1 308,24.1 304,24.1 300,24.1 
	296,24.1 292,24.1 288,24.1 284,24.1 280,24.1 276,24.1 272,24.1 272,28.1 272,32.1 276,32.1 276,36.1 276,40.1 280,40.1 280,44.1 
	280,48.1 284,48.1 284,52.1 284,56.1 288,56.1 288,60.1 288,64.1 292,64.1 292,68.1 292,72.1 296,72.1 296,76.1 296,80.1 296,84.1 
	300,84.1 300,88.1 300,92.1 304,92.1 304,96.1 304,100.1 308,100.1 308,104.1 308,108.1 312,108.1 312,112.1 312,116.1 316,116.1 
	316,120.1 316,124.1 320,124.1 320,128.1 320,132.1 324,132.1 324,136.1 324,140.1 328,140.1 328,144.1 328,148.1 332,148.1 
	332,152.1 332,156.1 332,160.1 336,160.1 336,164.1 336,168.1 340,168.1 340,172.1 340,180.1 344,180.1 344,184.1 344.1,190.1 
	348.1,190.1 348.1,194.1 348.1,198.1 352.1,198.1 352.1,202.1 352.1,206.1 356.1,206.1 356.1,210.1 356.1,214.1 360.1,214.1 
	360.1,218.1 360.1,222.1 364.1,222.1 364.1,226.1 364.1,230.1 368.1,230.1 368.1,234.1 368.1,238.1 368.1,242.1 372.1,242.1 
	372.1,246.1 372.1,250.1 376.1,250.1 376.1,254.1 376.1,258.1 380.1,258.1 380,268.1 384,268.1 384,272.1 384,276.1 388,276.1 
	388,280.1 388,284.1 392,284.1 392,288.1 392,292.1 396,292.1 396,296.1 396,300.1 400,300.1 400,304.1 400,308.1 404,308.1 
	404,312.1 404,316.1 404,320.1 408,320.1 408,324.1 408,328.1 412,328.1 412,332.1 412,336.1 416,336.1 416,340.1 416,344.1 
	420,344.1 420,348.1 420,352.1 424,352.1 424,356.1 424,360.1 424,364.1 428,364.1 428,368.1 432,368.1 436,368.1 440,368.1 
	444,368.1 448,368.1 452,368.1 456,368.1 460,368.1 464,368.1 468,368.1 472,368.1 476,368.1 480,368.1 484,368.1 488,368.1 
	492,368.1 496,368.1 500,368.1 504,368.1 508,368.1 512,368.1 516,368.1 520,368.1 524,368.1 528,368.1 532,368.1 536,368.1 
	540,368.1 544,368.1 548,368.1 552,368.1 556,368.1 560,368.1 564,368.1 568,368.1 572,368.1 576,368.1 580,368.1 584,368.1 
	588,368.1 592,368.1 596,368.1 600,368.1 604,368.1 608,368.1 612,368.1 616,368.1 620,368.1 624,368.1 628,368.1 632,368.1 
	636,368.1 640,368.1 644,368.1 648,368.1 652,368.1 656,368.1 660,368.1 664,368.1 668,368.1 672,368.1 676,368.1 680,368.1 
	684,368.1 688,368.1 692,368.1 696,368.1 700,368.1 704,368.1 708,368.1 712,368.1 716,368.1 720,368.1 724,368.1 728,368.1 
	728,364.1 728,360.1 728,356.1 728,352.1 728,348.1 728,344.1 728,340.1 728,336.1 728,332.1 728,328.1 728,324.1 728,320.1 
	728,316.1 728,312.1 728,308.1 728,304.1 728,300.1 728,296.1 728,292.1 728,288.1 728,284.1 728,280.1 728,276.1 728,272.1 
	728,268.1 728,264.1 728,260.1 728,256.1 728,252.1 728,248.1 728,244.1 728,240.1 728,236.1 728,232.1 728,228.1 728,224.1 
	728,220.1 728,216.1 728,212.1 728,208.1 728,204.1 728,200.1 728,196.1 728,192.1 728,188.1 728,184.1 728,180.1 728,176.1 
	728,172.1 728,168.1 728,164.1 728,160.1 728,156.1 728,152.1 728,148.1 728,144.1 728,140.1 728,136.1 728,132.1 728,128.1 
	728,124.1 728,120.1 728,116.1 728,112.1 728,108.1 728,104.1 728,100.1 728,96.1 728,92.1 728,88.1 728,84.1 728,80.1 728,76.1 
	728,72.1 728,68.1 728,64.1 728,60.1 728,56.1 728,52.1 728,48.1 728,44.1 728,40.1 728,36.1 728,32.1 728,28.1 "/>
</svg>
