<?xml version="1.0" encoding="utf-8"?>
<!-- Generator: Adobe Illustrator 24.2.0, SVG Export Plug-In . SVG Version: 6.00 Build 0)  -->
<svg version="1.1" id="圖層_1" shape-rendering="crispEdges"
	 xmlns="http://www.w3.org/2000/svg" xmlns:xlink="http://www.w3.org/1999/xlink" x="0px" y="0px" viewBox="0 0 372 12"
	 style="enable-background:new 0 0 372 12;" xml:space="preserve">
<style type="text/css">
	.st0{fill:#FFD40E;}
</style>
<polygon class="st0" points="368,0 364,0 360,0 356,0 352,0 348,0 344,0 340,0 336,0 332,0 328,0 324,0 320,0 316,0 312,0 308,0 
	304,0 300,0 296,0 292,0 288,0 284,0 280,0 276,0 272,0 268,0 264,0 260,0 256,0 252,0 248,0 244,0 240,0 236,0 232,0 228,0 224,0 
	220,0 216,0 212,0 208,0 204,0 200,0 196,0 192,0 188,0 184,0 180,0 176,0 172,0 168,0 164,0 160,0 156,0 152,0 148,0 144,0 140,0 
	136,0 132,0 128,0 124,0 120,0 116,0 112,0 108,0 104,0 100,0 96,0 92,0 88,0 84,0 80,0 76,0 72,0 68,0 64,0 60,0 56,0 52,0 48,0 
	44,0 40,0 36,0 32,0 28,0 24,0 20,0 16,0 12,0 8,0 4,0 4,4 0,4 0,8 4,8 4,12 8,12 12,12 16,12 20,12 24,12 28,12 32,12 36,12 40,12 
	44,12 48,12 52,12 56,12 60,12 64,12 68,12 72,12 76,12 80,12 84,12 88,12 92,12 96,12 100,12 104,12 108,12 112,12 116,12 120,12 
	124,12 128,12 132,12 136,12 140,12 144,12 148,12 152,12 156,12 160,12 164,12 168,12 172,12 176,12 180,12 184,12 188,12 192,12 
	196,12 200,12 204,12 208,12 212,12 216,12 220,12 224,12 228,12 232,12 236,12 240,12 244,12 248,12 252,12 256,12 260,12 264,12 
	268,12 272,12 276,12 280,12 284,12 288,12 292,12 296,12 300,12 304,12 308,12 312,12 316,12 320,12 324,12 328,12 332,12 336,12 
	340,12 344,12 348,12 352,12 356,12 360,12 364,12 368,12 368,8 372,8 372,4 368,4 "/>
</svg>
