<?xml version="1.0" encoding="utf-8"?>
<!-- Generator: Adobe Illustrator 24.2.0, SVG Export Plug-In . SVG Version: 6.00 Build 0)  -->
<svg version="1.1" id="圖層_1" shape-rendering="crispEdges"
	 xmlns="http://www.w3.org/2000/svg" xmlns:xlink="http://www.w3.org/1999/xlink" x="0px" y="0px" viewBox="0 0 384 24"
	 style="enable-background:new 0 0 384 24;" xml:space="preserve">
<style type="text/css">
	.st0{fill:#4C85AD;}
	.st1{fill:#062A43;}
	.st2{fill:#103A57;}
	.st3{fill:#366F96;}
	.st4{fill:#124365;}
	.st5{fill:#0A334F;}
</style>
<rect x="20" class="st0" width="4" height="4"/>
<rect x="24" class="st0" width="4" height="4"/>
<rect x="28" class="st0" width="4" height="4"/>
<rect x="36" class="st0" width="4" height="4"/>
<rect x="108" class="st0" width="4" height="4"/>
<rect x="112" class="st0" width="4" height="4"/>
<rect x="116" class="st0" width="4" height="4"/>
<rect x="120" class="st0" width="4" height="4"/>
<rect x="124" class="st0" width="4" height="4"/>
<rect x="128" class="st0" width="4" height="4"/>
<rect x="132" class="st0" width="4" height="4"/>
<rect x="136" class="st0" width="4" height="4"/>
<rect x="140" class="st0" width="4" height="4"/>
<rect x="144" class="st0" width="4" height="4"/>
<rect x="148" class="st0" width="4" height="4"/>
<rect x="152" class="st0" width="4" height="4"/>
<rect x="156" class="st0" width="4" height="4"/>
<rect x="160" class="st0" width="4" height="4"/>
<rect x="164" class="st0" width="4" height="4"/>
<rect x="168" class="st0" width="4" height="4"/>
<rect x="172" class="st0" width="4" height="4"/>
<rect x="176" class="st0" width="4" height="4"/>
<rect x="180" class="st0" width="4" height="4"/>
<rect x="184" class="st0" width="4" height="4"/>
<rect x="188" class="st0" width="4" height="4"/>
<rect x="192" class="st0" width="4" height="4"/>
<rect x="196" class="st0" width="4" height="4"/>
<rect x="200" class="st0" width="4" height="4"/>
<rect x="204" class="st0" width="4" height="4"/>
<rect x="208" class="st0" width="4" height="4"/>
<rect x="212" class="st0" width="4" height="4"/>
<rect x="216" class="st0" width="4" height="4"/>
<rect x="220" class="st0" width="4" height="4"/>
<rect x="224" class="st0" width="4" height="4"/>
<rect x="228" class="st0" width="4" height="4"/>
<rect x="232" class="st0" width="4" height="4"/>
<rect x="236" class="st0" width="4" height="4"/>
<rect x="240" class="st0" width="4" height="4"/>
<rect x="244" class="st0" width="4" height="4"/>
<rect x="248" class="st0" width="4" height="4"/>
<rect x="252" class="st0" width="4" height="4"/>
<rect x="256" class="st0" width="4" height="4"/>
<rect x="260" class="st0" width="4" height="4"/>
<rect x="264" class="st0" width="4" height="4"/>
<rect x="268" class="st0" width="4" height="4"/>
<rect x="272" class="st0" width="4" height="4"/>
<rect x="276" class="st0" width="4" height="4"/>
<rect x="280" class="st0" width="4" height="4"/>
<rect x="284" class="st0" width="4" height="4"/>
<rect x="288" class="st0" width="4" height="4"/>
<rect x="292" class="st0" width="4" height="4"/>
<rect x="296" class="st0" width="4" height="4"/>
<rect x="300" class="st0" width="4" height="4"/>
<rect x="304" class="st0" width="4" height="4"/>
<rect x="308" class="st0" width="4" height="4"/>
<rect x="312" class="st0" width="4" height="4"/>
<rect x="316" class="st0" width="4" height="4"/>
<rect x="320" class="st0" width="4" height="4"/>
<rect x="324" class="st0" width="4" height="4"/>
<rect x="328" class="st0" width="4" height="4"/>
<rect x="332" class="st0" width="4" height="4"/>
<rect x="336" class="st0" width="4" height="4"/>
<rect x="340" class="st0" width="4" height="4"/>
<rect x="344" class="st0" width="4" height="4"/>
<rect x="348" class="st0" width="4" height="4"/>
<rect x="352" class="st0" width="4" height="4"/>
<rect x="4" y="12" class="st0" width="4" height="4"/>
<polygon class="st1" points="372,4 368,4 364,4 360,4 356,4 352,4 348,4 344,4 340,4 336,4 332,4 328,4 324,4 320,4 316,4 312,4 
	308,4 304,4 300,4 296,4 292,4 288,4 284,4 280,4 276,4 272,4 268,4 264,4 260,4 256,4 252,4 248,4 244,4 240,4 236,4 232,4 228,4 
	224,4 220,4 216,4 212,4 208,4 204,4 200,4 196,4 192,4 188,4 184,4 180,4 176,4 172,4 168,4 164,4 160,4 156,4 152,4 148,4 144,4 
	140,4 136,4 132,4 128,4 124,4 120,4 116,4 112,4 108,4 104,4 100,4 96,4 92,4 88,4 84,4 80,4 76,4 72,4 68,4 64,4 60,4 56,4 52,4 
	48,4 44,4 40,4 36,4 32,4 28,4 24,4 20,4 16,4 12,4 8,4 8,8 4,8 4,12 8,12 8,16 12,16 16,16 16,12 20,12 20,8 24,8 28,8 32,8 36,8 
	40,8 44,8 48,8 52,8 56,8 60,8 64,8 68,8 72,8 76,8 80,8 84,8 88,8 92,8 96,8 100,8 104,8 108,8 112,8 116,8 120,8 124,8 128,8 
	132,8 136,8 140,8 144,8 148,8 152,8 156,8 160,8 164,8 168,8 172,8 176,8 180,8 184,8 188,8 192,8 196,8 200,8 204,8 208,8 212,8 
	216,8 220,8 224,8 228,8 232,8 236,8 240,8 244,8 248,8 252,8 256,8 260,8 264,8 268,8 272,8 276,8 280,8 284,8 288,8 292,8 296,8 
	300,8 304,8 308,8 312,8 316,8 320,8 324,8 328,8 332,8 336,8 340,8 344,8 348,8 352,8 356,8 360,8 364,8 368,8 372,8 376,8 376,4 
	"/>
<polygon class="st2" points="376,8 372,8 368,8 364,8 360,8 356,8 352,8 348,8 344,8 340,8 336,8 332,8 328,8 324,8 320,8 316,8 
	312,8 308,8 304,8 300,8 296,8 292,8 288,8 284,8 280,8 276,8 272,8 268,8 264,8 260,8 256,8 252,8 248,8 244,8 240,8 236,8 232,8 
	228,8 224,8 220,8 216,8 212,8 208,8 204,8 200,8 196,8 192,8 188,8 184,8 180,8 176,8 172,8 168,8 164,8 160,8 156,8 152,8 148,8 
	144,8 140,8 136,8 132,8 128,8 124,8 120,8 116,8 112,8 108,8 104,8 100,8 96,8 92,8 88,8 84,8 80,8 76,8 72,8 68,8 64,8 60,8 56,8 
	52,8 48,8 44,8 40,8 36,8 32,8 28,8 24,8 20,8 20,12 16,12 16,16 20,16 24,16 28,16 32,16 36,16 40,16 44,16 48,16 52,16 56,16 
	60,16 64,16 68,16 72,16 76,16 80,16 84,16 88,16 92,16 96,16 100,16 104,16 108,16 112,16 116,16 120,16 124,16 128,16 132,16 
	136,16 140,16 144,16 148,16 152,16 156,16 160,16 164,16 168,16 172,16 176,16 180,16 184,16 188,16 192,16 196,16 200,16 204,16 
	208,16 212,16 216,16 220,16 224,16 228,16 232,16 236,16 240,16 244,16 248,16 252,16 256,16 260,16 264,16 268,16 272,16 276,16 
	280,16 284,16 288,16 292,16 296,16 300,16 304,16 308,16 312,16 316,16 320,16 324,16 328,16 332,16 336,16 340,16 344,16 348,16 
	352,16 356,16 360,16 364,16 368,16 372,16 376,16 376,12 380,12 380,8 "/>
<rect x="8" y="16" class="st0" width="4" height="4"/>
<rect x="28" y="16" class="st0" width="4" height="4"/>
<rect x="32" y="16" class="st0" width="4" height="4"/>
<rect x="36" y="16" class="st0" width="4" height="4"/>
<rect x="40" y="16" class="st0" width="4" height="4"/>
<rect x="44" y="16" class="st0" width="4" height="4"/>
<rect x="48" y="16" class="st0" width="4" height="4"/>
<rect x="52" y="16" class="st0" width="4" height="4"/>
<rect x="56" y="16" class="st0" width="4" height="4"/>
<rect x="60" y="16" class="st0" width="4" height="4"/>
<rect x="64" y="16" class="st0" width="4" height="4"/>
<rect x="196" y="16" class="st0" width="4" height="4"/>
<rect x="200" y="16" class="st0" width="4" height="4"/>
<rect x="204" y="16" class="st0" width="4" height="4"/>
<rect x="208" y="16" class="st0" width="4" height="4"/>
<rect x="212" y="16" class="st0" width="4" height="4"/>
<rect x="216" y="16" class="st0" width="4" height="4"/>
<rect x="220" y="16" class="st0" width="4" height="4"/>
<rect x="224" y="16" class="st0" width="4" height="4"/>
<rect x="228" y="16" class="st0" width="4" height="4"/>
<rect x="232" y="16" class="st0" width="4" height="4"/>
<rect x="236" y="16" class="st0" width="4" height="4"/>
<rect x="240" y="16" class="st0" width="4" height="4"/>
<rect x="244" y="16" class="st0" width="4" height="4"/>
<rect x="248" y="16" class="st0" width="4" height="4"/>
<rect x="252" y="16" class="st0" width="4" height="4"/>
<rect x="256" y="16" class="st0" width="4" height="4"/>
<rect x="260" y="16" class="st0" width="4" height="4"/>
<rect x="264" y="16" class="st0" width="4" height="4"/>
<rect x="268" y="16" class="st0" width="4" height="4"/>
<rect x="272" y="16" class="st0" width="4" height="4"/>
<rect x="276" y="16" class="st0" width="4" height="4"/>
<rect x="280" y="16" class="st0" width="4" height="4"/>
<rect x="284" y="16" class="st0" width="4" height="4"/>
<rect x="288" y="16" class="st0" width="4" height="4"/>
<rect x="292" y="16" class="st0" width="4" height="4"/>
<rect x="296" y="16" class="st0" width="4" height="4"/>
<rect x="300" y="16" class="st0" width="4" height="4"/>
<g>
	<polygon class="st3" points="16,4 20,4 20,0 16,0 12,0 8,0 8,4 12,4 	"/>
	<rect x="32" y="0" class="st3" width="4" height="4"/>
	<polygon class="st3" points="72,4 76,4 80,4 84,4 88,4 92,4 96,4 100,4 104,4 108,4 108,0 104,0 100,0 96,0 92,0 88,0 84,0 80,0 
		76,0 72,0 68,0 64,0 60,0 56,0 52,0 48,0 44,0 40,0 40,4 44,4 48,4 52,4 56,4 60,4 64,4 68,4 	"/>
	<polygon class="st3" points="372,0 368,0 364,0 360,0 356,0 356,4 360,4 364,4 368,4 372,4 376,4 376,0 	"/>
	<rect x="4" y="4" class="st3" width="4" height="4"/>
	<rect x="376" y="4" class="st3" width="4" height="4"/>
	<rect y="8" class="st3" width="4" height="4"/>
	<rect x="380" y="8" class="st3" width="4" height="4"/>
	<rect x="376" y="12" class="st3" width="4" height="4"/>
	<polygon class="st3" points="20,16 16,16 12,16 12,20 16,20 20,20 24,20 28,20 28,16 24,16 	"/>
	<polygon class="st3" points="188,16 184,16 180,16 176,16 172,16 168,16 164,16 160,16 156,16 152,16 148,16 144,16 140,16 136,16 
		132,16 128,16 124,16 120,16 116,16 112,16 108,16 104,16 100,16 96,16 92,16 88,16 84,16 80,16 76,16 72,16 68,16 68,20 72,20 
		76,20 80,20 84,20 88,20 92,20 96,20 100,20 104,20 108,20 112,20 116,20 120,20 124,20 128,20 132,20 136,20 140,20 144,20 
		148,20 152,20 156,20 160,20 164,20 168,20 172,20 176,20 180,20 184,20 188,20 192,20 196,20 196,16 192,16 	"/>
	<polygon class="st3" points="368,16 364,16 360,16 356,16 352,16 348,16 344,16 340,16 336,16 332,16 328,16 324,16 320,16 316,16 
		312,16 308,16 304,16 304,20 308,20 312,20 316,20 320,20 324,20 328,20 332,20 336,20 340,20 344,20 348,20 352,20 356,20 360,20 
		364,20 368,20 372,20 376,20 376,16 372,16 	"/>
</g>
<g>
	<polygon class="st4" points="24,20 20,20 16,20 16,24 20,24 24,24 28,24 32,24 32,20 28,20 	"/>
	<polygon class="st4" points="192,20 188,20 184,20 180,20 176,20 172,20 168,20 164,20 160,20 156,20 152,20 148,20 144,20 140,20 
		136,20 132,20 128,20 124,20 120,20 116,20 112,20 108,20 104,20 100,20 96,20 92,20 88,20 84,20 80,20 76,20 72,20 72,24 76,24 
		80,24 84,24 88,24 92,24 96,24 100,24 104,24 108,24 112,24 116,24 120,24 124,24 128,24 132,24 136,24 140,24 144,24 148,24 
		152,24 156,24 160,24 164,24 168,24 172,24 176,24 180,24 184,24 188,24 192,24 196,24 200,24 200,20 196,20 	"/>
	<polygon class="st4" points="352,20 348,20 344,20 340,20 336,20 332,20 328,20 324,20 320,20 316,20 312,20 308,20 308,24 312,24 
		316,24 320,24 324,24 328,24 332,24 336,24 340,24 344,24 348,24 352,24 356,24 356,20 	"/>
</g>
<g>
	<rect y="12" class="st5" width="4" height="4"/>
	<polygon class="st5" points="380,12 380,16 376,16 376,20 372,20 368,20 364,20 360,20 356,20 356,24 360,24 364,24 368,24 372,24 
		376,24 380,24 380,20 384,20 384,16 384,12 	"/>
	<rect x="4" y="16" class="st5" width="4" height="4"/>
	<polygon class="st5" points="8,20 8,24 12,24 16,24 16,20 12,20 	"/>
	<polygon class="st5" points="64,20 60,20 56,20 52,20 48,20 44,20 40,20 36,20 32,20 32,24 36,24 40,24 44,24 48,24 52,24 56,24 
		60,24 64,24 68,24 72,24 72,20 68,20 	"/>
	<polygon class="st5" points="300,20 296,20 292,20 288,20 284,20 280,20 276,20 272,20 268,20 264,20 260,20 256,20 252,20 248,20 
		244,20 240,20 236,20 232,20 228,20 224,20 220,20 216,20 212,20 208,20 204,20 200,20 200,24 204,24 208,24 212,24 216,24 220,24 
		224,24 228,24 232,24 236,24 240,24 244,24 248,24 252,24 256,24 260,24 264,24 268,24 272,24 276,24 280,24 284,24 288,24 292,24 
		296,24 300,24 304,24 308,24 308,20 304,20 	"/>
</g>
</svg>
