<?xml version="1.0" encoding="UTF-8" ?>
<svg version="1.1" width="68" height="64" xmlns="http://www.w3.org/2000/svg" shape-rendering="crispEdges">
<rect x="8" y="0" width="4" height="4" fill="#D2E0F0" />
<rect x="12" y="0" width="4" height="4" fill="#D2E0F0" />
<rect x="16" y="0" width="4" height="4" fill="#ABC0DA" />
<rect x="20" y="0" width="4" height="4" fill="#ABC0DA" />
<rect x="24" y="0" width="4" height="4" fill="#ABC0DA" />
<rect x="28" y="0" width="4" height="4" fill="#ABC0DA" />
<rect x="32" y="0" width="4" height="4" fill="#ABC0DA" />
<rect x="36" y="0" width="4" height="4" fill="#ABC0DA" />
<rect x="40" y="0" width="4" height="4" fill="#ABC0DA" />
<rect x="44" y="0" width="4" height="4" fill="#ABC0DA" />
<rect x="48" y="0" width="4" height="4" fill="#ABC0DA" />
<rect x="52" y="0" width="4" height="4" fill="#ABC0DA" />
<rect x="4" y="4" width="4" height="4" fill="#D2E0F0" />
<rect x="8" y="4" width="4" height="4" fill="#62768E" />
<rect x="12" y="4" width="4" height="4" fill="#62768E" />
<rect x="16" y="4" width="4" height="4" fill="#62768E" />
<rect x="20" y="4" width="4" height="4" fill="#62768E" />
<rect x="24" y="4" width="4" height="4" fill="#62768E" />
<rect x="28" y="4" width="4" height="4" fill="#62768E" />
<rect x="32" y="4" width="4" height="4" fill="#62768E" />
<rect x="36" y="4" width="4" height="4" fill="#62768E" />
<rect x="40" y="4" width="4" height="4" fill="#62768E" />
<rect x="44" y="4" width="4" height="4" fill="#62768E" />
<rect x="48" y="4" width="4" height="4" fill="#62768E" />
<rect x="52" y="4" width="4" height="4" fill="#62768E" />
<rect x="56" y="4" width="4" height="4" fill="#ABC0DA" />
<rect x="0" y="8" width="4" height="4" fill="#D2E0F0" />
<rect x="4" y="8" width="4" height="4" fill="#62768E" />
<rect x="8" y="8" width="4" height="4" fill="#758CA9" />
<rect x="12" y="8" width="4" height="4" fill="#758CA9" />
<rect x="16" y="8" width="4" height="4" fill="#758CA9" />
<rect x="20" y="8" width="4" height="4" fill="#758CA9" />
<rect x="24" y="8" width="4" height="4" fill="#758CA9" />
<rect x="28" y="8" width="4" height="4" fill="#758CA9" />
<rect x="32" y="8" width="4" height="4" fill="#758CA9" />
<rect x="36" y="8" width="4" height="4" fill="#758CA9" />
<rect x="40" y="8" width="4" height="4" fill="#758CA9" />
<rect x="44" y="8" width="4" height="4" fill="#758CA9" />
<rect x="48" y="8" width="4" height="4" fill="#758CA9" />
<rect x="52" y="8" width="4" height="4" fill="#758CA9" />
<rect x="56" y="8" width="4" height="4" fill="#62768E" />
<rect x="60" y="8" width="4" height="4" fill="#ABC0DA" />
<rect x="0" y="12" width="4" height="4" fill="#ABC0DA" />
<rect x="4" y="12" width="4" height="4" fill="#62768E" />
<rect x="8" y="12" width="4" height="4" fill="#758CA9" />
<rect x="12" y="12" width="4" height="4" fill="#2B3747" />
<rect x="16" y="12" width="4" height="4" fill="#2B3747" />
<rect x="20" y="12" width="4" height="4" fill="#2B3747" />
<rect x="24" y="12" width="4" height="4" fill="#2B3747" />
<rect x="28" y="12" width="4" height="4" fill="#2B3747" />
<rect x="32" y="12" width="4" height="4" fill="#2B3747" />
<rect x="36" y="12" width="4" height="4" fill="#758CA9" />
<rect x="40" y="12" width="4" height="4" fill="#758CA9" />
<rect x="44" y="12" width="4" height="4" fill="#758CA9" />
<rect x="48" y="12" width="4" height="4" fill="#758CA9" />
<rect x="52" y="12" width="4" height="4" fill="#758CA9" />
<rect x="56" y="12" width="4" height="4" fill="#758CA9" />
<rect x="60" y="12" width="4" height="4" fill="#ABC0DA" />
<rect x="64" y="12" width="4" height="4" fill="#45566D" />
<rect x="0" y="16" width="4" height="4" fill="#D2E0F0" />
<rect x="4" y="16" width="4" height="4" fill="#62768E" />
<rect x="8" y="16" width="4" height="4" fill="#758CA9" />
<rect x="12" y="16" width="4" height="4" fill="#758CA9" />
<rect x="16" y="16" width="4" height="4" fill="#758CA9" />
<rect x="20" y="16" width="4" height="4" fill="#758CA9" />
<rect x="24" y="16" width="4" height="4" fill="#758CA9" />
<rect x="28" y="16" width="4" height="4" fill="#2B3747" />
<rect x="32" y="16" width="4" height="4" fill="#758CA9" />
<rect x="36" y="16" width="4" height="4" fill="#758CA9" />
<rect x="40" y="16" width="4" height="4" fill="#758CA9" />
<rect x="44" y="16" width="4" height="4" fill="#758CA9" />
<rect x="48" y="16" width="4" height="4" fill="#758CA9" />
<rect x="52" y="16" width="4" height="4" fill="#758CA9" />
<rect x="56" y="16" width="4" height="4" fill="#758CA9" />
<rect x="60" y="16" width="4" height="4" fill="#ABC0DA" />
<rect x="64" y="16" width="4" height="4" fill="#45566D" />
<rect x="0" y="20" width="4" height="4" fill="#ABC0DA" />
<rect x="4" y="20" width="4" height="4" fill="#62768E" />
<rect x="8" y="20" width="4" height="4" fill="#758CA9" />
<rect x="12" y="20" width="4" height="4" fill="#758CA9" />
<rect x="16" y="20" width="4" height="4" fill="#758CA9" />
<rect x="20" y="20" width="4" height="4" fill="#758CA9" />
<rect x="24" y="20" width="4" height="4" fill="#758CA9" />
<rect x="28" y="20" width="4" height="4" fill="#2B3747" />
<rect x="32" y="20" width="4" height="4" fill="#758CA9" />
<rect x="36" y="20" width="4" height="4" fill="#758CA9" />
<rect x="40" y="20" width="4" height="4" fill="#758CA9" />
<rect x="44" y="20" width="4" height="4" fill="#758CA9" />
<rect x="48" y="20" width="4" height="4" fill="#758CA9" />
<rect x="52" y="20" width="4" height="4" fill="#758CA9" />
<rect x="56" y="20" width="4" height="4" fill="#758CA9" />
<rect x="60" y="20" width="4" height="4" fill="#ABC0DA" />
<rect x="64" y="20" width="4" height="4" fill="#45566D" />
<rect x="0" y="24" width="4" height="4" fill="#ABC0DA" />
<rect x="4" y="24" width="4" height="4" fill="#62768E" />
<rect x="8" y="24" width="4" height="4" fill="#758CA9" />
<rect x="12" y="24" width="4" height="4" fill="#758CA9" />
<rect x="16" y="24" width="4" height="4" fill="#758CA9" />
<rect x="20" y="24" width="4" height="4" fill="#758CA9" />
<rect x="24" y="24" width="4" height="4" fill="#2B3747" />
<rect x="28" y="24" width="4" height="4" fill="#758CA9" />
<rect x="32" y="24" width="4" height="4" fill="#758CA9" />
<rect x="36" y="24" width="4" height="4" fill="#2B3747" />
<rect x="40" y="24" width="4" height="4" fill="#2B3747" />
<rect x="44" y="24" width="4" height="4" fill="#2B3747" />
<rect x="48" y="24" width="4" height="4" fill="#758CA9" />
<rect x="52" y="24" width="4" height="4" fill="#758CA9" />
<rect x="56" y="24" width="4" height="4" fill="#758CA9" />
<rect x="60" y="24" width="4" height="4" fill="#ABC0DA" />
<rect x="64" y="24" width="4" height="4" fill="#45566D" />
<rect x="0" y="28" width="4" height="4" fill="#ABC0DA" />
<rect x="4" y="28" width="4" height="4" fill="#62768E" />
<rect x="8" y="28" width="4" height="4" fill="#758CA9" />
<rect x="12" y="28" width="4" height="4" fill="#758CA9" />
<rect x="16" y="28" width="4" height="4" fill="#758CA9" />
<rect x="20" y="28" width="4" height="4" fill="#2B3747" />
<rect x="24" y="28" width="4" height="4" fill="#758CA9" />
<rect x="28" y="28" width="4" height="4" fill="#758CA9" />
<rect x="32" y="28" width="4" height="4" fill="#758CA9" />
<rect x="36" y="28" width="4" height="4" fill="#2B3747" />
<rect x="40" y="28" width="4" height="4" fill="#758CA9" />
<rect x="44" y="28" width="4" height="4" fill="#758CA9" />
<rect x="48" y="28" width="4" height="4" fill="#2B3747" />
<rect x="52" y="28" width="4" height="4" fill="#758CA9" />
<rect x="56" y="28" width="4" height="4" fill="#758CA9" />
<rect x="60" y="28" width="4" height="4" fill="#ABC0DA" />
<rect x="64" y="28" width="4" height="4" fill="#45566D" />
<rect x="0" y="32" width="4" height="4" fill="#ABC0DA" />
<rect x="4" y="32" width="4" height="4" fill="#62768E" />
<rect x="8" y="32" width="4" height="4" fill="#758CA9" />
<rect x="12" y="32" width="4" height="4" fill="#758CA9" />
<rect x="16" y="32" width="4" height="4" fill="#2B3747" />
<rect x="20" y="32" width="4" height="4" fill="#758CA9" />
<rect x="24" y="32" width="4" height="4" fill="#758CA9" />
<rect x="28" y="32" width="4" height="4" fill="#758CA9" />
<rect x="32" y="32" width="4" height="4" fill="#758CA9" />
<rect x="36" y="32" width="4" height="4" fill="#2B3747" />
<rect x="40" y="32" width="4" height="4" fill="#758CA9" />
<rect x="44" y="32" width="4" height="4" fill="#758CA9" />
<rect x="48" y="32" width="4" height="4" fill="#2B3747" />
<rect x="52" y="32" width="4" height="4" fill="#758CA9" />
<rect x="56" y="32" width="4" height="4" fill="#758CA9" />
<rect x="60" y="32" width="4" height="4" fill="#ABC0DA" />
<rect x="64" y="32" width="4" height="4" fill="#45566D" />
<rect x="0" y="36" width="4" height="4" fill="#ABC0DA" />
<rect x="4" y="36" width="4" height="4" fill="#62768E" />
<rect x="8" y="36" width="4" height="4" fill="#758CA9" />
<rect x="12" y="36" width="4" height="4" fill="#758CA9" />
<rect x="16" y="36" width="4" height="4" fill="#2B3747" />
<rect x="20" y="36" width="4" height="4" fill="#758CA9" />
<rect x="24" y="36" width="4" height="4" fill="#758CA9" />
<rect x="28" y="36" width="4" height="4" fill="#758CA9" />
<rect x="32" y="36" width="4" height="4" fill="#758CA9" />
<rect x="36" y="36" width="4" height="4" fill="#2B3747" />
<rect x="40" y="36" width="4" height="4" fill="#758CA9" />
<rect x="44" y="36" width="4" height="4" fill="#758CA9" />
<rect x="48" y="36" width="4" height="4" fill="#2B3747" />
<rect x="52" y="36" width="4" height="4" fill="#758CA9" />
<rect x="56" y="36" width="4" height="4" fill="#758CA9" />
<rect x="60" y="36" width="4" height="4" fill="#ABC0DA" />
<rect x="64" y="36" width="4" height="4" fill="#45566D" />
<rect x="0" y="40" width="4" height="4" fill="#ABC0DA" />
<rect x="4" y="40" width="4" height="4" fill="#62768E" />
<rect x="8" y="40" width="4" height="4" fill="#758CA9" />
<rect x="12" y="40" width="4" height="4" fill="#2B3747" />
<rect x="16" y="40" width="4" height="4" fill="#2B3747" />
<rect x="20" y="40" width="4" height="4" fill="#2B3747" />
<rect x="24" y="40" width="4" height="4" fill="#2B3747" />
<rect x="28" y="40" width="4" height="4" fill="#2B3747" />
<rect x="32" y="40" width="4" height="4" fill="#758CA9" />
<rect x="36" y="40" width="4" height="4" fill="#2B3747" />
<rect x="40" y="40" width="4" height="4" fill="#758CA9" />
<rect x="44" y="40" width="4" height="4" fill="#758CA9" />
<rect x="48" y="40" width="4" height="4" fill="#2B3747" />
<rect x="52" y="40" width="4" height="4" fill="#758CA9" />
<rect x="56" y="40" width="4" height="4" fill="#758CA9" />
<rect x="60" y="40" width="4" height="4" fill="#ABC0DA" />
<rect x="64" y="40" width="4" height="4" fill="#45566D" />
<rect x="0" y="44" width="4" height="4" fill="#ABC0DA" />
<rect x="4" y="44" width="4" height="4" fill="#62768E" />
<rect x="8" y="44" width="4" height="4" fill="#758CA9" />
<rect x="12" y="44" width="4" height="4" fill="#758CA9" />
<rect x="16" y="44" width="4" height="4" fill="#758CA9" />
<rect x="20" y="44" width="4" height="4" fill="#758CA9" />
<rect x="24" y="44" width="4" height="4" fill="#758CA9" />
<rect x="28" y="44" width="4" height="4" fill="#758CA9" />
<rect x="32" y="44" width="4" height="4" fill="#758CA9" />
<rect x="36" y="44" width="4" height="4" fill="#758CA9" />
<rect x="40" y="44" width="4" height="4" fill="#758CA9" />
<rect x="44" y="44" width="4" height="4" fill="#758CA9" />
<rect x="48" y="44" width="4" height="4" fill="#758CA9" />
<rect x="52" y="44" width="4" height="4" fill="#758CA9" />
<rect x="56" y="44" width="4" height="4" fill="#758CA9" />
<rect x="60" y="44" width="4" height="4" fill="#ABC0DA" />
<rect x="64" y="44" width="4" height="4" fill="#45566D" />
<rect x="0" y="48" width="4" height="4" fill="#ABC0DA" />
<rect x="4" y="48" width="4" height="4" fill="#62768E" />
<rect x="8" y="48" width="4" height="4" fill="#758CA9" />
<rect x="12" y="48" width="4" height="4" fill="#758CA9" />
<rect x="16" y="48" width="4" height="4" fill="#758CA9" />
<rect x="20" y="48" width="4" height="4" fill="#758CA9" />
<rect x="24" y="48" width="4" height="4" fill="#758CA9" />
<rect x="28" y="48" width="4" height="4" fill="#758CA9" />
<rect x="32" y="48" width="4" height="4" fill="#758CA9" />
<rect x="36" y="48" width="4" height="4" fill="#758CA9" />
<rect x="40" y="48" width="4" height="4" fill="#758CA9" />
<rect x="44" y="48" width="4" height="4" fill="#758CA9" />
<rect x="48" y="48" width="4" height="4" fill="#758CA9" />
<rect x="52" y="48" width="4" height="4" fill="#758CA9" />
<rect x="56" y="48" width="4" height="4" fill="#758CA9" />
<rect x="60" y="48" width="4" height="4" fill="#D2E0F0" />
<rect x="64" y="48" width="4" height="4" fill="#344152" />
<rect x="4" y="52" width="4" height="4" fill="#ABC0DA" />
<rect x="8" y="52" width="4" height="4" fill="#62768E" />
<rect x="12" y="52" width="4" height="4" fill="#758CA9" />
<rect x="16" y="52" width="4" height="4" fill="#758CA9" />
<rect x="20" y="52" width="4" height="4" fill="#758CA9" />
<rect x="24" y="52" width="4" height="4" fill="#758CA9" />
<rect x="28" y="52" width="4" height="4" fill="#758CA9" />
<rect x="32" y="52" width="4" height="4" fill="#758CA9" />
<rect x="36" y="52" width="4" height="4" fill="#758CA9" />
<rect x="40" y="52" width="4" height="4" fill="#758CA9" />
<rect x="44" y="52" width="4" height="4" fill="#758CA9" />
<rect x="48" y="52" width="4" height="4" fill="#758CA9" />
<rect x="52" y="52" width="4" height="4" fill="#758CA9" />
<rect x="56" y="52" width="4" height="4" fill="#D2E0F0" />
<rect x="60" y="52" width="4" height="4" fill="#344152" />
<rect x="64" y="52" width="4" height="4" fill="#344152" />
<rect x="8" y="56" width="4" height="4" fill="#ABC0DA" />
<rect x="12" y="56" width="4" height="4" fill="#ABC0DA" />
<rect x="16" y="56" width="4" height="4" fill="#ABC0DA" />
<rect x="20" y="56" width="4" height="4" fill="#ABC0DA" />
<rect x="24" y="56" width="4" height="4" fill="#ABC0DA" />
<rect x="28" y="56" width="4" height="4" fill="#ABC0DA" />
<rect x="32" y="56" width="4" height="4" fill="#ABC0DA" />
<rect x="36" y="56" width="4" height="4" fill="#ABC0DA" />
<rect x="40" y="56" width="4" height="4" fill="#D2E0F0" />
<rect x="44" y="56" width="4" height="4" fill="#D2E0F0" />
<rect x="48" y="56" width="4" height="4" fill="#D2E0F0" />
<rect x="52" y="56" width="4" height="4" fill="#D2E0F0" />
<rect x="56" y="56" width="4" height="4" fill="#344152" />
<rect x="60" y="56" width="4" height="4" fill="#344152" />
<rect x="12" y="60" width="4" height="4" fill="#45566D" />
<rect x="16" y="60" width="4" height="4" fill="#45566D" />
<rect x="20" y="60" width="4" height="4" fill="#45566D" />
<rect x="24" y="60" width="4" height="4" fill="#45566D" />
<rect x="28" y="60" width="4" height="4" fill="#45566D" />
<rect x="32" y="60" width="4" height="4" fill="#45566D" />
<rect x="36" y="60" width="4" height="4" fill="#45566D" />
<rect x="40" y="60" width="4" height="4" fill="#45566D" />
<rect x="44" y="60" width="4" height="4" fill="#45566D" />
<rect x="48" y="60" width="4" height="4" fill="#344152" />
<rect x="52" y="60" width="4" height="4" fill="#344152" />
<rect x="56" y="60" width="4" height="4" fill="#344152" />
</svg>