<?xml version="1.0" encoding="utf-8"?>
<!-- Generator: Adobe Illustrator 24.2.0, SVG Export Plug-In . SVG Version: 6.00 Build 0)  -->
<svg version="1.1" id="圖層_1" shape-rendering="crispEdges"
	 xmlns="http://www.w3.org/2000/svg" xmlns:xlink="http://www.w3.org/1999/xlink" x="0px" y="0px" viewBox="0 0 216 88"
	 style="enable-background:new 0 0 216 88;" xml:space="preserve">
<style type="text/css">
	.st0{fill:#E5CAAE;}
	.st1{fill:#92785F;}
	.st2{fill:#78624E;}
	.st3{fill:#694D3F;}
</style>
<g>
	<polygon class="st0" points="8,0 8,4 4,4 4,8 0,8 0,12 4,12 8,12 8,8 12,8 12,4 16,4 16,0 12,0 	"/>
	<polygon class="st0" points="204,8 204,4 200,4 200,0 196,0 192,0 192,4 196,4 196,8 200,8 200,12 204,12 204,16 208,16 208,12 
		208,8 	"/>
	<rect x="204" y="68" class="st0" width="4" height="4"/>
	<rect x="4" y="72" class="st0" width="4" height="4"/>
	<rect x="200" y="72" class="st0" width="4" height="4"/>
</g>
<g>
	<polygon class="st1" points="24,4 28,4 32,4 36,4 40,4 44,4 48,4 52,4 56,4 60,4 64,4 68,4 72,4 76,4 80,4 84,4 88,4 92,4 96,4 
		100,4 104,4 108,4 112,4 116,4 120,4 124,4 128,4 132,4 136,4 140,4 144,4 148,4 152,4 156,4 160,4 164,4 168,4 172,4 176,4 180,4 
		184,4 188,4 192,4 192,0 188,0 184,0 180,0 176,0 172,0 168,0 164,0 160,0 156,0 152,0 148,0 144,0 140,0 136,0 132,0 128,0 124,0 
		120,0 116,0 112,0 108,0 104,0 100,0 96,0 92,0 88,0 84,0 80,0 76,0 72,0 68,0 64,0 60,0 56,0 52,0 48,0 44,0 40,0 36,0 32,0 28,0 
		24,0 20,0 16,0 16,4 20,4 	"/>
	<polygon class="st1" points="204,16 204,20 204,24 204,28 204,32 204,36 204,40 204,44 204,48 204,52 204,56 204,60 204,64 204,68 
		208,68 208,64 208,60 208,56 208,52 208,48 208,44 208,40 208,36 208,32 208,28 208,24 208,20 208,16 	"/>
	<polygon class="st1" points="4,68 4,64 4,60 4,56 4,52 4,48 4,44 4,40 4,36 4,32 4,28 4,24 4,20 4,16 4,12 0,12 0,16 0,20 0,24 
		0,28 0,32 0,36 0,40 0,44 0,48 0,52 0,56 0,60 0,64 0,68 0,72 4,72 8,72 8,68 	"/>
	<polygon class="st1" points="192,76 188,76 184,76 180,76 176,76 172,76 168,76 164,76 160,76 156,76 152,76 148,76 144,76 140,76 
		136,76 132,76 128,76 124,76 120,76 116,76 112,76 108,76 104,76 100,76 96,76 92,76 88,76 84,76 80,76 76,76 72,76 68,76 64,76 
		60,76 56,76 52,76 48,76 44,76 40,76 36,76 32,76 28,76 24,76 20,76 16,76 12,76 12,72 8,72 8,76 8,80 12,80 16,80 20,80 24,80 
		28,80 32,80 36,80 40,80 44,80 48,80 52,80 56,80 60,80 64,80 68,80 72,80 76,80 80,80 84,80 88,80 92,80 96,80 100,80 104,80 
		108,80 112,80 116,80 120,80 124,80 128,80 132,80 136,80 140,80 144,80 148,80 152,80 156,80 160,80 164,80 168,80 172,80 176,80 
		180,80 184,80 188,80 192,80 196,80 200,80 200,76 196,76 	"/>
</g>
<g>
	<rect x="204" y="4" class="st2" width="4" height="4"/>
	<polygon class="st2" points="208,8 208,12 208,16 208,20 208,24 208,28 208,32 208,36 208,40 208,44 208,48 208,52 208,56 208,60 
		208,64 208,68 208,72 212,72 212,68 212,64 212,60 212,56 212,52 212,48 212,44 212,40 212,36 212,32 212,28 212,24 212,20 212,16 
		212,12 212,8 	"/>
	<polygon class="st2" points="204,72 204,68 204,64 204,60 204,56 204,52 204,48 204,44 204,40 204,36 204,32 204,28 204,24 204,20 
		204,16 204,12 200,12 200,8 196,8 196,4 192,4 188,4 184,4 180,4 176,4 172,4 168,4 164,4 160,4 156,4 152,4 148,4 144,4 140,4 
		136,4 132,4 128,4 124,4 120,4 116,4 112,4 108,4 104,4 100,4 96,4 92,4 88,4 84,4 80,4 76,4 72,4 68,4 64,4 60,4 56,4 52,4 48,4 
		44,4 40,4 36,4 32,4 28,4 24,4 20,4 16,4 12,4 12,8 8,8 8,12 4,12 4,16 4,20 4,24 4,28 4,32 4,36 4,40 4,44 4,48 4,52 4,56 4,60 
		4,64 4,68 8,68 8,72 12,72 12,76 16,76 20,76 24,76 28,76 32,76 36,76 40,76 44,76 48,76 52,76 56,76 60,76 64,76 68,76 72,76 
		76,76 80,76 84,76 88,76 92,76 96,76 100,76 104,76 108,76 112,76 116,76 120,76 124,76 128,76 132,76 136,76 140,76 144,76 
		148,76 152,76 156,76 160,76 164,76 168,76 172,76 176,76 180,76 184,76 188,76 192,76 196,76 200,76 200,72 	"/>
	<rect x="204" y="72" class="st2" width="4" height="4"/>
	<polygon class="st2" points="200,80 196,80 192,80 188,80 184,80 180,80 176,80 172,80 168,80 164,80 160,80 156,80 152,80 148,80 
		144,80 140,80 136,80 132,80 128,80 124,80 120,80 116,80 112,80 108,80 104,80 100,80 96,80 92,80 88,80 84,80 80,80 76,80 72,80 
		68,80 64,80 60,80 56,80 52,80 48,80 44,80 40,80 36,80 32,80 28,80 24,80 20,80 16,80 12,80 8,80 8,84 12,84 16,84 20,84 24,84 
		28,84 32,84 36,84 40,84 44,84 48,84 52,84 56,84 60,84 64,84 68,84 72,84 76,84 80,84 84,84 88,84 92,84 96,84 100,84 104,84 
		108,84 112,84 116,84 120,84 124,84 128,84 132,84 136,84 140,84 144,84 148,84 152,84 156,84 160,84 164,84 168,84 172,84 176,84 
		180,84 184,84 188,84 192,84 196,84 200,84 204,84 204,80 204,76 200,76 	"/>
	<rect x="200" class="st2" width="4" height="4"/>
</g>
<g>
	<rect x="204" y="0" class="st3" width="4" height="4"/>
	<rect x="208" y="4" class="st3" width="4" height="4"/>
	<polygon class="st3" points="212,8 212,12 212,16 212,20 212,24 212,28 212,32 212,36 212,40 212,44 212,48 212,52 212,56 212,60 
		212,64 212,68 212,72 208,72 208,76 204,76 204,80 204,84 200,84 196,84 192,84 188,84 184,84 180,84 176,84 172,84 168,84 164,84 
		160,84 156,84 152,84 148,84 144,84 140,84 136,84 132,84 128,84 124,84 120,84 116,84 112,84 108,84 104,84 100,84 96,84 92,84 
		88,84 84,84 80,84 76,84 72,84 68,84 64,84 60,84 56,84 52,84 48,84 44,84 40,84 36,84 32,84 28,84 24,84 20,84 16,84 12,84 12,88 
		16,88 20,88 24,88 28,88 32,88 36,88 40,88 44,88 48,88 52,88 56,88 60,88 64,88 68,88 72,88 76,88 80,88 84,88 88,88 92,88 96,88 
		100,88 104,88 108,88 112,88 116,88 120,88 124,88 128,88 132,88 136,88 140,88 144,88 148,88 152,88 156,88 160,88 164,88 168,88 
		172,88 176,88 180,88 184,88 188,88 192,88 196,88 200,88 204,88 208,88 208,84 212,84 212,80 216,80 216,76 216,72 216,68 216,64 
		216,60 216,56 216,52 216,48 216,44 216,40 216,36 216,32 216,28 216,24 216,20 216,16 216,12 216,8 	"/>
	<rect y="72" class="st3" width="4" height="4"/>
	<rect x="4" y="76" class="st3" width="4" height="4"/>
</g>
</svg>
