<?xml version="1.0" encoding="utf-8"?>
<!-- Generator: Adobe Illustrator 24.2.0, SVG Export Plug-In . SVG Version: 6.00 Build 0)  -->
<svg version="1.1" id="圖層_1" shape-rendering="crispEdges"
	 xmlns="http://www.w3.org/2000/svg" xmlns:xlink="http://www.w3.org/1999/xlink" x="0px" y="0px" viewBox="0 0 88 88"
	 style="enable-background:new 0 0 88 88;" xml:space="preserve">
<style type="text/css">
	.st0{fill:#D2E0F0;}
	.st1{fill:#ABC0DA;}
	.st2{fill:#62768E;}
	.st3{fill:#45566D;}
	.st4{fill:#99AEC7;}
	.st5{fill:#F0CDAA;}
	.st6{fill:#C7A685;}
	.st7{fill:#92785F;}
	.st8{fill:#AD8E6F;}
	.st9{fill:#78624E;}
	.st10{fill:#69B422;}
	.st11{fill:#D6BDA4;}
	.st12{fill:#B03F4B;}
</style>
<rect x="8" y="0" class="st0" width="4" height="4"/>
<rect x="12" y="0" class="st0" width="4" height="4"/>
<rect x="16" y="0" class="st1" width="4" height="4"/>
<rect x="20" y="0" class="st1" width="4" height="4"/>
<rect x="24" y="0" class="st1" width="4" height="4"/>
<rect x="28" y="0" class="st1" width="4" height="4"/>
<rect x="32" y="0" class="st1" width="4" height="4"/>
<rect x="36" y="0" class="st1" width="4" height="4"/>
<rect x="40" y="0" class="st1" width="4" height="4"/>
<rect x="44" y="0" class="st1" width="4" height="4"/>
<rect x="48" y="0" class="st1" width="4" height="4"/>
<rect x="52" y="0" class="st1" width="4" height="4"/>
<rect x="56" y="0" class="st1" width="4" height="4"/>
<rect x="60" y="0" class="st1" width="4" height="4"/>
<rect x="64" y="0" class="st0" width="4" height="4"/>
<rect x="68" y="0" class="st0" width="4" height="4"/>
<rect x="72" y="0" class="st2" width="4" height="4"/>
<rect x="76" y="0" class="st3" width="4" height="4"/>
<rect x="4" y="4" class="st0" width="4" height="4"/>
<rect x="8" y="4" class="st0" width="4" height="4"/>
<rect x="12" y="4" class="st4" width="4" height="4"/>
<rect x="16" y="4" class="st4" width="4" height="4"/>
<rect x="20" y="4" class="st4" width="4" height="4"/>
<rect x="24" y="4" class="st4" width="4" height="4"/>
<rect x="28" y="4" class="st4" width="4" height="4"/>
<rect x="32" y="4" class="st4" width="4" height="4"/>
<rect x="36" y="4" class="st4" width="4" height="4"/>
<rect x="40" y="4" class="st4" width="4" height="4"/>
<rect x="44" y="4" class="st4" width="4" height="4"/>
<rect x="48" y="4" class="st4" width="4" height="4"/>
<rect x="52" y="4" class="st4" width="4" height="4"/>
<rect x="56" y="4" class="st4" width="4" height="4"/>
<rect x="60" y="4" class="st4" width="4" height="4"/>
<rect x="64" y="4" class="st4" width="4" height="4"/>
<rect x="68" y="4" class="st0" width="4" height="4"/>
<rect x="72" y="4" class="st0" width="4" height="4"/>
<rect x="76" y="4" class="st2" width="4" height="4"/>
<rect x="80" y="4" class="st3" width="4" height="4"/>
<rect y="8" class="st0" width="4" height="4"/>
<rect x="4" y="8" class="st0" width="4" height="4"/>
<rect x="8" y="8" class="st4" width="4" height="4"/>
<rect x="12" y="8" class="st4" width="4" height="4"/>
<rect x="16" y="8" class="st4" width="4" height="4"/>
<rect x="20" y="8" class="st4" width="4" height="4"/>
<rect x="24" y="8" class="st4" width="4" height="4"/>
<rect x="28" y="8" class="st4" width="4" height="4"/>
<rect x="32" y="8" class="st4" width="4" height="4"/>
<rect x="36" y="8" class="st4" width="4" height="4"/>
<rect x="40" y="8" class="st4" width="4" height="4"/>
<rect x="44" y="8" class="st4" width="4" height="4"/>
<rect x="48" y="8" class="st4" width="4" height="4"/>
<rect x="52" y="8" class="st4" width="4" height="4"/>
<rect x="56" y="8" class="st4" width="4" height="4"/>
<rect x="60" y="8" class="st4" width="4" height="4"/>
<rect x="64" y="8" class="st4" width="4" height="4"/>
<rect x="68" y="8" class="st4" width="4" height="4"/>
<rect x="72" y="8" class="st0" width="4" height="4"/>
<rect x="76" y="8" class="st0" width="4" height="4"/>
<rect x="80" y="8" class="st2" width="4" height="4"/>
<rect y="12" class="st1" width="4" height="4"/>
<rect x="4" y="12" class="st4" width="4" height="4"/>
<rect x="8" y="12" class="st4" width="4" height="4"/>
<rect x="12" y="12" class="st4" width="4" height="4"/>
<rect x="16" y="12" class="st4" width="4" height="4"/>
<rect x="20" y="12" class="st4" width="4" height="4"/>
<rect x="24" y="12" class="st4" width="4" height="4"/>
<rect x="28" y="12" class="st4" width="4" height="4"/>
<rect x="32" y="12" class="st4" width="4" height="4"/>
<rect x="36" y="12" class="st4" width="4" height="4"/>
<rect x="40" y="12" class="st4" width="4" height="4"/>
<rect x="44" y="12" class="st4" width="4" height="4"/>
<rect x="48" y="12" class="st4" width="4" height="4"/>
<rect x="52" y="12" class="st4" width="4" height="4"/>
<rect x="56" y="12" class="st4" width="4" height="4"/>
<rect x="60" y="12" class="st4" width="4" height="4"/>
<rect x="64" y="12" class="st4" width="4" height="4"/>
<rect x="68" y="12" class="st4" width="4" height="4"/>
<rect x="72" y="12" class="st4" width="4" height="4"/>
<rect x="76" y="12" class="st0" width="4" height="4"/>
<rect x="80" y="12" class="st2" width="4" height="4"/>
<rect x="84" y="12" class="st3" width="4" height="4"/>
<rect y="16" class="st1" width="4" height="4"/>
<rect x="4" y="16" class="st4" width="4" height="4"/>
<rect x="8" y="16" class="st4" width="4" height="4"/>
<rect x="12" y="16" class="st4" width="4" height="4"/>
<rect x="16" y="16" class="st5" width="4" height="4"/>
<rect x="20" y="16" class="st6" width="4" height="4"/>
<rect x="24" y="16" class="st5" width="4" height="4"/>
<rect x="28" y="16" class="st5" width="4" height="4"/>
<rect x="32" y="16" class="st6" width="4" height="4"/>
<rect x="36" y="16" class="st7" width="4" height="4"/>
<rect x="40" y="16" class="st6" width="4" height="4"/>
<rect x="44" y="16" class="st6" width="4" height="4"/>
<rect x="48" y="16" class="st8" width="4" height="4"/>
<rect x="52" y="16" class="st8" width="4" height="4"/>
<rect x="56" y="16" class="st8" width="4" height="4"/>
<rect x="60" y="16" class="st8" width="4" height="4"/>
<rect x="64" y="16" class="st4" width="4" height="4"/>
<rect x="68" y="16" class="st4" width="4" height="4"/>
<rect x="72" y="16" class="st4" width="4" height="4"/>
<rect x="76" y="16" class="st1" width="4" height="4"/>
<rect x="80" y="16" class="st2" width="4" height="4"/>
<rect x="84" y="16" class="st3" width="4" height="4"/>
<rect y="20" class="st1" width="4" height="4"/>
<rect x="4" y="20" class="st4" width="4" height="4"/>
<rect x="8" y="20" class="st4" width="4" height="4"/>
<rect x="12" y="20" class="st4" width="4" height="4"/>
<rect x="16" y="20" class="st5" width="4" height="4"/>
<rect x="20" y="20" class="st5" width="4" height="4"/>
<rect x="24" y="20" class="st6" width="4" height="4"/>
<rect x="28" y="20" class="st6" width="4" height="4"/>
<rect x="32" y="20" class="st7" width="4" height="4"/>
<rect x="36" y="20" class="st7" width="4" height="4"/>
<rect x="40" y="20" class="st6" width="4" height="4"/>
<rect x="44" y="20" class="st6" width="4" height="4"/>
<rect x="48" y="20" class="st8" width="4" height="4"/>
<rect x="52" y="20" class="st8" width="4" height="4"/>
<rect x="56" y="20" class="st8" width="4" height="4"/>
<rect x="60" y="20" class="st9" width="4" height="4"/>
<rect x="64" y="20" class="st4" width="4" height="4"/>
<rect x="68" y="20" class="st4" width="4" height="4"/>
<rect x="72" y="20" class="st4" width="4" height="4"/>
<rect x="76" y="20" class="st1" width="4" height="4"/>
<rect x="80" y="20" class="st2" width="4" height="4"/>
<rect x="84" y="20" class="st3" width="4" height="4"/>
<rect y="24" class="st1" width="4" height="4"/>
<rect x="4" y="24" class="st4" width="4" height="4"/>
<rect x="8" y="24" class="st4" width="4" height="4"/>
<rect x="12" y="24" class="st4" width="4" height="4"/>
<rect x="16" y="24" class="st5" width="4" height="4"/>
<rect x="20" y="24" class="st5" width="4" height="4"/>
<rect x="24" y="24" class="st5" width="4" height="4"/>
<rect x="28" y="24" class="st5" width="4" height="4"/>
<rect x="32" y="24" class="st6" width="4" height="4"/>
<rect x="36" y="24" class="st6" width="4" height="4"/>
<rect x="40" y="24" class="st7" width="4" height="4"/>
<rect x="44" y="24" class="st6" width="4" height="4"/>
<rect x="48" y="24" class="st8" width="4" height="4"/>
<rect x="52" y="24" class="st8" width="4" height="4"/>
<rect x="56" y="24" class="st9" width="4" height="4"/>
<rect x="60" y="24" class="st8" width="4" height="4"/>
<rect x="64" y="24" class="st4" width="4" height="4"/>
<rect x="68" y="24" class="st4" width="4" height="4"/>
<rect x="72" y="24" class="st4" width="4" height="4"/>
<rect x="76" y="24" class="st1" width="4" height="4"/>
<rect x="80" y="24" class="st2" width="4" height="4"/>
<rect x="84" y="24" class="st3" width="4" height="4"/>
<rect y="28" class="st1" width="4" height="4"/>
<rect x="4" y="28" class="st4" width="4" height="4"/>
<rect x="8" y="28" class="st4" width="4" height="4"/>
<rect x="12" y="28" class="st4" width="4" height="4"/>
<rect x="16" y="28" class="st5" width="4" height="4"/>
<rect x="20" y="28" class="st5" width="4" height="4"/>
<rect x="24" y="28" class="st5" width="4" height="4"/>
<rect x="28" y="28" class="st5" width="4" height="4"/>
<rect x="32" y="28" class="st6" width="4" height="4"/>
<rect x="36" y="28" class="st6" width="4" height="4"/>
<rect x="40" y="28" class="st6" width="4" height="4"/>
<rect x="44" y="28" class="st7" width="4" height="4"/>
<rect x="48" y="28" class="st10" width="4" height="4"/>
<rect x="52" y="28" class="st9" width="4" height="4"/>
<rect x="56" y="28" class="st9" width="4" height="4"/>
<rect x="60" y="28" class="st9" width="4" height="4"/>
<rect x="64" y="28" class="st4" width="4" height="4"/>
<rect x="68" y="28" class="st4" width="4" height="4"/>
<rect x="72" y="28" class="st4" width="4" height="4"/>
<rect x="76" y="28" class="st1" width="4" height="4"/>
<rect x="80" y="28" class="st2" width="4" height="4"/>
<rect x="84" y="28" class="st3" width="4" height="4"/>
<rect y="32" class="st1" width="4" height="4"/>
<rect x="4" y="32" class="st4" width="4" height="4"/>
<rect x="8" y="32" class="st4" width="4" height="4"/>
<rect x="12" y="32" class="st4" width="4" height="4"/>
<rect x="16" y="32" class="st6" width="4" height="4"/>
<rect x="20" y="32" class="st6" width="4" height="4"/>
<rect x="24" y="32" class="st6" width="4" height="4"/>
<rect x="28" y="32" class="st6" width="4" height="4"/>
<rect x="32" y="32" class="st8" width="4" height="4"/>
<rect x="36" y="32" class="st8" width="4" height="4"/>
<rect x="40" y="32" class="st8" width="4" height="4"/>
<rect x="44" y="32" class="st9" width="4" height="4"/>
<rect x="48" y="32" class="st11" width="4" height="4"/>
<rect x="52" y="32" class="st11" width="4" height="4"/>
<rect x="56" y="32" class="st8" width="4" height="4"/>
<rect x="60" y="32" class="st11" width="4" height="4"/>
<rect x="64" y="32" class="st4" width="4" height="4"/>
<rect x="68" y="32" class="st4" width="4" height="4"/>
<rect x="72" y="32" class="st4" width="4" height="4"/>
<rect x="76" y="32" class="st1" width="4" height="4"/>
<rect x="80" y="32" class="st2" width="4" height="4"/>
<rect x="84" y="32" class="st3" width="4" height="4"/>
<rect y="36" class="st1" width="4" height="4"/>
<rect x="4" y="36" class="st4" width="4" height="4"/>
<rect x="8" y="36" class="st4" width="4" height="4"/>
<rect x="12" y="36" class="st4" width="4" height="4"/>
<rect x="16" y="36" class="st8" width="4" height="4"/>
<rect x="20" y="36" class="st8" width="4" height="4"/>
<rect x="24" y="36" class="st10" width="4" height="4"/>
<rect x="28" y="36" class="st8" width="4" height="4"/>
<rect x="32" y="36" class="st9" width="4" height="4"/>
<rect x="36" y="36" class="st9" width="4" height="4"/>
<rect x="40" y="36" class="st9" width="4" height="4"/>
<rect x="44" y="36" class="st9" width="4" height="4"/>
<rect x="48" y="36" class="st11" width="4" height="4"/>
<rect x="52" y="36" class="st11" width="4" height="4"/>
<rect x="56" y="36" class="st8" width="4" height="4"/>
<rect x="60" y="36" class="st11" width="4" height="4"/>
<rect x="64" y="36" class="st4" width="4" height="4"/>
<rect x="68" y="36" class="st4" width="4" height="4"/>
<rect x="72" y="36" class="st4" width="4" height="4"/>
<rect x="76" y="36" class="st1" width="4" height="4"/>
<rect x="80" y="36" class="st2" width="4" height="4"/>
<rect x="84" y="36" class="st3" width="4" height="4"/>
<rect y="40" class="st1" width="4" height="4"/>
<rect x="4" y="40" class="st4" width="4" height="4"/>
<rect x="8" y="40" class="st4" width="4" height="4"/>
<rect x="12" y="40" class="st4" width="4" height="4"/>
<rect x="16" y="40" class="st6" width="4" height="4"/>
<rect x="20" y="40" class="st6" width="4" height="4"/>
<rect x="24" y="40" class="st8" width="4" height="4"/>
<rect x="28" y="40" class="st6" width="4" height="4"/>
<rect x="32" y="40" class="st8" width="4" height="4"/>
<rect x="36" y="40" class="st8" width="4" height="4"/>
<rect x="40" y="40" class="st8" width="4" height="4"/>
<rect x="44" y="40" class="st9" width="4" height="4"/>
<rect x="48" y="40" class="st11" width="4" height="4"/>
<rect x="52" y="40" class="st11" width="4" height="4"/>
<rect x="56" y="40" class="st8" width="4" height="4"/>
<rect x="60" y="40" class="st8" width="4" height="4"/>
<rect x="64" y="40" class="st4" width="4" height="4"/>
<rect x="68" y="40" class="st4" width="4" height="4"/>
<rect x="72" y="40" class="st4" width="4" height="4"/>
<rect x="76" y="40" class="st1" width="4" height="4"/>
<rect x="80" y="40" class="st2" width="4" height="4"/>
<rect x="84" y="40" class="st3" width="4" height="4"/>
<rect y="44" class="st1" width="4" height="4"/>
<rect x="4" y="44" class="st4" width="4" height="4"/>
<rect x="8" y="44" class="st4" width="4" height="4"/>
<rect x="12" y="44" class="st4" width="4" height="4"/>
<rect x="16" y="44" class="st6" width="4" height="4"/>
<rect x="20" y="44" class="st6" width="4" height="4"/>
<rect x="24" y="44" class="st8" width="4" height="4"/>
<rect x="28" y="44" class="st6" width="4" height="4"/>
<rect x="32" y="44" class="st8" width="4" height="4"/>
<rect x="36" y="44" class="st8" width="4" height="4"/>
<rect x="40" y="44" class="st8" width="4" height="4"/>
<rect x="44" y="44" class="st9" width="4" height="4"/>
<rect x="48" y="44" class="st11" width="4" height="4"/>
<rect x="52" y="44" class="st11" width="4" height="4"/>
<rect x="56" y="44" class="st11" width="4" height="4"/>
<rect x="60" y="44" class="st11" width="4" height="4"/>
<rect x="64" y="44" class="st4" width="4" height="4"/>
<rect x="68" y="44" class="st4" width="4" height="4"/>
<rect x="72" y="44" class="st4" width="4" height="4"/>
<rect x="76" y="44" class="st1" width="4" height="4"/>
<rect x="80" y="44" class="st2" width="4" height="4"/>
<rect x="84" y="44" class="st3" width="4" height="4"/>
<rect y="48" class="st1" width="4" height="4"/>
<rect x="4" y="48" class="st4" width="4" height="4"/>
<rect x="8" y="48" class="st4" width="4" height="4"/>
<rect x="12" y="48" class="st4" width="4" height="4"/>
<rect x="16" y="48" class="st5" width="4" height="4"/>
<rect x="20" y="48" class="st5" width="4" height="4"/>
<rect x="24" y="48" class="st6" width="4" height="4"/>
<rect x="28" y="48" class="st5" width="4" height="4"/>
<rect x="32" y="48" class="st6" width="4" height="4"/>
<rect x="36" y="48" class="st6" width="4" height="4"/>
<rect x="40" y="48" class="st6" width="4" height="4"/>
<rect x="44" y="48" class="st7" width="4" height="4"/>
<rect x="48" y="48" class="st8" width="4" height="4"/>
<rect x="52" y="48" class="st8" width="4" height="4"/>
<rect x="56" y="48" class="st8" width="4" height="4"/>
<rect x="60" y="48" class="st8" width="4" height="4"/>
<rect x="64" y="48" class="st4" width="4" height="4"/>
<rect x="68" y="48" class="st4" width="4" height="4"/>
<rect x="72" y="48" class="st4" width="4" height="4"/>
<rect x="76" y="48" class="st1" width="4" height="4"/>
<rect x="80" y="48" class="st2" width="4" height="4"/>
<rect x="84" y="48" class="st3" width="4" height="4"/>
<rect y="52" class="st1" width="4" height="4"/>
<rect x="4" y="52" class="st4" width="4" height="4"/>
<rect x="8" y="52" class="st4" width="4" height="4"/>
<rect x="12" y="52" class="st4" width="4" height="4"/>
<rect x="16" y="52" class="st5" width="4" height="4"/>
<rect x="20" y="52" class="st5" width="4" height="4"/>
<rect x="24" y="52" class="st6" width="4" height="4"/>
<rect x="28" y="52" class="st6" width="4" height="4"/>
<rect x="32" y="52" class="st7" width="4" height="4"/>
<rect x="36" y="52" class="st7" width="4" height="4"/>
<rect x="40" y="52" class="st7" width="4" height="4"/>
<rect x="44" y="52" class="st12" width="4" height="4"/>
<rect x="48" y="52" class="st9" width="4" height="4"/>
<rect x="52" y="52" class="st8" width="4" height="4"/>
<rect x="56" y="52" class="st8" width="4" height="4"/>
<rect x="60" y="52" class="st8" width="4" height="4"/>
<rect x="64" y="52" class="st4" width="4" height="4"/>
<rect x="68" y="52" class="st4" width="4" height="4"/>
<rect x="72" y="52" class="st4" width="4" height="4"/>
<rect x="76" y="52" class="st1" width="4" height="4"/>
<rect x="80" y="52" class="st2" width="4" height="4"/>
<rect x="84" y="52" class="st3" width="4" height="4"/>
<rect y="56" class="st1" width="4" height="4"/>
<rect x="4" y="56" class="st4" width="4" height="4"/>
<rect x="8" y="56" class="st4" width="4" height="4"/>
<rect x="12" y="56" class="st4" width="4" height="4"/>
<rect x="16" y="56" class="st5" width="4" height="4"/>
<rect x="20" y="56" class="st5" width="4" height="4"/>
<rect x="24" y="56" class="st6" width="4" height="4"/>
<rect x="28" y="56" class="st5" width="4" height="4"/>
<rect x="32" y="56" class="st6" width="4" height="4"/>
<rect x="36" y="56" class="st6" width="4" height="4"/>
<rect x="40" y="56" class="st6" width="4" height="4"/>
<rect x="44" y="56" class="st6" width="4" height="4"/>
<rect x="48" y="56" class="st8" width="4" height="4"/>
<rect x="52" y="56" class="st9" width="4" height="4"/>
<rect x="56" y="56" class="st8" width="4" height="4"/>
<rect x="60" y="56" class="st8" width="4" height="4"/>
<rect x="64" y="56" class="st4" width="4" height="4"/>
<rect x="68" y="56" class="st4" width="4" height="4"/>
<rect x="72" y="56" class="st4" width="4" height="4"/>
<rect x="76" y="56" class="st1" width="4" height="4"/>
<rect x="80" y="56" class="st2" width="4" height="4"/>
<rect x="84" y="56" class="st3" width="4" height="4"/>
<rect y="60" class="st1" width="4" height="4"/>
<rect x="4" y="60" class="st4" width="4" height="4"/>
<rect x="8" y="60" class="st4" width="4" height="4"/>
<rect x="12" y="60" class="st4" width="4" height="4"/>
<rect x="16" y="60" class="st5" width="4" height="4"/>
<rect x="20" y="60" class="st5" width="4" height="4"/>
<rect x="24" y="60" class="st6" width="4" height="4"/>
<rect x="28" y="60" class="st5" width="4" height="4"/>
<rect x="32" y="60" class="st6" width="4" height="4"/>
<rect x="36" y="60" class="st6" width="4" height="4"/>
<rect x="40" y="60" class="st6" width="4" height="4"/>
<rect x="44" y="60" class="st6" width="4" height="4"/>
<rect x="48" y="60" class="st8" width="4" height="4"/>
<rect x="52" y="60" class="st9" width="4" height="4"/>
<rect x="56" y="60" class="st8" width="4" height="4"/>
<rect x="60" y="60" class="st8" width="4" height="4"/>
<rect x="64" y="60" class="st4" width="4" height="4"/>
<rect x="68" y="60" class="st4" width="4" height="4"/>
<rect x="72" y="60" class="st4" width="4" height="4"/>
<rect x="76" y="60" class="st1" width="4" height="4"/>
<rect x="80" y="60" class="st2" width="4" height="4"/>
<rect x="84" y="60" class="st3" width="4" height="4"/>
<rect y="64" class="st1" width="4" height="4"/>
<rect x="4" y="64" class="st4" width="4" height="4"/>
<rect x="8" y="64" class="st4" width="4" height="4"/>
<rect x="12" y="64" class="st4" width="4" height="4"/>
<rect x="16" y="64" class="st4" width="4" height="4"/>
<rect x="20" y="64" class="st4" width="4" height="4"/>
<rect x="24" y="64" class="st4" width="4" height="4"/>
<rect x="28" y="64" class="st4" width="4" height="4"/>
<rect x="32" y="64" class="st4" width="4" height="4"/>
<rect x="36" y="64" class="st4" width="4" height="4"/>
<rect x="40" y="64" class="st4" width="4" height="4"/>
<rect x="44" y="64" class="st4" width="4" height="4"/>
<rect x="48" y="64" class="st4" width="4" height="4"/>
<rect x="52" y="64" class="st4" width="4" height="4"/>
<rect x="56" y="64" class="st4" width="4" height="4"/>
<rect x="60" y="64" class="st4" width="4" height="4"/>
<rect x="64" y="64" class="st4" width="4" height="4"/>
<rect x="68" y="64" class="st4" width="4" height="4"/>
<rect x="72" y="64" class="st4" width="4" height="4"/>
<rect x="76" y="64" class="st1" width="4" height="4"/>
<rect x="80" y="64" class="st2" width="4" height="4"/>
<rect x="84" y="64" class="st3" width="4" height="4"/>
<rect y="68" class="st1" width="4" height="4"/>
<rect x="4" y="68" class="st1" width="4" height="4"/>
<rect x="8" y="68" class="st4" width="4" height="4"/>
<rect x="12" y="68" class="st4" width="4" height="4"/>
<rect x="16" y="68" class="st4" width="4" height="4"/>
<rect x="20" y="68" class="st4" width="4" height="4"/>
<rect x="24" y="68" class="st4" width="4" height="4"/>
<rect x="28" y="68" class="st4" width="4" height="4"/>
<rect x="32" y="68" class="st4" width="4" height="4"/>
<rect x="36" y="68" class="st4" width="4" height="4"/>
<rect x="40" y="68" class="st4" width="4" height="4"/>
<rect x="44" y="68" class="st4" width="4" height="4"/>
<rect x="48" y="68" class="st4" width="4" height="4"/>
<rect x="52" y="68" class="st4" width="4" height="4"/>
<rect x="56" y="68" class="st4" width="4" height="4"/>
<rect x="60" y="68" class="st4" width="4" height="4"/>
<rect x="64" y="68" class="st4" width="4" height="4"/>
<rect x="68" y="68" class="st4" width="4" height="4"/>
<rect x="72" y="68" class="st4" width="4" height="4"/>
<rect x="76" y="68" class="st0" width="4" height="4"/>
<rect x="80" y="68" class="st2" width="4" height="4"/>
<rect x="84" y="68" class="st3" width="4" height="4"/>
<rect y="72" class="st2" width="4" height="4"/>
<rect x="4" y="72" class="st0" width="4" height="4"/>
<rect x="8" y="72" class="st1" width="4" height="4"/>
<rect x="12" y="72" class="st4" width="4" height="4"/>
<rect x="16" y="72" class="st4" width="4" height="4"/>
<rect x="20" y="72" class="st4" width="4" height="4"/>
<rect x="24" y="72" class="st4" width="4" height="4"/>
<rect x="28" y="72" class="st4" width="4" height="4"/>
<rect x="32" y="72" class="st4" width="4" height="4"/>
<rect x="36" y="72" class="st4" width="4" height="4"/>
<rect x="40" y="72" class="st4" width="4" height="4"/>
<rect x="44" y="72" class="st4" width="4" height="4"/>
<rect x="48" y="72" class="st4" width="4" height="4"/>
<rect x="52" y="72" class="st4" width="4" height="4"/>
<rect x="56" y="72" class="st4" width="4" height="4"/>
<rect x="60" y="72" class="st4" width="4" height="4"/>
<rect x="64" y="72" class="st4" width="4" height="4"/>
<rect x="68" y="72" class="st4" width="4" height="4"/>
<rect x="72" y="72" class="st0" width="4" height="4"/>
<rect x="76" y="72" class="st2" width="4" height="4"/>
<rect x="80" y="72" class="st3" width="4" height="4"/>
<rect x="84" y="72" class="st3" width="4" height="4"/>
<rect x="4" y="76" class="st2" width="4" height="4"/>
<rect x="8" y="76" class="st1" width="4" height="4"/>
<rect x="12" y="76" class="st1" width="4" height="4"/>
<rect x="16" y="76" class="st1" width="4" height="4"/>
<rect x="20" y="76" class="st1" width="4" height="4"/>
<rect x="24" y="76" class="st1" width="4" height="4"/>
<rect x="28" y="76" class="st1" width="4" height="4"/>
<rect x="32" y="76" class="st1" width="4" height="4"/>
<rect x="36" y="76" class="st1" width="4" height="4"/>
<rect x="40" y="76" class="st1" width="4" height="4"/>
<rect x="44" y="76" class="st1" width="4" height="4"/>
<rect x="48" y="76" class="st1" width="4" height="4"/>
<rect x="52" y="76" class="st1" width="4" height="4"/>
<rect x="56" y="76" class="st1" width="4" height="4"/>
<rect x="60" y="76" class="st1" width="4" height="4"/>
<rect x="64" y="76" class="st1" width="4" height="4"/>
<rect x="68" y="76" class="st1" width="4" height="4"/>
<rect x="72" y="76" class="st2" width="4" height="4"/>
<rect x="76" y="76" class="st3" width="4" height="4"/>
<rect x="80" y="76" class="st3" width="4" height="4"/>
<rect x="84" y="76" class="st3" width="4" height="4"/>
<rect x="8" y="80" class="st2" width="4" height="4"/>
<rect x="12" y="80" class="st2" width="4" height="4"/>
<rect x="16" y="80" class="st2" width="4" height="4"/>
<rect x="20" y="80" class="st2" width="4" height="4"/>
<rect x="24" y="80" class="st2" width="4" height="4"/>
<rect x="28" y="80" class="st2" width="4" height="4"/>
<rect x="32" y="80" class="st2" width="4" height="4"/>
<rect x="36" y="80" class="st2" width="4" height="4"/>
<rect x="40" y="80" class="st2" width="4" height="4"/>
<rect x="44" y="80" class="st2" width="4" height="4"/>
<rect x="48" y="80" class="st2" width="4" height="4"/>
<rect x="52" y="80" class="st2" width="4" height="4"/>
<rect x="56" y="80" class="st2" width="4" height="4"/>
<rect x="60" y="80" class="st2" width="4" height="4"/>
<rect x="64" y="80" class="st2" width="4" height="4"/>
<rect x="68" y="80" class="st2" width="4" height="4"/>
<rect x="72" y="80" class="st2" width="4" height="4"/>
<rect x="76" y="80" class="st3" width="4" height="4"/>
<rect x="80" y="80" class="st3" width="4" height="4"/>
<rect x="12" y="84" class="st3" width="4" height="4"/>
<rect x="16" y="84" class="st3" width="4" height="4"/>
<rect x="20" y="84" class="st3" width="4" height="4"/>
<rect x="24" y="84" class="st3" width="4" height="4"/>
<rect x="28" y="84" class="st3" width="4" height="4"/>
<rect x="32" y="84" class="st3" width="4" height="4"/>
<rect x="36" y="84" class="st3" width="4" height="4"/>
<rect x="40" y="84" class="st3" width="4" height="4"/>
<rect x="44" y="84" class="st3" width="4" height="4"/>
<rect x="48" y="84" class="st3" width="4" height="4"/>
<rect x="52" y="84" class="st3" width="4" height="4"/>
<rect x="56" y="84" class="st3" width="4" height="4"/>
<rect x="60" y="84" class="st3" width="4" height="4"/>
<rect x="64" y="84" class="st3" width="4" height="4"/>
<rect x="68" y="84" class="st3" width="4" height="4"/>
<rect x="72" y="84" class="st3" width="4" height="4"/>
<rect x="76" y="84" class="st3" width="4" height="4"/>
</svg>
