<?xml version="1.0" encoding="utf-8"?>
<!-- Generator: Adobe Illustrator 24.2.0, SVG Export Plug-In . SVG Version: 6.00 Build 0)  -->
<svg version="1.1" id="圖層_1" shape-rendering="crispEdges"
	 xmlns="http://www.w3.org/2000/svg" xmlns:xlink="http://www.w3.org/1999/xlink" x="0px" y="0px" viewBox="0 0 216 88"
	 style="enable-background:new 0 0 216 88;" xml:space="preserve">
<style type="text/css">
	.st0{fill:#ECA688;}
	.st1{fill:#D25D2B;}
	.st2{fill:#873613;}
	.st3{fill:#622309;}
</style>
<g>
	<path class="st0" d="M8,0v4H4v4H0v4c2,0,6,0,8,0V8h4V4h4V0C14,0,10,0,8,0z"/>
	<path class="st0" d="M204,8V4h-4V0c-2,0-6,0-8,0v4h4v4h4v4h4v4h4c0-2,0-6,0-8H204z"/>
	<rect y="68" class="st0" width="4" height="4"/>
	<rect x="204" y="68" class="st0" width="4" height="4"/>
	<rect x="4" y="72" class="st0" width="4" height="4"/>
	<rect x="200" y="72" class="st0" width="4" height="4"/>
	<rect x="8" y="76" class="st0" width="4" height="4"/>
</g>
<g>
	<path class="st1" d="M24,4c56,0,112,0,168,0V0C133.4,0,74.6,0,16,0v4C18,4,22,4,24,4z"/>
	<path class="st1" d="M204,16c0,17.2,0,34.8,0,52h4c0-17.2,0-34.8,0-52H204z"/>
	<path class="st1" d="M4,60c0-15.9,0-32.1,0-48H0c0,18.6,0,37.4,0,56h4C4,66,4,62,4,60z"/>
	<rect x="4" y="68" class="st1" width="4" height="4"/>
	<rect x="8" y="72" class="st1" width="4" height="4"/>
	<path class="st1" d="M192,76c-60,0-120,0-180,0v4c62.6,0,125.4,0,188,0v-4C198,76,194,76,192,76z"/>
</g>
<g>
	<rect x="200" y="0" class="st2" width="4" height="4"/>
	<rect x="204" y="4" class="st2" width="4" height="4"/>
	<path class="st2" d="M208,8c0,21.3,0,42.7,0,64h4c0-21.3,0-42.7,0-64H208z"/>
	<path class="st2" d="M204,72c0-19.9,0-40.1,0-60h-4V8h-4V4C134.7,4,73.3,4,12,4v4H8v4H4c0,18.6,0,37.4,0,56h4v4h4v4
		c62.6,0,125.4,0,188,0v-4H204z"/>
	<rect y="72" class="st2" width="4" height="4"/>
	<rect x="204" y="72" class="st2" width="4" height="4"/>
	<rect x="4" y="76" class="st2" width="4" height="4"/>
	<rect x="200" y="76" class="st2" width="4" height="4"/>
	<path class="st2" d="M192,80c-61.3,0-122.7,0-184,0v4c64,0,128,0,192,0v-4C198,80,194,80,192,80z"/>
</g>
<g>
	<rect x="204" y="0" class="st3" width="4" height="4"/>
	<rect x="208" y="4" class="st3" width="4" height="4"/>
	<path class="st3" d="M212,8c0,21.3,0,42.7,0,64h-4v4h-4v4h-4v4c-62.6,0-125.4,0-188,0v4c64,0,128,0,192,0v-4h4v-4h4v-4h4
		c0-22.6,0-45.4,0-68H212z"/>
</g>
</svg>
