<?xml version="1.0" encoding="UTF-8" ?>
<svg version="1.1" width="1476" height="1052" xmlns="http://www.w3.org/2000/svg" shape-rendering="crispEdges">
<rect x="956" y="784" width="4" height="4" fill="#000000" />
<rect x="960" y="784" width="4" height="4" fill="#000000" />
<rect x="964" y="784" width="4" height="4" fill="#000000" />
<rect x="968" y="784" width="4" height="4" fill="#000000" />
<rect x="956" y="788" width="4" height="4" fill="#000000" />
<rect x="960" y="788" width="4" height="4" fill="#000000" />
<rect x="964" y="788" width="4" height="4" fill="#000000" />
<rect x="968" y="788" width="4" height="4" fill="#000000" />
<rect x="892" y="792" width="4" height="4" fill="#F0F0F0" />
<rect x="896" y="792" width="4" height="4" fill="#F0F0F0" />
<rect x="900" y="792" width="4" height="4" fill="#F0F0F0" />
<rect x="904" y="792" width="4" height="4" fill="#F0F0F0" />
<rect x="908" y="792" width="4" height="4" fill="#F0F0F0" />
<rect x="956" y="792" width="4" height="4" fill="#000000" />
<rect x="960" y="792" width="4" height="4" fill="#000000" />
<rect x="964" y="792" width="4" height="4" fill="#000000" />
<rect x="996" y="792" width="4" height="4" fill="#000000" />
<rect x="1000" y="792" width="4" height="4" fill="#000000" />
<rect x="892" y="796" width="4" height="4" fill="#F0F0F0" />
<rect x="896" y="796" width="4" height="4" fill="#000000" />
<rect x="900" y="796" width="4" height="4" fill="#000000" />
<rect x="904" y="796" width="4" height="4" fill="#000000" />
<rect x="908" y="796" width="4" height="4" fill="#F0F0F0" />
<rect x="956" y="796" width="4" height="4" fill="#000000" />
<rect x="960" y="796" width="4" height="4" fill="#000000" />
<rect x="996" y="796" width="4" height="4" fill="#000000" />
<rect x="1000" y="796" width="4" height="4" fill="#000000" />
<rect x="1004" y="796" width="4" height="4" fill="#000000" />
<rect x="892" y="800" width="4" height="4" fill="#F0F0F0" />
<rect x="896" y="800" width="4" height="4" fill="#000000" />
<rect x="900" y="800" width="4" height="4" fill="#000000" />
<rect x="904" y="800" width="4" height="4" fill="#F0F0F0" />
<rect x="908" y="800" width="4" height="4" fill="#F0F0F0" />
<rect x="1000" y="800" width="4" height="4" fill="#000000" />
<rect x="1004" y="800" width="4" height="4" fill="#000000" />
<rect x="1008" y="800" width="4" height="4" fill="#000000" />
<rect x="1012" y="800" width="4" height="4" fill="#000000" />
<rect x="892" y="804" width="4" height="4" fill="#F0F0F0" />
<rect x="896" y="804" width="4" height="4" fill="#000000" />
<rect x="900" y="804" width="4" height="4" fill="#F0F0F0" />
<rect x="904" y="804" width="4" height="4" fill="#000000" />
<rect x="908" y="804" width="4" height="4" fill="#F0F0F0" />
<rect x="1000" y="804" width="4" height="4" fill="#000000" />
<rect x="1004" y="804" width="4" height="4" fill="#000000" />
<rect x="1008" y="804" width="4" height="4" fill="#000000" />
<rect x="1012" y="804" width="4" height="4" fill="#000000" />
<rect x="1016" y="804" width="4" height="4" fill="#000000" />
<rect x="892" y="808" width="4" height="4" fill="#F0F0F0" />
<rect x="896" y="808" width="4" height="4" fill="#F0F0F0" />
<rect x="900" y="808" width="4" height="4" fill="#F0F0F0" />
<rect x="904" y="808" width="4" height="4" fill="#F0F0F0" />
<rect x="908" y="808" width="4" height="4" fill="#F0F0F0" />
<rect x="1004" y="808" width="4" height="4" fill="#000000" />
<rect x="1008" y="808" width="4" height="4" fill="#000000" />
<rect x="1012" y="808" width="4" height="4" fill="#000000" />
<rect x="1016" y="808" width="4" height="4" fill="#000000" />
<rect x="1004" y="812" width="4" height="4" fill="#000000" />
<rect x="1008" y="812" width="4" height="4" fill="#000000" />
<rect x="1004" y="816" width="4" height="4" fill="#000000" />
</svg>