<?xml version="1.0" encoding="UTF-8" ?>
<svg version="1.1" width="72" height="220" xmlns="http://www.w3.org/2000/svg" shape-rendering="crispEdges">
<rect x="52" y="0" width="4" height="4" fill="#745659" />
<rect x="32" y="4" width="4" height="4" fill="#745659" />
<rect x="36" y="4" width="4" height="4" fill="#745659" />
<rect x="40" y="4" width="4" height="4" fill="#745659" />
<rect x="44" y="4" width="4" height="4" fill="#745659" />
<rect x="48" y="4" width="4" height="4" fill="#745659" />
<rect x="52" y="4" width="4" height="4" fill="#745659" />
<rect x="28" y="8" width="4" height="4" fill="#745659" />
<rect x="32" y="8" width="4" height="4" fill="#745659" />
<rect x="36" y="8" width="4" height="4" fill="#745659" />
<rect x="40" y="8" width="4" height="4" fill="#745659" />
<rect x="44" y="8" width="4" height="4" fill="#745659" />
<rect x="48" y="8" width="4" height="4" fill="#745659" />
<rect x="28" y="12" width="4" height="4" fill="#5E4547" />
<rect x="32" y="12" width="4" height="4" fill="#745659" />
<rect x="36" y="12" width="4" height="4" fill="#FFE7D8" />
<rect x="40" y="12" width="4" height="4" fill="#FFE7D8" />
<rect x="44" y="12" width="4" height="4" fill="#FFE7D8" />
<rect x="48" y="12" width="4" height="4" fill="#FFE7D8" />
<rect x="28" y="16" width="4" height="4" fill="#5E4547" />
<rect x="32" y="16" width="4" height="4" fill="#5E4547" />
<rect x="36" y="16" width="4" height="4" fill="#FFE7D8" />
<rect x="40" y="16" width="4" height="4" fill="#FFE7D8" />
<rect x="44" y="16" width="4" height="4" fill="#FFE7D8" />
<rect x="48" y="16" width="4" height="4" fill="#FFE7D8" />
<rect x="28" y="20" width="4" height="4" fill="#5E4547" />
<rect x="32" y="20" width="4" height="4" fill="#5E4547" />
<rect x="36" y="20" width="4" height="4" fill="#E5CAAE" />
<rect x="40" y="20" width="4" height="4" fill="#E5CAAE" />
<rect x="44" y="20" width="4" height="4" fill="#FFE7D8" />
<rect x="48" y="20" width="4" height="4" fill="#E5CAAE" />
<rect x="28" y="24" width="4" height="4" fill="#5E4547" />
<rect x="32" y="24" width="4" height="4" fill="#5E4547" />
<rect x="36" y="24" width="4" height="4" fill="#E5CAAE" />
<rect x="40" y="24" width="4" height="4" fill="#E5CAAE" />
<rect x="44" y="24" width="4" height="4" fill="#FFE7D8" />
<rect x="48" y="24" width="4" height="4" fill="#E5CAAE" />
<rect x="32" y="28" width="4" height="4" fill="#E5CAAE" />
<rect x="36" y="28" width="4" height="4" fill="#E5CAAE" />
<rect x="40" y="28" width="4" height="4" fill="#E5CAAE" />
<rect x="44" y="28" width="4" height="4" fill="#FFE7D8" />
<rect x="48" y="28" width="4" height="4" fill="#E5CAAE" />
<rect x="32" y="32" width="4" height="4" fill="#E5CAAE" />
<rect x="36" y="32" width="4" height="4" fill="#E5CAAE" />
<rect x="40" y="32" width="4" height="4" fill="#E5CAAE" />
<rect x="44" y="32" width="4" height="4" fill="#E5CAAE" />
<rect x="48" y="32" width="4" height="4" fill="#E5CAAE" />
<rect x="32" y="36" width="4" height="4" fill="#5E4547" />
<rect x="36" y="36" width="4" height="4" fill="#E5CAAE" />
<rect x="40" y="36" width="4" height="4" fill="#E5CAAE" />
<rect x="44" y="36" width="4" height="4" fill="#E5CAAE" />
<rect x="48" y="36" width="4" height="4" fill="#E5CAAE" />
<rect x="36" y="40" width="4" height="4" fill="#BFAFA0" />
<rect x="40" y="40" width="4" height="4" fill="#E5CAAE" />
<rect x="44" y="40" width="4" height="4" fill="#E5CAAE" />
<rect x="36" y="44" width="4" height="4" fill="#BFAFA0" />
<rect x="40" y="44" width="4" height="4" fill="#BFAFA0" />
<rect x="36" y="48" width="4" height="4" fill="#BFAFA0" />
<rect x="40" y="48" width="4" height="4" fill="#E9D3BD" />
<rect x="28" y="52" width="4" height="4" fill="#366F96" />
<rect x="32" y="52" width="4" height="4" fill="#366F96" />
<rect x="36" y="52" width="4" height="4" fill="#18537C" />
<rect x="40" y="52" width="4" height="4" fill="#18537C" />
<rect x="44" y="52" width="4" height="4" fill="#124365" />
<rect x="48" y="52" width="4" height="4" fill="#18537C" />
<rect x="24" y="56" width="4" height="4" fill="#366F96" />
<rect x="28" y="56" width="4" height="4" fill="#366F96" />
<rect x="32" y="56" width="4" height="4" fill="#366F96" />
<rect x="36" y="56" width="4" height="4" fill="#18537C" />
<rect x="40" y="56" width="4" height="4" fill="#18537C" />
<rect x="44" y="56" width="4" height="4" fill="#18537C" />
<rect x="48" y="56" width="4" height="4" fill="#18537C" />
<rect x="20" y="60" width="4" height="4" fill="#366F96" />
<rect x="24" y="60" width="4" height="4" fill="#366F96" />
<rect x="28" y="60" width="4" height="4" fill="#366F96" />
<rect x="32" y="60" width="4" height="4" fill="#18537C" />
<rect x="36" y="60" width="4" height="4" fill="#18537C" />
<rect x="40" y="60" width="4" height="4" fill="#18537C" />
<rect x="44" y="60" width="4" height="4" fill="#124365" />
<rect x="48" y="60" width="4" height="4" fill="#18537C" />
<rect x="52" y="60" width="4" height="4" fill="#18537C" />
<rect x="16" y="64" width="4" height="4" fill="#366F96" />
<rect x="20" y="64" width="4" height="4" fill="#366F96" />
<rect x="24" y="64" width="4" height="4" fill="#366F96" />
<rect x="28" y="64" width="4" height="4" fill="#18537C" />
<rect x="32" y="64" width="4" height="4" fill="#18537C" />
<rect x="36" y="64" width="4" height="4" fill="#18537C" />
<rect x="40" y="64" width="4" height="4" fill="#18537C" />
<rect x="44" y="64" width="4" height="4" fill="#18537C" />
<rect x="48" y="64" width="4" height="4" fill="#18537C" />
<rect x="52" y="64" width="4" height="4" fill="#18537C" />
<rect x="16" y="68" width="4" height="4" fill="#366F96" />
<rect x="20" y="68" width="4" height="4" fill="#366F96" />
<rect x="24" y="68" width="4" height="4" fill="#18537C" />
<rect x="28" y="68" width="4" height="4" fill="#18537C" />
<rect x="32" y="68" width="4" height="4" fill="#18537C" />
<rect x="36" y="68" width="4" height="4" fill="#18537C" />
<rect x="40" y="68" width="4" height="4" fill="#18537C" />
<rect x="44" y="68" width="4" height="4" fill="#124365" />
<rect x="48" y="68" width="4" height="4" fill="#18537C" />
<rect x="52" y="68" width="4" height="4" fill="#18537C" />
<rect x="56" y="68" width="4" height="4" fill="#18537C" />
<rect x="12" y="72" width="4" height="4" fill="#366F96" />
<rect x="16" y="72" width="4" height="4" fill="#366F96" />
<rect x="20" y="72" width="4" height="4" fill="#366F96" />
<rect x="24" y="72" width="4" height="4" fill="#18537C" />
<rect x="28" y="72" width="4" height="4" fill="#18537C" />
<rect x="32" y="72" width="4" height="4" fill="#18537C" />
<rect x="36" y="72" width="4" height="4" fill="#18537C" />
<rect x="40" y="72" width="4" height="4" fill="#18537C" />
<rect x="44" y="72" width="4" height="4" fill="#18537C" />
<rect x="48" y="72" width="4" height="4" fill="#18537C" />
<rect x="52" y="72" width="4" height="4" fill="#18537C" />
<rect x="56" y="72" width="4" height="4" fill="#18537C" />
<rect x="12" y="76" width="4" height="4" fill="#366F96" />
<rect x="16" y="76" width="4" height="4" fill="#366F96" />
<rect x="20" y="76" width="4" height="4" fill="#18537C" />
<rect x="24" y="76" width="4" height="4" fill="#18537C" />
<rect x="28" y="76" width="4" height="4" fill="#18537C" />
<rect x="32" y="76" width="4" height="4" fill="#18537C" />
<rect x="36" y="76" width="4" height="4" fill="#18537C" />
<rect x="40" y="76" width="4" height="4" fill="#18537C" />
<rect x="44" y="76" width="4" height="4" fill="#18537C" />
<rect x="48" y="76" width="4" height="4" fill="#18537C" />
<rect x="52" y="76" width="4" height="4" fill="#18537C" />
<rect x="56" y="76" width="4" height="4" fill="#18537C" />
<rect x="12" y="80" width="4" height="4" fill="#366F96" />
<rect x="16" y="80" width="4" height="4" fill="#366F96" />
<rect x="20" y="80" width="4" height="4" fill="#18537C" />
<rect x="24" y="80" width="4" height="4" fill="#18537C" />
<rect x="28" y="80" width="4" height="4" fill="#18537C" />
<rect x="32" y="80" width="4" height="4" fill="#18537C" />
<rect x="36" y="80" width="4" height="4" fill="#18537C" />
<rect x="40" y="80" width="4" height="4" fill="#18537C" />
<rect x="44" y="80" width="4" height="4" fill="#18537C" />
<rect x="48" y="80" width="4" height="4" fill="#18537C" />
<rect x="52" y="80" width="4" height="4" fill="#18537C" />
<rect x="56" y="80" width="4" height="4" fill="#18537C" />
<rect x="12" y="84" width="4" height="4" fill="#366F96" />
<rect x="16" y="84" width="4" height="4" fill="#366F96" />
<rect x="20" y="84" width="4" height="4" fill="#18537C" />
<rect x="24" y="84" width="4" height="4" fill="#18537C" />
<rect x="28" y="84" width="4" height="4" fill="#18537C" />
<rect x="32" y="84" width="4" height="4" fill="#18537C" />
<rect x="36" y="84" width="4" height="4" fill="#18537C" />
<rect x="40" y="84" width="4" height="4" fill="#18537C" />
<rect x="44" y="84" width="4" height="4" fill="#18537C" />
<rect x="48" y="84" width="4" height="4" fill="#18537C" />
<rect x="52" y="84" width="4" height="4" fill="#18537C" />
<rect x="56" y="84" width="4" height="4" fill="#18537C" />
<rect x="16" y="88" width="4" height="4" fill="#E5CAAE" />
<rect x="20" y="88" width="4" height="4" fill="#18537C" />
<rect x="24" y="88" width="4" height="4" fill="#18537C" />
<rect x="28" y="88" width="4" height="4" fill="#366F96" />
<rect x="32" y="88" width="4" height="4" fill="#18537C" />
<rect x="36" y="88" width="4" height="4" fill="#18537C" />
<rect x="40" y="88" width="4" height="4" fill="#18537C" />
<rect x="44" y="88" width="4" height="4" fill="#18537C" />
<rect x="48" y="88" width="4" height="4" fill="#18537C" />
<rect x="52" y="88" width="4" height="4" fill="#18537C" />
<rect x="16" y="92" width="4" height="4" fill="#E5CAAE" />
<rect x="24" y="92" width="4" height="4" fill="#18537C" />
<rect x="28" y="92" width="4" height="4" fill="#366F96" />
<rect x="32" y="92" width="4" height="4" fill="#18537C" />
<rect x="36" y="92" width="4" height="4" fill="#18537C" />
<rect x="40" y="92" width="4" height="4" fill="#18537C" />
<rect x="44" y="92" width="4" height="4" fill="#18537C" />
<rect x="48" y="92" width="4" height="4" fill="#18537C" />
<rect x="52" y="92" width="4" height="4" fill="#E5CAAE" />
<rect x="16" y="96" width="4" height="4" fill="#E5CAAE" />
<rect x="24" y="96" width="4" height="4" fill="#366F96" />
<rect x="28" y="96" width="4" height="4" fill="#366F96" />
<rect x="32" y="96" width="4" height="4" fill="#18537C" />
<rect x="36" y="96" width="4" height="4" fill="#18537C" />
<rect x="40" y="96" width="4" height="4" fill="#18537C" />
<rect x="44" y="96" width="4" height="4" fill="#18537C" />
<rect x="48" y="96" width="4" height="4" fill="#18537C" />
<rect x="52" y="96" width="4" height="4" fill="#E5CAAE" />
<rect x="16" y="100" width="4" height="4" fill="#E5CAAE" />
<rect x="24" y="100" width="4" height="4" fill="#366F96" />
<rect x="28" y="100" width="4" height="4" fill="#366F96" />
<rect x="32" y="100" width="4" height="4" fill="#18537C" />
<rect x="36" y="100" width="4" height="4" fill="#18537C" />
<rect x="40" y="100" width="4" height="4" fill="#18537C" />
<rect x="44" y="100" width="4" height="4" fill="#18537C" />
<rect x="48" y="100" width="4" height="4" fill="#18537C" />
<rect x="52" y="100" width="4" height="4" fill="#E5CAAE" />
<rect x="16" y="104" width="4" height="4" fill="#E5CAAE" />
<rect x="24" y="104" width="4" height="4" fill="#366F96" />
<rect x="28" y="104" width="4" height="4" fill="#366F96" />
<rect x="32" y="104" width="4" height="4" fill="#18537C" />
<rect x="36" y="104" width="4" height="4" fill="#18537C" />
<rect x="40" y="104" width="4" height="4" fill="#18537C" />
<rect x="44" y="104" width="4" height="4" fill="#18537C" />
<rect x="48" y="104" width="4" height="4" fill="#18537C" />
<rect x="52" y="104" width="4" height="4" fill="#E5CAAE" />
<rect x="16" y="108" width="4" height="4" fill="#E5CAAE" />
<rect x="24" y="108" width="4" height="4" fill="#366F96" />
<rect x="28" y="108" width="4" height="4" fill="#366F96" />
<rect x="32" y="108" width="4" height="4" fill="#366F96" />
<rect x="36" y="108" width="4" height="4" fill="#18537C" />
<rect x="40" y="108" width="4" height="4" fill="#18537C" />
<rect x="44" y="108" width="4" height="4" fill="#18537C" />
<rect x="48" y="108" width="4" height="4" fill="#18537C" />
<rect x="52" y="108" width="4" height="4" fill="#E5CAAE" />
<rect x="16" y="112" width="4" height="4" fill="#E5CAAE" />
<rect x="24" y="112" width="4" height="4" fill="#366F96" />
<rect x="28" y="112" width="4" height="4" fill="#366F96" />
<rect x="32" y="112" width="4" height="4" fill="#366F96" />
<rect x="36" y="112" width="4" height="4" fill="#18537C" />
<rect x="40" y="112" width="4" height="4" fill="#18537C" />
<rect x="44" y="112" width="4" height="4" fill="#18537C" />
<rect x="48" y="112" width="4" height="4" fill="#18537C" />
<rect x="52" y="112" width="4" height="4" fill="#E5CAAE" />
<rect x="16" y="116" width="4" height="4" fill="#E5CAAE" />
<rect x="24" y="116" width="4" height="4" fill="#366F96" />
<rect x="28" y="116" width="4" height="4" fill="#366F96" />
<rect x="32" y="116" width="4" height="4" fill="#366F96" />
<rect x="36" y="116" width="4" height="4" fill="#18537C" />
<rect x="40" y="116" width="4" height="4" fill="#18537C" />
<rect x="44" y="116" width="4" height="4" fill="#18537C" />
<rect x="48" y="116" width="4" height="4" fill="#18537C" />
<rect x="52" y="116" width="4" height="4" fill="#E5CAAE" />
<rect x="16" y="120" width="4" height="4" fill="#E5CAAE" />
<rect x="24" y="120" width="4" height="4" fill="#366F96" />
<rect x="28" y="120" width="4" height="4" fill="#366F96" />
<rect x="32" y="120" width="4" height="4" fill="#18537C" />
<rect x="36" y="120" width="4" height="4" fill="#124365" />
<rect x="40" y="120" width="4" height="4" fill="#124365" />
<rect x="44" y="120" width="4" height="4" fill="#124365" />
<rect x="48" y="120" width="4" height="4" fill="#124365" />
<rect x="52" y="120" width="4" height="4" fill="#E5CAAE" />
<rect x="16" y="124" width="4" height="4" fill="#E5CAAE" />
<rect x="24" y="124" width="4" height="4" fill="#366F96" />
<rect x="28" y="124" width="4" height="4" fill="#18537C" />
<rect x="32" y="124" width="4" height="4" fill="#9E856D" />
<rect x="36" y="124" width="4" height="4" fill="#9E856D" />
<rect x="40" y="124" width="4" height="4" fill="#9E856D" />
<rect x="44" y="124" width="4" height="4" fill="#9E856D" />
<rect x="48" y="124" width="4" height="4" fill="#9E856D" />
<rect x="52" y="124" width="4" height="4" fill="#E5CAAE" />
<rect x="16" y="128" width="4" height="4" fill="#BFAFA0" />
<rect x="24" y="128" width="4" height="4" fill="#18537C" />
<rect x="28" y="128" width="4" height="4" fill="#9E856D" />
<rect x="32" y="128" width="4" height="4" fill="#9E856D" />
<rect x="36" y="128" width="4" height="4" fill="#9E856D" />
<rect x="40" y="128" width="4" height="4" fill="#9E856D" />
<rect x="44" y="128" width="4" height="4" fill="#9E856D" />
<rect x="48" y="128" width="4" height="4" fill="#9E856D" />
<rect x="52" y="128" width="4" height="4" fill="#BFAFA0" />
<rect x="16" y="132" width="4" height="4" fill="#FFE7D8" />
<rect x="28" y="132" width="4" height="4" fill="#9E856D" />
<rect x="32" y="132" width="4" height="4" fill="#9E856D" />
<rect x="36" y="132" width="4" height="4" fill="#92785F" />
<rect x="40" y="132" width="4" height="4" fill="#92785F" />
<rect x="44" y="132" width="4" height="4" fill="#92785F" />
<rect x="48" y="132" width="4" height="4" fill="#9E856D" />
<rect x="52" y="132" width="4" height="4" fill="#FFE7D8" />
<rect x="16" y="136" width="4" height="4" fill="#FFE7D8" />
<rect x="28" y="136" width="4" height="4" fill="#9E856D" />
<rect x="32" y="136" width="4" height="4" fill="#9E856D" />
<rect x="36" y="136" width="4" height="4" fill="#92785F" />
<rect x="40" y="136" width="4" height="4" fill="#92785F" />
<rect x="44" y="136" width="4" height="4" fill="#92785F" />
<rect x="48" y="136" width="4" height="4" fill="#9E856D" />
<rect x="52" y="136" width="4" height="4" fill="#FFE7D8" />
<rect x="32" y="140" width="4" height="4" fill="#9E856D" />
<rect x="48" y="140" width="4" height="4" fill="#9E856D" />
<rect x="32" y="144" width="4" height="4" fill="#9E856D" />
<rect x="48" y="144" width="4" height="4" fill="#9E856D" />
<rect x="32" y="148" width="4" height="4" fill="#9E856D" />
<rect x="48" y="148" width="4" height="4" fill="#9E856D" />
<rect x="32" y="152" width="4" height="4" fill="#9E856D" />
<rect x="48" y="152" width="4" height="4" fill="#9E856D" />
<rect x="32" y="156" width="4" height="4" fill="#9E856D" />
<rect x="48" y="156" width="4" height="4" fill="#9E856D" />
<rect x="32" y="160" width="4" height="4" fill="#9E856D" />
<rect x="48" y="160" width="4" height="4" fill="#9E856D" />
<rect x="32" y="164" width="4" height="4" fill="#9E856D" />
<rect x="48" y="164" width="4" height="4" fill="#9E856D" />
<rect x="32" y="168" width="4" height="4" fill="#9E856D" />
<rect x="48" y="168" width="4" height="4" fill="#9E856D" />
<rect x="32" y="172" width="4" height="4" fill="#92785F" />
<rect x="48" y="172" width="4" height="4" fill="#92785F" />
<rect x="32" y="176" width="4" height="4" fill="#92785F" />
<rect x="48" y="176" width="4" height="4" fill="#92785F" />
<rect x="32" y="180" width="4" height="4" fill="#92785F" />
<rect x="48" y="180" width="4" height="4" fill="#92785F" />
<rect x="32" y="184" width="4" height="4" fill="#92785F" />
<rect x="48" y="184" width="4" height="4" fill="#92785F" />
<rect x="32" y="188" width="4" height="4" fill="#92785F" />
<rect x="48" y="188" width="4" height="4" fill="#92785F" />
<rect x="32" y="192" width="4" height="4" fill="#92785F" />
<rect x="48" y="192" width="4" height="4" fill="#92785F" />
<rect x="32" y="196" width="4" height="4" fill="#92785F" />
<rect x="48" y="196" width="4" height="4" fill="#92785F" />
<rect x="32" y="200" width="4" height="4" fill="#92785F" />
<rect x="48" y="200" width="4" height="4" fill="#92785F" />
<rect x="32" y="204" width="4" height="4" fill="#92785F" />
<rect x="48" y="204" width="4" height="4" fill="#92785F" />
<rect x="28" y="208" width="4" height="4" fill="#745659" />
<rect x="32" y="208" width="4" height="4" fill="#5E4547" />
<rect x="44" y="208" width="4" height="4" fill="#5E4547" />
<rect x="48" y="208" width="4" height="4" fill="#4F393B" />
<rect x="28" y="212" width="4" height="4" fill="#745659" />
<rect x="32" y="212" width="4" height="4" fill="#745659" />
<rect x="36" y="212" width="4" height="4" fill="#745659" />
<rect x="40" y="212" width="4" height="4" fill="#745659" />
<rect x="44" y="212" width="4" height="4" fill="#5E4547" />
<rect x="48" y="212" width="4" height="4" fill="#5E4547" />
<rect x="52" y="212" width="4" height="4" fill="#5E4547" />
<rect x="56" y="212" width="4" height="4" fill="#5E4547" />
<rect x="28" y="216" width="4" height="4" fill="#5E4547" />
<rect x="32" y="216" width="4" height="4" fill="#5E4547" />
<rect x="36" y="216" width="4" height="4" fill="#5E4547" />
<rect x="40" y="216" width="4" height="4" fill="#5E4547" />
<rect x="44" y="216" width="4" height="4" fill="#4F393B" />
<rect x="48" y="216" width="4" height="4" fill="#4F393B" />
<rect x="52" y="216" width="4" height="4" fill="#4F393B" />
<rect x="56" y="216" width="4" height="4" fill="#4F393B" />
</svg>