<?xml version="1.0" encoding="utf-8"?>
<!-- Generator: Adobe Illustrator 24.2.0, SVG Export Plug-In . SVG Version: 6.00 Build 0)  -->
<svg version="1.1" id="圖層_1" shape-rendering="crispEdges"
	 xmlns="http://www.w3.org/2000/svg" xmlns:xlink="http://www.w3.org/1999/xlink" x="0px" y="0px" viewBox="0 0 36 36"
	 style="enable-background:new 0 0 36 36;" xml:space="preserve">
<style type="text/css">
	.st0{fill:#FFEA00;}
	.st1{fill:#DBBA25;}
	.st2{fill:#344152;}
</style>
<path class="st0" d="M24,8V4h-4h-4h-4v4H8v4H4v4v4v4h4v4h4h4h4h4v-4h4v-4v-4v-4V8H24z M24,16h-4v4h-4v4h-4v-4H8v-4h4v4h4v-4h4v-4h4
	V16z"/>
<g>
	<polygon class="st1" points="28,12 28,16 28,20 28,24 32,24 32,20 32,16 32,12 	"/>
	<rect x="24" y="24" class="st1" width="4" height="4"/>
	<polygon class="st1" points="16,28 12,28 12,32 16,32 20,32 24,32 24,28 20,28 	"/>
</g>
<g>
	<path class="st2" d="M32,8V4h-4V0h-4h-4h-4h-4H8v4H4v4H0v4v4v4v4v4h4v4h4v4h4h4h4h4h4v-4h4v-4h4v-4v-4v-4v-4V8H32z M32,16v4v4h-4v4
		h-4v4h-4h-4h-4v-4H8v-4H4v-4v-4v-4h4V8h4V4h4h4h4v4h4v4h4V16z"/>
	<rect x="20" y="12" class="st2" width="4" height="4"/>
	<rect x="8" y="16" class="st2" width="4" height="4"/>
	<rect x="16" y="16" class="st2" width="4" height="4"/>
	<rect x="12" y="20" class="st2" width="4" height="4"/>
</g>
</svg>
