<?xml version="1.0" encoding="utf-8"?>
<!-- Generator: Adobe Illustrator 24.2.0, SVG Export Plug-In . SVG Version: 6.00 Build 0)  -->
<svg version="1.1" id="圖層_1" shape-rendering="crispEdges"
	 xmlns="http://www.w3.org/2000/svg" xmlns:xlink="http://www.w3.org/1999/xlink" x="0px" y="0px" viewBox="0 0 100 48"
	 style="enable-background:new 0 0 100 48;" xml:space="preserve">
<style type="text/css">
	.st0{fill:#E2EFFF;}
	.st1{fill:#33363B;}
	.st2{fill:#9BA8B8;}
	.st3{fill:#BFCFE2;}
	.st4{fill:#44484E;}
</style>
<polygon class="st0" points="88,4 84,4 80,4 76,4 72,4 68,4 64,4 60,4 56,4 52,4 48,4 44,4 40,4 36,4 32,4 28,4 24,4 20,4 16,4 
	12,4 8,4 4,4 4,8 4,12 4,16 4,20 4,24 4,28 4,32 4,36 4,40 8,40 12,40 16,40 20,40 24,40 28,40 32,40 36,40 40,40 44,40 48,40 
	52,40 56,40 60,40 64,40 68,40 72,40 76,40 80,40 84,40 88,40 92,40 92,36 92,32 92,28 92,24 92,20 92,16 92,12 92,8 92,4 "/>
<g>
	<rect x="92" y="0" class="st1" width="4" height="4"/>
	<polygon class="st1" points="96,4 96,8 96,12 96,16 96,20 96,24 96,28 96,32 96,36 96,40 100,40 100,36 100,32 100,28 100,24 
		100,20 100,16 100,12 100,8 100,4 	"/>
</g>
<g>
	<polygon class="st2" points="80,0 76,0 72,0 72,4 76,4 80,4 84,4 88,4 88,0 84,0 	"/>
	<polygon class="st2" points="92,8 92,12 92,16 92,20 92,24 92,28 92,32 92,36 96,36 96,32 96,28 96,24 96,20 96,16 96,12 96,8 	"/>
	<polygon class="st2" points="4,32 4,28 0,28 0,32 0,36 0,40 4,40 4,36 	"/>
	<rect x="4" y="40" class="st2" width="4" height="4"/>
	<polygon class="st2" points="72,40 68,40 64,40 60,40 56,40 52,40 48,40 44,40 40,40 36,40 32,40 28,40 24,40 20,40 16,40 16,44 
		20,44 24,44 28,44 32,44 36,44 40,44 44,44 48,44 52,44 56,44 60,44 64,44 68,44 72,44 76,44 80,44 80,40 76,40 	"/>
</g>
<g>
	<polygon class="st3" points="64,0 60,0 56,0 52,0 48,0 44,0 40,0 36,0 32,0 28,0 24,0 20,0 16,0 12,0 8,0 4,0 4,4 8,4 12,4 16,4 
		20,4 24,4 28,4 32,4 36,4 40,4 44,4 48,4 52,4 56,4 60,4 64,4 68,4 72,4 72,0 68,0 	"/>
	<polygon class="st3" points="0,12 0,16 0,20 0,24 0,28 4,28 4,24 4,20 4,16 4,12 4,8 0,8 	"/>
	<polygon class="st3" points="8,40 8,44 12,44 16,44 16,40 12,40 	"/>
	<polygon class="st3" points="88,40 84,40 80,40 80,44 84,44 88,44 92,44 92,40 	"/>
	<g>
		<rect x="88" y="0" class="st3" width="4" height="4"/>
		<rect y="4" class="st3" width="4" height="4"/>
		<rect x="92" y="4" class="st3" width="4" height="4"/>
		<rect x="92" y="36" class="st3" width="4" height="4"/>
	</g>
</g>
<g>
	<rect y="40" class="st4" width="4" height="4"/>
	<rect x="92" y="40" class="st4" width="4" height="4"/>
	<polygon class="st4" points="84,44 80,44 76,44 72,44 68,44 64,44 60,44 56,44 52,44 48,44 44,44 40,44 36,44 32,44 28,44 24,44 
		20,44 16,44 12,44 8,44 8,48 12,48 16,48 20,48 24,48 28,48 32,48 36,48 40,48 44,48 48,48 52,48 56,48 60,48 64,48 68,48 72,48 
		76,48 80,48 84,48 88,48 92,48 92,44 88,44 	"/>
</g>
</svg>
