<?xml version="1.0" encoding="utf-8"?>
<!-- Generator: Adobe Illustrator 24.2.0, SVG Export Plug-In . SVG Version: 6.00 Build 0)  -->
<svg version="1.1" id="圖層_1" shape-rendering="crispEdges"
	 xmlns="http://www.w3.org/2000/svg" xmlns:xlink="http://www.w3.org/1999/xlink" x="0px" y="0px" viewBox="0 0 88 92"
	 style="enable-background:new 0 0 88 92;" xml:space="preserve">
<style type="text/css">
	.st0{fill:#A88F1E;}
	.st1{fill:#FFEA00;}
	.st2{fill:#DBBA25;}
	.st3{fill:#FFE25B;}
	.st4{fill:#FFF9BB;}
	.st5{fill:#5E5044;}
	.st6{fill:#DDDDDD;}
	.st7{fill:#878585;}
</style>
<g>
	<rect x="32" y="32" class="st0" width="4" height="4"/>
	<rect x="36" y="36" class="st0" width="4" height="4"/>
</g>
<g>
	<rect x="36" y="12" class="st1" width="4" height="4"/>
	<rect x="24" y="16" class="st1" width="4" height="4"/>
	<rect x="44" y="20" class="st1" width="4" height="4"/>
	<rect x="20" y="28" class="st1" width="4" height="4"/>
	<rect x="48" y="28" class="st1" width="4" height="4"/>
	<rect x="20" y="36" class="st1" width="4" height="4"/>
	<rect x="28" y="44" class="st1" width="4" height="4"/>
</g>
<g>
	<rect x="36" y="28" class="st2" width="4" height="4"/>
	<rect x="32" y="36" class="st2" width="4" height="4"/>
	<rect x="40" y="52" class="st2" width="4" height="4"/>
	<polygon class="st2" points="36,60 36,64 40,64 40,60 40,56 36,56 	"/>
	<rect x="44" y="56" class="st2" width="4" height="4"/>
</g>
<g>
	<polygon class="st3" points="36,28 36,24 32,24 32,28 28,28 28,32 32,32 36,32 	"/>
	<polygon class="st3" points="40,36 40,40 44,40 44,36 44,32 40,32 36,32 36,36 	"/>
	<rect x="36" y="40" class="st3" width="4" height="4"/>
	<rect x="44" y="44" class="st3" width="4" height="4"/>
	<polygon class="st3" points="36,52 36,56 40,56 40,52 40,48 36,48 	"/>
	<rect x="48" y="48" class="st3" width="4" height="4"/>
	<rect x="64" y="48" class="st3" width="4" height="4"/>
	<polygon class="st3" points="56,52 52,52 52,56 56,56 60,56 64,56 64,52 60,52 	"/>
	<rect x="48" y="60" class="st3" width="4" height="4"/>
	<rect x="36" y="64" class="st3" width="4" height="4"/>
	<rect x="52" y="64" class="st3" width="4" height="4"/>
	<rect x="40" y="68" class="st3" width="4" height="4"/>
	<polygon class="st3" points="56,68 56,72 60,72 64,72 64,68 60,68 	"/>
	<rect x="44" y="72" class="st3" width="4" height="4"/>
</g>
<g>
	<rect x="28" y="24" class="st4" width="4" height="4"/>
	<polygon class="st4" points="44,24 40,24 40,20 36,20 32,20 32,24 36,24 36,28 40,28 40,32 44,32 44,28 	"/>
	<polygon class="st4" points="32,32 28,32 28,36 28,40 32,40 32,36 	"/>
	<polygon class="st4" points="44,36 44,40 48,40 48,36 48,32 44,32 	"/>
	<rect x="32" y="40" class="st4" width="4" height="4"/>
	<polygon class="st4" points="40,44 36,44 36,48 40,48 44,48 44,44 44,40 40,40 	"/>
	<rect x="68" y="44" class="st4" width="4" height="4"/>
	<rect x="64" y="68" class="st4" width="4" height="4"/>
	<rect x="44" y="76" class="st4" width="4" height="4"/>
</g>
<path class="st5" d="M80,32v-4v-4h-4v-4v-4h-4v-4h-4h-4V8h-4h-4V4h-4h-4h-4h-4h-4h-4v4h-4h-4v4h-4h-4v4h-4v4v4H8v4v4H4v4v4v4v4v4v4
	h4v4v4h4v4v4h4v4h4h4v4h4h4v4h4h4h4h4h4h4v-4h4h4v-4h4h4v-4h4v-4v-4h4v-4v-4h4v-4v-4v-4v-4v-4v-4H80z M36,12h4v4h-4V12z M28,16v4h-4
	v-4H28z M24,32h-4v-4h4V32z M24,40h-4v-4h4V40z M64,72h-4h-4v-4h-4v-4h-4v-4h-4v-4h-4v4v4v4h4v4h4v4v4h-4v-4v-4h-4v-4h-4v-4v-4v-4
	v-4v-4v-4h-4v4h-4v-4h4v-4h-4v-4v-4v-4v-4h4v-4h4h4v4h4v-4h4v4h-4v4v4h4v-4h4v4h-4v4v4h-4v4h4v4h4v4h4h4h4v-4h4v-4h4v4h-4v4h-4v4h-4
	h-4h-4v-4h-4v-4h-4h-4v4h4v4h4v4h4v4h4v4h4h4h4v4H64z"/>
<g>
	<polygon class="st6" points="40,4 44,4 48,4 52,4 56,4 56,0 52,0 48,0 44,0 40,0 36,0 32,0 32,4 36,4 	"/>
	<polygon class="st6" points="32,8 32,4 28,4 24,4 24,8 28,8 	"/>
	<polygon class="st6" points="60,8 64,8 64,4 60,4 56,4 56,8 	"/>
	<polygon class="st6" points="24,12 24,8 20,8 16,8 16,12 20,12 	"/>
	<polygon class="st6" points="68,12 72,12 72,8 68,8 64,8 64,12 	"/>
	<rect x="12" y="12" class="st6" width="4" height="4"/>
	<rect x="72" y="12" class="st6" width="4" height="4"/>
	<polygon class="st6" points="12,20 12,16 8,16 8,20 8,24 12,24 	"/>
	<polygon class="st6" points="76,24 80,24 80,20 80,16 76,16 76,20 	"/>
	<polygon class="st6" points="8,28 8,24 4,24 4,28 4,32 8,32 	"/>
	<polygon class="st6" points="80,32 84,32 84,28 84,24 80,24 80,28 	"/>
	<polygon class="st6" points="84,32 84,36 84,40 84,44 84,48 84,52 84,56 88,56 88,52 88,48 88,44 88,40 88,36 88,32 	"/>
	<polygon class="st6" points="4,48 4,44 4,40 4,36 4,32 0,32 0,36 0,40 0,44 0,48 0,52 0,56 4,56 4,52 	"/>
	<polygon class="st6" points="8,56 4,56 4,60 4,64 8,64 8,60 	"/>
	<polygon class="st6" points="80,60 80,64 84,64 84,60 84,56 80,56 	"/>
	<polygon class="st6" points="12,64 8,64 8,68 8,72 12,72 12,68 	"/>
	<polygon class="st6" points="76,68 76,72 80,72 80,68 80,64 76,64 	"/>
	<rect x="72" y="72" class="st6" width="4" height="4"/>
	<polygon class="st6" points="64,76 64,80 68,80 72,80 72,76 68,76 	"/>
	<polygon class="st6" points="56,80 56,84 60,84 64,84 64,80 60,80 	"/>
	<polygon class="st6" points="48,84 44,84 40,84 36,84 32,84 32,80 28,80 24,80 24,76 20,76 16,76 16,72 12,72 12,76 8,76 8,80 
		4,80 4,84 0,84 0,88 4,88 8,88 12,88 16,88 20,88 24,88 28,88 32,88 36,88 40,88 44,88 48,88 52,88 56,88 56,84 52,84 	"/>
</g>
<g>
	<polygon class="st7" points="84,56 84,60 84,64 88,64 88,60 88,56 	"/>
	<polygon class="st7" points="80,68 80,72 84,72 84,68 84,64 80,64 	"/>
	<rect x="76" y="72" class="st7" width="4" height="4"/>
	<rect x="72" y="76" class="st7" width="4" height="4"/>
	<polygon class="st7" points="64,80 64,84 68,84 72,84 72,80 68,80 	"/>
	<polygon class="st7" points="56,84 56,88 60,88 64,88 64,84 60,84 	"/>
	<polygon class="st7" points="48,88 44,88 40,88 36,88 32,88 28,88 24,88 20,88 16,88 12,88 8,88 4,88 0,88 0,92 4,92 8,92 12,92 
		16,92 20,92 24,92 28,92 32,92 36,92 40,92 44,92 48,92 52,92 56,92 56,88 52,88 	"/>
</g>
</svg>
