<?xml version="1.0" encoding="utf-8"?>
<!-- Generator: Adobe Illustrator 24.2.0, SVG Export Plug-In . SVG Version: 6.00 Build 0)  -->
<svg version="1.1" id="圖層_1" shape-rendering="crispEdges"
	 xmlns="http://www.w3.org/2000/svg" xmlns:xlink="http://www.w3.org/1999/xlink" x="0px" y="0px" viewBox="0 0 72 20"
	 style="enable-background:new 0 0 72 20;" xml:space="preserve">
<style type="text/css">
	.st0{fill:#FFEA00;}
	.st1{fill:#DBBA25;}
</style>
<polygon class="st0" points="68,4 68,0 64,0 60,0 60,8 12,8 12,0 8,0 4,0 4,4 0,4 0,8 4,8 4,12 8,12 12,12 16,12 16,16 20,16 24,16 
	28,16 32,16 36,16 40,16 44,16 48,16 52,16 56,16 56,12 60,12 64,12 68,12 68,8 72,8 72,4 "/>
<g>
	<rect y="8" class="st1" width="4" height="4"/>
	<rect x="68" y="8" class="st1" width="4" height="4"/>
	<polygon class="st1" points="12,12 8,12 4,12 4,16 8,16 12,16 16,16 16,12 	"/>
	<polygon class="st1" points="60,12 56,12 56,16 60,16 64,16 68,16 68,12 64,12 	"/>
	<polygon class="st1" points="48,16 44,16 40,16 36,16 32,16 28,16 24,16 20,16 16,16 16,20 20,20 24,20 28,20 32,20 36,20 40,20 
		44,20 48,20 52,20 56,20 56,16 52,16 	"/>
</g>
<g id="YtUDDN.tif">
	
		<image style="overflow:visible;enable-background:new    ;" width="14" height="11" id="Layer_0" xlink:href="76086E807CB3863B.png"  transform="matrix(0.9663 0 0 0.9663 290.2358 379.5751)">
	</image>
</g>
</svg>
