<?xml version="1.0" encoding="utf-8"?>
<!-- Generator: Adobe Illustrator 24.2.0, SVG Export Plug-In . SVG Version: 6.00 Build 0)  -->
<svg version="1.1" id="圖層_1" shape-rendering="crispEdges"
	 xmlns="http://www.w3.org/2000/svg" xmlns:xlink="http://www.w3.org/1999/xlink" x="0px" y="0px" viewBox="0 0 88 107.1"
	 style="enable-background:new 0 0 88 107.1;" xml:space="preserve">
<style type="text/css">
	.st0{fill:#961515;}
	.st1{fill:#B02020;}
	.st2{fill:#FFAC83;}
	.st3{fill:#9B1717;}
	.st4{fill:#E13030;}
	.st5{fill:#344152;}
	.st6{fill:#F0C4A3;}
	.st7{fill:#B0896C;}
	.st8{fill:#DDDDDD;}
	.st9{fill:#878585;}
</style>
<rect x="56" y="36" class="st0" width="4" height="4"/>
<rect x="64" y="36" class="st1" width="4" height="4"/>
<g>
	<rect x="40" y="16" class="st2" width="4" height="4"/>
	<rect x="16" y="40" class="st2" width="4" height="4"/>
	<rect x="64" y="40" class="st2" width="4" height="4"/>
</g>
<g>
	<polygon class="st3" points="52,40 48,40 48,44 44,44 44,40 40,40 40,36 40,32 40,28 36,28 36,32 36,36 36,40 36,44 40,44 40,48 
		44,48 44,52 48,52 48,48 52,48 52,44 56,44 56,40 	"/>
	<rect x="32" y="48" class="st3" width="4" height="4"/>
	<rect x="36" y="52" class="st3" width="4" height="4"/>
</g>
<g>
	<polygon class="st4" points="40,20 36,20 36,24 36,28 40,28 40,24 	"/>
	<polygon class="st4" points="44,32 44,28 40,28 40,32 40,36 40,40 44,40 44,36 	"/>
	<polygon class="st4" points="60,32 56,32 52,32 52,36 48,36 48,40 52,40 56,40 56,36 60,36 64,36 64,32 	"/>
	<rect x="44" y="40" class="st4" width="4" height="4"/>
	<polygon class="st4" points="40,44 36,44 36,40 32,40 32,36 28,36 24,36 20,36 20,40 24,40 28,40 28,44 32,44 32,48 36,48 36,52 
		40,52 40,56 44,56 44,52 44,48 40,48 	"/>
</g>
<polygon class="st5" points="80,32 80,28 80,24 76,24 76,20 76,16 72,16 72,12 68,12 64,12 64,8 60,8 56,8 56,4 52,4 48,4 44,4 
	40,4 36,4 32,4 32,8 28,8 24,8 24,12 20,12 16,12 16,16 12,16 12,20 12,24 8,24 8,28 8,32 4,32 4,36 4,40 4,44 4,48 4,52 4,56 8,56 
	8,60 8,64 12,64 12,68 12,72 16,72 16,76 20,76 20,80 24,80 28,80 28,84 36,84 40,84 44,84 48,84 48,80 48,76 44,76 44,72 44,68 
	40,68 40,64 40,60 36,60 36,56 36,52 32,52 32,48 32,44 28,44 28,40 24,40 20,40 20,44 16,44 16,40 20,40 20,36 24,36 28,36 32,36 
	32,40 36,40 36,36 36,32 36,28 36,24 36,20 40,20 40,16 44,16 44,20 40,20 40,24 40,28 44,28 44,32 44,36 44,40 48,40 48,36 52,36 
	52,32 56,32 60,32 64,32 64,36 68,36 68,40 68,44 64,44 64,40 64,36 60,36 60,40 56,40 56,44 52,44 52,48 48,48 48,52 52,52 52,56 
	56,56 56,60 56,64 60,64 60,68 60,72 60,76 64,76 68,76 72,76 72,72 76,72 76,68 76,64 80,64 80,60 80,56 84,56 84,52 84,48 84,44 
	84,40 84,36 84,32 "/>
<g>
	<rect x="48" y="52" class="st6" width="4" height="4"/>
	<polygon class="st6" points="44,64 44,60 48,60 48,56 44,56 40,56 36,56 36,60 40,60 40,64 	"/>
	<rect x="56" y="64" class="st6" width="4" height="4"/>
	<rect x="52" y="68" class="st6" width="4" height="4"/>
	<polygon class="st6" points="44,72 44,76 48,76 52,76 52,72 48,72 	"/>
	<rect x="48" y="80" class="st6" width="4" height="4"/>
</g>
<g>
	<rect x="44" y="52" class="st7" width="4" height="4"/>
	<polygon class="st7" points="56,68 56,64 56,60 56,56 52,56 48,56 48,60 44,60 44,64 40,64 40,68 44,68 44,72 48,72 52,72 52,68 	
		"/>
	<polygon class="st7" points="60,76 60,72 60,68 56,68 56,72 52,72 52,76 48,76 48,80 52,80 52,84 56,84 56,80 60,80 64,80 64,76 	
		"/>
</g>
<g>
	<polygon class="st8" points="40,4 44,4 48,4 52,4 56,4 56,0 52,0 48,0 44,0 40,0 36,0 32,0 32,4 36,4 	"/>
	<polygon class="st8" points="32,8 32,4 28,4 24,4 24,8 28,8 	"/>
	<polygon class="st8" points="60,8 64,8 64,4 60,4 56,4 56,8 	"/>
	<polygon class="st8" points="24,12 24,8 20,8 16,8 16,12 20,12 	"/>
	<polygon class="st8" points="68,12 72,12 72,8 68,8 64,8 64,12 	"/>
	<rect x="12" y="12" class="st8" width="4" height="4"/>
	<rect x="72" y="12" class="st8" width="4" height="4"/>
	<polygon class="st8" points="12,20 12,16 8,16 8,20 8,24 12,24 	"/>
	<polygon class="st8" points="76,24 80,24 80,20 80,16 76,16 76,20 	"/>
	<polygon class="st8" points="8,28 8,24 4,24 4,28 4,32 8,32 	"/>
	<polygon class="st8" points="80,32 84,32 84,28 84,24 80,24 80,28 	"/>
	<polygon class="st8" points="84,32 84,36 84,40 84,44 84,48 84,52 84,56 88,56 88,52 88,48 88,44 88,40 88,36 88,32 	"/>
	<polygon class="st8" points="4,48 4,44 4,40 4,36 4,32 0,32 0,36 0,40 0,44 0,48 0,52 0,56 4,56 4,52 	"/>
	<polygon class="st8" points="8,56 4,56 4,60 4,64 8,64 8,60 	"/>
	<polygon class="st8" points="80,60 80,64 84,64 84,60 84,56 80,56 	"/>
	<polygon class="st8" points="12,64 8,64 8,68 8,72 12,72 12,68 	"/>
	<polygon class="st8" points="76,68 76,72 80,72 80,68 80,64 76,64 	"/>
	<rect x="12" y="72" class="st8" width="4" height="4"/>
	<rect x="72" y="72" class="st8" width="4" height="4"/>
	<rect x="16" y="76" class="st8" width="4" height="4"/>
	<polygon class="st8" points="64,76 64,80 68,80 72,80 72,76 68,76 	"/>
	<polygon class="st8" points="24,80 20,80 20,84 24,84 28,84 28,80 	"/>
	<polygon class="st8" points="56,80 56,84 52,84 48,84 44,84 40,84 36,84 32,84 28,84 28,88 32,88 36,88 36,92 40,92 40,96 40,100 
		44,100 44,104 44,108 48,108 48,104 48,100 52,100 52,96 52,92 56,92 56,88 60,88 60,84 64,84 64,80 60,80 	"/>
</g>
<g>
	<polygon class="st9" points="84,56 84,60 84,64 88,64 88,60 88,56 	"/>
	<polygon class="st9" points="80,68 80,72 84,72 84,68 84,64 80,64 	"/>
	<rect x="76" y="72" class="st9" width="4" height="4"/>
	<rect x="72" y="76" class="st9" width="4" height="4"/>
	<polygon class="st9" points="64,80 64,84 68,84 72,84 72,80 68,80 	"/>
	<rect x="60" y="84" class="st9" width="4" height="4"/>
	<rect x="56" y="88" class="st9" width="4" height="4"/>
	<polygon class="st9" points="52,96 52,100 56,100 56,96 56,92 52,92 	"/>
	<polygon class="st9" points="48,104 48,108 52,108 52,104 52,100 48,100 	"/>
</g>
</svg>
