<?xml version="1.0" encoding="utf-8"?>
<!-- Generator: Adobe Illustrator 24.2.0, SVG Export Plug-In . SVG Version: 6.00 Build 0)  -->
<svg version="1.1" id="圖層_1" shape-rendering="crispEdges"
	 xmlns="http://www.w3.org/2000/svg" xmlns:xlink="http://www.w3.org/1999/xlink" x="0px" y="0px" viewBox="0 0 72 52"
	 style="enable-background:new 0 0 72 52;" xml:space="preserve">
<style type="text/css">
	.st0{fill:#18537C;}
	.st1{fill:#366F96;}
	.st2{fill:#DDDDDD;}
	.st3{fill:#5D636A;}
	.st4{fill:#9BA8B8;}
	.st5{fill:#878585;}
	.st6{fill:#BFBCBC;}
	.st7{fill:#D6C8BA;}
	.st8{fill:#A0B492;}
</style>
<polygon class="st0" points="40,4 36,4 32,4 28,4 28,8 28,12 24,12 24,8 24,4 20,4 20,8 16,8 16,12 12,12 12,16 8,16 8,20 12,20 
	16,20 20,20 24,20 28,20 32,20 32,16 36,16 36,12 40,12 40,8 44,8 44,4 "/>
<g>
	<polygon class="st1" points="48,4 44,4 44,8 48,8 52,8 52,4 	"/>
	<rect x="40" y="8" class="st1" width="4" height="4"/>
	<rect x="52" y="8" class="st1" width="4" height="4"/>
	<rect x="36" y="12" class="st1" width="4" height="4"/>
	<rect x="56" y="12" class="st1" width="4" height="4"/>
	<rect x="32" y="16" class="st1" width="4" height="4"/>
	<rect x="60" y="16" class="st1" width="4" height="4"/>
</g>
<polygon class="st2" points="56,16 56,12 52,12 52,8 48,8 44,8 44,12 40,12 40,16 36,16 36,20 32,20 32,24 32,28 36,28 40,28 40,24 
	40,20 44,20 44,24 44,28 48,28 52,28 52,24 52,20 56,20 56,24 56,28 60,28 60,24 60,20 60,16 "/>
<g>
	<polygon class="st3" points="40,24 40,28 40,32 40,36 44,36 44,32 44,28 44,24 44,20 40,20 	"/>
	<polygon class="st3" points="52,20 52,24 52,28 52,32 52,36 56,36 56,32 56,28 56,24 56,20 	"/>
	<polygon class="st3" points="20,24 16,24 16,28 20,28 24,28 28,28 28,24 24,24 	"/>
	<polygon class="st3" points="16,32 16,36 16,40 20,40 24,40 24,36 24,32 20,32 	"/>
</g>
<polygon class="st4" points="24,32 24,36 24,40 28,40 28,36 28,32 "/>
<g>
	<polygon class="st5" points="28,8 28,4 28,0 24,0 24,4 24,8 24,12 28,12 	"/>
	<path class="st5" d="M28,20h-4h-4h-4h-4v4v4v4v4v4h4v-4v-4h4h4h4v4v4h4v-4v-4v-4v-4v-4H28z M28,28h-4h-4h-4v-4h4h4h4V28z"/>
</g>
<polygon class="st6" points="56,28 56,32 56,36 52,36 52,32 52,28 48,28 44,28 44,32 44,36 40,36 40,32 40,28 36,28 32,28 32,32 
	32,36 32,40 36,40 40,40 44,40 48,40 52,40 56,40 60,40 60,36 60,32 60,28 "/>
<polygon class="st7" points="68,36 68,32 64,32 60,32 60,36 60,40 56,40 52,40 48,40 44,40 40,40 36,40 32,40 28,40 24,40 20,40 
	16,40 12,40 12,36 12,32 8,32 4,32 4,36 0,36 0,40 4,40 4,44 8,44 12,44 16,44 16,48 20,48 24,48 28,48 32,48 36,48 40,48 44,48 
	48,48 52,48 56,48 56,44 60,44 64,44 68,44 68,40 72,40 72,36 "/>
<g>
	<rect y="40" class="st8" width="4" height="4"/>
	<rect x="68" y="40" class="st8" width="4" height="4"/>
	<polygon class="st8" points="12,44 8,44 4,44 4,48 8,48 12,48 16,48 16,44 	"/>
	<polygon class="st8" points="60,44 56,44 56,48 60,48 64,48 68,48 68,44 64,44 	"/>
	<polygon class="st8" points="48,48 44,48 40,48 36,48 32,48 28,48 24,48 20,48 16,48 16,52 20,52 24,52 28,52 32,52 36,52 40,52 
		44,52 48,52 52,52 56,52 56,48 52,48 	"/>
</g>
</svg>
