<?xml version="1.0" encoding="utf-8"?>
<!-- Generator: Adobe Illustrator 24.2.0, SVG Export Plug-In . SVG Version: 6.00 Build 0)  -->
<svg version="1.1" id="圖層_1" shape-rendering="crispEdges"
	 xmlns="http://www.w3.org/2000/svg" xmlns:xlink="http://www.w3.org/1999/xlink" x="0px" y="0px" viewBox="0 0 76 68"
	 style="enable-background:new 0 0 76 68;" xml:space="preserve">
<style type="text/css">
	.st0{fill:#FFE25B;}
	.st1{fill:#BFCFE2;}
	.st2{fill:#9BA8B8;}
	.st3{fill:#44484E;}
	.st4{fill:#798594;}
	.st5{fill:#366F96;}
	.st6{fill:#18537C;}
	.st7{fill:#124365;}
	.st8{fill:#FFD40E;}
	.st9{fill:#A87D22;}
	.st10{fill:#BDA120;}
	.st11{fill:#3D5568;}
	.st12{fill:#403536;}
	.st13{fill:#3F5B6F;}
	.st14{fill:#4E6C83;}
	.st15{fill:#59768D;}
	.st16{fill:#63829A;}
	.st17{fill:#315976;}
	.st18{fill:#3B6583;}
	.st19{fill:#4D5F72;}
	.st20{fill:#5C6A62;}
	.st21{fill:#637461;}
</style>
<polygon class="st0" points="24,0 20,0 20,4 24,4 28,4 28,0 "/>
<rect x="16" y="8" class="st1" width="4" height="4"/>
<rect x="12" y="12" class="st2" width="4" height="4"/>
<rect x="36" y="12" class="st1" width="4" height="4"/>
<rect x="40" y="16" class="st1" width="4" height="4"/>
<rect x="36" y="28" class="st2" width="4" height="4"/>
<g>
	<rect x="60" y="16" class="st3" width="4" height="4"/>
	<rect x="56" y="20" class="st3" width="4" height="4"/>
	<rect x="64" y="20" class="st3" width="4" height="4"/>
	<rect x="52" y="24" class="st3" width="4" height="4"/>
	<rect x="68" y="24" class="st3" width="4" height="4"/>
	<rect x="48" y="28" class="st3" width="4" height="4"/>
</g>
<polygon class="st4" points="72,24 72,28 68,28 68,32 72,32 76,32 76,28 76,24 "/>
<g>
	<rect x="12" y="8" class="st5" width="4" height="4"/>
	<rect x="40" y="12" class="st5" width="4" height="4"/>
	<polygon class="st5" points="36,16 36,12 40,12 40,8 36,8 36,4 32,4 32,8 28,8 24,8 20,8 20,12 16,12 16,16 12,16 12,12 8,12 8,16 
		8,20 8,24 12,24 12,28 16,28 16,32 20,32 20,36 24,36 28,36 32,36 32,32 36,32 36,28 40,28 44,28 44,24 44,20 40,20 40,16 	"/>
</g>
<rect x="32" y="32" class="st2" width="4" height="4"/>
<g>
	<rect x="12" y="4" class="st6" width="4" height="4"/>
	<rect x="8" y="8" class="st6" width="4" height="4"/>
	<polygon class="st6" points="8,16 8,12 4,12 4,16 4,20 4,24 8,24 8,20 	"/>
	<rect x="8" y="24" class="st6" width="4" height="4"/>
	<rect x="12" y="28" class="st6" width="4" height="4"/>
	<rect x="40" y="28" class="st6" width="4" height="4"/>
	<rect x="16" y="32" class="st6" width="4" height="4"/>
	<rect x="36" y="32" class="st6" width="4" height="4"/>
</g>
<g>
	<rect x="4" y="24" class="st7" width="4" height="4"/>
	<rect x="8" y="28" class="st7" width="4" height="4"/>
	<rect x="12" y="32" class="st7" width="4" height="4"/>
	<rect x="40" y="32" class="st7" width="4" height="4"/>
</g>
<g>
	<rect x="16" y="0" class="st8" width="4" height="4"/>
	<rect x="28" y="0" class="st8" width="4" height="4"/>
	<rect y="20" class="st8" width="4" height="4"/>
	<rect x="44" y="20" class="st8" width="4" height="4"/>
	<polygon class="st8" points="36,36 32,36 28,36 24,36 20,36 16,36 12,36 12,32 8,32 8,28 4,28 0,28 0,32 4,32 4,36 8,36 8,40 
		12,40 12,44 16,44 20,44 24,44 28,44 32,44 36,44 40,44 44,44 44,40 44,36 40,36 	"/>
</g>
<g>
	<rect x="16" y="4" class="st9" width="4" height="4"/>
	<rect y="32" class="st9" width="4" height="4"/>
	<rect x="4" y="36" class="st9" width="4" height="4"/>
	<rect x="8" y="40" class="st9" width="4" height="4"/>
	<polygon class="st9" points="12,44 12,48 16,48 20,48 20,44 16,44 	"/>
</g>
<g>
	<polygon class="st10" points="28,8 32,8 32,4 28,4 24,4 20,4 20,8 24,8 	"/>
	<rect y="24" class="st10" width="4" height="4"/>
	<rect x="44" y="24" class="st10" width="4" height="4"/>
	<polygon class="st10" points="36,44 32,44 28,44 24,44 20,44 20,48 24,48 28,48 32,48 36,48 40,48 44,48 44,44 40,44 	"/>
</g>
<polygon class="st11" points="44,40 44,44 44,48 48,48 48,44 48,40 "/>
<g>
	<polygon class="st12" points="44,28 44,32 44,36 48,36 48,32 48,28 	"/>
	<rect x="4" y="40" class="st12" width="4" height="4"/>
	<rect x="8" y="44" class="st12" width="4" height="4"/>
	<polygon class="st12" points="32,48 28,48 24,48 20,48 16,48 12,48 12,52 16,52 20,52 24,52 28,52 32,52 36,52 40,52 40,48 36,48 	
		"/>
</g>
<g>
	<rect x="48" y="44" class="st13" width="4" height="4"/>
	<rect x="64" y="44" class="st13" width="4" height="4"/>
	<rect x="52" y="48" class="st13" width="4" height="4"/>
</g>
<g>
	<rect x="68" y="44" class="st14" width="4" height="4"/>
	<rect x="72" y="48" class="st14" width="4" height="4"/>
</g>
<rect x="12" y="56" class="st15" width="4" height="4"/>
<rect x="32" y="56" class="st16" width="4" height="4"/>
<g>
	<polygon class="st17" points="8,48 4,48 4,52 4,56 8,56 8,52 	"/>
	<rect x="8" y="56" class="st17" width="4" height="4"/>
	<rect x="12" y="60" class="st17" width="4" height="4"/>
</g>
<rect x="16" y="60" class="st16" width="4" height="4"/>
<g>
	<rect x="8" y="52" class="st18" width="4" height="4"/>
	<rect x="16" y="56" class="st18" width="4" height="4"/>
	<rect x="36" y="56" class="st18" width="4" height="4"/>
	<polygon class="st18" points="24,60 20,60 20,64 24,64 28,64 32,64 32,60 28,60 	"/>
</g>
<g>
	<polygon class="st19" points="28,56 24,56 20,56 20,60 24,60 28,60 32,60 32,56 	"/>
	<rect x="32" y="60" class="st19" width="4" height="4"/>
</g>
<g>
	<polygon class="st20" points="4,36 0,36 0,40 0,44 4,44 4,40 	"/>
	<rect x="4" y="44" class="st20" width="4" height="4"/>
	<rect x="8" y="48" class="st20" width="4" height="4"/>
	<rect x="40" y="48" class="st20" width="4" height="4"/>
	<polygon class="st20" points="12,52 12,56 16,56 20,56 20,52 16,52 	"/>
	<rect x="16" y="64" class="st20" width="4" height="4"/>
</g>
<g>
	<polygon class="st21" points="40,52 36,52 32,52 28,52 24,52 20,52 20,56 24,56 28,56 32,56 36,56 40,56 44,56 44,52 	"/>
	<polygon class="st21" points="24,64 20,64 20,68 24,68 28,68 32,68 32,64 28,64 	"/>
</g>
</svg>
