<?xml version="1.0" encoding="utf-8"?>
<!-- Generator: Adobe Illustrator 24.2.0, SVG Export Plug-In . SVG Version: 6.00 Build 0)  -->
<svg version="1.1" id="圖層_1" shape-rendering="crispEdges"
	 xmlns="http://www.w3.org/2000/svg" xmlns:xlink="http://www.w3.org/1999/xlink" x="0px" y="0px" viewBox="0 0 76 52"
	 style="enable-background:new 0 0 76 52;" xml:space="preserve">
<style type="text/css">
	.st0{fill:#A2A968;}
	.st1{fill:#366F96;}
	.st2{fill:#9BA8B8;}
	.st3{fill:#4F5567;}
	.st4{fill:#424A5C;}
	.st5{fill:#939A9A;}
	.st6{fill:#7C8A92;}
	.st7{fill:#52718B;}
	.st8{fill:#2A648C;}
	.st9{fill:#18537C;}
	.st10{fill:#6786A0;}
	.st11{fill:#0F3F61;}
	.st12{fill:#0B3553;}
	.st13{fill:#334C60;}
	.st14{fill:#A2A03A;}
	.st15{fill:#6E6D46;}
	.st16{fill:#7B8245;}
	.st17{fill:#304152;}
</style>
<polygon class="st0" points="24,0 20,0 20,4 24,4 28,4 28,0 "/>
<rect x="12" y="8" class="st1" width="4" height="4"/>
<g>
	<rect x="16" y="8" class="st2" width="4" height="4"/>
	<rect x="12" y="12" class="st2" width="4" height="4"/>
</g>
<g>
	<rect x="32" y="8" class="st3" width="4" height="4"/>
	<polygon class="st3" points="24,12 20,12 20,16 24,16 28,16 32,16 32,12 28,12 	"/>
</g>
<polygon class="st4" points="20,16 20,20 20,24 24,24 24,20 24,16 "/>
<polygon class="st5" points="28,16 24,16 24,20 24,24 20,24 20,28 24,28 28,28 32,28 32,24 32,20 32,16 "/>
<rect x="24" y="28" class="st6" width="4" height="4"/>
<polygon class="st7" points="72,24 72,28 68,28 68,32 72,32 76,32 76,28 76,24 "/>
<g>
	<rect x="32" y="4" class="st8" width="4" height="4"/>
	<polygon class="st8" points="28,8 24,8 20,8 20,12 24,12 28,12 32,12 32,8 	"/>
	<rect x="36" y="8" class="st8" width="4" height="4"/>
	<polygon class="st8" points="16,16 12,16 12,12 8,12 8,16 8,20 8,24 12,24 12,28 16,28 16,32 20,32 20,36 24,36 24,32 24,28 20,28 
		20,24 20,20 20,16 20,12 16,12 	"/>
	<rect x="40" y="12" class="st8" width="4" height="4"/>
	<polygon class="st8" points="36,16 36,12 32,12 32,16 32,20 32,24 32,28 28,28 28,32 32,32 36,32 36,28 40,28 44,28 44,24 44,20 
		40,20 40,16 	"/>
</g>
<rect x="24" y="32" class="st9" width="4" height="4"/>
<rect x="28" y="32" class="st9" width="4" height="4"/>
<g>
	<rect x="36" y="12" class="st10" width="4" height="4"/>
	<rect x="40" y="16" class="st10" width="4" height="4"/>
	<rect x="36" y="28" class="st10" width="4" height="4"/>
	<rect x="32" y="32" class="st10" width="4" height="4"/>
</g>
<g>
	<rect x="12" y="4" class="st11" width="4" height="4"/>
	<rect x="8" y="8" class="st11" width="4" height="4"/>
	<polygon class="st11" points="8,16 8,12 4,12 4,16 4,20 4,24 8,24 8,20 	"/>
	<rect x="8" y="24" class="st11" width="4" height="4"/>
	<rect x="12" y="28" class="st11" width="4" height="4"/>
	<rect x="40" y="28" class="st11" width="4" height="4"/>
	<rect x="16" y="32" class="st11" width="4" height="4"/>
	<rect x="36" y="32" class="st11" width="4" height="4"/>
</g>
<g>
	<rect x="4" y="24" class="st12" width="4" height="4"/>
	<rect x="8" y="28" class="st12" width="4" height="4"/>
	<rect x="12" y="32" class="st12" width="4" height="4"/>
	<rect x="40" y="32" class="st12" width="4" height="4"/>
</g>
<g>
	<rect x="60" y="16" class="st13" width="4" height="4"/>
	<rect x="56" y="20" class="st13" width="4" height="4"/>
	<rect x="64" y="20" class="st13" width="4" height="4"/>
	<rect x="52" y="24" class="st13" width="4" height="4"/>
	<rect x="68" y="24" class="st13" width="4" height="4"/>
	<polygon class="st13" points="44,28 44,32 44,36 48,36 48,32 52,32 52,28 48,28 	"/>
</g>
<g>
	<rect x="16" y="0" class="st14" width="4" height="4"/>
	<rect x="28" y="0" class="st14" width="4" height="4"/>
	<rect y="20" class="st14" width="4" height="4"/>
	<rect x="44" y="20" class="st14" width="4" height="4"/>
	<polygon class="st14" points="36,36 32,36 28,36 24,36 20,36 16,36 12,36 12,32 8,32 8,28 4,28 0,28 0,32 4,32 4,36 8,36 8,40 
		12,40 12,44 16,44 20,44 24,44 28,44 32,44 36,44 40,44 44,44 44,40 44,36 40,36 	"/>
</g>
<g>
	<rect x="16" y="4" class="st15" width="4" height="4"/>
	<rect y="32" class="st15" width="4" height="4"/>
	<rect x="4" y="36" class="st15" width="4" height="4"/>
	<rect x="8" y="40" class="st15" width="4" height="4"/>
	<polygon class="st15" points="12,44 12,48 16,48 20,48 20,44 16,44 	"/>
</g>
<g>
	<polygon class="st16" points="28,8 32,8 32,4 28,4 24,4 20,4 20,8 24,8 	"/>
	<rect y="24" class="st16" width="4" height="4"/>
	<rect x="44" y="24" class="st16" width="4" height="4"/>
	<polygon class="st16" points="36,44 32,44 28,44 24,44 20,44 20,48 24,48 28,48 32,48 36,48 40,48 44,48 44,44 40,44 	"/>
</g>
<g>
	<rect x="4" y="40" class="st17" width="4" height="4"/>
	<rect x="8" y="44" class="st17" width="4" height="4"/>
	<polygon class="st17" points="36,48 32,48 28,48 24,48 20,48 16,48 12,48 12,52 16,52 20,52 24,52 28,52 32,52 36,52 40,52 40,48 	
		"/>
</g>
</svg>
