<?xml version="1.0" encoding="utf-8"?>
<!-- Generator: Adobe Illustrator 24.2.0, SVG Export Plug-In . SVG Version: 6.00 Build 0)  -->
<svg version="1.1" id="圖層_1" shape-rendering="crispEdges"
	 xmlns="http://www.w3.org/2000/svg" xmlns:xlink="http://www.w3.org/1999/xlink" x="0px" y="0px" viewBox="0 0 344 144"
	 style="enable-background:new 0 0 344 144;" xml:space="preserve">
<style type="text/css">
	.st0{fill:#798594;}
	.st1{fill:#44484E;}
	.st2{fill:#E2EFFF;}
	.st3{fill:#BFCFE2;}
</style>
<rect x="340" y="44" class="st0" width="4" height="4"/>
<rect x="340" y="48" class="st0" width="4" height="4"/>
<rect x="340" y="52" class="st0" width="4" height="4"/>
<rect x="340" y="56" class="st0" width="4" height="4"/>
<rect x="340" y="112" class="st0" width="4" height="4"/>
<rect x="340" y="116" class="st0" width="4" height="4"/>
<rect x="340" y="120" class="st0" width="4" height="4"/>
<rect x="340" y="124" class="st0" width="4" height="4"/>
<rect x="340" y="128" class="st0" width="4" height="4"/>
<rect x="336" y="132" class="st0" width="4" height="4"/>
<polygon class="st1" points="336,12 336,8 332,8 332,4 328,4 324,4 320,4 316,4 312,4 308,4 304,4 300,4 296,4 292,4 288,4 284,4 
	280,4 276,4 272,4 268,4 264,4 260,4 256,4 252,4 248,4 244,4 240,4 236,4 232,4 228,4 224,4 220,4 216,4 212,4 208,4 204,4 200,4 
	196,4 192,4 188,4 184,4 180,4 176,4 172,4 168,4 164,4 160,4 156,4 152,4 148,4 144,4 140,4 136,4 132,4 128,4 124,4 120,4 116,4 
	112,4 108,4 104,4 100,4 96,4 92,4 88,4 84,4 80,4 76,4 72,4 68,4 64,4 60,4 56,4 52,4 48,4 44,4 40,4 36,4 32,4 28,4 24,4 20,4 
	16,4 12,4 12,8 8,8 8,12 4,12 4,16 4,20 4,24 4,28 4,32 4,36 4,40 4,44 4,48 4,52 4,56 4,60 4,64 4,68 4,72 4,76 4,80 4,84 4,88 
	4,92 4,96 4,100 4,104 4,108 4,112 4,116 4,120 4,124 4,128 4,132 8,132 8,136 12,136 12,140 16,140 20,140 24,140 28,140 32,140 
	36,140 40,140 44,140 48,140 52,140 56,140 60,140 64,140 68,140 72,140 76,140 80,140 84,140 88,140 92,140 96,140 100,140 
	104,140 108,140 112,140 116,140 120,140 124,140 128,140 132,140 136,140 140,140 144,140 148,140 152,140 156,140 160,140 
	164,140 168,140 172,140 176,140 180,140 184,140 188,140 192,140 196,140 200,140 204,140 208,140 212,140 216,140 220,140 
	224,140 228,140 232,140 236,140 240,140 244,140 248,140 252,140 256,140 260,140 264,140 268,140 272,140 276,140 280,140 
	284,140 288,140 292,140 296,140 300,140 304,140 308,140 312,140 316,140 320,140 324,140 328,140 332,140 332,136 336,136 
	336,132 340,132 340,128 340,124 340,120 340,116 340,112 340,108 340,104 340,100 340,96 340,92 340,88 340,84 340,80 340,76 
	340,72 340,68 340,64 340,60 340,56 340,52 340,48 340,44 340,40 340,36 340,32 340,28 340,24 340,20 340,16 340,12 "/>
<rect x="332" y="136" class="st0" width="4" height="4"/>
<g>
	<polygon class="st2" points="20,0 16,0 12,0 12,4 16,4 20,4 24,4 28,4 28,0 24,0 	"/>
	<polygon class="st2" points="96,0 92,0 88,0 84,0 80,0 76,0 72,0 68,0 64,0 60,0 60,4 64,4 68,4 72,4 76,4 80,4 84,4 88,4 92,4 
		96,4 100,4 104,4 104,0 100,0 	"/>
	<polygon class="st2" points="248,0 244,0 240,0 236,0 232,0 228,0 224,0 220,0 216,0 212,0 208,0 204,0 200,0 196,0 192,0 188,0 
		184,0 180,0 176,0 172,0 168,0 164,0 160,0 156,0 152,0 148,0 144,0 140,0 136,0 132,0 128,0 124,0 120,0 120,4 124,4 128,4 132,4 
		136,4 140,4 144,4 148,4 152,4 156,4 160,4 164,4 168,4 172,4 176,4 180,4 184,4 188,4 192,4 196,4 200,4 204,4 208,4 212,4 216,4 
		220,4 224,4 228,4 232,4 236,4 240,4 244,4 248,4 252,4 256,4 256,0 252,0 	"/>
	<polygon class="st2" points="324,0 320,0 316,0 316,4 320,4 324,4 328,4 332,4 332,0 328,0 	"/>
	<rect x="8" y="4" class="st2" width="4" height="4"/>
	<rect x="4" y="8" class="st2" width="4" height="4"/>
	<rect x="336" y="8" class="st2" width="4" height="4"/>
	<polygon class="st2" points="0,16 0,20 0,24 0,28 4,28 4,24 4,20 4,16 4,12 0,12 	"/>
	<polygon class="st2" points="4,84 4,80 4,76 4,72 4,68 4,64 4,60 0,60 0,64 0,68 0,72 0,76 0,80 0,84 0,88 4,88 	"/>
	<polygon class="st2" points="4,124 4,120 4,116 4,112 4,108 4,104 4,100 4,96 0,96 0,100 0,104 0,108 0,112 0,116 0,120 0,124 
		0,128 0,132 4,132 4,128 	"/>
	<rect x="4" y="132" class="st2" width="4" height="4"/>
	<rect x="8" y="136" class="st2" width="4" height="4"/>
	<rect x="12" y="140" class="st2" width="4" height="4"/>
</g>
<rect x="40" y="140" class="st0" width="4" height="4"/>
<rect x="44" y="140" class="st0" width="4" height="4"/>
<rect x="48" y="140" class="st0" width="4" height="4"/>
<rect x="52" y="140" class="st0" width="4" height="4"/>
<rect x="56" y="140" class="st0" width="4" height="4"/>
<rect x="60" y="140" class="st0" width="4" height="4"/>
<rect x="64" y="140" class="st0" width="4" height="4"/>
<rect x="68" y="140" class="st0" width="4" height="4"/>
<rect x="72" y="140" class="st0" width="4" height="4"/>
<rect x="76" y="140" class="st0" width="4" height="4"/>
<rect x="80" y="140" class="st0" width="4" height="4"/>
<rect x="84" y="140" class="st0" width="4" height="4"/>
<rect x="88" y="140" class="st0" width="4" height="4"/>
<rect x="92" y="140" class="st0" width="4" height="4"/>
<g>
	<polygon class="st3" points="52,0 48,0 44,0 40,0 36,0 32,0 28,0 28,4 32,4 36,4 40,4 44,4 48,4 52,4 56,4 60,4 60,0 56,0 	"/>
	<polygon class="st3" points="112,4 116,4 120,4 120,0 116,0 112,0 108,0 104,0 104,4 108,4 	"/>
	<polygon class="st3" points="308,0 304,0 300,0 296,0 292,0 288,0 284,0 280,0 276,0 272,0 268,0 264,0 260,0 256,0 256,4 260,4 
		264,4 268,4 272,4 276,4 280,4 284,4 288,4 292,4 296,4 300,4 304,4 308,4 312,4 316,4 316,0 312,0 	"/>
	<rect x="332" y="4" class="st3" width="4" height="4"/>
	<polygon class="st3" points="340,12 340,16 340,20 340,24 340,28 340,32 340,36 340,40 340,44 344,44 344,40 344,36 344,32 344,28 
		344,24 344,20 344,16 344,12 	"/>
	<polygon class="st3" points="0,32 0,36 0,40 0,44 0,48 0,52 0,56 0,60 4,60 4,56 4,52 4,48 4,44 4,40 4,36 4,32 4,28 0,28 	"/>
	<polygon class="st3" points="340,64 340,68 340,72 340,76 340,80 340,84 340,88 340,92 340,96 340,100 340,104 340,108 340,112 
		344,112 344,108 344,104 344,100 344,96 344,92 344,88 344,84 344,80 344,76 344,72 344,68 344,64 344,60 340,60 	"/>
	<polygon class="st3" points="0,92 0,96 4,96 4,92 4,88 0,88 	"/>
	<polygon class="st3" points="32,140 28,140 24,140 20,140 16,140 16,144 20,144 24,144 28,144 32,144 36,144 40,144 40,140 36,140 
			"/>
	<polygon class="st3" points="308,140 304,140 300,140 296,140 292,140 288,140 284,140 280,140 276,140 272,140 268,140 264,140 
		260,140 256,140 252,140 248,140 244,140 240,140 236,140 232,140 228,140 224,140 220,140 216,140 212,140 208,140 204,140 
		200,140 196,140 192,140 188,140 184,140 180,140 176,140 172,140 168,140 164,140 160,140 156,140 152,140 148,140 144,140 
		140,140 136,140 132,140 128,140 124,140 120,140 116,140 112,140 108,140 104,140 100,140 96,140 96,144 100,144 104,144 108,144 
		112,144 116,144 120,144 124,144 128,144 132,144 136,144 140,144 144,144 148,144 152,144 156,144 160,144 164,144 168,144 
		172,144 176,144 180,144 184,144 188,144 192,144 196,144 200,144 204,144 208,144 212,144 216,144 220,144 224,144 228,144 
		232,144 236,144 240,144 244,144 248,144 252,144 256,144 260,144 264,144 268,144 272,144 276,144 280,144 284,144 288,144 
		292,144 296,144 300,144 304,144 308,144 312,144 316,144 316,140 312,140 	"/>
</g>
<rect x="316" y="140" class="st0" width="4" height="4"/>
<rect x="320" y="140" class="st0" width="4" height="4"/>
<rect x="324" y="140" class="st0" width="4" height="4"/>
<rect x="328" y="140" class="st0" width="4" height="4"/>
</svg>
