<?xml version="1.0" encoding="utf-8"?>
<!-- Generator: Adobe Illustrator 24.2.0, SVG Export Plug-In . SVG Version: 6.00 Build 0)  -->
<svg version="1.1" id="圖層_1" shape-rendering="crispEdges"
	 xmlns="http://www.w3.org/2000/svg" xmlns:xlink="http://www.w3.org/1999/xlink" x="0px" y="0px" viewBox="0 0 96 96"
	 style="enable-background:new 0 0 96 96;" xml:space="preserve">
<style type="text/css">
	.st0{fill:#035E55;}
	.st1{fill:#05FFB5;}
	.st2{fill:#17CE98;}
	.st3{fill:#009A6C;}
	.st4{opacity:0.1176;fill:#011E1B;enable-background:new    ;}
</style>
<g>
	<rect y="92" class="st0" width="4" height="4"/>
</g>
<g>
	<polygon class="st1" points="4,84 8,84 8,88 12,88 12,92 16,92 20,92 24,92 24,96 28,96 32,96 36,96 40,96 40,92 36,92 32,92 
		32,88 28,88 24,88 24,84 20,84 16,84 16,80 12,80 12,76 8,76 4,76 4,72 0,72 0,76 0,80 4,80 	"/>
</g>
<g>
	<polygon class="st2" points="8,64 8,60 4,60 0,60 0,64 4,64 	"/>
	<rect x="20" y="72" class="st2" width="4" height="4"/>
	<rect x="40" y="72" class="st2" width="4" height="4"/>
	<rect x="16" y="76" class="st2" width="4" height="4"/>
	<rect y="80" class="st2" width="4" height="4"/>
	<rect x="32" y="80" class="st2" width="4" height="4"/>
	<rect x="28" y="84" class="st2" width="4" height="4"/>
	<polygon class="st2" points="4,92 8,92 8,96 12,96 16,96 20,96 24,96 24,92 20,92 16,92 12,92 12,88 8,88 8,84 4,84 4,88 	"/>
</g>
<g>
	<polygon class="st3" points="4,88 4,84 0,84 0,88 0,92 4,92 	"/>
	<rect x="4" y="92" class="st3" width="4" height="4"/>
</g>
<g>
	<path class="st4" d="M92,0h-4h-4h-4h-4h-4h-4h-4h-4h-4h-4h-4h-4h-4h-4h-4h-4h-4h-4h-4h-4H8H4H0v4v4v4v4v4v4v4v4v4v4v4v4v4v4v4h4h4
		v4H4H0v4v4h4v4h4h4v4h4v-4h4v-4h4v4h-4v4h-4v4h4h4v4h4v-4h4v-4h4v4h-4v4v4h4h4v4h4h4h4h4h4h4h4h4h4h4h4h4h4h4v-4v-4v-4v-4v-4v-4v-4
		v-4v-4v-4v-4v-4v-4v-4v-4v-4v-4v-4v-4v-4v-4V8V4V0H92z M40,72h4v4h-4V72z"/>
</g>
</svg>
