<?xml version="1.0" encoding="utf-8"?>
<!-- Generator: Adobe Illustrator 24.2.0, SVG Export Plug-In . SVG Version: 6.00 Build 0)  -->
<svg version="1.1" id="圖層_1" shape-rendering="crispEdges"
	 xmlns="http://www.w3.org/2000/svg" xmlns:xlink="http://www.w3.org/1999/xlink" x="0px" y="0px" viewBox="0 0 32 32"
	 style="enable-background:new 0 0 32 32;" xml:space="preserve">
<style type="text/css">
	.st0{fill:#00CFFF;}
	.st1{fill:#011E1B;}
</style>
<g>
	<polygon class="st0" points="28,8 24,8 24,4 20,4 20,0 16,0 16,4 16,8 12,8 8,8 4,8 4,12 4,16 4,20 8,20 12,20 16,20 16,24 16,28 
		20,28 20,24 24,24 24,20 28,20 28,16 32,16 32,12 28,12 	"/>
</g>
<g>
	<rect x="28" y="16" class="st1" width="4" height="4"/>
	<rect x="24" y="20" class="st1" width="4" height="4"/>
	<polygon class="st1" points="16,24 16,20 12,20 8,20 4,20 4,16 4,12 0,12 0,16 0,20 0,24 4,24 8,24 12,24 12,28 12,32 16,32 20,32 
		20,28 16,28 	"/>
	<rect x="20" y="24" class="st1" width="4" height="4"/>
</g>
</svg>
