<?xml version="1.0" encoding="UTF-8" ?>
<svg version="1.1" width="72" height="160" xmlns="http://www.w3.org/2000/svg" shape-rendering="crispEdges">
<rect x="8" y="0" width="4" height="4" fill="#5D636A" />
<rect x="12" y="0" width="4" height="4" fill="#5D636A" />
<rect x="16" y="0" width="4" height="4" fill="#5D636A" />
<rect x="20" y="0" width="4" height="4" fill="#51575E" />
<rect x="24" y="0" width="4" height="4" fill="#51575E" />
<rect x="28" y="0" width="4" height="4" fill="#51575E" />
<rect x="32" y="0" width="4" height="4" fill="#51575E" />
<rect x="36" y="0" width="4" height="4" fill="#51575E" />
<rect x="40" y="0" width="4" height="4" fill="#51575E" />
<rect x="44" y="0" width="4" height="4" fill="#51575E" />
<rect x="4" y="4" width="4" height="4" fill="#5D636A" />
<rect x="8" y="4" width="4" height="4" fill="#5D636A" />
<rect x="12" y="4" width="4" height="4" fill="#5D636A" />
<rect x="16" y="4" width="4" height="4" fill="#51575E" />
<rect x="20" y="4" width="4" height="4" fill="#51575E" />
<rect x="24" y="4" width="4" height="4" fill="#51575E" />
<rect x="28" y="4" width="4" height="4" fill="#51575E" />
<rect x="32" y="4" width="4" height="4" fill="#51575E" />
<rect x="36" y="4" width="4" height="4" fill="#51575E" />
<rect x="40" y="4" width="4" height="4" fill="#51575E" />
<rect x="44" y="4" width="4" height="4" fill="#51575E" />
<rect x="48" y="4" width="4" height="4" fill="#51575E" />
<rect x="0" y="8" width="4" height="4" fill="#5D636A" />
<rect x="4" y="8" width="4" height="4" fill="#5D636A" />
<rect x="8" y="8" width="4" height="4" fill="#ABC0DA" />
<rect x="12" y="8" width="4" height="4" fill="#ABC0DA" />
<rect x="16" y="8" width="4" height="4" fill="#ABC0DA" />
<rect x="20" y="8" width="4" height="4" fill="#ABC0DA" />
<rect x="24" y="8" width="4" height="4" fill="#ABC0DA" />
<rect x="28" y="8" width="4" height="4" fill="#ABC0DA" />
<rect x="32" y="8" width="4" height="4" fill="#ABC0DA" />
<rect x="36" y="8" width="4" height="4" fill="#ABC0DA" />
<rect x="40" y="8" width="4" height="4" fill="#ABC0DA" />
<rect x="44" y="8" width="4" height="4" fill="#ABC0DA" />
<rect x="48" y="8" width="4" height="4" fill="#51575E" />
<rect x="52" y="8" width="4" height="4" fill="#51575E" />
<rect x="0" y="12" width="4" height="4" fill="#5D636A" />
<rect x="4" y="12" width="4" height="4" fill="#5D636A" />
<rect x="8" y="12" width="4" height="4" fill="#ABC0DA" />
<rect x="12" y="12" width="4" height="4" fill="#ABC0DA" />
<rect x="16" y="12" width="4" height="4" fill="#ABC0DA" />
<rect x="20" y="12" width="4" height="4" fill="#ABC0DA" />
<rect x="24" y="12" width="4" height="4" fill="#ABC0DA" />
<rect x="28" y="12" width="4" height="4" fill="#ABC0DA" />
<rect x="32" y="12" width="4" height="4" fill="#ABC0DA" />
<rect x="36" y="12" width="4" height="4" fill="#D2E0F0" />
<rect x="40" y="12" width="4" height="4" fill="#D2E0F0" />
<rect x="44" y="12" width="4" height="4" fill="#D2E0F0" />
<rect x="48" y="12" width="4" height="4" fill="#51575E" />
<rect x="52" y="12" width="4" height="4" fill="#51575E" />
<rect x="0" y="16" width="4" height="4" fill="#5D636A" />
<rect x="4" y="16" width="4" height="4" fill="#51575E" />
<rect x="8" y="16" width="4" height="4" fill="#D2E0F0" />
<rect x="12" y="16" width="4" height="4" fill="#ABC0DA" />
<rect x="16" y="16" width="4" height="4" fill="#366F96" />
<rect x="20" y="16" width="4" height="4" fill="#366F96" />
<rect x="24" y="16" width="4" height="4" fill="#ABC0DA" />
<rect x="28" y="16" width="4" height="4" fill="#B03F4B" />
<rect x="32" y="16" width="4" height="4" fill="#ABC0DA" />
<rect x="36" y="16" width="4" height="4" fill="#ABC0DA" />
<rect x="40" y="16" width="4" height="4" fill="#ABC0DA" />
<rect x="44" y="16" width="4" height="4" fill="#ABC0DA" />
<rect x="48" y="16" width="4" height="4" fill="#51575E" />
<rect x="52" y="16" width="4" height="4" fill="#51575E" />
<rect x="0" y="20" width="4" height="4" fill="#51575E" />
<rect x="4" y="20" width="4" height="4" fill="#51575E" />
<rect x="8" y="20" width="4" height="4" fill="#ABC0DA" />
<rect x="12" y="20" width="4" height="4" fill="#ABC0DA" />
<rect x="16" y="20" width="4" height="4" fill="#366F96" />
<rect x="20" y="20" width="4" height="4" fill="#366F96" />
<rect x="24" y="20" width="4" height="4" fill="#ABC0DA" />
<rect x="28" y="20" width="4" height="4" fill="#ABC0DA" />
<rect x="32" y="20" width="4" height="4" fill="#ABC0DA" />
<rect x="36" y="20" width="4" height="4" fill="#ABC0DA" />
<rect x="40" y="20" width="4" height="4" fill="#ABC0DA" />
<rect x="44" y="20" width="4" height="4" fill="#ABC0DA" />
<rect x="48" y="20" width="4" height="4" fill="#51575E" />
<rect x="52" y="20" width="4" height="4" fill="#51575E" />
<rect x="0" y="24" width="4" height="4" fill="#51575E" />
<rect x="4" y="24" width="4" height="4" fill="#51575E" />
<rect x="8" y="24" width="4" height="4" fill="#ABC0DA" />
<rect x="12" y="24" width="4" height="4" fill="#366F96" />
<rect x="16" y="24" width="4" height="4" fill="#366F96" />
<rect x="20" y="24" width="4" height="4" fill="#366F96" />
<rect x="24" y="24" width="4" height="4" fill="#ABC0DA" />
<rect x="28" y="24" width="4" height="4" fill="#ABC0DA" />
<rect x="32" y="24" width="4" height="4" fill="#C38962" />
<rect x="36" y="24" width="4" height="4" fill="#ABC0DA" />
<rect x="40" y="24" width="4" height="4" fill="#ABC0DA" />
<rect x="44" y="24" width="4" height="4" fill="#C38962" />
<rect x="48" y="24" width="4" height="4" fill="#51575E" />
<rect x="52" y="24" width="4" height="4" fill="#51575E" />
<rect x="0" y="28" width="4" height="4" fill="#51575E" />
<rect x="4" y="28" width="4" height="4" fill="#51575E" />
<rect x="8" y="28" width="4" height="4" fill="#366F96" />
<rect x="12" y="28" width="4" height="4" fill="#366F96" />
<rect x="16" y="28" width="4" height="4" fill="#366F96" />
<rect x="20" y="28" width="4" height="4" fill="#366F96" />
<rect x="24" y="28" width="4" height="4" fill="#ABC0DA" />
<rect x="28" y="28" width="4" height="4" fill="#ABC0DA" />
<rect x="32" y="28" width="4" height="4" fill="#C38962" />
<rect x="36" y="28" width="4" height="4" fill="#C38962" />
<rect x="40" y="28" width="4" height="4" fill="#C38962" />
<rect x="44" y="28" width="4" height="4" fill="#C38962" />
<rect x="48" y="28" width="4" height="4" fill="#51575E" />
<rect x="52" y="28" width="4" height="4" fill="#51575E" />
<rect x="0" y="32" width="4" height="4" fill="#51575E" />
<rect x="4" y="32" width="4" height="4" fill="#51575E" />
<rect x="8" y="32" width="4" height="4" fill="#366F96" />
<rect x="12" y="32" width="4" height="4" fill="#366F96" />
<rect x="16" y="32" width="4" height="4" fill="#366F96" />
<rect x="20" y="32" width="4" height="4" fill="#366F96" />
<rect x="24" y="32" width="4" height="4" fill="#ABC0DA" />
<rect x="28" y="32" width="4" height="4" fill="#ABC0DA" />
<rect x="32" y="32" width="4" height="4" fill="#C38962" />
<rect x="36" y="32" width="4" height="4" fill="#C38962" />
<rect x="40" y="32" width="4" height="4" fill="#C38962" />
<rect x="44" y="32" width="4" height="4" fill="#C38962" />
<rect x="48" y="32" width="4" height="4" fill="#51575E" />
<rect x="52" y="32" width="4" height="4" fill="#51575E" />
<rect x="0" y="36" width="4" height="4" fill="#51575E" />
<rect x="4" y="36" width="4" height="4" fill="#51575E" />
<rect x="8" y="36" width="4" height="4" fill="#366F96" />
<rect x="12" y="36" width="4" height="4" fill="#366F96" />
<rect x="16" y="36" width="4" height="4" fill="#366F96" />
<rect x="20" y="36" width="4" height="4" fill="#C38962" />
<rect x="24" y="36" width="4" height="4" fill="#ABC0DA" />
<rect x="28" y="36" width="4" height="4" fill="#ABC0DA" />
<rect x="32" y="36" width="4" height="4" fill="#C38962" />
<rect x="36" y="36" width="4" height="4" fill="#C38962" />
<rect x="40" y="36" width="4" height="4" fill="#C38962" />
<rect x="44" y="36" width="4" height="4" fill="#C38962" />
<rect x="48" y="36" width="4" height="4" fill="#51575E" />
<rect x="52" y="36" width="4" height="4" fill="#51575E" />
<rect x="0" y="40" width="4" height="4" fill="#51575E" />
<rect x="4" y="40" width="4" height="4" fill="#51575E" />
<rect x="8" y="40" width="4" height="4" fill="#366F96" />
<rect x="12" y="40" width="4" height="4" fill="#366F96" />
<rect x="16" y="40" width="4" height="4" fill="#366F96" />
<rect x="20" y="40" width="4" height="4" fill="#366F96" />
<rect x="24" y="40" width="4" height="4" fill="#C38962" />
<rect x="28" y="40" width="4" height="4" fill="#C38962" />
<rect x="32" y="40" width="4" height="4" fill="#C38962" />
<rect x="36" y="40" width="4" height="4" fill="#C38962" />
<rect x="40" y="40" width="4" height="4" fill="#C38962" />
<rect x="44" y="40" width="4" height="4" fill="#C38962" />
<rect x="48" y="40" width="4" height="4" fill="#51575E" />
<rect x="52" y="40" width="4" height="4" fill="#51575E" />
<rect x="0" y="44" width="4" height="4" fill="#51575E" />
<rect x="4" y="44" width="4" height="4" fill="#51575E" />
<rect x="8" y="44" width="4" height="4" fill="#366F96" />
<rect x="12" y="44" width="4" height="4" fill="#366F96" />
<rect x="16" y="44" width="4" height="4" fill="#366F96" />
<rect x="20" y="44" width="4" height="4" fill="#366F96" />
<rect x="24" y="44" width="4" height="4" fill="#ABC0DA" />
<rect x="28" y="44" width="4" height="4" fill="#C38962" />
<rect x="32" y="44" width="4" height="4" fill="#C38962" />
<rect x="36" y="44" width="4" height="4" fill="#C38962" />
<rect x="40" y="44" width="4" height="4" fill="#C38962" />
<rect x="44" y="44" width="4" height="4" fill="#C38962" />
<rect x="48" y="44" width="4" height="4" fill="#51575E" />
<rect x="52" y="44" width="4" height="4" fill="#51575E" />
<rect x="4" y="48" width="4" height="4" fill="#51575E" />
<rect x="8" y="48" width="4" height="4" fill="#51575E" />
<rect x="12" y="48" width="4" height="4" fill="#51575E" />
<rect x="16" y="48" width="4" height="4" fill="#51575E" />
<rect x="20" y="48" width="4" height="4" fill="#51575E" />
<rect x="24" y="48" width="4" height="4" fill="#51575E" />
<rect x="28" y="48" width="4" height="4" fill="#51575E" />
<rect x="32" y="48" width="4" height="4" fill="#51575E" />
<rect x="36" y="48" width="4" height="4" fill="#51575E" />
<rect x="40" y="48" width="4" height="4" fill="#51575E" />
<rect x="44" y="48" width="4" height="4" fill="#51575E" />
<rect x="48" y="48" width="4" height="4" fill="#5D636A" />
<rect x="8" y="52" width="4" height="4" fill="#51575E" />
<rect x="12" y="52" width="4" height="4" fill="#51575E" />
<rect x="16" y="52" width="4" height="4" fill="#51575E" />
<rect x="20" y="52" width="4" height="4" fill="#51575E" />
<rect x="24" y="52" width="4" height="4" fill="#51575E" />
<rect x="28" y="52" width="4" height="4" fill="#51575E" />
<rect x="32" y="52" width="4" height="4" fill="#5D636A" />
<rect x="36" y="52" width="4" height="4" fill="#5D636A" />
<rect x="40" y="52" width="4" height="4" fill="#5D636A" />
<rect x="44" y="52" width="4" height="4" fill="#51575E" />
<rect x="16" y="64" width="4" height="4" fill="#5D636A" />
<rect x="20" y="64" width="4" height="4" fill="#51575E" />
<rect x="24" y="64" width="4" height="4" fill="#51575E" />
<rect x="28" y="64" width="4" height="4" fill="#51575E" />
<rect x="32" y="64" width="4" height="4" fill="#51575E" />
<rect x="36" y="64" width="4" height="4" fill="#51575E" />
<rect x="12" y="68" width="4" height="4" fill="#5D636A" />
<rect x="16" y="68" width="4" height="4" fill="#51575E" />
<rect x="20" y="68" width="4" height="4" fill="#51575E" />
<rect x="24" y="68" width="4" height="4" fill="#51575E" />
<rect x="28" y="68" width="4" height="4" fill="#51575E" />
<rect x="32" y="68" width="4" height="4" fill="#51575E" />
<rect x="36" y="68" width="4" height="4" fill="#51575E" />
<rect x="40" y="68" width="4" height="4" fill="#51575E" />
<rect x="8" y="72" width="4" height="4" fill="#5D636A" />
<rect x="12" y="72" width="4" height="4" fill="#51575E" />
<rect x="16" y="72" width="4" height="4" fill="#D6BDA4" />
<rect x="20" y="72" width="4" height="4" fill="#D6BDA4" />
<rect x="24" y="72" width="4" height="4" fill="#D6BDA4" />
<rect x="28" y="72" width="4" height="4" fill="#D6BDA4" />
<rect x="32" y="72" width="4" height="4" fill="#D6BDA4" />
<rect x="36" y="72" width="4" height="4" fill="#D6BDA4" />
<rect x="40" y="72" width="4" height="4" fill="#51575E" />
<rect x="44" y="72" width="4" height="4" fill="#51575E" />
<rect x="8" y="76" width="4" height="4" fill="#51575E" />
<rect x="12" y="76" width="4" height="4" fill="#51575E" />
<rect x="16" y="76" width="4" height="4" fill="#D6BDA4" />
<rect x="20" y="76" width="4" height="4" fill="#D6BDA4" />
<rect x="24" y="76" width="4" height="4" fill="#D6BDA4" />
<rect x="28" y="76" width="4" height="4" fill="#D6BDA4" />
<rect x="32" y="76" width="4" height="4" fill="#D6BDA4" />
<rect x="36" y="76" width="4" height="4" fill="#D6BDA4" />
<rect x="40" y="76" width="4" height="4" fill="#51575E" />
<rect x="44" y="76" width="4" height="4" fill="#51575E" />
<rect x="8" y="80" width="4" height="4" fill="#51575E" />
<rect x="12" y="80" width="4" height="4" fill="#51575E" />
<rect x="16" y="80" width="4" height="4" fill="#D6BDA4" />
<rect x="20" y="80" width="4" height="4" fill="#D6BDA4" />
<rect x="24" y="80" width="4" height="4" fill="#C38962" />
<rect x="28" y="80" width="4" height="4" fill="#C38962" />
<rect x="32" y="80" width="4" height="4" fill="#D6BDA4" />
<rect x="36" y="80" width="4" height="4" fill="#D6BDA4" />
<rect x="40" y="80" width="4" height="4" fill="#51575E" />
<rect x="44" y="80" width="4" height="4" fill="#51575E" />
<rect x="8" y="84" width="4" height="4" fill="#51575E" />
<rect x="12" y="84" width="4" height="4" fill="#51575E" />
<rect x="16" y="84" width="4" height="4" fill="#D6BDA4" />
<rect x="20" y="84" width="4" height="4" fill="#D6BDA4" />
<rect x="24" y="84" width="4" height="4" fill="#C38962" />
<rect x="28" y="84" width="4" height="4" fill="#C38962" />
<rect x="32" y="84" width="4" height="4" fill="#D6BDA4" />
<rect x="36" y="84" width="4" height="4" fill="#D6BDA4" />
<rect x="40" y="84" width="4" height="4" fill="#51575E" />
<rect x="44" y="84" width="4" height="4" fill="#51575E" />
<rect x="8" y="88" width="4" height="4" fill="#51575E" />
<rect x="12" y="88" width="4" height="4" fill="#51575E" />
<rect x="16" y="88" width="4" height="4" fill="#D6BDA4" />
<rect x="20" y="88" width="4" height="4" fill="#D6BDA4" />
<rect x="24" y="88" width="4" height="4" fill="#D6BDA4" />
<rect x="28" y="88" width="4" height="4" fill="#D6BDA4" />
<rect x="32" y="88" width="4" height="4" fill="#D6BDA4" />
<rect x="36" y="88" width="4" height="4" fill="#D6BDA4" />
<rect x="40" y="88" width="4" height="4" fill="#51575E" />
<rect x="44" y="88" width="4" height="4" fill="#5D636A" />
<rect x="8" y="92" width="4" height="4" fill="#51575E" />
<rect x="12" y="92" width="4" height="4" fill="#51575E" />
<rect x="16" y="92" width="4" height="4" fill="#D6BDA4" />
<rect x="20" y="92" width="4" height="4" fill="#D6BDA4" />
<rect x="24" y="92" width="4" height="4" fill="#D6BDA4" />
<rect x="28" y="92" width="4" height="4" fill="#D6BDA4" />
<rect x="32" y="92" width="4" height="4" fill="#D6BDA4" />
<rect x="36" y="92" width="4" height="4" fill="#D6BDA4" />
<rect x="40" y="92" width="4" height="4" fill="#51575E" />
<rect x="44" y="92" width="4" height="4" fill="#5D636A" />
<rect x="12" y="96" width="4" height="4" fill="#51575E" />
<rect x="16" y="96" width="4" height="4" fill="#51575E" />
<rect x="20" y="96" width="4" height="4" fill="#51575E" />
<rect x="24" y="96" width="4" height="4" fill="#51575E" />
<rect x="28" y="96" width="4" height="4" fill="#51575E" />
<rect x="32" y="96" width="4" height="4" fill="#51575E" />
<rect x="36" y="96" width="4" height="4" fill="#51575E" />
<rect x="40" y="96" width="4" height="4" fill="#5D636A" />
<rect x="16" y="100" width="4" height="4" fill="#51575E" />
<rect x="20" y="100" width="4" height="4" fill="#51575E" />
<rect x="24" y="100" width="4" height="4" fill="#51575E" />
<rect x="28" y="100" width="4" height="4" fill="#51575E" />
<rect x="32" y="100" width="4" height="4" fill="#51575E" />
<rect x="36" y="100" width="4" height="4" fill="#51575E" />
<rect x="32" y="112" width="4" height="4" fill="#5D636A" />
<rect x="36" y="112" width="4" height="4" fill="#5D636A" />
<rect x="40" y="112" width="4" height="4" fill="#5D636A" />
<rect x="44" y="112" width="4" height="4" fill="#51575E" />
<rect x="48" y="112" width="4" height="4" fill="#51575E" />
<rect x="52" y="112" width="4" height="4" fill="#51575E" />
<rect x="56" y="112" width="4" height="4" fill="#51575E" />
<rect x="60" y="112" width="4" height="4" fill="#51575E" />
<rect x="28" y="116" width="4" height="4" fill="#5D636A" />
<rect x="32" y="116" width="4" height="4" fill="#5D636A" />
<rect x="36" y="116" width="4" height="4" fill="#5D636A" />
<rect x="40" y="116" width="4" height="4" fill="#51575E" />
<rect x="44" y="116" width="4" height="4" fill="#51575E" />
<rect x="48" y="116" width="4" height="4" fill="#51575E" />
<rect x="52" y="116" width="4" height="4" fill="#51575E" />
<rect x="56" y="116" width="4" height="4" fill="#51575E" />
<rect x="60" y="116" width="4" height="4" fill="#51575E" />
<rect x="64" y="116" width="4" height="4" fill="#51575E" />
<rect x="24" y="120" width="4" height="4" fill="#5D636A" />
<rect x="28" y="120" width="4" height="4" fill="#5D636A" />
<rect x="32" y="120" width="4" height="4" fill="#ABC0DA" />
<rect x="36" y="120" width="4" height="4" fill="#ABC0DA" />
<rect x="40" y="120" width="4" height="4" fill="#ABC0DA" />
<rect x="44" y="120" width="4" height="4" fill="#ABC0DA" />
<rect x="48" y="120" width="4" height="4" fill="#ABC0DA" />
<rect x="52" y="120" width="4" height="4" fill="#ABC0DA" />
<rect x="56" y="120" width="4" height="4" fill="#ABC0DA" />
<rect x="60" y="120" width="4" height="4" fill="#ABC0DA" />
<rect x="64" y="120" width="4" height="4" fill="#51575E" />
<rect x="68" y="120" width="4" height="4" fill="#51575E" />
<rect x="24" y="124" width="4" height="4" fill="#5D636A" />
<rect x="28" y="124" width="4" height="4" fill="#5D636A" />
<rect x="32" y="124" width="4" height="4" fill="#ABC0DA" />
<rect x="36" y="124" width="4" height="4" fill="#ABC0DA" />
<rect x="40" y="124" width="4" height="4" fill="#ABC0DA" />
<rect x="44" y="124" width="4" height="4" fill="#ABC0DA" />
<rect x="48" y="124" width="4" height="4" fill="#ABC0DA" />
<rect x="52" y="124" width="4" height="4" fill="#ABC0DA" />
<rect x="56" y="124" width="4" height="4" fill="#D2E0F0" />
<rect x="60" y="124" width="4" height="4" fill="#D2E0F0" />
<rect x="64" y="124" width="4" height="4" fill="#51575E" />
<rect x="68" y="124" width="4" height="4" fill="#51575E" />
<rect x="24" y="128" width="4" height="4" fill="#5D636A" />
<rect x="28" y="128" width="4" height="4" fill="#51575E" />
<rect x="32" y="128" width="4" height="4" fill="#ABC0DA" />
<rect x="36" y="128" width="4" height="4" fill="#ABC0DA" />
<rect x="40" y="128" width="4" height="4" fill="#ABC0DA" />
<rect x="44" y="128" width="4" height="4" fill="#366F96" />
<rect x="48" y="128" width="4" height="4" fill="#ABC0DA" />
<rect x="52" y="128" width="4" height="4" fill="#ABC0DA" />
<rect x="56" y="128" width="4" height="4" fill="#ABC0DA" />
<rect x="60" y="128" width="4" height="4" fill="#ABC0DA" />
<rect x="64" y="128" width="4" height="4" fill="#51575E" />
<rect x="68" y="128" width="4" height="4" fill="#51575E" />
<rect x="24" y="132" width="4" height="4" fill="#51575E" />
<rect x="28" y="132" width="4" height="4" fill="#51575E" />
<rect x="32" y="132" width="4" height="4" fill="#D2E0F0" />
<rect x="36" y="132" width="4" height="4" fill="#ABC0DA" />
<rect x="40" y="132" width="4" height="4" fill="#366F96" />
<rect x="44" y="132" width="4" height="4" fill="#366F96" />
<rect x="48" y="132" width="4" height="4" fill="#ABC0DA" />
<rect x="52" y="132" width="4" height="4" fill="#ABC0DA" />
<rect x="56" y="132" width="4" height="4" fill="#ABC0DA" />
<rect x="60" y="132" width="4" height="4" fill="#ABC0DA" />
<rect x="64" y="132" width="4" height="4" fill="#51575E" />
<rect x="68" y="132" width="4" height="4" fill="#51575E" />
<rect x="24" y="136" width="4" height="4" fill="#51575E" />
<rect x="28" y="136" width="4" height="4" fill="#51575E" />
<rect x="32" y="136" width="4" height="4" fill="#ABC0DA" />
<rect x="36" y="136" width="4" height="4" fill="#ABC0DA" />
<rect x="40" y="136" width="4" height="4" fill="#366F96" />
<rect x="44" y="136" width="4" height="4" fill="#366F96" />
<rect x="48" y="136" width="4" height="4" fill="#C38962" />
<rect x="52" y="136" width="4" height="4" fill="#C38962" />
<rect x="56" y="136" width="4" height="4" fill="#ABC0DA" />
<rect x="60" y="136" width="4" height="4" fill="#D2E0F0" />
<rect x="64" y="136" width="4" height="4" fill="#51575E" />
<rect x="68" y="136" width="4" height="4" fill="#51575E" />
<rect x="24" y="140" width="4" height="4" fill="#51575E" />
<rect x="28" y="140" width="4" height="4" fill="#51575E" />
<rect x="32" y="140" width="4" height="4" fill="#ABC0DA" />
<rect x="36" y="140" width="4" height="4" fill="#ABC0DA" />
<rect x="40" y="140" width="4" height="4" fill="#366F96" />
<rect x="44" y="140" width="4" height="4" fill="#366F96" />
<rect x="48" y="140" width="4" height="4" fill="#C38962" />
<rect x="52" y="140" width="4" height="4" fill="#C38962" />
<rect x="56" y="140" width="4" height="4" fill="#ABC0DA" />
<rect x="60" y="140" width="4" height="4" fill="#ABC0DA" />
<rect x="64" y="140" width="4" height="4" fill="#51575E" />
<rect x="68" y="140" width="4" height="4" fill="#51575E" />
<rect x="24" y="144" width="4" height="4" fill="#51575E" />
<rect x="28" y="144" width="4" height="4" fill="#51575E" />
<rect x="32" y="144" width="4" height="4" fill="#637156" />
<rect x="36" y="144" width="4" height="4" fill="#637156" />
<rect x="40" y="144" width="4" height="4" fill="#637156" />
<rect x="44" y="144" width="4" height="4" fill="#71835F" />
<rect x="48" y="144" width="4" height="4" fill="#71835F" />
<rect x="52" y="144" width="4" height="4" fill="#71835F" />
<rect x="56" y="144" width="4" height="4" fill="#71835F" />
<rect x="60" y="144" width="4" height="4" fill="#71835F" />
<rect x="64" y="144" width="4" height="4" fill="#51575E" />
<rect x="68" y="144" width="4" height="4" fill="#5D636A" />
<rect x="24" y="148" width="4" height="4" fill="#51575E" />
<rect x="28" y="148" width="4" height="4" fill="#51575E" />
<rect x="32" y="148" width="4" height="4" fill="#637156" />
<rect x="36" y="148" width="4" height="4" fill="#637156" />
<rect x="40" y="148" width="4" height="4" fill="#637156" />
<rect x="44" y="148" width="4" height="4" fill="#637156" />
<rect x="48" y="148" width="4" height="4" fill="#637156" />
<rect x="52" y="148" width="4" height="4" fill="#71835F" />
<rect x="56" y="148" width="4" height="4" fill="#71835F" />
<rect x="60" y="148" width="4" height="4" fill="#71835F" />
<rect x="64" y="148" width="4" height="4" fill="#51575E" />
<rect x="68" y="148" width="4" height="4" fill="#5D636A" />
<rect x="28" y="152" width="4" height="4" fill="#51575E" />
<rect x="32" y="152" width="4" height="4" fill="#51575E" />
<rect x="36" y="152" width="4" height="4" fill="#51575E" />
<rect x="40" y="152" width="4" height="4" fill="#51575E" />
<rect x="44" y="152" width="4" height="4" fill="#51575E" />
<rect x="48" y="152" width="4" height="4" fill="#51575E" />
<rect x="52" y="152" width="4" height="4" fill="#51575E" />
<rect x="56" y="152" width="4" height="4" fill="#51575E" />
<rect x="60" y="152" width="4" height="4" fill="#51575E" />
<rect x="64" y="152" width="4" height="4" fill="#5D636A" />
<rect x="32" y="156" width="4" height="4" fill="#51575E" />
<rect x="36" y="156" width="4" height="4" fill="#51575E" />
<rect x="40" y="156" width="4" height="4" fill="#51575E" />
<rect x="44" y="156" width="4" height="4" fill="#51575E" />
<rect x="48" y="156" width="4" height="4" fill="#51575E" />
<rect x="52" y="156" width="4" height="4" fill="#51575E" />
<rect x="56" y="156" width="4" height="4" fill="#51575E" />
<rect x="60" y="156" width="4" height="4" fill="#51575E" />
</svg>