<?xml version="1.0" encoding="utf-8"?>
<!-- Generator: Adobe Illustrator 24.2.0, SVG Export Plug-In . SVG Version: 6.00 Build 0)  -->
<svg version="1.1" id="圖層_1" shape-rendering="crispEdges"
	 xmlns="http://www.w3.org/2000/svg" xmlns:xlink="http://www.w3.org/1999/xlink" x="0px" y="0px" viewBox="0 0 488 56"
	 style="enable-background:new 0 0 488 56;" xml:space="preserve">
<style type="text/css">
	.st0{fill:#4F392F;}
	.st1{fill:#4F4546;}
	.st2{fill:#C7A685;}
</style>
<g>
	<polygon class="st0" points="40,4 36,4 32,4 28,4 24,4 20,4 16,4 12,4 8,4 8,8 4,8 4,12 4,16 4,20 4,24 4,28 4,32 4,36 4,40 4,44 
		4,48 8,48 8,44 8,40 8,36 8,32 8,28 8,24 8,20 8,16 8,12 12,12 12,8 16,8 20,8 24,8 28,8 32,8 36,8 40,8 44,8 48,8 48,4 44,4 	"/>
	<polygon class="st0" points="112,4 108,4 104,4 100,4 96,4 92,4 88,4 84,4 80,4 80,8 76,8 76,12 76,16 76,20 76,24 76,28 76,32 
		76,36 76,40 76,44 76,48 80,48 80,44 80,40 80,36 80,32 80,28 80,24 80,20 80,16 80,12 84,12 84,8 88,8 92,8 96,8 100,8 104,8 
		108,8 112,8 116,8 120,8 120,4 116,4 	"/>
	<polygon class="st0" points="184,4 180,4 176,4 172,4 168,4 164,4 160,4 156,4 152,4 152,8 148,8 148,12 148,16 148,20 148,24 
		148,28 148,32 148,36 148,40 148,44 148,48 152,48 152,44 152,40 152,36 152,32 152,28 152,24 152,20 152,16 152,12 156,12 156,8 
		160,8 164,8 168,8 172,8 176,8 180,8 184,8 188,8 192,8 192,4 188,4 	"/>
	<polygon class="st0" points="256,4 252,4 248,4 244,4 240,4 236,4 232,4 228,4 224,4 224,8 220,8 220,12 220,16 220,20 220,24 
		220,28 220,32 220,36 220,40 220,44 220,48 224,48 224,44 224,40 224,36 224,32 224,28 224,24 224,20 224,16 224,12 228,12 228,8 
		232,8 236,8 240,8 244,8 248,8 252,8 256,8 260,8 264,8 264,4 260,4 	"/>
	<polygon class="st0" points="328,4 324,4 320,4 316,4 312,4 308,4 304,4 300,4 296,4 296,8 292,8 292,12 292,16 292,20 292,24 
		292,28 292,32 292,36 292,40 292,44 292,48 296,48 296,44 296,40 296,36 296,32 296,28 296,24 296,20 296,16 296,12 300,12 300,8 
		304,8 308,8 312,8 316,8 320,8 324,8 328,8 332,8 336,8 336,4 332,4 	"/>
	<polygon class="st0" points="400,4 396,4 392,4 388,4 384,4 380,4 376,4 372,4 368,4 368,8 364,8 364,12 364,16 364,20 364,24 
		364,28 364,32 364,36 364,40 364,44 364,48 368,48 368,44 368,40 368,36 368,32 368,28 368,24 368,20 368,16 368,12 372,12 372,8 
		376,8 380,8 384,8 388,8 392,8 396,8 400,8 404,8 408,8 408,4 404,4 	"/>
	<polygon class="st0" points="476,4 472,4 468,4 464,4 460,4 456,4 452,4 448,4 444,4 440,4 440,8 436,8 436,12 436,16 436,20 
		436,24 436,28 436,32 436,36 436,40 436,44 436,48 440,48 440,44 440,40 440,36 440,32 440,28 440,24 440,20 440,16 440,12 444,12 
		444,8 448,8 452,8 456,8 460,8 464,8 468,8 472,8 476,8 480,8 480,4 	"/>
</g>
<g>
	<polygon class="st1" points="44,8 40,8 36,8 32,8 28,8 24,8 20,8 16,8 12,8 12,12 8,12 8,16 8,20 8,24 8,28 8,32 8,36 8,40 8,44 
		8,48 8,52 12,52 16,52 20,52 24,52 28,52 32,52 36,52 40,52 44,52 48,52 48,48 52,48 52,44 52,40 52,36 52,32 52,28 52,24 52,20 
		52,16 52,12 52,8 48,8 	"/>
	<polygon class="st1" points="116,8 112,8 108,8 104,8 100,8 96,8 92,8 88,8 84,8 84,12 80,12 80,16 80,20 80,24 80,28 80,32 80,36 
		80,40 80,44 80,48 80,52 84,52 88,52 92,52 96,52 100,52 104,52 108,52 112,52 116,52 120,52 120,48 124,48 124,44 124,40 124,36 
		124,32 124,28 124,24 124,20 124,16 124,12 124,8 120,8 	"/>
	<polygon class="st1" points="188,8 184,8 180,8 176,8 172,8 168,8 164,8 160,8 156,8 156,12 152,12 152,16 152,20 152,24 152,28 
		152,32 152,36 152,40 152,44 152,48 152,52 156,52 160,52 164,52 168,52 172,52 176,52 180,52 184,52 188,52 192,52 192,48 196,48 
		196,44 196,40 196,36 196,32 196,28 196,24 196,20 196,16 196,12 196,8 192,8 	"/>
	<polygon class="st1" points="260,8 256,8 252,8 248,8 244,8 240,8 236,8 232,8 228,8 228,12 224,12 224,16 224,20 224,24 224,28 
		224,32 224,36 224,40 224,44 224,48 224,52 228,52 232,52 236,52 240,52 244,52 248,52 252,52 256,52 260,52 264,52 264,48 268,48 
		268,44 268,40 268,36 268,32 268,28 268,24 268,20 268,16 268,12 268,8 264,8 	"/>
	<polygon class="st1" points="332,8 328,8 324,8 320,8 316,8 312,8 308,8 304,8 300,8 300,12 296,12 296,16 296,20 296,24 296,28 
		296,32 296,36 296,40 296,44 296,48 296,52 300,52 304,52 308,52 312,52 316,52 320,52 324,52 328,52 332,52 336,52 336,48 340,48 
		340,44 340,40 340,36 340,32 340,28 340,24 340,20 340,16 340,12 340,8 336,8 	"/>
	<polygon class="st1" points="404,8 400,8 396,8 392,8 388,8 384,8 380,8 376,8 372,8 372,12 368,12 368,16 368,20 368,24 368,28 
		368,32 368,36 368,40 368,44 368,48 368,52 372,52 376,52 380,52 384,52 388,52 392,52 396,52 400,52 404,52 408,52 408,48 412,48 
		412,44 412,40 412,36 412,32 412,28 412,24 412,20 412,16 412,12 412,8 408,8 	"/>
	<polygon class="st1" points="480,8 476,8 472,8 468,8 464,8 460,8 456,8 452,8 448,8 444,8 444,12 440,12 440,16 440,20 440,24 
		440,28 440,32 440,36 440,40 440,44 440,48 440,52 444,52 448,52 452,52 456,52 460,52 464,52 468,52 472,52 476,52 480,52 480,48 
		484,48 484,44 484,40 484,36 484,32 484,28 484,24 484,20 484,16 484,12 484,8 	"/>
</g>
<g>
	<polygon class="st2" points="16,4 20,4 24,4 28,4 32,4 36,4 40,4 44,4 48,4 48,0 44,0 40,0 36,0 32,0 28,0 24,0 20,0 16,0 12,0 
		8,0 8,4 12,4 	"/>
	<polygon class="st2" points="88,4 92,4 96,4 100,4 104,4 108,4 112,4 116,4 120,4 120,0 116,0 112,0 108,0 104,0 100,0 96,0 92,0 
		88,0 84,0 80,0 80,4 84,4 	"/>
	<polygon class="st2" points="160,4 164,4 168,4 172,4 176,4 180,4 184,4 188,4 192,4 192,0 188,0 184,0 180,0 176,0 172,0 168,0 
		164,0 160,0 156,0 152,0 152,4 156,4 	"/>
	<polygon class="st2" points="232,4 236,4 240,4 244,4 248,4 252,4 256,4 260,4 264,4 264,0 260,0 256,0 252,0 248,0 244,0 240,0 
		236,0 232,0 228,0 224,0 224,4 228,4 	"/>
	<polygon class="st2" points="304,4 308,4 312,4 316,4 320,4 324,4 328,4 332,4 336,4 336,0 332,0 328,0 324,0 320,0 316,0 312,0 
		308,0 304,0 300,0 296,0 296,4 300,4 	"/>
	<polygon class="st2" points="376,4 380,4 384,4 388,4 392,4 396,4 400,4 404,4 408,4 408,0 404,0 400,0 396,0 392,0 388,0 384,0 
		380,0 376,0 372,0 368,0 368,4 372,4 	"/>
	<polygon class="st2" points="448,4 452,4 456,4 460,4 464,4 468,4 472,4 476,4 480,4 480,0 476,0 472,0 468,0 464,0 460,0 456,0 
		452,0 448,0 444,0 440,0 440,4 444,4 	"/>
	<rect x="4" y="4" class="st2" width="4" height="4"/>
	<rect x="48" y="4" class="st2" width="4" height="4"/>
	<rect x="76" y="4" class="st2" width="4" height="4"/>
	<rect x="120" y="4" class="st2" width="4" height="4"/>
	<rect x="148" y="4" class="st2" width="4" height="4"/>
	<rect x="192" y="4" class="st2" width="4" height="4"/>
	<rect x="220" y="4" class="st2" width="4" height="4"/>
	<rect x="264" y="4" class="st2" width="4" height="4"/>
	<rect x="292" y="4" class="st2" width="4" height="4"/>
	<rect x="336" y="4" class="st2" width="4" height="4"/>
	<rect x="364" y="4" class="st2" width="4" height="4"/>
	<rect x="408" y="4" class="st2" width="4" height="4"/>
	<rect x="436" y="4" class="st2" width="4" height="4"/>
	<rect x="480" y="4" class="st2" width="4" height="4"/>
	<polygon class="st2" points="52,12 52,16 52,20 52,24 52,28 52,32 52,36 52,40 52,44 52,48 56,48 56,44 56,40 56,36 56,32 56,28 
		56,24 56,20 56,16 56,12 56,8 52,8 	"/>
	<polygon class="st2" points="124,12 124,16 124,20 124,24 124,28 124,32 124,36 124,40 124,44 124,48 128,48 128,44 128,40 128,36 
		128,32 128,28 128,24 128,20 128,16 128,12 128,8 124,8 	"/>
	<polygon class="st2" points="196,12 196,16 196,20 196,24 196,28 196,32 196,36 196,40 196,44 196,48 200,48 200,44 200,40 200,36 
		200,32 200,28 200,24 200,20 200,16 200,12 200,8 196,8 	"/>
	<polygon class="st2" points="268,12 268,16 268,20 268,24 268,28 268,32 268,36 268,40 268,44 268,48 272,48 272,44 272,40 272,36 
		272,32 272,28 272,24 272,20 272,16 272,12 272,8 268,8 	"/>
	<polygon class="st2" points="340,12 340,16 340,20 340,24 340,28 340,32 340,36 340,40 340,44 340,48 344,48 344,44 344,40 344,36 
		344,32 344,28 344,24 344,20 344,16 344,12 344,8 340,8 	"/>
	<polygon class="st2" points="412,12 412,16 412,20 412,24 412,28 412,32 412,36 412,40 412,44 412,48 416,48 416,44 416,40 416,36 
		416,32 416,28 416,24 416,20 416,16 416,12 416,8 412,8 	"/>
	<polygon class="st2" points="484,8 484,12 484,16 484,20 484,24 484,28 484,32 484,36 484,40 484,44 484,48 488,48 488,44 488,40 
		488,36 488,32 488,28 488,24 488,20 488,16 488,12 488,8 	"/>
	<polygon class="st2" points="4,40 4,36 4,32 4,28 4,24 4,20 4,16 4,12 4,8 0,8 0,12 0,16 0,20 0,24 0,28 0,32 0,36 0,40 0,44 0,48 
		4,48 4,44 	"/>
	<polygon class="st2" points="76,40 76,36 76,32 76,28 76,24 76,20 76,16 76,12 76,8 72,8 72,12 72,16 72,20 72,24 72,28 72,32 
		72,36 72,40 72,44 72,48 76,48 76,44 	"/>
	<polygon class="st2" points="148,40 148,36 148,32 148,28 148,24 148,20 148,16 148,12 148,8 144,8 144,12 144,16 144,20 144,24 
		144,28 144,32 144,36 144,40 144,44 144,48 148,48 148,44 	"/>
	<polygon class="st2" points="220,40 220,36 220,32 220,28 220,24 220,20 220,16 220,12 220,8 216,8 216,12 216,16 216,20 216,24 
		216,28 216,32 216,36 216,40 216,44 216,48 220,48 220,44 	"/>
	<polygon class="st2" points="292,40 292,36 292,32 292,28 292,24 292,20 292,16 292,12 292,8 288,8 288,12 288,16 288,20 288,24 
		288,28 288,32 288,36 288,40 288,44 288,48 292,48 292,44 	"/>
	<polygon class="st2" points="364,40 364,36 364,32 364,28 364,24 364,20 364,16 364,12 364,8 360,8 360,12 360,16 360,20 360,24 
		360,28 360,32 360,36 360,40 360,44 360,48 364,48 364,44 	"/>
	<polygon class="st2" points="436,40 436,36 436,32 436,28 436,24 436,20 436,16 436,12 436,8 432,8 432,12 432,16 432,20 432,24 
		432,28 432,32 432,36 432,40 432,44 432,48 436,48 436,44 	"/>
	<rect x="4" y="48" class="st2" width="4" height="4"/>
	<rect x="48" y="48" class="st2" width="4" height="4"/>
	<rect x="76" y="48" class="st2" width="4" height="4"/>
	<rect x="120" y="48" class="st2" width="4" height="4"/>
	<rect x="148" y="48" class="st2" width="4" height="4"/>
	<rect x="192" y="48" class="st2" width="4" height="4"/>
	<rect x="220" y="48" class="st2" width="4" height="4"/>
	<rect x="264" y="48" class="st2" width="4" height="4"/>
	<rect x="292" y="48" class="st2" width="4" height="4"/>
	<rect x="336" y="48" class="st2" width="4" height="4"/>
	<rect x="364" y="48" class="st2" width="4" height="4"/>
	<rect x="408" y="48" class="st2" width="4" height="4"/>
	<rect x="436" y="48" class="st2" width="4" height="4"/>
	<rect x="480" y="48" class="st2" width="4" height="4"/>
	<polygon class="st2" points="40,52 36,52 32,52 28,52 24,52 20,52 16,52 12,52 8,52 8,56 12,56 16,56 20,56 24,56 28,56 32,56 
		36,56 40,56 44,56 48,56 48,52 44,52 	"/>
	<polygon class="st2" points="112,52 108,52 104,52 100,52 96,52 92,52 88,52 84,52 80,52 80,56 84,56 88,56 92,56 96,56 100,56 
		104,56 108,56 112,56 116,56 120,56 120,52 116,52 	"/>
	<polygon class="st2" points="184,52 180,52 176,52 172,52 168,52 164,52 160,52 156,52 152,52 152,56 156,56 160,56 164,56 168,56 
		172,56 176,56 180,56 184,56 188,56 192,56 192,52 188,52 	"/>
	<polygon class="st2" points="256,52 252,52 248,52 244,52 240,52 236,52 232,52 228,52 224,52 224,56 228,56 232,56 236,56 240,56 
		244,56 248,56 252,56 256,56 260,56 264,56 264,52 260,52 	"/>
	<polygon class="st2" points="328,52 324,52 320,52 316,52 312,52 308,52 304,52 300,52 296,52 296,56 300,56 304,56 308,56 312,56 
		316,56 320,56 324,56 328,56 332,56 336,56 336,52 332,52 	"/>
	<polygon class="st2" points="400,52 396,52 392,52 388,52 384,52 380,52 376,52 372,52 368,52 368,56 372,56 376,56 380,56 384,56 
		388,56 392,56 396,56 400,56 404,56 408,56 408,52 404,52 	"/>
	<polygon class="st2" points="472,52 468,52 464,52 460,52 456,52 452,52 448,52 444,52 440,52 440,56 444,56 448,56 452,56 456,56 
		460,56 464,56 468,56 472,56 476,56 480,56 480,52 476,52 	"/>
</g>
</svg>
