<?xml version="1.0" encoding="utf-8"?>
<!-- Generator: Adobe Illustrator 24.2.0, SVG Export Plug-In . SVG Version: 6.00 Build 0)  -->
<svg version="1.1" id="圖層_1" shape-rendering="crispEdges"
	 xmlns="http://www.w3.org/2000/svg" xmlns:xlink="http://www.w3.org/1999/xlink" x="0px" y="0px" viewBox="0 0 152 76"
	 style="enable-background:new 0 0 152 76;" xml:space="preserve">
<style type="text/css">
	.st0{fill:#4F7F8C;}
	.st1{fill:#1E3D4B;}
	.st2{fill:#254A5A;}
	.st3{fill:#376577;}
	.st4{fill:#2C5669;}
	.st5{fill:#2E5B6F;}
	.st6{fill:#5291A0;}
	.st7{fill:#ABC0DA;}
	.st8{fill:#234655;}
</style>
<rect class="st0" width="4" height="4"/>
<rect x="4" class="st1" width="4" height="4"/>
<rect x="8" class="st1" width="4" height="4"/>
<rect x="12" class="st1" width="4" height="4"/>
<rect x="16" class="st2" width="4" height="4"/>
<rect x="4" y="4" class="st3" width="4" height="4"/>
<rect x="8" y="4" class="st1" width="4" height="4"/>
<rect x="12" y="4" class="st2" width="4" height="4"/>
<rect x="16" y="4" class="st2" width="4" height="4"/>
<rect x="20" y="4" class="st4" width="4" height="4"/>
<rect x="24" y="4" class="st4" width="4" height="4"/>
<rect x="28" y="4" class="st4" width="4" height="4"/>
<rect x="32" y="4" class="st4" width="4" height="4"/>
<rect x="8" y="8" class="st3" width="4" height="4"/>
<rect x="12" y="8" class="st2" width="4" height="4"/>
<rect x="16" y="8" class="st4" width="4" height="4"/>
<rect x="20" y="8" class="st4" width="4" height="4"/>
<rect x="24" y="8" class="st4" width="4" height="4"/>
<rect x="28" y="8" class="st4" width="4" height="4"/>
<rect x="32" y="8" class="st4" width="4" height="4"/>
<rect x="36" y="8" class="st5" width="4" height="4"/>
<rect x="40" y="8" class="st5" width="4" height="4"/>
<rect x="44" y="8" class="st5" width="4" height="4"/>
<rect x="48" y="8" class="st5" width="4" height="4"/>
<rect x="12" y="12" class="st3" width="4" height="4"/>
<rect x="16" y="12" class="st4" width="4" height="4"/>
<rect x="20" y="12" class="st4" width="4" height="4"/>
<rect x="24" y="12" class="st4" width="4" height="4"/>
<rect x="28" y="12" class="st4" width="4" height="4"/>
<rect x="32" y="12" class="st5" width="4" height="4"/>
<rect x="36" y="12" class="st5" width="4" height="4"/>
<rect x="40" y="12" class="st5" width="4" height="4"/>
<rect x="44" y="12" class="st5" width="4" height="4"/>
<rect x="48" y="12" class="st5" width="4" height="4"/>
<rect x="52" y="12" class="st5" width="4" height="4"/>
<rect x="56" y="12" class="st5" width="4" height="4"/>
<rect x="60" y="12" class="st5" width="4" height="4"/>
<rect x="16" y="16" class="st0" width="4" height="4"/>
<rect x="20" y="16" class="st4" width="4" height="4"/>
<rect x="24" y="16" class="st4" width="4" height="4"/>
<rect x="28" y="16" class="st5" width="4" height="4"/>
<rect x="32" y="16" class="st5" width="4" height="4"/>
<rect x="36" y="16" class="st5" width="4" height="4"/>
<rect x="40" y="16" class="st5" width="4" height="4"/>
<rect x="44" y="16" class="st5" width="4" height="4"/>
<rect x="48" y="16" class="st5" width="4" height="4"/>
<rect x="52" y="16" class="st5" width="4" height="4"/>
<rect x="56" y="16" class="st5" width="4" height="4"/>
<rect x="60" y="16" class="st5" width="4" height="4"/>
<rect x="64" y="16" class="st5" width="4" height="4"/>
<rect x="68" y="16" class="st5" width="4" height="4"/>
<rect x="72" y="16" class="st5" width="4" height="4"/>
<rect x="20" y="20" class="st0" width="4" height="4"/>
<rect x="24" y="20" class="st0" width="4" height="4"/>
<rect x="28" y="20" class="st5" width="4" height="4"/>
<rect x="32" y="20" class="st5" width="4" height="4"/>
<rect x="36" y="20" class="st5" width="4" height="4"/>
<rect x="40" y="20" class="st5" width="4" height="4"/>
<rect x="44" y="20" class="st5" width="4" height="4"/>
<rect x="48" y="20" class="st5" width="4" height="4"/>
<rect x="52" y="20" class="st5" width="4" height="4"/>
<rect x="56" y="20" class="st5" width="4" height="4"/>
<rect x="60" y="20" class="st5" width="4" height="4"/>
<rect x="64" y="20" class="st5" width="4" height="4"/>
<rect x="68" y="20" class="st5" width="4" height="4"/>
<rect x="72" y="20" class="st4" width="4" height="4"/>
<rect x="76" y="20" class="st4" width="4" height="4"/>
<rect x="80" y="20" class="st4" width="4" height="4"/>
<rect x="28" y="24" class="st0" width="4" height="4"/>
<rect x="32" y="24" class="st5" width="4" height="4"/>
<rect x="36" y="24" class="st5" width="4" height="4"/>
<rect x="40" y="24" class="st5" width="4" height="4"/>
<rect x="44" y="24" class="st5" width="4" height="4"/>
<rect x="48" y="24" class="st5" width="4" height="4"/>
<rect x="52" y="24" class="st5" width="4" height="4"/>
<rect x="56" y="24" class="st5" width="4" height="4"/>
<rect x="60" y="24" class="st5" width="4" height="4"/>
<rect x="64" y="24" class="st5" width="4" height="4"/>
<rect x="68" y="24" class="st4" width="4" height="4"/>
<rect x="72" y="24" class="st4" width="4" height="4"/>
<rect x="76" y="24" class="st4" width="4" height="4"/>
<rect x="80" y="24" class="st4" width="4" height="4"/>
<rect x="84" y="24" class="st4" width="4" height="4"/>
<rect x="88" y="24" class="st4" width="4" height="4"/>
<rect x="32" y="28" class="st6" width="4" height="4"/>
<rect x="36" y="28" class="st5" width="4" height="4"/>
<rect x="40" y="28" class="st5" width="4" height="4"/>
<rect x="44" y="28" class="st5" width="4" height="4"/>
<rect x="48" y="28" class="st5" width="4" height="4"/>
<rect x="52" y="28" class="st5" width="4" height="4"/>
<rect x="56" y="28" class="st5" width="4" height="4"/>
<rect x="60" y="28" class="st5" width="4" height="4"/>
<rect x="64" y="28" class="st5" width="4" height="4"/>
<rect x="68" y="28" class="st4" width="4" height="4"/>
<rect x="72" y="28" class="st4" width="4" height="4"/>
<rect x="76" y="28" class="st4" width="4" height="4"/>
<rect x="80" y="28" class="st4" width="4" height="4"/>
<rect x="84" y="28" class="st4" width="4" height="4"/>
<rect x="88" y="28" class="st4" width="4" height="4"/>
<rect x="92" y="28" class="st2" width="4" height="4"/>
<rect x="96" y="28" class="st2" width="4" height="4"/>
<rect x="36" y="32" class="st7" width="4" height="4"/>
<rect x="40" y="32" class="st7" width="4" height="4"/>
<rect x="44" y="32" class="st5" width="4" height="4"/>
<rect x="48" y="32" class="st5" width="4" height="4"/>
<rect x="52" y="32" class="st5" width="4" height="4"/>
<rect x="56" y="32" class="st5" width="4" height="4"/>
<rect x="60" y="32" class="st5" width="4" height="4"/>
<rect x="64" y="32" class="st4" width="4" height="4"/>
<rect x="68" y="32" class="st4" width="4" height="4"/>
<rect x="72" y="32" class="st4" width="4" height="4"/>
<rect x="76" y="32" class="st4" width="4" height="4"/>
<rect x="80" y="32" class="st4" width="4" height="4"/>
<rect x="84" y="32" class="st4" width="4" height="4"/>
<rect x="88" y="32" class="st2" width="4" height="4"/>
<rect x="92" y="32" class="st2" width="4" height="4"/>
<rect x="96" y="32" class="st2" width="4" height="4"/>
<rect x="100" y="32" class="st2" width="4" height="4"/>
<rect x="44" y="36" class="st7" width="4" height="4"/>
<rect x="48" y="36" class="st5" width="4" height="4"/>
<rect x="52" y="36" class="st5" width="4" height="4"/>
<rect x="56" y="36" class="st5" width="4" height="4"/>
<rect x="60" y="36" class="st5" width="4" height="4"/>
<rect x="64" y="36" class="st4" width="4" height="4"/>
<rect x="68" y="36" class="st4" width="4" height="4"/>
<rect x="72" y="36" class="st4" width="4" height="4"/>
<rect x="76" y="36" class="st4" width="4" height="4"/>
<rect x="80" y="36" class="st4" width="4" height="4"/>
<rect x="84" y="36" class="st4" width="4" height="4"/>
<rect x="88" y="36" class="st2" width="4" height="4"/>
<rect x="92" y="36" class="st2" width="4" height="4"/>
<rect x="96" y="36" class="st2" width="4" height="4"/>
<rect x="100" y="36" class="st2" width="4" height="4"/>
<rect x="104" y="36" class="st2" width="4" height="4"/>
<rect x="108" y="36" class="st2" width="4" height="4"/>
<rect x="48" y="40" class="st7" width="4" height="4"/>
<rect x="52" y="40" class="st7" width="4" height="4"/>
<rect x="56" y="40" class="st5" width="4" height="4"/>
<rect x="60" y="40" class="st4" width="4" height="4"/>
<rect x="64" y="40" class="st4" width="4" height="4"/>
<rect x="68" y="40" class="st4" width="4" height="4"/>
<rect x="72" y="40" class="st4" width="4" height="4"/>
<rect x="76" y="40" class="st4" width="4" height="4"/>
<rect x="80" y="40" class="st4" width="4" height="4"/>
<rect x="84" y="40" class="st2" width="4" height="4"/>
<rect x="88" y="40" class="st2" width="4" height="4"/>
<rect x="92" y="40" class="st2" width="4" height="4"/>
<rect x="96" y="40" class="st2" width="4" height="4"/>
<rect x="100" y="40" class="st2" width="4" height="4"/>
<rect x="104" y="40" class="st2" width="4" height="4"/>
<rect x="108" y="40" class="st8" width="4" height="4"/>
<rect x="112" y="40" class="st8" width="4" height="4"/>
<rect x="116" y="40" class="st8" width="4" height="4"/>
<rect x="56" y="44" class="st6" width="4" height="4"/>
<rect x="60" y="44" class="st6" width="4" height="4"/>
<rect x="64" y="44" class="st4" width="4" height="4"/>
<rect x="68" y="44" class="st4" width="4" height="4"/>
<rect x="72" y="44" class="st4" width="4" height="4"/>
<rect x="76" y="44" class="st4" width="4" height="4"/>
<rect x="80" y="44" class="st2" width="4" height="4"/>
<rect x="84" y="44" class="st2" width="4" height="4"/>
<rect x="88" y="44" class="st2" width="4" height="4"/>
<rect x="92" y="44" class="st2" width="4" height="4"/>
<rect x="96" y="44" class="st2" width="4" height="4"/>
<rect x="100" y="44" class="st2" width="4" height="4"/>
<rect x="104" y="44" class="st8" width="4" height="4"/>
<rect x="108" y="44" class="st8" width="4" height="4"/>
<rect x="112" y="44" class="st8" width="4" height="4"/>
<rect x="116" y="44" class="st8" width="4" height="4"/>
<rect x="120" y="44" class="st8" width="4" height="4"/>
<rect x="64" y="48" class="st6" width="4" height="4"/>
<rect x="68" y="48" class="st6" width="4" height="4"/>
<rect x="72" y="48" class="st4" width="4" height="4"/>
<rect x="76" y="48" class="st4" width="4" height="4"/>
<rect x="80" y="48" class="st2" width="4" height="4"/>
<rect x="84" y="48" class="st2" width="4" height="4"/>
<rect x="88" y="48" class="st2" width="4" height="4"/>
<rect x="92" y="48" class="st2" width="4" height="4"/>
<rect x="96" y="48" class="st2" width="4" height="4"/>
<rect x="100" y="48" class="st2" width="4" height="4"/>
<rect x="104" y="48" class="st8" width="4" height="4"/>
<rect x="108" y="48" class="st8" width="4" height="4"/>
<rect x="112" y="48" class="st8" width="4" height="4"/>
<rect x="116" y="48" class="st8" width="4" height="4"/>
<rect x="120" y="48" class="st8" width="4" height="4"/>
<rect x="124" y="48" class="st1" width="4" height="4"/>
<rect x="72" y="52" class="st6" width="4" height="4"/>
<rect x="76" y="52" class="st6" width="4" height="4"/>
<rect x="80" y="52" class="st2" width="4" height="4"/>
<rect x="84" y="52" class="st2" width="4" height="4"/>
<rect x="88" y="52" class="st2" width="4" height="4"/>
<rect x="92" y="52" class="st2" width="4" height="4"/>
<rect x="96" y="52" class="st2" width="4" height="4"/>
<rect x="100" y="52" class="st8" width="4" height="4"/>
<rect x="104" y="52" class="st8" width="4" height="4"/>
<rect x="108" y="52" class="st8" width="4" height="4"/>
<rect x="112" y="52" class="st8" width="4" height="4"/>
<rect x="116" y="52" class="st8" width="4" height="4"/>
<rect x="120" y="52" class="st1" width="4" height="4"/>
<rect x="124" y="52" class="st1" width="4" height="4"/>
<rect x="128" y="52" class="st1" width="4" height="4"/>
<rect x="132" y="52" class="st1" width="4" height="4"/>
<rect x="80" y="56" class="st6" width="4" height="4"/>
<rect x="84" y="56" class="st6" width="4" height="4"/>
<rect x="88" y="56" class="st6" width="4" height="4"/>
<rect x="92" y="56" class="st2" width="4" height="4"/>
<rect x="96" y="56" class="st2" width="4" height="4"/>
<rect x="100" y="56" class="st8" width="4" height="4"/>
<rect x="104" y="56" class="st8" width="4" height="4"/>
<rect x="108" y="56" class="st8" width="4" height="4"/>
<rect x="112" y="56" class="st8" width="4" height="4"/>
<rect x="116" y="56" class="st8" width="4" height="4"/>
<rect x="120" y="56" class="st1" width="4" height="4"/>
<rect x="124" y="56" class="st1" width="4" height="4"/>
<rect x="128" y="56" class="st1" width="4" height="4"/>
<rect x="132" y="56" class="st1" width="4" height="4"/>
<rect x="136" y="56" class="st1" width="4" height="4"/>
<rect x="92" y="60" class="st6" width="4" height="4"/>
<rect x="96" y="60" class="st6" width="4" height="4"/>
<rect x="100" y="60" class="st8" width="4" height="4"/>
<rect x="104" y="60" class="st8" width="4" height="4"/>
<rect x="108" y="60" class="st8" width="4" height="4"/>
<rect x="112" y="60" class="st8" width="4" height="4"/>
<rect x="116" y="60" class="st1" width="4" height="4"/>
<rect x="120" y="60" class="st1" width="4" height="4"/>
<rect x="124" y="60" class="st1" width="4" height="4"/>
<rect x="128" y="60" class="st1" width="4" height="4"/>
<rect x="132" y="60" class="st1" width="4" height="4"/>
<rect x="136" y="60" class="st1" width="4" height="4"/>
<rect x="140" y="60" class="st1" width="4" height="4"/>
<rect x="100" y="64" class="st6" width="4" height="4"/>
<rect x="104" y="64" class="st6" width="4" height="4"/>
<rect x="108" y="64" class="st8" width="4" height="4"/>
<rect x="112" y="64" class="st8" width="4" height="4"/>
<rect x="116" y="64" class="st1" width="4" height="4"/>
<rect x="120" y="64" class="st1" width="4" height="4"/>
<rect x="124" y="64" class="st1" width="4" height="4"/>
<rect x="128" y="64" class="st1" width="4" height="4"/>
<rect x="132" y="64" class="st1" width="4" height="4"/>
<rect x="136" y="64" class="st1" width="4" height="4"/>
<rect x="140" y="64" class="st1" width="4" height="4"/>
<rect x="144" y="64" class="st1" width="4" height="4"/>
<rect x="108" y="68" class="st0" width="4" height="4"/>
<rect x="112" y="68" class="st0" width="4" height="4"/>
<rect x="116" y="68" class="st0" width="4" height="4"/>
<rect x="120" y="68" class="st0" width="4" height="4"/>
<rect x="124" y="68" class="st1" width="4" height="4"/>
<rect x="128" y="68" class="st1" width="4" height="4"/>
<rect x="132" y="68" class="st1" width="4" height="4"/>
<rect x="136" y="68" class="st1" width="4" height="4"/>
<rect x="140" y="68" class="st1" width="4" height="4"/>
<rect x="144" y="68" class="st1" width="4" height="4"/>
<rect x="148" y="68" class="st1" width="4" height="4"/>
<rect x="124" y="72" class="st0" width="4" height="4"/>
<rect x="128" y="72" class="st0" width="4" height="4"/>
<rect x="132" y="72" class="st3" width="4" height="4"/>
<rect x="136" y="72" class="st3" width="4" height="4"/>
<rect x="140" y="72" class="st3" width="4" height="4"/>
<rect x="144" y="72" class="st3" width="4" height="4"/>
<rect x="148" y="72" class="st3" width="4" height="4"/>
</svg>
