<?xml version="1.0" encoding="utf-8"?>
<!-- Generator: Adobe Illustrator 24.2.0, SVG Export Plug-In . SVG Version: 6.00 Build 0)  -->
<svg version="1.1" id="圖層_1" shape-rendering="crispEdges"
	 xmlns="http://www.w3.org/2000/svg" xmlns:xlink="http://www.w3.org/1999/xlink" x="0px" y="0px" viewBox="0 0 232.6 243.9"
	 style="enable-background:new 0 0 232.6 243.9;" xml:space="preserve">
<style type="text/css">
	.st0{opacity:0.6863;fill:#55AEC2;enable-background:new    ;}
	.st1{opacity:0.6863;fill:#549CAD;enable-background:new    ;}
	.st2{fill:#5FCDE4;}
	.st3{fill:#55AEC2;}
	.st4{opacity:0.6863;fill:#55A0B2;enable-background:new    ;}
	.st5{fill:#5291A0;}
	.st6{opacity:0.6863;fill:#4C7C8A;enable-background:new    ;}
	.st7{fill:#D2E0F0;}
	.st8{opacity:0.6863;fill:#4A7988;enable-background:new    ;}
	.st9{fill:#294E5F;}
	.st10{opacity:0.6863;fill:#294E5F;enable-background:new    ;}
	.st11{fill:#5CC1D6;}
	.st12{opacity:0.69;}
	.st13{fill:#4F7F8C;}
	.st14{opacity:0.6863;fill:#467584;enable-background:new    ;}
	.st15{opacity:0.6863;fill:#487786;enable-background:new    ;}
	.st16{fill:#55A8BB;}
	.st17{opacity:0.6863;fill:#427181;enable-background:new    ;}
	.st18{fill:#5397A7;}
	.st19{fill:#294F60;}
	.st20{opacity:0.6863;fill:#457483;enable-background:new    ;}
	.st21{opacity:0.6863;fill:#427180;enable-background:new    ;}
	.st22{opacity:0.6863;fill:#3C6A7B;enable-background:new    ;}
	.st23{opacity:0.6863;fill:#406F7F;enable-background:new    ;}
	.st24{opacity:0.6863;fill:#336073;enable-background:new    ;}
	.st25{opacity:0.6863;fill:#336174;enable-background:new    ;}
	.st26{opacity:0.6863;fill:#376476;enable-background:new    ;}
	.st27{opacity:0.6863;fill:#376577;enable-background:new    ;}
	.st28{opacity:0.6863;fill:#396779;enable-background:new    ;}
	.st29{fill:#2B5568;}
	.st30{fill:#2E5B6F;}
	.st31{fill:#295163;}
	.st32{fill:#254A5A;}
	.st33{opacity:0.6863;fill:#2B5568;enable-background:new    ;}
	.st34{opacity:0.6863;fill:#55A8BB;enable-background:new    ;}
	.st35{opacity:0.6863;fill:#59B2C6;enable-background:new    ;}
	.st36{fill:#59B2C6;}
	.st37{opacity:0.6863;fill:#518997;enable-background:new    ;}
	.st38{fill:#518997;}
	.st39{opacity:0.6863;fill:#2C586B;enable-background:new    ;}
	.st40{fill:#2C586B;}
	.st41{opacity:0.6863;fill:#2A5365;enable-background:new    ;}
	.st42{fill:#2A5365;}
	.st43{opacity:0.6863;fill:#295163;enable-background:new    ;}
	.st44{opacity:0.7;fill:#254A5A;}
	.st45{opacity:0.7;fill:#5397A7;}
</style>
<path class="st0" d="M56,116.2c-2,0-6,0-8,0v4h-4v4h-4c0,3.6,0,8.4,0,12h4c0-2,0-6,0-8h4v-4c3.6,0,8.4,0,12,0c0-2,0-6,0-8H56z"/>
<rect x="48" y="132.2" class="st1" width="4" height="4"/>
<g>
	<path class="st2" d="M52,80.2c0,2,0,6,0,8h4c0-2,0-6,0-8H52z"/>
	<path class="st2" d="M48,92.2v4h4c0-2,0-6,0-8h-4V92.2z"/>
	<path class="st2" d="M44,100.2v4h4c0-2,0-6,0-8h-4V100.2z"/>
	<path class="st2" d="M40,108.2c0,2,0,6,0,8h4c0-3.6,0-8.4,0-12h-4V108.2z"/>
	<path class="st2" d="M36,120.2v4h4c0-2,0-6,0-8h-4V120.2z"/>
	<path class="st2" d="M32,128.2c0,9.2,0,18.8,0,28h4c0-10.5,0-21.5,0-32h-4V128.2z"/>
</g>
<rect x="40" y="164.2" class="st3" width="4" height="4"/>
<g>
	<rect x="52" y="128.2" class="st4" width="4" height="4"/>
	<path class="st4" d="M44,148.2c0,7.8,0,16.2,0,24h4c0-9.2,0-18.8,0-28h-4V148.2z"/>
</g>
<rect x="52" y="172.2" class="st5" width="4" height="4"/>
<rect x="44" y="176.2" class="st3" width="4" height="4"/>
<rect x="52" y="176.2" class="st5" width="4" height="4"/>
<rect x="144" y="176.2" class="st6" width="4" height="4"/>
<rect x="52" y="180.2" class="st5" width="4" height="4"/>
<rect x="140" y="180.2" class="st6" width="4" height="4"/>
<rect x="144" y="180.2" class="st6" width="4" height="4"/>
<rect x="52" y="184.2" class="st5" width="4" height="4"/>
<rect x="140" y="184.2" class="st6" width="4" height="4"/>
<g>
	<path class="st7" d="M96,4.2v-4h-4c0,2,0,6,0,8h-4c0,2,0,6,0,8h-4c0,2,0,6,0,8h-4v4h-4c0,2,0,6,0,8h-4c0,2,0,6,0,8h-4c0,2,0,6,0,8
		h4v-4h4c0-2,0-6,0-8h4v-4h4c0-2,0-6,0-8h4c0-2,0-6,0-8h4c0-2,0-6,0-8h4v-4h4v-4H96z"/>
	<path class="st7" d="M48,180.2h-4c0-2,0-6,0-8h-4c0-2,0-6,0-8h-4c0-2,0-6,0-8h-4c0-2,0-6,0-8h-4v-4h-4c0,5,0,11,0,16h4c0,2,0,6,0,8
		h4c0,2,0,6,0,8h4v4h4v4h4v4h4v4h4c0-2,0-6,0-8h-4V180.2z"/>
</g>
<rect x="56" y="188.2" class="st5" width="4" height="4"/>
<rect x="136" y="188.2" class="st8" width="4" height="4"/>
<rect x="140" y="188.2" class="st8" width="4" height="4"/>
<rect x="64" y="192.2" class="st5" width="4" height="4"/>
<rect x="136" y="192.2" class="st8" width="4" height="4"/>
<rect x="172" y="192.2" class="st9" width="4" height="4"/>
<rect x="72" y="196.2" class="st5" width="4" height="4"/>
<path class="st10" d="M168,188.2h-4v4h-4v4h-4v4c2,0,6,0,8,0v-4c2,0,6,0,8,0c0-2,0-6,0-8H168z"/>
<g>
	<rect x="92" y="12.2" class="st11" width="4" height="4"/>
	<rect x="88" y="20.2" class="st11" width="4" height="4"/>
	<rect x="84" y="28.2" class="st11" width="4" height="4"/>
	<rect x="80" y="36.2" class="st11" width="4" height="4"/>
	<path class="st11" d="M76,44.2v4h4c0-2,0-6,0-8h-4V44.2z"/>
	<path class="st11" d="M72,52.2h-4v4h-4c0,2,0,6,0,8h-4v4h-4c0,2,0,6,0,8h-4v4h4c0,2,0,6,0,8h4c0-3.6,0-8.4,0-12h4v-4h4c0-2,0-6,0-8
		h4c0-2,0-6,0-8h4c0-2,0-6,0-8h-4V52.2z"/>
	<rect x="48" y="84.2" class="st11" width="4" height="4"/>
	<path class="st11" d="M52,92.2v4h4c0-2,0-6,0-8h-4V92.2z"/>
	<rect x="44" y="92.2" class="st11" width="4" height="4"/>
	<path class="st11" d="M48,100.2v4h4c0-2,0-6,0-8h-4V100.2z"/>
	<rect x="40" y="100.2" class="st11" width="4" height="4"/>
	<path class="st11" d="M44,108.2c0,2,0,6,0,8h4c0-3.6,0-8.4,0-12h-4V108.2z"/>
	<path class="st11" d="M40,112.2v-4h-4c0,2,0,6,0,8h4V112.2z"/>
	<path class="st11" d="M36,116.2h-4c0,2,0,6,0,8h4C36,122.2,36,118.2,36,116.2z"/>
	<path class="st11" d="M40,120.2v4h4c0-2,0-6,0-8h-4V120.2z"/>
	<path class="st11" d="M36,128.2c0,11.9,0,24.1,0,36h4c0-13.2,0-26.8,0-40h-4V128.2z"/>
	<path class="st11" d="M28,136.2c0,3.6,0,8.4,0,12h4c0-5,0-11,0-16h-4V136.2z"/>
	<rect x="40" y="168.2" class="st11" width="4" height="4"/>
	<rect x="52" y="192.2" class="st11" width="4" height="4"/>
	<rect x="60" y="196.2" class="st11" width="4" height="4"/>
	<rect x="68" y="200.2" class="st11" width="4" height="4"/>
</g>
<rect x="80" y="200.2" class="st5" width="4" height="4"/>
<g class="st12">
	<path class="st13" d="M128,8.2c-5,0-11,0-16,0v4h-4c0,2,0,6,0,8h-4c0,2,0,6,0,8h-4c0,2,0,6,0,8h-4c0,2,0,6,0,8h-4c0,2,0,6,0,8h-4
		c0,2,0,6,0,8h-4c0,2,0,6,0,8h-4c0,3.6,0,8.4,0,12h-4c0,2,0,6,0,8h-4c0,2,0,6,0,8h-4c0,2,0,6,0,8h-4c0,3.6,0,8.4,0,12h-4
		c0,2,0,6,0,8h-4c0,2,0,6,0,8h-4c0,10.5,0,21.5,0,32c2,0,6,0,8,0v-4h4v-4h4c0-2,0-6,0-8h4c0-2,0-6,0-8h4c0-2,0-6,0-8h4c0-2,0-6,0-8
		h4c0-2,0-6,0-8h4c0-2,0-6,0-8h4c0-2,0-6,0-8h4c0-3.6,0-8.4,0-12h4c0-2,0-6,0-8h4c0-2,0-6,0-8h4c0-2,0-6,0-8h4c0-3.6,0-8.4,0-12h4
		c0-2,0-6,0-8h4c0-2,0-6,0-8h4c0-2,0-6,0-8h4c0-2,0-6,0-8h4c0-2,0-6,0-8h-4V8.2z"/>
	<path class="st13" d="M212,56.2v-4h-4v4h-4c0,2,0,6,0,8h-4c0,2,0,6,0,8h-4c0,2,0,6,0,8h-4c0,2,0,6,0,8h-4c0,2,0,6,0,8h-4
		c0,2,0,6,0,8h-4c0,2,0,6,0,8h-4c0,2,0,6,0,8h-4v4h-4c0,2,0,6,0,8h-4c0,2,0,6,0,8h-4c0,2,0,6,0,8h-4c0,2,0,6,0,8h-4c0,2,0,6,0,8h-4
		c0,2,0,6,0,8h-4v4c2,0,6,0,8,0c0-2,0-6,0-8h4c0-2,0-6,0-8h4c0-2,0-6,0-8h4c0-2,0-6,0-8h4v-4h4c0-2,0-6,0-8h4c0-2,0-6,0-8h4
		c0-2,0-6,0-8h4c0-2,0-6,0-8h4c0-2,0-6,0-8h4v-4h4c0-2,0-6,0-8h4c0-2,0-6,0-8h4c0-2,0-6,0-8h4c0-2,0-6,0-8h4v-4h4v-4H212z"/>
	<path class="st13" d="M52,68.2c0-2,0-6,0-8h4c0-2,0-6,0-8h4c0-2,0-6,0-8h4c0-2,0-6,0-8h4c0-2,0-6,0-8h4c0-2,0-6,0-8h4c0-2,0-6,0-8
		h4c0-2,0-6,0-8h4v-4c-2,0-6,0-8,0c0,2,0,6,0,8h-4c0,2,0,6,0,8h-4c0,2,0,6,0,8h-4c0,2,0,6,0,8h-4c0,2,0,6,0,8h-4c0,2,0,6,0,8h-4
		c0,2,0,6,0,8h-4c0,2,0,6,0,8h-4c0,2,0,6,0,8h-4c0,2,0,6,0,8h-4c0,2,0,6,0,8h-4c0,2,0,6,0,8h-4c0,2,0,6,0,8h-4c0,5,0,11,0,16h-4
		c0,9.2,0,18.8,0,28h4c0-5,0-11,0-16h4c0-6.4,0-13.6,0-20h4c0-2,0-6,0-8h4c0-2,0-6,0-8h4c0-2,0-6,0-8h4c0-2,0-6,0-8h4c0-2,0-6,0-8h4
		V68.2z"/>
	<rect x="60" y="184.2" class="st13" width="4" height="4"/>
	<path class="st13" d="M68,188.2h-4v4c2,0,6,0,8,0v-4H68z"/>
	<path class="st13" d="M76,192.2h-4v4c2,0,6,0,8,0v-4H76z"/>
	<rect x="80" y="196.2" class="st13" width="4" height="4"/>
	<rect x="88" y="200.2" class="st13" width="4" height="4"/>
</g>
<rect x="124" y="200.2" class="st14" width="4" height="4"/>
<rect x="128" y="200.2" class="st14" width="4" height="4"/>
<polygon class="st15" points="136,196.2 136,192.2 132,192.2 132,196.2 128,196.2 128,200.2 132,200.2 132,204.2 136,204.2 
	136,200.2 140,200.2 140,196.2 "/>
<g>
	<rect x="28" y="124.2" class="st16" width="4" height="4"/>
	<rect x="28" y="128.2" class="st16" width="4" height="4"/>
	<rect x="44" y="172.2" class="st16" width="4" height="4"/>
	<rect x="148" y="180.2" class="st16" width="4" height="4"/>
	<rect x="40" y="184.2" class="st16" width="4" height="4"/>
	<rect x="144" y="184.2" class="st16" width="4" height="4"/>
	<rect x="44" y="188.2" class="st16" width="4" height="4"/>
	<rect x="144" y="188.2" class="st16" width="4" height="4"/>
	<rect x="48" y="192.2" class="st16" width="4" height="4"/>
	<rect x="140" y="192.2" class="st16" width="4" height="4"/>
	<rect x="52" y="196.2" class="st16" width="4" height="4"/>
	<rect x="56" y="196.2" class="st16" width="4" height="4"/>
	<rect x="60" y="200.2" class="st16" width="4" height="4"/>
	<rect x="64" y="200.2" class="st16" width="4" height="4"/>
	<rect x="68" y="204.2" class="st16" width="4" height="4"/>
	<rect x="72" y="204.2" class="st16" width="4" height="4"/>
	<rect x="76" y="204.2" class="st16" width="4" height="4"/>
</g>
<rect x="120" y="204.2" class="st17" width="4" height="4"/>
<rect x="128" y="204.2" class="st14" width="4" height="4"/>
<g>
	<rect x="84" y="0.2" class="st18" width="4" height="4"/>
	<path class="st18" d="M80,8.2v4h4c0-2,0-6,0-8h-4V8.2z"/>
	<path class="st18" d="M76,16.2v4h4c0-2,0-6,0-8h-4V16.2z"/>
	<path class="st18" d="M72,24.2v4h4c0-2,0-6,0-8h-4V24.2z"/>
	<path class="st18" d="M68,32.2v4h4c0-2,0-6,0-8h-4V32.2z"/>
	<path class="st18" d="M64,40.2v4h4c0-2,0-6,0-8h-4V40.2z"/>
	<path class="st18" d="M60,48.2v4h4c0-2,0-6,0-8h-4V48.2z"/>
	<path class="st18" d="M56,56.2v4h4c0-2,0-6,0-8h-4V56.2z"/>
	<path class="st18" d="M52,64.2c0,2,0,6,0,8h4c0-3.6,0-8.4,0-12h-4V64.2z"/>
	<rect x="216" y="60.2" class="st18" width="4" height="4"/>
	<path class="st18" d="M212,68.2v4h4c0-2,0-6,0-8h-4V68.2z"/>
	<path class="st18" d="M48,76.2v4h4c0-2,0-6,0-8h-4V76.2z"/>
	<path class="st18" d="M208,76.2v4h4c0-2,0-6,0-8h-4V76.2z"/>
	<path class="st18" d="M44,84.2v4h4c0-2,0-6,0-8h-4V84.2z"/>
	<path class="st18" d="M204,84.2v4h4c0-2,0-6,0-8h-4V84.2z"/>
	<path class="st18" d="M40,92.2v4h4c0-2,0-6,0-8h-4V92.2z"/>
	<path class="st18" d="M200,92.2v4h4c0-2,0-6,0-8h-4V92.2z"/>
	<path class="st18" d="M36,100.2v4h4c0-2,0-6,0-8h-4V100.2z"/>
	<path class="st18" d="M196,100.2h-4c0,2,0,6,0,8h4v-4h4c0-2,0-6,0-8h-4V100.2z"/>
	<path class="st18" d="M32,108.2v4h4c0-2,0-6,0-8h-4V108.2z"/>
	<path class="st18" d="M188,112.2v4h4c0-2,0-6,0-8h-4V112.2z"/>
	<path class="st18" d="M28,116.2c0,2,0,6,0,8h4c0-3.6,0-8.4,0-12h-4V116.2z"/>
	<path class="st18" d="M184,120.2v4h4c0-2,0-6,0-8h-4V120.2z"/>
	<path class="st18" d="M180,128.2v4h4c0-2,0-6,0-8h-4V128.2z"/>
	<path class="st18" d="M24,136.2c0,2,0,6,0,8h4c0-3.6,0-8.4,0-12h-4V136.2z"/>
	<path class="st18" d="M176,136.2v4h4c0-2,0-6,0-8h-4V136.2z"/>
	<rect x="172" y="140.2" class="st18" width="4" height="4"/>
	<path class="st18" d="M168,148.2v4h4c0-2,0-6,0-8h-4V148.2z"/>
	<path class="st18" d="M164,156.2v4h4c0-2,0-6,0-8h-4V156.2z"/>
	<path class="st18" d="M160,164.2v4h4c0-2,0-6,0-8h-4V164.2z"/>
	<path class="st18" d="M48,168.2c0,5,0,11,0,16h4c0-6.4,0-13.6,0-20h-4V168.2z"/>
	<path class="st18" d="M156,172.2v4h4c0-2,0-6,0-8h-4V172.2z"/>
	<rect x="152" y="176.2" class="st18" width="4" height="4"/>
	<rect x="148" y="184.2" class="st18" width="4" height="4"/>
	<rect x="52" y="188.2" class="st18" width="4" height="4"/>
	<path class="st18" d="M60,192.2h-4v4c2,0,6,0,8,0v-4H60z"/>
	<rect x="144" y="192.2" class="st18" width="4" height="4"/>
	<path class="st18" d="M68,196.2h-4v4c2,0,6,0,8,0v-4H68z"/>
	<rect x="140" y="196.2" class="st18" width="4" height="4"/>
	<path class="st18" d="M76,200.2h-4v4c2,0,6,0,8,0v-4H76z"/>
	<rect x="136" y="200.2" class="st18" width="4" height="4"/>
	<path class="st18" d="M80,204.2v4c2,0,6,0,8,0v-4C86,204.2,82,204.2,80,204.2z"/>
	<rect x="132" y="204.2" class="st18" width="4" height="4"/>
</g>
<rect x="28" y="208.2" class="st19" width="4" height="4"/>
<path class="st20" d="M124,204.2c0,2,0,6,0,8h4c0-2,0-6,0-8H124z"/>
<rect x="28" y="212.2" class="st19" width="4" height="4"/>
<path class="st21" d="M120,208.2h-4v4h4v4h4c0-2,0-6,0-8H120z"/>
<rect x="104" y="216.2" class="st22" width="4" height="4"/>
<path class="st23" d="M120,216.2v-4c-3.6,0-8.4,0-12,0c0,2,0,6,0,8c5,0,11,0,16,0v-4H120z"/>
<rect x="76" y="220.2" class="st24" width="4" height="4"/>
<g>
	<path class="st25" d="M164,24.2h-4v-4c-2,0-6,0-8,0v-4c-2,0-6,0-8,0c0,3.6,0,8.4,0,12h-4c0,2,0,6,0,8h-4c0,2,0,6,0,8h-4
		c0,2,0,6,0,8h-4c0,3.6,0,8.4,0,12h-4c0,2,0,6,0,8h-4c0,2,0,6,0,8h-4c0,2,0,6,0,8h-4c0,2,0,6,0,8h-4c0,3.6,0,8.4,0,12h-4
		c0,2,0,6,0,8h-4c0,2,0,6,0,8h-4c0,2,0,6,0,8h-4c0,3.6,0,8.4,0,12h-4c0,2,0,6,0,8h-4c0,2,0,6,0,8h-4v4h-4v4c-2,0-6,0-8,0v4
		c-2,0-6,0-8,0c0,2,0,6,0,8h4v4h4v4c2,0,6,0,8,0v4h4v-4h4v-4h4v-4h4v-4h4c0-2,0-6,0-8h4c0-2,0-6,0-8h4c0-2,0-6,0-8h4c0-2,0-6,0-8h4
		c0-2,0-6,0-8h4c0-2,0-6,0-8h4c0-2,0-6,0-8h4c0-2,0-6,0-8h4c0-2,0-6,0-8h4c0-2,0-6,0-8h4c0-2,0-6,0-8h4c0-2,0-6,0-8h4c0-2,0-6,0-8h4
		c0-2,0-6,0-8h4c0-2,0-6,0-8h4c0-2,0-6,0-8h4c0-2,0-6,0-8h4c0-2,0-6,0-8h4c0-2,0-6,0-8H164z"/>
	<path class="st25" d="M84,212.2h-4v-4c-3.6,0-8.4,0-12,0v-4c-2,0-6,0-8,0v-4c-2,0-6,0-8,0v-4h-4v-4c-3.6,0-8.4,0-12,0c0,2,0,6,0,8
		h4v4h4v4h4v4h4v4c2,0,6,0,8,0v4h4v4c3.6,0,8.4,0,12,0v-4h4v4c2,0,6,0,8,0c0-2,0-6,0-8h-4V212.2z"/>
</g>
<path class="st26" d="M92,220.2h-4v4c2,0,6,0,8,0v-4H92z"/>
<rect x="104" y="220.2" class="st22" width="4" height="4"/>
<rect x="108" y="220.2" class="st22" width="4" height="4"/>
<rect x="112" y="220.2" class="st22" width="4" height="4"/>
<g>
	<path class="st27" d="M56,44.2v-4h4c0-2,0-6,0-8h4c0-2,0-6,0-8h4c0-2,0-6,0-8h4c0-2,0-6,0-8h4c0-2,0-6,0-8h-4v4h-4c0,2,0,6,0,8h-4
		c0,2,0,6,0,8h-4c0,2,0,6,0,8h-4c0,2,0,6,0,8h-4c0,2,0,6,0,8h-4c0,2,0,6,0,8h-4c0,2,0,6,0,8h-4c0,2,0,6,0,8h-4c0,2,0,6,0,8h-4
		c0,2,0,6,0,8h-4c0,3.6,0,8.4,0,12h4c0-2,0-6,0-8h4c0-2,0-6,0-8h4c0-2,0-6,0-8h4c0-2,0-6,0-8h4c0-2,0-6,0-8h4c0-2,0-6,0-8h4V44.2z"
		/>
	<path class="st27" d="M204,52.2h-4v4h-4c0,2,0,6,0,8h-4c0,2,0,6,0,8h-4c0,2,0,6,0,8h-4c0,2,0,6,0,8h-4c0,2,0,6,0,8h-4c0,2,0,6,0,8
		h-4c0,2,0,6,0,8h-4c0,2,0,6,0,8h-4v4h-4c0,2,0,6,0,8h-4c0,2,0,6,0,8h-4c0,2,0,6,0,8h-4c0,2,0,6,0,8h-4c0,2,0,6,0,8h-4c0,2,0,6,0,8
		h-4c0,2,0,6,0,8h-4c0,2,0,6,0,8h-4v4h-4v4h-4v4h-4v4h-4v4h-4v4c2,0,6,0,8,0v-4h4v-4h4v-4h4v-4h4v-4h4v-4h4c0-2,0-6,0-8h4
		c0-2,0-6,0-8h4c0-2,0-6,0-8h4c0-2,0-6,0-8h4c0-2,0-6,0-8h4c0-2,0-6,0-8h4c0-2,0-6,0-8h4c0-2,0-6,0-8h4v-4h4c0-2,0-6,0-8h4
		c0-2,0-6,0-8h4c0-2,0-6,0-8h4c0-2,0-6,0-8h4c0-2,0-6,0-8h4c0-2,0-6,0-8h4c0-2,0-6,0-8h4c0-2,0-6,0-8h4v-4H204z"/>
	<path class="st27" d="M24,100.2v4h4c0-2,0-6,0-8h-4V100.2z"/>
	<path class="st27" d="M20,108.2c0,3.6,0,8.4,0,12h4c0-5,0-11,0-16h-4V108.2z"/>
	<path class="st27" d="M16,124.2c0,5,0,11,0,16h4c0-6.4,0-13.6,0-20h-4V124.2z"/>
	<path class="st27" d="M80,160.2h4c0-2,0-6,0-8h4c0-2,0-6,0-8h4c0-3.6,0-8.4,0-12h4c0-2,0-6,0-8h4c0-2,0-6,0-8h4c0-2,0-6,0-8h4
		c0-3.6,0-8.4,0-12h4c0-2,0-6,0-8h4c0-2,0-6,0-8h4c0-2,0-6,0-8h4c0-2,0-6,0-8h4c0-3.6,0-8.4,0-12h4c0-2,0-6,0-8h4c0-2,0-6,0-8h4
		c0-2,0-6,0-8h4c0-3.6,0-8.4,0-12h-4v-4c-2,0-6,0-8,0c0,2,0,6,0,8h-4c0,2,0,6,0,8h-4c0,2,0,6,0,8h-4c0,2,0,6,0,8h-4c0,2,0,6,0,8h-4
		c0,3.6,0,8.4,0,12h-4c0,2,0,6,0,8h-4c0,2,0,6,0,8h-4c0,2,0,6,0,8h-4c0,3.6,0,8.4,0,12h-4c0,2,0,6,0,8h-4c0,2,0,6,0,8h-4
		c0,2,0,6,0,8h-4c0,2,0,6,0,8h-4c0,2,0,6,0,8h-4c0,2,0,6,0,8h-4c0,2,0,6,0,8h-4v4h-4v4h-4c0,5,0,11,0,16h4c0-2,0-6,0-8c2,0,6,0,8,0
		v-4c2,0,6,0,8,0v-4h4V160.2z"/>
	<rect x="60" y="180.2" class="st27" width="4" height="4"/>
	<path class="st27" d="M40,184.2v-4h-4v-4h-4c0-2,0-6,0-8h-4c0-2,0-6,0-8h-4c0-3.6,0-8.4,0-12h-4c0,6.4,0,13.6,0,20h4
		c0,3.6,0,8.4,0,12h4c0,2,0,6,0,8h4c0,2,0,6,0,8h4v-4c2,0,6,0,8,0v-4h-4V184.2z"/>
	<rect x="64" y="184.2" class="st27" width="4" height="4"/>
	<rect x="72" y="188.2" class="st27" width="4" height="4"/>
	<rect x="80" y="192.2" class="st27" width="4" height="4"/>
	<path class="st27" d="M88,196.2h-4v4c2,0,6,0,8,0v-4H88z"/>
	<rect x="92" y="200.2" class="st27" width="4" height="4"/>
	<rect x="88" y="204.2" class="st27" width="4" height="4"/>
	<path class="st27" d="M100,212.2c-3.6,0-8.4,0-12,0v-4c-2,0-6,0-8,0v4h4v4h4v4c3.6,0,8.4,0,12,0v-4c2,0,6,0,8,0v-4
		C106,212.2,102,212.2,100,212.2z"/>
	<path class="st27" d="M92,224.2c-2,0-6,0-8,0v4c5,0,11,0,16,0v-4C98,224.2,94,224.2,92,224.2z"/>
</g>
<path class="st28" d="M104,224.2c0-2,0-6,0-8h-4v4h-4v4h4v4c2,0,6,0,8,0v-4H104z"/>
<rect x="124" y="228.2" class="st19" width="4" height="4"/>
<rect x="128" y="228.2" class="st19" width="4" height="4"/>
<rect x="132" y="228.2" class="st19" width="4" height="4"/>
<g>
	<rect x="60" y="4.2" class="st29" width="4" height="4"/>
	<rect x="56" y="12.2" class="st29" width="4" height="4"/>
	<rect x="52" y="20.2" class="st29" width="4" height="4"/>
	<rect x="48" y="28.2" class="st29" width="4" height="4"/>
	<rect x="44" y="36.2" class="st29" width="4" height="4"/>
	<rect x="40" y="44.2" class="st29" width="4" height="4"/>
	<rect x="36" y="52.2" class="st29" width="4" height="4"/>
	<rect x="32" y="60.2" class="st29" width="4" height="4"/>
	<rect x="28" y="68.2" class="st29" width="4" height="4"/>
	<rect x="24" y="76.2" class="st29" width="4" height="4"/>
	<rect x="20" y="84.2" class="st29" width="4" height="4"/>
	<rect x="16" y="92.2" class="st29" width="4" height="4"/>
	<rect x="12" y="104.2" class="st29" width="4" height="4"/>
	<rect x="8" y="112.2" class="st29" width="4" height="4"/>
	<rect x="12" y="180.2" class="st29" width="4" height="4"/>
	<rect x="16" y="188.2" class="st29" width="4" height="4"/>
	<rect x="20" y="192.2" class="st29" width="4" height="4"/>
	<rect x="24" y="200.2" class="st29" width="4" height="4"/>
	<rect x="28" y="204.2" class="st29" width="4" height="4"/>
	<path class="st29" d="M164,204.2h-4v4h-4v4c2,0,6,0,8,0v-4h4v-4H164z"/>
	<rect x="32" y="212.2" class="st29" width="4" height="4"/>
	<path class="st29" d="M152,216.2c-2,0-6,0-8,0v4c5,0,11,0,16,0v-4C158,216.2,154,216.2,152,216.2z"/>
	<path class="st29" d="M36,220.2v4c2,0,6,0,8,0v-4C42,220.2,38,220.2,36,220.2z"/>
	<path class="st29" d="M56,232.2v4c2,0,6,0,8,0v-4C62,232.2,58,232.2,56,232.2z"/>
</g>
<g class="st12">
	<path class="st30" d="M220,68.2h4v-4c-2,0-6,0-8,0c0,2,0,6,0,8h4V68.2z"/>
	<rect x="224" y="68.2" class="st30" width="4" height="4"/>
	<rect x="220" y="72.2" class="st30" width="4" height="4"/>
	<path class="st30" d="M216,76.2v-4h-4c0,2,0,6,0,8h4V76.2z"/>
	<rect x="216" y="80.2" class="st30" width="4" height="4"/>
	<path class="st30" d="M212,84.2v-4h-4c0,2,0,6,0,8h4V84.2z"/>
	<rect x="212" y="88.2" class="st30" width="4" height="4"/>
	<path class="st30" d="M208,92.2v-4h-4c0,2,0,6,0,8h4V92.2z"/>
	<rect x="228" y="92.2" class="st30" width="4" height="4"/>
	<rect x="208" y="96.2" class="st30" width="4" height="4"/>
	<path class="st30" d="M204,100.2v-4h-4c0,2,0,6,0,8h4V100.2z"/>
	<rect x="224" y="104.2" class="st30" width="4" height="4"/>
	<path class="st30" d="M196,112.2h4c0-2,0-6,0-8h-4v4h-4c0,2,0,6,0,8h4V112.2z"/>
	<rect x="220" y="112.2" class="st30" width="4" height="4"/>
	<rect x="196" y="116.2" class="st30" width="4" height="4"/>
	<path class="st30" d="M192,120.2v-4h-4c0,2,0,6,0,8h4V120.2z"/>
	<rect x="216" y="120.2" class="st30" width="4" height="4"/>
	<rect x="192" y="124.2" class="st30" width="4" height="4"/>
	<path class="st30" d="M188,128.2v-4h-4c0,2,0,6,0,8h4V128.2z"/>
	<rect x="212" y="128.2" class="st30" width="4" height="4"/>
	<path class="st30" d="M184,136.2v-4h-4c0,2,0,6,0,8h4V136.2z"/>
	<rect x="208" y="136.2" class="st30" width="4" height="4"/>
	<rect x="204" y="144.2" class="st30" width="4" height="4"/>
	<path class="st30" d="M176,148.2h4c0-2,0-6,0-8h-4v4h-4c0,2,0,6,0,8h4V148.2z"/>
	<rect x="176" y="152.2" class="st30" width="4" height="4"/>
	<rect x="200" y="152.2" class="st30" width="4" height="4"/>
	<path class="st30" d="M172,156.2v-4h-4c0,2,0,6,0,8h4V156.2z"/>
	<rect x="172" y="160.2" class="st30" width="4" height="4"/>
	<rect x="196" y="160.2" class="st30" width="4" height="4"/>
	<path class="st30" d="M168,164.2v-4h-4c0,2,0,6,0,8h4V164.2z"/>
	<rect x="192" y="168.2" class="st30" width="4" height="4"/>
	<path class="st30" d="M164,172.2v-4h-4c0,2,0,6,0,8h4V172.2z"/>
	<rect x="188" y="176.2" class="st30" width="4" height="4"/>
	<rect x="184" y="184.2" class="st30" width="4" height="4"/>
	<path class="st30" d="M84,196.2c2,0,6,0,8,0v4h4v4h-4v4h-4v4c6.4,0,13.6,0,20,0v-4h4v-4h4v-4h4v-4h4v-4h4v-4h4c0-2,0-6,0-8h4
		c0-2,0-6,0-8h4c0-2,0-6,0-8h4c0-2,0-6,0-8h4c0-2,0-6,0-8h4c0-2,0-6,0-8h4c0-2,0-6,0-8h4c0-2,0-6,0-8h4v-4h4c0-2,0-6,0-8h4
		c0-2,0-6,0-8h4c0-2,0-6,0-8h4c0-2,0-6,0-8h4c0-2,0-6,0-8h4c0-2,0-6,0-8h4c0-2,0-6,0-8h4c0-2,0-6,0-8h4v-4h4v-4h-4v-4h-4v-4
		c-2,0-6,0-8,0v-4c-2,0-6,0-8,0v-4h-4v-4c-2,0-6,0-8,0v4h-4c0,2,0,6,0,8h-4c0,2,0,6,0,8h-4c0,2,0,6,0,8h-4c0,2,0,6,0,8h-4
		c0,2,0,6,0,8h-4c0,2,0,6,0,8h-4c0,2,0,6,0,8h-4c0,2,0,6,0,8h-4c0,2,0,6,0,8h-4c0,2,0,6,0,8h-4c0,2,0,6,0,8h-4c0,2,0,6,0,8h-4
		c0,2,0,6,0,8h-4c0,2,0,6,0,8h-4c0,2,0,6,0,8h-4c0,2,0,6,0,8h-4c0,2,0,6,0,8h-4c0,2,0,6,0,8h-4v4h-4v4h-4v4h-4v4h4V196.2z"/>
	<rect x="180" y="192.2" class="st30" width="4" height="4"/>
	<rect x="176" y="196.2" class="st30" width="4" height="4"/>
	<rect x="172" y="204.2" class="st30" width="4" height="4"/>
	<rect x="168" y="208.2" class="st30" width="4" height="4"/>
	<rect x="164" y="212.2" class="st30" width="4" height="4"/>
	<rect x="160" y="216.2" class="st30" width="4" height="4"/>
	<path class="st30" d="M136,220.2h4v-4h4c0-2,0-6,0-8h4c0-2,0-6,0-8h4c0-2,0-6,0-8h4c0-2,0-6,0-8h4c0-2,0-6,0-8h-4v4h-4c0,2,0,6,0,8
		h-4c0,2,0,6,0,8h-4v4h-4v4h-4v4h-4v4h-4v4h-4v4c-2,0-6,0-8,0v4c-2,0-6,0-8,0v4c-7.8,0-16.2,0-24,0v-4c-6.4,0-13.6,0-20,0v-4h-4v-4
		c-2,0-6,0-8,0v-4h-4v-4h-4v-4h-4v-4h-4v-4h-4c0-2,0-6,0-8h-4c0-2,0-6,0-8h-4c0-3.6,0-8.4,0-12h-4c0-9.2,0-18.8,0-28h-4
		c0-6.4,0-13.6,0-20h4c0-5,0-11,0-16h4c0-2,0-6,0-8h4c0-3.6,0-8.4,0-12h4c0-2,0-6,0-8h4c0-2,0-6,0-8h4c0-2,0-6,0-8h4c0-2,0-6,0-8h4
		c0-2,0-6,0-8h4c0-2,0-6,0-8h4c0-2,0-6,0-8h4c0-2,0-6,0-8h4c0-2,0-6,0-8h4c0-2,0-6,0-8h-4v4h-4c0,2,0,6,0,8h-4c0,2,0,6,0,8h-4
		c0,2,0,6,0,8h-4c0,2,0,6,0,8h-4c0,2,0,6,0,8h-4c0,2,0,6,0,8h-4c0,2,0,6,0,8h-4c0,2,0,6,0,8h-4c0,2,0,6,0,8h-4c0,2,0,6,0,8h-4
		c0,2,0,6,0,8h-4c0,3.6,0,8.4,0,12h-4c0,2,0,6,0,8H8c0,10.5,0,21.5,0,32h4c0,10.5,0,21.5,0,32h4c0,2,0,6,0,8h4v4h4c0,2,0,6,0,8h4v4
		h4c0,2,0,6,0,8h4v4h4v4c2,0,6,0,8,0v4h4v4h4v4c3.6,0,8.4,0,12,0v4c14.6,0,29.4,0,44,0v-4c3.6,0,8.4,0,12,0v-4h4v-4c2,0,6,0,8,0
		V220.2z"/>
	<path class="st30" d="M152,220.2v4c2,0,6,0,8,0v-4C158,220.2,154,220.2,152,220.2z"/>
	<rect x="148" y="224.2" class="st30" width="4" height="4"/>
	<path class="st30" d="M140,228.2v4c2,0,6,0,8,0v-4C146,228.2,142,228.2,140,228.2z"/>
	<rect x="136" y="232.2" class="st30" width="4" height="4"/>
</g>
<g>
	<rect x="168" y="196.2" class="st31" width="4" height="4"/>
	<rect x="32" y="216.2" class="st31" width="4" height="4"/>
	<path class="st31" d="M132,224.2h-4v4c2,0,6,0,8,0v4h4c0-2,0-6,0-8C138,224.2,134,224.2,132,224.2z"/>
	<path class="st31" d="M64,236.2v4c2,0,6,0,8,0v-4C70,236.2,66,236.2,64,236.2z"/>
</g>
<rect x="72" y="236.2" class="st19" width="4" height="4"/>
<rect x="76" y="236.2" class="st19" width="4" height="4"/>
<g>
	<rect x="56" y="8.2" class="st32" width="4" height="4"/>
	<path class="st32" d="M52,16.2v4h4c0-2,0-6,0-8h-4V16.2z"/>
	<path class="st32" d="M48,24.2v4h4c0-2,0-6,0-8h-4V24.2z"/>
	<path class="st32" d="M44,32.2v4h4c0-2,0-6,0-8h-4V32.2z"/>
	<path class="st32" d="M40,40.2v4h4c0-2,0-6,0-8h-4V40.2z"/>
	<path class="st32" d="M36,48.2v4h4c0-2,0-6,0-8h-4V48.2z"/>
	<path class="st32" d="M32,56.2v4h4c0-2,0-6,0-8h-4V56.2z"/>
	<path class="st32" d="M28,64.2v4h4c0-2,0-6,0-8h-4V64.2z"/>
	<path class="st32" d="M24,72.2v4h4c0-2,0-6,0-8h-4V72.2z"/>
	<path class="st32" d="M20,80.2v4h4c0-2,0-6,0-8h-4V80.2z"/>
	<path class="st32" d="M16,88.2v4h4c0-2,0-6,0-8h-4V88.2z"/>
	<path class="st32" d="M12,96.2c0,2,0,6,0,8h4c0-3.6,0-8.4,0-12h-4V96.2z"/>
	<path class="st32" d="M8,108.2v4h4c0-2,0-6,0-8H8V108.2z"/>
	<path class="st32" d="M4,116.2c0,2,0,6,0,8h4c0-3.6,0-8.4,0-12H4V116.2z"/>
	<path class="st32" d="M24,200.2v-4h-4v-4h-4c0-2,0-6,0-8h-4c0-3.6,0-8.4,0-12H8c0-3.6,0-8.4,0-12H4c0-10.5,0-21.5,0-32H0
		c0,11.9,0,24.1,0,36h4c0,5,0,11,0,16h4c0,2,0,6,0,8h4c0,2,0,6,0,8h4v4h4c0,2,0,6,0,8h4v4h4c0-2,0-6,0-8h-4V200.2z"/>
	<path class="st32" d="M128,232.2c-5,0-11,0-16,0v4c-3.6,0-8.4,0-12,0v4c-6.4,0-13.6,0-20,0v4c11.9,0,24.1,0,36,0v-4c5,0,11,0,16,0
		v-4h4v-4C134,232.2,130,232.2,128,232.2z"/>
</g>
<g>
	<path class="st33" d="M8,144.2c0-6.4,0-13.6,0-20H4c0,11.9,0,24.1,0,36h4c0,3.6,0,8.4,0,12h4c0-7.8,0-16.2,0-24H8V144.2z"/>
	<path class="st33" d="M152,208.2h-4v4c2,0,6,0,8,0v-4H152z"/>
	<rect x="140" y="216.2" class="st33" width="4" height="4"/>
</g>
<path class="st34" d="M52,124.2h-4v4h-4c0,2,0,6,0,8h-4c0,9.2,0,18.8,0,28h4c0-6.4,0-13.6,0-20h4c0-3.6,0-8.4,0-12h4v-4h4v-4H52z"/>
<path class="st35" d="M108,4.2c-2,0-6,0-8,0v4h-4c0,2,0,6,0,8h-4c0,2,0,6,0,8h-4c0,2,0,6,0,8h-4c0,2,0,6,0,8h-4c0,2,0,6,0,8h-4
	c0,2,0,6,0,8h-4c0,2,0,6,0,8h-4c0,2,0,6,0,8h-4v4h-4c0,3.6,0,8.4,0,12h-4c0,2,0,6,0,8h-4c0,2,0,6,0,8h-4c0,3.6,0,8.4,0,12
	c5,0,11,0,16,0c0-3.6,0-8.4,0-12h4c0-2,0-6,0-8h4c0-2,0-6,0-8h4c0-2,0-6,0-8h4c0-3.6,0-8.4,0-12h4c0-2,0-6,0-8h4c0-2,0-6,0-8h4
	c0-2,0-6,0-8h4c0-2,0-6,0-8h4c0-2,0-6,0-8h4c0-2,0-6,0-8h4c0-2,0-6,0-8h4c0-2,0-6,0-8H108z"/>
<g>
	<path class="st36" d="M88,4.2h-4c0,2,0,6,0,8h-4c0,2,0,6,0,8h-4c0,2,0,6,0,8h4v-4h4c0-2,0-6,0-8h4c0-2,0-6,0-8h4c0-2,0-6,0-8h-4
		V4.2z"/>
	<path class="st36" d="M72,32.2v4h4c0-2,0-6,0-8h-4V32.2z"/>
	<path class="st36" d="M68,40.2v4h4c0-2,0-6,0-8h-4V40.2z"/>
	<path class="st36" d="M64,48.2v4h-4c0,2,0,6,0,8h-4c0,2,0,6,0,8h4v-4h4c0-2,0-6,0-8h4c0-3.6,0-8.4,0-12h-4V48.2z"/>
	<rect x="212" y="60.2" class="st36" width="4" height="4"/>
	<path class="st36" d="M208,68.2v4h4c0-2,0-6,0-8h-4V68.2z"/>
	<rect x="52" y="72.2" class="st36" width="4" height="4"/>
	<path class="st36" d="M204,76.2v4h4c0-2,0-6,0-8h-4V76.2z"/>
	<rect x="48" y="80.2" class="st36" width="4" height="4"/>
	<path class="st36" d="M200,84.2v4h4c0-2,0-6,0-8h-4V84.2z"/>
	<rect x="44" y="88.2" class="st36" width="4" height="4"/>
	<path class="st36" d="M196,92.2v4h4c0-2,0-6,0-8h-4V92.2z"/>
	<rect x="40" y="96.2" class="st36" width="4" height="4"/>
	<rect x="192" y="96.2" class="st36" width="4" height="4"/>
	<path class="st36" d="M188,104.2v4h4c0-2,0-6,0-8h-4V104.2z"/>
	<rect x="36" y="104.2" class="st36" width="4" height="4"/>
	<path class="st36" d="M184,112.2v4h4c0-2,0-6,0-8h-4V112.2z"/>
	<rect x="32" y="112.2" class="st36" width="4" height="4"/>
	<rect x="44" y="116.2" class="st36" width="4" height="4"/>
	<path class="st36" d="M180,120.2v4h4c0-2,0-6,0-8h-4V120.2z"/>
	<path class="st36" d="M176,128.2v4h4c0-2,0-6,0-8h-4V128.2z"/>
	<path class="st36" d="M172,136.2v4h4c0-2,0-6,0-8h-4V136.2z"/>
	<rect x="168" y="140.2" class="st36" width="4" height="4"/>
	<path class="st36" d="M164,148.2v4h4c0-2,0-6,0-8h-4V148.2z"/>
	<path class="st36" d="M160,156.2v4h4c0-2,0-6,0-8h-4V156.2z"/>
	<path class="st36" d="M156,164.2v4h4c0-2,0-6,0-8h-4V164.2z"/>
	<path class="st36" d="M152,172.2v4h4c0-2,0-6,0-8h-4V172.2z"/>
	<rect x="148" y="176.2" class="st36" width="4" height="4"/>
</g>
<g>
	<path class="st37" d="M52,156.2c0-3.6,0-8.4,0-12h-4c0,6.4,0,13.6,0,20h4C52,162.2,52,158.2,52,156.2z"/>
	<path class="st37" d="M52,164.2c0,2,0,6,0,8h4c0-2,0-6,0-8H52z"/>
</g>
<g>
	<path class="st38" d="M60,180.2h-4c0,2,0,6,0,8h4C60,186.2,60,182.2,60,180.2z"/>
	<rect x="60" y="188.2" class="st38" width="4" height="4"/>
	<rect x="68" y="192.2" class="st38" width="4" height="4"/>
	<rect x="76" y="196.2" class="st38" width="4" height="4"/>
	<rect x="84" y="200.2" class="st38" width="4" height="4"/>
	<rect x="128" y="208.2" class="st38" width="4" height="4"/>
	<rect x="124" y="212.2" class="st38" width="4" height="4"/>
</g>
<g>
	<rect x="220" y="68.2" class="st39" width="4" height="4"/>
	<path class="st39" d="M216,76.2v4h4c0-2,0-6,0-8h-4V76.2z"/>
	<path class="st39" d="M212,84.2v4h4c0-2,0-6,0-8h-4V84.2z"/>
	<path class="st39" d="M208,92.2v4h4c0-2,0-6,0-8h-4V92.2z"/>
	<path class="st39" d="M204,100.2v4h4c0-2,0-6,0-8h-4V100.2z"/>
	<path class="st39" d="M200,108.2v4h4c0-2,0-6,0-8h-4V108.2z"/>
	<rect x="196" y="112.2" class="st39" width="4" height="4"/>
	<path class="st39" d="M192,120.2v4h4c0-2,0-6,0-8h-4V120.2z"/>
	<path class="st39" d="M188,128.2v4h4c0-2,0-6,0-8h-4V128.2z"/>
	<path class="st39" d="M184,136.2v4h4c0-2,0-6,0-8h-4V136.2z"/>
	<path class="st39" d="M180,144.2v4h4c0-2,0-6,0-8h-4V144.2z"/>
	<rect x="176" y="148.2" class="st39" width="4" height="4"/>
	<path class="st39" d="M172,156.2v4h4c0-2,0-6,0-8h-4V156.2z"/>
	<path class="st39" d="M168,164.2v4h4c0-2,0-6,0-8h-4V164.2z"/>
	<path class="st39" d="M164,172.2v4h4c0-2,0-6,0-8h-4V172.2z"/>
	<path class="st39" d="M160,180.2v4h4c0-2,0-6,0-8h-4V180.2z"/>
	<path class="st39" d="M156,188.2v4h4c0-2,0-6,0-8h-4V188.2z"/>
	<rect x="152" y="192.2" class="st39" width="4" height="4"/>
	<path class="st39" d="M148,204.2v4h4c0-2,0-6,0-8h-4V204.2z"/>
	<path class="st39" d="M144,212.2v4h4c0-2,0-6,0-8h-4V212.2z"/>
</g>
<g>
	<rect x="228" y="96.2" class="st40" width="4" height="4"/>
	<rect x="224" y="100.2" class="st40" width="4" height="4"/>
	<rect x="220" y="108.2" class="st40" width="4" height="4"/>
	<rect x="216" y="116.2" class="st40" width="4" height="4"/>
	<rect x="212" y="124.2" class="st40" width="4" height="4"/>
	<rect x="208" y="132.2" class="st40" width="4" height="4"/>
	<rect x="204" y="140.2" class="st40" width="4" height="4"/>
	<rect x="200" y="148.2" class="st40" width="4" height="4"/>
	<rect x="196" y="156.2" class="st40" width="4" height="4"/>
	<rect x="192" y="164.2" class="st40" width="4" height="4"/>
	<rect x="188" y="172.2" class="st40" width="4" height="4"/>
	<rect x="184" y="180.2" class="st40" width="4" height="4"/>
	<rect x="180" y="188.2" class="st40" width="4" height="4"/>
	<rect x="168" y="204.2" class="st40" width="4" height="4"/>
	<rect x="164" y="208.2" class="st40" width="4" height="4"/>
	<path class="st40" d="M156,212.2c-2,0-6,0-8,0v4c5,0,11,0,16,0v-4C162,212.2,158,212.2,156,212.2z"/>
	<rect x="36" y="216.2" class="st40" width="4" height="4"/>
	<path class="st40" d="M52,224.2h-4v-4h-4c0,2,0,6,0,8h4v4c2,0,6,0,8,0v-4h-4V224.2z"/>
	<rect x="64" y="232.2" class="st40" width="4" height="4"/>
	<path class="st40" d="M92,236.2c-3.6,0-8.4,0-12,0v4c6.4,0,13.6,0,20,0v-4C98,236.2,94,236.2,92,236.2z"/>
</g>
<g>
	<rect x="224" y="72.2" class="st41" width="4" height="4"/>
	<path class="st41" d="M220,80.2v4h4c0-2,0-6,0-8h-4V80.2z"/>
	<path class="st41" d="M216,88.2v4h4c0-2,0-6,0-8h-4V88.2z"/>
	<path class="st41" d="M212,96.2v4h4c0-2,0-6,0-8h-4V96.2z"/>
	<rect x="208" y="100.2" class="st41" width="4" height="4"/>
	<path class="st41" d="M204,108.2v4h4c0-2,0-6,0-8h-4V108.2z"/>
	<path class="st41" d="M200,116.2v4h4c0-2,0-6,0-8h-4V116.2z"/>
	<path class="st41" d="M196,124.2v4h4c0-2,0-6,0-8h-4V124.2z"/>
	<rect x="192" y="128.2" class="st41" width="4" height="4"/>
	<path class="st41" d="M188,136.2v4h4c0-2,0-6,0-8h-4V136.2z"/>
	<path class="st41" d="M184,144.2v4h4c0-2,0-6,0-8h-4V144.2z"/>
	<path class="st41" d="M180,152.2v4h4c0-2,0-6,0-8h-4V152.2z"/>
	<path class="st41" d="M176,160.2v4h4c0-2,0-6,0-8h-4V160.2z"/>
	<rect x="172" y="164.2" class="st41" width="4" height="4"/>
	<path class="st41" d="M168,172.2v4h4c0-2,0-6,0-8h-4V172.2z"/>
	<path class="st41" d="M164,180.2v4h4c0-2,0-6,0-8h-4V180.2z"/>
	<path class="st41" d="M160,188.2v4h4c0-2,0-6,0-8h-4V188.2z"/>
	<rect x="156" y="192.2" class="st41" width="4" height="4"/>
	<path class="st41" d="M152,200.2c0,2,0,6,0,8c2,0,6,0,8,0v-4h-4c0-2,0-6,0-8h-4V200.2z"/>
</g>
<g>
	<rect x="228" y="88.2" class="st42" width="4" height="4"/>
	<path class="st42" d="M224,96.2v4h4c0-2,0-6,0-8h-4V96.2z"/>
	<path class="st42" d="M220,104.2v4h4c0-2,0-6,0-8h-4V104.2z"/>
	<path class="st42" d="M216,112.2v4h4c0-2,0-6,0-8h-4V112.2z"/>
	<path class="st42" d="M212,120.2v4h4c0-2,0-6,0-8h-4V120.2z"/>
	<path class="st42" d="M208,128.2v4h4c0-2,0-6,0-8h-4V128.2z"/>
	<path class="st42" d="M204,136.2v4h4c0-2,0-6,0-8h-4V136.2z"/>
	<path class="st42" d="M200,144.2v4h4c0-2,0-6,0-8h-4V144.2z"/>
	<path class="st42" d="M196,152.2v4h4c0-2,0-6,0-8h-4V152.2z"/>
	<path class="st42" d="M192,160.2v4h4c0-2,0-6,0-8h-4V160.2z"/>
	<path class="st42" d="M188,168.2v4h4c0-2,0-6,0-8h-4V168.2z"/>
	<path class="st42" d="M184,176.2v4h4c0-2,0-6,0-8h-4V176.2z"/>
	<path class="st42" d="M180,184.2v4h4c0-2,0-6,0-8h-4V184.2z"/>
	<path class="st42" d="M176,192.2v4h4c0-2,0-6,0-8h-4V192.2z"/>
	<path class="st42" d="M172,200.2c-2,0-6,0-8,0v4c3.6,0,8.4,0,12,0c0-2,0-6,0-8h-4V200.2z"/>
	<path class="st42" d="M144,220.2c-2,0-6,0-8,0v4h4v4c2,0,6,0,8,0v-4h4v-4C150,220.2,146,220.2,144,220.2z"/>
</g>
<g>
	<rect x="164" y="196.2" class="st43" width="4" height="4"/>
	<path class="st43" d="M156,200.2v4c2,0,6,0,8,0v-4C162,200.2,158,200.2,156,200.2z"/>
</g>
<path class="st44" d="M228,76.2h-4c0,2,0,6,0,8h-4c0,2,0,6,0,8h-4c0,2,0,6,0,8h-4v4h-4c0,2,0,6,0,8h-4c0,2,0,6,0,8h-4c0,2,0,6,0,8
	h-4v4h-4c0,2,0,6,0,8h-4c0,2,0,6,0,8h-4c0,2,0,6,0,8h-4c0,2,0,6,0,8h-4v4h-4c0,2,0,6,0,8h-4c0,2,0,6,0,8h-4v4c2,0,6,0,8,0v4h4v-4h4
	c0-2,0-6,0-8h4c0-2,0-6,0-8h4c0-2,0-6,0-8h4c0-2,0-6,0-8h4c0-2,0-6,0-8h4c0-2,0-6,0-8h4c0-2,0-6,0-8h4c0-2,0-6,0-8h4c0-2,0-6,0-8h4
	c0-2,0-6,0-8h4c0-2,0-6,0-8h4c0-2,0-6,0-8h4v-4h4c0-3.6,0-8.4,0-12H228z"/>
<path class="st45" d="M52,140.2v-4h-4c0,2,0,6,0,8h4V140.2z"/>
</svg>
