<?xml version="1.0" encoding="utf-8"?>
<!-- Generator: Adobe Illustrator 24.2.0, SVG Export Plug-In . SVG Version: 6.00 Build 0)  -->
<svg version="1.1" id="圖層_1" shape-rendering="crispEdges"
	 xmlns="http://www.w3.org/2000/svg" xmlns:xlink="http://www.w3.org/1999/xlink" x="0px" y="0px" viewBox="0 0 55.6 56"
	 style="enable-background:new 0 0 55.6 56;" xml:space="preserve">
<style type="text/css">
	.st0{fill:#035E55;}
	.st1{fill:#009A6C;}
	.st2{fill:#05FFB5;}
	.st3{fill:#17CE98;}
	.st4{opacity:0.1176;fill:#011E1B;enable-background:new    ;}
</style>
<g>
</g>
<g>
	<polygon class="st1" points="27.6,4 27.6,0 23.6,0 23.6,4 23.6,8 27.6,8 	"/>
	<polygon class="st1" points="23.6,12 23.6,8 19.6,8 19.6,12 19.6,16 23.6,16 	"/>
	<polygon class="st1" points="35.6,12 35.6,8 31.6,8 31.6,12 31.6,16 35.6,16 	"/>
	<polygon class="st1" points="35.6,40 35.6,36 31.6,36 31.6,40 31.6,44 35.6,44 	"/>
	<polygon class="st1" points="27.6,48 27.6,52 27.6,56 31.6,56 31.6,52 31.6,48 31.6,44 27.6,44 	"/>
	<polygon class="st1" points="35.6,52 35.6,56 39.6,56 39.6,52 39.6,48 35.6,48 	"/>
</g>
<g>
</g>
<g>
	<polygon class="st3" points="27.6,4 27.6,8 31.6,8 31.6,4 31.6,0 27.6,0 	"/>
	<polygon class="st3" points="35.6,4 35.6,8 35.6,12 35.6,16 35.6,20 35.6,24 35.6,28 35.6,32 35.6,36 35.6,40 35.6,44 35.6,48 
		39.6,48 39.6,44 39.6,40 39.6,36 39.6,32 39.6,28 39.6,24 39.6,20 39.6,16 39.6,12 39.6,8 39.6,4 39.6,0 35.6,0 	"/>
	<polygon class="st3" points="19.6,24 19.6,20 19.6,16 15.6,16 15.6,20 15.6,24 15.6,28 19.6,28 	"/>
	<rect x="-0.4" y="52" class="st3" width="4" height="4"/>
	<polygon class="st3" points="15.6,52 15.6,48 15.6,44 15.6,40 15.6,36 15.6,32 15.6,28 11.6,28 11.6,32 11.6,36 11.6,40 11.6,44 
		11.6,48 11.6,52 11.6,56 15.6,56 	"/>
</g>
<g>
	<polygon class="st4" points="47.6,0 43.6,0 39.6,0 39.6,4 39.6,8 39.6,12 39.6,16 39.6,20 39.6,24 39.6,28 39.6,32 39.6,36 
		39.6,40 39.6,44 39.6,48 39.6,52 39.6,56 43.6,56 47.6,56 51.6,56 55.6,56 55.6,52 55.6,48 55.6,44 55.6,40 55.6,36 55.6,32 
		55.6,28 55.6,24 55.6,20 55.6,16 55.6,12 55.6,8 55.6,4 55.6,0 51.6,0 	"/>
	<polygon class="st4" points="35.6,4 35.6,0 31.6,0 31.6,4 31.6,8 35.6,8 	"/>
	<polygon class="st4" points="23.6,16 19.6,16 19.6,20 19.6,24 19.6,28 15.6,28 15.6,32 15.6,36 15.6,40 15.6,44 15.6,48 15.6,52 
		15.6,56 19.6,56 23.6,56 27.6,56 27.6,52 27.6,48 27.6,44 31.6,44 31.6,40 31.6,36 35.6,36 35.6,32 35.6,28 35.6,24 35.6,20 
		35.6,16 31.6,16 31.6,12 31.6,8 27.6,8 23.6,8 23.6,12 	"/>
	<polygon class="st4" points="31.6,52 31.6,56 35.6,56 35.6,52 35.6,48 35.6,44 31.6,44 31.6,48 	"/>
	<polygon class="st4" points="3.6,56 7.6,56 11.6,56 11.6,52 11.6,48 11.6,44 11.6,40 11.6,36 11.6,32 11.6,28 15.6,28 15.6,24 
		15.6,20 15.6,16 19.6,16 19.6,12 19.6,8 23.6,8 23.6,4 23.6,0 19.6,0 15.6,0 11.6,0 7.6,0 3.6,0 -0.4,0 -0.4,4 -0.4,8 -0.4,12 
		-0.4,16 -0.4,20 -0.4,24 -0.4,28 -0.4,32 -0.4,36 -0.4,40 -0.4,44 -0.4,48 -0.4,52 3.6,52 	"/>
</g>
</svg>
