<?xml version="1.0" encoding="utf-8"?>
<!-- Generator: Adobe Illustrator 24.2.0, SVG Export Plug-In . SVG Version: 6.00 Build 0)  -->
<svg version="1.1" id="圖層_1" shape-rendering="crispEdges"
	 xmlns="http://www.w3.org/2000/svg" xmlns:xlink="http://www.w3.org/1999/xlink" x="0px" y="0px" viewBox="0 0 56 56"
	 style="enable-background:new 0 0 56 56;" xml:space="preserve">
<style type="text/css">
	.st0{fill:#035E55;}
	.st1{fill:#009A6C;}
	.st2{fill:#05FFB5;}
	.st3{fill:#17CE98;}
	.st4{opacity:0.1176;fill:#011E1B;enable-background:new    ;}
</style>
<g>
</g>
<g>
	<polygon class="st1" points="48,8 48,12 48,16 48,20 52,20 52,16 52,12 52,8 52,4 48,4 	"/>
	<rect x="44" y="20" class="st1" width="4" height="4"/>
</g>
<g>
	<rect x="20" y="24" class="st2" width="4" height="4"/>
	<rect x="40" y="24" class="st2" width="4" height="4"/>
	<polygon class="st2" points="32,28 28,28 28,32 32,32 36,32 40,32 40,28 36,28 	"/>
</g>
<g>
	<rect x="48" class="st3" width="4" height="4"/>
</g>
<g>
	<path class="st4" d="M52,4v4v4v4v4h-4v4h-4v4h-4v4h-4h-4h-4v-4h4h4h4v-4h4v-4h4v-4v-4V8V4V0h-4h-4h-4h-4h-4h-4h-4h-4h-4H8H4H0v4v4
		v4v4v4v4v4v4v4v4v4v4v4v4h4h4h4h4h4h4h4h4h4h4h4h4h4h4v-4v-4v-4v-4v-4v-4v-4v-4v-4v-4v-4V8V4V0h-4V4z M20,28v-4h4v4H20z"/>
</g>
</svg>
