<?xml version="1.0" encoding="utf-8"?>
<!-- Generator: Adobe Illustrator 24.2.0, SVG Export Plug-In . SVG Version: 6.00 Build 0)  -->
<svg version="1.1" id="圖層_1" shape-rendering="crispEdges"
	 xmlns="http://www.w3.org/2000/svg" xmlns:xlink="http://www.w3.org/1999/xlink" x="0px" y="0px" viewBox="0 0 84 176"
	 style="enable-background:new 0 0 84 176;" xml:space="preserve">
<style type="text/css">
	.st0{fill:#44484E;}
	.st1{fill:#616A74;}
	.st2{fill:#EC5E5E;}
	.st3{fill:#B8545D;}
	.st4{fill:#BFAFA0;}
	.st5{fill:#E5CAAE;}
	.st6{fill:#BDA120;}
	.st7{fill:#A88F1E;}
	.st8{fill:#F0CD2C;}
	.st9{fill:#C7AA25;}
	.st10{fill:#FFD40E;}
	.st11{fill:#DBBA25;}
	.st12{fill:#A87D22;}
	.st13{fill:#FFE7D8;}
	.st14{fill:#124365;}
	.st15{fill:#366F96;}
	.st16{fill:#18537C;}
	.st17{fill:#92785F;}
	.st18{fill:#4F393B;}
	.st19{fill:#745659;}
	.st20{fill:#5E4547;}
</style>
<rect x="32" y="4" class="st0" width="4" height="4"/>
<rect x="36" y="4" class="st0" width="4" height="4"/>
<rect x="32" y="8" class="st0" width="4" height="4"/>
<rect x="36" y="8" class="st0" width="4" height="4"/>
<polygon class="st1" points="52,4 48,4 44,4 40,4 40,8 40,12 44,12 48,12 52,12 56,12 56,8 56,4 "/>
<g>
	<polygon class="st2" points="44,4 48,4 48,0 44,0 40,0 36,0 36,4 40,4 	"/>
	<polygon class="st2" points="52,12 48,12 44,12 40,12 36,12 32,12 32,16 28,16 28,20 28,24 24,24 24,28 24,32 20,32 20,36 16,36 
		16,40 16,44 20,44 24,44 24,40 28,40 28,36 32,36 32,32 36,32 36,28 40,28 40,32 40,36 44,36 48,36 48,32 48,28 52,28 52,24 52,20 
		52,16 56,16 56,12 	"/>
</g>
<g>
	<rect x="48" class="st3" width="4" height="4"/>
	<polygon class="st3" points="52,16 52,20 52,24 52,28 56,28 56,24 56,20 56,16 	"/>
	<polygon class="st3" points="48,32 48,36 52,36 52,32 52,28 48,28 	"/>
	<polygon class="st3" points="40,36 40,32 40,28 36,28 36,32 32,32 32,36 28,36 28,40 32,40 36,40 40,40 44,40 48,40 48,36 44,36 	
		"/>
	<rect x="24" y="40" class="st3" width="4" height="4"/>
</g>
<rect x="40" y="40" class="st4" width="4" height="4"/>
<rect x="44" y="40" class="st5" width="4" height="4"/>
<rect x="80" y="56" class="st5" width="4" height="4"/>
<rect x="20" y="68" class="st6" width="4" height="4"/>
<rect x="24" y="68" class="st7" width="4" height="4"/>
<rect x="28" y="68" class="st6" width="4" height="4"/>
<rect x="32" y="68" class="st6" width="4" height="4"/>
<g>
	<rect x="52" y="44" class="st8" width="4" height="4"/>
	<polygon class="st8" points="32,48 28,48 24,48 24,52 28,52 32,52 36,52 40,52 40,48 36,48 	"/>
	<polygon class="st8" points="52,72 52,76 52,80 56,80 56,76 56,72 56,68 52,68 	"/>
</g>
<rect x="48" y="80" class="st9" width="4" height="4"/>
<polygon class="st10" points="36,52 32,52 28,52 24,52 20,52 20,56 20,60 20,64 20,68 24,68 28,68 32,68 36,68 36,72 36,76 36,80 
	36,84 36,88 40,88 40,84 40,80 40,76 40,72 40,68 40,64 40,60 40,56 40,52 "/>
<rect x="20" y="88" class="st5" width="4" height="4"/>
<rect x="24" y="88" class="st7" width="4" height="4"/>
<rect x="28" y="88" class="st7" width="4" height="4"/>
<rect x="32" y="88" class="st7" width="4" height="4"/>
<g>
	<rect x="48" y="48" class="st11" width="4" height="4"/>
	<polygon class="st11" points="36,80 36,76 36,72 32,72 28,72 24,72 20,72 20,76 20,80 20,84 20,88 24,88 28,88 32,88 36,88 36,84 	
		"/>
	<rect x="36" y="88" class="st11" width="4" height="4"/>
</g>
<polygon class="st12" points="44,48 40,48 40,52 40,56 40,60 40,64 40,68 40,72 40,76 40,80 40,84 40,88 40,92 44,92 44,88 48,88 
	48,84 48,80 48,76 48,72 48,68 48,64 48,60 48,56 48,52 48,48 "/>
<rect x="20" y="92" class="st4" width="4" height="4"/>
<rect x="20" y="96" class="st13" width="4" height="4"/>
<rect x="32" y="96" class="st14" width="4" height="4"/>
<rect x="36" y="96" class="st14" width="4" height="4"/>
<rect x="40" y="96" class="st14" width="4" height="4"/>
<rect x="44" y="96" class="st14" width="4" height="4"/>
<rect x="48" y="96" class="st14" width="4" height="4"/>
<rect x="28" y="100" class="st14" width="4" height="4"/>
<g>
	<rect x="36" y="44" class="st15" width="4" height="4"/>
	<rect x="72" y="64" class="st15" width="4" height="4"/>
	<rect x="64" y="68" class="st15" width="4" height="4"/>
	<polygon class="st15" points="32,96 36,96 36,92 32,92 28,92 28,96 28,100 32,100 	"/>
	<polygon class="st15" points="36,132 36,128 36,124 36,120 36,116 32,116 32,112 32,108 32,104 28,104 28,108 28,112 28,116 
		28,120 28,124 28,128 28,132 28,136 28,140 28,144 28,148 32,148 36,148 36,152 40,152 40,148 40,144 40,140 40,136 36,136 	"/>
</g>
<g>
	<polygon class="st16" points="48,44 44,44 40,44 40,48 44,48 48,48 52,48 52,44 	"/>
	<polygon class="st16" points="76,56 72,56 72,60 68,60 68,64 64,64 60,64 60,60 56,60 56,56 56,52 56,48 52,48 52,52 48,52 48,56 
		48,60 48,64 48,68 48,72 48,76 48,80 52,80 52,76 52,72 52,68 56,68 56,72 60,72 64,72 64,68 68,68 72,68 72,64 76,64 80,64 80,60 
		80,56 	"/>
	<polygon class="st16" points="44,96 48,96 52,96 52,92 52,88 52,84 48,84 48,88 44,88 44,92 40,92 36,92 36,96 40,96 	"/>
	<polygon class="st16" points="52,120 52,116 52,112 52,108 52,104 52,100 48,100 44,100 40,100 36,100 32,100 32,104 32,108 
		32,112 32,116 36,116 36,120 36,124 36,128 36,132 36,136 40,136 40,140 40,144 40,148 40,152 44,152 48,152 52,152 56,152 56,148 
		56,144 56,140 56,136 56,132 56,128 56,124 52,124 	"/>
</g>
<g>
	<polygon class="st17" points="36,156 36,160 36,164 36,168 40,168 40,164 40,160 40,156 40,152 36,152 	"/>
	<polygon class="st17" points="52,152 52,156 52,160 52,164 52,168 56,168 56,164 56,160 56,156 56,152 	"/>
</g>
<rect x="36" y="168" class="st18" width="4" height="4"/>
<rect x="48" y="168" class="st19" width="4" height="4"/>
<g>
	<rect x="52" y="168" class="st20" width="4" height="4"/>
	<polygon class="st20" points="40,172 36,172 36,168 32,168 32,172 32,176 36,176 40,176 44,176 48,176 48,172 44,172 	"/>
</g>
<rect x="48" y="172" class="st19" width="4" height="4"/>
<rect x="52" y="172" class="st19" width="4" height="4"/>
<rect x="56" y="172" class="st19" width="4" height="4"/>
</svg>
