<?xml version="1.0" encoding="utf-8"?>
<!-- Generator: Adobe Illustrator 24.2.0, SVG Export Plug-In . SVG Version: 6.00 Build 0)  -->
<svg version="1.1" id="圖層_1" shape-rendering="crispEdges"
	 xmlns="http://www.w3.org/2000/svg" xmlns:xlink="http://www.w3.org/1999/xlink" x="0px" y="0px" viewBox="0 0 1200 800"
	 style="enable-background:new 0 0 1200 800;" xml:space="preserve">
<style type="text/css">
	.st0{fill:#745659;}
	.st1{fill:#FFF2EA;}
	.st2{fill:#5E4547;}
	.st3{fill:#B03F4B;}
	.st4{fill:#E5BCA0;}
	.st5{fill:#96A1AD;}
	.st6{fill:#818C99;}
	.st7{fill:#44484E;}
	.st8{fill:#D6AC8F;}
	.st9{fill:#798594;}
	.st10{fill:#366F96;}
	.st11{fill:#AD7651;}
	.st12{fill:#C38962;}
	.st13{fill:#18537C;}
	.st14{fill:#E5CAAE;}
	.st15{fill:#BFAFA0;}
	.st16{fill:#FFE7D8;}
	.st17{fill:#124365;}
	.st18{fill:#9E856D;}
	.st19{fill:#92785F;}
	.st20{fill:#9BA8B8;}
	.st21{fill:#1D2023;}
</style>
<polygon class="st0" points="840,548 840,552 836,552 832,552 828,552 824,552 820,552 820,556 816,556 816,560 820,560 820,564 
	824,564 824,560 828,560 832,560 836,560 840,560 840,556 844,556 844,552 844,548 "/>
<rect x="860" y="564" class="st1" width="4" height="4"/>
<rect x="864" y="564" class="st1" width="4" height="4"/>
<rect x="868" y="564" class="st1" width="4" height="4"/>
<rect x="872" y="564" class="st1" width="4" height="4"/>
<rect x="876" y="564" class="st1" width="4" height="4"/>
<rect x="880" y="564" class="st1" width="4" height="4"/>
<rect x="884" y="564" class="st1" width="4" height="4"/>
<rect x="856" y="568" class="st1" width="4" height="4"/>
<rect x="888" y="568" class="st1" width="4" height="4"/>
<rect x="856" y="572" class="st1" width="4" height="4"/>
<rect x="888" y="572" class="st1" width="4" height="4"/>
<rect x="856" y="576" class="st1" width="4" height="4"/>
<rect x="888" y="576" class="st1" width="4" height="4"/>
<rect x="856" y="580" class="st1" width="4" height="4"/>
<rect x="888" y="580" class="st1" width="4" height="4"/>
<g>
	<polygon class="st2" points="820,564 820,560 816,560 816,564 816,568 816,572 816,576 820,576 824,576 824,572 824,568 824,564 	
		"/>
	<rect x="820" y="584" class="st2" width="4" height="4"/>
</g>
<rect x="856" y="584" class="st1" width="4" height="4"/>
<rect x="888" y="584" class="st1" width="4" height="4"/>
<rect x="856" y="588" class="st1" width="4" height="4"/>
<polygon class="st3" points="880,572 876,572 876,576 872,576 872,572 868,572 864,572 864,576 864,580 864,584 868,584 868,588 
	872,588 872,592 876,592 876,588 880,588 880,584 884,584 884,580 884,576 884,572 "/>
<rect x="888" y="588" class="st1" width="4" height="4"/>
<rect x="856" y="592" class="st1" width="4" height="4"/>
<path class="st4" d="M884,568h-4h-4h-4h-4h-4h-4v4v4v4v4v4v4v4h4h4h4h4h4h4h4v-4v-4v-4v-4v-4v-4v-4H884z M884,576v4v4h-4v4h-4v4h-4
	v-4h-4v-4h-4v-4v-4v-4h4h4v4h4v-4h4h4V576z"/>
<rect x="888" y="592" class="st1" width="4" height="4"/>
<rect x="860" y="596" class="st1" width="4" height="4"/>
<rect x="864" y="596" class="st1" width="4" height="4"/>
<rect x="868" y="596" class="st1" width="4" height="4"/>
<rect x="872" y="596" class="st1" width="4" height="4"/>
<rect x="876" y="596" class="st1" width="4" height="4"/>
<rect x="880" y="596" class="st1" width="4" height="4"/>
<rect x="884" y="596" class="st1" width="4" height="4"/>
<g>
	<polygon class="st5" points="876,524 872,524 868,524 864,524 860,524 856,524 852,524 848,524 848,528 852,528 856,528 860,528 
		864,528 868,528 872,528 876,528 880,528 884,528 884,524 880,524 	"/>
	<polygon class="st5" points="836,540 836,544 836,548 836,552 840,552 840,548 840,544 840,540 840,536 836,536 	"/>
	<polygon class="st5" points="912,544 912,548 912,552 912,556 912,560 912,564 912,568 912,572 912,576 912,580 912,584 912,588 
		912,592 912,596 912,600 916,600 916,596 916,592 916,588 916,584 916,580 916,576 916,572 916,568 916,564 916,560 916,556 
		916,552 916,548 916,544 	"/>
	<polygon class="st5" points="836,592 836,596 836,600 840,600 840,596 840,592 840,588 836,588 	"/>
</g>
<g>
	<polygon class="st6" points="836,532 832,532 828,532 828,536 824,536 824,540 820,540 820,544 816,544 816,548 812,548 812,552 
		808,552 808,556 808,560 808,564 808,568 808,572 808,576 808,580 808,584 808,588 808,592 812,592 812,596 816,596 820,596 
		824,596 824,592 824,588 820,588 820,584 820,580 820,576 816,576 816,572 816,568 816,564 816,560 816,556 820,556 820,552 
		824,552 828,552 832,552 836,552 836,548 836,544 836,540 836,536 840,536 840,532 840,528 836,528 	"/>
	<polygon class="st6" points="908,536 904,536 904,532 900,532 896,532 896,528 892,528 888,528 884,528 880,528 876,528 872,528 
		868,528 864,528 860,528 856,528 852,528 848,528 844,528 844,532 844,536 844,540 844,544 844,548 844,552 844,556 844,560 
		844,564 844,568 844,572 844,576 844,580 844,584 844,588 844,592 844,596 844,600 848,600 852,600 856,600 860,600 860,596 
		856,596 856,592 856,588 856,584 856,580 856,576 856,572 856,568 860,568 860,564 864,564 868,564 872,564 876,564 880,564 
		884,564 888,564 888,568 892,568 892,572 892,576 892,580 892,584 892,588 892,592 892,596 888,596 888,600 892,600 896,600 
		900,600 904,600 908,600 912,600 912,596 912,592 912,588 912,584 912,580 912,576 912,572 912,568 912,564 912,560 912,556 
		912,552 912,548 912,544 912,540 908,540 	"/>
	<polygon class="st6" points="932,576 932,572 932,568 932,564 928,564 928,560 928,556 924,556 924,552 920,552 920,556 920,560 
		920,564 920,568 920,572 920,576 920,580 920,584 920,588 920,592 920,596 920,600 924,600 928,600 932,600 936,600 936,596 
		936,592 936,588 936,584 936,580 936,576 	"/>
	<rect x="832" y="592" class="st6" width="4" height="4"/>
</g>
<rect x="876" y="600" class="st1" width="4" height="4"/>
<rect x="880" y="600" class="st1" width="4" height="4"/>
<rect x="884" y="604" class="st1" width="4" height="4"/>
<g>
	<polygon class="st7" points="844,544 844,540 844,536 844,532 844,528 840,528 840,532 840,536 840,540 840,544 840,548 844,548 	
		"/>
	<polygon class="st7" points="812,592 808,592 808,588 808,584 808,580 808,576 808,572 808,568 808,564 808,560 808,556 804,556 
		804,560 804,564 800,564 800,568 800,572 800,576 796,576 796,580 796,584 796,588 796,592 796,596 796,600 796,604 796,608 
		796,612 800,612 800,616 800,620 800,624 804,624 804,628 804,632 808,632 808,628 808,624 808,620 808,616 808,612 808,608 
		808,604 812,604 812,600 816,600 816,596 812,596 	"/>
	<polygon class="st7" points="932,600 928,600 924,600 920,600 920,596 920,592 920,588 920,584 920,580 920,576 920,572 920,568 
		920,564 920,560 920,556 920,552 920,548 916,548 916,552 916,556 916,560 916,564 916,568 916,572 916,576 916,580 916,584 
		916,588 916,592 916,596 916,600 912,600 908,600 904,600 900,600 896,600 892,600 888,600 884,600 884,604 888,604 888,608 
		884,608 884,604 880,604 876,604 876,600 872,600 868,600 864,600 860,600 856,600 852,600 848,600 844,600 844,596 844,592 
		844,588 844,584 844,580 844,576 844,572 844,568 844,564 844,560 844,556 840,556 840,560 840,564 840,568 840,572 840,576 
		840,580 840,584 840,588 840,592 840,596 840,600 840,604 844,604 844,608 844,612 844,616 844,620 844,624 848,624 848,628 
		852,628 852,632 856,632 860,632 864,632 868,632 872,632 876,632 880,632 884,632 888,632 892,632 896,632 900,632 904,632 
		908,632 908,628 904,628 900,628 900,624 896,624 896,620 896,616 896,612 896,608 896,604 900,604 900,608 904,608 908,608 
		912,608 916,608 916,604 920,604 920,608 920,612 920,616 920,620 924,620 924,624 928,624 932,624 932,620 932,616 932,612 
		936,612 936,608 936,604 936,600 	"/>
	<polygon class="st7" points="844,624 840,624 840,620 836,620 836,624 836,628 836,632 840,632 844,632 848,632 848,628 844,628 	
		"/>
</g>
<g>
	<polygon class="st8" points="920,608 920,604 916,604 916,608 912,608 908,608 904,608 900,608 900,604 896,604 896,608 896,612 
		896,616 896,620 896,624 900,624 900,628 904,628 904,624 904,620 904,616 908,616 912,616 916,616 916,612 920,612 	"/>
	<polygon class="st8" points="924,624 924,620 920,620 920,624 920,628 920,632 924,632 928,632 928,628 928,624 	"/>
</g>
<rect x="904" y="632" class="st9" width="4" height="4"/>
<g>
	<polygon class="st10" points="828,628 828,624 828,620 824,620 824,616 824,612 820,612 820,608 820,604 824,604 824,600 824,596 
		820,596 816,596 816,600 812,600 812,604 808,604 808,608 808,612 808,616 808,620 808,624 808,628 808,632 808,636 812,636 
		812,640 816,640 816,636 820,636 820,632 824,632 828,632 832,632 832,628 	"/>
	<rect x="816" y="640" class="st10" width="4" height="4"/>
</g>
<g>
	<rect x="916" y="624" class="st11" width="4" height="4"/>
	<polygon class="st11" points="908,628 908,632 908,636 908,640 908,644 912,644 912,640 912,636 916,636 916,632 916,628 912,628 	
		"/>
</g>
<g>
	<polygon class="st12" points="920,624 920,620 920,616 920,612 916,612 916,616 912,616 908,616 904,616 904,620 904,624 904,628 
		908,628 912,628 916,628 916,624 	"/>
	<polygon class="st12" points="920,632 920,628 916,628 916,632 916,636 912,636 912,640 912,644 916,644 916,640 920,640 920,636 
		924,636 924,632 	"/>
</g>
<g>
	<path class="st13" d="M840,604v-4h-4h-4v-4h-4h-4v4v4h-4v4v4h4v4v4h4v4v4h4v4h-4v4h4v4h4v-4v-4v-4v-4v-4h4h4v-4v-4v-4v-4H840z
		 M836,604v4h-4v-4H836z M832,616v-4h4v4H832z"/>
	<polygon class="st13" points="828,636 824,636 824,632 820,632 820,636 816,636 816,640 820,640 820,644 820,648 824,648 824,652 
		828,652 832,652 836,652 836,648 836,644 832,644 832,640 828,640 	"/>
</g>
<g>
	<polygon class="st14" points="824,588 828,588 828,592 832,592 836,592 836,588 840,588 840,584 840,580 840,576 840,572 840,568 
		836,568 836,572 836,576 836,580 832,580 832,576 832,572 832,568 828,568 824,568 824,572 824,576 820,576 820,580 820,584 
		824,584 	"/>
	<rect x="824" y="632" class="st14" width="4" height="4"/>
	<rect x="828" y="636" class="st14" width="4" height="4"/>
	<rect x="832" y="640" class="st14" width="4" height="4"/>
	<rect x="860" y="640" class="st14" width="4" height="4"/>
	<polygon class="st14" points="840,644 836,644 836,648 840,648 844,648 844,644 	"/>
	<rect x="844" y="648" class="st14" width="4" height="4"/>
</g>
<g>
	<polygon class="st15" points="828,588 824,588 824,592 824,596 828,596 832,596 832,592 828,592 	"/>
	<rect x="840" y="620" class="st15" width="4" height="4"/>
	<rect x="844" y="624" class="st15" width="4" height="4"/>
	<rect x="848" y="628" class="st15" width="4" height="4"/>
	<rect x="852" y="632" class="st15" width="4" height="4"/>
	<rect x="856" y="636" class="st15" width="4" height="4"/>
	<rect x="848" y="648" class="st15" width="4" height="4"/>
</g>
<g>
	<polygon class="st16" points="832,560 828,560 824,560 824,564 824,568 828,568 832,568 832,572 832,576 832,580 836,580 836,576 
		836,572 836,568 840,568 840,564 840,560 836,560 	"/>
	<rect x="852" y="648" class="st16" width="4" height="4"/>
</g>
<g>
	<rect x="832" y="596" class="st17" width="4" height="4"/>
	<rect x="832" y="604" class="st17" width="4" height="4"/>
	<rect x="832" y="612" class="st17" width="4" height="4"/>
	<rect x="828" y="652" class="st17" width="4" height="4"/>
</g>
<g>
	<polygon class="st18" points="844,648 840,648 836,648 836,652 840,652 840,656 844,656 844,652 	"/>
	<rect x="832" y="652" class="st18" width="4" height="4"/>
	<rect x="844" y="656" class="st18" width="4" height="4"/>
</g>
<g>
	<polygon class="st19" points="852,648 852,644 848,644 844,644 844,648 848,648 	"/>
	<polygon class="st19" points="852,652 848,652 848,656 848,660 852,660 852,656 	"/>
	<rect x="836" y="656" class="st19" width="4" height="4"/>
	<rect x="852" y="660" class="st19" width="4" height="4"/>
</g>
<g>
	<polygon class="st20" points="908,644 908,640 908,636 904,636 904,632 900,632 896,632 892,632 888,632 884,632 880,632 876,632 
		872,632 868,632 864,632 860,632 856,632 856,636 860,636 860,640 864,640 864,644 860,644 860,640 856,640 856,636 852,636 
		852,632 848,632 844,632 840,632 836,632 836,636 836,640 836,644 840,644 844,644 848,644 852,644 852,648 856,648 856,652 
		852,652 852,656 852,660 856,660 856,664 860,664 864,664 868,664 872,664 876,664 880,664 884,664 884,660 888,660 892,660 
		896,660 896,656 900,656 904,656 904,652 908,652 908,648 912,648 912,644 	"/>
	<rect x="836" y="652" class="st20" width="4" height="4"/>
	<rect x="844" y="652" class="st20" width="4" height="4"/>
	<rect x="840" y="656" class="st20" width="4" height="4"/>
	<rect x="848" y="660" class="st20" width="4" height="4"/>
</g>
<path class="st21" d="M1196,0h-4h-4h-4h-4h-4h-4h-4h-4h-4h-4h-4h-4h-4h-4h-4h-4h-4h-4h-4h-4h-4h-4h-4h-4h-4h-4h-4h-4h-4h-4h-4h-4h-4
	h-4h-4h-4h-4h-4h-4h-4h-4h-4h-4h-4h-4h-4h-4h-4h-4h-4h-4h-4h-4h-4h-4h-4h-4h-4h-4h-4h-4h-4h-4h-4h-4h-4h-4h-4h-4h-4h-4h-4h-4h-4h-4
	h-4h-4h-4h-4h-4h-4h-4h-4h-4h-4h-4h-4h-4h-4h-4h-4h-4h-4h-4h-4h-4h-4h-4h-4h-4h-4h-4h-4h-4h-4h-4h-4h-4h-4h-4h-4h-4h-4h-4h-4h-4h-4
	h-4h-4h-4h-4h-4h-4h-4h-4h-4h-4h-4h-4h-4h-4h-4h-4h-4h-4h-4h-4h-4h-4h-4h-4h-4h-4h-4h-4h-4h-4h-4h-4h-4h-4h-4h-4h-4h-4h-4h-4h-4h-4
	h-4h-4h-4h-4h-4h-4h-4h-4h-4h-4h-4h-4h-4h-4h-4h-4h-4h-4h-4h-4h-4h-4h-4h-4h-4h-4h-4h-4h-4h-4h-4h-4h-4h-4h-4h-4h-4h-4h-4h-4h-4h-4
	h-4h-4h-4h-4h-4h-4h-4h-4h-4h-4h-4h-4h-4h-4h-4h-4h-4h-4h-4h-4h-4h-4h-4h-4h-4h-4h-4h-4h-4h-4h-4h-4h-4h-4h-4h-4h-4h-4h-4h-4h-4h-4
	h-4h-4h-4h-4h-4h-4h-4h-4h-4h-4h-4h-4h-4h-4h-4h-4h-4h-4h-4h-4h-4h-4h-4h-4h-4h-4h-4h-4h-4h-4h-4h-4h-4h-4h-4h-4h-4h-4h-4h-4h-4h-4
	h-4h-4h-4h-4h-4h-4h-4h-4h-4h-4h-4H8H4H0v4v4v4v4v4v4v4v4v4v4v4v4v4v4v4v4v4v4v4v4v4v4v4v4v4v4v4v4v4v4v4v4v4v4v4v4v4v4v4v4v4v4v4v4
	v4v4v4v4v4v4v4v4v4v4v4v4v4v4v4v4v4v4v4v4v4v4v4v4v4v4v4v4v4v4v4v4v4v4v4v4v4v4v4v4v4v4v4v4v4v4v4v4v4v4v4v4v4v4v4v4v4v4v4v4v4v4v4
	v4v4v4v4v4v4v4v4v4v4v4v4v4v4v4v4v4v4v4v4v4v4v4v4v4v4v4v4v4v4v4v4v4v4v4v4v4v4v4v4v4v4v4v4v4v4v4v4v4v4v4v4v4v4v4v4v4v4v4v4v4v4v4
	v4v4v4v4v4v4v4v4v4v4v4v4v4v4v4v4v4v4v4v4v4v4v4v4v4v4v4v4v4v4h4h4h4h4h4h4h4h4h4h4h4h4h4h4h4h4h4h4h4h4h4h4h4h4h4h4h4h4h4h4h4h4h4
	h4h4h4h4h4h4h4h4h4h4h4h4h4h4h4h4h4h4h4h4h4h4h4h4h4h4h4h4h4h4h4h4h4h4h4h4h4h4h4h4h4h4h4h4h4h4h4h4h4h4h4h4h4h4h4h4h4h4h4h4h4h4h4
	h4h4h4h4h4h4h4h4h4h4h4h4h4h4h4h4h4h4h4h4h4h4h4h4h4h4h4h4h4h4h4h4h4h4h4h4h4h4h4h4h4h4h4h4h4h4h4h4h4h4h4h4h4h4h4h4h4h4h4h4h4h4h4
	h4h4h4h4h4h4h4h4h4h4h4h4h4h4h4h4h4h4h4h4h4h4h4h4h4h4h4h4h4h4h4h4h4h4h4h4h4h4h4h4h4h4h4h4h4h4h4h4h4h4h4h4h4h4h4h4h4h4h4h4h4h4h4
	h4h4h4h4h4h4h4h4h4h4h4h4h4h4h4h4h4h4h4h4h4h4h4h4h4h4h4h4h4h4h4h4h4h4h4h4h4h4h4h4h4h4h4h4h4h4h4h4h4h4h4h4h4h4h4h4h4h4h4h4h4h4h4
	h4h4h4h4h4h4h4h4h4h4h4h4h4h4h4v-4v-4v-4v-4v-4v-4v-4v-4v-4v-4v-4v-4v-4v-4v-4v-4v-4v-4v-4v-4v-4v-4v-4v-4v-4v-4v-4v-4v-4v-4v-4v-4
	v-4v-4v-4v-4v-4v-4v-4v-4v-4v-4v-4v-4v-4v-4v-4v-4v-4v-4v-4v-4v-4v-4v-4v-4v-4v-4v-4v-4v-4v-4v-4v-4v-4v-4v-4v-4v-4v-4v-4v-4v-4v-4
	v-4v-4v-4v-4v-4v-4v-4v-4v-4v-4v-4v-4v-4v-4v-4v-4v-4v-4v-4v-4v-4v-4v-4v-4v-4v-4v-4v-4v-4v-4v-4v-4v-4v-4v-4v-4v-4v-4v-4v-4v-4v-4
	v-4v-4v-4v-4v-4v-4v-4v-4v-4v-4v-4v-4v-4v-4v-4v-4v-4v-4v-4v-4v-4v-4v-4v-4v-4v-4v-4v-4v-4v-4v-4v-4v-4v-4v-4v-4v-4v-4v-4v-4v-4v-4
	v-4v-4v-4v-4v-4v-4v-4v-4v-4v-4v-4v-4v-4v-4v-4v-4v-4v-4v-4v-4v-4v-4v-4v-4v-4v-4v-4v-4v-4v-4v-4v-4v-4v-4v-4v-4v-4v-4v-4V8V4V0
	H1196z M844,660h-4h-4v-4h-4h-4v-4h-4v-4h-4v-4h-4v-4h-4v-4h-4v-4h-4v-4v-4h-4v-4v-4v-4h-4v-4v-4v-4v-4v-4v-4v-4v-4v-4h4v-4v-4v-4h4
	v-4v-4h4v-4h4v-4h4v-4h4v-4h4v-4h4v-4h4h4v-4h4h4h4v-4h4h4h4h4h4h4h4h4h4v4h4h4h4v4h4h4v4h4v4h4v4h4v4h4v4h4v4h4v4v4h4v4v4v4h4v4v4
	v4v4v4v4v4v4v4h-4v4v4v4h-4v4v4h-4v4h-4v4h-4v4h-4v4h-4v4h-4v4h-4h-4v4h-4h-4h-4v4h-4h-4h-4h-4h-4h-4h-4h-4h-4v-4H844z"/>
</svg>
