<?xml version="1.0" encoding="utf-8"?>
<!-- Generator: Adobe Illustrator 24.2.0, SVG Export Plug-In . SVG Version: 6.00 Build 0)  -->
<svg version="1.1" id="圖層_1" shape-rendering="crispEdges"
	 xmlns="http://www.w3.org/2000/svg" xmlns:xlink="http://www.w3.org/1999/xlink" x="0px" y="0px" viewBox="0 0 404 131.9"
	 style="enable-background:new 0 0 404 131.9;" xml:space="preserve">
<style type="text/css">
	.st0{fill:#FFFFFF;}
	.st1{fill:#072133;}
	.st2{fill:#0C3049;}
	.st3{fill:#124365;}
	.st4{fill:#366F96;}
	.st5{fill:#E2EFFF;}
	.st6{fill:#ABC0DA;}
	.st7{fill:#18537C;}
	.st8{fill:#103A57;}
</style>
<g>
	<rect x="388" y="12" class="st0" width="4" height="4"/>
	<polygon class="st0" points="4,104 4,108 8,108 8,104 8,100 4,100 	"/>
</g>
<g>
	<polygon class="st1" points="384,12 380,12 376,12 372,12 368,12 364,12 360,12 356,12 352,12 348,12 344,12 340,12 336,12 332,12 
		328,12 324,12 320,12 316,12 312,12 308,12 304,12 300,12 296,12 292,12 288,12 284,12 280,12 276,12 272,12 268,12 264,12 260,12 
		256,12 252,12 248,12 244,12 240,12 236,12 232,12 228,12 224,12 220,12 216,12 212,12 208,12 204,12 200,12 196,12 192,12 188,12 
		184,12 180,12 176,12 172,12 168,12 164,12 160,12 156,12 152,12 148,12 144,12 140,12 136,12 132,12 128,12 124,12 120,12 116,12 
		112,12 108,12 104,12 100,12 96,12 92,12 88,12 84,12 80,12 76,12 72,12 68,12 64,12 60,12 56,12 52,12 48,12 44,12 40,12 36,12 
		32,12 28,12 24,12 20,12 20,16 16,16 16,20 12,20 12,24 12,28 12,32 12,36 12,40 12,44 12,48 12,52 12,56 12,60 12,64 12,68 12,72 
		12,76 12,80 12,84 12,88 12,92 12,96 12,100 12,104 12,108 16,108 16,104 16,100 16,96 16,92 16,88 16,84 16,80 16,76 16,72 16,68 
		16,64 16,60 16,56 16,52 16,48 16,44 16,40 16,36 16,32 16,28 16,24 20,24 20,20 24,20 24,16 28,16 32,16 36,16 40,16 44,16 48,16 
		52,16 56,16 60,16 64,16 68,16 72,16 76,16 80,16 84,16 88,16 92,16 96,16 100,16 104,16 108,16 112,16 116,16 120,16 124,16 
		128,16 132,16 136,16 140,16 144,16 148,16 152,16 156,16 160,16 164,16 168,16 172,16 176,16 180,16 184,16 188,16 192,16 196,16 
		200,16 204,16 208,16 212,16 216,16 220,16 224,16 228,16 232,16 236,16 240,16 244,16 248,16 252,16 256,16 260,16 264,16 268,16 
		272,16 276,16 280,16 284,16 288,16 292,16 296,16 300,16 304,16 308,16 312,16 316,16 320,16 324,16 328,16 332,16 336,16 340,16 
		344,16 348,16 352,16 356,16 360,16 364,16 368,16 372,16 376,16 380,16 384,16 388,16 388,12 	"/>
	<polygon class="st1" points="68,40 64,40 60,40 56,40 52,40 48,40 44,40 40,40 36,40 36,44 32,44 32,48 32,52 32,56 32,60 32,64 
		32,68 32,72 32,76 32,80 32,84 36,84 36,80 36,76 36,72 36,68 36,64 36,60 36,56 36,52 36,48 40,48 40,44 44,44 48,44 52,44 56,44 
		60,44 64,44 68,44 72,44 76,44 76,40 72,40 	"/>
	<polygon class="st1" points="140,40 136,40 132,40 128,40 124,40 120,40 116,40 112,40 108,40 108,44 104,44 104,48 104,52 104,56 
		104,60 104,64 104,68 104,72 104,76 104,80 104,84 108,84 108,80 108,76 108,72 108,68 108,64 108,60 108,56 108,52 108,48 112,48 
		112,44 116,44 120,44 124,44 128,44 132,44 136,44 140,44 144,44 148,44 148,40 144,40 	"/>
	<polygon class="st1" points="212,40 208,40 204,40 200,40 196,40 192,40 188,40 184,40 180,40 180,44 176,44 176,48 176,52 176,56 
		176,60 176,64 176,68 176,72 176,76 176,80 176,84 180,84 180,80 180,76 180,72 180,68 180,64 180,60 180,56 180,52 180,48 184,48 
		184,44 188,44 192,44 196,44 200,44 204,44 208,44 212,44 216,44 220,44 220,40 216,40 	"/>
	<polygon class="st1" points="284,40 280,40 276,40 272,40 268,40 264,40 260,40 256,40 252,40 252,44 248,44 248,48 248,52 248,56 
		248,60 248,64 248,68 248,72 248,76 248,80 248,84 252,84 252,80 252,76 252,72 252,68 252,64 252,60 252,56 252,52 252,48 256,48 
		256,44 260,44 264,44 268,44 272,44 276,44 280,44 284,44 288,44 292,44 292,40 288,40 	"/>
	<polygon class="st1" points="356,40 352,40 348,40 344,40 340,40 336,40 332,40 328,40 324,40 324,44 320,44 320,48 320,52 320,56 
		320,60 320,64 320,68 320,72 320,76 320,80 320,84 324,84 324,80 324,76 324,72 324,68 324,64 324,60 324,56 324,52 324,48 328,48 
		328,44 332,44 336,44 340,44 344,44 348,44 352,44 356,44 360,44 364,44 364,40 360,40 	"/>
	<rect x="16" y="108" class="st1" width="4" height="4"/>
</g>
<g>
	<polygon class="st2" points="184,24 188,24 192,24 192,20 188,20 188,16 184,16 180,16 176,16 172,16 168,16 164,16 160,16 156,16 
		152,16 148,16 144,16 140,16 136,16 132,16 128,16 124,16 120,16 116,16 112,16 108,16 104,16 100,16 96,16 92,16 88,16 84,16 
		80,16 76,16 72,16 68,16 64,16 60,16 56,16 52,16 48,16 44,16 40,16 36,16 32,16 28,16 24,16 24,20 20,20 20,24 16,24 16,28 16,32 
		16,36 16,40 16,44 16,48 16,52 16,56 16,60 16,64 16,68 16,72 16,76 16,80 16,84 16,88 16,92 16,96 16,100 16,104 16,108 20,108 
		20,112 16,112 16,108 12,108 12,112 12,116 16,116 20,116 24,116 28,116 32,116 32,112 28,112 28,108 24,108 24,104 24,100 24,96 
		24,92 24,88 24,84 24,80 24,76 24,72 24,68 24,64 24,60 24,56 24,52 24,48 24,44 24,40 24,36 24,32 28,32 28,28 32,28 32,24 36,24 
		40,24 44,24 48,24 52,24 56,24 60,24 64,24 68,24 72,24 76,24 80,24 84,24 88,24 92,24 96,24 100,24 104,24 108,24 112,24 116,24 
		120,24 124,24 128,24 132,24 136,24 140,24 144,24 148,24 152,24 156,24 160,24 164,24 168,24 172,24 176,24 180,24 	"/>
	<polygon class="st2" points="72,44 68,44 64,44 60,44 56,44 52,44 48,44 44,44 40,44 40,48 36,48 36,52 36,56 36,60 36,64 36,68 
		36,72 36,76 36,80 36,84 36,88 40,88 44,88 48,88 52,88 56,88 60,88 64,88 68,88 72,88 76,88 76,84 80,84 80,80 80,76 80,72 80,68 
		80,64 80,60 80,56 80,52 80,48 80,44 76,44 	"/>
	<polygon class="st2" points="144,44 140,44 136,44 132,44 128,44 124,44 120,44 116,44 112,44 112,48 108,48 108,52 108,56 108,60 
		108,64 108,68 108,72 108,76 108,80 108,84 108,88 112,88 116,88 120,88 124,88 128,88 132,88 136,88 140,88 144,88 148,88 148,84 
		152,84 152,80 152,76 152,72 152,68 152,64 152,60 152,56 152,52 152,48 152,44 148,44 	"/>
	<polygon class="st2" points="216,44 212,44 208,44 204,44 200,44 196,44 192,44 188,44 184,44 184,48 180,48 180,52 180,56 180,60 
		180,64 180,68 180,72 180,76 180,80 180,84 180,88 184,88 188,88 192,88 196,88 200,88 204,88 208,88 212,88 216,88 220,88 220,84 
		224,84 224,80 224,76 224,72 224,68 224,64 224,60 224,56 224,52 224,48 224,44 220,44 	"/>
	<polygon class="st2" points="288,44 284,44 280,44 276,44 272,44 268,44 264,44 260,44 256,44 256,48 252,48 252,52 252,56 252,60 
		252,64 252,68 252,72 252,76 252,80 252,84 252,88 256,88 260,88 264,88 268,88 272,88 276,88 280,88 284,88 288,88 292,88 292,84 
		296,84 296,80 296,76 296,72 296,68 296,64 296,60 296,56 296,52 296,48 296,44 292,44 	"/>
	<polygon class="st2" points="364,44 360,44 356,44 352,44 348,44 344,44 340,44 336,44 332,44 328,44 328,48 324,48 324,52 324,56 
		324,60 324,64 324,68 324,72 324,76 324,80 324,84 324,88 328,88 332,88 336,88 340,88 344,88 348,88 352,88 356,88 360,88 364,88 
		364,84 368,84 368,80 368,76 368,72 368,68 368,64 368,60 368,56 368,52 368,48 368,44 	"/>
</g>
<path class="st3" d="M384,28v-4h-4h-4h-4h-4h-4h-4h-4h-4h-4h-4h-4h-4h-4h-4h-4h-4h-4h-4h-4h-4h-4h-4h-4h-4h-4h-4h-4h-4h-4h-4h-4h-4
	h-4h-4h-4h-4h-4h-4h-4h-4h-4h-4h-4h-4h-4h-4h-4h-4v4v4h4v4h4h4h4h4h4h4v4h4v4h4v4v4v4v4v4v4v4v4v4v4h-4v4v4v4v4h4v4v4h4v4v4h4h4h4h4
	h4h4h4h4h4h4h4h4h4h4h4h4h4h4h4h4h4h4h4h4h4h4h4h4h4h4h4h4h4h4h4h4v-4h4h4v-4v-4h4v-4v-4v-4v-4v-4v-4v-4v-4v-4v-4v-4v-4v-4v-4v-4v-4
	v-4v-4v-4H384z M368,40v4h4v4v4v4v4v4v4v4v4v4v4h-4v4h-4v4h-4h-4h-4h-4h-4h-4h-4h-4h-4h-4v-4h-4v-4h-4v-4v-4v-4v-4v-4v-4v-4v-4v-4
	v-4h4v-4h4v-4h4h4h4h4h4h4h4h4h4h4v4H368z M296,40v4h4v4v4v4v4v4v4v4v4v4v4h-4v4h-4v4h-4h-4h-4h-4h-4h-4h-4h-4h-4h-4v-4h-4v-4h-4v-4
	v-4v-4v-4v-4v-4v-4v-4v-4v-4h4v-4h4v-4h4h4h4h4h4h4h4h4h4h4v4H296z"/>
<g>
	<polygon class="st4" points="28,4 32,4 36,4 40,4 44,4 48,4 52,4 56,4 60,4 64,4 68,4 72,4 76,4 80,4 84,4 88,4 92,4 96,4 100,4 
		104,4 108,4 112,4 116,4 120,4 124,4 128,4 132,4 136,4 140,4 144,4 148,4 152,4 156,4 160,4 164,4 168,4 172,4 176,4 180,4 184,4 
		188,4 192,4 196,4 200,4 204,4 208,4 212,4 216,4 220,4 224,4 228,4 232,4 236,4 240,4 244,4 248,4 252,4 256,4 260,4 264,4 268,4 
		272,4 276,4 280,4 284,4 288,4 292,4 296,4 300,4 304,4 308,4 312,4 316,4 320,4 324,4 328,4 332,4 336,4 340,4 344,4 348,4 352,4 
		356,4 360,4 364,4 368,4 372,4 376,4 380,4 384,4 388,4 388,0 384,0 380,0 376,0 372,0 368,0 364,0 360,0 356,0 352,0 348,0 344,0 
		340,0 336,0 332,0 328,0 324,0 320,0 316,0 312,0 308,0 304,0 300,0 296,0 292,0 288,0 284,0 280,0 276,0 272,0 268,0 264,0 260,0 
		256,0 252,0 248,0 244,0 240,0 236,0 232,0 228,0 224,0 220,0 216,0 212,0 208,0 204,0 200,0 196,0 192,0 188,0 184,0 180,0 176,0 
		172,0 168,0 164,0 160,0 156,0 152,0 148,0 144,0 140,0 136,0 132,0 128,0 124,0 120,0 116,0 112,0 108,0 104,0 100,0 96,0 92,0 
		88,0 84,0 80,0 76,0 72,0 68,0 64,0 60,0 56,0 52,0 48,0 44,0 40,0 36,0 32,0 28,0 24,0 20,0 20,4 24,4 	"/>
	<polygon class="st4" points="20,8 20,4 16,4 12,4 12,8 16,8 	"/>
	<rect x="388" y="4" class="st4" width="4" height="4"/>
	<rect x="8" y="8" class="st4" width="4" height="4"/>
	<rect x="384" y="8" class="st4" width="4" height="4"/>
	<polygon class="st4" points="392,8 392,12 392,16 396,16 396,12 396,8 	"/>
	<polygon class="st4" points="8,16 8,12 4,12 4,16 4,20 8,20 	"/>
	<polygon class="st4" points="388,20 388,24 388,28 388,32 388,36 388,40 388,44 388,48 388,52 388,56 388,60 388,64 388,68 388,72 
		388,76 388,80 388,84 388,88 388,92 388,96 388,100 388,104 392,104 392,100 392,96 392,92 392,88 392,84 392,80 392,76 392,72 
		392,68 392,64 392,60 392,56 392,52 392,48 392,44 392,40 392,36 392,32 392,28 392,24 392,20 392,16 388,16 	"/>
	<polygon class="st4" points="44,40 48,40 52,40 56,40 60,40 64,40 68,40 72,40 76,40 76,36 72,36 68,36 64,36 60,36 56,36 52,36 
		48,36 44,36 40,36 36,36 36,40 40,40 	"/>
	<polygon class="st4" points="116,40 120,40 124,40 128,40 132,40 136,40 140,40 144,40 148,40 148,36 144,36 140,36 136,36 132,36 
		128,36 124,36 120,36 116,36 112,36 108,36 108,40 112,40 	"/>
	<polygon class="st4" points="188,40 192,40 196,40 200,40 204,40 208,40 212,40 216,40 220,40 220,36 216,36 212,36 208,36 204,36 
		200,36 196,36 192,36 188,36 184,36 180,36 180,40 184,40 	"/>
	<polygon class="st4" points="260,40 264,40 268,40 272,40 276,40 280,40 284,40 288,40 292,40 292,36 288,36 284,36 280,36 276,36 
		272,36 268,36 264,36 260,36 256,36 252,36 252,40 256,40 	"/>
	<polygon class="st4" points="332,40 336,40 340,40 344,40 348,40 352,40 356,40 360,40 364,40 364,36 360,36 356,36 352,36 348,36 
		344,36 340,36 336,36 332,36 328,36 324,36 324,40 328,40 	"/>
	<rect x="32" y="40" class="st4" width="4" height="4"/>
	<rect x="76" y="40" class="st4" width="4" height="4"/>
	<rect x="104" y="40" class="st4" width="4" height="4"/>
	<rect x="148" y="40" class="st4" width="4" height="4"/>
	<rect x="176" y="40" class="st4" width="4" height="4"/>
	<rect x="220" y="40" class="st4" width="4" height="4"/>
	<rect x="248" y="40" class="st4" width="4" height="4"/>
	<rect x="292" y="40" class="st4" width="4" height="4"/>
	<rect x="320" y="40" class="st4" width="4" height="4"/>
	<rect x="364" y="40" class="st4" width="4" height="4"/>
	<polygon class="st4" points="80,48 80,52 80,56 80,60 80,64 80,68 80,72 80,76 80,80 80,84 84,84 84,80 84,76 84,72 84,68 84,64 
		84,60 84,56 84,52 84,48 84,44 80,44 	"/>
	<polygon class="st4" points="152,48 152,52 152,56 152,60 152,64 152,68 152,72 152,76 152,80 152,84 156,84 156,80 156,76 156,72 
		156,68 156,64 156,60 156,56 156,52 156,48 156,44 152,44 	"/>
	<polygon class="st4" points="224,48 224,52 224,56 224,60 224,64 224,68 224,72 224,76 224,80 224,84 228,84 228,80 228,76 228,72 
		228,68 228,64 228,60 228,56 228,52 228,48 228,44 224,44 	"/>
	<polygon class="st4" points="296,48 296,52 296,56 296,60 296,64 296,68 296,72 296,76 296,80 296,84 300,84 300,80 300,76 300,72 
		300,68 300,64 300,60 300,56 300,52 300,48 300,44 296,44 	"/>
	<polygon class="st4" points="368,48 368,52 368,56 368,60 368,64 368,68 368,72 368,76 368,80 368,84 372,84 372,80 372,76 372,72 
		372,68 372,64 372,60 372,56 372,52 372,48 372,44 368,44 	"/>
	<polygon class="st4" points="32,76 32,72 32,68 32,64 32,60 32,56 32,52 32,48 32,44 28,44 28,48 28,52 28,56 28,60 28,64 28,68 
		28,72 28,76 28,80 28,84 32,84 32,80 	"/>
	<polygon class="st4" points="104,76 104,72 104,68 104,64 104,60 104,56 104,52 104,48 104,44 100,44 100,48 100,52 100,56 100,60 
		100,64 100,68 100,72 100,76 100,80 100,84 104,84 104,80 	"/>
	<polygon class="st4" points="176,76 176,72 176,68 176,64 176,60 176,56 176,52 176,48 176,44 172,44 172,48 172,52 172,56 172,60 
		172,64 172,68 172,72 172,76 172,80 172,84 176,84 176,80 	"/>
	<polygon class="st4" points="248,76 248,72 248,68 248,64 248,60 248,56 248,52 248,48 248,44 244,44 244,48 244,52 244,56 244,60 
		244,64 244,68 244,72 244,76 244,80 244,84 248,84 248,80 	"/>
	<polygon class="st4" points="320,76 320,72 320,68 320,64 320,60 320,56 320,52 320,48 320,44 316,44 316,48 316,52 316,56 316,60 
		316,64 316,68 316,72 316,76 316,80 316,84 320,84 320,80 	"/>
	<rect x="32" y="84" class="st4" width="4" height="4"/>
	<rect x="76" y="84" class="st4" width="4" height="4"/>
	<rect x="104" y="84" class="st4" width="4" height="4"/>
	<rect x="148" y="84" class="st4" width="4" height="4"/>
	<rect x="176" y="84" class="st4" width="4" height="4"/>
	<rect x="220" y="84" class="st4" width="4" height="4"/>
	<rect x="248" y="84" class="st4" width="4" height="4"/>
	<rect x="292" y="84" class="st4" width="4" height="4"/>
	<rect x="320" y="84" class="st4" width="4" height="4"/>
	<rect x="364" y="84" class="st4" width="4" height="4"/>
	<polygon class="st4" points="68,88 64,88 60,88 56,88 52,88 48,88 44,88 40,88 36,88 36,92 40,92 44,92 48,92 52,92 56,92 60,92 
		64,92 68,92 72,92 76,92 76,88 72,88 	"/>
	<polygon class="st4" points="140,88 136,88 132,88 128,88 124,88 120,88 116,88 112,88 108,88 108,92 112,92 116,92 120,92 124,92 
		128,92 132,92 136,92 140,92 144,92 148,92 148,88 144,88 	"/>
	<polygon class="st4" points="212,88 208,88 204,88 200,88 196,88 192,88 188,88 184,88 180,88 180,92 184,92 188,92 192,92 196,92 
		200,92 204,92 208,92 212,92 216,92 220,92 220,88 216,88 	"/>
	<polygon class="st4" points="284,88 280,88 276,88 272,88 268,88 264,88 260,88 256,88 252,88 252,92 256,92 260,92 264,92 268,92 
		272,92 276,92 280,92 284,92 288,92 292,92 292,88 288,88 	"/>
	<polygon class="st4" points="356,88 352,88 348,88 344,88 340,88 336,88 332,88 328,88 324,88 324,92 328,92 332,92 336,92 340,92 
		344,92 348,92 352,92 356,92 360,92 364,92 364,88 360,88 	"/>
	<polygon class="st4" points="384,108 384,112 388,112 388,108 388,104 384,104 	"/>
	<polygon class="st4" points="8,108 4,108 4,104 4,100 4,96 4,92 4,88 4,84 4,80 4,76 4,72 4,68 4,64 4,60 4,56 4,52 4,48 4,44 
		4,40 4,36 4,32 4,28 4,24 4,20 0,20 0,24 0,28 0,32 0,36 0,40 0,44 0,48 0,52 0,56 0,60 0,64 0,68 0,72 0,76 0,80 0,84 0,88 0,92 
		0,96 0,100 0,104 0,108 0,112 4,112 4,116 8,116 8,112 	"/>
	<polygon class="st4" points="376,112 376,116 380,116 384,116 384,112 380,112 	"/>
	<rect x="8" y="116" class="st4" width="4" height="4"/>
	<polygon class="st4" points="368,116 364,116 360,116 356,116 352,116 348,116 344,116 340,116 336,116 332,116 328,116 324,116 
		320,116 316,116 312,116 308,116 304,116 300,116 296,116 292,116 288,116 284,116 280,116 276,116 272,116 268,116 264,116 
		260,116 256,116 252,116 248,116 244,116 240,116 236,116 232,116 228,116 224,116 220,116 216,116 212,116 208,116 204,116 
		200,116 196,116 192,116 188,116 184,116 180,116 176,116 172,116 168,116 164,116 160,116 156,116 152,116 148,116 144,116 
		140,116 136,116 132,116 128,116 124,116 120,116 116,116 112,116 108,116 104,116 100,116 96,116 92,116 88,116 84,116 80,116 
		76,116 72,116 68,116 64,116 60,116 56,116 52,116 48,116 44,116 40,116 36,116 32,116 28,116 24,116 20,116 20,120 24,120 28,120 
		32,120 36,120 40,120 44,120 48,120 52,120 56,120 60,120 64,120 68,120 72,120 76,120 80,120 84,120 88,120 92,120 96,120 
		100,120 104,120 108,120 112,120 116,120 120,120 124,120 128,120 132,120 136,120 140,120 144,120 148,120 152,120 156,120 
		160,120 164,120 168,120 172,120 176,120 180,120 184,120 188,120 192,120 196,120 200,120 204,120 208,120 212,120 216,120 
		220,120 224,120 228,120 232,120 236,120 240,120 244,120 248,120 252,120 256,120 260,120 264,120 268,120 272,120 276,120 
		280,120 284,120 288,120 292,120 296,120 300,120 304,120 308,120 312,120 316,120 320,120 324,120 328,120 332,120 336,120 
		340,120 344,120 348,120 352,120 356,120 360,120 364,120 368,120 372,120 376,120 376,116 372,116 	"/>
	<polygon class="st4" points="12,120 12,124 16,124 20,124 20,120 16,120 	"/>
</g>
<g>
	<polygon class="st5" points="36,4 32,4 28,4 24,4 20,4 20,8 24,8 28,8 32,8 36,8 40,8 44,8 44,4 40,4 	"/>
	<polygon class="st5" points="80,4 76,4 72,4 68,4 64,4 60,4 60,8 64,8 68,8 72,8 76,8 80,8 84,8 88,8 88,4 84,4 	"/>
	<polygon class="st5" points="336,4 332,4 328,4 324,4 320,4 316,4 312,4 308,4 304,4 300,4 296,4 292,4 288,4 284,4 280,4 276,4 
		272,4 268,4 264,4 260,4 256,4 252,4 248,4 244,4 240,4 236,4 232,4 228,4 224,4 220,4 216,4 212,4 208,4 204,4 200,4 196,4 192,4 
		188,4 184,4 180,4 176,4 172,4 168,4 164,4 160,4 156,4 152,4 148,4 144,4 140,4 136,4 132,4 128,4 124,4 120,4 116,4 112,4 108,4 
		104,4 100,4 96,4 92,4 92,8 96,8 100,8 104,8 108,8 112,8 116,8 120,8 124,8 128,8 132,8 136,8 140,8 144,8 148,8 152,8 156,8 
		160,8 164,8 168,8 172,8 176,8 180,8 184,8 188,8 192,8 196,8 200,8 204,8 208,8 212,8 216,8 220,8 224,8 228,8 232,8 236,8 240,8 
		244,8 248,8 252,8 256,8 260,8 264,8 268,8 272,8 276,8 280,8 284,8 288,8 292,8 296,8 300,8 304,8 308,8 312,8 316,8 320,8 324,8 
		328,8 332,8 336,8 340,8 344,8 344,4 340,4 	"/>
	<polygon class="st5" points="12,16 12,12 8,12 8,16 8,20 12,20 	"/>
	<polygon class="st5" points="392,16 392,20 392,24 396,24 396,20 396,16 	"/>
	<rect x="4" y="20" class="st5" width="4" height="4"/>
	<polygon class="st5" points="4,36 4,40 4,44 4,48 4,52 4,56 4,60 4,64 4,68 8,68 8,64 8,60 8,56 8,52 8,48 8,44 8,40 8,36 8,32 
		4,32 	"/>
	<polygon class="st5" points="392,100 392,104 396,104 396,100 396,96 392,96 	"/>
	<polygon class="st5" points="388,108 388,112 392,112 392,108 392,104 388,104 	"/>
	<rect x="384" y="112" class="st5" width="4" height="4"/>
	<polygon class="st5" points="16,116 12,116 12,120 16,120 20,120 20,116 	"/>
	<rect x="20" y="120" class="st5" width="4" height="4"/>
	<polygon class="st5" points="32,120 32,124 36,124 40,124 40,120 36,120 	"/>
	<rect x="364" y="120" class="st5" width="4" height="4"/>
</g>
<g>
	<polygon class="st6" points="52,8 56,8 60,8 60,4 56,4 52,4 48,4 44,4 44,8 48,8 	"/>
	<rect x="88" y="4" class="st6" width="4" height="4"/>
	<polygon class="st6" points="384,4 380,4 376,4 372,4 368,4 364,4 360,4 356,4 352,4 348,4 344,4 344,8 348,8 352,8 356,8 360,8 
		364,8 368,8 372,8 376,8 380,8 384,8 388,8 388,4 	"/>
	<polygon class="st6" points="12,8 12,12 16,12 20,12 20,8 16,8 	"/>
	<rect x="388" y="8" class="st6" width="4" height="4"/>
	<polygon class="st6" points="392,24 392,28 392,32 392,36 392,40 392,44 392,48 392,52 392,56 392,60 392,64 392,68 392,72 392,76 
		392,80 392,84 392,88 392,92 392,96 396,96 396,92 396,88 396,84 396,80 396,76 396,72 396,68 396,64 396,60 396,56 396,52 396,48 
		396,44 396,40 396,36 396,32 396,28 396,24 	"/>
	<polygon class="st6" points="8,28 8,24 4,24 4,28 4,32 8,32 	"/>
	<polygon class="st6" points="8,96 8,92 8,88 8,84 8,80 8,76 8,72 8,68 4,68 4,72 4,76 4,80 4,84 4,88 4,92 4,96 4,100 8,100 	"/>
	<polygon class="st6" points="8,112 8,116 12,116 12,112 12,108 8,108 	"/>
	<polygon class="st6" points="376,116 376,120 380,120 384,120 384,116 380,116 	"/>
	<polygon class="st6" points="24,120 24,124 28,124 32,124 32,120 28,120 	"/>
	<polygon class="st6" points="356,120 352,120 348,120 344,120 340,120 336,120 332,120 328,120 324,120 320,120 316,120 312,120 
		308,120 304,120 300,120 296,120 292,120 288,120 284,120 280,120 276,120 272,120 268,120 264,120 260,120 256,120 252,120 
		248,120 244,120 240,120 236,120 232,120 228,120 224,120 220,120 216,120 212,120 208,120 204,120 200,120 196,120 192,120 
		188,120 184,120 180,120 176,120 172,120 168,120 164,120 160,120 156,120 152,120 148,120 144,120 140,120 136,120 132,120 
		128,120 124,120 120,120 116,120 112,120 108,120 104,120 100,120 96,120 92,120 88,120 84,120 80,120 76,120 72,120 68,120 
		64,120 60,120 56,120 52,120 48,120 44,120 40,120 40,124 44,124 48,124 52,124 56,124 60,124 64,124 68,124 72,124 76,124 80,124 
		84,124 88,124 92,124 96,124 100,124 104,124 108,124 112,124 116,124 120,124 124,124 128,124 132,124 136,124 140,124 144,124 
		148,124 152,124 156,124 160,124 164,124 168,124 172,124 176,124 180,124 184,124 188,124 192,124 196,124 200,124 204,124 
		208,124 212,124 216,124 220,124 224,124 228,124 232,124 236,124 240,124 244,124 248,124 252,124 256,124 260,124 264,124 
		268,124 272,124 276,124 280,124 284,124 288,124 292,124 296,124 300,124 304,124 308,124 312,124 316,124 320,124 324,124 
		328,124 332,124 336,124 340,124 344,124 348,124 352,124 356,124 360,124 364,124 364,120 360,120 	"/>
	<polygon class="st6" points="368,120 368,124 372,124 376,124 376,120 372,120 	"/>
</g>
<g>
	<polygon class="st7" points="376,8 372,8 368,8 364,8 360,8 356,8 352,8 348,8 344,8 340,8 336,8 332,8 328,8 324,8 320,8 316,8 
		312,8 308,8 304,8 300,8 296,8 292,8 288,8 284,8 280,8 276,8 272,8 268,8 264,8 260,8 256,8 252,8 248,8 244,8 240,8 236,8 232,8 
		228,8 224,8 220,8 216,8 212,8 208,8 204,8 200,8 196,8 192,8 188,8 184,8 180,8 176,8 172,8 168,8 164,8 160,8 156,8 152,8 148,8 
		144,8 140,8 136,8 132,8 128,8 124,8 120,8 116,8 112,8 108,8 104,8 100,8 96,8 92,8 88,8 84,8 80,8 76,8 72,8 68,8 64,8 60,8 
		56,8 52,8 48,8 44,8 40,8 36,8 32,8 28,8 24,8 20,8 20,12 24,12 28,12 32,12 36,12 40,12 44,12 48,12 52,12 56,12 60,12 64,12 
		68,12 72,12 76,12 80,12 84,12 88,12 92,12 96,12 100,12 104,12 108,12 112,12 116,12 120,12 124,12 128,12 132,12 136,12 140,12 
		144,12 148,12 152,12 156,12 160,12 164,12 168,12 172,12 176,12 180,12 184,12 188,12 192,12 196,12 200,12 204,12 208,12 212,12 
		216,12 220,12 224,12 228,12 232,12 236,12 240,12 244,12 248,12 252,12 256,12 260,12 264,12 268,12 272,12 276,12 280,12 284,12 
		288,12 292,12 296,12 300,12 304,12 308,12 312,12 316,12 320,12 324,12 328,12 332,12 336,12 340,12 344,12 348,12 352,12 356,12 
		360,12 364,12 368,12 372,12 376,12 380,12 384,12 384,8 380,8 	"/>
	<polygon class="st7" points="12,12 12,16 12,20 16,20 16,16 20,16 20,12 16,12 	"/>
	<polygon class="st7" points="8,24 8,28 8,32 8,36 8,40 8,44 8,48 8,52 8,56 8,60 8,64 8,68 8,72 8,76 8,80 8,84 8,88 8,92 8,96 
		8,100 8,104 8,108 12,108 12,104 12,100 12,96 12,92 12,88 12,84 12,80 12,76 12,72 12,68 12,64 12,60 12,56 12,52 12,48 12,44 
		12,40 12,36 12,32 12,28 12,24 12,20 8,20 	"/>
	<polygon class="st7" points="400,36 400,32 396,32 396,36 396,40 396,44 396,48 400,48 400,52 404,52 404,48 404,44 404,40 404,36 
			"/>
	<polygon class="st7" points="400,84 396,84 396,88 396,92 400,92 400,96 404,96 404,92 404,88 400,88 	"/>
	<polygon class="st7" points="44,124 40,124 36,124 32,124 28,124 24,124 20,124 20,128 24,128 28,128 28,132 32,132 36,132 40,132 
		44,132 48,132 48,128 44,128 	"/>
	<polygon class="st7" points="364,124 360,124 356,124 352,124 348,124 344,124 340,124 336,124 332,124 328,124 324,124 320,124 
		316,124 312,124 308,124 304,124 300,124 296,124 292,124 288,124 284,124 280,124 276,124 272,124 268,124 264,124 260,124 
		256,124 252,124 248,124 244,124 240,124 236,124 232,124 228,124 224,124 220,124 216,124 212,124 208,124 204,124 200,124 
		196,124 192,124 188,124 184,124 180,124 176,124 172,124 168,124 164,124 160,124 156,124 152,124 148,124 144,124 140,124 
		136,124 132,124 128,124 124,124 120,124 116,124 112,124 108,124 104,124 100,124 100,128 100,132 104,132 108,132 112,132 
		116,132 120,132 124,132 128,132 132,132 136,132 140,132 144,132 148,132 152,132 156,132 160,132 164,132 168,132 172,132 
		176,132 180,132 184,132 188,132 192,132 196,132 200,132 204,132 208,132 212,132 216,132 220,132 224,132 228,132 232,132 
		236,132 240,132 244,132 248,132 252,132 256,132 260,132 264,132 268,132 272,132 276,132 280,132 284,132 288,132 292,132 
		296,132 300,132 304,132 308,132 312,132 316,132 320,132 324,132 328,132 332,132 336,132 340,132 344,132 348,132 352,132 
		356,132 360,132 364,132 368,132 368,128 364,128 	"/>
</g>
<g>
	<polygon class="st8" points="368,24 372,24 376,24 380,24 384,24 384,28 388,28 388,24 388,20 388,16 384,16 380,16 376,16 372,16 
		368,16 364,16 360,16 356,16 352,16 348,16 344,16 340,16 336,16 332,16 328,16 324,16 320,16 316,16 312,16 308,16 304,16 300,16 
		296,16 292,16 288,16 284,16 280,16 276,16 272,16 268,16 264,16 260,16 256,16 252,16 248,16 244,16 240,16 236,16 232,16 228,16 
		224,16 220,16 216,16 212,16 208,16 204,16 200,16 196,16 192,16 188,16 188,20 192,20 192,24 196,24 200,24 204,24 208,24 212,24 
		216,24 220,24 224,24 228,24 232,24 236,24 240,24 244,24 248,24 252,24 256,24 260,24 264,24 268,24 272,24 276,24 280,24 284,24 
		288,24 292,24 296,24 300,24 304,24 308,24 312,24 316,24 320,24 324,24 328,24 332,24 336,24 340,24 344,24 348,24 352,24 356,24 
		360,24 364,24 	"/>
	<polygon class="st8" points="400,20 400,16 400,12 396,12 396,16 396,20 396,24 396,28 396,32 400,32 400,36 404,36 404,32 404,28 
		404,24 404,20 	"/>
	<path class="st8" d="M184,24h-4h-4h-4h-4h-4h-4h-4h-4h-4h-4h-4h-4h-4h-4h-4h-4h-4h-4h-4h-4h-4h-4h-4h-4h-4h-4h-4h-4h-4h-4h-4h-4h-4
		h-4h-4h-4h-4h-4v4h-4v4h-4v4v4v4v4v4v4v4v4v4v4v4v4v4v4v4v4v4v4v4h4v4h4v4h4h4h4h4h4h4h4h4h4h4h4h4h4h4h4h4h4h4h4h4h4h4h4h4h4h4h4
		h4h4h4h4h4h4h4h4h4h4h4h4h4h4h4h4h4h4h4h4h4h4h4v-4v-4h-4v-4v-4h-4v-4v-4v-4h-4v4h-4h-4h-4h-4h-4h-4h-4h-4h-4h-4v-4h-4v-4h-4v-4v-4
		v-4v-4v-4v-4v-4v-4v-4v-4h4v-4h4v-4h4h4h4h4v-4h-4v-4v-4h-4H184z M152,40v4h4v4v4v4v4v4v4v4v4v4v4h-4v4h-4v4h-4h-4h-4h-4h-4h-4h-4
		h-4h-4h-4v-4h-4v-4h-4v-4v-4v-4v-4v-4v-4v-4v-4v-4v-4h4v-4h4v-4h4h4h4h4h4h4h4h4h4h4v4H152z M28,80v-4v-4v-4v-4v-4v-4v-4v-4v-4h4
		v-4h4v-4h4h4h4h4h4h4h4h4h4h4v4h4v4h4v4v4v4v4v4v4v4v4v4v4h-4v4h-4v4h-4h-4h-4h-4h-4h-4h-4h-4h-4h-4v-4h-4v-4h-4V80z"/>
	<polygon class="st8" points="400,48 396,48 396,52 396,56 396,60 396,64 396,68 396,72 396,76 396,80 396,84 400,84 400,88 404,88 
		404,84 404,80 404,76 404,72 404,68 404,64 404,60 404,56 404,52 400,52 	"/>
	<polygon class="st8" points="400,92 396,92 396,96 396,100 396,104 392,104 392,108 392,112 388,112 388,116 384,116 384,120 
		380,120 376,120 376,124 372,124 368,124 364,124 364,128 368,128 368,132 372,132 376,132 380,132 380,128 384,128 388,128 
		388,124 392,124 392,120 396,120 396,116 400,116 400,112 400,108 400,104 404,104 404,100 404,96 400,96 	"/>
	<polygon class="st8" points="92,124 88,124 84,124 80,124 76,124 72,124 68,124 64,124 60,124 56,124 52,124 48,124 44,124 44,128 
		48,128 48,132 52,132 56,132 60,132 64,132 68,132 72,132 76,132 80,132 84,132 88,132 92,132 96,132 100,132 100,128 100,124 
		96,124 	"/>
</g>
</svg>
