<?xml version="1.0" encoding="utf-8"?>
<!-- Generator: Adobe Illustrator 24.2.0, SVG Export Plug-In . SVG Version: 6.00 Build 0)  -->
<svg version="1.1" id="圖層_1" shape-rendering="crispEdges"
	 xmlns="http://www.w3.org/2000/svg" xmlns:xlink="http://www.w3.org/1999/xlink" x="0px" y="0px" viewBox="0 0 56 56"
	 style="enable-background:new 0 0 56 56;" xml:space="preserve">
<style type="text/css">
	.st0{fill:#035E55;}
	.st1{fill:#009A6C;}
	.st2{fill:#05FFB5;}
	.st3{fill:#17CE98;}
	.st4{opacity:0.1176;fill:#011E1B;enable-background:new    ;}
</style>
<g>
</g>
<g>
	<polygon class="st1" points="28,0 24,0 24,4 28,4 32,4 32,0 	"/>
	<polygon class="st1" points="40,4 36,4 32,4 32,8 36,8 40,8 44,8 44,4 	"/>
	<polygon class="st1" points="48,8 44,8 44,12 48,12 52,12 56,12 56,8 52,8 	"/>
</g>
<g>
	<polygon class="st2" points="48,12 44,12 40,12 36,12 36,16 40,16 44,16 48,16 52,16 56,16 56,12 52,12 	"/>
</g>
<g>
	<rect x="20" class="st3" width="4" height="4"/>
	<rect x="24" y="4" class="st3" width="4" height="4"/>
	<polygon class="st3" points="28,8 28,12 32,12 36,12 36,8 32,8 	"/>
</g>
<g>
	<polygon class="st4" points="48,0 44,0 40,0 36,0 32,0 32,4 36,4 40,4 44,4 44,8 48,8 52,8 56,8 56,4 56,0 52,0 	"/>
	<rect x="28" y="4" class="st4" width="4" height="4"/>
	<polygon class="st4" points="36,8 36,12 40,12 44,12 44,8 40,8 	"/>
	<polygon class="st4" points="28,12 28,8 24,8 24,4 20,4 20,0 16,0 12,0 8,0 4,0 0,0 0,4 0,8 0,12 0,16 0,20 0,24 0,28 0,32 0,36 
		0,40 0,44 0,48 0,52 0,56 4,56 8,56 12,56 16,56 20,56 24,56 28,56 32,56 36,56 40,56 44,56 48,56 52,56 56,56 56,52 56,48 56,44 
		56,40 56,36 56,32 56,28 56,24 56,20 56,16 52,16 48,16 44,16 40,16 36,16 36,12 32,12 	"/>
</g>
</svg>
