<?xml version="1.0" encoding="utf-8"?>
<!-- Generator: Adobe Illustrator 24.2.0, SVG Export Plug-In . SVG Version: 6.00 Build 0)  -->
<svg version="1.1" id="圖層_1" shape-rendering="crispEdges"
	 xmlns="http://www.w3.org/2000/svg" xmlns:xlink="http://www.w3.org/1999/xlink" x="0px" y="0px" viewBox="0 0 56 56"
	 style="enable-background:new 0 0 56 56;" xml:space="preserve">
<style type="text/css">
	.st0{fill:#035E55;}
	.st1{fill:#009A6C;}
	.st2{fill:#05FFB5;}
	.st3{fill:#17CE98;}
	.st4{opacity:0.1176;fill:#011E1B;enable-background:new    ;}
</style>
<g>
</g>
<g>
	<polygon class="st1" points="8,24 8,20 8,16 8,12 8,8 8,4 8,0 4,0 4,4 4,8 4,12 4,16 4,20 4,24 4,28 8,28 	"/>
	<polygon class="st1" points="8,36 12,36 12,32 12,28 8,28 8,32 	"/>
</g>
<g>
	<rect x="36" y="8" class="st2" width="4" height="4"/>
	<polygon class="st2" points="16,36 12,36 12,40 12,44 16,44 16,40 	"/>
	<polygon class="st2" points="16,48 16,52 20,52 20,48 20,44 16,44 	"/>
</g>
<g>
	<rect x="44" class="st3" width="4" height="4"/>
	<rect x="20" y="52" class="st3" width="4" height="4"/>
</g>
<g>
	<path class="st4" d="M48,0v4h-4V0h-4h-4h-4h-4h-4h-4h-4h-4H8v4v4v4v4v4v4v4h4v4v4h4v4v4h4v4v4h4v4h4h4h4h4h4h4h4h4v-4v-4v-4v-4v-4
		v-4v-4v-4v-4v-4v-4V8V4V0h-4H48z M40,12h-4V8h4V12z"/>
	<polygon class="st4" points="16,48 16,44 12,44 12,40 12,36 8,36 8,32 8,28 4,28 4,24 4,20 4,16 4,12 4,8 4,4 4,0 0,0 0,4 0,8 
		0,12 0,16 0,20 0,24 0,28 0,32 0,36 0,40 0,44 0,48 0,52 0,56 4,56 8,56 12,56 16,56 20,56 20,52 16,52 	"/>
</g>
</svg>
