<?xml version="1.0" encoding="utf-8"?>
<!-- Generator: Adobe Illustrator 24.2.0, SVG Export Plug-In . SVG Version: 6.00 Build 0)  -->
<svg version="1.1" id="圖層_1" shape-rendering="crispEdges"
	 xmlns="http://www.w3.org/2000/svg" xmlns:xlink="http://www.w3.org/1999/xlink" x="0px" y="0px" viewBox="0 0 252 76"
	 style="enable-background:new 0 0 252 76;" xml:space="preserve">
<style type="text/css">
	.st0{fill:#758CA9;}
	.st1{fill:#45566D;}
	.st2{fill:#344152;}
	.st3{fill:#2B3747;}
</style>
<polygon class="st0" points="240,8 240,4 236,4 232,4 228,4 224,4 220,4 216,4 212,4 208,4 204,4 200,4 196,4 192,4 188,4 184,4 
	180,4 176,4 172,4 168,4 164,4 160,4 156,4 152,4 148,4 144,4 140,4 136,4 132,4 128,4 124,4 120,4 116,4 112,4 108,4 104,4 100,4 
	96,4 92,4 88,4 84,4 80,4 76,4 72,4 68,4 64,4 60,4 56,4 52,4 48,4 44,4 40,4 36,4 32,4 28,4 24,4 20,4 16,4 12,4 12,8 8,8 8,12 
	8,16 8,20 8,24 8,28 8,32 8,36 8,40 8,44 8,48 8,52 8,56 8,60 12,60 12,64 16,64 20,64 24,64 28,64 32,64 36,64 40,64 44,64 48,64 
	52,64 56,64 60,64 64,64 68,64 72,64 76,64 80,64 84,64 88,64 92,64 96,64 100,64 104,64 108,64 112,64 116,64 120,64 124,64 
	128,64 132,64 136,64 140,64 144,64 148,64 152,64 156,64 160,64 164,64 168,64 172,64 176,64 180,64 184,64 188,64 192,64 196,64 
	200,64 204,64 208,64 212,64 216,64 220,64 224,64 228,64 232,64 236,64 240,64 240,60 244,60 244,56 244,52 244,48 244,44 244,40 
	244,36 244,32 244,28 244,24 244,20 244,16 244,12 244,8 "/>
<g>
	<polygon class="st1" points="4,16 4,20 4,24 4,28 4,32 4,36 4,40 4,44 4,48 4,52 4,56 4,60 4,64 4,68 8,68 8,64 8,60 8,56 8,52 
		8,48 8,44 8,40 8,36 8,32 8,28 8,24 8,20 8,16 8,12 4,12 	"/>
	<polygon class="st1" points="244,16 244,20 244,24 244,28 244,32 244,36 244,40 244,44 244,48 244,52 244,56 244,60 240,60 240,64 
		244,64 244,68 248,68 248,64 248,60 248,56 248,52 248,48 248,44 248,40 248,36 248,32 248,28 248,24 248,20 248,16 	"/>
</g>
<polygon class="st2" points="244,68 244,64 240,64 236,64 232,64 228,64 224,64 220,64 216,64 212,64 208,64 204,64 200,64 196,64 
	192,64 188,64 184,64 180,64 176,64 172,64 168,64 164,64 160,64 156,64 152,64 148,64 144,64 140,64 136,64 132,64 128,64 124,64 
	120,64 116,64 112,64 108,64 104,64 100,64 96,64 92,64 88,64 84,64 80,64 76,64 72,64 68,64 64,64 60,64 56,64 52,64 48,64 44,64 
	40,64 36,64 32,64 28,64 24,64 20,64 16,64 12,64 12,60 8,60 8,64 8,68 4,68 4,72 8,72 12,72 16,72 20,72 24,72 28,72 32,72 36,72 
	40,72 44,72 48,72 52,72 56,72 60,72 64,72 68,72 72,72 76,72 80,72 84,72 88,72 92,72 96,72 100,72 104,72 108,72 112,72 116,72 
	120,72 124,72 128,72 132,72 136,72 140,72 144,72 148,72 152,72 156,72 160,72 164,72 168,72 172,72 176,72 180,72 184,72 188,72 
	192,72 196,72 200,72 204,72 208,72 212,72 216,72 220,72 224,72 228,72 232,72 236,72 240,72 244,72 248,72 248,68 "/>
<g>
	<polygon class="st3" points="248,24 248,28 248,32 248,36 248,40 248,44 248,48 248,52 248,56 248,60 248,64 248,68 248,72 252,72 
		252,68 252,64 252,60 252,56 252,52 252,48 252,44 252,40 252,36 252,32 252,28 252,24 	"/>
	<polygon class="st3" points="4,64 4,60 4,56 4,52 4,48 4,44 4,40 4,36 4,32 4,28 4,24 4,20 0,20 0,24 0,28 0,32 0,36 0,40 0,44 
		0,48 0,52 0,56 0,60 0,64 0,68 0,72 4,72 4,68 	"/>
	<polygon class="st3" points="240,72 236,72 232,72 228,72 224,72 220,72 216,72 212,72 208,72 204,72 200,72 196,72 192,72 188,72 
		184,72 180,72 176,72 172,72 168,72 164,72 160,72 156,72 152,72 148,72 144,72 140,72 136,72 132,72 128,72 124,72 120,72 116,72 
		112,72 108,72 104,72 100,72 96,72 92,72 88,72 84,72 80,72 76,72 72,72 68,72 64,72 60,72 56,72 52,72 48,72 44,72 40,72 36,72 
		32,72 28,72 24,72 20,72 16,72 12,72 8,72 4,72 4,76 8,76 12,76 16,76 20,76 24,76 28,76 32,76 36,76 40,76 44,76 48,76 52,76 
		56,76 60,76 64,76 68,76 72,76 76,76 80,76 84,76 88,76 92,76 96,76 100,76 104,76 108,76 112,76 116,76 120,76 124,76 128,76 
		132,76 136,76 140,76 144,76 148,76 152,76 156,76 160,76 164,76 168,76 172,76 176,76 180,76 184,76 188,76 192,76 196,76 200,76 
		204,76 208,76 212,76 216,76 220,76 224,76 228,76 232,76 236,76 240,76 244,76 248,76 248,72 244,72 	"/>
</g>
</svg>
