<?xml version="1.0" encoding="utf-8"?>
<!-- Generator: Adobe Illustrator 24.2.0, SVG Export Plug-In . SVG Version: 6.00 Build 0)  -->
<svg version="1.1" id="圖層_1" shape-rendering="crispEdges"
	 xmlns="http://www.w3.org/2000/svg" xmlns:xlink="http://www.w3.org/1999/xlink" x="0px" y="0px" viewBox="0 0 56 56"
	 style="enable-background:new 0 0 56 56;" xml:space="preserve">
<style type="text/css">
	.st0{fill:#035E55;}
	.st1{fill:#009A6C;}
	.st2{fill:#05FFB5;}
	.st3{fill:#17CE98;}
	.st4{opacity:0.1176;fill:#011E1B;enable-background:new    ;}
</style>
<g>
</g>
<g>
</g>
<g>
	<polygon class="st2" points="48,0 48,4 44,4 40,4 40,0 36,0 32,0 32,4 36,4 36,8 40,8 44,8 48,8 52,8 52,4 56,4 56,0 52,0 	"/>
</g>
<g>
	<polygon class="st3" points="40,0 40,4 44,4 48,4 48,0 44,0 	"/>
	<rect x="28" y="8" class="st3" width="4" height="4"/>
	<polygon class="st3" points="44,12 44,16 48,16 48,12 48,8 44,8 	"/>
</g>
<g>
	<path class="st4" d="M52,8h-4v4v4h-4v-4V8h-4h-4V4h-4V0h-4h-4h-4h-4h-4H8H4H0v4v4v4v4v4v4v4v4v4v4v4v4v4v4h4h4h4h4h4h4h4h4h4h4h4h4
		h4h4v-4v-4v-4v-4v-4v-4v-4v-4v-4v-4v-4V8V4h-4V8z M32,12h-4V8h4V12z"/>
</g>
</svg>
