<?xml version="1.0" encoding="utf-8"?>
<!-- Generator: Adobe Illustrator 24.2.0, SVG Export Plug-In . SVG Version: 6.00 Build 0)  -->
<svg version="1.1" id="圖層_1" shape-rendering="crispEdges"
	 xmlns="http://www.w3.org/2000/svg" xmlns:xlink="http://www.w3.org/1999/xlink" x="0px" y="0px" viewBox="0 0 96 96"
	 style="enable-background:new 0 0 96 96;" xml:space="preserve">
<style type="text/css">
	.st0{fill:#035E55;}
	.st1{fill:#05FFB5;}
	.st2{fill:#17CE98;}
	.st3{fill:#009A6C;}
	.st4{opacity:0.1176;fill:#011E1B;enable-background:new    ;}
</style>
<g>
</g>
<g>
	<polygon class="st1" points="40,16 40,20 44,20 48,20 48,16 44,16 	"/>
	<polygon class="st1" points="32,20 32,24 36,24 40,24 40,20 36,20 	"/>
	<polygon class="st1" points="20,24 20,28 24,28 28,28 28,24 24,24 	"/>
	<polygon class="st1" points="12,28 8,28 8,32 12,32 16,32 20,32 20,28 16,28 	"/>
	<polygon class="st1" points="0,32 0,36 4,36 8,36 8,32 4,32 	"/>
</g>
<g>
</g>
<g>
</g>
<g>
	<path class="st4" d="M88,0h-4h-4h-4h-4h-4h-4h-4h-4h-4h-4h-4h-4h-4h-4h-4h-4h-4h-4h-4H8H4H0v4v4v4v4v4v4v4v4h4h4v-4h4h4h4v-4h4h4v4
		h-4h-4v4h-4h-4H8v4H4H0v4v4v4v4v4v4v4v4v4v4v4v4v4v4v4h4h4h4h4h4h4h4h4h4h4h4h4h4h4h4h4h4h4h4h4h4h4h4h4v-4v-4v-4v-4v-4v-4v-4v-4
		v-4v-4v-4v-4v-4v-4v-4v-4v-4v-4v-4v-4v-4V8V4V0h-4H88z M32,20h4h4v-4h4h4v4h-4h-4v4h-4h-4V20z"/>
</g>
</svg>
