<?xml version="1.0" encoding="utf-8"?>
<!-- Generator: Adobe Illustrator 24.2.0, SVG Export Plug-In . SVG Version: 6.00 Build 0)  -->
<svg version="1.1" id="圖層_1" shape-rendering="crispEdges"
	 xmlns="http://www.w3.org/2000/svg" xmlns:xlink="http://www.w3.org/1999/xlink" x="0px" y="0px" viewBox="0 0 204 208"
	 style="enable-background:new 0 0 204 208;" xml:space="preserve">
<style type="text/css">
	.st0{fill:#035E55;}
	.st1{fill:#17CE98;}
	.st2{fill:#009A6C;}
	.st3{fill:#05FFB5;}
	.st4{opacity:0.1176;fill:#011E1B;enable-background:new    ;}
</style>
<g>
	<polygon class="st1" points="4,84 0,84 0,88 4,88 8,88 8,84 	"/>
	<polygon class="st1" points="0,104 0,108 4,108 8,108 8,104 4,104 	"/>
</g>
<g>
	<polygon class="st2" points="80,96 76,96 72,96 72,100 76,100 80,100 84,100 84,96 	"/>
	<polygon class="st2" points="128,100 124,100 120,100 116,100 112,100 108,100 104,100 100,100 96,100 92,100 88,100 84,100 
		84,104 88,104 92,104 96,104 100,104 104,104 108,104 112,104 116,104 120,104 124,104 128,104 132,104 132,100 	"/>
	<polygon class="st2" points="16,124 12,124 12,128 16,128 20,128 20,124 	"/>
	<rect x="20" y="128" class="st2" width="4" height="4"/>
	<rect x="44" y="128" class="st2" width="4" height="4"/>
	<rect x="24" y="132" class="st2" width="4" height="4"/>
	<rect x="48" y="132" class="st2" width="4" height="4"/>
	<rect x="28" y="136" class="st2" width="4" height="4"/>
	<rect x="52" y="136" class="st2" width="4" height="4"/>
	<rect x="56" y="140" class="st2" width="4" height="4"/>
	<polygon class="st2" points="64,144 60,144 60,148 60,152 64,152 64,148 	"/>
	<rect x="64" y="152" class="st2" width="4" height="4"/>
	<rect x="68" y="156" class="st2" width="4" height="4"/>
	<rect x="72" y="160" class="st2" width="4" height="4"/>
</g>
<g>
	<rect x="172" y="68" class="st3" width="4" height="4"/>
	<polygon class="st3" points="44,84 40,84 36,84 32,84 28,84 24,84 20,84 16,84 12,84 8,84 8,88 12,88 16,88 20,88 24,88 28,88 
		32,88 36,88 40,88 44,88 48,88 48,84 	"/>
	<rect x="160" y="84" class="st3" width="4" height="4"/>
	<polygon class="st3" points="52,88 48,88 48,92 52,92 56,92 56,88 	"/>
	<rect x="156" y="88" class="st3" width="4" height="4"/>
	<polygon class="st3" points="64,92 60,92 56,92 56,96 60,96 64,96 68,96 72,96 72,92 68,92 	"/>
	<polygon class="st3" points="148,92 144,92 140,92 140,96 144,96 148,96 	"/>
	<polygon class="st3" points="132,96 132,100 136,100 140,100 140,96 136,96 	"/>
	<rect x="8" y="104" class="st3" width="4" height="4"/>
	<polygon class="st3" points="20,108 16,108 12,108 12,112 16,112 20,112 24,112 24,108 	"/>
	<polygon class="st3" points="32,112 28,112 24,112 24,116 28,116 32,116 	"/>
	<rect x="32" y="116" class="st3" width="4" height="4"/>
	<polygon class="st3" points="4,120 0,120 0,124 4,124 8,124 12,124 12,120 8,120 	"/>
	<rect x="36" y="120" class="st3" width="4" height="4"/>
	<rect x="40" y="124" class="st3" width="4" height="4"/>
	<polygon class="st3" points="152,128 152,132 156,132 160,132 160,128 156,128 	"/>
	<rect x="148" y="132" class="st3" width="4" height="4"/>
	<rect x="32" y="140" class="st3" width="4" height="4"/>
	<polygon class="st3" points="136,144 136,140 132,140 128,140 128,144 132,144 	"/>
	<rect x="36" y="144" class="st3" width="4" height="4"/>
	<polygon class="st3" points="120,144 120,148 124,148 128,148 128,144 124,144 	"/>
	<rect x="40" y="148" class="st3" width="4" height="4"/>
	<polygon class="st3" points="112,148 108,148 104,148 104,152 108,152 112,152 116,152 120,152 120,148 116,148 	"/>
	<polygon class="st3" points="48,152 44,152 44,156 48,156 52,156 52,152 	"/>
	<polygon class="st3" points="96,152 92,152 88,152 84,152 80,152 80,156 84,156 88,156 92,156 96,156 100,156 104,156 104,152 
		100,152 	"/>
	<polygon class="st3" points="52,156 52,160 56,160 60,160 60,156 56,156 	"/>
	<polygon class="st3" points="80,164 76,164 76,168 80,168 84,168 84,164 	"/>
	<polygon class="st3" points="88,168 84,168 84,172 88,172 92,172 92,168 	"/>
	<polygon class="st3" points="100,172 96,172 92,172 92,176 96,176 100,176 104,176 104,172 	"/>
	<polygon class="st3" points="112,176 108,176 104,176 104,180 108,180 112,180 116,180 120,180 120,176 116,176 	"/>
	<polygon class="st3" points="136,176 132,176 132,180 136,180 140,180 140,176 	"/>
	<polygon class="st3" points="140,184 140,188 144,188 144,184 144,180 140,180 	"/>
	<rect x="136" y="188" class="st3" width="4" height="4"/>
	<rect x="124" y="192" class="st3" width="4" height="4"/>
	<rect x="132" y="192" class="st3" width="4" height="4"/>
</g>
<g>
	<path class="st4" d="M200,0h-4h-4h-4h-4h-4h-4h-4h-4h-4h-4h-4h-4h-4h-4h-4h-4h-4h-4h-4h-4h-4h-4h-4h-4h-4h-4h-4h-4h-4h-4h-4h-4h-4
		h-4h-4h-4h-4h-4h-4h-4h-4h-4h-4h-4h-4h-4h-4H8H4H0v4v4v4v4v4v4v4v4v4v4v4v4v4v4v4v4v4v4v4v4v4h4h4h4h4h4h4h4h4h4h4h4h4v4h4h4v4h4h4
		h4h4v4h4h4h4v4h4h4h4h4h4h4h4h4h4h4h4h4v-4h4h4v-4h4h4v4h-4h-4v4h-4h-4v4h-4h-4h-4h-4h-4h-4h-4h-4h-4h-4h-4h-4v-4h-4h-4h-4v-4h-4
		h-4h-4h-4v-4h-4h-4v-4h-4h-4h-4h-4h-4h-4h-4h-4h-4H8H4H0v4v4v4v4h4h4h4v4h4h4h4v4h4h4v4h4v4h4v4h4v4h4v4h4v4h4v4h4v4h4v4v4h4v4h4v4
		h4v4h4h4v4h4h4v4h4h4h4v4h4h4h4h4v4h-4h-4h-4h-4v-4h-4h-4h-4v-4h-4h-4v-4h-4h-4v-4h-4v-4h-4v-4h-4v-4h-4v-4v-4h-4v-4h-4v-4h-4v-4
		h-4v-4h-4v-4h-4v-4h-4v-4h-4h-4v-4h-4h-4h-4v-4H8H4H0v4v4v4h4h4h4v4h4h4v4h4v4h4v4h4v4h4v4h4v4h4v4h4h4v4h4h4v4h-4h-4v-4h-4h-4v-4
		h-4v-4h-4v-4h-4v-4h-4v-4h-4v-4h-4v-4h-4h-4v-4H8H4H0v4v4v4v4v4v4v4v4v4v4v4v4v4v4v4v4v4v4v4v4v4h4h4h4h4h4h4h4h4h4h4h4h4h4h4h4h4
		h4h4h4h4h4h4h4h4h4h4h4h4h4h4h4h4h4h4h4h4h4h4h4h4h4h4h4h4h4h4h4h4h4h4h4v-4v-4v-4v-4v-4v-4v-4v-4v-4v-4v-4v-4v-4v-4v-4v-4v-4v-4
		v-4v-4v-4v-4v-4v-4v-4v-4v-4v-4v-4v-4v-4v-4v-4v-4v-4v-4v-4v-4v-4v-4v-4v-4v-4v-4v-4v-4v-4v-4v-4V8V4V0H200z M124,192h4v4h-4V192z
		 M132,192h4v-4h4v-4v-4h-4h-4v-4h4h4v4h4v4v4h-4v4h-4v4h-4V192z M148,132h4v-4h4h4v4h-4h-4v4h-4V132z M176,72h-4v-4h4V72z M156,88
		h4v-4h4v4h-4v4h-4V88z M80,152h4h4h4h4h4h4v-4h4h4h4h4v-4h4h4v-4h4h4v4h-4h-4v4h-4h-4v4h-4h-4h-4h-4v4h-4h-4h-4h-4h-4h-4V152z"/>
</g>
</svg>
