<?xml version="1.0" encoding="utf-8"?>
<!-- Generator: Adobe Illustrator 24.2.0, SVG Export Plug-In . SVG Version: 6.00 Build 0)  -->
<svg version="1.1" id="圖層_1" shape-rendering="crispEdges"
	 xmlns="http://www.w3.org/2000/svg" xmlns:xlink="http://www.w3.org/1999/xlink" x="0px" y="0px" viewBox="0 0 976 812"
	 style="enable-background:new 0 0 976 812;" xml:space="preserve">
<style type="text/css">
	.st0{opacity:0.1373;fill:#5FCDE4;enable-background:new    ;}
	.st1{opacity:0.2314;fill:#69D4EA;enable-background:new    ;}
	.st2{opacity:0.1294;fill:#73DBF1;enable-background:new    ;}
	.st3{opacity:0.2627;fill:#5FCDE4;enable-background:new    ;}
	.st4{opacity:0.2157;fill:#5FCDE4;enable-background:new    ;}
	.st5{opacity:0.3059;fill:#C5EFF8;enable-background:new    ;}
	.st6{opacity:0.349;fill:#65D1E8;enable-background:new    ;}
	.st7{opacity:0.349;fill:#BDEEF8;enable-background:new    ;}
	.st8{opacity:0.3373;fill:#5FCDE4;enable-background:new    ;}
	.st9{opacity:0.3373;fill:#BBEBF6;enable-background:new    ;}
	.st10{opacity:0.1294;fill:#6AD5EB;enable-background:new    ;}
	.st11{opacity:0.2078;fill:#6BD5EB;enable-background:new    ;}
	.st12{opacity:0.2314;fill:#A2E3F1;enable-background:new    ;}
	.st13{opacity:0.2627;fill:#AAE6F2;enable-background:new    ;}
	.st14{opacity:0.2157;fill:#BAEBF5;enable-background:new    ;}
	.st15{opacity:0.2078;fill:#A5E8F6;enable-background:new    ;}
	.st16{opacity:0.2314;fill:#5FCDE4;enable-background:new    ;}
	.st17{opacity:0.2549;fill:#5FCDE4;enable-background:new    ;}
	.st18{opacity:0.2549;fill:#C0EDF7;enable-background:new    ;}
	.st19{opacity:0.3059;fill:#5FCDE4;enable-background:new    ;}
	.st20{opacity:0.2471;fill:#5FCDE4;enable-background:new    ;}
	.st21{opacity:0.2471;fill:#69D4EA;enable-background:new    ;}
	.st22{opacity:0.2902;fill:#67D3E9;enable-background:new    ;}
	.st23{opacity:0.2745;fill:#67D3EA;enable-background:new    ;}
	.st24{opacity:0.3255;fill:#66D2E8;enable-background:new    ;}
	.st25{opacity:0.2627;fill:#68D3EA;enable-background:new    ;}
	.st26{opacity:0.2627;fill:#B2EBF7;enable-background:new    ;}
	.st27{opacity:0.1098;fill:#6CD6EC;enable-background:new    ;}
	.st28{opacity:0.302;fill:#B7EDF8;enable-background:new    ;}
	.st29{opacity:0.2745;fill:#AEEAF7;enable-background:new    ;}
	.st30{opacity:0.2902;fill:#AAE8F5;enable-background:new    ;}
	.st31{opacity:0.2471;fill:#AEE7F3;enable-background:new    ;}
	.st32{opacity:8.627500e-02;fill:#5FCDE4;enable-background:new    ;}
	.st33{opacity:0.2353;fill:#69D4EB;enable-background:new    ;}
	.st34{opacity:0.2588;fill:#68D3EA;enable-background:new    ;}
	.st35{opacity:6.666700e-02;fill:#5FCDE4;enable-background:new    ;}
	.st36{opacity:0.1059;fill:#5FCDE4;enable-background:new    ;}
	.st37{opacity:0.1882;fill:#6CD6EC;enable-background:new    ;}
	.st38{opacity:0.2078;fill:#5FCDE4;enable-background:new    ;}
	.st39{opacity:0.2039;fill:#6CD6EC;enable-background:new    ;}
	.st40{opacity:0.1882;fill:#6CD7ED;enable-background:new    ;}
	.st41{opacity:9.019600e-02;fill:#5FCDE4;enable-background:new    ;}
	.st42{opacity:9.019600e-02;fill:#8CDCED;enable-background:new    ;}
	.st43{opacity:0.1529;fill:#70D9EF;enable-background:new    ;}
	.st44{opacity:0.1176;fill:#5FCDE4;enable-background:new    ;}
	.st45{opacity:0.1882;fill:#94DEEE;enable-background:new    ;}
	.st46{opacity:0.1373;fill:#A8E5F2;enable-background:new    ;}
	.st47{opacity:0.1176;fill:#A1E3F1;enable-background:new    ;}
	.st48{opacity:0.2039;fill:#91E1F2;enable-background:new    ;}
	.st49{opacity:0.2863;fill:#5FCDE4;enable-background:new    ;}
	.st50{opacity:0.1569;fill:#5FCDE4;enable-background:new    ;}
	.st51{opacity:0.1922;fill:#6CD6EC;enable-background:new    ;}
	.st52{opacity:0.1882;fill:#5FCDE4;enable-background:new    ;}
	.st53{opacity:0.1765;fill:#6ED7ED;enable-background:new    ;}
	.st54{opacity:0.1804;fill:#6DD7ED;enable-background:new    ;}
	.st55{opacity:0.2196;fill:#6AD5EB;enable-background:new    ;}
	.st56{opacity:0.1725;fill:#6ED7ED;enable-background:new    ;}
	.st57{opacity:0.1529;fill:#70D9EE;enable-background:new    ;}
	.st58{opacity:0.1137;fill:#76DDF2;enable-background:new    ;}
	.st59{opacity:5.490200e-02;fill:#5FCDE4;enable-background:new    ;}
	.st60{opacity:5.000000e-02;fill:#7FE3F8;}
	.st61{opacity:9.000000e-02;fill:#7FE3F8;}
	.st62{opacity:0.11;fill:#7FE3F8;}
	.st63{opacity:0.15;fill:#7FE3F8;}
</style>
<rect x="68" y="0" class="st0" width="4" height="4"/>
<rect x="72" y="0" class="st0" width="4" height="4"/>
<rect x="108" y="0" class="st1" width="4" height="4"/>
<rect x="112" y="0" class="st1" width="4" height="4"/>
<rect x="136" y="0" class="st2" width="4" height="4"/>
<rect x="152" y="0" class="st3" width="4" height="4"/>
<rect x="156" y="0" class="st4" width="4" height="4"/>
<rect x="160" y="0" class="st5" width="4" height="4"/>
<rect x="164" y="0" class="st5" width="4" height="4"/>
<rect x="168" y="0" class="st5" width="4" height="4"/>
<rect x="172" y="0" class="st5" width="4" height="4"/>
<rect x="192" y="0" class="st6" width="4" height="4"/>
<rect x="196" y="0" class="st6" width="4" height="4"/>
<rect x="200" y="0" class="st7" width="4" height="4"/>
<rect x="204" y="0" class="st7" width="4" height="4"/>
<rect x="208" y="0" class="st7" width="4" height="4"/>
<rect x="212" y="0" class="st7" width="4" height="4"/>
<rect x="216" y="0" class="st6" width="4" height="4"/>
<rect x="232" y="0" class="st8" width="4" height="4"/>
<rect x="236" y="0" class="st8" width="4" height="4"/>
<rect x="240" y="0" class="st8" width="4" height="4"/>
<rect x="244" y="0" class="st8" width="4" height="4"/>
<rect x="248" y="0" class="st9" width="4" height="4"/>
<rect x="316" y="0" class="st4" width="4" height="4"/>
<rect x="320" y="0" class="st4" width="4" height="4"/>
<rect x="324" y="0" class="st4" width="4" height="4"/>
<rect x="328" y="0" class="st4" width="4" height="4"/>
<rect x="332" y="0" class="st4" width="4" height="4"/>
<rect x="384" y="0" class="st0" width="4" height="4"/>
<rect x="388" y="0" class="st0" width="4" height="4"/>
<rect x="392" y="0" class="st0" width="4" height="4"/>
<rect x="464" y="0" class="st10" width="4" height="4"/>
<rect x="56" y="4" class="st0" width="4" height="4"/>
<rect x="60" y="4" class="st0" width="4" height="4"/>
<rect x="64" y="4" class="st0" width="4" height="4"/>
<rect x="104" y="4" class="st11" width="4" height="4"/>
<rect x="108" y="4" class="st11" width="4" height="4"/>
<rect x="112" y="4" class="st11" width="4" height="4"/>
<rect x="116" y="4" class="st1" width="4" height="4"/>
<rect x="148" y="4" class="st12" width="4" height="4"/>
<rect x="152" y="4" class="st13" width="4" height="4"/>
<rect x="156" y="4" class="st13" width="4" height="4"/>
<rect x="184" y="4" class="st7" width="4" height="4"/>
<rect x="188" y="4" class="st7" width="4" height="4"/>
<rect x="192" y="4" class="st7" width="4" height="4"/>
<rect x="196" y="4" class="st7" width="4" height="4"/>
<rect x="204" y="4" class="st6" width="4" height="4"/>
<rect x="208" y="4" class="st6" width="4" height="4"/>
<rect x="236" y="4" class="st8" width="4" height="4"/>
<rect x="240" y="4" class="st9" width="4" height="4"/>
<rect x="244" y="4" class="st9" width="4" height="4"/>
<rect x="320" y="4" class="st14" width="4" height="4"/>
<rect x="324" y="4" class="st14" width="4" height="4"/>
<rect x="328" y="4" class="st14" width="4" height="4"/>
<rect x="332" y="4" class="st14" width="4" height="4"/>
<rect x="384" y="4" class="st0" width="4" height="4"/>
<rect x="388" y="4" class="st0" width="4" height="4"/>
<rect x="108" y="8" class="st11" width="4" height="4"/>
<rect x="112" y="8" class="st11" width="4" height="4"/>
<rect x="116" y="8" class="st15" width="4" height="4"/>
<rect x="148" y="8" class="st16" width="4" height="4"/>
<rect x="168" y="8" class="st17" width="4" height="4"/>
<rect x="172" y="8" class="st17" width="4" height="4"/>
<rect x="176" y="8" class="st18" width="4" height="4"/>
<rect x="180" y="8" class="st18" width="4" height="4"/>
<rect x="224" y="8" class="st6" width="4" height="4"/>
<rect x="228" y="8" class="st19" width="4" height="4"/>
<rect x="232" y="8" class="st5" width="4" height="4"/>
<rect x="236" y="8" class="st9" width="4" height="4"/>
<rect x="240" y="8" class="st9" width="4" height="4"/>
<rect x="304" y="8" class="st20" width="4" height="4"/>
<rect x="308" y="8" class="st20" width="4" height="4"/>
<rect x="312" y="8" class="st20" width="4" height="4"/>
<rect x="316" y="8" class="st4" width="4" height="4"/>
<rect x="320" y="8" class="st4" width="4" height="4"/>
<rect x="324" y="8" class="st4" width="4" height="4"/>
<rect x="328" y="8" class="st4" width="4" height="4"/>
<rect x="332" y="8" class="st4" width="4" height="4"/>
<rect x="380" y="8" class="st0" width="4" height="4"/>
<rect x="84" y="12" class="st0" width="4" height="4"/>
<rect x="88" y="12" class="st0" width="4" height="4"/>
<rect x="112" y="12" class="st15" width="4" height="4"/>
<rect x="116" y="12" class="st15" width="4" height="4"/>
<rect x="120" y="12" class="st15" width="4" height="4"/>
<rect x="144" y="12" class="st21" width="4" height="4"/>
<rect x="164" y="12" class="st17" width="4" height="4"/>
<rect x="168" y="12" class="st17" width="4" height="4"/>
<rect x="172" y="12" class="st18" width="4" height="4"/>
<rect x="220" y="12" class="st6" width="4" height="4"/>
<rect x="224" y="12" class="st6" width="4" height="4"/>
<rect x="228" y="12" class="st7" width="4" height="4"/>
<rect x="232" y="12" class="st5" width="4" height="4"/>
<rect x="236" y="12" class="st5" width="4" height="4"/>
<rect x="308" y="12" class="st20" width="4" height="4"/>
<rect x="312" y="12" class="st20" width="4" height="4"/>
<rect x="316" y="12" class="st20" width="4" height="4"/>
<rect x="320" y="12" class="st4" width="4" height="4"/>
<rect x="324" y="12" class="st14" width="4" height="4"/>
<rect x="328" y="12" class="st14" width="4" height="4"/>
<rect x="332" y="12" class="st14" width="4" height="4"/>
<rect x="80" y="16" class="st0" width="4" height="4"/>
<rect x="84" y="16" class="st0" width="4" height="4"/>
<rect x="88" y="16" class="st0" width="4" height="4"/>
<rect x="112" y="16" class="st15" width="4" height="4"/>
<rect x="116" y="16" class="st15" width="4" height="4"/>
<rect x="120" y="16" class="st15" width="4" height="4"/>
<rect x="124" y="16" class="st1" width="4" height="4"/>
<rect x="148" y="16" class="st22" width="4" height="4"/>
<rect x="168" y="16" class="st18" width="4" height="4"/>
<rect x="172" y="16" class="st18" width="4" height="4"/>
<rect x="176" y="16" class="st17" width="4" height="4"/>
<rect x="180" y="16" class="st17" width="4" height="4"/>
<rect x="184" y="16" class="st17" width="4" height="4"/>
<rect x="188" y="16" class="st17" width="4" height="4"/>
<rect x="216" y="16" class="st7" width="4" height="4"/>
<rect x="220" y="16" class="st7" width="4" height="4"/>
<rect x="232" y="16" class="st18" width="4" height="4"/>
<rect x="236" y="16" class="st18" width="4" height="4"/>
<rect x="332" y="16" class="st14" width="4" height="4"/>
<rect x="76" y="20" class="st0" width="4" height="4"/>
<rect x="80" y="20" class="st0" width="4" height="4"/>
<rect x="84" y="20" class="st0" width="4" height="4"/>
<rect x="88" y="20" class="st0" width="4" height="4"/>
<rect x="92" y="20" class="st0" width="4" height="4"/>
<rect x="116" y="20" class="st11" width="4" height="4"/>
<rect x="120" y="20" class="st11" width="4" height="4"/>
<rect x="124" y="20" class="st11" width="4" height="4"/>
<rect x="140" y="20" class="st22" width="4" height="4"/>
<rect x="144" y="20" class="st22" width="4" height="4"/>
<rect x="148" y="20" class="st23" width="4" height="4"/>
<rect x="152" y="20" class="st24" width="4" height="4"/>
<rect x="168" y="20" class="st18" width="4" height="4"/>
<rect x="172" y="20" class="st17" width="4" height="4"/>
<rect x="176" y="20" class="st17" width="4" height="4"/>
<rect x="180" y="20" class="st17" width="4" height="4"/>
<rect x="184" y="20" class="st17" width="4" height="4"/>
<rect x="188" y="20" class="st17" width="4" height="4"/>
<rect x="192" y="20" class="st17" width="4" height="4"/>
<rect x="216" y="20" class="st25" width="4" height="4"/>
<rect x="220" y="20" class="st26" width="4" height="4"/>
<rect x="476" y="20" class="st27" width="4" height="4"/>
<rect x="480" y="20" class="st27" width="4" height="4"/>
<rect x="116" y="24" class="st11" width="4" height="4"/>
<rect x="120" y="24" class="st11" width="4" height="4"/>
<rect x="124" y="24" class="st11" width="4" height="4"/>
<rect x="152" y="24" class="st22" width="4" height="4"/>
<rect x="156" y="24" class="st13" width="4" height="4"/>
<rect x="160" y="24" class="st13" width="4" height="4"/>
<rect x="164" y="24" class="st13" width="4" height="4"/>
<rect x="172" y="24" class="st18" width="4" height="4"/>
<rect x="176" y="24" class="st17" width="4" height="4"/>
<rect x="180" y="24" class="st17" width="4" height="4"/>
<rect x="184" y="24" class="st17" width="4" height="4"/>
<rect x="188" y="24" class="st17" width="4" height="4"/>
<rect x="192" y="24" class="st18" width="4" height="4"/>
<g>
	<polygon class="st28" points="168,16 164,16 164,12 160,12 156,12 152,12 152,16 152,20 156,20 156,24 160,24 164,24 168,24 
		168,20 	"/>
	<polygon class="st28" points="208,16 204,16 200,16 196,16 192,16 192,20 196,20 196,24 196,28 200,28 200,24 204,24 204,20 
		208,20 212,20 216,20 216,16 212,16 	"/>
	<polygon class="st28" points="232,20 232,16 228,16 224,16 224,20 224,24 228,24 232,24 236,24 236,20 	"/>
	<rect x="168" y="24" class="st28" width="4" height="4"/>
</g>
<rect x="212" y="24" class="st25" width="4" height="4"/>
<rect x="216" y="24" class="st25" width="4" height="4"/>
<rect x="220" y="24" class="st26" width="4" height="4"/>
<rect x="224" y="24" class="st25" width="4" height="4"/>
<rect x="328" y="24" class="st14" width="4" height="4"/>
<rect x="332" y="24" class="st14" width="4" height="4"/>
<rect x="412" y="24" class="st0" width="4" height="4"/>
<rect x="416" y="24" class="st0" width="4" height="4"/>
<rect x="148" y="28" class="st22" width="4" height="4"/>
<rect x="152" y="28" class="st29" width="4" height="4"/>
<rect x="156" y="28" class="st30" width="4" height="4"/>
<rect x="160" y="28" class="st13" width="4" height="4"/>
<rect x="164" y="28" class="st13" width="4" height="4"/>
<rect x="168" y="28" class="st13" width="4" height="4"/>
<rect x="172" y="28" class="st4" width="4" height="4"/>
<rect x="176" y="28" class="st17" width="4" height="4"/>
<rect x="180" y="28" class="st17" width="4" height="4"/>
<rect x="208" y="28" class="st25" width="4" height="4"/>
<rect x="316" y="28" class="st31" width="4" height="4"/>
<rect x="320" y="28" class="st31" width="4" height="4"/>
<rect x="324" y="28" class="st31" width="4" height="4"/>
<rect x="328" y="28" class="st4" width="4" height="4"/>
<rect x="404" y="28" class="st0" width="4" height="4"/>
<rect x="408" y="28" class="st0" width="4" height="4"/>
<rect x="412" y="28" class="st0" width="4" height="4"/>
<rect x="416" y="28" class="st0" width="4" height="4"/>
<g>
	<polygon class="st32" points="444,0 440,0 440,4 444,4 448,4 448,0 	"/>
	<polygon class="st32" points="432,4 432,8 436,8 440,8 440,4 436,4 	"/>
	<polygon class="st32" points="420,24 420,28 420,32 424,32 424,28 428,28 428,24 424,24 	"/>
</g>
<rect x="140" y="32" class="st33" width="4" height="4"/>
<rect x="144" y="32" class="st33" width="4" height="4"/>
<g>
	<rect x="148" y="12" class="st34" width="4" height="4"/>
	<polygon class="st34" points="148,20 148,16 144,16 144,12 148,12 148,8 148,4 144,4 144,8 140,8 140,4 136,4 132,4 128,4 128,0 
		124,0 120,0 116,0 116,4 120,4 120,8 120,12 124,12 124,16 128,16 128,20 128,24 132,24 136,24 140,24 140,20 144,20 	"/>
	<rect x="144" y="24" class="st34" width="4" height="4"/>
	<polygon class="st34" points="156,32 152,32 148,32 148,36 152,36 156,36 160,36 160,32 	"/>
</g>
<rect x="160" y="32" class="st22" width="4" height="4"/>
<rect x="320" y="32" class="st31" width="4" height="4"/>
<rect x="324" y="32" class="st20" width="4" height="4"/>
<rect x="328" y="32" class="st20" width="4" height="4"/>
<rect x="396" y="32" class="st0" width="4" height="4"/>
<rect x="400" y="32" class="st0" width="4" height="4"/>
<rect x="404" y="32" class="st0" width="4" height="4"/>
<rect x="408" y="32" class="st0" width="4" height="4"/>
<rect x="412" y="32" class="st0" width="4" height="4"/>
<rect x="416" y="32" class="st0" width="4" height="4"/>
<rect x="420" y="32" class="st0" width="4" height="4"/>
<g>
	<polygon class="st35" points="456,4 460,4 464,4 464,0 460,0 456,0 452,0 448,0 448,4 452,4 	"/>
	<polygon class="st35" points="472,20 468,20 464,20 460,20 456,20 452,20 448,20 444,20 440,20 436,20 432,20 428,20 428,24 
		428,28 424,28 424,32 424,36 428,36 432,36 436,36 440,36 440,32 444,32 448,32 448,28 452,28 456,28 456,24 460,24 464,24 468,24 
		472,24 476,24 476,20 	"/>
</g>
<rect x="28" y="36" class="st36" width="4" height="4"/>
<rect x="32" y="36" class="st36" width="4" height="4"/>
<rect x="36" y="36" class="st36" width="4" height="4"/>
<rect x="132" y="36" class="st37" width="4" height="4"/>
<rect x="136" y="36" class="st33" width="4" height="4"/>
<rect x="140" y="36" class="st33" width="4" height="4"/>
<rect x="12" y="40" class="st0" width="4" height="4"/>
<rect x="16" y="40" class="st36" width="4" height="4"/>
<rect x="20" y="40" class="st36" width="4" height="4"/>
<rect x="24" y="40" class="st36" width="4" height="4"/>
<rect x="28" y="40" class="st36" width="4" height="4"/>
<rect x="32" y="40" class="st36" width="4" height="4"/>
<rect x="160" y="40" class="st2" width="4" height="4"/>
<rect x="164" y="40" class="st33" width="4" height="4"/>
<rect x="168" y="40" class="st38" width="4" height="4"/>
<rect x="172" y="40" class="st38" width="4" height="4"/>
<rect x="176" y="40" class="st38" width="4" height="4"/>
<rect x="392" y="40" class="st0" width="4" height="4"/>
<rect x="396" y="40" class="st0" width="4" height="4"/>
<rect x="400" y="40" class="st0" width="4" height="4"/>
<rect x="404" y="40" class="st0" width="4" height="4"/>
<rect x="148" y="44" class="st39" width="4" height="4"/>
<rect x="152" y="44" class="st39" width="4" height="4"/>
<rect x="156" y="44" class="st39" width="4" height="4"/>
<rect x="160" y="44" class="st39" width="4" height="4"/>
<rect x="168" y="44" class="st38" width="4" height="4"/>
<rect x="172" y="44" class="st38" width="4" height="4"/>
<rect x="252" y="44" class="st17" width="4" height="4"/>
<rect x="384" y="44" class="st0" width="4" height="4"/>
<rect x="388" y="44" class="st0" width="4" height="4"/>
<rect x="392" y="44" class="st0" width="4" height="4"/>
<rect x="160" y="48" class="st39" width="4" height="4"/>
<rect x="164" y="48" class="st40" width="4" height="4"/>
<rect x="120" y="52" class="st41" width="4" height="4"/>
<rect x="108" y="56" class="st42" width="4" height="4"/>
<rect x="112" y="56" class="st42" width="4" height="4"/>
<rect x="116" y="56" class="st42" width="4" height="4"/>
<rect x="120" y="56" class="st42" width="4" height="4"/>
<rect x="124" y="56" class="st42" width="4" height="4"/>
<rect x="128" y="56" class="st42" width="4" height="4"/>
<rect x="132" y="56" class="st42" width="4" height="4"/>
<rect x="144" y="56" class="st43" width="4" height="4"/>
<rect x="168" y="56" class="st2" width="4" height="4"/>
<rect x="188" y="56" class="st0" width="4" height="4"/>
<rect x="192" y="56" class="st0" width="4" height="4"/>
<rect x="196" y="56" class="st44" width="4" height="4"/>
<rect x="200" y="56" class="st44" width="4" height="4"/>
<rect x="100" y="60" class="st41" width="4" height="4"/>
<rect x="104" y="60" class="st41" width="4" height="4"/>
<rect x="108" y="60" class="st41" width="4" height="4"/>
<rect x="112" y="60" class="st42" width="4" height="4"/>
<rect x="116" y="60" class="st42" width="4" height="4"/>
<rect x="120" y="60" class="st41" width="4" height="4"/>
<rect x="124" y="60" class="st42" width="4" height="4"/>
<rect x="128" y="60" class="st42" width="4" height="4"/>
<rect x="132" y="60" class="st42" width="4" height="4"/>
<rect x="176" y="60" class="st39" width="4" height="4"/>
<rect x="188" y="60" class="st45" width="4" height="4"/>
<rect x="192" y="60" class="st46" width="4" height="4"/>
<rect x="196" y="60" class="st46" width="4" height="4"/>
<rect x="200" y="60" class="st47" width="4" height="4"/>
<rect x="204" y="60" class="st47" width="4" height="4"/>
<rect x="208" y="60" class="st46" width="4" height="4"/>
<rect x="212" y="60" class="st46" width="4" height="4"/>
<rect x="220" y="60" class="st11" width="4" height="4"/>
<rect x="176" y="64" class="st48" width="4" height="4"/>
<rect x="184" y="64" class="st45" width="4" height="4"/>
<rect x="188" y="64" class="st45" width="4" height="4"/>
<rect x="192" y="64" class="st45" width="4" height="4"/>
<rect x="196" y="64" class="st0" width="4" height="4"/>
<rect x="200" y="64" class="st44" width="4" height="4"/>
<rect x="204" y="64" class="st44" width="4" height="4"/>
<rect x="208" y="64" class="st47" width="4" height="4"/>
<rect x="212" y="64" class="st46" width="4" height="4"/>
<rect x="216" y="64" class="st0" width="4" height="4"/>
<rect x="220" y="64" class="st37" width="4" height="4"/>
<rect x="224" y="64" class="st37" width="4" height="4"/>
<rect x="228" y="64" class="st11" width="4" height="4"/>
<g>
	<polygon class="st49" points="260,20 260,16 256,16 252,16 252,12 248,12 244,12 240,12 240,16 240,20 244,20 248,20 252,20 
		256,20 	"/>
	<polygon class="st49" points="288,24 288,20 292,20 296,20 300,20 304,20 304,16 308,16 308,12 304,12 304,8 300,8 300,12 296,12 
		292,12 288,12 288,16 284,16 284,20 280,20 280,24 284,24 	"/>
	<polygon class="st49" points="316,44 316,40 320,40 320,36 320,32 316,32 316,28 312,28 308,28 304,28 300,28 296,28 292,28 
		292,32 288,32 284,32 284,36 280,36 276,36 276,40 272,40 268,40 268,44 272,44 276,44 276,48 280,48 280,52 284,52 288,52 288,48 
		292,48 296,48 300,48 300,44 304,44 308,44 312,44 	"/>
	<polygon class="st49" points="260,44 256,44 256,48 260,48 264,48 268,48 268,44 264,44 	"/>
	<polygon class="st49" points="332,48 328,48 324,48 320,48 320,52 316,52 316,56 320,56 324,56 324,52 328,52 332,52 336,52 
		336,48 	"/>
	<polygon class="st49" points="312,64 312,68 316,68 320,68 320,64 316,64 	"/>
</g>
<g>
	<polygon class="st50" points="76,0 76,4 80,4 84,4 84,0 80,0 	"/>
	<polygon class="st50" points="368,8 368,12 368,16 372,16 376,16 376,12 380,12 380,8 384,8 384,4 384,0 380,0 380,4 376,4 376,8 
		372,8 372,4 368,4 368,0 364,0 360,0 360,4 364,4 364,8 	"/>
	<polygon class="st50" points="112,16 112,12 108,12 108,8 104,8 100,8 100,12 96,12 92,12 92,16 92,20 96,20 96,24 100,24 100,28 
		104,28 108,28 112,28 116,28 116,24 116,20 112,20 	"/>
	<polygon class="st50" points="400,28 396,28 392,28 388,28 384,28 384,32 380,32 380,36 380,40 384,40 388,40 388,36 392,36 
		396,36 396,32 400,32 404,32 404,28 	"/>
	<rect x="368" y="36" class="st50" width="4" height="4"/>
	<polygon class="st50" points="380,52 380,48 384,48 384,44 380,44 376,44 376,48 372,48 372,52 376,52 	"/>
	<polygon class="st50" points="384,56 380,56 380,60 376,60 372,60 372,64 368,64 368,68 372,68 376,68 380,68 380,64 384,64 
		384,60 388,60 392,60 392,56 388,56 	"/>
	<rect x="216" y="60" class="st50" width="4" height="4"/>
</g>
<rect x="152" y="68" class="st43" width="4" height="4"/>
<polygon class="st51" points="172,60 168,60 168,64 164,64 164,68 168,68 168,72 172,72 176,72 176,68 176,64 176,60 "/>
<rect x="176" y="68" class="st39" width="4" height="4"/>
<rect x="180" y="68" class="st39" width="4" height="4"/>
<rect x="184" y="68" class="st52" width="4" height="4"/>
<rect x="188" y="68" class="st52" width="4" height="4"/>
<rect x="216" y="68" class="st44" width="4" height="4"/>
<rect x="220" y="68" class="st44" width="4" height="4"/>
<rect x="232" y="68" class="st37" width="4" height="4"/>
<rect x="236" y="68" class="st37" width="4" height="4"/>
<rect x="240" y="68" class="st37" width="4" height="4"/>
<rect x="244" y="68" class="st11" width="4" height="4"/>
<rect x="248" y="68" class="st1" width="4" height="4"/>
<rect x="252" y="68" class="st25" width="4" height="4"/>
<rect x="256" y="68" class="st25" width="4" height="4"/>
<rect x="260" y="68" class="st25" width="4" height="4"/>
<rect x="264" y="68" class="st4" width="4" height="4"/>
<rect x="268" y="68" class="st4" width="4" height="4"/>
<rect x="64" y="72" class="st41" width="4" height="4"/>
<rect x="92" y="72" class="st41" width="4" height="4"/>
<rect x="96" y="72" class="st41" width="4" height="4"/>
<rect x="160" y="72" class="st53" width="4" height="4"/>
<g>
	<polygon class="st54" points="376,0 372,0 368,0 368,4 372,4 372,8 376,8 376,4 380,4 380,0 	"/>
	<polygon class="st54" points="364,4 360,4 360,0 356,0 352,0 348,0 344,0 340,0 336,0 336,4 336,8 336,12 336,16 336,20 340,20 
		344,20 348,20 348,16 352,16 356,16 360,16 364,16 368,16 368,12 368,8 364,8 	"/>
	<polygon class="st54" points="372,36 372,40 376,40 380,40 380,36 376,36 	"/>
	<polygon class="st54" points="164,64 160,64 160,68 156,68 156,72 160,72 164,72 164,76 168,76 168,72 168,68 164,68 	"/>
</g>
<rect x="204" y="72" class="st0" width="4" height="4"/>
<rect x="272" y="72" class="st20" width="4" height="4"/>
<rect x="276" y="72" class="st20" width="4" height="4"/>
<rect x="180" y="76" class="st2" width="4" height="4"/>
<rect x="188" y="76" class="st52" width="4" height="4"/>
<rect x="192" y="76" class="st52" width="4" height="4"/>
<rect x="196" y="76" class="st52" width="4" height="4"/>
<rect x="200" y="76" class="st0" width="4" height="4"/>
<rect x="204" y="76" class="st0" width="4" height="4"/>
<rect x="208" y="76" class="st0" width="4" height="4"/>
<rect x="212" y="76" class="st44" width="4" height="4"/>
<rect x="172" y="80" class="st39" width="4" height="4"/>
<rect x="176" y="80" class="st55" width="4" height="4"/>
<rect x="180" y="80" class="st55" width="4" height="4"/>
<rect x="184" y="80" class="st55" width="4" height="4"/>
<rect x="196" y="80" class="st52" width="4" height="4"/>
<rect x="200" y="80" class="st52" width="4" height="4"/>
<rect x="204" y="80" class="st0" width="4" height="4"/>
<rect x="208" y="80" class="st0" width="4" height="4"/>
<rect x="212" y="80" class="st44" width="4" height="4"/>
<rect x="216" y="80" class="st44" width="4" height="4"/>
<rect x="220" y="80" class="st44" width="4" height="4"/>
<rect x="224" y="80" class="st44" width="4" height="4"/>
<rect x="228" y="80" class="st44" width="4" height="4"/>
<g>
	<polygon class="st56" points="180,56 176,56 176,60 180,60 180,64 180,68 184,68 184,64 188,64 188,60 188,56 184,56 	"/>
	<polygon class="st56" points="232,68 228,68 224,68 224,72 228,72 232,72 	"/>
	<polygon class="st56" points="240,80 236,80 232,80 232,84 236,84 240,84 244,84 244,80 	"/>
</g>
<rect x="184" y="84" class="st2" width="4" height="4"/>
<rect x="376" y="84" class="st4" width="4" height="4"/>
<rect x="60" y="88" class="st44" width="4" height="4"/>
<rect x="204" y="88" class="st52" width="4" height="4"/>
<rect x="208" y="88" class="st0" width="4" height="4"/>
<rect x="212" y="88" class="st0" width="4" height="4"/>
<rect x="216" y="88" class="st44" width="4" height="4"/>
<rect x="220" y="88" class="st44" width="4" height="4"/>
<rect x="224" y="88" class="st44" width="4" height="4"/>
<rect x="228" y="88" class="st44" width="4" height="4"/>
<rect x="232" y="88" class="st44" width="4" height="4"/>
<rect x="188" y="92" class="st2" width="4" height="4"/>
<rect x="208" y="92" class="st52" width="4" height="4"/>
<rect x="212" y="92" class="st0" width="4" height="4"/>
<rect x="200" y="96" class="st52" width="4" height="4"/>
<rect x="204" y="96" class="st52" width="4" height="4"/>
<rect x="196" y="104" class="st2" width="4" height="4"/>
<rect x="200" y="112" class="st2" width="4" height="4"/>
<rect x="204" y="120" class="st2" width="4" height="4"/>
<rect x="216" y="140" class="st2" width="4" height="4"/>
<rect x="220" y="148" class="st2" width="4" height="4"/>
<rect x="236" y="176" class="st2" width="4" height="4"/>
<rect x="252" y="204" class="st2" width="4" height="4"/>
<rect x="256" y="212" class="st2" width="4" height="4"/>
<rect x="272" y="240" class="st2" width="4" height="4"/>
<rect x="288" y="268" class="st2" width="4" height="4"/>
<rect x="308" y="304" class="st2" width="4" height="4"/>
<rect x="360" y="396" class="st57" width="4" height="4"/>
<rect x="396" y="460" class="st57" width="4" height="4"/>
<rect x="412" y="488" class="st57" width="4" height="4"/>
<rect x="416" y="496" class="st57" width="4" height="4"/>
<rect x="432" y="524" class="st57" width="4" height="4"/>
<rect x="448" y="552" class="st57" width="4" height="4"/>
<rect x="452" y="560" class="st57" width="4" height="4"/>
<rect x="464" y="580" class="st57" width="4" height="4"/>
<rect x="468" y="588" class="st57" width="4" height="4"/>
<rect x="480" y="608" class="st57" width="4" height="4"/>
<rect x="484" y="616" class="st57" width="4" height="4"/>
<rect x="488" y="624" class="st57" width="4" height="4"/>
<rect x="500" y="644" class="st57" width="4" height="4"/>
<rect x="504" y="652" class="st57" width="4" height="4"/>
<rect x="508" y="660" class="st57" width="4" height="4"/>
<rect x="516" y="672" class="st57" width="4" height="4"/>
<rect x="520" y="680" class="st57" width="4" height="4"/>
<rect x="524" y="688" class="st57" width="4" height="4"/>
<rect x="532" y="700" class="st57" width="4" height="4"/>
<rect x="536" y="708" class="st57" width="4" height="4"/>
<rect x="540" y="716" class="st57" width="4" height="4"/>
<rect x="544" y="724" class="st57" width="4" height="4"/>
<rect x="548" y="728" class="st57" width="4" height="4"/>
<rect x="552" y="736" class="st57" width="4" height="4"/>
<rect x="556" y="744" class="st57" width="4" height="4"/>
<rect x="560" y="752" class="st57" width="4" height="4"/>
<rect x="568" y="764" class="st57" width="4" height="4"/>
<rect x="572" y="772" class="st57" width="4" height="4"/>
<rect x="576" y="780" class="st57" width="4" height="4"/>
<rect x="104" class="st58" width="4" height="4"/>
<polygon class="st58" points="152,4 152,0 148,0 144,0 144,4 148,4 "/>
<polygon class="st58" points="192,4 192,0 188,0 184,0 184,4 188,4 "/>
<polygon class="st58" points="152,12 156,12 160,12 164,12 164,8 160,8 156,8 152,8 "/>
<polygon class="st58" points="188,8 188,12 192,12 192,16 196,16 200,16 204,16 208,16 212,16 216,16 220,16 220,12 224,12 224,8 
	228,8 228,4 224,4 224,0 220,0 220,4 216,4 212,4 212,8 208,8 204,8 204,4 200,4 200,8 196,8 192,8 "/>
<polygon class="st58" points="228,28 224,28 220,28 216,28 212,28 212,32 208,32 208,28 212,28 212,24 216,24 216,20 212,20 208,20 
	204,20 204,24 200,24 200,28 200,32 204,32 204,36 204,40 208,40 208,44 208,48 212,48 212,52 216,52 216,56 216,60 220,60 224,60 
	224,64 228,64 232,64 232,68 236,68 240,68 244,68 248,68 252,68 256,68 260,68 260,64 260,60 256,60 256,56 256,52 252,52 252,48 
	252,44 248,44 248,40 244,40 244,36 244,32 240,32 240,28 240,24 236,24 232,24 228,24 "/>
<polygon class="st58" points="164,36 164,40 168,40 172,40 176,40 180,40 180,36 176,36 176,32 172,32 168,32 164,32 "/>
<polygon class="st58" points="124,40 128,40 128,44 128,48 132,48 132,52 132,56 136,56 140,56 144,56 148,56 148,52 144,52 144,48 
	144,44 140,44 140,40 136,40 132,40 132,36 136,36 136,32 132,32 132,28 132,24 128,24 128,28 124,28 120,28 120,32 120,36 124,36 
	"/>
<polygon class="st58" points="184,44 180,44 176,44 176,48 172,48 172,52 172,56 176,56 180,56 184,56 188,56 188,52 184,52 184,48 
	"/>
<polygon class="st58" points="148,72 152,72 152,68 152,64 152,60 148,60 144,60 144,64 140,64 140,68 144,68 144,72 "/>
<polygon class="st58" points="192,68 192,72 188,72 184,72 184,76 188,76 192,76 196,76 200,76 200,72 196,72 196,68 "/>
<polygon class="st58" points="204,92 204,88 208,88 208,84 204,84 200,84 196,84 196,80 192,80 192,84 192,88 196,88 196,92 196,96 
	200,96 204,96 208,96 208,92 "/>
<rect x="312" class="st59" width="4" height="4"/>
<polygon class="st59" points="228,8 232,8 236,8 236,4 232,4 232,0 228,0 224,0 224,4 228,4 "/>
<rect x="316" y="4" class="st59" width="4" height="4"/>
<polygon class="st59" points="164,12 168,12 168,8 172,8 176,8 180,8 184,8 184,4 184,0 180,0 176,0 176,4 172,4 168,4 164,4 160,4 
	160,8 164,8 "/>
<polygon class="st59" points="180,12 176,12 176,16 180,16 184,16 188,16 192,16 192,12 188,12 188,8 184,8 184,12 "/>
<polygon class="st59" points="236,24 240,24 240,28 240,32 244,32 244,36 244,40 248,40 248,44 252,44 256,44 256,40 252,40 252,36 
	252,32 248,32 248,28 244,28 244,24 244,20 240,20 236,20 "/>
<polygon class="st59" points="188,28 184,28 184,32 180,32 176,32 176,36 180,36 180,40 180,44 184,44 184,48 184,52 188,52 188,56 
	192,56 196,56 200,56 204,56 204,60 208,60 212,60 216,60 216,56 216,52 212,52 212,48 208,48 208,44 208,40 204,40 204,36 204,32 
	200,32 200,28 196,28 192,28 "/>
<polygon class="st59" points="260,48 256,48 252,48 252,52 256,52 256,56 256,60 260,60 260,64 260,68 264,68 268,68 268,64 268,60 
	264,60 264,56 260,56 260,52 "/>
<polygon class="st59" points="216,68 212,68 208,68 204,68 200,68 196,68 196,72 200,72 200,76 204,76 204,72 208,72 208,76 212,76 
	216,76 216,80 220,80 224,80 228,80 228,76 224,76 224,72 220,72 216,72 "/>
<rect x="72" y="72" class="st59" width="4" height="4"/>
<polygon class="st59" points="268,72 268,76 268,80 272,80 272,84 272,88 276,88 276,92 280,92 280,96 280,100 284,100 284,104 
	284,108 288,108 288,112 288,116 292,116 292,120 296,120 296,124 296,128 300,128 300,132 300,136 304,136 304,140 308,140 
	308,144 308,148 312,148 312,152 312,156 316,156 316,160 320,160 320,164 320,168 324,168 324,172 324,176 328,176 328,180 
	328,184 332,184 332,188 336,188 336,192 336,196 340,196 340,200 340,204 344,204 344,208 348,208 348,204 348,200 344,200 
	344,196 344,192 340,192 340,188 340,184 336,184 336,180 332,180 332,176 332,172 328,172 328,168 328,164 324,164 324,160 
	324,156 320,156 320,152 316,152 316,148 316,144 312,144 312,140 312,136 308,136 308,132 304,132 304,128 304,124 300,124 
	300,120 300,116 296,116 296,112 296,108 292,108 292,104 288,104 288,100 288,96 284,96 284,92 284,88 280,88 280,84 280,80 
	276,80 276,76 272,76 272,72 "/>
<polygon class="st59" points="224,84 220,84 216,84 212,84 208,84 208,88 212,88 216,88 220,88 224,88 228,88 232,88 232,84 228,84 
	"/>
<polygon class="st59" points="348,216 352,216 352,220 352,224 356,224 356,228 360,228 360,224 360,220 356,220 356,216 356,212 
	352,212 352,208 348,208 348,212 "/>
<polygon class="st59" points="360,236 364,236 364,240 364,244 368,244 368,248 368,252 372,252 372,256 376,256 376,252 376,248 
	372,248 372,244 372,240 368,240 368,236 368,232 364,232 364,228 360,228 360,232 "/>
<polygon class="st59" points="376,264 380,264 380,268 380,272 384,272 384,276 388,276 388,272 388,268 384,268 384,264 384,260 
	380,260 380,256 376,256 376,260 "/>
<polygon class="st59" points="388,284 392,284 392,280 392,276 388,276 388,280 "/>
<polygon class="st59" points="392,292 396,292 396,296 400,296 400,292 400,288 396,288 396,284 392,284 392,288 "/>
<polygon class="st59" points="400,304 404,304 404,300 404,296 400,296 400,300 "/>
<polygon class="st59" points="404,312 408,312 408,316 408,320 412,320 412,324 416,324 416,320 416,316 412,316 412,312 412,308 
	408,308 408,304 404,304 404,308 "/>
<polygon class="st59" points="416,332 420,332 420,328 420,324 416,324 416,328 "/>
<polygon class="st59" points="420,340 424,340 424,344 428,344 428,340 428,336 424,336 424,332 420,332 420,336 "/>
<polygon class="st59" points="428,352 432,352 432,348 432,344 428,344 428,348 "/>
<polygon class="st59" points="432,360 436,360 436,356 436,352 432,352 432,356 "/>
<rect x="436" y="360" class="st59" width="4" height="4"/>
<polygon class="st59" points="440,372 444,372 444,368 444,364 440,364 440,368 "/>
<polygon class="st59" points="444,380 448,380 448,376 448,372 444,372 444,376 "/>
<polygon class="st59" points="448,388 452,388 452,392 456,392 456,388 456,384 452,384 452,380 448,380 448,384 "/>
<polygon class="st59" points="456,400 460,400 460,396 460,392 456,392 456,396 "/>
<polygon class="st59" points="460,408 464,408 464,404 464,400 460,400 460,404 "/>
<rect x="464" y="408" class="st59" width="4" height="4"/>
<polygon class="st59" points="468,420 472,420 472,416 472,412 468,412 468,416 "/>
<polygon class="st59" points="472,428 476,428 476,424 476,420 472,420 472,424 "/>
<polygon class="st59" points="476,436 480,436 480,432 480,428 476,428 476,432 "/>
<rect x="480" y="436" class="st59" width="4" height="4"/>
<polygon class="st59" points="484,448 488,448 488,444 488,440 484,440 484,444 "/>
<polygon class="st59" points="488,456 492,456 492,452 492,448 488,448 488,452 "/>
<rect x="492" y="456" class="st59" width="4" height="4"/>
<rect x="496" y="464" class="st59" width="4" height="4"/>
<polygon class="st59" points="500,476 504,476 504,472 504,468 500,468 500,472 "/>
<rect x="504" y="476" class="st59" width="4" height="4"/>
<rect x="508" y="484" class="st59" width="4" height="4"/>
<polygon class="st59" points="512,496 516,496 516,492 516,488 512,488 512,492 "/>
<polygon class="st59" points="516,504 520,504 520,500 520,496 516,496 516,500 "/>
<rect x="520" y="504" class="st59" width="4" height="4"/>
<rect x="524" y="512" class="st59" width="4" height="4"/>
<polygon class="st59" points="528,524 532,524 532,520 532,516 528,516 528,520 "/>
<rect x="532" y="524" class="st59" width="4" height="4"/>
<rect x="536" y="532" class="st59" width="4" height="4"/>
<rect x="540" y="540" class="st59" width="4" height="4"/>
<rect x="544" y="544" class="st59" width="4" height="4"/>
<rect x="548" y="552" class="st59" width="4" height="4"/>
<rect x="552" y="560" class="st59" width="4" height="4"/>
<polygon class="st59" points="556,572 560,572 560,568 560,564 556,564 556,568 "/>
<rect x="560" y="572" class="st59" width="4" height="4"/>
<rect x="564" y="580" class="st59" width="4" height="4"/>
<rect x="568" y="588" class="st59" width="4" height="4"/>
<rect x="572" y="592" class="st59" width="4" height="4"/>
<rect x="576" y="600" class="st59" width="4" height="4"/>
<rect x="580" y="608" class="st59" width="4" height="4"/>
<rect x="588" y="620" class="st59" width="4" height="4"/>
<rect x="592" y="628" class="st59" width="4" height="4"/>
<rect x="596" y="636" class="st59" width="4" height="4"/>
<rect x="600" y="640" class="st59" width="4" height="4"/>
<rect x="604" y="648" class="st59" width="4" height="4"/>
<rect x="608" y="656" class="st59" width="4" height="4"/>
<rect x="616" y="668" class="st59" width="4" height="4"/>
<rect x="620" y="676" class="st59" width="4" height="4"/>
<rect x="632" y="696" class="st59" width="4" height="4"/>
<rect x="636" y="704" class="st59" width="4" height="4"/>
<rect x="644" y="716" class="st59" width="4" height="4"/>
<rect x="648" y="724" class="st59" width="4" height="4"/>
<rect x="660" y="744" class="st59" width="4" height="4"/>
<rect x="664" y="752" class="st59" width="4" height="4"/>
<rect x="676" y="772" class="st59" width="4" height="4"/>
<polygon class="st60" points="971.8,808 971.8,804 971.8,800 967.8,800 967.8,796 967.8,792 963.8,792 963.8,788 964,788 964,784 
	960,784 960,780 956,780 956,776 956,772 952,772 952,768 952,764 948,764 948,760 948,756 944,756 944,752 940,752 940,748 
	940,744 936,744 936,740 936,736 932,736 932,732 928,732 928,728 928,724 924,724 924,720 924,716 920,716 920,712 920,708 
	916,708 916,704 912,704 912,700 912,696 908,696 908,692 908,688 904,688 904,684 900,684 900,680 900,676 896,676 896,672 
	896,668 892,668 892,664 888,664 888,660 888,656 884,656 884,652 884,648 880,648 880,644 880,640 876,640 876,636 872,636 
	872,632 872,628 868,628 868,624 868,620 864,620 864,616 860,616 860,612 860,608 856,608 856,604 856,600 852,600 852,596 
	852,592 848,592 848,588 844,588 844,584 844,580 840,580 840,576 840,572 836,572 836,568 832,568 832,564 832,560 828,560 
	828,556 828,552 824,552 824,548 824,544 820,544 820,540 816,540 816,536 816,532 812,532 812,528 812,524 808,524 808,520 
	804,520 804,516 804,512 800,512 800,508 800,504 796,504 796,500 792,500 792,496 792,492 788,492 788,488 788,484 784,484 
	784,480 784,476 780,476 780,472 776,472 776,468 776,464 772,464 772,460 772,456 768,456 768,452 764,452 764,448 764,444 
	760,444 760,440 760,436 756,436 756,432 756,428 752,428 752,424 748,424 748,420 748,416 744,416 744,412 744,408 740,408 
	740,404 736,404 736,400 736,396 732,396 732,392 732,388 728,388 728,384 728,380 724,380 724,376 720,376 720,372 720,368 
	716,368 716,364 716,360 712,360 712,356 708,356 708,352 708,348 704,348 704,344 704,340 700,340 700,336 700,332 696,332 
	696,328 692,328 692,324 692,320 688,320 688,316 688,312 684,312 684,308 680,308 680,304 680,300 676,300 676,296 676,292 
	672,292 672,288 668,288 668,284 668,280 664,280 664,276 664,272 660,272 660,268 660,264 656,264 656,260 652,260 652,256 
	652,252 648,252 648,248 648,244 644,244 644,240 640,240 640,236 640,232 636,232 636,228 636,224 632,224 632,220 632,216 
	628,216 628,212 624,212 624,208 624,204 620,204 620,200 620,196 616,196 616,192 612,192 612,188 612,184 608,184 608,180 
	608,176 604,176 604,172 604,168 600,168 600,164 596,164 596,160 596,156 592,156 592,152 592,148 588,148 588,144 584,144 
	584,140 584,136 580,136 580,132 580,128 576,128 576,124 572,124 572,120 572,116 568,116 568,112 568,108 564,108 564,104 
	564,100 560,100 560,96 556,96 556,92 556,88 552,88 552,84 552,80 548,80 548,76 544,76 544,72 544,68 540,68 540,64 540,60 
	536,60 536,56 536,52 532,52 532,48 528,48 528,44 528,40 524,40 524,36 524,32 520,32 520,28 516,28 516,24 516,20 512,20 512,16 
	512,12 508,12 508,8 508,4 504,4 504,0 500,0 496,0 492,0 488,0 484,0 480,0 476,0 472,0 468,0 468,4 464,4 464,8 468,8 468,12 
	472,12 472,16 472,20 476,20 480,20 484,20 484,24 480,24 476,24 476,28 480,28 480,32 480,36 484,36 484,40 488,40 488,44 488,48 
	492,48 492,52 492,56 496,56 496,60 500,60 500,64 500,68 504,68 504,72 504,76 508,76 508,80 508,84 512,84 512,88 516,88 516,92 
	516,96 520,96 520,100 520,104 524,104 524,108 528,108 528,112 528,116 532,116 532,120 532,124 536,124 536,128 536,132 540,132 
	540,136 544,136 544,140 544,144 548,144 548,148 548,152 552,152 552,156 556,156 556,160 556,164 560,164 560,168 560,172 
	564,172 564,176 568,176 568,180 568,184 572,184 572,188 572,192 576,192 576,196 576,200 580,200 580,204 584,204 584,208 
	584,212 588,212 588,216 588,220 592,220 592,224 596,224 596,228 596,232 600,232 600,236 600,240 604,240 604,244 604,248 
	608,248 608,252 612,252 612,256 612,260 616,260 616,264 616,268 620,268 620,272 624,272 624,276 624,280 628,280 628,284 
	628,288 632,288 632,292 632,296 636,296 636,300 640,300 640,304 640,308 644,308 644,312 644,316 648,316 648,320 652,320 
	652,324 652,328 656,328 656,332 656,336 660,336 660,340 664,340 664,344 664,348 668,348 668,352 668,356 672,356 672,360 
	672,364 676,364 676,368 680,368 680,372 680,376 684,376 684,380 684,384 688,384 688,388 692,388 692,392 692,396 696,396 
	696,400 696,404 700,404 700,408 700,412 704,412 704,416 708,416 708,420 708,424 712,424 712,428 712,432 716,432 716,436 
	720,436 720,440 720,444 724,444 724,448 724,452 728,452 728,456 728,460 732,460 732,464 736,464 736,468 736,472 740,472 
	740,476 740,480 744,480 744,484 748,484 748,488 748,492 752,492 752,496 752,500 756,500 756,504 756,508 760,508 760,512 
	764,512 764,516 764,520 768,520 768,524 768,528 772,528 772,532 776,532 776,536 776,540 780,540 780,544 780,548 784,548 
	784,552 788,552 788,556 788,560 792,560 792,564 792,568 796,568 796,572 796,576 800,576 800,580 804,580 804,584 804,588 
	808,588 808,592 808,596 812,596 812,600 816,600 816,604 816,608 820,608 820,612 820,616 824,616 824,620 824,624 828,624 
	828,628 832,628 832,632 832,636 836,636 836,640 836,644 840,644 840,648 844,648 844,652 844,656 848,656 848,660 848,664 
	852,664 852,668 852,672 856,672 856,676 860,676 860,680 860,684 864,684 864,688 864,692 868,692 868,696 872,696 872,700 
	872,704 876,704 876,708 876,712 880,712 880,716 884,716 884,720 884,724 888,724 888,728 888,732 892,732 892,736 892,740 
	896,740 896,744 900,744 900,748 900,752 904,752 904,756 904,760 908,760 908,764 912,764 912,768 912,772 916,772 916,776 
	916,780 920,780 920,784 920,788 923.9,788 923.9,792 923.9,796 927.9,796 927.9,800 927.9,804 931.9,804 931.9,808 931.9,812 
	971.8,812 975.8,812 975.8,808 "/>
<path class="st60" d="M868,804v-4v-4h-4v-4v-4h-4v-4h-4v-4v-4h-4v-4h-4v-4v-4h-4v-4v-4h-4v-4v-4h-4v-4h-4v-4v-4h-4v-4v-4h-4v-4v-4
	h-4v-4h-4v-4v-4h-4v-4v-4h-4v-4h-4v-4v-4h-4v-4v-4h-4v-4v-4h-4v-4h-4v-4v-4h-4v-4v-4h-4v-4v-4h-4v-4h-4v-4v-4h-4v-4v-4h-4v-4h-4v-4
	v-4h-4v-4v-4h-4v-4v-4h-4v-4h-4v-4v-4h-4v-4v-4h-4v-4v-4h-4v-4h-4v-4v-4h-4v-4v-4h-4v-4h-4v-4v-4h-4v-4v-4h-4v-4v-4h-4v-4h-4v-4v-4
	h-4v-4v-4h-4v-4v-4h-4v-4h-4v-4v-4h-4v-4v-4h-4v-4h-4v-4v-4h-4v-4v-4h-4v-4v-4h-4v-4h-4v-4v-4h-4v-4v-4h-4v-4v-4h-4v-4h-4v-4v-4h-4
	v-4v-4h-4v-4h-4v-4v-4h-4v-4v-4h-4v-4v-4h-4v-4h-4v-4v-4h-4v-4v-4h-4v-4v-4h-4v-4h-4v-4v-4h-4v-4v-4h-4v-4v-4h-4v-4h-4v-4v-4h-4v-4
	v-4h-4v-4h-4v-4v-4h-4v-4v-4h-4v-4v-4h-4v-4h-4v-4v-4h-4v-4v-4h-4v-4v-4h-4v-4h-4v-4v-4h-4v-4v-4h-4v-4h-4v-4v-4h-4v-4v-4h-4v-4v-4
	h-4v-4h-4v-4v-4h-4v-4v-4h-4v-4v-4h-4v-4h-4v-4v-4h-4v-4v-4h-4v-4h-4v-4v-4h-4v-4v-4h-4v-4v-4h-4v-4h-4v-4v-4h-4v-4v-4h-4v-4v-4h-4
	v-4h-4v-4v-4h-4v-4v-4h-4v-4h-4v-4v-4h-4v-4v-4h-4v-4v-4h-4h-4h-4h-4h-4h-4h-4h-4h-4h-4v4h-4h-4h-4h-4h-4v-4h4h4h4v-4h4v-4h4h4h4h4
	h4h4h4v-4h4v-4v-4h-4v-4V8h-4V4h-4V0h-4h-4v4h-4v4h-4h-4v4h-4h-4v4h-4h-4h-4h-4h-4h-4h-4v4h-4h-4h-4h-4v-4h-4h-4h-4v4h4v4v4h4v-4h4
	h4v4h-4v4v4v4h4v4v4h4v4v4h4v4v4h4v4h4v4v4h4v4v4h4v4v4h4v4v4h4v4h4v4v4h4v4v4h4v4v4h4v4h4v4v4h4v4v4h4v4v4h4v4v4h4v4h4v4v4h4v4v4h4
	v4v4h4v4h4v4v4h4v4v4h4v4v4h4v4v4h4v4h4v4v4h4v4v4h4v4v4h4v4v4h4v4h4v4v4h4v4v4h4v4v4h4v4h4v4v4h4v4v4h4v4v4h4v4v4h4v4h4v4v4h4v4v4
	h4v4v4h4v4h4v4v4h4v4v4h4v4v4h4v4v4h4v4h4v4v4h4v4v4h4v4v4h4v4v4h4v4h4v4v4h4v4v4h4v4v4h4v4h4v4v4h4v4v4h4v4v4h4v4v4h4v4h4v4v4h4v4
	v4h4v4v4h4v4h4v4v4h4v4v4h4v4v4h4v4v4h4v4h4v4v4h4v4v4h4v4v4h4v4v4h4v4h4v4v4h4v4v4h4v4v4h4v4h4v4v4h4v4v4h4v4v4h4v4v4h4v4h4v4v4h4
	v4v4h4v4v4h4v4h4v4v4h4v4v4h4v4v4h4v4v4h4v4h4v4v4h4v4v4h4v4v4h4v4v4h4v4h4v4v4h4v4v4h4v4v4h4v4v4h4v4h4v4v4h4v4v4h104h4v-4v-4H868z
	 M380,88h-4v-4h4V88z M392,60h-4h-4v4h-4v4h-4h-4h-4v-4h4v-4h4h4v-4h4h4h4V60z M408,44h-4h-4h-4v4h-4h-4h-4h-4v4h-4h-4v-4h4v-4h4h4
	h4h4v-4h4h4h4h4V44z"/>
<g>
	<polygon class="st61" points="272,40 276,40 276,36 280,36 284,36 284,32 288,32 292,32 292,28 296,28 300,28 304,28 308,28 
		312,28 316,28 320,28 324,28 324,24 324,20 320,20 320,16 316,16 312,16 308,16 304,16 304,20 300,20 296,20 292,20 288,20 288,24 
		284,24 280,24 280,20 284,20 284,16 288,16 288,12 292,12 296,12 300,12 300,8 304,8 308,8 312,8 316,8 316,4 312,4 312,0 308,0 
		304,0 300,0 296,0 292,0 288,0 284,0 280,0 276,0 272,0 268,0 264,0 260,0 256,0 252,0 252,4 248,4 248,8 244,8 244,12 248,12 
		252,12 252,16 256,16 260,16 260,20 256,20 252,20 248,20 244,20 244,24 244,28 248,28 248,32 252,32 252,36 252,40 256,40 256,44 
		260,44 264,44 268,44 268,40 	"/>
	<polygon class="st61" points="116,48 112,48 108,48 104,48 100,48 100,52 96,52 92,52 92,56 88,56 84,56 80,56 76,56 76,60 80,60 
		84,60 88,60 92,60 96,60 100,60 104,60 108,60 108,56 112,56 116,56 120,56 120,52 116,52 	"/>
	<polygon class="st61" points="84,68 80,68 76,68 72,68 72,72 76,72 76,76 72,76 72,80 76,80 80,80 80,76 84,76 88,76 92,76 92,72 
		92,68 88,68 	"/>
	<rect x="68" y="72" class="st61" width="4" height="4"/>
	<path class="st61" d="M760,804v-4v-4h-4v-4h-4v-4v-4h-4v-4v-4h-4v-4v-4h-4v-4v-4h-4v-4h-4v-4v-4h-4v-4v-4h-4v-4v-4h-4v-4v-4h-4v-4
		h-4v-4v-4h-4v-4v-4h-4v-4v-4h-4v-4v-4h-4v-4h-4v-4v-4h-4v-4v-4h-4v-4v-4h-4v-4h-4v-4v-4h-4v-4v-4h-4v-4v-4h-4v-4v-4h-4v-4h-4v-4v-4
		h-4v-4v-4h-4v-4v-4h-4v-4h-4v-4v-4h-4v-4v-4h-4v-4v-4h-4v-4v-4h-4v-4h-4v-4v-4h-4v-4v-4h-4v-4v-4h-4v-4v-4h-4v-4h-4v-4v-4h-4v-4v-4
		h-4v-4v-4h-4v-4h-4v-4v-4h-4v-4v-4h-4v-4v-4h-4v-4v-4h-4v-4h-4v-4v-4h-4v-4v-4h-4v-4v-4h-4v-4h-4v-4v-4h-4v-4v-4h-4v-4v-4h-4v-4v-4
		h-4v-4h-4v-4v-4h-4v-4v-4h-4v-4v-4h-4v-4v-4h-4v-4h-4v-4v-4h-4v-4v-4h-4v-4v-4h-4v-4h-4v-4v-4h-4v-4v-4h-4v-4v-4h-4v-4v-4h-4v-4h-4
		v-4v-4h-4v-4v-4h-4v-4v-4h-4v-4h-4v-4v-4h-4v-4v-4h-4v-4v-4h-4v-4v-4h-4v-4h-4v-4v-4h-4v-4v-4h-4v-4v-4h-4v-4v-4h-4v-4h-4v-4v-4h-4
		v-4v-4h-4v-4v-4h-4v-4h-4v-4v-4h-4v-4v-4h-4v-4v-4h-4v-4v-4h-4v-4h-4v-4v-4h-4v-4v-4h-4v-4v-4h-4v-4h-4v-4v-4h-4v-4v-4h-4v-4v-4h-4
		v-4v-4h-4v-4h-4v-4v-4h-4v-4v-4h-4v4h-4h-4h-4v4h-4h-4v-4h4v-4h4h4h4h4v-4v-4h-4v-4h-4h-4h-4v4h-4v4h-4h-4h-4h-4v4h-4h-4h-4v4h-4
		h-4v-4h-4v-4h-4h-4v4h-4h-4v4v4h4v4h4v4v4h4v4h4h4v4h-4v4h4v4v4h4v4v4h4v4v4h4v4h4v4v4h4v4v4h4v4v4h4v4h4v4v4h4v4v4h4v4h4v4v4h4v4
		v4h4v4v4h4v4h4v4v4h4v4v4h4v4v4h4v4h4v4v4h4v4v4h4v4h4v4v4h4v4v4h4v4v4h4v4h4v4v4h4v4v4h4v4v4h4v4h4v4v4h4v4v4h4v4h4v4v4h4v4v4h4v4
		v4h4v4h4v4v4h4v4v4h4v4v4h4v4h4v4v4h4v4v4h4v4h4v4v4h4v4v4h4v4v4h4v4h4v4v4h4v4v4h4v4v4h4v4h4v4v4h4v4v4h4v4v4h4v4h4v4v4h4v4v4h4v4
		h4v4v4h4v4v4h4v4v4h4v4h4v4v4h4v4v4h4v4v4h4v4h4v4v4h4v4v4h4v4h4v4v4h4v4v4h4v4v4h4v4h4v4v4h4v4v4h4v4v4h4v4h4v4v4h4v4v4h4v4h4v4v4
		h4v4v4h4v4v4h4v4h4v4v4h4v4v4h4v4v4h4v4h4v4v4h4v4v4h4v4h4v4v4h4v4v4h4v4v4h4v4h4v4v4h4v4v4h4v4v4h4v4h4v4v4h4v4v4h4v4h4v4h4v4v4h4
		v4v4h60h4v-4v-4H760z M320,68h-4h-4v-4h4h4V68z"/>
</g>
<polygon class="st62" points="696,804 696,800 696,796 692,796 692,792 688,792 688,788 684,788 684,784 684,780 680,780 680,776 
	676,776 676,772 676,768 672,768 672,764 672,760 668,760 668,756 664,756 664,752 664,748 660,748 660,744 660,740 656,740 
	656,736 656,732 652,732 652,728 648,728 648,724 648,720 644,720 644,716 644,712 640,712 640,708 636,708 636,704 636,700 
	632,700 632,696 632,692 628,692 628,688 628,684 624,684 624,680 620,680 620,676 620,672 616,672 616,668 616,664 612,664 
	612,660 608,660 608,656 608,652 604,652 604,648 604,644 600,644 600,640 596,640 596,636 596,632 592,632 592,628 592,624 
	588,624 588,620 588,616 584,616 584,612 580,612 580,608 580,604 576,604 576,600 576,596 572,596 572,592 568,592 568,588 
	568,584 564,584 564,580 564,576 560,576 560,572 556,572 556,568 556,564 552,564 552,560 552,556 548,556 548,552 548,548 
	544,548 544,544 540,544 540,540 540,536 536,536 536,532 536,528 532,528 532,524 528,524 528,520 528,516 524,516 524,512 
	524,508 520,508 520,504 516,504 516,500 516,496 512,496 512,492 512,488 508,488 508,484 508,480 504,480 504,476 500,476 
	500,472 500,468 496,468 496,464 496,460 492,460 492,456 488,456 488,452 488,448 484,448 484,444 484,440 480,440 480,436 
	476,436 476,432 476,428 472,428 472,424 472,420 468,420 468,416 468,412 464,412 464,408 460,408 460,404 460,400 456,400 
	456,396 456,392 452,392 452,388 448,388 448,384 448,380 444,380 444,376 444,372 440,372 440,368 440,364 436,364 436,360 
	432,360 432,356 432,352 428,352 428,348 428,344 424,344 424,340 420,340 420,336 420,332 416,332 416,328 416,324 412,324 
	412,320 408,320 408,316 408,312 404,312 404,308 404,304 400,304 400,300 400,296 396,296 396,292 392,292 392,288 392,284 
	388,284 388,280 388,276 384,276 384,272 380,272 380,268 380,264 376,264 376,260 376,256 372,256 372,252 368,252 368,248 
	368,244 364,244 364,240 364,236 360,236 360,232 360,228 356,228 356,224 352,224 352,220 352,216 348,216 348,212 348,208 
	344,208 344,204 340,204 340,200 340,196 336,196 336,192 336,188 332,188 332,184 328,184 328,180 328,176 324,176 324,172 
	324,168 320,168 320,164 320,160 316,160 316,156 312,156 312,152 312,148 308,148 308,144 308,140 304,140 304,136 300,136 
	300,132 300,128 296,128 296,124 296,120 292,120 292,116 288,116 288,112 288,108 284,108 284,104 284,100 280,100 280,96 280,92 
	276,92 276,88 272,88 272,84 272,80 268,80 268,76 268,72 264,72 260,72 256,72 252,72 248,72 244,72 240,72 236,72 232,72 228,72 
	224,72 224,76 228,76 228,80 232,80 236,80 240,80 244,80 244,84 240,84 236,84 232,84 232,88 236,88 236,92 236,96 240,96 240,100 
	244,100 244,104 244,108 248,108 248,112 248,116 252,116 252,120 252,124 256,124 256,128 260,128 260,132 260,136 264,136 
	264,140 264,144 268,144 268,148 272,148 272,152 272,156 276,156 276,160 276,164 280,164 280,168 284,168 284,172 284,176 
	288,176 288,180 288,184 292,184 292,188 292,192 296,192 296,196 300,196 300,200 300,204 304,204 304,208 304,212 308,212 
	308,216 312,216 312,220 312,224 316,224 316,228 316,232 320,232 320,236 324,236 324,240 324,244 328,244 328,248 328,252 
	332,252 332,256 332,260 336,260 336,264 340,264 340,268 340,272 344,272 344,276 344,280 348,280 348,284 352,284 352,288 
	352,292 356,292 356,296 356,300 360,300 360,304 364,304 364,308 364,312 368,312 368,316 368,320 372,320 372,324 372,328 
	376,328 376,332 380,332 380,336 380,340 384,340 384,344 384,348 388,348 388,352 392,352 392,356 392,360 396,360 396,364 
	396,368 400,368 400,372 404,372 404,376 404,380 408,380 408,384 408,388 412,388 412,392 412,396 416,396 416,400 420,400 
	420,404 420,408 424,408 424,412 424,416 428,416 428,420 432,420 432,424 432,428 436,428 436,432 436,436 440,436 440,440 
	440,444 444,444 444,448 448,448 448,452 448,456 452,456 452,460 452,464 456,464 456,468 460,468 460,472 460,476 464,476 
	464,480 464,484 468,484 468,488 472,488 472,492 472,496 476,496 476,500 476,504 480,504 480,508 480,512 484,512 484,516 
	488,516 488,520 488,524 492,524 492,528 492,532 496,532 496,536 500,536 500,540 500,544 504,544 504,548 504,552 508,552 
	508,556 512,556 512,560 512,564 516,564 516,568 516,572 520,572 520,576 520,580 524,580 524,584 528,584 528,588 528,592 
	532,592 532,596 532,600 536,600 536,604 540,604 540,608 540,612 544,612 544,616 544,620 548,620 548,624 552,624 552,628 
	552,632 556,632 556,636 556,640 560,640 560,644 560,648 564,648 564,652 568,652 568,656 568,660 572,660 572,664 572,668 
	576,668 576,672 580,672 580,676 580,680 584,680 584,684 584,688 588,688 588,692 592,692 592,696 592,700 596,700 596,704 
	596,708 600,708 600,712 600,716 604,716 604,720 608,720 608,724 608,728 612,728 612,732 612,736 616,736 616,740 620,740 
	620,744 620,748 624,748 624,752 624,756 628,756 628,760 628,764 632,764 632,768 636,768 636,772 636,776 640,776 640,780 
	640,784 644,784 644,788 648,788 648,792 652,792 652,796 652,800 656,800 656,804 656,808 660,808 660,812 700,812 700,808 
	700,804 "/>
<polygon class="st60" points="656,808 656,804 656,800 652,800 652,796 652,792 648,792 648,788 644,788 644,784 640,784 640,780 
	640,776 636,776 636,772 636,768 632,768 632,764 628,764 628,760 628,756 624,756 624,752 624,748 620,748 620,744 620,740 
	616,740 616,736 612,736 612,732 612,728 608,728 608,724 608,720 604,720 604,716 600,716 600,712 600,708 596,708 596,704 
	596,700 592,700 592,696 592,692 588,692 588,688 584,688 584,684 584,680 580,680 580,676 580,672 576,672 576,668 572,668 
	572,664 572,660 568,660 568,656 568,652 564,652 564,648 560,648 560,644 560,640 556,640 556,636 556,632 552,632 552,628 
	552,624 548,624 548,620 544,620 544,616 544,612 540,612 540,608 540,604 536,604 536,600 532,600 532,596 532,592 528,592 
	528,588 528,584 524,584 524,580 520,580 520,576 520,572 516,572 516,568 516,564 512,564 512,560 512,556 508,556 508,552 
	504,552 504,548 504,544 500,544 500,540 500,536 496,536 496,532 492,532 492,528 492,524 488,524 488,520 488,516 484,516 
	484,512 480,512 480,508 480,504 476,504 476,500 476,496 472,496 472,492 472,488 468,488 468,484 464,484 464,480 464,476 
	460,476 460,472 460,468 456,468 456,464 452,464 452,460 452,456 448,456 448,452 448,448 444,448 444,444 440,444 440,440 
	440,436 436,436 436,432 436,428 432,428 432,424 432,420 428,420 428,416 424,416 424,412 424,408 420,408 420,404 420,400 
	416,400 416,396 412,396 412,392 412,388 408,388 408,384 408,380 404,380 404,376 404,372 400,372 400,368 396,368 396,364 
	396,360 392,360 392,356 392,352 388,352 388,348 384,348 384,344 384,340 380,340 380,336 380,332 376,332 376,328 372,328 
	372,324 372,320 368,320 368,316 368,312 364,312 364,308 364,304 360,304 360,300 356,300 356,296 356,292 352,292 352,288 
	352,284 348,284 348,280 344,280 344,276 344,272 340,272 340,268 340,264 336,264 336,260 332,260 332,256 332,252 328,252 
	328,248 328,244 324,244 324,240 324,236 320,236 320,232 316,232 316,228 316,224 312,224 312,220 312,216 308,216 308,212 
	304,212 304,208 304,204 300,204 300,200 300,196 296,196 296,192 292,192 292,188 292,184 288,184 288,180 288,176 284,176 
	284,172 284,168 280,168 280,164 276,164 276,160 276,156 272,156 272,152 272,148 268,148 268,144 264,144 264,140 264,136 
	260,136 260,132 260,128 256,128 256,124 252,124 252,120 252,116 248,116 248,112 248,108 244,108 244,104 244,100 240,100 240,96 
	236,96 236,92 232,92 228,92 224,92 220,92 216,92 216,96 212,96 212,100 216,100 216,104 216,108 220,108 220,112 224,112 224,116 
	224,120 228,120 228,124 228,128 232,128 232,132 232,136 236,136 236,140 240,140 240,144 240,148 244,148 244,152 244,156 
	248,156 248,160 248,164 252,164 252,168 256,168 256,172 256,176 260,176 260,180 260,184 264,184 264,188 268,188 268,192 
	268,196 272,196 272,200 272,204 276,204 276,208 276,212 280,212 280,216 284,216 284,220 284,224 288,224 288,228 288,232 
	292,232 292,236 292,240 296,240 296,244 300,244 300,248 300,252 304,252 304,256 304,260 308,260 308,264 308,268 312,268 
	312,272 316,272 316,276 316,280 320,280 320,284 320,288 324,288 324,292 328,292 328,296 328,300 332,300 332,304 332,308 
	336,308 336,312 336,316 340,316 340,320 344,320 344,324 344,328 348,328 348,332 348,336 352,336 352,340 352,344 356,344 
	356,348 360,348 360,352 360,356 364,356 364,360 364,364 368,364 368,368 372,368 372,372 372,376 376,376 376,380 376,384 
	380,384 380,388 380,392 384,392 384,396 388,396 388,400 388,404 392,404 392,408 392,412 396,412 396,416 396,420 400,420 
	400,424 404,424 404,428 404,432 408,432 408,436 408,440 412,440 412,444 412,448 416,448 416,452 420,452 420,456 420,460 
	424,460 424,464 424,468 428,468 428,472 432,472 432,476 432,480 436,480 436,484 436,488 440,488 440,492 440,496 444,496 
	444,500 448,500 448,504 448,508 452,508 452,512 452,516 456,516 456,520 456,524 460,524 460,528 464,528 464,532 464,536 
	468,536 468,540 468,544 472,544 472,548 472,552 476,552 476,556 480,556 480,560 480,564 484,564 484,568 484,572 488,572 
	488,576 492,576 492,580 492,584 496,584 496,588 496,592 500,592 500,596 500,600 504,600 504,604 508,604 508,608 508,612 
	512,612 512,616 512,620 516,620 516,624 516,628 520,628 520,632 524,632 524,636 524,640 528,640 528,644 528,648 532,648 
	532,652 532,656 536,656 536,660 540,660 540,664 540,668 544,668 544,672 544,676 548,676 548,680 552,680 552,684 552,688 
	556,688 556,692 556,696 560,696 560,700 560,704 564,704 564,708 568,708 568,712 568,716 572,716 572,720 572,724 576,724 
	576,728 576,732 580,732 580,736 584,736 584,740 584,744 588,744 588,748 588,752 592,752 592,756 592,760 596,760 596,764 
	600,764 600,768 600,772 604,772 604,776 604,780 608,780 608,784 612,784 612,788 612,792 616,792 616,796 616,800 620,800 
	620,804 620,808 624,808 624,812 660,812 660,808 "/>
<polygon class="st62" points="620,808 620,804 620,800 616,800 616,796 616,792 612,792 612,788 612,784 608,784 608,780 604,780 
	604,776 604,772 600,772 600,768 600,764 596,764 596,760 592,760 592,756 592,752 588,752 588,748 588,744 584,744 584,740 
	584,736 580,736 580,732 576,732 576,728 576,724 572,724 572,720 572,716 568,716 568,712 568,708 564,708 564,704 560,704 
	560,700 560,696 556,696 556,692 556,688 552,688 552,684 552,680 548,680 548,676 544,676 544,672 544,668 540,668 540,664 
	540,660 536,660 536,656 532,656 532,652 532,648 528,648 528,644 528,640 524,640 524,636 524,632 520,632 520,628 516,628 
	516,624 516,620 512,620 512,616 512,612 508,612 508,608 508,604 504,604 504,600 500,600 500,596 500,592 496,592 496,588 
	496,584 492,584 492,580 492,576 488,576 488,572 484,572 484,568 484,564 480,564 480,560 480,556 476,556 476,552 472,552 
	472,548 472,544 468,544 468,540 468,536 464,536 464,532 464,528 460,528 460,524 456,524 456,520 456,516 452,516 452,512 
	452,508 448,508 448,504 448,500 444,500 444,496 440,496 440,492 440,488 436,488 436,484 436,480 432,480 432,476 432,472 
	428,472 428,468 424,468 424,464 424,460 420,460 420,456 420,452 416,452 416,448 412,448 412,444 412,440 408,440 408,436 
	408,432 404,432 404,428 404,424 400,424 400,420 396,420 396,416 396,412 392,412 392,408 392,404 388,404 388,400 388,396 
	384,396 384,392 380,392 380,388 380,384 376,384 376,380 376,376 372,376 372,372 372,368 368,368 368,364 364,364 364,360 
	364,356 360,356 360,352 360,348 356,348 356,344 352,344 352,340 352,336 348,336 348,332 348,328 344,328 344,324 344,320 
	340,320 340,316 336,316 336,312 336,308 332,308 332,304 332,300 328,300 328,296 328,292 324,292 324,288 320,288 320,284 
	320,280 316,280 316,276 316,272 312,272 312,268 308,268 308,264 308,260 304,260 304,256 304,252 300,252 300,248 300,244 
	296,244 296,240 292,240 292,236 292,232 288,232 288,228 288,224 284,224 284,220 284,216 280,216 280,212 276,212 276,208 
	276,204 272,204 272,200 272,196 268,196 268,192 268,188 264,188 264,184 260,184 260,180 260,176 256,176 256,172 256,168 
	252,168 252,164 248,164 248,160 248,156 244,156 244,152 244,148 240,148 240,144 240,140 236,140 236,136 232,136 232,132 
	232,128 228,128 228,124 228,120 224,120 224,116 224,112 220,112 220,108 216,108 216,104 216,100 212,100 212,96 208,96 208,100 
	204,100 200,100 200,104 204,104 204,108 208,108 208,112 208,116 212,116 212,120 212,124 216,124 216,128 216,132 220,132 
	220,136 224,136 224,140 224,144 228,144 228,148 228,152 232,152 232,156 236,156 236,160 236,164 240,164 240,168 240,172 
	244,172 244,176 244,180 248,180 248,184 252,184 252,188 252,192 256,192 256,196 256,200 260,200 260,204 260,208 264,208 
	264,212 268,212 268,216 268,220 272,220 272,224 272,228 276,228 276,232 280,232 280,236 280,240 284,240 284,244 284,248 
	288,248 288,252 288,256 292,256 292,260 296,260 296,264 296,268 300,268 300,272 300,276 304,276 304,280 304,284 308,284 
	308,288 312,288 312,292 312,296 316,296 316,300 316,304 320,304 320,308 324,308 324,312 324,316 328,316 328,320 328,324 
	332,324 332,328 332,332 336,332 336,336 340,336 340,340 340,344 344,344 344,348 344,352 348,352 348,356 348,360 352,360 
	352,364 356,364 356,368 356,372 360,372 360,376 360,380 364,380 364,384 368,384 368,388 368,392 372,392 372,396 372,400 
	376,400 376,404 376,408 380,408 380,412 384,412 384,416 384,420 388,420 388,424 388,428 392,428 392,432 392,436 396,436 
	396,440 400,440 400,444 400,448 404,448 404,452 404,456 408,456 408,460 408,464 412,464 412,468 416,468 416,472 416,476 
	420,476 420,480 420,484 424,484 424,488 428,488 428,492 428,496 432,496 432,500 432,504 436,504 436,508 436,512 440,512 
	440,516 444,516 444,520 444,524 448,524 448,528 448,532 452,532 452,536 452,540 456,540 456,544 460,544 460,548 460,552 
	464,552 464,556 464,560 468,560 468,564 472,564 472,568 472,572 476,572 476,576 476,580 480,580 480,584 480,588 484,588 
	484,592 488,592 488,596 488,600 492,600 492,604 492,608 496,608 496,612 496,616 500,616 500,620 504,620 504,624 504,628 
	508,628 508,632 508,636 512,636 512,640 516,640 516,644 516,648 520,648 520,652 520,656 524,656 524,660 524,664 528,664 
	528,668 532,668 532,672 532,676 536,676 536,680 536,684 540,684 540,688 540,692 544,692 544,696 548,696 548,700 548,704 
	552,704 552,708 552,712 556,712 556,716 560,716 560,720 560,724 564,724 564,728 564,732 568,732 568,736 568,740 572,740 
	572,744 576,744 576,748 576,752 580,752 580,756 580,760 584,760 584,764 584,768 588,768 588,772 592,772 592,776 592,780 
	596,780 596,784 596,788 600,788 600.1,788 600.1,792 604.1,792 604.1,796 604.1,800 608.1,800 608.1,804 608.1,808 612,808 
	612,812 624,812 624,808 "/>
<g>
	<polygon class="st63" points="136,4 136,0 132,0 128,0 128,4 132,4 	"/>
	<polygon class="st63" points="144,4 144,0 140,0 140,4 140,8 144,8 	"/>
	<rect x="148" y="24" class="st63" width="4" height="4"/>
	<polygon class="st63" points="136,36 140,36 140,32 144,32 148,32 148,28 144,28 144,24 140,24 136,24 132,24 132,28 132,32 
		136,32 	"/>
	<polygon class="st63" points="148,36 144,36 144,40 140,40 140,44 144,44 144,48 144,52 148,52 148,56 148,60 152,60 152,64 
		152,68 156,68 160,68 160,64 164,64 168,64 168,60 168,56 172,56 172,52 172,48 168,48 168,52 164,52 160,52 160,48 156,48 152,48 
		148,48 148,44 152,44 156,44 160,44 160,40 164,40 164,36 160,36 156,36 152,36 	"/>
	<rect x="164" y="44" class="st63" width="4" height="4"/>
	<rect x="172" y="56" class="st63" width="4" height="4"/>
	<polygon class="st63" points="144,60 144,56 140,56 136,56 136,60 136,64 140,64 144,64 	"/>
	<rect x="184" y="76" class="st63" width="4" height="4"/>
	<path class="st63" d="M608.1,808v-4v-4h-4v-4v-4h-4v-4H596v-4v-4h-4v-4v-4h-4v-4h-4v-4v-4h-4v-4v-4h-4v-4v-4h-4v-4h-4v-4v-4h-4v-4
		v-4h-4v-4v-4h-4v-4h-4v-4v-4h-4v-4v-4h-4v-4h-4v-4v-4h-4v-4v-4h-4v-4v-4h-4v-4h-4v-4v-4h-4v-4v-4h-4v-4v-4h-4v-4h-4v-4v-4h-4v-4v-4
		h-4v-4h-4v-4v-4h-4v-4v-4h-4v-4v-4h-4v-4h-4v-4v-4h-4v-4v-4h-4v-4v-4h-4v-4h-4v-4v-4h-4v-4v-4h-4v-4h-4v-4v-4h-4v-4v-4h-4v-4v-4h-4
		v-4h-4v-4v-4h-4v-4v-4h-4v-4v-4h-4v-4h-4v-4v-4h-4v-4v-4h-4v-4h-4v-4v-4h-4v-4v-4h-4v-4v-4h-4v-4h-4v-4v-4h-4v-4v-4h-4v-4v-4h-4v-4
		h-4v-4v-4h-4v-4v-4h-4v-4v-4h-4v-4h-4v-4v-4h-4v-4v-4h-4v-4h-4v-4v-4h-4v-4v-4h-4v-4v-4h-4v-4h-4v-4v-4h-4v-4v-4h-4v-4v-4h-4v-4h-4
		v-4v-4h-4v-4v-4h-4v-4h-4v-4v-4h-4v-4v-4h-4v-4v-4h-4v-4h-4v-4v-4h-4v-4v-4h-4v-4v-4h-4v-4h-4v-4v-4h-4v-4v-4h-4v-4h-4v-4v-4h-4v-4
		v-4h-4v-4v-4h-4v-4h-4v-4v-4h-4v-4v-4h-4v-4v-4h-4v-4h-4v-4v-4h-4v-4v-4h-4v-4h-4v-4v-4h-4v-4v-4h-4v-4v-4h-4v-4h-4v4h-4v-4h4v-4
		v-4h-4v-4v-4h-4v-4v-4h-4v4v4h-4v-4h-4h-4h-4v-4h4h4v-4h4v-4h-4h-4h-4h-4v4h-4h-4v-4h-4h-4h-4h-4v4h4h4h4v4h4h4v4v4h4v4h4v4v4h4v4
		v4h4v4v4h4v4h4v4v4h4v4v4h4v4v4h4v4h4v4v4h4v4v4h4v4v4h4v4h4v4v4h4v4v4h4v4h4v4v4h4v4v4h4v4v4h4v4h4v4v4h4v4v4h4v4v4h4v4h4v4v4h4v4
		v4h4v4v4h4v4h4v4v4h4v4v4h4v4h4v4v4h4v4v4h4v4v4h4v4h4v4v4h4v4v4h4v4v4h4v4h4v4v4h4v4v4h4v4h4v4v4h4v4v4h4v4v4h4v4h4v4v4h4v4v4h4v4
		v4h4v4h4v4v4h4v4v4h4v4v4h4v4h4v4v4h4v4v4h4v4h4v4v4h4v4v4h4v4v4h4v4h4v4v4h4v4v4h4v4v4h4v4h4v4v4h4v4v4h4v4v4h4v4h4v4v4h4v4v4h4v4
		h4v4v4h4v4v4h4v4v4h4v4h4v4v4h4v4v4h4v4v4h4v4h4v4v4h4v4v4h4v4v4h4v4h4v4v4h4v4v4h4v4h4v4v4h4v4v4h4v4v4h4v4h4v4v4h4v4v4h4v4v4h4v4
		h4v4v4h4v4v4h4v4v4h4v4h4v4v4h4v4v4h3.9v4h4v4v4h4v4v4h4v4H612v-4H608.1z M192,96h-4v-4h4V96z M200,116v-4h4v4H200z M208,124h-4v-4
		h4V124z M216,144v-4h4v4H216z M224,152h-4v-4h4V152z M240,180h-4v-4h4V180z M252,208v-4h4v4H252z M260,216h-4v-4h4V216z M276,244
		h-4v-4h4V244z M292,272h-4v-4h4V272z M312,308h-4v-4h4V308z M364,400h-4v-4h4V400z M400,464h-4v-4h4V464z M412,492v-4h4v4H412z
		 M420,500h-4v-4h4V500z M436,528h-4v-4h4V528z M448,556v-4h4v4H448z M456,564h-4v-4h4V564z M464,584v-4h4v4H464z M472,592h-4v-4h4
		V592z M480,612v-4h4v4H480z M484,620v-4h4v4H484z M492,628h-4v-4h4V628z M500,648v-4h4v4H500z M504,656v-4h4v4H504z M512,664h-4v-4
		h4V664z M516,676v-4h4v4H516z M520,684v-4h4v4H520z M528,692h-4v-4h4V692z M532,704v-4h4v4H532z M536,712v-4h4v4H536z M540,720v-4
		h4v4H540z M548,732v-4h-4v-4h4v4h4v4H548z M552,740v-4h4v4H552z M556,748v-4h4v4H556z M564,756h-4v-4h4V756z M580,780v4h-4v-4H580z
		 M576,772v4h-4v-4H576z M568,768v-4h4v4H568z"/>
</g>
<polygon class="st62" points="579.9,808 579.9,804 579.9,800 575.9,800 575.9,796 575.9,792 571.9,792 571.9,788 568,788 568,784 
	568,780 564,780 564,776 564,772 560,772 560,768 556,768 556,764 556,760 552,760 552,756 552,752 548,752 548,748 548,744 
	544,744 544,740 540,740 540,736 540,732 536,732 536,728 536,724 532,724 532,720 532,716 528,716 528,712 524,712 524,708 
	524,704 520,704 520,700 520,696 516,696 516,692 516,688 512,688 512,684 508,684 508,680 508,676 504,676 504,672 504,668 
	500,668 500,664 496,664 496,660 496,656 492,656 492,652 492,648 488,648 488,644 488,640 484,640 484,636 480,636 480,632 
	480,628 476,628 476,624 476,620 472,620 472,616 472,612 468,612 468,608 464,608 464,604 464,600 460,600 460,596 460,592 
	456,592 456,588 456,584 452,584 452,580 448,580 448,576 448,572 444,572 444,568 444,564 440,564 440,560 436,560 436,556 
	436,552 432,552 432,548 432,544 428,544 428,540 428,536 424,536 424,532 420,532 420,528 420,524 416,524 416,520 416,516 
	412,516 412,512 412,508 408,508 408,504 404,504 404,500 404,496 400,496 400,492 400,488 396,488 396,484 396,480 392,480 
	392,476 388,476 388,472 388,468 384,468 384,464 384,460 380,460 380,456 376,456 376,452 376,448 372,448 372,444 372,440 
	368,440 368,436 368,432 364,432 364,428 360,428 360,424 360,420 356,420 356,416 356,412 352,412 352,408 352,404 348,404 
	348,400 344,400 344,396 344,392 340,392 340,388 340,384 336,384 336,380 336,376 332,376 332,372 328,372 328,368 328,364 
	324,364 324,360 324,356 320,356 320,352 316,352 316,348 316,344 312,344 312,340 312,336 308,336 308,332 308,328 304,328 
	304,324 300,324 300,320 300,316 296,316 296,312 296,308 292,308 292,304 292,300 288,300 288,296 284,296 284,292 284,288 
	280,288 280,284 280,280 276,280 276,276 272,276 272,272 272,268 268,268 268,264 268,260 264,260 264,256 264,252 260,252 
	260,248 256,248 256,244 256,240 252,240 252,236 252,232 248,232 248,228 248,224 244,224 244,220 240,220 240,216 240,212 
	236,212 236,208 236,204 232,204 232,200 232,196 228,196 228,192 224,192 224,188 224,184 220,184 220,180 220,176 216,176 
	216,172 212,172 212,168 212,164 208,164 208,160 208,156 204,156 204,152 204,148 200,148 200,144 196,144 196,140 196,136 
	192,136 192,132 192,128 188,128 188,124 188,120 184,120 184,116 180,116 180,112 180,108 176,108 176,104 176,100 172,100 172,96 
	172,92 168,92 168,88 164,88 164,84 164,80 160,80 156,80 156,76 152,76 148,76 148,80 148,84 152,84 152,88 156,88 156,92 156,96 
	160,96 160,100 160,104 164,104 164,108 164,112 168,112 168,116 172,116 172,120 172,124 176,124 176,128 176,132 180,132 180,136 
	180,140 184,140 184,144 188,144 188,148 188,152 192,152 192,156 192,160 196,160 196,164 200,164 200,168 200,172 204,172 
	204,176 204,180 208,180 208,184 208,188 212,188 212,192 216,192 216,196 216,200 220,200 220,204 220,208 224,208 224,212 
	224,216 228,216 228,220 232,220 232,224 232,228 236,228 236,232 236,236 240,236 240,240 244,240 244,244 244,248 248,248 
	248,252 248,256 252,256 252,260 252,264 256,264 256,268 260,268 260,272 260,276 264,276 264,280 264,284 268,284 268,288 
	268,292 272,292 272,296 276,296 276,300 276,304 280,304 280,308 280,312 284,312 284,316 288,316 288,320 288,324 292,324 
	292,328 292,332 296,332 296,336 296,340 300,340 300,344 304,344 304,348 304,352 308,352 308,356 308,360 312,360 312,364 
	312,368 316,368 316,372 320,372 320,376 320,380 324,380 324,384 324,388 328,388 328,392 332,392 332,396 332,400 336,400 
	336,404 336,408 340,408 340,412 340,416 344,416 344,420 348,420 348,424 348,428 352,428 352,432 352,436 356,436 356,440 
	356,444 360,444 360,448 364,448 364,452 364,456 368,456 368,460 368,464 372,464 372,468 372,472 376,472 376,476 380,476 
	380,480 380,484 384,484 384,488 384,492 388,492 388,496 392,496 392,500 392,504 396,504 396,508 396,512 400,512 400,516 
	400,520 404,520 404,524 408,524 408,528 408,532 412,532 412,536 412,540 416,540 416,544 416,548 420,548 420,552 424,552 
	424,556 424,560 428,560 428,564 428,568 432,568 432,572 436,572 436,576 436,580 440,580 440,584 440,588 444,588 444,592 
	444,596 448,596 448,600 452,600 452,604 452,608 456,608 456,612 456,616 460,616 460,620 460,624 464,624 464,628 468,628 
	468,632 468,636 472,636 472,640 472,644 476,644 476,648 480,648 480,652 480,656 484,656 484,660 484,664 488,664 488,668 
	488,672 492,672 492,676 496,676 496,680 496,684 500,684 500,688 500,692 504,692 504,696 504,700 508,700 508,704 512,704 
	512,708 512,712 516,712 516,716 516,720 520,720 520,724 524,724 524,728 524,732 528,732 528,736 528,740 532,740 532,744 
	532,748 536,748 536,752 540,752 540,756 540,760 544,760 544,764 544,768 548,768 548,772 548,776 552,776 552,780 556,780 
	556,784 556,788 559.9,788 559.9,792 563.9,792 563.9,796 563.9,800 567.9,800 567.9,804 567.9,808 571.9,808 571.9,812 583.9,812 
	583.9,808 "/>
<path class="st60" d="M567.9,808v-4v-4h-4v-4v-4h-4v-4H556v-4v-4h-4v-4h-4v-4v-4h-4v-4v-4h-4v-4v-4h-4v-4h-4v-4v-4h-4v-4v-4h-4v-4
	v-4h-4v-4h-4v-4v-4h-4v-4v-4h-4v-4h-4v-4v-4h-4v-4v-4h-4v-4v-4h-4v-4h-4v-4v-4h-4v-4v-4h-4v-4v-4h-4v-4h-4v-4v-4h-4v-4v-4h-4v-4h-4
	v-4v-4h-4v-4v-4h-4v-4v-4h-4v-4h-4v-4v-4h-4v-4v-4h-4v-4v-4h-4v-4h-4v-4v-4h-4v-4v-4h-4v-4h-4v-4v-4h-4v-4v-4h-4v-4v-4h-4v-4h-4v-4
	v-4h-4v-4v-4h-4v-4v-4h-4v-4h-4v-4v-4h-4v-4v-4h-4v-4h-4v-4v-4h-4v-4v-4h-4v-4v-4h-4v-4h-4v-4v-4h-4v-4v-4h-4v-4v-4h-4v-4h-4v-4v-4
	h-4v-4v-4h-4v-4v-4h-4v-4h-4v-4v-4h-4v-4v-4h-4v-4h-4v-4v-4h-4v-4v-4h-4v-4v-4h-4v-4h-4v-4v-4h-4v-4v-4h-4v-4v-4h-4v-4h-4v-4v-4h-4
	v-4v-4h-4v-4h-4v-4v-4h-4v-4v-4h-4v-4v-4h-4v-4h-4v-4v-4h-4v-4v-4h-4v-4v-4h-4v-4h-4v-4v-4h-4v-4v-4h-4v-4h-4v-4v-4h-4v-4v-4h-4v-4
	v-4h-4v-4h-4v-4v-4h-4v-4v-4h-4v-4v-4h-4v-4h-4v-4v-4h-4v-4v-4h-4v-4h-4v-4v-4h-4v-4v-4h-4v-4v-4h-4v-4h-4v-4v-4h-4v-4v-4h-4v-4v-4
	h-4v-4h-4v-4v-4h-4v-4v-4h-4v-4h-4h-4h-4h-4h-4h-4h-4h-4h-4h-4v-4h-4h-4h-4h-4h-4h-4v-4h4h4h4h4v-4h4h4v-4h4h4h4h4v4h4h4v4h4h4v-4
	v-4h-4v-4v-4h-4v-4h-4v-4v-4h-4h-4h-4h-4h-4v-4h-4h-4h-4h-4h-4h-4v-4h4v-4h4v-4h4h4h4h4V8h4V4V0h-4h-4h-4h-4h-4v4h-4h-4h-4h-4v4h-4
	h-4h-4V4h4h4h4V0h-4h-4h-4h-4h-4h-4h-4h-4h-4h-4h-4h-4h-4h-4H8H4H0v4v4v4v4v4v4v4v4v4v4v4v4v4v4v4v4v4h4v4v4h4v4h4v4v4h4v4v4h4v4v4
	h4v4h4v4v4h4v4v4h4v4v4h4v4h4v4v4h4v4v4h4v4v4h4v4v4h4v4h4v4v4h4v4v4h4v4v4h4v4h4v4v4h4v4v4h4v4v4h4v4h4v4v4h4v4v4h4v4v4h4v4h4v4v4
	h4v4v4h4v4v4h4v4v4h4v4h4v4v4h4v4v4h4v4v4h4v4h4v4v4h4v4v4h4v4v4h4v4h4v4v4h4v4v4h4v4v4h4v4v4h4v4h4v4v4h4v4v4h4v4v4h4v4h4v4v4h4v4
	v4h4v4v4h4v4h4v4v4h4v4v4h4v4v4h4v4h4v4v4h4v4v4h4v4v4h4v4v4h4v4h4v4v4h4v4v4h4v4v4h4v4h4v4v4h4v4v4h4v4v4h4v4h4v4v4h4v4v4h4v4v4h4
	v4v4h4v4h4v4v4h4v4v4h4v4v4h4v4h4v4v4h4v4v4h4v4v4h4v4h4v4v4h4v4v4h4v4v4h4v4h4v4v4h4v4v4h4v4v4h4v4v4h4v4h4v4v4h4v4v4h4v4v4h4v4h4
	v4v4h4v4v4h4v4v4h4v4h4v4v4h4v4v4h4h0v4h4v4v4h4v4v4h4v4h147.9v-4H567.9z M40,40h-4v4h-4h-4h-4h-4h-4h-4v-4h4h4h4h4v-4h4h4h4V40z
	 M64,92h-4v-4h4V92z M100,76h-4h-4h-4h-4h-4v4h-4h-4v-4h-4h-4v-4h4h4v-4h4h4h4h4h4v4h4h4V76z"/>
<polygon class="st60" points="300,808 300,804 300,800 296,800 296,796 296,792 292,792 292,788 288,788 288,784 288,780 284,780 
	284,776 284,772 280,772 280,768 280,764 276,764 276,760 276,756 272,756 272,752 272,748 268,748 268,744 268,740 264,740 
	264,736 264,732 260,732 260,728 260,724 256,724 256,720 256,716 252,716 252,712 252,708 248,708 248,704 248,700 244,700 
	244,696 244,692 240,692 240,688 240,684 236,684 236,680 236,676 232,676 232,672 232,668 228,668 228,664 228,660 224,660 
	224,656 224,652 220,652 220,648 220,644 216,644 216,640 216,636 212,636 212,632 212,628 208,628 208,624 208,620 204,620 
	204,616 204,612 200,612 200,608 200,604 196,604 196,600 196,596 192,596 192,592 192,588 188,588 188,584 188,580 184,580 
	184,576 184,572 180,572 180,568 180,564 176,564 176,560 176,556 172,556 172,552 172,548 168,548 168,544 168,540 164,540 
	164,536 164,532 160,532 160,528 160,524 156,524 156,520 156,516 152,516 152,512 152,508 148,508 148,504 148,500 144,500 
	144,496 144,492 140,492 140,488 140,484 136,484 136,480 132,480 132,476 132,472 128,472 128,468 128,464 124,464 124,460 
	124,456 120,456 120,452 120,448 116,448 116,444 116,440 112,440 112,436 112,432 108,432 108,428 108,424 104,424 104,420 
	104,416 100,416 100,412 100,408 96,408 96,404 96,400 92,400 92,396 92,392 88,392 88,388 88,384 84,384 84,380 84,376 80,376 
	80,372 80,368 76,368 76,364 76,360 72,360 72,356 72,352 68,352 68,348 68,344 64,344 64,340 64,336 60,336 60,332 60,328 56,328 
	56,324 56,320 52,320 52,316 52,312 48,312 48,308 48,304 44,304 44,300 44,296 40,296 40,292 40,288 36,288 36,284 36,280 32,280 
	32,276 32,272 28,272 28,268 28,264 24,264 24,260 24,256 20,256 20,252 20,248 16,248 16,244 16,240 12,240 12,236 12,232 8,232 
	8,228 8,224 4,224 4,220 4,216 0,216 0,220 0,224 0,228 0,232 0,236 0,240 0,244 0,248 0,252 0,256 0,260 0,264 0,268 0,272 0,276 
	0,280 0,284 0,288 0,292 0,296 0,300 0,304 0,308 0,312 0,316 0,320 0,324 0,328 0,332 0,336 0,340 0,344 0,348 0,352 0,356 0,360 
	0,364 0,368 4,368 4,372 4,376 8,376 8,380 8,384 12,384 12,388 12,392 16,392 16,396 16,400 20,400 20,404 20,408 24,408 24,412 
	24,416 28,416 28,420 28,424 32,424 32,428 32,432 36,432 36,436 36,440 40,440 40,444 40,448 44,448 44,452 44,456 48,456 48,460 
	48,464 52,464 52,468 52,472 56,472 56,476 56,480 60,480 60,484 60,488 64,488 64,492 64,496 68,496 68,500 68,504 72,504 72,508 
	72,512 76,512 76,516 76,520 80,520 80,524 80,528 84,528 84,532 84,536 88,536 88,540 88,544 92,544 92,548 92,552 96,552 96,556 
	96,560 100,560 100,564 100,568 104,568 104,572 104,576 108,576 108,580 108,584 108,588 112,588 112,592 112,596 116,596 116,600 
	116,604 120,604 120,608 120,612 124,612 124,616 124,620 128,620 128,624 128,628 132,628 132,632 132,636 136,636 136,640 
	136,644 140,644 140,648 140,652 144,652 144,656 144,660 148,660 148,664 148,668 152,668 152,672 152,676 156,676 156,680 
	156,684 160,684 160,688 160,692 164,692 164,696 164,700 168,700 168,704 168,708 172,708 172,712 172,716 176,716 176,720 
	176,724 180,724 180,728 180,732 184,732 184,736 184,740 188,740 188,744 188,748 192,748 192,752 192,756 196,756 196,760 
	196,764 200,764 200,768 200,772 204,772 204,776 204,780 208,780 208,784 208,788 212,788 212,792 216,792 216,796 216,800 
	220,800 220,804 220,808 224,808 224,812 304,812 304,808 "/>
<polygon class="st60" points="180.1,808 180.1,804 180.1,800 176,800 176,796 176,792 172,792 172,788 168,788 168,784 168,780 
	164,780 164,776 164,772 160,772 160,768 160,764 156,764 156,760 156,756 152,756 152,752 152,748 148,748 148,744 148,740 
	144,740 144,736 144,732 140,732 140,728 140,724 136,724 136,720 136,716 132,716 132,712 132,708 128,708 128,704 128,700 
	124,700 124,696 124,692 120,692 120,688 120,684 116,684 116,680 116,676 112,676 112,672 112,668 108,668 108,664 108,660 
	104,660 104,656 104,652 100,652 100,648 100,644 96,644 96,640 96,636 92,636 92,632 92,628 88,628 88,624 88,620 84,620 84,616 
	84,612 80,612 80,608 80,604 76,604 76,600 76,596 72,596 72,592 72,588 72,584 68,584 68,580 68,576 64,576 64,572 64,568 60,568 
	60,564 60,560 56,560 56,556 56,552 52,552 52,548 52,544 48,544 48,540 48,536 44,536 44,532 44,528 40,528 40,524 40,520 36,520 
	36,516 36,512 32,512 32,508 32,504 28,504 28,500 28,496 24,496 24,492 24,488 20,488 20,484 20,480 16,480 16,476 16,472 12,472 
	12,468 12,464 8,464 8,460 8,456 4,456 4,452 4,448 0,448 0,452 0,456 0,460 0,464 0,468 0,472 0,476 0,480 0,484 0,488 0,492 
	0,496 0,500 0,504 0,508 0,512 0,516 0,520 0,524 0,528 0,532 0,536 0,540 0,544 0,548 0,552 4,552 4,556 8,556 8,560 8,564 12,564 
	12,568 12,572 16,572 16,576 16,580 20,580 20,584 20,588 24,588 24,592 24,596 28,596 28,600 28,604 32,604 32,608 32,612 36,612 
	36,616 36,620 40,620 40,624 40,628 44,628 44,632 44,636 48,636 48,640 48,644 52,644 52,648 52,652 56,652 56,656 56,660 60,660 
	60,664 60,668 64,668 64,672 64,676 68,676 68,680 68,684 72,684 72,688 72,692 76,692 76,696 76,700 80,700 80,704 80,708 84,708 
	84,712 84,716 88,716 88,720 88,724 92,724 92,728 92,732 96,732 96,736 96,740 100,740 100,744 100,748 104,748 104,752 104,756 
	108,756 108,760 108,764 112,764 112,768 112,772 116,772 116,776 116,780 120,780 120,784 120,788 124,788 124.1,788 124.1,792 
	128.1,792 128.1,796 128.1,800 132.1,800 132.1,804 132.1,808 136.1,808 136.1,812 184.1,812 184.1,808 "/>
<polygon class="st62" points="220,808 220,804 220,800 216,800 216,796 216,792 212,792 212,788 208,788 208,784 208,780 204,780 
	204,776 204,772 200,772 200,768 200,764 196,764 196,760 196,756 192,756 192,752 192,748 188,748 188,744 188,740 184,740 
	184,736 184,732 180,732 180,728 180,724 176,724 176,720 176,716 172,716 172,712 172,708 168,708 168,704 168,700 164,700 
	164,696 164,692 160,692 160,688 160,684 156,684 156,680 156,676 152,676 152,672 152,668 148,668 148,664 148,660 144,660 
	144,656 144,652 140,652 140,648 140,644 136,644 136,640 136,636 132,636 132,632 132,628 128,628 128,624 128,620 124,620 
	124,616 124,612 120,612 120,608 120,604 116,604 116,600 116,596 112,596 112,592 112,588 108,588 108,584 108,580 108,576 
	104,576 104,572 104,568 100,568 100,564 100,560 96,560 96,556 96,552 92,552 92,548 92,544 88,544 88,540 88,536 84,536 84,532 
	84,528 80,528 80,524 80,520 76,520 76,516 76,512 72,512 72,508 72,504 68,504 68,500 68,496 64,496 64,492 64,488 60,488 60,484 
	60,480 56,480 56,476 56,472 52,472 52,468 52,464 48,464 48,460 48,456 44,456 44,452 44,448 40,448 40,444 40,440 36,440 36,436 
	36,432 32,432 32,428 32,424 28,424 28,420 28,416 24,416 24,412 24,408 20,408 20,404 20,400 16,400 16,396 16,392 12,392 12,388 
	12,384 8,384 8,380 8,376 4,376 4,372 4,368 0,368 0,372 0,376 0,380 0,384 0,388 0,392 0,396 0,400 0,404 0,408 0,412 0,416 0,420 
	0,424 0,428 0,432 0,436 0,440 0,444 0,448 4,448 4,452 4,456 8,456 8,460 8,464 12,464 12,468 12,472 16,472 16,476 16,480 20,480 
	20,484 20,488 24,488 24,492 24,496 28,496 28,500 28,504 32,504 32,508 32,512 36,512 36,516 36,520 40,520 40,524 40,528 44,528 
	44,532 44,536 48,536 48,540 48,544 52,544 52,548 52,552 56,552 56,556 56,560 60,560 60,564 60,568 64,568 64,572 64,576 68,576 
	68,580 68,584 72,584 72,588 72,592 72,596 76,596 76,600 76,604 80,604 80,608 80,612 84,612 84,616 84,620 88,620 88,624 88,628 
	92,628 92,632 92,636 96,636 96,640 96,644 100,644 100,648 100,652 104,652 104,656 104,660 108,660 108,664 108,668 112,668 
	112,672 112,676 116,676 116,680 116,684 120,684 120,688 120,692 124,692 124,696 124,700 128,700 128,704 128,708 132,708 
	132,712 132,716 136,716 136,720 136,724 140,724 140,728 140,732 144,732 144,736 144,740 148,740 148,744 148,748 152,748 
	152,752 152,756 156,756 156,760 156,764 160,764 160,768 160,772 164,772 164,776 164,780 168,780 168,784 168,788 172,788 
	172,792 176,792 176,796 176,800 180.1,800 180.1,804 180.1,808 184.1,808 184.1,812 224,812 224,808 "/>
</svg>
