<?xml version="1.0" encoding="utf-8"?>
<!-- Generator: Adobe Illustrator 24.2.0, SVG Export Plug-In . SVG Version: 6.00 Build 0)  -->
<svg version="1.1" id="圖層_1" shape-rendering="crispEdges"
	 xmlns="http://www.w3.org/2000/svg" xmlns:xlink="http://www.w3.org/1999/xlink" x="0px" y="0px" viewBox="0 0 56 56"
	 style="enable-background:new 0 0 56 56;" xml:space="preserve">
<style type="text/css">
	.st0{fill:#035E55;}
	.st1{fill:#009A6C;}
	.st2{fill:#05FFB5;}
	.st3{fill:#17CE98;}
	.st4{opacity:0.1176;fill:#011E1B;enable-background:new    ;}
</style>
<g>
</g>
<g>
</g>
<g>
	<polygon class="st2" points="32,12 28,12 24,12 20,12 16,12 12,12 8,12 4,12 0,12 0,16 4,16 8,16 12,16 16,16 20,16 24,16 28,16 
		32,16 36,16 36,12 	"/>
	<polygon class="st2" points="44,16 40,16 36,16 36,20 40,20 44,20 48,20 48,16 	"/>
	<rect x="48" y="20" class="st2" width="4" height="4"/>
	<rect x="52" y="24" class="st2" width="4" height="4"/>
	<polygon class="st2" points="28,52 28,48 24,48 24,52 24,56 28,56 	"/>
</g>
<g>
</g>
<g>
	<polygon class="st4" points="48,0 44,0 40,0 36,0 32,0 28,0 24,0 20,0 16,0 12,0 8,0 4,0 0,0 0,4 0,8 0,12 4,12 8,12 12,12 16,12 
		20,12 24,12 28,12 32,12 36,12 36,16 40,16 44,16 48,16 48,20 52,20 52,24 56,24 56,20 56,16 56,12 56,8 56,4 56,0 52,0 	"/>
	<polygon class="st4" points="48,20 44,20 40,20 36,20 36,16 32,16 28,16 24,16 20,16 16,16 12,16 8,16 4,16 0,16 0,20 0,24 0,28 
		0,32 0,36 0,40 0,44 0,48 0,52 0,56 4,56 8,56 12,56 16,56 20,56 24,56 24,52 24,48 28,48 28,52 28,56 32,56 36,56 40,56 44,56 
		48,56 52,56 56,56 56,52 56,48 56,44 56,40 56,36 56,32 56,28 52,28 52,24 48,24 	"/>
</g>
</svg>
