<?xml version="1.0" encoding="utf-8"?>
<!-- Generator: Adobe Illustrator 24.2.0, SVG Export Plug-In . SVG Version: 6.00 Build 0)  -->
<svg version="1.1" id="圖層_1" shape-rendering="crispEdges"
	 xmlns="http://www.w3.org/2000/svg" xmlns:xlink="http://www.w3.org/1999/xlink" x="0px" y="0px" viewBox="0 0 112 68"
	 style="enable-background:new 0 0 112 68;" xml:space="preserve">
<style type="text/css">
	.st0{fill:#01312C;}
	.st1{fill:#035E55;}
	.st2{fill:#B8545D;}
	.st3{fill:#5BBDD2;}
	.st4{fill:#011E1B;}
</style>
<g>
	<polygon class="st0" points="68,24 64,24 60,24 56,24 56,28 60,28 64,28 64,32 68,32 68,28 72,28 72,24 	"/>
	<polygon class="st0" points="88,28 84,28 84,24 88,24 88,20 84,20 80,20 80,24 80,28 76,28 72,28 72,32 76,32 80,32 80,36 84,36 
		84,32 88,32 92,32 92,28 	"/>
	<rect x="60" y="32" class="st0" width="4" height="4"/>
</g>
<g>
	<rect x="60" y="20" class="st1" width="8" height="4"/>
	<rect x="76" y="24" class="st1" width="4" height="4"/>
	<polygon class="st1" points="92,28 92,24 88,24 84,24 84,28 88,28 	"/>
	<polygon class="st1" points="60,28 56,28 56,32 52,32 52,36 56,36 60,36 60,32 64,32 64,28 	"/>
	<polygon class="st1" points="72,32 72,28 68,28 68,32 64,32 64,36 68,36 72,36 76,36 80,36 80,32 76,32 	"/>
	<polygon class="st1" points="92,32 88,32 84,32 84,36 88,36 92,36 96,36 96,32 	"/>
</g>
<g>
	<path class="st2" d="M80,8V4h-4h-4h-4v4h-4v4v4v4h4v4h4v4h4v-4h4v-4h4v-4v-4V8H80z M76,16h-4v-4h4V16z"/>
</g>
<g>
	<polygon class="st3" points="60,52 56,52 56,56 60,56 60,60 60,64 64,64 64,60 64,56 64,52 64,48 60,48 	"/>
	<rect x="76" y="48" class="st3" width="4" height="4"/>
	<polygon class="st3" points="48,52 48,48 44,48 44,52 44,56 44,60 44,64 48,64 48,60 48,56 52,56 52,52 	"/>
	<polygon class="st3" points="84,52 80,52 80,56 76,56 76,52 72,52 72,56 68,56 68,60 68,64 72,64 72,60 76,60 80,60 84,60 84,64 
		88,64 88,60 88,56 84,56 	"/>
	<rect x="104" y="52" class="st3" width="4" height="4"/>
	<rect x="52" y="56" class="st3" width="4" height="4"/>
	<polygon class="st3" points="96,56 96,52 100,52 104,52 104,48 100,48 96,48 92,48 92,52 92,56 92,60 92,64 96,64 96,60 100,60 
		104,60 104,56 100,56 	"/>
</g>
<g>
	<polygon class="st4" points="76,4 80,4 80,0 76,0 72,0 68,0 68,4 72,4 	"/>
	<rect x="64" y="4" class="st4" width="4" height="4"/>
	<rect x="80" y="4" class="st4" width="4" height="4"/>
	<polygon class="st4" points="84,16 84,20 88,20 88,24 92,24 92,20 92,16 88,16 88,12 88,8 84,8 84,12 	"/>
	<polygon class="st4" points="60,20 64,20 64,16 64,12 64,8 60,8 60,12 60,16 56,16 56,20 56,24 60,24 	"/>
	<polygon class="st4" points="56,28 56,24 52,24 52,28 52,32 56,32 	"/>
	<polygon class="st4" points="92,32 96,32 96,28 96,24 92,24 92,28 	"/>
	<polygon class="st4" points="56,40 60,40 64,40 68,40 72,40 76,40 80,40 84,40 88,40 92,40 96,40 100,40 100,36 100,32 96,32 
		96,36 92,36 88,36 84,36 80,36 76,36 72,36 68,36 64,36 60,36 56,36 52,36 52,32 48,32 48,36 48,40 52,40 	"/>
	<path class="st4" d="M108,48v-4h-4h-4h-4h-4h-4v4h-4v-4h-4h-4h-4v4h-4v-4h-4h-4h-4v4h-4v-4h-4h-4h-4v4v4v4v4v4v4h4h4h4v-4h4v4h4h4
		h4h4h4v-4h4v4h4h4h4h4h4v-4h4h4v-4h4v-4v-4v-4H108z M60,64v-4v-4h-4v4h-4v-4h-4v4v4h-4v-4v-4v-4v-4h4v4h4v4h4v-4h4v-4h4v4v4v4v4H60
		z M84,64v-4h-4h-4h-4v4h-4v-4v-4h4v-4h4v-4h4v4h4v4h4v4v4H84z M108,56h-4v4h-4h-4v4h-4v-4v-4v-4v-4h4h4h4v4h4V56z"/>
	<rect x="76" y="52" class="st4" width="4" height="4"/>
	<polygon class="st4" points="100,52 96,52 96,56 100,56 104,56 104,52 	"/>
</g>
</svg>
