<?xml version="1.0" encoding="UTF-8" ?>
<svg version="1.1" width="140" height="160" xmlns="http://www.w3.org/2000/svg" shape-rendering="crispEdges">
<rect x="108" y="0" width="4" height="4" fill="#694D3F" />
<rect x="104" y="4" width="4" height="4" fill="#694D3F" />
<rect x="100" y="8" width="4" height="4" fill="#694D3F" />
<rect x="76" y="12" width="4" height="4" fill="#D6C8BA" />
<rect x="96" y="12" width="4" height="4" fill="#694D3F" />
<rect x="76" y="16" width="4" height="4" fill="#8B6A5A" />
<rect x="84" y="16" width="4" height="4" fill="#8B6A5A" />
<rect x="96" y="16" width="4" height="4" fill="#8B6A5A" />
<rect x="84" y="20" width="4" height="4" fill="#4F392F" />
<rect x="92" y="20" width="4" height="4" fill="#D6C8BA" />
<rect x="80" y="24" width="4" height="4" fill="#4F392F" />
<rect x="84" y="24" width="4" height="4" fill="#4F392F" />
<rect x="88" y="24" width="4" height="4" fill="#D6C8BA" />
<rect x="84" y="28" width="4" height="4" fill="#4F392F" />
<rect x="80" y="32" width="4" height="4" fill="#694D3F" />
<rect x="84" y="32" width="4" height="4" fill="#8B6A5A" />
<rect x="76" y="36" width="4" height="4" fill="#694D3F" />
<rect x="88" y="36" width="4" height="4" fill="#D6C8BA" />
<rect x="72" y="40" width="4" height="4" fill="#694D3F" />
<rect x="88" y="40" width="4" height="4" fill="#D6C8BA" />
<rect x="68" y="44" width="4" height="4" fill="#8B6A5A" />
<rect x="80" y="44" width="4" height="4" fill="#694D3F" />
<rect x="88" y="44" width="4" height="4" fill="#4F392F" />
<rect x="64" y="48" width="4" height="4" fill="#8B6A5A" />
<rect x="68" y="48" width="4" height="4" fill="#694D3F" />
<rect x="84" y="48" width="4" height="4" fill="#694D3F" />
<rect x="88" y="48" width="4" height="4" fill="#4F392F" />
<rect x="60" y="52" width="4" height="4" fill="#4F392F" />
<rect x="64" y="52" width="4" height="4" fill="#694D3F" />
<rect x="76" y="52" width="4" height="4" fill="#694D3F" />
<rect x="80" y="52" width="4" height="4" fill="#4F392F" />
<rect x="88" y="52" width="4" height="4" fill="#4F392F" />
<rect x="56" y="56" width="4" height="4" fill="#694D3F" />
<rect x="60" y="56" width="4" height="4" fill="#694D3F" />
<rect x="76" y="56" width="4" height="4" fill="#8B6A5A" />
<rect x="80" y="56" width="4" height="4" fill="#694D3F" />
<rect x="92" y="56" width="4" height="4" fill="#D6C8BA" />
<rect x="52" y="60" width="4" height="4" fill="#694D3F" />
<rect x="56" y="60" width="4" height="4" fill="#4F392F" />
<rect x="76" y="60" width="4" height="4" fill="#8B6A5A" />
<rect x="92" y="60" width="4" height="4" fill="#C7A685" />
<rect x="48" y="64" width="4" height="4" fill="#694D3F" />
<rect x="52" y="64" width="4" height="4" fill="#4F392F" />
<rect x="92" y="64" width="4" height="4" fill="#D6C8BA" />
<rect x="48" y="68" width="4" height="4" fill="#4F392F" />
<rect x="76" y="68" width="4" height="4" fill="#8B6A5A" />
<rect x="88" y="68" width="4" height="4" fill="#8B6A5A" />
<rect x="92" y="68" width="4" height="4" fill="#D6C8BA" />
<rect x="48" y="72" width="4" height="4" fill="#694D3F" />
<rect x="76" y="72" width="4" height="4" fill="#8B6A5A" />
<rect x="92" y="72" width="4" height="4" fill="#D6C8BA" />
<rect x="44" y="76" width="4" height="4" fill="#694D3F" />
<rect x="48" y="76" width="4" height="4" fill="#4F392F" />
<rect x="76" y="76" width="4" height="4" fill="#8B6A5A" />
<rect x="92" y="76" width="4" height="4" fill="#8B6A5A" />
<rect x="44" y="80" width="4" height="4" fill="#4F392F" />
<rect x="76" y="80" width="4" height="4" fill="#8B6A5A" />
<rect x="92" y="80" width="4" height="4" fill="#4F392F" />
<rect x="96" y="80" width="4" height="4" fill="#C7A685" />
<rect x="40" y="84" width="4" height="4" fill="#694D3F" />
<rect x="92" y="84" width="4" height="4" fill="#4F392F" />
<rect x="96" y="84" width="4" height="4" fill="#8B6A5A" />
<rect x="36" y="88" width="4" height="4" fill="#694D3F" />
<rect x="76" y="88" width="4" height="4" fill="#8B6A5A" />
<rect x="96" y="88" width="4" height="4" fill="#C7A685" />
<rect x="100" y="88" width="4" height="4" fill="#D6C8BA" />
<rect x="32" y="92" width="4" height="4" fill="#694D3F" />
<rect x="76" y="92" width="4" height="4" fill="#8B6A5A" />
<rect x="96" y="92" width="4" height="4" fill="#C7A685" />
<rect x="104" y="92" width="4" height="4" fill="#D6C8BA" />
<rect x="28" y="96" width="4" height="4" fill="#694D3F" />
<rect x="76" y="96" width="4" height="4" fill="#8B6A5A" />
<rect x="96" y="96" width="4" height="4" fill="#4F392F" />
<rect x="104" y="96" width="4" height="4" fill="#8B6A5A" />
<rect x="24" y="100" width="4" height="4" fill="#694D3F" />
<rect x="76" y="100" width="4" height="4" fill="#8B6A5A" />
<rect x="96" y="100" width="4" height="4" fill="#4F392F" />
<rect x="108" y="100" width="4" height="4" fill="#8B6A5A" />
<rect x="20" y="104" width="4" height="4" fill="#694D3F" />
<rect x="76" y="104" width="4" height="4" fill="#8B6A5A" />
<rect x="96" y="104" width="4" height="4" fill="#8B6A5A" />
<rect x="112" y="104" width="4" height="4" fill="#8B6A5A" />
<rect x="116" y="104" width="4" height="4" fill="#C7A685" />
<rect x="16" y="108" width="4" height="4" fill="#694D3F" />
<rect x="96" y="108" width="4" height="4" fill="#8B6A5A" />
<rect x="120" y="108" width="4" height="4" fill="#C7A685" />
<rect x="16" y="112" width="4" height="4" fill="#694D3F" />
<rect x="68" y="112" width="4" height="4" fill="#F0CDAA" />
<rect x="72" y="112" width="4" height="4" fill="#F0CDAA" />
<rect x="76" y="112" width="4" height="4" fill="#8B6A5A" />
<rect x="80" y="112" width="4" height="4" fill="#F0CDAA" />
<rect x="84" y="112" width="4" height="4" fill="#F0CDAA" />
<rect x="88" y="112" width="4" height="4" fill="#F0CDAA" />
<rect x="92" y="112" width="4" height="4" fill="#F0CDAA" />
<rect x="96" y="112" width="4" height="4" fill="#8B6A5A" />
<rect x="120" y="112" width="4" height="4" fill="#8B6A5A" />
<rect x="124" y="112" width="4" height="4" fill="#D6C8BA" />
<rect x="16" y="116" width="4" height="4" fill="#694D3F" />
<rect x="52" y="116" width="4" height="4" fill="#F0CDAA" />
<rect x="56" y="116" width="4" height="4" fill="#4F392F" />
<rect x="60" y="116" width="4" height="4" fill="#4F392F" />
<rect x="64" y="116" width="4" height="4" fill="#4F392F" />
<rect x="68" y="116" width="4" height="4" fill="#4F392F" />
<rect x="72" y="116" width="4" height="4" fill="#4F392F" />
<rect x="76" y="116" width="4" height="4" fill="#8B6A5A" />
<rect x="80" y="116" width="4" height="4" fill="#4F392F" />
<rect x="84" y="116" width="4" height="4" fill="#4F392F" />
<rect x="88" y="116" width="4" height="4" fill="#4F392F" />
<rect x="92" y="116" width="4" height="4" fill="#4F392F" />
<rect x="96" y="116" width="4" height="4" fill="#4F392F" />
<rect x="100" y="116" width="4" height="4" fill="#D6C8BA" />
<rect x="104" y="116" width="4" height="4" fill="#4F392F" />
<rect x="108" y="116" width="4" height="4" fill="#4F392F" />
<rect x="112" y="116" width="4" height="4" fill="#F0CDAA" />
<rect x="116" y="116" width="4" height="4" fill="#F0CDAA" />
<rect x="124" y="116" width="4" height="4" fill="#8B6A5A" />
<rect x="12" y="120" width="4" height="4" fill="#694D3F" />
<rect x="16" y="120" width="4" height="4" fill="#8B6A5A" />
<rect x="48" y="120" width="4" height="4" fill="#694D3F" />
<rect x="52" y="120" width="4" height="4" fill="#694D3F" />
<rect x="56" y="120" width="4" height="4" fill="#F0CDAA" />
<rect x="60" y="120" width="4" height="4" fill="#694D3F" />
<rect x="64" y="120" width="4" height="4" fill="#694D3F" />
<rect x="68" y="120" width="4" height="4" fill="#4F392F" />
<rect x="72" y="120" width="4" height="4" fill="#694D3F" />
<rect x="76" y="120" width="4" height="4" fill="#8B6A5A" />
<rect x="80" y="120" width="4" height="4" fill="#694D3F" />
<rect x="84" y="120" width="4" height="4" fill="#4F392F" />
<rect x="88" y="120" width="4" height="4" fill="#694D3F" />
<rect x="92" y="120" width="4" height="4" fill="#694D3F" />
<rect x="96" y="120" width="4" height="4" fill="#694D3F" />
<rect x="100" y="120" width="4" height="4" fill="#4F392F" />
<rect x="104" y="120" width="4" height="4" fill="#694D3F" />
<rect x="108" y="120" width="4" height="4" fill="#694D3F" />
<rect x="112" y="120" width="4" height="4" fill="#4F392F" />
<rect x="116" y="120" width="4" height="4" fill="#F0CDAA" />
<rect x="128" y="120" width="4" height="4" fill="#8B6A5A" />
<rect x="8" y="124" width="4" height="4" fill="#694D3F" />
<rect x="12" y="124" width="4" height="4" fill="#694D3F" />
<rect x="48" y="124" width="4" height="4" fill="#8B6A5A" />
<rect x="52" y="124" width="4" height="4" fill="#8B6A5A" />
<rect x="56" y="124" width="4" height="4" fill="#694D3F" />
<rect x="60" y="124" width="4" height="4" fill="#C7A685" />
<rect x="64" y="124" width="4" height="4" fill="#C7A685" />
<rect x="68" y="124" width="4" height="4" fill="#F0CDAA" />
<rect x="72" y="124" width="4" height="4" fill="#F0CDAA" />
<rect x="76" y="124" width="4" height="4" fill="#F0CDAA" />
<rect x="80" y="124" width="4" height="4" fill="#F0CDAA" />
<rect x="84" y="124" width="4" height="4" fill="#F0CDAA" />
<rect x="88" y="124" width="4" height="4" fill="#F0CDAA" />
<rect x="92" y="124" width="4" height="4" fill="#F0CDAA" />
<rect x="96" y="124" width="4" height="4" fill="#F0CDAA" />
<rect x="100" y="124" width="4" height="4" fill="#4F392F" />
<rect x="104" y="124" width="4" height="4" fill="#F0CDAA" />
<rect x="108" y="124" width="4" height="4" fill="#F0CDAA" />
<rect x="112" y="124" width="4" height="4" fill="#F0CDAA" />
<rect x="116" y="124" width="4" height="4" fill="#C7A685" />
<rect x="132" y="124" width="4" height="4" fill="#8B6A5A" />
<rect x="8" y="128" width="4" height="4" fill="#694D3F" />
<rect x="48" y="128" width="4" height="4" fill="#8B6A5A" />
<rect x="52" y="128" width="4" height="4" fill="#8B6A5A" />
<rect x="56" y="128" width="4" height="4" fill="#8B6A5A" />
<rect x="60" y="128" width="4" height="4" fill="#8B6A5A" />
<rect x="64" y="128" width="4" height="4" fill="#694D3F" />
<rect x="68" y="128" width="4" height="4" fill="#694D3F" />
<rect x="72" y="128" width="4" height="4" fill="#C7A685" />
<rect x="76" y="128" width="4" height="4" fill="#694D3F" />
<rect x="80" y="128" width="4" height="4" fill="#694D3F" />
<rect x="84" y="128" width="4" height="4" fill="#694D3F" />
<rect x="88" y="128" width="4" height="4" fill="#C7A685" />
<rect x="92" y="128" width="4" height="4" fill="#8B6A5A" />
<rect x="96" y="128" width="4" height="4" fill="#C7A685" />
<rect x="100" y="128" width="4" height="4" fill="#F0CDAA" />
<rect x="104" y="128" width="4" height="4" fill="#D6C8BA" />
<rect x="108" y="128" width="4" height="4" fill="#C7A685" />
<rect x="112" y="128" width="4" height="4" fill="#C7A685" />
<rect x="116" y="128" width="4" height="4" fill="#C7A685" />
<rect x="136" y="128" width="4" height="4" fill="#D6C8BA" />
<rect x="4" y="132" width="4" height="4" fill="#694D3F" />
<rect x="44" y="132" width="4" height="4" fill="#694D3F" />
<rect x="48" y="132" width="4" height="4" fill="#8B6A5A" />
<rect x="52" y="132" width="4" height="4" fill="#8B6A5A" />
<rect x="56" y="132" width="4" height="4" fill="#8B6A5A" />
<rect x="60" y="132" width="4" height="4" fill="#8B6A5A" />
<rect x="64" y="132" width="4" height="4" fill="#8B6A5A" />
<rect x="68" y="132" width="4" height="4" fill="#694D3F" />
<rect x="72" y="132" width="4" height="4" fill="#694D3F" />
<rect x="76" y="132" width="4" height="4" fill="#694D3F" />
<rect x="80" y="132" width="4" height="4" fill="#694D3F" />
<rect x="84" y="132" width="4" height="4" fill="#694D3F" />
<rect x="88" y="132" width="4" height="4" fill="#F0CDAA" />
<rect x="92" y="132" width="4" height="4" fill="#C7A685" />
<rect x="96" y="132" width="4" height="4" fill="#F0CDAA" />
<rect x="100" y="132" width="4" height="4" fill="#C7A685" />
<rect x="104" y="132" width="4" height="4" fill="#D6C8BA" />
<rect x="108" y="132" width="4" height="4" fill="#C7A685" />
<rect x="112" y="132" width="4" height="4" fill="#C7A685" />
<rect x="116" y="132" width="4" height="4" fill="#C7A685" />
<rect x="136" y="132" width="4" height="4" fill="#8B6A5A" />
<rect x="0" y="136" width="4" height="4" fill="#694D3F" />
<rect x="44" y="136" width="4" height="4" fill="#694D3F" />
<rect x="48" y="136" width="4" height="4" fill="#694D3F" />
<rect x="52" y="136" width="4" height="4" fill="#694D3F" />
<rect x="56" y="136" width="4" height="4" fill="#694D3F" />
<rect x="60" y="136" width="4" height="4" fill="#8B6A5A" />
<rect x="64" y="136" width="4" height="4" fill="#8B6A5A" />
<rect x="68" y="136" width="4" height="4" fill="#8B6A5A" />
<rect x="72" y="136" width="4" height="4" fill="#8B6A5A" />
<rect x="76" y="136" width="4" height="4" fill="#8B6A5A" />
<rect x="80" y="136" width="4" height="4" fill="#8B6A5A" />
<rect x="84" y="136" width="4" height="4" fill="#694D3F" />
<rect x="88" y="136" width="4" height="4" fill="#F0CDAA" />
<rect x="92" y="136" width="4" height="4" fill="#8B6A5A" />
<rect x="96" y="136" width="4" height="4" fill="#8B6A5A" />
<rect x="100" y="136" width="4" height="4" fill="#8B6A5A" />
<rect x="104" y="136" width="4" height="4" fill="#4F392F" />
<rect x="108" y="136" width="4" height="4" fill="#C7A685" />
<rect x="112" y="136" width="4" height="4" fill="#C7A685" />
<rect x="116" y="136" width="4" height="4" fill="#C7A685" />
<rect x="0" y="140" width="4" height="4" fill="#694D3F" />
<rect x="44" y="140" width="4" height="4" fill="#694D3F" />
<rect x="48" y="140" width="4" height="4" fill="#694D3F" />
<rect x="52" y="140" width="4" height="4" fill="#694D3F" />
<rect x="56" y="140" width="4" height="4" fill="#8B6A5A" />
<rect x="60" y="140" width="4" height="4" fill="#8B6A5A" />
<rect x="64" y="140" width="4" height="4" fill="#C7A685" />
<rect x="68" y="140" width="4" height="4" fill="#8B6A5A" />
<rect x="72" y="140" width="4" height="4" fill="#C7A685" />
<rect x="76" y="140" width="4" height="4" fill="#C7A685" />
<rect x="80" y="140" width="4" height="4" fill="#C7A685" />
<rect x="84" y="140" width="4" height="4" fill="#C7A685" />
<rect x="88" y="140" width="4" height="4" fill="#C7A685" />
<rect x="92" y="140" width="4" height="4" fill="#C7A685" />
<rect x="96" y="140" width="4" height="4" fill="#C7A685" />
<rect x="100" y="140" width="4" height="4" fill="#F0CDAA" />
<rect x="104" y="140" width="4" height="4" fill="#C7A685" />
<rect x="108" y="140" width="4" height="4" fill="#C7A685" />
<rect x="48" y="144" width="4" height="4" fill="#8B6A5A" />
<rect x="52" y="144" width="4" height="4" fill="#694D3F" />
<rect x="56" y="144" width="4" height="4" fill="#8B6A5A" />
<rect x="60" y="144" width="4" height="4" fill="#8B6A5A" />
<rect x="64" y="144" width="4" height="4" fill="#8B6A5A" />
<rect x="68" y="144" width="4" height="4" fill="#8B6A5A" />
<rect x="72" y="144" width="4" height="4" fill="#8B6A5A" />
<rect x="76" y="144" width="4" height="4" fill="#8B6A5A" />
<rect x="108" y="144" width="4" height="4" fill="#C7A685" />
<rect x="48" y="148" width="4" height="4" fill="#694D3F" />
<rect x="52" y="148" width="4" height="4" fill="#694D3F" />
<rect x="56" y="148" width="4" height="4" fill="#694D3F" />
<rect x="108" y="148" width="4" height="4" fill="#4F392F" />
<rect x="112" y="152" width="4" height="4" fill="#C7A685" />
<rect x="112" y="156" width="4" height="4" fill="#4F392F" />
</svg>