<?xml version="1.0" encoding="utf-8"?>
<!-- Generator: Adobe Illustrator 24.2.0, SVG Export Plug-In . SVG Version: 6.00 Build 0)  -->
<svg version="1.1" id="圖層_1" shape-rendering="crispEdges"
	 xmlns="http://www.w3.org/2000/svg" xmlns:xlink="http://www.w3.org/1999/xlink" x="0px" y="0px" viewBox="0 0 55.6 56"
	 style="enable-background:new 0 0 55.6 56;" xml:space="preserve">
<style type="text/css">
	.st0{fill:#035E55;}
	.st1{fill:#009A6C;}
	.st2{fill:#05FFB5;}
	.st3{fill:#17CE98;}
	.st4{opacity:0.1176;fill:#011E1B;enable-background:new    ;}
</style>
<g>
</g>
<g>
</g>
<g>
</g>
<g>
	<polygon class="st3" points="7.6,4 7.6,8 11.6,8 11.6,4 11.6,0 7.6,0 	"/>
</g>
<g>
	<polygon class="st4" points="47.6,0 43.6,0 39.6,0 35.6,0 31.6,0 27.6,0 23.6,0 19.6,0 15.6,0 11.6,0 11.6,4 11.6,8 7.6,8 7.6,4 
		7.6,0 3.6,0 -0.4,0 -0.4,4 -0.4,8 -0.4,12 -0.4,16 -0.4,20 -0.4,24 -0.4,28 -0.4,32 -0.4,36 -0.4,40 -0.4,44 -0.4,48 -0.4,52 
		-0.4,56 3.6,56 7.6,56 11.6,56 15.6,56 19.6,56 23.6,56 27.6,56 31.6,56 35.6,56 39.6,56 43.6,56 47.6,56 51.6,56 55.6,56 55.6,52 
		55.6,48 55.6,44 55.6,40 55.6,36 55.6,32 55.6,28 55.6,24 55.6,20 55.6,16 55.6,12 55.6,8 55.6,4 55.6,0 51.6,0 	"/>
</g>
</svg>
