<?xml version="1.0" encoding="utf-8"?>
<!-- Generator: Adobe Illustrator 24.2.0, SVG Export Plug-In . SVG Version: 6.00 Build 0)  -->
<svg version="1.1" id="圖層_1" shape-rendering="crispEdges"
	 xmlns="http://www.w3.org/2000/svg" xmlns:xlink="http://www.w3.org/1999/xlink" x="0px" y="0px" viewBox="0 0 80 76"
	 style="enable-background:new 0 0 80 76;" xml:space="preserve">
<style type="text/css">
	.st0{fill:#758CA9;}
	.st1{fill:#45566D;}
	.st2{fill:#344152;}
	.st3{fill:#2B3747;}
</style>
<polygon class="st0" points="68,8 68,4 64,4 60,4 56,4 52,4 48,4 44,4 40,4 36,4 32,4 28,4 24,4 20,4 16,4 12,4 12,8 8,8 8,12 8,16 
	8,20 8,24 8,28 8,32 8,36 8,40 8,44 8,48 8,52 8,56 8,60 12,60 12,64 16,64 20,64 24,64 28,64 32,64 36,64 40,64 44,64 48,64 52,64 
	56,64 60,64 64,64 68,64 68,60 72,60 72,56 72,52 72,48 72,44 72,40 72,36 72,32 72,28 72,24 72,20 72,16 72,12 72,8 "/>
<g>
	<polygon class="st1" points="4,16 4,20 4,24 4,28 4,32 4,36 4,40 4,44 4,48 4,52 4,56 4,60 4,64 4,68 8,68 8,64 8,60 8,56 8,52 
		8,48 8,44 8,40 8,36 8,32 8,28 8,24 8,20 8,16 8,12 4,12 	"/>
	<polygon class="st1" points="72,16 72,20 72,24 72,28 72,32 72,36 72,40 72,44 72,48 72,52 72,56 72,60 68,60 68,64 72,64 72,68 
		76,68 76,64 76,60 76,56 76,52 76,48 76,44 76,40 76,36 76,32 76,28 76,24 76,20 76,16 	"/>
</g>
<polygon class="st2" points="72,68 72,64 68,64 64,64 60,64 56,64 52,64 48,64 44,64 40,64 36,64 32,64 28,64 24,64 20,64 16,64 
	12,64 12,60 8,60 8,64 8,68 4,68 4,72 8,72 12,72 16,72 20,72 24,72 28,72 32,72 36,72 40,72 44,72 48,72 52,72 56,72 60,72 64,72 
	68,72 72,72 76,72 76,68 "/>
<g>
	<polygon class="st3" points="76,24 76,28 76,32 76,36 76,40 76,44 76,48 76,52 76,56 76,60 76,64 76,68 76,72 80,72 80,68 80,64 
		80,60 80,56 80,52 80,48 80,44 80,40 80,36 80,32 80,28 80,24 	"/>
	<polygon class="st3" points="4,64 4,60 4,56 4,52 4,48 4,44 4,40 4,36 4,32 4,28 4,24 4,20 0,20 0,24 0,28 0,32 0,36 0,40 0,44 
		0,48 0,52 0,56 0,60 0,64 0,68 0,72 4,72 4,68 	"/>
	<polygon class="st3" points="68,72 64,72 60,72 56,72 52,72 48,72 44,72 40,72 36,72 32,72 28,72 24,72 20,72 16,72 12,72 8,72 
		4,72 4,76 8,76 12,76 16,76 20,76 24,76 28,76 32,76 36,76 40,76 44,76 48,76 52,76 56,76 60,76 64,76 68,76 72,76 76,76 76,72 
		72,72 	"/>
</g>
</svg>
