<?xml version="1.0" encoding="utf-8"?>
<!-- Generator: Adobe Illustrator 24.2.0, SVG Export Plug-In . SVG Version: 6.00 Build 0)  -->
<svg version="1.1" id="圖層_1" shape-rendering="crispEdges"
	 xmlns="http://www.w3.org/2000/svg" xmlns:xlink="http://www.w3.org/1999/xlink" x="0px" y="0px" viewBox="0 0 380 244"
	 style="enable-background:new 0 0 380 244;" xml:space="preserve">
<style type="text/css">
	.st0{fill:#A88F1E;}
	.st1{fill:#FFF9BB;}
	.st2{fill:#FFE25B;}
	.st3{fill:#DBBA25;}
</style>
<g>
	<polygon class="st0" points="252,44 252,40 248,40 248,44 248,48 252,48 256,48 256,44 	"/>
	<rect x="256" y="48" class="st0" width="4" height="4"/>
	<rect x="260" y="52" class="st0" width="4" height="4"/>
	<rect x="288" y="72" class="st0" width="4" height="4"/>
	<polygon class="st0" points="284,80 284,76 284,72 280,72 280,68 276,68 276,64 272,64 272,60 268,60 268,56 264,56 264,60 260,60 
		260,64 264,64 264,68 268,68 272,68 272,72 268,72 268,76 272,76 276,76 280,76 280,80 	"/>
	<polygon class="st0" points="300,80 300,76 296,76 292,76 292,80 288,80 288,84 284,84 284,88 288,88 292,88 292,92 296,92 300,92 
		300,88 304,88 304,84 304,80 	"/>
	<rect x="84" y="160" class="st0" width="4" height="4"/>
	<polygon class="st0" points="132,180 128,180 128,184 124,184 124,180 124,176 120,176 120,172 120,168 116,168 112,168 108,168 
		104,168 100,168 100,164 96,164 92,164 88,164 88,168 92,168 92,172 96,172 100,172 100,176 104,176 108,176 112,176 112,180 
		112,184 116,184 120,184 120,188 124,188 128,188 132,188 132,184 136,184 136,180 136,176 132,176 	"/>
</g>
<g>
	<polygon class="st1" points="188,0 184,0 180,0 176,0 172,0 168,0 164,0 160,0 156,0 152,0 148,0 144,0 140,0 140,4 144,4 148,4 
		152,4 156,4 160,4 164,4 168,4 172,4 176,4 180,4 184,4 188,4 192,4 192,0 	"/>
	<polygon class="st1" points="200,4 196,4 192,4 192,8 196,8 200,8 204,8 204,4 	"/>
	<rect x="204" y="8" class="st1" width="4" height="4"/>
	<polygon class="st1" points="172,16 176,16 180,16 184,16 188,16 192,16 196,16 200,16 200,12 196,12 192,12 188,12 184,12 180,12 
		176,12 172,12 168,12 164,12 160,12 160,16 164,16 168,16 	"/>
	<polygon class="st1" points="152,16 148,16 148,20 152,20 156,20 160,20 160,16 156,16 	"/>
	<polygon class="st1" points="116,24 116,20 112,20 108,20 108,24 112,24 	"/>
	<polygon class="st1" points="140,20 136,20 136,24 140,24 144,24 148,24 148,20 144,20 	"/>
	<rect x="104" y="24" class="st1" width="4" height="4"/>
	<polygon class="st1" points="128,24 124,24 124,28 128,28 132,28 136,28 136,24 132,24 	"/>
	<rect x="72" y="28" class="st1" width="4" height="4"/>
	<rect x="100" y="28" class="st1" width="4" height="4"/>
	<polygon class="st1" points="80,36 84,36 88,36 92,36 96,36 100,36 100,32 96,32 92,32 88,32 84,32 80,32 76,32 76,36 	"/>
	<polygon class="st1" points="152,32 148,32 148,36 152,36 156,36 160,36 160,32 156,32 	"/>
	<rect x="144" y="36" class="st1" width="4" height="4"/>
	<polygon class="st1" points="136,40 136,44 140,44 144,44 144,40 140,40 	"/>
	<rect x="64" y="68" class="st1" width="4" height="4"/>
	<polygon class="st1" points="64,76 64,72 60,72 56,72 56,76 60,76 	"/>
	<polygon class="st1" points="316,72 316,68 312,68 312,64 308,64 304,64 304,60 300,60 296,60 296,56 292,56 288,56 288,52 284,52 
		284,48 280,48 276,48 276,44 272,44 272,40 272,36 268,36 268,32 268,28 268,24 264,24 264,20 260,20 256,20 256,24 260,24 260,28 
		264,28 264,32 264,36 264,40 264,44 268,44 268,48 272,48 272,52 276,52 276,56 280,56 280,60 284,60 284,64 288,64 292,64 296,64 
		296,68 300,68 304,68 308,68 308,72 312,72 312,76 312,80 316,80 316,84 316,88 312,88 312,92 308,92 308,96 308,100 312,100 
		312,96 316,96 316,92 320,92 320,88 320,84 320,80 320,76 316,76 	"/>
	<rect x="52" y="76" class="st1" width="4" height="4"/>
	<polygon class="st1" points="92,76 92,80 96,80 100,80 100,76 96,76 	"/>
	<polygon class="st1" points="48,84 52,84 52,80 48,80 44,80 40,80 40,84 44,84 	"/>
	<rect y="84" class="st1" width="4" height="4"/>
	<polygon class="st1" points="32,84 28,84 24,84 20,84 16,84 12,84 8,84 8,88 12,88 16,88 20,88 24,88 28,88 32,88 36,88 40,88 
		40,84 36,84 	"/>
	<polygon class="st1" points="264,84 264,80 260,80 260,76 256,76 256,72 252,72 248,72 248,68 244,68 244,64 244,60 240,60 240,56 
		236,56 236,52 236,48 236,44 232,44 232,40 232,36 236,36 236,32 236,28 232,28 232,24 236,24 240,24 240,20 244,20 248,20 252,20 
		256,20 256,16 252,16 252,12 248,12 244,12 244,16 240,16 240,12 236,12 232,12 232,16 228,16 228,20 224,20 224,24 224,28 220,28 
		220,32 220,36 220,40 224,40 224,44 224,48 224,52 224,56 228,56 228,60 228,64 232,64 232,68 236,68 236,72 240,72 240,76 244,76 
		244,80 248,80 252,80 252,84 256,84 256,88 260,88 260,92 264,92 264,88 	"/>
	<rect x="200" y="88" class="st1" width="4" height="4"/>
	<rect x="196" y="92" class="st1" width="4" height="4"/>
	<polygon class="st1" points="300,100 296,100 292,100 288,100 288,96 284,96 280,96 280,92 276,92 272,92 268,92 264,92 264,96 
		268,96 272,96 276,96 276,100 280,100 284,100 284,104 288,104 292,104 296,104 300,104 304,104 308,104 308,100 304,100 	"/>
	<polygon class="st1" points="228,116 224,116 220,116 216,116 216,120 220,120 224,120 228,120 232,120 232,116 	"/>
	<rect x="232" y="120" class="st1" width="4" height="4"/>
	<polygon class="st1" points="240,128 240,124 236,124 236,128 236,132 240,132 	"/>
	<rect x="232" y="132" class="st1" width="4" height="4"/>
	<polygon class="st1" points="76,136 76,132 72,132 68,132 64,132 60,132 60,136 56,136 56,132 52,132 52,136 48,136 48,140 44,140 
		44,144 44,148 44,152 44,156 44,160 44,164 48,164 48,160 52,160 52,156 52,152 56,152 56,148 56,144 60,144 60,140 64,140 68,140 
		72,140 72,144 76,144 76,140 80,140 80,136 	"/>
	<rect x="228" y="136" class="st1" width="4" height="4"/>
	<polygon class="st1" points="104,148 100,148 96,148 96,144 92,144 88,144 88,140 84,140 80,140 80,144 80,148 84,148 88,148 
		92,148 92,152 96,152 100,152 104,152 108,152 108,148 	"/>
	<polygon class="st1" points="120,152 116,152 112,152 108,152 108,156 112,156 116,156 120,156 124,156 124,152 	"/>
	<polygon class="st1" points="132,156 128,156 124,156 124,160 128,160 132,160 	"/>
	<polygon class="st1" points="48,164 48,168 52,168 52,172 56,172 56,176 60,176 60,180 64,180 68,180 72,180 72,176 68,176 68,172 
		64,172 64,168 60,168 60,164 56,164 56,160 52,160 52,164 	"/>
	<rect x="136" y="164" class="st1" width="4" height="4"/>
	<rect x="140" y="168" class="st1" width="4" height="4"/>
	<rect x="192" y="168" class="st1" width="4" height="4"/>
	<polygon class="st1" points="144,176 144,180 144,184 144,188 148,188 148,184 148,180 148,176 148,172 144,172 	"/>
	<rect x="188" y="172" class="st1" width="4" height="4"/>
	<polygon class="st1" points="180,176 176,176 176,180 180,180 184,180 188,180 188,176 184,176 	"/>
	<polygon class="st1" points="168,180 168,184 172,184 176,184 176,180 172,180 	"/>
	<polygon class="st1" points="72,188 76,188 80,188 84,188 84,192 88,192 88,188 92,188 92,184 88,184 84,184 84,180 80,180 76,180 
		72,180 72,184 	"/>
	<rect x="140" y="188" class="st1" width="4" height="4"/>
	<polygon class="st1" points="312,188 312,192 316,192 320,192 320,188 316,188 	"/>
	<polygon class="st1" points="92,196 96,196 100,196 104,196 108,196 108,200 112,200 116,200 116,196 112,196 112,192 108,192 
		108,188 104,188 100,188 96,188 92,188 92,192 	"/>
	<rect x="136" y="192" class="st1" width="4" height="4"/>
	<polygon class="st1" points="304,192 304,196 308,196 312,196 312,192 308,192 	"/>
	<rect x="132" y="196" class="st1" width="4" height="4"/>
	<polygon class="st1" points="292,196 292,200 296,200 300,200 300,196 296,196 	"/>
	<polygon class="st1" points="284,200 280,200 280,204 284,204 288,204 292,204 292,200 288,200 	"/>
	<polygon class="st1" points="272,204 268,204 264,204 260,204 260,208 264,208 268,208 272,208 276,208 280,208 280,204 276,204 	
		"/>
	<polygon class="st1" points="252,208 248,208 244,208 240,208 240,212 244,212 248,212 252,212 256,212 260,212 260,208 256,208 	
		"/>
</g>
<g>
	<rect x="228" class="st2" width="4" height="4"/>
	<rect x="232" y="4" class="st2" width="4" height="4"/>
	<rect x="236" y="8" class="st2" width="4" height="4"/>
	<rect x="256" y="8" class="st2" width="4" height="4"/>
	<rect x="212" y="12" class="st2" width="4" height="4"/>
	<rect x="240" y="12" class="st2" width="4" height="4"/>
	<polygon class="st2" points="204,16 200,16 200,20 204,20 208,20 208,16 	"/>
	<rect x="216" y="16" class="st2" width="4" height="4"/>
	<rect x="208" y="20" class="st2" width="4" height="4"/>
	<rect x="220" y="20" class="st2" width="4" height="4"/>
	<polygon class="st2" points="212,24 212,28 216,28 220,28 220,24 216,24 	"/>
	<polygon class="st2" points="200,28 196,28 196,32 200,32 204,32 204,28 	"/>
	<polygon class="st2" points="216,36 220,36 220,32 216,32 212,32 208,32 204,32 204,36 208,36 212,36 	"/>
	<polygon class="st2" points="272,32 272,36 276,36 280,36 280,32 276,32 	"/>
	<polygon class="st2" points="220,48 220,44 216,44 212,44 212,48 216,48 	"/>
	<rect x="264" y="44" class="st2" width="4" height="4"/>
	<rect x="292" y="44" class="st2" width="4" height="4"/>
	<rect x="312" y="44" class="st2" width="4" height="4"/>
	<rect x="220" y="48" class="st2" width="4" height="4"/>
	<rect x="268" y="48" class="st2" width="4" height="4"/>
	<rect x="288" y="48" class="st2" width="4" height="4"/>
	<rect x="272" y="52" class="st2" width="4" height="4"/>
	<rect x="304" y="52" class="st2" width="4" height="4"/>
	<polygon class="st2" points="228,56 224,56 220,56 216,56 216,60 220,60 224,60 228,60 	"/>
	<rect x="300" y="56" class="st2" width="4" height="4"/>
	<polygon class="st2" points="276,64 280,64 280,68 284,68 288,68 292,68 296,68 296,64 292,64 288,64 284,64 284,60 280,60 280,56 
		276,56 276,60 	"/>
	<rect x="116" y="64" class="st2" width="4" height="4"/>
	<rect x="112" y="68" class="st2" width="4" height="4"/>
	<polygon class="st2" points="104,72 104,76 108,76 112,76 112,72 108,72 	"/>
	<rect x="232" y="72" class="st2" width="4" height="4"/>
	<polygon class="st2" points="312,72 308,72 308,68 304,68 304,72 304,76 308,76 308,80 312,80 312,76 	"/>
	<rect x="324" y="72" class="st2" width="4" height="4"/>
	<rect x="100" y="76" class="st2" width="4" height="4"/>
	<rect x="228" y="76" class="st2" width="4" height="4"/>
	<rect x="276" y="76" class="st2" width="4" height="4"/>
	<polygon class="st2" points="288,84 288,80 284,80 280,80 280,84 284,84 	"/>
	<polygon class="st2" points="312,84 308,84 308,88 308,92 312,92 312,88 316,88 316,84 316,80 312,80 	"/>
	<rect x="256" y="88" class="st2" width="4" height="4"/>
	<rect x="320" y="88" class="st2" width="4" height="4"/>
	<polygon class="st2" points="252,96 252,100 256,100 256,96 256,92 252,92 	"/>
	<path class="st2" d="M304,96h-4h-4h-4v-4h-4v-4h-4h-4v-4h-4h-4v-4h-4v-4h-4v-4h-4v-4h-4v-4v-4h-4v-4h-4v-4h-4v-4h-4v-4v-4v-4h4h4h4
		h4v4h4v4h4v-4v-4v-4v-4h-4v-4h-4v-4h-4h-4h-4h-4v4h-4h-4v4h4v4v4h-4v4v4h4v4v4v4h4v4h4v4v4h4v4h4h4v4h4v4h4v4v4v4h4h4h4h4v4h4h4v4
		h4h4h4h4h4v-4v-4h-4V96z M244,32v-4h4v4H244z M256,32h-4v-4h4V32z"/>
	<rect x="324" y="92" class="st2" width="4" height="4"/>
	<polygon class="st2" points="276,108 276,112 280,112 280,108 280,104 276,104 	"/>
	<polygon class="st2" points="300,104 296,104 296,108 296,112 300,112 300,108 	"/>
	<rect x="272" y="112" class="st2" width="4" height="4"/>
	<rect x="300" y="112" class="st2" width="4" height="4"/>
	<rect x="84" y="120" class="st2" width="4" height="4"/>
	<rect x="80" y="124" class="st2" width="4" height="4"/>
	<polygon class="st2" points="56,128 56,124 56,120 52,120 52,124 52,128 52,132 56,132 	"/>
	<rect x="76" y="128" class="st2" width="4" height="4"/>
	<rect x="100" y="128" class="st2" width="4" height="4"/>
	<polygon class="st2" points="40,132 36,132 36,136 36,140 40,140 40,136 	"/>
	<rect x="56" y="132" class="st2" width="4" height="4"/>
	<rect x="80" y="136" class="st2" width="4" height="4"/>
	<rect x="40" y="140" class="st2" width="4" height="4"/>
	<polygon class="st2" points="100,140 100,136 100,132 96,132 96,136 96,140 96,144 100,144 	"/>
	<rect x="120" y="140" class="st2" width="4" height="4"/>
	<rect x="116" y="144" class="st2" width="4" height="4"/>
	<rect x="132" y="152" class="st2" width="4" height="4"/>
	<polygon class="st2" points="32,156 32,160 36,160 40,160 40,156 36,156 	"/>
	<rect x="148" y="156" class="st2" width="4" height="4"/>
	<rect x="48" y="160" class="st2" width="4" height="4"/>
	<rect x="144" y="160" class="st2" width="4" height="4"/>
	<rect x="140" y="164" class="st2" width="4" height="4"/>
	<rect x="136" y="168" class="st2" width="4" height="4"/>
	<rect x="124" y="172" class="st2" width="4" height="4"/>
	<polygon class="st2" points="48,176 48,180 52,180 56,180 56,176 52,176 	"/>
	<polygon class="st2" points="140,180 140,184 140,188 144,188 144,184 144,180 144,176 144,172 140,172 140,176 	"/>
	<rect x="156" y="176" class="st2" width="4" height="4"/>
	<rect x="44" y="180" class="st2" width="4" height="4"/>
	<rect x="88" y="188" class="st2" width="4" height="4"/>
	<rect x="136" y="188" class="st2" width="4" height="4"/>
	<rect x="80" y="192" class="st2" width="4" height="4"/>
	<rect x="132" y="192" class="st2" width="4" height="4"/>
	<rect x="76" y="196" class="st2" width="4" height="4"/>
	<path class="st2" d="M124,196h-4v-4h-4v-4h-4v-4h-4h-4h-4v-4v-4h-4h-4h-4h-4v-4h-4v-4h-4v-4v-4h4v-4h4h4h4v4h4h4h4v4h4h4h4h4v4h4
		v-4h4h4v4h4v-4v-4h-4h-4h-4v-4h-4h-4h-4h-4v-4h-4h-4h-4h-4v-4h-4h-4h-4v-4v-4h-4v4h-4v4h-4v4h-4v-4h4v-4h4v-4h-4h-4h-4v4h-4v4v4h-4
		v4v4h4v4h4v4h4v4h4v4h4v4h4h4h4v4h4h4v4h4h4h4h4v4h4v4h4v4h4h4v4h4v-4h4v-4h-4H124z M68,156v4h-4v-4H68z"/>
	<polygon class="st2" points="100,204 100,208 104,208 104,204 104,200 100,200 	"/>
	<rect x="128" y="204" class="st2" width="4" height="4"/>
	<polygon class="st2" points="96,212 96,216 100,216 100,212 100,208 96,208 	"/>
	<polygon class="st2" points="136,212 140,212 140,208 136,208 132,208 132,212 	"/>
</g>
<g>
	<polygon class="st3" points="140,8 140,4 136,4 132,4 128,4 128,8 132,8 136,8 	"/>
	<rect x="124" y="8" class="st3" width="4" height="4"/>
	<rect x="120" y="12" class="st3" width="4" height="4"/>
	<rect x="208" y="12" class="st3" width="4" height="4"/>
	<rect x="56" y="16" class="st3" width="4" height="4"/>
	<rect x="116" y="16" class="st3" width="4" height="4"/>
	<rect x="60" y="20" class="st3" width="4" height="4"/>
	<rect x="64" y="24" class="st3" width="4" height="4"/>
	<rect x="68" y="28" class="st3" width="4" height="4"/>
	<rect x="120" y="28" class="st3" width="4" height="4"/>
	<polygon class="st3" points="172,28 168,28 164,28 160,28 160,32 164,32 168,32 172,32 176,32 180,32 184,32 188,32 192,32 196,32 
		196,28 192,28 188,28 184,28 180,28 176,28 	"/>
	<rect x="244" y="28" class="st3" width="4" height="4"/>
	<rect x="252" y="28" class="st3" width="4" height="4"/>
	<polygon class="st3" points="120,36 120,32 116,32 112,32 112,36 116,36 	"/>
	<polygon class="st3" points="112,40 112,36 108,36 104,36 104,40 108,40 	"/>
	<polygon class="st3" points="104,44 104,40 100,40 96,40 96,44 100,44 	"/>
	<rect x="92" y="44" class="st3" width="4" height="4"/>
	<rect x="132" y="44" class="st3" width="4" height="4"/>
	<polygon class="st3" points="92,52 92,48 88,48 84,48 84,52 88,52 	"/>
	<polygon class="st3" points="128,52 128,56 132,56 132,52 132,48 128,48 	"/>
	<rect x="80" y="52" class="st3" width="4" height="4"/>
	<rect x="76" y="56" class="st3" width="4" height="4"/>
	<rect x="124" y="56" class="st3" width="4" height="4"/>
	<polygon class="st3" points="276,56 272,56 272,52 268,52 268,48 264,48 264,44 260,44 260,40 256,40 256,36 252,36 248,36 244,36 
		240,36 240,40 240,44 240,48 244,48 244,52 248,52 248,56 252,56 252,60 256,60 256,64 256,68 260,68 260,72 264,72 264,76 268,76 
		268,72 272,72 272,68 268,68 264,68 264,64 260,64 260,60 264,60 264,56 260,56 260,52 256,52 256,48 252,48 248,48 248,44 248,40 
		252,40 252,44 256,44 256,48 260,48 260,52 264,52 264,56 268,56 268,60 272,60 272,64 276,64 276,60 	"/>
	<rect x="72" y="60" class="st3" width="4" height="4"/>
	<rect x="120" y="60" class="st3" width="4" height="4"/>
	<rect x="68" y="64" class="st3" width="4" height="4"/>
	<rect x="276" y="64" class="st3" width="4" height="4"/>
	<polygon class="st3" points="272,80 272,84 276,84 280,84 280,80 276,80 276,76 272,76 268,76 268,80 	"/>
	<polygon class="st3" points="308,80 308,76 304,76 304,72 304,68 300,68 296,68 292,68 288,68 284,68 280,68 280,72 284,72 284,76 
		284,80 288,80 292,80 292,76 288,76 288,72 292,72 292,76 296,76 300,76 300,80 304,80 304,84 304,88 300,88 300,92 296,92 292,92 
		292,96 296,96 300,96 304,96 304,92 308,92 308,88 308,84 312,84 312,80 	"/>
	<rect x="280" y="84" class="st3" width="4" height="4"/>
	<rect x="288" y="88" class="st3" width="4" height="4"/>
	<polygon class="st3" points="196,100 192,100 192,104 192,108 196,108 196,104 	"/>
	<polygon class="st3" points="196,112 200,112 204,112 204,108 200,108 196,108 	"/>
	<polygon class="st3" points="208,116 212,116 216,116 216,112 212,112 208,112 204,112 204,116 	"/>
	<rect x="68" y="144" class="st3" width="4" height="4"/>
	<polygon class="st3" points="228,144 228,140 224,140 224,144 224,148 228,148 	"/>
	<rect x="64" y="148" class="st3" width="4" height="4"/>
	<rect x="220" y="148" class="st3" width="4" height="4"/>
	<rect x="216" y="152" class="st3" width="4" height="4"/>
	<rect x="64" y="156" class="st3" width="4" height="4"/>
	<rect x="212" y="156" class="st3" width="4" height="4"/>
	<polygon class="st3" points="204,160 204,164 208,164 212,164 212,160 208,160 	"/>
	<rect x="200" y="164" class="st3" width="4" height="4"/>
	<rect x="196" y="168" class="st3" width="4" height="4"/>
	<polygon class="st3" points="96,172 92,172 92,168 88,168 88,164 84,164 84,160 88,160 88,164 92,164 96,164 100,164 100,168 
		104,168 108,168 112,168 116,168 120,168 120,164 116,164 112,164 108,164 104,164 104,160 100,160 96,160 92,160 92,156 88,156 
		84,156 80,156 80,160 76,160 76,164 76,168 80,168 80,172 84,172 84,176 88,176 92,176 96,176 100,176 100,172 	"/>
	<polygon class="st3" points="112,176 108,176 104,176 100,176 100,180 100,184 104,184 108,184 112,184 112,180 	"/>
	<polygon class="st3" points="160,180 156,180 152,180 148,180 148,184 152,184 156,184 160,184 164,184 168,184 168,180 164,180 	
		"/>
	<rect x="144" y="188" class="st3" width="4" height="4"/>
	<polygon class="st3" points="124,196 128,196 132,196 132,192 136,192 136,188 140,188 140,184 140,180 140,176 140,172 136,172 
		136,168 132,168 132,164 128,164 124,164 124,168 120,168 120,172 120,176 124,176 124,172 128,172 128,176 124,176 124,180 
		124,184 128,184 128,180 132,180 132,176 136,176 136,180 136,184 132,184 132,188 128,188 124,188 120,188 120,184 116,184 
		112,184 112,188 116,188 116,192 120,192 120,196 	"/>
	<polygon class="st3" points="152,192 148,192 148,196 152,196 156,196 156,192 	"/>
	<polygon class="st3" points="164,196 160,196 156,196 156,200 160,200 164,200 168,200 168,196 	"/>
	<polygon class="st3" points="140,200 136,200 136,204 140,204 144,204 144,200 	"/>
	<rect x="168" y="200" class="st3" width="4" height="4"/>
	<polygon class="st3" points="144,208 144,212 144,216 144,220 144,224 148,224 148,220 148,216 148,212 148,208 148,204 144,204 	
		"/>
	<polygon class="st3" points="180,204 176,204 172,204 172,208 176,208 180,208 184,208 184,204 	"/>
	<polygon class="st3" points="232,208 228,208 224,208 220,208 216,208 212,208 208,208 204,208 200,208 196,208 192,208 188,208 
		184,208 184,212 188,212 192,212 196,212 200,212 204,212 208,212 212,212 216,212 220,212 224,212 228,212 232,212 236,212 
		240,212 240,208 236,208 	"/>
	<polygon class="st3" points="140,228 140,232 144,232 144,228 144,224 140,224 	"/>
	<rect x="136" y="232" class="st3" width="4" height="4"/>
	<rect x="132" y="236" class="st3" width="4" height="4"/>
	<polygon class="st3" points="124,240 124,244 128,244 132,244 132,240 128,240 	"/>
</g>
</svg>
