<?xml version="1.0" encoding="utf-8"?>
<!-- Generator: Adobe Illustrator 24.2.0, SVG Export Plug-In . SVG Version: 6.00 Build 0)  -->
<svg version="1.1" id="圖層_1" shape-rendering="crispEdges"
	 xmlns="http://www.w3.org/2000/svg" xmlns:xlink="http://www.w3.org/1999/xlink" x="0px" y="0px" viewBox="0 0 96 96"
	 style="enable-background:new 0 0 96 96;" xml:space="preserve">
<style type="text/css">
	.st0{fill:#035E55;}
	.st1{fill:#05FFB5;}
	.st2{fill:#17CE98;}
	.st3{fill:#009A6C;}
	.st4{opacity:0.1176;fill:#011E1B;enable-background:new    ;}
</style>
<g>
</g>
<g>
	<rect x="16" class="st1" width="4" height="4"/>
	<polygon class="st1" points="8,4 4,4 4,8 8,8 12,8 16,8 16,4 12,4 	"/>
	<rect y="8" class="st1" width="4" height="4"/>
	<polygon class="st1" points="88,32 88,36 92,36 96,36 96,32 92,32 	"/>
	<polygon class="st1" points="80,36 76,36 72,36 68,36 68,40 72,40 76,40 80,40 84,40 88,40 88,36 84,36 	"/>
</g>
<g>
</g>
<g>
	<polygon class="st3" points="8,32 4,32 0,32 0,36 4,36 8,36 12,36 12,32 	"/>
	<polygon class="st3" points="60,36 56,36 52,36 48,36 44,36 40,36 36,36 32,36 28,36 24,36 20,36 16,36 12,36 12,40 16,40 20,40 
		24,40 28,40 32,40 36,40 40,40 44,40 48,40 52,40 56,40 60,40 64,40 68,40 68,36 64,36 	"/>
</g>
<g>
	<polygon class="st4" points="8,4 12,4 16,4 16,0 12,0 8,0 4,0 0,0 0,4 0,8 4,8 4,4 	"/>
	<polygon class="st4" points="88,0 84,0 80,0 76,0 72,0 68,0 64,0 60,0 56,0 52,0 48,0 44,0 40,0 36,0 32,0 28,0 24,0 20,0 20,4 
		16,4 16,8 12,8 8,8 4,8 4,12 0,12 0,16 0,20 0,24 0,28 0,32 4,32 8,32 12,32 12,36 16,36 20,36 24,36 28,36 32,36 36,36 40,36 
		44,36 48,36 52,36 56,36 60,36 64,36 68,36 72,36 76,36 80,36 84,36 88,36 88,32 92,32 96,32 96,28 96,24 96,20 96,16 96,12 96,8 
		96,4 96,0 92,0 	"/>
	<polygon class="st4" points="84,40 80,40 76,40 72,40 68,40 64,40 60,40 56,40 52,40 48,40 44,40 40,40 36,40 32,40 28,40 24,40 
		20,40 16,40 12,40 12,36 8,36 4,36 0,36 0,40 0,44 0,48 0,52 0,56 0,60 0,64 0,68 0,72 0,76 0,80 0,84 0,88 0,92 0,96 4,96 8,96 
		12,96 16,96 20,96 24,96 28,96 32,96 36,96 40,96 44,96 48,96 52,96 56,96 60,96 64,96 68,96 72,96 76,96 80,96 84,96 88,96 92,96 
		96,96 96,92 96,88 96,84 96,80 96,76 96,72 96,68 96,64 96,60 96,56 96,52 96,48 96,44 96,40 96,36 92,36 88,36 88,40 	"/>
</g>
</svg>
