<?xml version="1.0" encoding="utf-8"?>
<!-- Generator: Adobe Illustrator 24.2.0, SVG Export Plug-In . SVG Version: 6.00 Build 0)  -->
<svg version="1.1" id="圖層_1" shape-rendering="crispEdges"
	 xmlns="http://www.w3.org/2000/svg" xmlns:xlink="http://www.w3.org/1999/xlink" x="0px" y="0px" viewBox="0 0 36 36"
	 style="enable-background:new 0 0 36 36;" xml:space="preserve">
<style type="text/css">
	.st0{fill:#A87D22;}
	.st1{fill:#FFF9BB;}
	.st2{fill:#DBBA25;}
	.st3{fill:#FFE25B;}
</style>
<rect x="4" class="st0" width="4" height="4"/>
<rect y="4" class="st0" width="4" height="4"/>
<rect x="4" y="4" class="st1" width="4" height="4"/>
<rect x="8" y="4" class="st1" width="4" height="4"/>
<rect x="16" y="4" class="st0" width="4" height="4"/>
<rect x="4" y="8" class="st1" width="4" height="4"/>
<rect x="8" y="8" class="st2" width="4" height="4"/>
<rect x="12" y="8" class="st3" width="4" height="4"/>
<rect y="12" class="st0" width="4" height="4"/>
<rect x="8" y="12" class="st3" width="4" height="4"/>
<rect x="12" y="12" class="st2" width="4" height="4"/>
<rect x="16" y="12" class="st3" width="4" height="4"/>
<rect x="12" y="16" class="st3" width="4" height="4"/>
<rect x="16" y="16" class="st1" width="4" height="4"/>
<rect x="8" y="20" class="st0" width="4" height="4"/>
<rect x="24" y="20" class="st2" width="4" height="4"/>
<rect x="20" y="24" class="st2" width="4" height="4"/>
<rect x="28" y="24" class="st2" width="4" height="4"/>
<rect x="24" y="28" class="st2" width="4" height="4"/>
<rect x="32" y="28" class="st2" width="4" height="4"/>
<rect x="28" y="32" class="st3" width="4" height="4"/>
</svg>
