<?xml version="1.0" encoding="utf-8"?>
<!-- Generator: Adobe Illustrator 24.2.0, SVG Export Plug-In . SVG Version: 6.00 Build 0)  -->
<svg version="1.1" id="圖層_1" shape-rendering="crispEdges"
	 xmlns="http://www.w3.org/2000/svg" xmlns:xlink="http://www.w3.org/1999/xlink" x="0px" y="0px" viewBox="0 0 56 56"
	 style="enable-background:new 0 0 56 56;" xml:space="preserve">
<style type="text/css">
	.st0{fill:#035E55;}
	.st1{fill:#009A6C;}
	.st2{fill:#05FFB5;}
	.st3{fill:#17CE98;}
	.st4{opacity:0.1176;fill:#011E1B;enable-background:new    ;}
</style>
<g>
	<rect x="8" y="52" class="st0" width="4" height="4"/>
</g>
<g>
	<polygon class="st1" points="12,52 12,56 16,56 20,56 20,52 16,52 16,48 12,48 8,48 4,48 4,52 8,52 	"/>
</g>
<g>
	<polygon class="st2" points="28,40 28,36 24,36 20,36 20,32 16,32 12,32 12,36 8,36 8,32 12,32 12,28 8,28 4,28 4,32 0,32 0,36 
		0,40 0,44 4,44 4,40 8,40 12,40 16,40 16,44 20,44 24,44 24,40 	"/>
	<polygon class="st2" points="48,44 48,48 44,48 44,44 40,44 40,40 36,40 36,44 32,44 32,40 28,40 28,44 24,44 24,48 28,48 28,52 
		32,52 32,48 36,48 36,52 40,52 44,52 44,56 48,56 48,52 52,52 52,56 56,56 56,52 56,48 56,44 52,44 	"/>
	<rect y="52" class="st2" width="4" height="4"/>
</g>
<g>
	<rect x="20" y="20" class="st3" width="4" height="4"/>
	<rect x="16" y="24" class="st3" width="4" height="4"/>
	<polygon class="st3" points="4,28 4,24 4,20 0,20 0,24 0,28 0,32 4,32 	"/>
	<rect x="12" y="28" class="st3" width="4" height="4"/>
	<rect x="8" y="32" class="st3" width="4" height="4"/>
	<rect x="52" y="36" class="st3" width="4" height="4"/>
	<rect x="24" y="40" class="st3" width="4" height="4"/>
	<polygon class="st3" points="36,40 36,36 36,32 36,28 32,28 32,32 32,36 32,40 32,44 36,44 	"/>
	<rect x="48" y="40" class="st3" width="4" height="4"/>
	<rect x="44" y="44" class="st3" width="4" height="4"/>
	<rect x="4" y="52" class="st3" width="4" height="4"/>
	<polygon class="st3" points="36,52 36,48 32,48 32,52 28,52 28,48 24,48 24,44 20,44 16,44 16,40 12,40 8,40 4,40 4,44 0,44 0,48 
		0,52 4,52 4,48 8,48 12,48 16,48 16,52 20,52 20,56 24,56 28,56 32,56 36,56 40,56 44,56 44,52 40,52 	"/>
	<rect x="48" y="52" class="st3" width="4" height="4"/>
</g>
<g>
	<polygon class="st4" points="48,0 44,0 40,0 36,0 32,0 28,0 24,0 20,0 16,0 12,0 8,0 4,0 0,0 0,4 0,8 0,12 0,16 0,20 4,20 4,24 
		4,28 8,28 12,28 16,28 16,24 20,24 20,20 24,20 24,24 20,24 20,28 16,28 16,32 20,32 20,36 24,36 28,36 28,40 32,40 32,36 32,32 
		32,28 36,28 36,32 36,36 36,40 40,40 40,44 44,44 48,44 48,40 52,40 52,36 56,36 56,32 56,28 56,24 56,20 56,16 56,12 56,8 56,4 
		56,0 52,0 	"/>
	<rect x="52" y="40" class="st4" width="4" height="4"/>
</g>
</svg>
