<?xml version="1.0" encoding="utf-8"?>
<!-- Generator: Adobe Illustrator 24.2.0, SVG Export Plug-In . SVG Version: 6.00 Build 0)  -->
<svg version="1.1" id="圖層_1" shape-rendering="crispEdges"
	 xmlns="http://www.w3.org/2000/svg" xmlns:xlink="http://www.w3.org/1999/xlink" x="0px" y="0px" viewBox="0 0 244 368"
	 style="enable-background:new 0 0 244 368;" xml:space="preserve">
<style type="text/css">
	.st0{fill:#DBBA25;}
	.st1{fill:#C7AA25;}
	.st2{fill:#FFD40E;}
	.st3{fill:#FFE25B;}
	.st4{opacity:0.4;fill:#FFF9BB;enable-background:new    ;}
	.st5{fill:#FFEA8A;}
	.st6{fill:#FFF9BB;}
	.st7{fill:#FFFFFF;}
	.st8{fill:#A88F1E;}
	.st9{fill:#F0CD2C;}
	.st10{fill:#FFEA00;}
</style>
<polygon class="st0" points="104,184 104,188 100,188 100,192 100,196 104,196 104,192 108,192 112,192 112,188 112,184 108,184 "/>
<polygon class="st0" points="96,216 96,220 92,220 88,220 88,224 84,224 80,224 80,228 80,232 84,232 84,228 88,228 92,228 92,224 
	96,224 100,224 100,220 104,220 104,216 100,216 "/>
<rect x="112" y="188" class="st1" width="4" height="4"/>
<polygon class="st1" points="104,192 104,196 108,196 112,196 112,192 108,192 "/>
<rect x="100" y="196" class="st1" width="4" height="4"/>
<rect x="100" y="220" class="st1" width="4" height="4"/>
<polygon class="st1" points="92,224 92,228 96,228 100,228 100,224 96,224 "/>
<polygon class="st1" points="84,228 84,232 88,232 92,232 92,228 88,228 "/>
<rect x="80" y="232" class="st1" width="4" height="4"/>
<polygon class="st2" points="120,184 116,184 116,188 120,188 "/>
<rect x="68" y="220" class="st2" width="4" height="4"/>
<polygon class="st2" points="64,228 64,232 68,232 68,228 68,224 64,224 "/>
<rect x="60" y="232" class="st2" width="4" height="4"/>
<rect x="76" y="236" class="st2" width="4" height="4"/>
<polygon class="st2" points="72,244 72,248 76,248 76,244 76,240 72,240 "/>
<polygon class="st2" points="132,256 128,256 128,260 128,264 124,264 124,268 124,272 120,272 120,276 120,280 120,284 116,284 
	116,288 116,292 116,296 116,300 120,300 120,296 120,292 120,288 124,288 128,288 128,284 128,280 128,276 128,272 132,272 
	132,268 136,268 136,264 136,260 132,260 "/>
<polygon class="st2" points="112,304 112,308 112,312 116,312 116,308 116,304 116,300 112,300 "/>
<polygon class="st3" points="116,184 116,176 112,176 112,180 112,184 112,188 116,188 "/>
<polygon class="st3" points="64,216 64,220 60,220 60,224 60,228 56,228 56,232 56,236 60,236 60,232 64,232 64,228 64,224 68,224 
	68,220 68,216 68,212 64,212 "/>
<polygon class="st3" points="104,216 104,220 104,224 108,224 108,220 108,216 108,212 104,212 "/>
<polygon class="st3" points="76,232 72,232 72,236 72,240 76,240 76,236 80,236 80,232 80,228 76,228 "/>
<polygon class="st3" points="132,256 132,260 136,260 136,256 136,252 132,252 "/>
<polygon class="st3" points="120,292 120,296 120,300 116,300 116,304 116,308 116,312 116,316 120,316 120,312 120,308 120,304 
	124,304 124,300 124,296 124,292 124,288 120,288 "/>
<polygon class="st4" points="92,332 88,332 84,332 84,336 80,336 80,340 84,340 84,344 88,344 88,340 92,340 92,336 "/>
<rect x="136" y="192" class="st5" width="4" height="4"/>
<polygon class="st5" points="164,196 164,200 164,204 168,204 168,200 168,196 "/>
<polygon class="st5" points="92,196 92,200 96,200 100,200 100,196 96,196 "/>
<rect x="88" y="200" class="st5" width="4" height="4"/>
<polygon class="st5" points="136,200 136,196 132,196 132,200 132,204 136,204 "/>
<rect x="80" y="204" class="st5" width="4" height="4"/>
<rect x="128" y="204" class="st5" width="4" height="4"/>
<polygon class="st5" points="160,208 160,212 160,216 164,216 164,212 164,208 164,204 160,204 "/>
<rect x="76" y="208" class="st5" width="4" height="4"/>
<polygon class="st5" points="120,208 120,212 124,212 128,212 128,208 124,208 "/>
<rect x="72" y="212" class="st5" width="4" height="4"/>
<polygon class="st5" points="112,212 112,216 116,216 120,216 120,212 116,212 "/>
<rect x="68" y="216" class="st5" width="4" height="4"/>
<rect x="108" y="216" class="st5" width="4" height="4"/>
<polygon class="st5" points="156,220 156,224 156,228 160,228 160,224 160,220 160,216 156,216 "/>
<rect x="152" y="228" class="st5" width="4" height="4"/>
<polygon class="st5" points="148,236 148,240 152,240 152,236 152,232 148,232 "/>
<rect x="56" y="240" class="st5" width="4" height="4"/>
<polygon class="st5" points="144,244 144,248 148,248 148,244 148,240 144,240 "/>
<rect x="52" y="244" class="st5" width="4" height="4"/>
<rect x="48" y="248" class="st5" width="4" height="4"/>
<polygon class="st5" points="140,252 140,256 144,256 144,252 144,248 140,248 "/>
<rect x="44" y="256" class="st5" width="4" height="4"/>
<rect x="136" y="256" class="st5" width="4" height="4"/>
<polygon class="st5" points="72,260 72,256 72,252 72,248 68,248 68,252 68,256 68,260 68,264 72,264 "/>
<rect x="40" y="264" class="st5" width="4" height="4"/>
<polygon class="st5" points="68,268 68,264 64,264 64,268 64,272 68,272 "/>
<polygon class="st5" points="36,276 36,280 40,280 40,276 40,272 36,272 "/>
<rect x="32" y="284" class="st5" width="4" height="4"/>
<rect x="28" y="288" class="st5" width="4" height="4"/>
<polygon class="st5" points="12,292 8,292 8,296 12,296 16,296 16,292 "/>
<rect x="24" y="292" class="st5" width="4" height="4"/>
<polygon class="st5" points="16,296 16,300 20,300 24,300 24,296 20,296 "/>
<polygon class="st5" points="64,304 64,308 68,308 68,304 68,300 68,296 72,296 72,292 68,292 68,288 68,284 68,280 64,280 64,276 
	64,272 60,272 60,276 56,276 56,280 56,284 60,284 60,288 60,292 60,296 64,296 64,300 "/>
<polygon class="st5" points="72,312 68,312 68,316 68,320 72,320 72,316 "/>
<polygon class="st5" points="76,320 72,320 72,324 72,328 76,328 76,324 "/>
<polygon class="st5" points="116,320 116,316 116,312 112,312 112,316 112,320 112,324 112,328 116,328 116,324 "/>
<polygon class="st5" points="76,332 76,336 80,336 80,332 80,328 76,328 "/>
<polygon class="st5" points="120,344 120,340 120,336 120,332 120,328 116,328 116,332 116,336 116,340 116,344 116,348 116,352 
	120,352 120,348 "/>
<rect x="120" y="352" class="st5" width="4" height="4"/>
<polygon class="st6" points="160,200 156,200 156,204 156,208 156,212 152,212 152,216 152,220 152,224 148,224 148,228 144,228 
	144,232 144,236 140,236 140,240 140,244 136,244 136,248 136,252 136,256 140,256 140,252 140,248 144,248 144,244 144,240 
	148,240 148,236 148,232 152,232 152,228 156,228 156,224 156,220 156,216 160,216 160,212 160,208 160,204 164,204 164,200 "/>
<polygon class="st6" points="92,192 92,196 96,196 100,196 100,192 96,192 "/>
<polygon class="st6" points="84,196 84,200 80,200 76,200 76,204 72,204 72,208 68,208 68,212 68,216 72,216 72,212 76,212 76,208 
	80,208 80,204 84,204 88,204 88,200 92,200 92,196 88,196 "/>
<polygon class="st6" points="136,192 140,192 140,188 136,188 132,188 132,192 128,192 128,196 128,200 124,200 124,204 120,204 
	116,204 116,208 112,208 108,208 108,212 108,216 112,216 112,212 116,212 120,212 120,208 124,208 128,208 128,204 132,204 
	132,200 132,196 136,196 "/>
<polygon class="st6" points="68,260 68,256 68,252 68,248 72,248 72,244 72,240 72,236 68,236 68,240 68,244 64,244 64,248 64,252 
	64,256 64,260 60,260 60,264 60,268 56,268 56,272 56,276 60,276 60,272 64,272 64,268 64,264 68,264 "/>
<polygon class="st6" points="84,324 84,320 80,320 80,316 80,312 76,312 76,308 76,304 72,304 72,300 72,296 68,296 68,300 68,304 
	68,308 68,312 72,312 72,316 72,320 76,320 76,324 76,328 80,328 80,332 80,336 84,336 84,332 88,332 88,328 84,328 "/>
<polygon class="st6" points="56,240 60,240 60,236 56,236 52,236 52,240 48,240 48,244 44,244 44,248 44,252 40,252 40,256 40,260 
	36,260 36,264 36,268 32,268 32,272 32,276 28,276 28,280 28,284 24,284 24,288 20,288 16,288 16,284 12,284 8,284 8,292 12,292 
	16,292 16,296 20,296 24,296 24,292 28,292 28,288 32,288 32,284 36,284 36,280 36,276 36,272 40,272 40,268 40,264 44,264 44,260 
	44,256 48,256 48,252 48,248 52,248 52,244 56,244 "/>
<polygon class="st6" points="128,344 124,344 124,340 124,336 124,332 124,328 124,324 120,324 120,320 120,316 116,316 116,320 
	116,324 116,328 120,328 120,332 120,336 120,340 120,344 120,348 120,352 124,352 124,356 128,356 128,352 132,352 132,348 
	128,348 "/>
<g>
	<polygon class="st7" points="8,268 4,268 4,272 0,272 0,276 0,280 4,280 8,280 8,276 12,276 12,272 8,272 	"/>
	<polygon class="st7" points="92,340 88,340 88,344 92,344 96,344 96,340 96,336 92,336 	"/>
	<rect x="132" y="360" class="st7" width="4" height="4"/>
	<rect x="128" y="364" class="st7" width="4" height="4"/>
</g>
<polygon class="st4" points="16,276 12,276 8,276 8,280 4,280 4,284 4,288 8,288 8,284 12,284 16,284 16,280 "/>
<polygon class="st4" points="132,356 132,352 128,352 128,356 124,356 124,360 124,364 128,364 132,364 132,360 136,360 136,356 "/>
<g>
	<g>
		<polygon class="st8" points="204,52 204,48 200,48 200,52 196,52 196,56 200,56 200,60 204,60 204,56 208,56 208,52 		"/>
		<polygon class="st8" points="192,56 188,56 184,56 184,60 184,64 180,64 180,68 180,72 184,72 184,76 180,76 180,80 176,80 
			176,84 176,88 176,92 176,96 172,96 172,100 176,100 176,104 172,104 172,100 168,100 168,104 168,108 164,108 164,112 160,112 
			160,116 156,116 156,120 152,120 152,124 152,128 152,132 156,132 156,136 160,136 164,136 168,136 168,132 172,132 172,128 
			172,124 176,124 176,120 176,116 172,116 172,120 168,120 168,116 172,116 172,112 176,112 180,112 180,108 184,108 184,104 
			184,100 180,100 180,96 180,92 184,92 184,88 184,84 184,80 188,80 188,76 192,76 192,72 192,68 196,68 196,64 196,60 192,60 		
			"/>
	</g>
	<g>
		<rect x="212" y="16" class="st9" width="4" height="4"/>
		<rect x="208" y="20" class="st9" width="4" height="4"/>
		<rect x="184" y="24" class="st9" width="4" height="4"/>
		<rect x="188" y="28" class="st9" width="4" height="4"/>
		<polygon class="st9" points="204,28 204,24 204,20 200,20 200,24 200,28 200,32 204,32 		"/>
		<rect x="204" y="32" class="st9" width="4" height="4"/>
		<polygon class="st9" points="168,36 164,36 164,40 164,44 168,44 168,40 		"/>
		<rect x="224" y="40" class="st9" width="4" height="4"/>
		<rect x="168" y="44" class="st9" width="4" height="4"/>
		<rect x="220" y="44" class="st9" width="4" height="4"/>
		<rect x="156" y="56" class="st9" width="4" height="4"/>
		<rect x="228" y="56" class="st9" width="4" height="4"/>
		<rect x="160" y="60" class="st9" width="4" height="4"/>
		<rect x="216" y="68" class="st9" width="4" height="4"/>
		<rect x="140" y="72" class="st9" width="4" height="4"/>
		<rect x="220" y="72" class="st9" width="4" height="4"/>
		<rect x="144" y="76" class="st9" width="4" height="4"/>
		<polygon class="st9" points="140,88 140,84 136,84 132,84 132,88 136,88 		"/>
		<rect x="212" y="88" class="st9" width="4" height="4"/>
		<rect x="128" y="96" class="st9" width="4" height="4"/>
		<rect x="204" y="96" class="st9" width="4" height="4"/>
		<polygon class="st9" points="136,100 132,100 132,104 136,104 140,104 140,100 		"/>
		<polygon class="st9" points="212,100 208,100 208,104 212,104 216,104 216,100 		"/>
		<rect x="140" y="104" class="st9" width="4" height="4"/>
		<rect x="204" y="104" class="st9" width="4" height="4"/>
		<rect x="216" y="104" class="st9" width="4" height="4"/>
		<rect x="128" y="108" class="st9" width="4" height="4"/>
		<rect x="208" y="108" class="st9" width="4" height="4"/>
		<rect x="196" y="112" class="st9" width="4" height="4"/>
		<rect x="212" y="112" class="st9" width="4" height="4"/>
		<rect x="200" y="116" class="st9" width="4" height="4"/>
		<polygon class="st9" points="132,120 128,120 128,124 132,124 136,124 136,120 		"/>
		<rect x="136" y="124" class="st9" width="4" height="4"/>
		<rect x="128" y="136" class="st9" width="4" height="4"/>
		<rect x="188" y="136" class="st9" width="4" height="4"/>
		<rect x="124" y="140" class="st9" width="4" height="4"/>
		<rect x="152" y="144" class="st9" width="4" height="4"/>
		<rect x="148" y="148" class="st9" width="4" height="4"/>
		<rect x="176" y="148" class="st9" width="4" height="4"/>
		<rect x="144" y="152" class="st9" width="4" height="4"/>
		<polygon class="st9" points="156,156 156,160 156,164 160,164 160,160 160,156 160,152 156,152 		"/>
		<rect x="180" y="152" class="st9" width="4" height="4"/>
		<rect x="164" y="156" class="st9" width="4" height="4"/>
		<rect x="184" y="156" class="st9" width="4" height="4"/>
		<rect x="168" y="160" class="st9" width="4" height="4"/>
	</g>
	<g>
		<polygon class="st10" points="180,8 176,8 176,12 176,16 180,16 180,12 		"/>
		<polygon class="st10" points="200,12 200,8 196,8 196,12 196,16 200,16 		"/>
		<rect x="212" y="12" class="st10" width="4" height="4"/>
		<polygon class="st10" points="180,20 180,24 184,24 184,20 184,16 180,16 		"/>
		<rect x="200" y="16" class="st10" width="4" height="4"/>
		<polygon class="st10" points="228,20 228,16 224,16 224,20 224,24 228,24 		"/>
		<polygon class="st10" points="156,24 152,24 152,28 156,28 160,28 160,24 		"/>
		<rect x="204" y="24" class="st10" width="4" height="4"/>
		<rect x="220" y="24" class="st10" width="4" height="4"/>
		<rect x="160" y="28" class="st10" width="4" height="4"/>
		<rect x="216" y="28" class="st10" width="4" height="4"/>
		<rect x="164" y="32" class="st10" width="4" height="4"/>
		<rect x="212" y="32" class="st10" width="4" height="4"/>
		<rect x="236" y="32" class="st10" width="4" height="4"/>
		<polygon class="st10" points="228,36 228,40 232,40 236,40 236,36 232,36 		"/>
		<polygon class="st10" points="140,48 136,48 132,48 132,52 136,52 140,52 144,52 144,48 		"/>
		<polygon class="st10" points="148,52 144,52 144,56 148,56 152,56 152,52 		"/>
		<rect x="152" y="56" class="st10" width="4" height="4"/>
		<rect x="232" y="60" class="st10" width="4" height="4"/>
		<rect x="236" y="64" class="st10" width="4" height="4"/>
		<rect x="132" y="68" class="st10" width="4" height="4"/>
		<rect x="136" y="72" class="st10" width="4" height="4"/>
		<rect x="224" y="72" class="st10" width="4" height="4"/>
		<rect x="228" y="76" class="st10" width="4" height="4"/>
		<rect x="128" y="80" class="st10" width="4" height="4"/>
		<rect x="232" y="80" class="st10" width="4" height="4"/>
		<rect x="236" y="84" class="st10" width="4" height="4"/>
		<rect x="216" y="92" class="st10" width="4" height="4"/>
		<polygon class="st10" points="120,96 120,100 124,100 128,100 128,96 124,96 		"/>
		<rect x="220" y="96" class="st10" width="4" height="4"/>
		<rect x="124" y="104" class="st10" width="4" height="4"/>
		<rect x="216" y="116" class="st10" width="4" height="4"/>
		<polygon class="st10" points="120,120 116,120 112,120 112,124 116,124 120,124 124,124 128,124 128,120 124,120 		"/>
		<polygon class="st10" points="204,120 204,124 208,124 212,124 212,120 208,120 		"/>
		<rect x="192" y="136" class="st10" width="4" height="4"/>
		<rect x="120" y="140" class="st10" width="4" height="4"/>
		<rect x="196" y="140" class="st10" width="4" height="4"/>
		<polygon class="st10" points="200,148 200,152 204,152 204,148 204,144 200,144 		"/>
		<rect x="140" y="156" class="st10" width="4" height="4"/>
		<rect x="188" y="160" class="st10" width="4" height="4"/>
		<rect x="156" y="164" class="st10" width="4" height="4"/>
		<rect x="172" y="164" class="st10" width="4" height="4"/>
	</g>
	<path class="st0" d="M208,48v-4h-4h-4h-4v4h-4v4h-4h-4v4h4h4v4h4v4v4h-4v4v4h-4v4h-4v4v4v4h-4v4v4h4v4h4v-4v-4h4v-4h4h4v-4h4v-4h4
		v-4v-4h-4v-4h-4v-4h4v-4h4v-4h4v-4v-4v-4H208z M200,80h-4v-4h4V80z M208,56h-4v4h-4v-4h-4v-4h4v-4h4v4h4V56z"/>
	<polygon class="st0" points="180,60 176,60 176,64 176,68 176,72 172,72 172,76 172,80 168,80 168,84 168,88 164,88 164,92 164,96 
		160,96 160,100 160,104 160,108 156,108 156,112 152,112 152,116 148,116 148,120 148,124 148,128 148,132 148,136 152,136 
		152,140 156,140 156,144 160,144 164,144 168,144 172,144 172,140 176,140 176,136 176,132 180,132 180,128 180,124 180,120 
		180,116 184,116 184,112 184,108 180,108 180,112 176,112 172,112 172,116 176,116 176,120 176,124 172,124 172,128 172,132 
		168,132 168,136 164,136 160,136 156,136 156,132 152,132 152,128 152,124 152,120 156,120 156,116 160,116 160,112 164,112 
		164,108 168,108 168,104 168,100 172,100 172,96 176,96 176,92 176,88 176,84 176,80 180,80 180,76 184,76 184,72 180,72 180,68 
		180,64 184,64 184,60 184,56 180,56 	"/>
	<polygon class="st0" points="156,96 156,92 160,92 160,88 160,84 156,84 156,88 152,88 152,92 148,92 148,96 152,96 	"/>
	<rect x="148" y="100" class="st0" width="4" height="4"/>
	<rect x="172" y="100" class="st0" width="4" height="4"/>
	<rect x="192" y="104" class="st0" width="4" height="4"/>
	<rect x="188" y="108" class="st0" width="4" height="4"/>
	<rect x="168" y="116" class="st0" width="4" height="4"/>
	<polygon class="st0" points="128,152 128,156 128,160 132,160 132,156 136,156 136,152 132,152 	"/>
	<rect x="148" y="164" class="st0" width="4" height="4"/>
	<rect x="164" y="168" class="st0" width="4" height="4"/>
	<polygon class="st1" points="144,148 140,148 140,144 136,144 136,148 132,148 132,152 136,152 136,156 140,156 140,152 144,152 	
		"/>
	<rect x="132" y="156" class="st1" width="4" height="4"/>
	<polygon class="st1" points="152,156 148,156 148,160 144,160 144,164 148,164 152,164 156,164 156,160 152,160 	"/>
	<polygon class="st1" points="168,164 168,160 164,160 160,160 160,164 160,168 164,168 168,168 168,172 168,176 172,176 172,172 
		172,168 172,164 	"/>
	<polygon class="st2" points="128,164 128,168 128,172 132,172 132,168 132,164 132,160 128,160 	"/>
	<polygon class="st2" points="148,172 148,176 152,176 152,172 152,168 148,168 	"/>
	<polygon class="st2" points="144,180 144,184 148,184 148,180 148,176 144,176 	"/>
	<polygon class="st2" points="168,176 168,180 164,180 164,184 164,188 164,192 164,196 168,196 168,192 168,188 168,184 172,184 
		172,180 172,176 	"/>
	<polygon class="st2" points="140,188 140,192 144,192 144,188 144,184 140,184 	"/>
	<rect x="160" y="196" class="st2" width="4" height="4"/>
	<path class="st3" d="M216,48v-4h-4v-4h-4v-4h-4h-4h-4v4h-4h-4v4h-4h-4v4h-4v4h-4v4v4h-4v4v4h-4v4h-4v4h-4v4h-4v4h-4v4v4h4v-4h4v-4
		h4v4v4h-4v4h-4h-4v-4h-4v4v4v4v4h-4v4v4v4v4v4h4v4v4v4h4v4v4h4v-4h4v-4h-4v-4h-4v-4v-4v-4v-4v-4h4v-4h4v-4h4v-4v-4v-4h4v-4v-4h4v-4
		v-4h4v-4v-4h4v-4v-4v-4h4v-4h4v-4h4h4v-4h4v-4h4h4h4v4h4v4v4v4h-4v4h-4v4h-4v4h4v4h4v4v4h4v-4v-4h4v-4v-4v-4h4v-4v-4v-4v-4H216z
		 M148,100h4v4h-4V100z"/>
	<rect x="196" y="76" class="st3" width="4" height="4"/>
	<polygon class="st3" points="204,88 200,88 200,92 196,92 192,92 192,96 188,96 188,100 188,104 184,104 184,108 184,112 184,116 
		180,116 180,120 180,124 180,128 180,132 176,132 176,136 176,140 172,140 172,144 168,144 164,144 160,144 156,144 156,148 
		156,152 160,152 164,152 168,152 172,152 172,148 176,148 176,144 180,144 180,140 184,140 184,136 184,132 188,132 188,128 
		188,124 192,124 192,120 192,116 196,116 196,112 196,108 192,108 192,112 188,112 188,108 192,108 192,104 196,104 200,104 
		200,100 200,96 204,96 204,92 208,92 208,88 208,84 204,84 	"/>
	<polygon class="st3" points="144,168 144,172 140,172 140,180 136,180 136,184 136,188 140,188 140,184 144,184 144,180 144,176 
		148,176 148,172 148,168 148,164 144,164 	"/>
	<polygon class="st3" points="128,168 128,164 128,160 128,156 124,156 124,160 124,164 124,168 124,172 128,172 	"/>
	<polygon class="st3" points="164,176 164,180 168,180 168,176 168,172 164,172 	"/>
	<polygon class="st3" points="160,184 160,188 160,192 160,196 164,196 164,192 164,188 164,184 164,180 160,180 	"/>
	<polygon class="st5" points="188,44 188,40 192,40 196,40 196,36 200,36 204,36 204,32 200,32 196,32 192,32 192,36 188,36 184,36 
		184,40 180,40 180,44 184,44 	"/>
	<polygon class="st5" points="220,40 216,40 216,36 212,36 212,32 208,32 208,36 208,40 212,40 212,44 216,44 216,48 220,48 220,44 
			"/>
	<rect x="176" y="44" class="st5" width="4" height="4"/>
	<rect x="172" y="48" class="st5" width="4" height="4"/>
	<polygon class="st5" points="220,48 220,52 220,56 220,60 224,60 224,56 224,52 224,48 	"/>
	<polygon class="st5" points="172,56 172,52 168,52 168,56 164,56 164,60 164,64 160,64 160,68 156,68 156,72 156,76 160,76 160,72 
		164,72 164,68 168,68 168,64 168,60 172,60 	"/>
	<rect x="216" y="64" class="st5" width="4" height="4"/>
	<rect x="152" y="76" class="st5" width="4" height="4"/>
	<rect x="212" y="76" class="st5" width="4" height="4"/>
	<rect x="148" y="80" class="st5" width="4" height="4"/>
	<polygon class="st5" points="144,88 144,92 148,92 148,88 148,84 144,84 	"/>
	<rect x="208" y="84" class="st5" width="4" height="4"/>
	<polygon class="st5" points="140,96 140,100 140,104 144,104 144,100 144,96 144,92 140,92 	"/>
	<rect x="204" y="92" class="st5" width="4" height="4"/>
	<polygon class="st5" points="200,100 200,104 196,104 196,108 196,112 200,112 200,108 204,108 204,104 204,100 204,96 200,96 	"/>
	<polygon class="st5" points="192,116 192,120 192,124 188,124 188,128 188,132 192,132 192,128 196,128 196,124 196,120 200,120 
		200,116 196,116 	"/>
	<polygon class="st5" points="140,120 140,116 140,112 140,108 136,108 136,112 136,116 136,120 136,124 140,124 	"/>
	<polygon class="st5" points="140,136 140,140 140,144 144,144 144,148 144,152 148,152 148,148 148,144 148,140 144,140 144,136 
		144,132 144,128 140,128 136,128 136,132 140,132 	"/>
	<rect x="184" y="132" class="st5" width="4" height="4"/>
	<rect x="180" y="140" class="st5" width="4" height="4"/>
	<rect x="176" y="144" class="st5" width="4" height="4"/>
	<rect x="152" y="148" class="st5" width="4" height="4"/>
	<rect x="172" y="148" class="st5" width="4" height="4"/>
	<polygon class="st5" points="160,152 160,156 164,156 168,156 168,152 164,152 	"/>
	<rect x="124" y="172" class="st5" width="4" height="4"/>
	<polygon class="st5" points="124,180 124,176 120,176 120,180 120,184 124,184 	"/>
	<polygon class="st6" points="200,32 200,28 200,24 196,24 192,24 192,28 192,32 196,32 	"/>
	<polygon class="st6" points="212,28 208,28 204,28 204,32 208,32 212,32 216,32 216,28 	"/>
	<polygon class="st6" points="224,36 220,36 220,32 216,32 216,36 216,40 220,40 220,44 224,44 224,40 	"/>
	<polygon class="st6" points="180,40 184,40 184,36 188,36 192,36 192,32 188,32 188,28 184,28 184,32 180,32 176,32 176,36 172,36 
		172,40 168,40 168,44 172,44 172,48 176,48 176,44 180,44 	"/>
	<polygon class="st6" points="224,44 224,48 224,52 224,56 224,60 228,60 228,56 228,52 228,48 228,44 	"/>
	<polygon class="st6" points="164,48 164,52 160,52 160,56 160,60 164,60 164,56 168,56 168,52 172,52 172,48 168,48 	"/>
	<polygon class="st6" points="156,64 152,64 152,68 148,68 148,72 148,76 148,80 152,80 152,76 156,76 156,72 156,68 160,68 160,64 
		160,60 156,60 	"/>
	<polygon class="st6" points="220,64 220,68 220,72 224,72 224,68 224,64 224,60 220,60 	"/>
	<polygon class="st6" points="216,76 216,80 220,80 220,76 220,72 216,72 	"/>
	<polygon class="st6" points="140,80 140,84 140,88 140,92 144,92 144,88 144,84 148,84 148,80 144,80 	"/>
	<polygon class="st6" points="212,84 212,88 216,88 216,84 216,80 212,80 	"/>
	<polygon class="st6" points="208,92 208,96 212,96 212,92 212,88 208,88 	"/>
	<polygon class="st6" points="136,96 136,100 140,100 140,96 140,92 136,92 	"/>
	<rect x="204" y="100" class="st6" width="4" height="4"/>
	<rect x="136" y="104" class="st6" width="4" height="4"/>
	<rect x="200" y="108" class="st6" width="4" height="4"/>
	<polygon class="st6" points="136,116 136,112 136,108 132,108 132,112 132,116 132,120 136,120 	"/>
	<rect x="196" y="120" class="st6" width="4" height="4"/>
	<rect x="192" y="128" class="st6" width="4" height="4"/>
	<rect x="188" y="132" class="st6" width="4" height="4"/>
	<polygon class="st6" points="136,140 136,144 140,144 140,140 140,136 140,132 136,132 136,128 136,124 132,124 132,128 132,132 
		132,136 136,136 	"/>
	<polygon class="st6" points="184,140 184,144 188,144 188,140 188,136 184,136 	"/>
	<rect x="140" y="144" class="st6" width="4" height="4"/>
	<rect x="180" y="144" class="st6" width="4" height="4"/>
	<polygon class="st6" points="168,152 168,156 172,156 176,156 176,152 172,152 	"/>
	<polygon class="st6" points="156,160 156,156 156,152 152,152 148,152 148,156 152,156 152,160 	"/>
	<rect x="160" y="156" class="st6" width="4" height="4"/>
	<polygon class="st6" points="120,180 120,176 124,176 124,172 124,168 120,168 120,172 116,172 116,176 116,180 116,184 120,184 	
		"/>
</g>
</svg>
