<?xml version="1.0" encoding="utf-8"?>
<!-- Generator: Adobe Illustrator 24.2.0, SVG Export Plug-In . SVG Version: 6.00 Build 0)  -->
<svg version="1.1" id="圖層_1" shape-rendering="crispEdges"
	 xmlns="http://www.w3.org/2000/svg" xmlns:xlink="http://www.w3.org/1999/xlink" x="0px" y="0px" viewBox="0 0 804 536.1"
	 style="enable-background:new 0 0 804 536.1;" xml:space="preserve">
<style type="text/css">
	.st0{fill:#072133;}
	.st1{fill:#0C3049;}
	.st2{fill:#124365;}
	.st3{fill:#366F96;}
	.st4{fill:#E2EFFF;}
	.st5{fill:#ABC0DA;}
	.st6{fill:#18537C;}
	.st7{fill:#103A57;}
</style>
<g>
	<polygon class="st0" points="784,12.1 780,12.1 776,12.1 772,12.1 768,12.1 764,12.1 760,12.1 756,12.1 752,12.1 748,12.1 
		744,12.1 740,12.1 736,12.1 732,12.1 728,12.1 724,12.1 720,12.1 716,12.1 712,12.1 708,12.1 704,12.1 700,12.1 696,12.1 692,12.1 
		688,12.1 684,12.1 680,12.1 676,12.1 672,12.1 668,12.1 664,12.1 660,12.1 656,12.1 652,12.1 648,12.1 644,12.1 640,12.1 636,12.1 
		632,12.1 628,12.1 624,12.1 620,12.1 616,12.1 612,12.1 608,12.1 604,12.1 600,12.1 596,12.1 592,12.1 588,12.1 584,12.1 580,12.1 
		576,12.1 572,12.1 568,12.1 564,12.1 560,12.1 556,12.1 552,12.1 548,12.1 544,12.1 540,12.1 536,12.1 532,12.1 528,12.1 524,12.1 
		520,12.1 516,12.1 512,12.1 508,12.1 504,12.1 500,12.1 496,12.1 492,12.1 488,12.1 484,12.1 480,12.1 476,12.1 472,12.1 468,12.1 
		464,12.1 460,12.1 456,12.1 452,12.1 448,12.1 444,12.1 440,12.1 436,12.1 432,12.1 428,12.1 424,12.1 420,12.1 416,12.1 412,12.1 
		408,12.1 404,12.1 400,12.1 396,12.1 392,12.1 388,12.1 384,12.1 380,12.1 376,12.1 372,12.1 368,12.1 364,12.1 360,12.1 356,12.1 
		352,12.1 348,12.1 344,12.1 340,12.1 336,12.1 332,12.1 328,12.1 324,12.1 320,12.1 316,12.1 312,12.1 308,12.1 304,12.1 300,12.1 
		296,12.1 292,12.1 288,12.1 284,12.1 280,12.1 276,12.1 272,12.1 268,12.1 264,12.1 260,12.1 256,12.1 252,12.1 248,12.1 244,12.1 
		240,12.1 236,12.1 232,12.1 228,12.1 224,12.1 220,12.1 216,12.1 212,12.1 208,12.1 204,12.1 200,12.1 196,12.1 192,12.1 188,12.1 
		184,12.1 180,12.1 176,12.1 172,12.1 168,12.1 164,12.1 160,12.1 156,12.1 152,12.1 148,12.1 144,12.1 140,12.1 136,12.1 132,12.1 
		128,12.1 124,12.1 120,12.1 116,12.1 112,12.1 108,12.1 104,12.1 100,12.1 96,12.1 92,12.1 88,12.1 84,12.1 80,12.1 76,12.1 
		72,12.1 68,12.1 64,12.1 60,12.1 56,12.1 52,12.1 48,12.1 44,12.1 40,12.1 36,12.1 32,12.1 28,12.1 24,12.1 20,12.1 20,16.1 
		16,16.1 16,20.1 12,20.1 12,24.1 12,28.1 12,32.1 12,36.1 12,40.1 12,44.1 12,48.1 12,52.1 12,56.1 12,60.1 12,64.1 12,68.1 
		12,72.1 12,76.1 12,80.1 12,84.1 12,88.1 12,92.1 12,96.1 12,100.1 12,104.1 12,108.1 12,112.1 12,116.1 12,120.1 12,124.1 
		12,128.1 12,132.1 12,136.1 12,140.1 12,144.1 12,148.1 12,152.1 12,156.1 12,160.1 12,164.1 12,168.1 12,172.1 12,176.1 12,180.1 
		12,184.1 12,188.1 12,192.1 12,196.1 12,200.1 12,204.1 12,208.1 12,212.1 12,216.1 12,220.1 12,224.1 12,228.1 12,232.1 12,236.1 
		12,240.1 12,244.1 12,248.1 12,252.1 12,256.1 12,260.1 12,264.1 12,268.1 12,272.1 12,276.1 12,280.1 12,284.1 12,288.1 12,292.1 
		12,296.1 12,300.1 12,304.1 12,308.1 12,312.1 12,316.1 12,320.1 12,324.1 12,328.1 12,332.1 12,336.1 12,340.1 12,344.1 12,348.1 
		12,352.1 12,356.1 12,360.1 12,364.1 12,368.1 12,372.1 12,376.1 12,380.1 12,384.1 12,388.1 12,392.1 12,396.1 12,400.1 12,404.1 
		12,408.1 12,412.1 12,416.1 12,420.1 12,424.1 12,428.1 12,432.1 12,436.1 12,440.1 12,444.1 12,448.1 12,452.1 12,456.1 12,460.1 
		12,464.1 12,468.1 12,472.1 12,476.1 12,480.1 12,484.1 12,488.1 12,492.1 12,496.1 12,500.1 12,504.1 12,508.1 12,512.1 16,512.1 
		16,508.1 16,504.1 16,500.1 16,496.1 16,492.1 16,488.1 16,484.1 16,480.1 16,476.1 16,472.1 16,468.1 16,464.1 16,460.1 16,456.1 
		16,452.1 16,448.1 16,444.1 16,440.1 16,436.1 16,432.1 16,428.1 16,424.1 16,420.1 16,416.1 16,412.1 16,408.1 16,404.1 16,400.1 
		16,396.1 16,392.1 16,388.1 16,384.1 16,380.1 16,376.1 16,372.1 16,368.1 16,364.1 16,360.1 16,356.1 16,352.1 16,348.1 16,344.1 
		16,340.1 16,336.1 16,332.1 16,328.1 16,324.1 16,320.1 16,316.1 16,312.1 16,308.1 16,304.1 16,300.1 16,296.1 16,292.1 16,288.1 
		16,284.1 16,280.1 16,276.1 16,272.1 16,268.1 16,264.1 16,260.1 16,256.1 16,252.1 16,248.1 16,244.1 16,240.1 16,236.1 16,232.1 
		16,228.1 16,224.1 16,220.1 16,216.1 16,212.1 16,208.1 16,204.1 16,200.1 16,196.1 16,192.1 16,188.1 16,184.1 16,180.1 16,176.1 
		16,172.1 16,168.1 16,164.1 16,160.1 16,156.1 16,152.1 16,148.1 16,144.1 16,140.1 16,136.1 16,132.1 16,128.1 16,124.1 16,120.1 
		16,116.1 16,112.1 16,108.1 16,104.1 16,100.1 16,96.1 16,92.1 16,88.1 16,84.1 16,80.1 16,76.1 16,72.1 16,68.1 16,64.1 16,60.1 
		16,56.1 16,52.1 16,48.1 16,44.1 16,40.1 16,36.1 16,32.1 16,28.1 16,24.1 20,24.1 20,20.1 24,20.1 24,16.1 28,16.1 32,16.1 
		36,16.1 40,16.1 44,16.1 48,16.1 52,16.1 56,16.1 60,16.1 64,16.1 68,16.1 72,16.1 76,16.1 80,16.1 84,16.1 88,16.1 92,16.1 
		96,16.1 100,16.1 104,16.1 108,16.1 112,16.1 116,16.1 120,16.1 124,16.1 128,16.1 132,16.1 136,16.1 140,16.1 144,16.1 148,16.1 
		152,16.1 156,16.1 160,16.1 164,16.1 168,16.1 172,16.1 176,16.1 180,16.1 184,16.1 188,16.1 192,16.1 196,16.1 200,16.1 204,16.1 
		208,16.1 212,16.1 216,16.1 220,16.1 224,16.1 228,16.1 232,16.1 236,16.1 240,16.1 244,16.1 248,16.1 252,16.1 256,16.1 260,16.1 
		264,16.1 268,16.1 272,16.1 276,16.1 280,16.1 284,16.1 288,16.1 292,16.1 296,16.1 300,16.1 304,16.1 308,16.1 312,16.1 316,16.1 
		320,16.1 324,16.1 328,16.1 332,16.1 336,16.1 340,16.1 344,16.1 348,16.1 352,16.1 356,16.1 360,16.1 364,16.1 368,16.1 372,16.1 
		376,16.1 380,16.1 384,16.1 388,16.1 392,16.1 396,16.1 400,16.1 404,16.1 408,16.1 412,16.1 416,16.1 420,16.1 424,16.1 428,16.1 
		432,16.1 436,16.1 440,16.1 444,16.1 448,16.1 452,16.1 456,16.1 460,16.1 464,16.1 468,16.1 472,16.1 476,16.1 480,16.1 484,16.1 
		488,16.1 492,16.1 496,16.1 500,16.1 504,16.1 508,16.1 512,16.1 516,16.1 520,16.1 524,16.1 528,16.1 532,16.1 536,16.1 540,16.1 
		544,16.1 548,16.1 552,16.1 556,16.1 560,16.1 564,16.1 568,16.1 572,16.1 576,16.1 580,16.1 584,16.1 588,16.1 592,16.1 596,16.1 
		600,16.1 604,16.1 608,16.1 612,16.1 616,16.1 620,16.1 624,16.1 628,16.1 632,16.1 636,16.1 640,16.1 644,16.1 648,16.1 652,16.1 
		656,16.1 660,16.1 664,16.1 668,16.1 672,16.1 676,16.1 680,16.1 684,16.1 688,16.1 692,16.1 696,16.1 700,16.1 704,16.1 708,16.1 
		712,16.1 716,16.1 720,16.1 724,16.1 728,16.1 732,16.1 736,16.1 740,16.1 744,16.1 748,16.1 752,16.1 756,16.1 760,16.1 764,16.1 
		768,16.1 772,16.1 776,16.1 780,16.1 784,16.1 788,16.1 788,12.1 	"/>
	<rect x="16" y="512.1" class="st0" width="4" height="4"/>
</g>
<polygon class="st1" points="324,16.1 320,16.1 316,16.1 312,16.1 308,16.1 304,16.1 300,16.1 296,16.1 292,16.1 288,16.1 284,16.1 
	280,16.1 276,16.1 272,16.1 268,16.1 264,16.1 260,16.1 256,16.1 252,16.1 248,16.1 244,16.1 240,16.1 236,16.1 232,16.1 228,16.1 
	224,16.1 220,16.1 216,16.1 212,16.1 208,16.1 204,16.1 200,16.1 196,16.1 192,16.1 188,16.1 184,16.1 180,16.1 176,16.1 172,16.1 
	168,16.1 164,16.1 160,16.1 156,16.1 152,16.1 148,16.1 144,16.1 140,16.1 136,16.1 132,16.1 128,16.1 124,16.1 120,16.1 116,16.1 
	112,16.1 108,16.1 104,16.1 100,16.1 96,16.1 92,16.1 88,16.1 84,16.1 80,16.1 76,16.1 72,16.1 68,16.1 64,16.1 60,16.1 56,16.1 
	52,16.1 48,16.1 44,16.1 40,16.1 36,16.1 32,16.1 28,16.1 24,16.1 24,20.1 20,20.1 20,24.1 16,24.1 16,28.1 16,32.1 16,36.1 
	16,40.1 16,44.1 16,48.1 16,52.1 16,56.1 16,60.1 16,64.1 16,68.1 16,72.1 16,76.1 16,80.1 16,84.1 16,88.1 16,92.1 16,96.1 
	16,100.1 16,104.1 16,108.1 16,112.1 16,116.1 16,120.1 16,124.1 16,128.1 16,132.1 16,136.1 16,140.1 16,144.1 16,148.1 16,152.1 
	16,156.1 16,160.1 16,164.1 16,168.1 16,172.1 16,176.1 16,180.1 16,184.1 16,188.1 16,192.1 16,196.1 16,200.1 16,204.1 16,208.1 
	16,212.1 16,216.1 16,220.1 16,224.1 16,228.1 16,232.1 16,236.1 16,240.1 16,244.1 16,248.1 16,252.1 16,256.1 16,260.1 16,264.1 
	16,268.1 16,272.1 16,276.1 16,280.1 16,284.1 16,288.1 16,292.1 16,296.1 16,300.1 16,304.1 16,308.1 16,312.1 16,316.1 16,320.1 
	16,324.1 16,328.1 16,332.1 16,336.1 16,340.1 16,344.1 16,348.1 16,352.1 16,356.1 16,360.1 16,364.1 16,368.1 16,372.1 16,376.1 
	16,380.1 16,384.1 16,388.1 16,392.1 16,396.1 16,400.1 16,404.1 16,408.1 16,412.1 16,416.1 16,420.1 16,424.1 16,428.1 16,432.1 
	16,436.1 16,440.1 16,444.1 16,448.1 16,452.1 16,456.1 16,460.1 16,464.1 16,468.1 16,472.1 16,476.1 16,480.1 16,484.1 16,488.1 
	16,492.1 16,496.1 16,500.1 16,504.1 16,508.1 16,512.1 20,512.1 20,516.1 16,516.1 16,512.1 12,512.1 12,516.1 12,520.1 16,520.1 
	20,520.1 24,520.1 28,520.1 32,520.1 32,516.1 28,516.1 28,512.1 24,512.1 24,508.1 24,504.1 24,500.1 24,496.1 24,492.1 24,488.1 
	24,484.1 24,480.1 24,476.1 24,472.1 24,468.1 24,464.1 24,460.1 24,456.1 24,452.1 24,448.1 24,444.1 24,440.1 24,436.1 24,432.1 
	24,428.1 24,424.1 24,420.1 24,416.1 24,412.1 24,408.1 24,404.1 24,400.1 24,396.1 24,392.1 24,388.1 24,384.1 24,380.1 24,376.1 
	24,372.1 24,368.1 24,364.1 24,360.1 24,356.1 24,352.1 24,348.1 24,344.1 24,340.1 24,336.1 24,332.1 24,328.1 24,324.1 24,320.1 
	24,316.1 24,312.1 24,308.1 24,304.1 24,300.1 24,296.1 24,292.1 24,288.1 24,284.1 24,280.1 24,276.1 24,272.1 24,268.1 24,264.1 
	24,260.1 24,256.1 24,252.1 24,248.1 24,244.1 24,240.1 24,236.1 24,232.1 24,228.1 24,224.1 24,220.1 24,216.1 24,212.1 24,208.1 
	24,204.1 24,200.1 24,196.1 24,192.1 24,188.1 24,184.1 24,180.1 24,176.1 24,172.1 24,168.1 24,164.1 24,160.1 24,156.1 24,152.1 
	24,148.1 24,144.1 24,140.1 24,136.1 24,132.1 24,128.1 24,124.1 24,120.1 24,116.1 24,112.1 24,108.1 24,104.1 24,100.1 24,96.1 
	24,92.1 24,88.1 24,84.1 24,80.1 24,76.1 24,72.1 24,68.1 24,64.1 24,60.1 24,56.1 24,52.1 24,48.1 24,44.1 24,40.1 24,36.1 
	24,32.1 28,32.1 28,28.1 32,28.1 32,24.1 36,24.1 40,24.1 44,24.1 48,24.1 52,24.1 56,24.1 60,24.1 64,24.1 68,24.1 72,24.1 
	76,24.1 80,24.1 84,24.1 88,24.1 92,24.1 96,24.1 100,24.1 104,24.1 108,24.1 112,24.1 116,24.1 120,24.1 124,24.1 128,24.1 
	132,24.1 136,24.1 140,24.1 144,24.1 148,24.1 152,24.1 156,24.1 160,24.1 164,24.1 168,24.1 172,24.1 176,24.1 180,24.1 184,24.1 
	188,24.1 192,24.1 196,24.1 200,24.1 204,24.1 208,24.1 212,24.1 216,24.1 220,24.1 224,24.1 228,24.1 232,24.1 236,24.1 240,24.1 
	244,24.1 248,24.1 252,24.1 256,24.1 260,24.1 264,24.1 268,24.1 272,24.1 276,24.1 280,24.1 284,24.1 288,24.1 292,24.1 296,24.1 
	300,24.1 304,24.1 308,24.1 312,24.1 316,24.1 320,24.1 324,24.1 328,24.1 328,20.1 328,16.1 "/>
<polygon class="st2" points="784,28.1 784,24.1 780,24.1 776,24.1 772,24.1 768,24.1 764,24.1 760,24.1 756,24.1 752,24.1 748,24.1 
	744,24.1 740,24.1 736,24.1 732,24.1 728,24.1 724,24.1 720,24.1 716,24.1 712,24.1 708,24.1 704,24.1 700,24.1 696,24.1 692,24.1 
	688,24.1 684,24.1 680,24.1 676,24.1 672,24.1 668,24.1 664,24.1 660,24.1 656,24.1 652,24.1 648,24.1 644,24.1 640,24.1 636,24.1 
	632,24.1 628,24.1 624,24.1 620,24.1 616,24.1 612,24.1 608,24.1 604,24.1 600,24.1 596,24.1 592,24.1 588,24.1 584,24.1 580,24.1 
	576,24.1 572,24.1 568,24.1 564,24.1 560,24.1 556,24.1 552,24.1 548,24.1 544,24.1 540,24.1 536,24.1 532,24.1 528,24.1 524,24.1 
	520,24.1 516,24.1 512,24.1 508,24.1 504,24.1 500,24.1 496,24.1 492,24.1 488,24.1 484,24.1 480,24.1 476,24.1 472,24.1 468,24.1 
	464,24.1 460,24.1 456,24.1 452,24.1 448,24.1 444,24.1 440,24.1 436,24.1 432,24.1 428,24.1 424,24.1 420,24.1 416,24.1 412,24.1 
	408,24.1 404,24.1 400,24.1 396,24.1 392,24.1 388,24.1 384,24.1 380,24.1 376,24.1 372,24.1 368,24.1 364,24.1 360,24.1 356,24.1 
	352,24.1 348,24.1 344,24.1 340,24.1 336,24.1 332,24.1 328,24.1 328,28.1 332,28.1 332,32.1 336,32.1 336,36.1 336,40.1 340,40.1 
	340,44.1 340,48.1 344,48.1 344,52.1 344,56.1 348,56.1 348,60.1 348,64.1 352,64.1 352,68.1 352,72.1 356,72.1 356,76.1 356,80.1 
	356,84.1 360,84.1 360,88.1 360,92.1 364,92.1 364,96.1 364,100.1 368,100.1 368,104.1 368,108.1 372,108.1 372,112.1 372,116.1 
	376,116.1 376,120.1 376,124.1 380,124.1 380,128.1 380,132.1 380,136.1 384,136.1 384,140.1 384,144.1 388,144.1 388,148.1 
	388,152.1 392,152.1 392,156.1 392,160.1 396,160.1 396,164.1 396,168.1 400,168.1 400,172.1 400,176.1 400,180.1 404,180.1 
	404,184.1 404,188.1 408,188.1 408,192.1 408,196.1 412,196.1 412,200.1 412,204.1 416,204.1 416,208.1 416,212.1 420,212.1 
	420,216.1 420,220.1 420,224.1 424,224.1 424,228.1 424,232.1 428,232.1 428,236.1 428,240.1 432,240.1 432,244.1 432,248.1 
	436,248.1 436,252.1 436,256.1 440,256.1 440,260.1 440,264.1 440,268.1 444,268.1 444,272.1 444,276.1 448,276.1 448,280.1 
	448,284.1 452,284.1 452,288.1 452,292.1 456,292.1 456,296.1 456,300.1 460,300.1 460,304.1 460,308.1 464,308.1 464,312.1 
	464,316.1 464,320.1 468,320.1 468,324.1 468,328.1 472,328.1 472,332.1 472,336.1 476,336.1 476,340.1 476,344.1 476,348.1 
	480,348.1 480,352.1 480,356.1 484,356.1 484,360.1 484,364.1 484,368.1 488,368.1 488,372.1 488,376.1 492,376.1 492,380.1 
	492,384.1 492,388.1 496,388.1 496,392.1 496,396.1 500,396.1 500,400.1 500,404.1 500,408.1 504,408.1 504,412.1 504,416.1 
	508,416.1 508,420.1 508,424.1 512,424.1 512,428.1 512,432.1 512,436.1 516,436.1 516,440.1 516,444.1 520,444.1 520,448.1 
	520,452.1 520,456.1 524,456.1 524,460.1 524,464.1 528,464.1 528,468.1 528,472.1 528,476.1 532,476.1 532,480.1 532,484.1 
	536,484.1 536,488.1 536,492.1 540,492.1 540,496.1 540,500.1 540,504.1 544,504.1 544,508.1 544,512.1 548,512.1 548,516.1 
	548,520.1 552,520.1 556,520.1 560,520.1 564,520.1 568,520.1 572,520.1 576,520.1 580,520.1 584,520.1 588,520.1 592,520.1 
	596,520.1 600,520.1 604,520.1 608,520.1 612,520.1 616,520.1 620,520.1 624,520.1 628,520.1 632,520.1 636,520.1 640,520.1 
	644,520.1 648,520.1 652,520.1 656,520.1 660,520.1 664,520.1 668,520.1 672,520.1 676,520.1 680,520.1 684,520.1 688,520.1 
	692,520.1 696,520.1 700,520.1 704,520.1 708,520.1 712,520.1 716,520.1 720,520.1 724,520.1 728,520.1 732,520.1 736,520.1 
	740,520.1 744,520.1 748,520.1 752,520.1 756,520.1 760,520.1 764,520.1 768,520.1 772,520.1 776,520.1 776,516.1 780,516.1 
	784,516.1 784,512.1 784,508.1 788,508.1 788,504.1 788,500.1 788,496.1 788,492.1 788,488.1 788,484.1 788,480.1 788,476.1 
	788,472.1 788,468.1 788,464.1 788,460.1 788,456.1 788,452.1 788,448.1 788,444.1 788,440.1 788,436.1 788,432.1 788,428.1 
	788,424.1 788,420.1 788,416.1 788,412.1 788,408.1 788,404.1 788,400.1 788,396.1 788,392.1 788,388.1 788,384.1 788,380.1 
	788,376.1 788,372.1 788,368.1 788,364.1 788,360.1 788,356.1 788,352.1 788,348.1 788,344.1 788,340.1 788,336.1 788,332.1 
	788,328.1 788,324.1 788,320.1 788,316.1 788,312.1 788,308.1 788,304.1 788,300.1 788,296.1 788,292.1 788,288.1 788,284.1 
	788,280.1 788,276.1 788,272.1 788,268.1 788,264.1 788,260.1 788,256.1 788,252.1 788,248.1 788,244.1 788,240.1 788,236.1 
	788,232.1 788,228.1 788,224.1 788,220.1 788,216.1 788,212.1 788,208.1 788,204.1 788,200.1 788,196.1 788,192.1 788,188.1 
	788,184.1 788,180.1 788,176.1 788,172.1 788,168.1 788,164.1 788,160.1 788,156.1 788,152.1 788,148.1 788,144.1 788,140.1 
	788,136.1 788,132.1 788,128.1 788,124.1 788,120.1 788,116.1 788,112.1 788,108.1 788,104.1 788,100.1 788,96.1 788,92.1 788,88.1 
	788,84.1 788,80.1 788,76.1 788,72.1 788,68.1 788,64.1 788,60.1 788,56.1 788,52.1 788,48.1 788,44.1 788,40.1 788,36.1 788,32.1 
	788,28.1 "/>
<g>
	<polygon class="st3" points="28,4.1 32,4.1 36,4.1 40,4.1 44,4.1 48,4.1 52,4.1 56,4.1 60,4.1 64,4.1 68,4.1 72,4.1 76,4.1 80,4.1 
		84,4.1 88,4.1 92,4.1 96,4.1 100,4.1 104,4.1 108,4.1 112,4.1 116,4.1 120,4.1 124,4.1 128,4.1 132,4.1 136,4.1 140,4.1 144,4.1 
		148,4.1 152,4.1 156,4.1 160,4.1 164,4.1 168,4.1 172,4.1 176,4.1 180,4.1 184,4.1 188,4.1 192,4.1 196,4.1 200,4.1 204,4.1 
		208,4.1 212,4.1 216,4.1 220,4.1 224,4.1 228,4.1 232,4.1 236,4.1 240,4.1 244,4.1 248,4.1 252,4.1 256,4.1 260,4.1 264,4.1 
		268,4.1 272,4.1 276,4.1 280,4.1 284,4.1 288,4.1 292,4.1 296,4.1 300,4.1 304,4.1 308,4.1 312,4.1 316,4.1 320,4.1 324,4.1 
		328,4.1 332,4.1 336,4.1 340,4.1 344,4.1 348,4.1 352,4.1 356,4.1 360,4.1 364,4.1 368,4.1 372,4.1 376,4.1 380,4.1 384,4.1 
		388,4.1 392,4.1 396,4.1 400,4.1 404,4.1 408,4.1 412,4.1 416,4.1 420,4.1 424,4.1 428,4.1 432,4.1 436,4.1 440,4.1 444,4.1 
		448,4.1 452,4.1 456,4.1 460,4.1 464,4.1 468,4.1 472,4.1 476,4.1 480,4.1 484,4.1 488,4.1 492,4.1 496,4.1 500,4.1 504,4.1 
		508,4.1 512,4.1 516,4.1 520,4.1 524,4.1 528,4.1 532,4.1 536,4.1 540,4.1 544,4.1 548,4.1 552,4.1 556,4.1 560,4.1 564,4.1 
		568,4.1 572,4.1 576,4.1 580,4.1 584,4.1 588,4.1 592,4.1 596,4.1 600,4.1 604,4.1 608,4.1 612,4.1 616,4.1 620,4.1 624,4.1 
		628,4.1 632,4.1 636,4.1 640,4.1 644,4.1 648,4.1 652,4.1 656,4.1 660,4.1 664,4.1 668,4.1 672,4.1 676,4.1 680,4.1 684,4.1 
		688,4.1 692,4.1 696,4.1 700,4.1 704,4.1 708,4.1 712,4.1 716,4.1 720,4.1 724,4.1 728,4.1 732,4.1 736,4.1 740,4.1 744,4.1 
		748,4.1 752,4.1 756,4.1 760,4.1 764,4.1 768,4.1 772,4.1 776,4.1 780,4.1 784,4.1 784,0.1 780,0.1 776,0.1 772,0.1 768,0.1 
		764,0.1 760,0.1 756,0.1 752,0.1 748,0.1 744,0.1 740,0.1 736,0.1 732,0.1 728,0.1 724,0.1 720,0.1 716,0.1 712,0.1 708,0.1 
		704,0.1 700,0.1 696,0.1 692,0.1 688,0.1 684,0.1 680,0.1 676,0.1 672,0.1 668,0.1 664,0.1 660,0.1 656,0.1 652,0.1 648,0.1 
		644,0.1 640,0.1 636,0.1 632,0.1 628,0.1 624,0.1 620,0.1 616,0.1 612,0.1 608,0.1 604,0.1 600,0.1 596,0.1 592,0.1 588,0.1 
		584,0.1 580,0.1 576,0.1 572,0.1 568,0.1 564,0.1 560,0.1 556,0.1 552,0.1 548,0.1 544,0.1 540,0.1 536,0.1 532,0.1 528,0.1 
		524,0.1 520,0.1 516,0.1 512,0.1 508,0.1 504,0.1 500,0.1 496,0.1 492,0.1 488,0.1 484,0.1 480,0.1 476,0.1 472,0.1 468,0.1 
		464,0.1 460,0.1 456,0.1 452,0.1 448,0.1 444,0.1 440,0.1 436,0.1 432,0.1 428,0.1 424,0.1 420,0.1 416,0.1 412,0.1 408,0.1 
		404,0.1 400,0.1 396,0.1 392,0.1 388,0.1 384,0.1 380,0.1 376,0.1 372,0.1 368,0.1 364,0.1 360,0.1 356,0.1 352,0.1 348,0.1 
		344,0.1 340,0.1 336,0.1 332,0.1 328,0.1 324,0.1 320,0.1 316,0.1 312,0.1 308,0.1 304,0.1 300,0.1 296,0.1 292,0.1 288,0.1 
		284,0.1 280,0.1 276,0.1 272,0.1 268,0.1 264,0.1 260,0.1 256,0.1 252,0.1 248,0.1 244,0.1 240,0.1 236,0.1 232,0.1 228,0.1 
		224,0.1 220,0.1 216,0.1 212,0.1 208,0.1 204,0.1 200,0.1 196,0.1 192,0.1 188,0.1 184,0.1 180,0.1 176,0.1 172,0.1 168,0.1 
		164,0.1 160,0.1 156,0.1 152,0.1 148,0.1 144,0.1 140,0.1 136,0.1 132,0.1 128,0.1 124,0.1 120,0.1 116,0.1 112,0.1 108,0.1 
		104,0.1 100,0.1 96,0.1 92,0.1 88,0.1 84,0.1 80,0.1 76,0.1 72,0.1 68,0.1 64,0.1 60,0.1 56,0.1 52,0.1 48,0.1 44,0.1 40,0.1 
		36,0.1 32,0.1 28,0.1 24,0.1 20,0.1 20,4.1 24,4.1 	"/>
	<polygon class="st3" points="20,8.1 20,4.1 16,4.1 12,4.1 12,8.1 16,8.1 	"/>
	<rect x="788" y="4.1" class="st3" width="4" height="4"/>
	<rect x="8" y="8.1" class="st3" width="4" height="4"/>
	<rect x="784" y="8.1" class="st3" width="4" height="4"/>
	<polygon class="st3" points="792,8.1 792,12.1 792,16.1 796,16.1 796,12.1 796,8.1 	"/>
	<polygon class="st3" points="8,16.1 8,12.1 4,12.1 4,16.1 4,20.1 8,20.1 	"/>
	<polygon class="st3" points="788,20.1 788,24.1 788,28.1 788,32.1 788,36.1 788,40.1 788,44.1 788,48.1 788,52.1 788,56.1 
		788,60.1 788,64.1 788,68.1 788,72.1 788,76.1 788,80.1 788,84.1 788,88.1 788,92.1 788,96.1 788,100.1 788,104.1 788,108.1 
		788,112.1 788,116.1 788,120.1 788,124.1 788,128.1 788,132.1 788,136.1 788,140.1 788,144.1 788,148.1 788,152.1 788,156.1 
		788,160.1 788,164.1 788,168.1 788,172.1 788,176.1 788,180.1 788,184.1 788,188.1 788,192.1 788,196.1 788,200.1 788,204.1 
		788,208.1 788,212.1 788,216.1 788,220.1 788,224.1 788,228.1 788,232.1 788,236.1 788,240.1 788,244.1 788,248.1 788,252.1 
		788,256.1 788,260.1 788,264.1 788,268.1 788,272.1 788,276.1 788,280.1 788,284.1 788,288.1 788,292.1 788,296.1 788,300.1 
		788,304.1 788,308.1 788,312.1 788,316.1 788,320.1 788,324.1 788,328.1 788,332.1 788,336.1 788,340.1 788,344.1 788,348.1 
		788,352.1 788,356.1 788,360.1 788,364.1 788,368.1 788,372.1 788,376.1 788,380.1 788,384.1 788,388.1 788,392.1 788,396.1 
		788,400.1 788,404.1 788,408.1 788,412.1 788,416.1 788,420.1 788,424.1 788,428.1 788,432.1 788,436.1 788,440.1 788,444.1 
		788,448.1 788,452.1 788,456.1 788,460.1 788,464.1 788,468.1 788,472.1 788,476.1 788,480.1 788,484.1 788,488.1 788,492.1 
		788,496.1 788,500.1 788,504.1 788,508.1 792,508.1 792,504.1 792,500.1 792,496.1 792,492.1 792,488.1 792,484.1 792,480.1 
		792,476.1 792,472.1 792,468.1 792,464.1 792,460.1 792,456.1 792,452.1 792,448.1 792,444.1 792,440.1 792,436.1 792,432.1 
		792,428.1 792,424.1 792,420.1 792,416.1 792,412.1 792,408.1 792,404.1 792,400.1 792,396.1 792,392.1 792,388.1 792,384.1 
		792,380.1 792,376.1 792,372.1 792,368.1 792,364.1 792,360.1 792,356.1 792,352.1 792,348.1 792,344.1 792,340.1 792,336.1 
		792,332.1 792,328.1 792,324.1 792,320.1 792,316.1 792,312.1 792,308.1 792,304.1 792,300.1 792,296.1 792,292.1 792,288.1 
		792,284.1 792,280.1 792,276.1 792,272.1 792,268.1 792,264.1 792,260.1 792,256.1 792,252.1 792,248.1 792,244.1 792,240.1 
		792,236.1 792,232.1 792,228.1 792,224.1 792,220.1 792,216.1 792,212.1 792,208.1 792,204.1 792,200.1 792,196.1 792,192.1 
		792,188.1 792,184.1 792,180.1 792,176.1 792,172.1 792,168.1 792,164.1 792,160.1 792,156.1 792,152.1 792,148.1 792,144.1 
		792,140.1 792,136.1 792,132.1 792,128.1 792,124.1 792,120.1 792,116.1 792,112.1 792,108.1 792,104.1 792,100.1 792,96.1 
		792,92.1 792,88.1 792,84.1 792,80.1 792,76.1 792,72.1 792,68.1 792,64.1 792,60.1 792,56.1 792,52.1 792,48.1 792,44.1 792,40.1 
		792,36.1 792,32.1 792,28.1 792,24.1 792,20.1 792,16.1 788,16.1 	"/>
	<polygon class="st3" points="784,512.1 784,516.1 788,516.1 788,512.1 788,508.1 784,508.1 	"/>
	<polygon class="st3" points="8,512.1 4,512.1 4,508.1 4,504.1 4,500.1 4,496.1 4,492.1 4,488.1 4,484.1 4,480.1 4,476.1 4,472.1 
		4,468.1 4,464.1 4,460.1 4,456.1 4,452.1 4,448.1 4,444.1 4,440.1 4,436.1 4,432.1 4,428.1 4,424.1 4,420.1 4,416.1 4,412.1 
		4,408.1 4,404.1 4,400.1 4,396.1 4,392.1 4,388.1 4,384.1 4,380.1 4,376.1 4,372.1 4,368.1 4,364.1 4,360.1 4,356.1 4,352.1 
		4,348.1 4,344.1 4,340.1 4,336.1 4,332.1 4,328.1 4,324.1 4,320.1 4,316.1 4,312.1 4,308.1 4,304.1 4,300.1 4,296.1 4,292.1 
		4,288.1 4,284.1 4,280.1 4,276.1 4,272.1 4,268.1 4,264.1 4,260.1 4,256.1 4,252.1 4,248.1 4,244.1 4,240.1 4,236.1 4,232.1 
		4,228.1 4,224.1 4,220.1 4,216.1 4,212.1 4,208.1 4,204.1 4,200.1 4,196.1 4,192.1 4,188.1 4,184.1 4,180.1 4,176.1 4,172.1 
		4,168.1 4,164.1 4,160.1 4,156.1 4,152.1 4,148.1 4,144.1 4,140.1 4,136.1 4,132.1 4,128.1 4,124.1 4,120.1 4,116.1 4,112.1 
		4,108.1 4,104.1 4,100.1 4,96.1 4,92.1 4,88.1 4,84.1 4,80.1 4,76.1 4,72.1 4,68.1 4,64.1 4,60.1 4,56.1 4,52.1 4,48.1 4,44.1 
		4,40.1 4,36.1 4,32.1 4,28.1 4,24.1 4,20.1 0,20.1 0,24.1 0,28.1 0,32.1 0,36.1 0,40.1 0,44.1 0,48.1 0,52.1 0,56.1 0,60.1 0,64.1 
		0,68.1 0,72.1 0,76.1 0,80.1 0,84.1 0,88.1 0,92.1 0,96.1 0,100.1 0,104.1 0,108.1 0,112.1 0,116.1 0,120.1 0,124.1 0,128.1 
		0,132.1 0,136.1 0,140.1 0,144.1 0,148.1 0,152.1 0,156.1 0,160.1 0,164.1 0,168.1 0,172.1 0,176.1 0,180.1 0,184.1 0,188.1 
		0,192.1 0,196.1 0,200.1 0,204.1 0,208.1 0,212.1 0,216.1 0,220.1 0,224.1 0,228.1 0,232.1 0,236.1 0,240.1 0,244.1 0,248.1 
		0,252.1 0,256.1 0,260.1 0,264.1 0,268.1 0,272.1 0,276.1 0,280.1 0,284.1 0,288.1 0,292.1 0,296.1 0,300.1 0,304.1 0,308.1 
		0,312.1 0,316.1 0,320.1 0,324.1 0,328.1 0,332.1 0,336.1 0,340.1 0,344.1 0,348.1 0,352.1 0,356.1 0,360.1 0,364.1 0,368.1 
		0,372.1 0,376.1 0,380.1 0,384.1 0,388.1 0,392.1 0,396.1 0,400.1 0,404.1 0,408.1 0,412.1 0,416.1 0,420.1 0,424.1 0,428.1 
		0,432.1 0,436.1 0,440.1 0,444.1 0,448.1 0,452.1 0,456.1 0,460.1 0,464.1 0,468.1 0,472.1 0,476.1 0,480.1 0,484.1 0,488.1 
		0,492.1 0,496.1 0,500.1 0,504.1 0,508.1 0,512.1 0,516.1 4,516.1 4,520.1 8,520.1 8,516.1 	"/>
	<polygon class="st3" points="776,516.1 776,520.1 780,520.1 784,520.1 784,516.1 780,516.1 	"/>
	<rect x="8" y="520.1" class="st3" width="4" height="4"/>
	<polygon class="st3" points="768,520.1 764,520.1 760,520.1 756,520.1 752,520.1 748,520.1 744,520.1 740,520.1 736,520.1 
		732,520.1 728,520.1 724,520.1 720,520.1 716,520.1 712,520.1 708,520.1 704,520.1 700,520.1 696,520.1 692,520.1 688,520.1 
		684,520.1 680,520.1 676,520.1 672,520.1 668,520.1 664,520.1 660,520.1 656,520.1 652,520.1 648,520.1 644,520.1 640,520.1 
		636,520.1 632,520.1 628,520.1 624,520.1 620,520.1 616,520.1 612,520.1 608,520.1 604,520.1 600,520.1 596,520.1 592,520.1 
		588,520.1 584,520.1 580,520.1 576,520.1 572,520.1 568,520.1 564,520.1 560,520.1 556,520.1 552,520.1 548,520.1 544,520.1 
		540,520.1 536,520.1 532,520.1 528,520.1 524,520.1 520,520.1 516,520.1 512,520.1 508,520.1 504,520.1 500,520.1 496,520.1 
		492,520.1 488,520.1 484,520.1 480,520.1 476,520.1 472,520.1 468,520.1 464,520.1 460,520.1 456,520.1 452,520.1 448,520.1 
		444,520.1 440,520.1 436,520.1 432,520.1 428,520.1 424,520.1 420,520.1 416,520.1 412,520.1 408,520.1 404,520.1 400,520.1 
		396,520.1 392,520.1 388,520.1 384,520.1 380,520.1 376,520.1 372,520.1 368,520.1 364,520.1 360,520.1 356,520.1 352,520.1 
		348,520.1 344,520.1 340,520.1 336,520.1 332,520.1 328,520.1 324,520.1 320,520.1 316,520.1 312,520.1 308,520.1 304,520.1 
		300,520.1 296,520.1 292,520.1 288,520.1 284,520.1 280,520.1 276,520.1 272,520.1 268,520.1 264,520.1 260,520.1 256,520.1 
		252,520.1 248,520.1 244,520.1 240,520.1 236,520.1 232,520.1 228,520.1 224,520.1 220,520.1 216,520.1 212,520.1 208,520.1 
		204,520.1 200,520.1 196,520.1 192,520.1 188,520.1 184,520.1 180,520.1 176,520.1 172,520.1 168,520.1 164,520.1 160,520.1 
		156,520.1 152,520.1 148,520.1 144,520.1 140,520.1 136,520.1 132,520.1 128,520.1 124,520.1 120,520.1 116,520.1 112,520.1 
		108,520.1 104,520.1 100,520.1 96,520.1 92,520.1 88,520.1 84,520.1 80,520.1 76,520.1 72,520.1 68,520.1 64,520.1 60,520.1 
		56,520.1 52,520.1 48,520.1 44,520.1 40,520.1 36,520.1 32,520.1 28,520.1 24,520.1 20,520.1 20,524.1 24,524.1 28,524.1 32,524.1 
		36,524.1 40,524.1 44,524.1 48,524.1 52,524.1 56,524.1 60,524.1 64,524.1 68,524.1 72,524.1 76,524.1 80,524.1 84,524.1 88,524.1 
		92,524.1 96,524.1 100,524.1 104,524.1 108,524.1 112,524.1 116,524.1 120,524.1 124,524.1 128,524.1 132,524.1 136,524.1 
		140,524.1 144,524.1 148,524.1 152,524.1 156,524.1 160,524.1 164,524.1 168,524.1 172,524.1 176,524.1 180,524.1 184,524.1 
		188,524.1 192,524.1 196,524.1 200,524.1 204,524.1 208,524.1 212,524.1 216,524.1 220,524.1 224,524.1 228,524.1 232,524.1 
		236,524.1 240,524.1 244,524.1 248,524.1 252,524.1 256,524.1 260,524.1 264,524.1 268,524.1 272,524.1 276,524.1 280,524.1 
		284,524.1 288,524.1 292,524.1 296,524.1 300,524.1 304,524.1 308,524.1 312,524.1 316,524.1 320,524.1 324,524.1 328,524.1 
		332,524.1 336,524.1 340,524.1 344,524.1 348,524.1 352,524.1 356,524.1 360,524.1 364,524.1 368,524.1 372,524.1 376,524.1 
		380,524.1 384,524.1 388,524.1 392,524.1 396,524.1 400,524.1 404,524.1 408,524.1 412,524.1 416,524.1 420,524.1 424,524.1 
		428,524.1 432,524.1 436,524.1 440,524.1 444,524.1 448,524.1 452,524.1 456,524.1 460,524.1 464,524.1 468,524.1 472,524.1 
		476,524.1 480,524.1 484,524.1 488,524.1 492,524.1 496,524.1 500,524.1 504,524.1 508,524.1 512,524.1 516,524.1 520,524.1 
		524,524.1 528,524.1 532,524.1 536,524.1 540,524.1 544,524.1 548,524.1 552,524.1 556,524.1 560,524.1 564,524.1 568,524.1 
		572,524.1 576,524.1 580,524.1 584,524.1 588,524.1 592,524.1 596,524.1 600,524.1 604,524.1 608,524.1 612,524.1 616,524.1 
		620,524.1 624,524.1 628,524.1 632,524.1 636,524.1 640,524.1 644,524.1 648,524.1 652,524.1 656,524.1 660,524.1 664,524.1 
		668,524.1 672,524.1 676,524.1 680,524.1 684,524.1 688,524.1 692,524.1 696,524.1 700,524.1 704,524.1 708,524.1 712,524.1 
		716,524.1 720,524.1 724,524.1 728,524.1 732,524.1 736,524.1 740,524.1 744,524.1 748,524.1 752,524.1 756,524.1 760,524.1 
		764,524.1 768,524.1 772,524.1 776,524.1 776,520.1 772,520.1 	"/>
	<polygon class="st3" points="12,524.1 12,528.1 16,528.1 20,528.1 20,524.1 16,524.1 	"/>
</g>
<g>
	<polygon class="st4" points="36,4.1 32,4.1 28,4.1 24,4.1 20,4.1 20,8.1 24,8.1 28,8.1 32,8.1 36,8.1 40,8.1 44,8.1 44,4.1 40,4.1 
			"/>
	<polygon class="st4" points="80,4.1 76,4.1 72,4.1 68,4.1 64,4.1 60,4.1 60,8.1 64,8.1 68,8.1 72,8.1 76,8.1 80,8.1 84,8.1 88,8.1 
		88,4.1 84,4.1 	"/>
	<polygon class="st4" points="736,4.1 732,4.1 728,4.1 724,4.1 720,4.1 716,4.1 712,4.1 708,4.1 704,4.1 700,4.1 696,4.1 692,4.1 
		688,4.1 684,4.1 680,4.1 676,4.1 672,4.1 668,4.1 664,4.1 660,4.1 656,4.1 652,4.1 648,4.1 644,4.1 640,4.1 636,4.1 632,4.1 
		628,4.1 624,4.1 620,4.1 616,4.1 612,4.1 608,4.1 604,4.1 600,4.1 596,4.1 592,4.1 588,4.1 584,4.1 580,4.1 576,4.1 572,4.1 
		568,4.1 564,4.1 560,4.1 556,4.1 552,4.1 548,4.1 544,4.1 540,4.1 536,4.1 532,4.1 528,4.1 524,4.1 520,4.1 516,4.1 512,4.1 
		508,4.1 504,4.1 500,4.1 496,4.1 492,4.1 488,4.1 484,4.1 480,4.1 476,4.1 472,4.1 468,4.1 464,4.1 460,4.1 456,4.1 452,4.1 
		448,4.1 444,4.1 440,4.1 436,4.1 432,4.1 428,4.1 424,4.1 420,4.1 416,4.1 412,4.1 408,4.1 404,4.1 400,4.1 396,4.1 392,4.1 
		388,4.1 384,4.1 380,4.1 376,4.1 372,4.1 368,4.1 364,4.1 360,4.1 356,4.1 352,4.1 348,4.1 344,4.1 340,4.1 336,4.1 332,4.1 
		328,4.1 324,4.1 320,4.1 316,4.1 312,4.1 308,4.1 304,4.1 300,4.1 296,4.1 292,4.1 288,4.1 284,4.1 280,4.1 276,4.1 272,4.1 
		268,4.1 264,4.1 260,4.1 256,4.1 252,4.1 248,4.1 244,4.1 240,4.1 236,4.1 232,4.1 228,4.1 224,4.1 220,4.1 216,4.1 212,4.1 
		208,4.1 204,4.1 200,4.1 196,4.1 192,4.1 188,4.1 184,4.1 180,4.1 176,4.1 172,4.1 168,4.1 164,4.1 160,4.1 156,4.1 152,4.1 
		148,4.1 144,4.1 140,4.1 136,4.1 132,4.1 128,4.1 124,4.1 120,4.1 116,4.1 112,4.1 108,4.1 104,4.1 100,4.1 96,4.1 92,4.1 92,8.1 
		96,8.1 100,8.1 104,8.1 108,8.1 112,8.1 116,8.1 120,8.1 124,8.1 128,8.1 132,8.1 136,8.1 140,8.1 144,8.1 148,8.1 152,8.1 
		156,8.1 160,8.1 164,8.1 168,8.1 172,8.1 176,8.1 180,8.1 184,8.1 188,8.1 192,8.1 196,8.1 200,8.1 204,8.1 208,8.1 212,8.1 
		216,8.1 220,8.1 224,8.1 228,8.1 232,8.1 236,8.1 240,8.1 244,8.1 248,8.1 252,8.1 256,8.1 260,8.1 264,8.1 268,8.1 272,8.1 
		276,8.1 280,8.1 284,8.1 288,8.1 292,8.1 296,8.1 300,8.1 304,8.1 308,8.1 312,8.1 316,8.1 320,8.1 324,8.1 328,8.1 332,8.1 
		336,8.1 340,8.1 344,8.1 348,8.1 352,8.1 356,8.1 360,8.1 364,8.1 368,8.1 372,8.1 376,8.1 380,8.1 384,8.1 388,8.1 392,8.1 
		396,8.1 400,8.1 404,8.1 408,8.1 412,8.1 416,8.1 420,8.1 424,8.1 428,8.1 432,8.1 436,8.1 440,8.1 444,8.1 448,8.1 452,8.1 
		456,8.1 460,8.1 464,8.1 468,8.1 472,8.1 476,8.1 480,8.1 484,8.1 488,8.1 492,8.1 496,8.1 500,8.1 504,8.1 508,8.1 512,8.1 
		516,8.1 520,8.1 524,8.1 528,8.1 532,8.1 536,8.1 540,8.1 544,8.1 548,8.1 552,8.1 556,8.1 560,8.1 564,8.1 568,8.1 572,8.1 
		576,8.1 580,8.1 584,8.1 588,8.1 592,8.1 596,8.1 600,8.1 604,8.1 608,8.1 612,8.1 616,8.1 620,8.1 624,8.1 628,8.1 632,8.1 
		636,8.1 640,8.1 644,8.1 648,8.1 652,8.1 656,8.1 660,8.1 664,8.1 668,8.1 672,8.1 676,8.1 680,8.1 684,8.1 688,8.1 692,8.1 
		696,8.1 700,8.1 704,8.1 708,8.1 712,8.1 716,8.1 720,8.1 724,8.1 728,8.1 732,8.1 736,8.1 740,8.1 744,8.1 744,4.1 740,4.1 	"/>
	<polygon class="st4" points="12,8.1 12,12.1 16,12.1 20,12.1 20,8.1 16,8.1 	"/>
	<polygon class="st4" points="8,16.1 8,20.1 12,20.1 12,16.1 12,12.1 8,12.1 	"/>
	<rect x="788" y="12.1" class="st4" width="4" height="4"/>
	<polygon class="st4" points="792,16.1 792,20.1 792,24.1 796,24.1 796,20.1 796,16.1 	"/>
	<rect x="4" y="20.1" class="st4" width="4" height="4"/>
	<polygon class="st4" points="4,36.1 4,40.1 4,44.1 4,48.1 4,52.1 4,56.1 4,60.1 4,64.1 4,68.1 4,72.1 4,76.1 4,80.1 4,84.1 4,88.1 
		4,92.1 4,96.1 4,100.1 4,104.1 4,108.1 4,112.1 4,116.1 4,120.1 4,124.1 4,128.1 4,132.1 4,136.1 4,140.1 4,144.1 4,148.1 4,152.1 
		4,156.1 4,160.1 4,164.1 4,168.1 4,172.1 4,176.1 4,180.1 4,184.1 4,188.1 4,192.1 4,196.1 4,200.1 4,204.1 4,208.1 4,212.1 
		4,216.1 4,220.1 4,224.1 4,228.1 4,232.1 4,236.1 4,240.1 4,244.1 4,248.1 4,252.1 4,256.1 4,260.1 4,264.1 4,268.1 4,272.1 
		4,276.1 4,280.1 4,284.1 4,288.1 4,292.1 4,296.1 4,300.1 4,304.1 4,308.1 4,312.1 4,316.1 4,320.1 4,324.1 4,328.1 4,332.1 
		4,336.1 4,340.1 4,344.1 4,348.1 4,352.1 4,356.1 4,360.1 4,364.1 4,368.1 4,372.1 4,376.1 4,380.1 4,384.1 4,388.1 4,392.1 
		4,396.1 4,400.1 4,404.1 4,408.1 4,412.1 4,416.1 4,420.1 4,424.1 4,428.1 4,432.1 4,436.1 4,440.1 4,444.1 4,448.1 4,452.1 
		4,456.1 4,460.1 4,464.1 4,468.1 8,468.1 8,464.1 8,460.1 8,456.1 8,452.1 8,448.1 8,444.1 8,440.1 8,436.1 8,432.1 8,428.1 
		8,424.1 8,420.1 8,416.1 8,412.1 8,408.1 8,404.1 8,400.1 8,396.1 8,392.1 8,388.1 8,384.1 8,380.1 8,376.1 8,372.1 8,368.1 
		8,364.1 8,360.1 8,356.1 8,352.1 8,348.1 8,344.1 8,340.1 8,336.1 8,332.1 8,328.1 8,324.1 8,320.1 8,316.1 8,312.1 8,308.1 
		8,304.1 8,300.1 8,296.1 8,292.1 8,288.1 8,284.1 8,280.1 8,276.1 8,272.1 8,268.1 8,264.1 8,260.1 8,256.1 8,252.1 8,248.1 
		8,244.1 8,240.1 8,236.1 8,232.1 8,228.1 8,224.1 8,220.1 8,216.1 8,212.1 8,208.1 8,204.1 8,200.1 8,196.1 8,192.1 8,188.1 
		8,184.1 8,180.1 8,176.1 8,172.1 8,168.1 8,164.1 8,160.1 8,156.1 8,152.1 8,148.1 8,144.1 8,140.1 8,136.1 8,132.1 8,128.1 
		8,124.1 8,120.1 8,116.1 8,112.1 8,108.1 8,104.1 8,100.1 8,96.1 8,92.1 8,88.1 8,84.1 8,80.1 8,76.1 8,72.1 8,68.1 8,64.1 8,60.1 
		8,56.1 8,52.1 8,48.1 8,44.1 8,40.1 8,36.1 8,32.1 4,32.1 	"/>
	<polygon class="st4" points="792,504.1 792,508.1 796,508.1 796,504.1 796,500.1 792,500.1 	"/>
	<polygon class="st4" points="4,508.1 4,512.1 8,512.1 8,508.1 8,504.1 4,504.1 	"/>
	<polygon class="st4" points="788,512.1 788,516.1 792,516.1 792,512.1 792,508.1 788,508.1 	"/>
	<rect x="784" y="516.1" class="st4" width="4" height="4"/>
	<polygon class="st4" points="16,520.1 12,520.1 12,524.1 16,524.1 20,524.1 20,520.1 	"/>
	<rect x="20" y="524.1" class="st4" width="4" height="4"/>
	<polygon class="st4" points="32,524.1 32,528.1 36,528.1 40,528.1 40,524.1 36,524.1 	"/>
	<rect x="764" y="524.1" class="st4" width="4" height="4"/>
</g>
<g>
	<polygon class="st5" points="52,8.1 56,8.1 60,8.1 60,4.1 56,4.1 52,4.1 48,4.1 44,4.1 44,8.1 48,8.1 	"/>
	<rect x="88" y="4.1" class="st5" width="4" height="4"/>
	<polygon class="st5" points="784,4.1 780,4.1 776,4.1 772,4.1 768,4.1 764,4.1 760,4.1 756,4.1 752,4.1 748,4.1 744,4.1 744,8.1 
		748,8.1 752,8.1 756,8.1 760,8.1 764,8.1 768,8.1 772,8.1 776,8.1 780,8.1 784,8.1 788,8.1 788,4.1 	"/>
	<rect x="788" y="8.1" class="st5" width="4" height="4"/>
	<polygon class="st5" points="792,24.1 792,28.1 792,32.1 792,36.1 792,40.1 792,44.1 792,48.1 792,52.1 792,56.1 792,60.1 
		792,64.1 792,68.1 792,72.1 792,76.1 792,80.1 792,84.1 792,88.1 792,92.1 792,96.1 792,100.1 792,104.1 792,108.1 792,112.1 
		792,116.1 792,120.1 792,124.1 792,128.1 792,132.1 792,136.1 792,140.1 792,144.1 792,148.1 792,152.1 792,156.1 792,160.1 
		792,164.1 792,168.1 792,172.1 792,176.1 792,180.1 792,184.1 792,188.1 792,192.1 792,196.1 792,200.1 792,204.1 792,208.1 
		792,212.1 792,216.1 792,220.1 792,224.1 792,228.1 792,232.1 792,236.1 792,240.1 792,244.1 792,248.1 792,252.1 792,256.1 
		792,260.1 792,264.1 792,268.1 792,272.1 792,276.1 792,280.1 792,284.1 792,288.1 792,292.1 792,296.1 792,300.1 792,304.1 
		792,308.1 792,312.1 792,316.1 792,320.1 792,324.1 792,328.1 792,332.1 792,336.1 792,340.1 792,344.1 792,348.1 792,352.1 
		792,356.1 792,360.1 792,364.1 792,368.1 792,372.1 792,376.1 792,380.1 792,384.1 792,388.1 792,392.1 792,396.1 792,400.1 
		792,404.1 792,408.1 792,412.1 792,416.1 792,420.1 792,424.1 792,428.1 792,432.1 792,436.1 792,440.1 792,444.1 792,448.1 
		792,452.1 792,456.1 792,460.1 792,464.1 792,468.1 792,472.1 792,476.1 792,480.1 792,484.1 792,488.1 792,492.1 792,496.1 
		792,500.1 796,500.1 796,496.1 796,492.1 796,488.1 796,484.1 796,480.1 796,476.1 796,472.1 796,468.1 796,464.1 796,460.1 
		796,456.1 796,452.1 796,448.1 796,444.1 796,440.1 796,436.1 796,432.1 796,428.1 796,424.1 796,420.1 796,416.1 796,412.1 
		796,408.1 796,404.1 796,400.1 796,396.1 796,392.1 796,388.1 796,384.1 796,380.1 796,376.1 796,372.1 796,368.1 796,364.1 
		796,360.1 796,356.1 796,352.1 796,348.1 796,344.1 796,340.1 796,336.1 796,332.1 796,328.1 796,324.1 796,320.1 796,316.1 
		796,312.1 796,308.1 796,304.1 796,300.1 796,296.1 796,292.1 796,288.1 796,284.1 796,280.1 796,276.1 796,272.1 796,268.1 
		796,264.1 796,260.1 796,256.1 796,252.1 796,248.1 796,244.1 796,240.1 796,236.1 796,232.1 796,228.1 796,224.1 796,220.1 
		796,216.1 796,212.1 796,208.1 796,204.1 796,200.1 796,196.1 796,192.1 796,188.1 796,184.1 796,180.1 796,176.1 796,172.1 
		796,168.1 796,164.1 796,160.1 796,156.1 796,152.1 796,148.1 796,144.1 796,140.1 796,136.1 796,132.1 796,128.1 796,124.1 
		796,120.1 796,116.1 796,112.1 796,108.1 796,104.1 796,100.1 796,96.1 796,92.1 796,88.1 796,84.1 796,80.1 796,76.1 796,72.1 
		796,68.1 796,64.1 796,60.1 796,56.1 796,52.1 796,48.1 796,44.1 796,40.1 796,36.1 796,32.1 796,28.1 796,24.1 	"/>
	<polygon class="st5" points="8,28.1 8,24.1 4,24.1 4,28.1 4,32.1 8,32.1 	"/>
	<polygon class="st5" points="8,500.1 8,496.1 8,492.1 8,488.1 8,484.1 8,480.1 8,476.1 8,472.1 8,468.1 4,468.1 4,472.1 4,476.1 
		4,480.1 4,484.1 4,488.1 4,492.1 4,496.1 4,500.1 4,504.1 8,504.1 	"/>
	<polygon class="st5" points="8,516.1 8,520.1 12,520.1 12,516.1 12,512.1 8,512.1 	"/>
	<polygon class="st5" points="776,520.1 776,524.1 780,524.1 784,524.1 784,520.1 780,520.1 	"/>
	<polygon class="st5" points="24,524.1 24,528.1 28,528.1 32,528.1 32,524.1 28,524.1 	"/>
	<polygon class="st5" points="756,524.1 752,524.1 748,524.1 744,524.1 740,524.1 736,524.1 732,524.1 728,524.1 724,524.1 
		720,524.1 716,524.1 712,524.1 708,524.1 704,524.1 700,524.1 696,524.1 692,524.1 688,524.1 684,524.1 680,524.1 676,524.1 
		672,524.1 668,524.1 664,524.1 660,524.1 656,524.1 652,524.1 648,524.1 644,524.1 640,524.1 636,524.1 632,524.1 628,524.1 
		624,524.1 620,524.1 616,524.1 612,524.1 608,524.1 604,524.1 600,524.1 596,524.1 592,524.1 588,524.1 584,524.1 580,524.1 
		576,524.1 572,524.1 568,524.1 564,524.1 560,524.1 556,524.1 552,524.1 548,524.1 544,524.1 540,524.1 536,524.1 532,524.1 
		528,524.1 524,524.1 520,524.1 516,524.1 512,524.1 508,524.1 504,524.1 500,524.1 496,524.1 492,524.1 488,524.1 484,524.1 
		480,524.1 476,524.1 472,524.1 468,524.1 464,524.1 460,524.1 456,524.1 452,524.1 448,524.1 444,524.1 440,524.1 436,524.1 
		432,524.1 428,524.1 424,524.1 420,524.1 416,524.1 412,524.1 408,524.1 404,524.1 400,524.1 396,524.1 392,524.1 388,524.1 
		384,524.1 380,524.1 376,524.1 372,524.1 368,524.1 364,524.1 360,524.1 356,524.1 352,524.1 348,524.1 344,524.1 340,524.1 
		336,524.1 332,524.1 328,524.1 324,524.1 320,524.1 316,524.1 312,524.1 308,524.1 304,524.1 300,524.1 296,524.1 292,524.1 
		288,524.1 284,524.1 280,524.1 276,524.1 272,524.1 268,524.1 264,524.1 260,524.1 256,524.1 252,524.1 248,524.1 244,524.1 
		240,524.1 236,524.1 232,524.1 228,524.1 224,524.1 220,524.1 216,524.1 212,524.1 208,524.1 204,524.1 200,524.1 196,524.1 
		192,524.1 188,524.1 184,524.1 180,524.1 176,524.1 172,524.1 168,524.1 164,524.1 160,524.1 156,524.1 152,524.1 148,524.1 
		144,524.1 140,524.1 136,524.1 132,524.1 128,524.1 124,524.1 120,524.1 116,524.1 112,524.1 108,524.1 104,524.1 100,524.1 
		96,524.1 92,524.1 88,524.1 84,524.1 80,524.1 76,524.1 72,524.1 68,524.1 64,524.1 60,524.1 56,524.1 52,524.1 48,524.1 44,524.1 
		40,524.1 40,528.1 44,528.1 48,528.1 52,528.1 56,528.1 60,528.1 64,528.1 68,528.1 72,528.1 76,528.1 80,528.1 84,528.1 88,528.1 
		92,528.1 96,528.1 100,528.1 104,528.1 108,528.1 112,528.1 116,528.1 120,528.1 124,528.1 128,528.1 132,528.1 136,528.1 
		140,528.1 144,528.1 148,528.1 152,528.1 156,528.1 160,528.1 164,528.1 168,528.1 172,528.1 176,528.1 180,528.1 184,528.1 
		188,528.1 192,528.1 196,528.1 200,528.1 204,528.1 208,528.1 212,528.1 216,528.1 220,528.1 224,528.1 228,528.1 232,528.1 
		236,528.1 240,528.1 244,528.1 248,528.1 252,528.1 256,528.1 260,528.1 264,528.1 268,528.1 272,528.1 276,528.1 280,528.1 
		284,528.1 288,528.1 292,528.1 296,528.1 300,528.1 304,528.1 308,528.1 312,528.1 316,528.1 320,528.1 324,528.1 328,528.1 
		332,528.1 336,528.1 340,528.1 344,528.1 348,528.1 352,528.1 356,528.1 360,528.1 364,528.1 368,528.1 372,528.1 376,528.1 
		380,528.1 384,528.1 388,528.1 392,528.1 396,528.1 400,528.1 404,528.1 408,528.1 412,528.1 416,528.1 420,528.1 424,528.1 
		428,528.1 432,528.1 436,528.1 440,528.1 444,528.1 448,528.1 452,528.1 456,528.1 460,528.1 464,528.1 468,528.1 472,528.1 
		476,528.1 480,528.1 484,528.1 488,528.1 492,528.1 496,528.1 500,528.1 504,528.1 508,528.1 512,528.1 516,528.1 520,528.1 
		524,528.1 528,528.1 532,528.1 536,528.1 540,528.1 544,528.1 548,528.1 552,528.1 556,528.1 560,528.1 564,528.1 568,528.1 
		572,528.1 576,528.1 580,528.1 584,528.1 588,528.1 592,528.1 596,528.1 600,528.1 604,528.1 608,528.1 612,528.1 616,528.1 
		620,528.1 624,528.1 628,528.1 632,528.1 636,528.1 640,528.1 644,528.1 648,528.1 652,528.1 656,528.1 660,528.1 664,528.1 
		668,528.1 672,528.1 676,528.1 680,528.1 684,528.1 688,528.1 692,528.1 696,528.1 700,528.1 704,528.1 708,528.1 712,528.1 
		716,528.1 720,528.1 724,528.1 728,528.1 732,528.1 736,528.1 740,528.1 744,528.1 748,528.1 752,528.1 756,528.1 760,528.1 
		764,528.1 764,524.1 760,524.1 	"/>
	<polygon class="st5" points="768,524.1 768,528.1 772,528.1 776,528.1 776,524.1 772,524.1 	"/>
</g>
<g>
	<polygon class="st6" points="776,8.1 772,8.1 768,8.1 764,8.1 760,8.1 756,8.1 752,8.1 748,8.1 744,8.1 740,8.1 736,8.1 732,8.1 
		728,8.1 724,8.1 720,8.1 716,8.1 712,8.1 708,8.1 704,8.1 700,8.1 696,8.1 692,8.1 688,8.1 684,8.1 680,8.1 676,8.1 672,8.1 
		668,8.1 664,8.1 660,8.1 656,8.1 652,8.1 648,8.1 644,8.1 640,8.1 636,8.1 632,8.1 628,8.1 624,8.1 620,8.1 616,8.1 612,8.1 
		608,8.1 604,8.1 600,8.1 596,8.1 592,8.1 588,8.1 584,8.1 580,8.1 576,8.1 572,8.1 568,8.1 564,8.1 560,8.1 556,8.1 552,8.1 
		548,8.1 544,8.1 540,8.1 536,8.1 532,8.1 528,8.1 524,8.1 520,8.1 516,8.1 512,8.1 508,8.1 504,8.1 500,8.1 496,8.1 492,8.1 
		488,8.1 484,8.1 480,8.1 476,8.1 472,8.1 468,8.1 464,8.1 460,8.1 456,8.1 452,8.1 448,8.1 444,8.1 440,8.1 436,8.1 432,8.1 
		428,8.1 424,8.1 420,8.1 416,8.1 412,8.1 408,8.1 404,8.1 400,8.1 396,8.1 392,8.1 388,8.1 384,8.1 380,8.1 376,8.1 372,8.1 
		368,8.1 364,8.1 360,8.1 356,8.1 352,8.1 348,8.1 344,8.1 340,8.1 336,8.1 332,8.1 328,8.1 324,8.1 320,8.1 316,8.1 312,8.1 
		308,8.1 304,8.1 300,8.1 296,8.1 292,8.1 288,8.1 284,8.1 280,8.1 276,8.1 272,8.1 268,8.1 264,8.1 260,8.1 256,8.1 252,8.1 
		248,8.1 244,8.1 240,8.1 236,8.1 232,8.1 228,8.1 224,8.1 220,8.1 216,8.1 212,8.1 208,8.1 204,8.1 200,8.1 196,8.1 192,8.1 
		188,8.1 184,8.1 180,8.1 176,8.1 172,8.1 168,8.1 164,8.1 160,8.1 156,8.1 152,8.1 148,8.1 144,8.1 140,8.1 136,8.1 132,8.1 
		128,8.1 124,8.1 120,8.1 116,8.1 112,8.1 108,8.1 104,8.1 100,8.1 96,8.1 92,8.1 88,8.1 84,8.1 80,8.1 76,8.1 72,8.1 68,8.1 
		64,8.1 60,8.1 56,8.1 52,8.1 48,8.1 44,8.1 40,8.1 36,8.1 32,8.1 28,8.1 24,8.1 20,8.1 20,12.1 24,12.1 28,12.1 32,12.1 36,12.1 
		40,12.1 44,12.1 48,12.1 52,12.1 56,12.1 60,12.1 64,12.1 68,12.1 72,12.1 76,12.1 80,12.1 84,12.1 88,12.1 92,12.1 96,12.1 
		100,12.1 104,12.1 108,12.1 112,12.1 116,12.1 120,12.1 124,12.1 128,12.1 132,12.1 136,12.1 140,12.1 144,12.1 148,12.1 152,12.1 
		156,12.1 160,12.1 164,12.1 168,12.1 172,12.1 176,12.1 180,12.1 184,12.1 188,12.1 192,12.1 196,12.1 200,12.1 204,12.1 208,12.1 
		212,12.1 216,12.1 220,12.1 224,12.1 228,12.1 232,12.1 236,12.1 240,12.1 244,12.1 248,12.1 252,12.1 256,12.1 260,12.1 264,12.1 
		268,12.1 272,12.1 276,12.1 280,12.1 284,12.1 288,12.1 292,12.1 296,12.1 300,12.1 304,12.1 308,12.1 312,12.1 316,12.1 320,12.1 
		324,12.1 328,12.1 332,12.1 336,12.1 340,12.1 344,12.1 348,12.1 352,12.1 356,12.1 360,12.1 364,12.1 368,12.1 372,12.1 376,12.1 
		380,12.1 384,12.1 388,12.1 392,12.1 396,12.1 400,12.1 404,12.1 408,12.1 412,12.1 416,12.1 420,12.1 424,12.1 428,12.1 432,12.1 
		436,12.1 440,12.1 444,12.1 448,12.1 452,12.1 456,12.1 460,12.1 464,12.1 468,12.1 472,12.1 476,12.1 480,12.1 484,12.1 488,12.1 
		492,12.1 496,12.1 500,12.1 504,12.1 508,12.1 512,12.1 516,12.1 520,12.1 524,12.1 528,12.1 532,12.1 536,12.1 540,12.1 544,12.1 
		548,12.1 552,12.1 556,12.1 560,12.1 564,12.1 568,12.1 572,12.1 576,12.1 580,12.1 584,12.1 588,12.1 592,12.1 596,12.1 600,12.1 
		604,12.1 608,12.1 612,12.1 616,12.1 620,12.1 624,12.1 628,12.1 632,12.1 636,12.1 640,12.1 644,12.1 648,12.1 652,12.1 656,12.1 
		660,12.1 664,12.1 668,12.1 672,12.1 676,12.1 680,12.1 684,12.1 688,12.1 692,12.1 696,12.1 700,12.1 704,12.1 708,12.1 712,12.1 
		716,12.1 720,12.1 724,12.1 728,12.1 732,12.1 736,12.1 740,12.1 744,12.1 748,12.1 752,12.1 756,12.1 760,12.1 764,12.1 768,12.1 
		772,12.1 776,12.1 780,12.1 784,12.1 784,8.1 780,8.1 	"/>
	<polygon class="st6" points="12,12.1 12,16.1 12,20.1 16,20.1 16,16.1 20,16.1 20,12.1 16,12.1 	"/>
	<polygon class="st6" points="8,24.1 8,28.1 8,32.1 8,36.1 8,40.1 8,44.1 8,48.1 8,52.1 8,56.1 8,60.1 8,64.1 8,68.1 8,72.1 8,76.1 
		8,80.1 8,84.1 8,88.1 8,92.1 8,96.1 8,100.1 8,104.1 8,108.1 8,112.1 8,116.1 8,120.1 8,124.1 8,128.1 8,132.1 8,136.1 8,140.1 
		8,144.1 8,148.1 8,152.1 8,156.1 8,160.1 8,164.1 8,168.1 8,172.1 8,176.1 8,180.1 8,184.1 8,188.1 8,192.1 8,196.1 8,200.1 
		8,204.1 8,208.1 8,212.1 8,216.1 8,220.1 8,224.1 8,228.1 8,232.1 8,236.1 8,240.1 8,244.1 8,248.1 8,252.1 8,256.1 8,260.1 
		8,264.1 8,268.1 8,272.1 8,276.1 8,280.1 8,284.1 8,288.1 8,292.1 8,296.1 8,300.1 8,304.1 8,308.1 8,312.1 8,316.1 8,320.1 
		8,324.1 8,328.1 8,332.1 8,336.1 8,340.1 8,344.1 8,348.1 8,352.1 8,356.1 8,360.1 8,364.1 8,368.1 8,372.1 8,376.1 8,380.1 
		8,384.1 8,388.1 8,392.1 8,396.1 8,400.1 8,404.1 8,408.1 8,412.1 8,416.1 8,420.1 8,424.1 8,428.1 8,432.1 8,436.1 8,440.1 
		8,444.1 8,448.1 8,452.1 8,456.1 8,460.1 8,464.1 8,468.1 8,472.1 8,476.1 8,480.1 8,484.1 8,488.1 8,492.1 8,496.1 8,500.1 
		8,504.1 8,508.1 8,512.1 12,512.1 12,508.1 12,504.1 12,500.1 12,496.1 12,492.1 12,488.1 12,484.1 12,480.1 12,476.1 12,472.1 
		12,468.1 12,464.1 12,460.1 12,456.1 12,452.1 12,448.1 12,444.1 12,440.1 12,436.1 12,432.1 12,428.1 12,424.1 12,420.1 12,416.1 
		12,412.1 12,408.1 12,404.1 12,400.1 12,396.1 12,392.1 12,388.1 12,384.1 12,380.1 12,376.1 12,372.1 12,368.1 12,364.1 12,360.1 
		12,356.1 12,352.1 12,348.1 12,344.1 12,340.1 12,336.1 12,332.1 12,328.1 12,324.1 12,320.1 12,316.1 12,312.1 12,308.1 12,304.1 
		12,300.1 12,296.1 12,292.1 12,288.1 12,284.1 12,280.1 12,276.1 12,272.1 12,268.1 12,264.1 12,260.1 12,256.1 12,252.1 12,248.1 
		12,244.1 12,240.1 12,236.1 12,232.1 12,228.1 12,224.1 12,220.1 12,216.1 12,212.1 12,208.1 12,204.1 12,200.1 12,196.1 12,192.1 
		12,188.1 12,184.1 12,180.1 12,176.1 12,172.1 12,168.1 12,164.1 12,160.1 12,156.1 12,152.1 12,148.1 12,144.1 12,140.1 12,136.1 
		12,132.1 12,128.1 12,124.1 12,120.1 12,116.1 12,112.1 12,108.1 12,104.1 12,100.1 12,96.1 12,92.1 12,88.1 12,84.1 12,80.1 
		12,76.1 12,72.1 12,68.1 12,64.1 12,60.1 12,56.1 12,52.1 12,48.1 12,44.1 12,40.1 12,36.1 12,32.1 12,28.1 12,24.1 12,20.1 
		8,20.1 	"/>
	<polygon class="st6" points="800,36.1 800,32.1 796,32.1 796,36.1 796,40.1 796,44.1 796,48.1 796,52.1 796,56.1 796,60.1 
		800,60.1 800,64.1 804,64.1 804,60.1 804,56.1 804,52.1 804,48.1 804,44.1 804,40.1 804,36.1 	"/>
	<polygon class="st6" points="800,140.1 796,140.1 796,144.1 796,148.1 796,152.1 796,156.1 796,160.1 796,164.1 796,168.1 
		796,172.1 796,176.1 796,180.1 796,184.1 796,188.1 796,192.1 796,196.1 796,200.1 796,204.1 796,208.1 796,212.1 796,216.1 
		796,220.1 796,224.1 796,228.1 796,232.1 796,236.1 796,240.1 796,244.1 796,248.1 796,252.1 796,256.1 796,260.1 796,264.1 
		796,268.1 796,272.1 796,276.1 796,280.1 796,284.1 796,288.1 796,292.1 796,296.1 796,300.1 796,304.1 796,308.1 796,312.1 
		796,316.1 796,320.1 796,324.1 796,328.1 796,332.1 796,336.1 796,340.1 796,344.1 796,348.1 796,352.1 796,356.1 796,360.1 
		800,360.1 800,364.1 804,364.1 804,360.1 804,356.1 804,352.1 804,348.1 804,344.1 804,340.1 804,336.1 804,332.1 804,328.1 
		804,324.1 804,320.1 804,316.1 804,312.1 804,308.1 804,304.1 804,300.1 804,296.1 804,292.1 804,288.1 804,284.1 804,280.1 
		804,276.1 804,272.1 804,268.1 804,264.1 804,260.1 804,256.1 804,252.1 804,248.1 804,244.1 804,240.1 804,236.1 804,232.1 
		804,228.1 804,224.1 804,220.1 804,216.1 804,212.1 804,208.1 804,204.1 804,200.1 804,196.1 804,192.1 804,188.1 804,184.1 
		804,180.1 804,176.1 804,172.1 804,168.1 804,164.1 804,160.1 804,156.1 804,152.1 804,148.1 804,144.1 800,144.1 	"/>
	<polygon class="st6" points="800,488.1 796,488.1 796,492.1 796,496.1 800,496.1 800,500.1 804,500.1 804,496.1 804,492.1 
		800,492.1 	"/>
	<polygon class="st6" points="44,528.1 40,528.1 36,528.1 32,528.1 28,528.1 24,528.1 20,528.1 20,532.1 24,532.1 28,532.1 
		28,536.1 32,536.1 36,536.1 40,536.1 44,536.1 48,536.1 48,532.1 44,532.1 	"/>
	<polygon class="st6" points="764,528.1 760,528.1 756,528.1 752,528.1 748,528.1 744,528.1 740,528.1 736,528.1 732,528.1 
		728,528.1 724,528.1 720,528.1 716,528.1 712,528.1 708,528.1 704,528.1 700,528.1 696,528.1 692,528.1 688,528.1 684,528.1 
		680,528.1 676,528.1 672,528.1 668,528.1 664,528.1 660,528.1 656,528.1 652,528.1 648,528.1 644,528.1 640,528.1 636,528.1 
		632,528.1 628,528.1 624,528.1 620,528.1 616,528.1 612,528.1 608,528.1 604,528.1 600,528.1 596,528.1 592,528.1 588,528.1 
		584,528.1 580,528.1 576,528.1 572,528.1 568,528.1 564,528.1 560,528.1 556,528.1 552,528.1 548,528.1 544,528.1 540,528.1 
		536,528.1 532,528.1 528,528.1 524,528.1 520,528.1 516,528.1 512,528.1 508,528.1 504,528.1 500,528.1 496,528.1 492,528.1 
		488,528.1 484,528.1 480,528.1 476,528.1 472,528.1 468,528.1 464,528.1 460,528.1 456,528.1 452,528.1 448,528.1 444,528.1 
		440,528.1 436,528.1 432,528.1 428,528.1 424,528.1 420,528.1 416,528.1 412,528.1 408,528.1 404,528.1 400,528.1 396,528.1 
		392,528.1 388,528.1 384,528.1 380,528.1 376,528.1 372,528.1 368,528.1 364,528.1 360,528.1 356,528.1 352,528.1 348,528.1 
		344,528.1 340,528.1 336,528.1 332,528.1 328,528.1 324,528.1 320,528.1 316,528.1 312,528.1 308,528.1 304,528.1 300,528.1 
		296,528.1 292,528.1 288,528.1 284,528.1 280,528.1 276,528.1 272,528.1 268,528.1 264,528.1 260,528.1 256,528.1 252,528.1 
		248,528.1 244,528.1 240,528.1 236,528.1 232,528.1 228,528.1 224,528.1 220,528.1 216,528.1 212,528.1 208,528.1 204,528.1 
		200,528.1 196,528.1 192,528.1 188,528.1 184,528.1 180,528.1 176,528.1 172,528.1 168,528.1 164,528.1 160,528.1 156,528.1 
		152,528.1 148,528.1 144,528.1 140,528.1 136,528.1 132,528.1 128,528.1 124,528.1 120,528.1 116,528.1 112,528.1 108,528.1 
		104,528.1 100,528.1 100,532.1 104,532.1 104,536.1 108,536.1 112,536.1 116,536.1 120,536.1 124,536.1 128,536.1 132,536.1 
		136,536.1 140,536.1 144,536.1 148,536.1 152,536.1 156,536.1 160,536.1 164,536.1 168,536.1 172,536.1 176,536.1 180,536.1 
		184,536.1 188,536.1 192,536.1 196,536.1 200,536.1 204,536.1 208,536.1 212,536.1 216,536.1 220,536.1 224,536.1 228,536.1 
		232,536.1 236,536.1 240,536.1 244,536.1 248,536.1 252,536.1 256,536.1 260,536.1 264,536.1 268,536.1 272,536.1 276,536.1 
		280,536.1 284,536.1 288,536.1 292,536.1 296,536.1 300,536.1 304,536.1 308,536.1 312,536.1 316,536.1 320,536.1 324,536.1 
		328,536.1 332,536.1 336,536.1 340,536.1 344,536.1 348,536.1 352,536.1 356,536.1 360,536.1 364,536.1 368,536.1 372,536.1 
		376,536.1 380,536.1 384,536.1 388,536.1 392,536.1 396,536.1 400,536.1 404,536.1 408,536.1 412,536.1 416,536.1 420,536.1 
		424,536.1 428,536.1 432,536.1 436,536.1 440,536.1 444,536.1 448,536.1 452,536.1 456,536.1 460,536.1 464,536.1 468,536.1 
		472,536.1 476,536.1 480,536.1 484,536.1 488,536.1 492,536.1 496,536.1 500,536.1 504,536.1 508,536.1 512,536.1 516,536.1 
		520,536.1 524,536.1 528,536.1 532,536.1 536,536.1 540,536.1 544,536.1 548,536.1 552,536.1 556,536.1 560,536.1 564,536.1 
		568,536.1 572,536.1 576,536.1 580,536.1 584,536.1 588,536.1 592,536.1 596,536.1 600,536.1 604,536.1 608,536.1 612,536.1 
		616,536.1 620,536.1 624,536.1 628,536.1 632,536.1 636,536.1 640,536.1 644,536.1 648,536.1 652,536.1 656,536.1 660,536.1 
		664,536.1 668,536.1 672,536.1 676,536.1 680,536.1 684,536.1 688,536.1 692,536.1 696,536.1 700,536.1 704,536.1 708,536.1 
		712,536.1 716,536.1 720,536.1 724,536.1 728,536.1 732,536.1 736,536.1 740,536.1 744,536.1 748,536.1 752,536.1 756,536.1 
		760,536.1 764,536.1 768,536.1 768,532.1 764,532.1 	"/>
</g>
<g>
	<polygon class="st7" points="768,24.1 772,24.1 776,24.1 780,24.1 784,24.1 784,28.1 788,28.1 788,24.1 788,20.1 788,16.1 
		784,16.1 780,16.1 776,16.1 772,16.1 768,16.1 764,16.1 760,16.1 756,16.1 752,16.1 748,16.1 744,16.1 740,16.1 736,16.1 732,16.1 
		728,16.1 724,16.1 720,16.1 716,16.1 712,16.1 708,16.1 704,16.1 700,16.1 696,16.1 692,16.1 688,16.1 684,16.1 680,16.1 676,16.1 
		672,16.1 668,16.1 664,16.1 660,16.1 656,16.1 652,16.1 648,16.1 644,16.1 640,16.1 636,16.1 632,16.1 628,16.1 624,16.1 620,16.1 
		616,16.1 612,16.1 608,16.1 604,16.1 600,16.1 596,16.1 592,16.1 588,16.1 584,16.1 580,16.1 576,16.1 572,16.1 568,16.1 564,16.1 
		560,16.1 556,16.1 552,16.1 548,16.1 544,16.1 540,16.1 536,16.1 532,16.1 528,16.1 524,16.1 520,16.1 516,16.1 512,16.1 508,16.1 
		504,16.1 500,16.1 496,16.1 492,16.1 488,16.1 484,16.1 480,16.1 476,16.1 472,16.1 468,16.1 464,16.1 460,16.1 456,16.1 452,16.1 
		448,16.1 444,16.1 440,16.1 436,16.1 432,16.1 428,16.1 424,16.1 420,16.1 416,16.1 412,16.1 408,16.1 404,16.1 400,16.1 396,16.1 
		392,16.1 388,16.1 384,16.1 380,16.1 376,16.1 372,16.1 368,16.1 364,16.1 360,16.1 356,16.1 352,16.1 348,16.1 344,16.1 340,16.1 
		336,16.1 332,16.1 328,16.1 328,20.1 328,24.1 332,24.1 336,24.1 340,24.1 344,24.1 348,24.1 352,24.1 356,24.1 360,24.1 364,24.1 
		368,24.1 372,24.1 376,24.1 380,24.1 384,24.1 388,24.1 392,24.1 396,24.1 400,24.1 404,24.1 408,24.1 412,24.1 416,24.1 420,24.1 
		424,24.1 428,24.1 432,24.1 436,24.1 440,24.1 444,24.1 448,24.1 452,24.1 456,24.1 460,24.1 464,24.1 468,24.1 472,24.1 476,24.1 
		480,24.1 484,24.1 488,24.1 492,24.1 496,24.1 500,24.1 504,24.1 508,24.1 512,24.1 516,24.1 520,24.1 524,24.1 528,24.1 532,24.1 
		536,24.1 540,24.1 544,24.1 548,24.1 552,24.1 556,24.1 560,24.1 564,24.1 568,24.1 572,24.1 576,24.1 580,24.1 584,24.1 588,24.1 
		592,24.1 596,24.1 600,24.1 604,24.1 608,24.1 612,24.1 616,24.1 620,24.1 624,24.1 628,24.1 632,24.1 636,24.1 640,24.1 644,24.1 
		648,24.1 652,24.1 656,24.1 660,24.1 664,24.1 668,24.1 672,24.1 676,24.1 680,24.1 684,24.1 688,24.1 692,24.1 696,24.1 700,24.1 
		704,24.1 708,24.1 712,24.1 716,24.1 720,24.1 724,24.1 728,24.1 732,24.1 736,24.1 740,24.1 744,24.1 748,24.1 752,24.1 756,24.1 
		760,24.1 764,24.1 	"/>
	<polygon class="st7" points="800,20.1 800,16.1 800,12.1 796,12.1 796,16.1 796,20.1 796,24.1 796,28.1 796,32.1 800,32.1 
		800,36.1 804,36.1 804,32.1 804,28.1 804,24.1 804,20.1 	"/>
	<polygon class="st7" points="320,24.1 316,24.1 312,24.1 308,24.1 304,24.1 300,24.1 296,24.1 292,24.1 288,24.1 284,24.1 
		280,24.1 276,24.1 272,24.1 268,24.1 264,24.1 260,24.1 256,24.1 252,24.1 248,24.1 244,24.1 240,24.1 236,24.1 232,24.1 228,24.1 
		224,24.1 220,24.1 216,24.1 212,24.1 208,24.1 204,24.1 200,24.1 196,24.1 192,24.1 188,24.1 184,24.1 180,24.1 176,24.1 172,24.1 
		168,24.1 164,24.1 160,24.1 156,24.1 152,24.1 148,24.1 144,24.1 140,24.1 136,24.1 132,24.1 128,24.1 124,24.1 120,24.1 116,24.1 
		112,24.1 108,24.1 104,24.1 100,24.1 96,24.1 92,24.1 88,24.1 84,24.1 80,24.1 76,24.1 72,24.1 68,24.1 64,24.1 60,24.1 56,24.1 
		52,24.1 48,24.1 44,24.1 40,24.1 36,24.1 32,24.1 32,28.1 28,28.1 28,32.1 24,32.1 24,36.1 24,40.1 24,44.1 24,48.1 24,52.1 
		24,56.1 24,60.1 24,64.1 24,68.1 24,72.1 24,76.1 24,80.1 24,84.1 24,88.1 24,92.1 24,96.1 24,100.1 24,104.1 24,108.1 24,112.1 
		24,116.1 24,120.1 24,124.1 24,128.1 24,132.1 24,136.1 24,140.1 24,144.1 24,148.1 24,152.1 24,156.1 24,160.1 24,164.1 24,168.1 
		24,172.1 24,176.1 24,180.1 24,184.1 24,188.1 24,192.1 24,196.1 24,200.1 24,204.1 24,208.1 24,212.1 24,216.1 24,220.1 24,224.1 
		24,228.1 24,232.1 24,236.1 24,240.1 24,244.1 24,248.1 24,252.1 24,256.1 24,260.1 24,264.1 24,268.1 24,272.1 24,276.1 24,280.1 
		24,284.1 24,288.1 24,292.1 24,296.1 24,300.1 24,304.1 24,308.1 24,312.1 24,316.1 24,320.1 24,324.1 24,328.1 24,332.1 24,336.1 
		24,340.1 24,344.1 24,348.1 24,352.1 24,356.1 24,360.1 24,364.1 24,368.1 24,372.1 24,376.1 24,380.1 24,384.1 24,388.1 24,392.1 
		24,396.1 24,400.1 24,404.1 24,408.1 24,412.1 24,416.1 24,420.1 24,424.1 24,428.1 24,432.1 24,436.1 24,440.1 24,444.1 24,448.1 
		24,452.1 24,456.1 24,460.1 24,464.1 24,468.1 24,472.1 24,476.1 24,480.1 24,484.1 24,488.1 24,492.1 24,496.1 24,500.1 24,504.1 
		24,508.1 24,512.1 28,512.1 28,516.1 32,516.1 32,520.1 36,520.1 40,520.1 44,520.1 48,520.1 52,520.1 56,520.1 60,520.1 64,520.1 
		68,520.1 72,520.1 76,520.1 80,520.1 84,520.1 88,520.1 92,520.1 96,520.1 100,520.1 104,520.1 108,520.1 112,520.1 116,520.1 
		120,520.1 124,520.1 128,520.1 132,520.1 136,520.1 140,520.1 144,520.1 148,520.1 152,520.1 156,520.1 160,520.1 164,520.1 
		168,520.1 172,520.1 176,520.1 180,520.1 184,520.1 188,520.1 192,520.1 196,520.1 200,520.1 204,520.1 208,520.1 212,520.1 
		216,520.1 220,520.1 224,520.1 228,520.1 232,520.1 236,520.1 240,520.1 244,520.1 248,520.1 252,520.1 256,520.1 260,520.1 
		264,520.1 268,520.1 272,520.1 276,520.1 280,520.1 284,520.1 288,520.1 292,520.1 296,520.1 300,520.1 304,520.1 308,520.1 
		312,520.1 316,520.1 320,520.1 324,520.1 328,520.1 332,520.1 336,520.1 340,520.1 344,520.1 348,520.1 352,520.1 356,520.1 
		360,520.1 364,520.1 368,520.1 372,520.1 376,520.1 380,520.1 384,520.1 388,520.1 392,520.1 396,520.1 400,520.1 404,520.1 
		408,520.1 412,520.1 416,520.1 420,520.1 424,520.1 428,520.1 432,520.1 436,520.1 440,520.1 444,520.1 448,520.1 452,520.1 
		456,520.1 460,520.1 464,520.1 468,520.1 472,520.1 476,520.1 480,520.1 484,520.1 488,520.1 492,520.1 496,520.1 500,520.1 
		504,520.1 508,520.1 512,520.1 516,520.1 520,520.1 524,520.1 528,520.1 532,520.1 536,520.1 540,520.1 544,520.1 548,520.1 
		548,516.1 548,512.1 544,512.1 544,508.1 544,504.1 540,504.1 540,500.1 540,496.1 540,492.1 536,492.1 536,488.1 536,484.1 
		532,484.1 532,480.1 532,476.1 528,476.1 528,472.1 528,468.1 528,464.1 524,464.1 524,460.1 524,456.1 520,456.1 520,452.1 
		520,448.1 520,444.1 516,444.1 516,440.1 516,436.1 512,436.1 512,432.1 512,428.1 512,424.1 508,424.1 508,420.1 508,416.1 
		504,416.1 504,412.1 504,408.1 500,408.1 500,404.1 500,400.1 500,396.1 496,396.1 496,392.1 496,388.1 492,388.1 492,384.1 
		492,380.1 492,376.1 488,376.1 488,372.1 488,368.1 484,368.1 484,364.1 484,360.1 484,356.1 480,356.1 480,352.1 480,348.1 
		476,348.1 476,344.1 476,340.1 476,336.1 472,336.1 472,332.1 472,328.1 468,328.1 468,324.1 468,320.1 464,320.1 464,316.1 
		464,312.1 464,308.1 460,308.1 460,304.1 460,300.1 456,300.1 456,296.1 456,292.1 452,292.1 452,288.1 452,284.1 448,284.1 
		448,280.1 448,276.1 444,276.1 444,272.1 444,268.1 440,268.1 440,264.1 440,260.1 440,256.1 436,256.1 436,252.1 436,248.1 
		432,248.1 432,244.1 432,240.1 428,240.1 428,236.1 428,232.1 424,232.1 424,228.1 424,224.1 420,224.1 420,220.1 420,216.1 
		420,212.1 416,212.1 416,208.1 416,204.1 412,204.1 412,200.1 412,196.1 408,196.1 408,192.1 408,188.1 404,188.1 404,184.1 
		404,180.1 400,180.1 400,176.1 400,172.1 400,168.1 396,168.1 396,164.1 396,160.1 392,160.1 392,156.1 392,152.1 388,152.1 
		388,148.1 388,144.1 384,144.1 384,140.1 384,136.1 380,136.1 380,132.1 380,128.1 380,124.1 376,124.1 376,120.1 376,116.1 
		372,116.1 372,112.1 372,108.1 368,108.1 368,104.1 368,100.1 364,100.1 364,96.1 364,92.1 360,92.1 360,88.1 360,84.1 356,84.1 
		356,80.1 356,76.1 356,72.1 352,72.1 352,68.1 352,64.1 348,64.1 348,60.1 348,56.1 344,56.1 344,52.1 344,48.1 340,48.1 340,44.1 
		340,40.1 336,40.1 336,36.1 336,32.1 332,32.1 332,28.1 328,28.1 328,24.1 324,24.1 	"/>
	<polygon class="st7" points="800,60.1 796,60.1 796,64.1 796,68.1 796,72.1 796,76.1 796,80.1 796,84.1 796,88.1 796,92.1 
		796,96.1 796,100.1 796,104.1 796,108.1 796,112.1 796,116.1 796,120.1 796,124.1 796,128.1 796,132.1 796,136.1 796,140.1 
		800,140.1 800,144.1 804,144.1 804,140.1 804,136.1 804,132.1 804,128.1 804,124.1 804,120.1 804,116.1 804,112.1 804,108.1 
		804,104.1 804,100.1 804,96.1 804,92.1 804,88.1 804,84.1 804,80.1 804,76.1 804,72.1 804,68.1 804,64.1 800,64.1 	"/>
	<polygon class="st7" points="800,360.1 796,360.1 796,364.1 796,368.1 796,372.1 796,376.1 796,380.1 796,384.1 796,388.1 
		796,392.1 796,396.1 796,400.1 796,404.1 796,408.1 796,412.1 796,416.1 796,420.1 796,424.1 796,428.1 796,432.1 796,436.1 
		796,440.1 796,444.1 796,448.1 796,452.1 796,456.1 796,460.1 796,464.1 796,468.1 796,472.1 796,476.1 796,480.1 796,484.1 
		796,488.1 800,488.1 800,492.1 804,492.1 804,488.1 804,484.1 804,480.1 804,476.1 804,472.1 804,468.1 804,464.1 804,460.1 
		804,456.1 804,452.1 804,448.1 804,444.1 804,440.1 804,436.1 804,432.1 804,428.1 804,424.1 804,420.1 804,416.1 804,412.1 
		804,408.1 804,404.1 804,400.1 804,396.1 804,392.1 804,388.1 804,384.1 804,380.1 804,376.1 804,372.1 804,368.1 804,364.1 
		800,364.1 	"/>
	<polygon class="st7" points="800,496.1 796,496.1 796,500.1 796,504.1 796,508.1 792,508.1 792,512.1 792,516.1 788,516.1 
		788,520.1 784,520.1 784,524.1 780,524.1 776,524.1 776,528.1 772,528.1 768,528.1 764,528.1 764,532.1 768,532.1 768,536.1 
		772,536.1 776,536.1 780,536.1 780,532.1 784,532.1 788,532.1 788,528.1 792,528.1 792,524.1 796,524.1 796,520.1 800,520.1 
		800,516.1 800,512.1 800,508.1 804,508.1 804,504.1 804,500.1 800,500.1 	"/>
	<polygon class="st7" points="100,528.1 96,528.1 92,528.1 88,528.1 84,528.1 80,528.1 76,528.1 72,528.1 68,528.1 64,528.1 
		60,528.1 56,528.1 52,528.1 48,528.1 44,528.1 44,532.1 48,532.1 48,536.1 52,536.1 56,536.1 60,536.1 64,536.1 68,536.1 72,536.1 
		76,536.1 80,536.1 84,536.1 88,536.1 92,536.1 96,536.1 100,536.1 104,536.1 104,532.1 100,532.1 	"/>
</g>
</svg>
