<?xml version="1.0" encoding="utf-8"?>
<!-- Generator: Adobe Illustrator 24.2.0, SVG Export Plug-In . SVG Version: 6.00 Build 0)  -->
<svg version="1.1" id="圖層_1" shape-rendering="crispEdges"
	 xmlns="http://www.w3.org/2000/svg" xmlns:xlink="http://www.w3.org/1999/xlink" x="0px" y="0px" viewBox="0 0 56 56"
	 style="enable-background:new 0 0 56 56;" xml:space="preserve">
<style type="text/css">
	.st0{fill:#035E55;}
	.st1{fill:#009A6C;}
	.st2{fill:#05FFB5;}
	.st3{fill:#17CE98;}
	.st4{opacity:0.1176;fill:#011E1B;enable-background:new    ;}
</style>
<g>
</g>
<g>
	<polygon class="st1" points="52,20 52,16 52,12 52,8 52,4 52,0 48,0 48,4 48,8 48,12 48,16 48,20 48,24 48,28 52,28 52,24 	"/>
	<polygon class="st1" points="52,32 52,36 56,36 56,32 56,28 52,28 	"/>
</g>
<g>
</g>
<g>
</g>
<g>
	<polygon class="st4" points="52,4 52,8 52,12 52,16 52,20 52,24 52,28 56,28 56,24 56,20 56,16 56,12 56,8 56,4 56,0 52,0 	"/>
	<polygon class="st4" points="48,24 48,20 48,16 48,12 48,8 48,4 48,0 44,0 40,0 36,0 32,0 28,0 24,0 20,0 16,0 12,0 8,0 4,0 0,0 
		0,4 0,8 0,12 0,16 0,20 0,24 0,28 0,32 0,36 0,40 0,44 0,48 0,52 0,56 4,56 8,56 12,56 16,56 20,56 24,56 28,56 32,56 36,56 40,56 
		44,56 48,56 52,56 56,56 56,52 56,48 56,44 56,40 56,36 52,36 52,32 52,28 48,28 	"/>
</g>
</svg>
