<?xml version="1.0" encoding="utf-8"?>
<!-- Generator: Adobe Illustrator 24.2.0, SVG Export Plug-In . SVG Version: 6.00 Build 0)  -->
<svg version="1.1" id="圖層_1" shape-rendering="crispEdges"
	 xmlns="http://www.w3.org/2000/svg" xmlns:xlink="http://www.w3.org/1999/xlink" x="0px" y="0px" viewBox="0 0 204 208"
	 style="enable-background:new 0 0 204 208;" xml:space="preserve">
<style type="text/css">
	.st0{fill:#035E55;}
	.st1{fill:#17CE98;}
	.st2{fill:#009A6C;}
	.st3{fill:#05FFB5;}
	.st4{opacity:0.1176;fill:#011E1B;enable-background:new    ;}
</style>
<g>
	<polygon class="st0" points="120,72 116,72 116,76 112,76 112,80 116,80 120,80 124,80 124,76 120,76 	"/>
	<rect x="128" y="76" class="st0" width="4" height="4"/>
	<polygon class="st0" points="168,96 168,92 164,92 164,88 160,88 156,88 156,92 160,92 160,96 156,96 156,92 152,92 152,88 152,84 
		148,84 144,84 140,84 140,80 136,80 132,80 132,84 132,88 136,88 140,88 140,92 144,92 144,88 148,88 148,92 144,92 144,96 148,96 
		152,96 152,100 156,100 160,100 160,104 164,104 168,104 168,100 172,100 172,96 	"/>
</g>
<g>
	<rect x="116" y="40" class="st1" width="4" height="4"/>
	<polygon class="st1" points="136,40 136,36 132,36 132,40 132,44 136,44 	"/>
	<rect x="112" y="44" class="st1" width="4" height="4"/>
	<rect x="128" y="44" class="st1" width="4" height="4"/>
	<rect x="84" y="48" class="st1" width="4" height="4"/>
	<polygon class="st1" points="100,48 100,44 100,40 96,40 96,44 96,48 96,52 100,52 	"/>
	<rect x="88" y="52" class="st1" width="4" height="4"/>
	<polygon class="st1" points="128,52 128,48 124,48 124,52 124,56 128,56 	"/>
	<rect x="140" y="52" class="st1" width="4" height="4"/>
	<rect x="92" y="56" class="st1" width="4" height="4"/>
	<rect x="136" y="56" class="st1" width="4" height="4"/>
	<rect x="160" y="60" class="st1" width="4" height="4"/>
	<polygon class="st1" points="80,68 80,64 76,64 72,64 68,64 68,68 72,68 76,68 	"/>
	<polygon class="st1" points="160,68 160,64 156,64 152,64 152,68 156,68 	"/>
	<rect x="180" y="64" class="st1" width="4" height="4"/>
	<polygon class="st1" points="84,72 88,72 88,68 84,68 80,68 80,72 	"/>
	<rect x="176" y="68" class="st1" width="4" height="4"/>
	<rect x="92" y="72" class="st1" width="4" height="4"/>
	<rect x="172" y="72" class="st1" width="4" height="4"/>
	<rect x="88" y="76" class="st1" width="4" height="4"/>
	<rect x="84" y="80" class="st1" width="4" height="4"/>
	<polygon class="st1" points="76,84 76,88 80,88 84,88 84,84 80,84 	"/>
	<path class="st1" d="M180,84h-4v-4h-4h-4v-4h-4h-4h-4v-4h-4v-4h-4v4h-4v-4h-4h-4v-4h-4h-4v-4h-4h-4v-4h-4h-4h-4h-4h-4v4h4v4h-4v4v4
		v4v4v4h4v4h4v4h4h4v4v4h4v-4h4v4h4v4h4v4h4v-4h4v4v4h4h4v4h4h4h4v4v4v4v4v4h4v-4v-4v-4v-4v-4h4v-4h4h4h4v-4h4v-4v-4v-4v-4v-4h-4V84
		z M144,108v-4h4v4H144z M180,92v4v4h-4v4h-4v4h-4h-4h-4v-4h-4h-4v-4h-4h-4h-4v-4h-4h-4v-4h-4h-4v-4h-4h-4v-4h-4v-4h-4v-4v-4h4v-4
		v-4h4v4h4h4h4v4h4h4v4h4h4h4v4h4h4v4h4h4h4v4h4h4v4H180z"/>
	<polygon class="st1" points="196,84 192,84 192,88 196,88 200,88 204,88 204,84 200,84 	"/>
	<polygon class="st1" points="214.9,84 210.9,84 210.9,88 214.9,88 218.9,88 218.9,84 	"/>
	<rect x="188" y="88" class="st1" width="4" height="4"/>
	<rect x="100" y="92" class="st1" width="4" height="4"/>
	<polygon class="st1" points="92,96 92,100 96,100 100,100 100,96 96,96 	"/>
	<rect x="88" y="100" class="st1" width="4" height="4"/>
	<rect x="112" y="100" class="st1" width="4" height="4"/>
	<polygon class="st1" points="196,100 192,100 188,100 188,104 192,104 196,104 200,104 204,104 204,100 200,100 	"/>
	<polygon class="st1" points="108,108 108,112 112,112 112,108 112,104 108,104 	"/>
	<polygon class="st1" points="210.9,104 210.9,108 214.9,108 218.9,108 218.9,104 214.9,104 	"/>
	<polygon class="st1" points="104,116 104,120 108,120 108,116 108,112 104,112 	"/>
	<rect x="124" y="112" class="st1" width="4" height="4"/>
	<rect x="120" y="116" class="st1" width="4" height="4"/>
	<rect x="144" y="116" class="st1" width="4" height="4"/>
	<polygon class="st1" points="192,116 188,116 188,120 192,120 196,120 200,120 200,116 196,116 	"/>
	<polygon class="st1" points="140,124 140,128 140,132 144,132 144,128 144,124 144,120 140,120 	"/>
	<rect x="172" y="120" class="st1" width="4" height="4"/>
	<polygon class="st1" points="176,128 176,132 180,132 180,128 180,124 176,124 	"/>
</g>
<g>
	<rect x="144" y="88" class="st2" width="4" height="4"/>
	<polygon class="st2" points="176,88 172,88 168,88 168,84 164,84 160,84 156,84 156,80 152,80 148,80 148,76 144,76 140,76 136,76 
		136,72 132,72 128,72 128,68 124,68 120,68 116,68 116,64 112,64 112,68 112,72 108,72 108,76 108,80 112,80 112,76 116,76 116,72 
		120,72 120,76 124,76 124,80 120,80 116,80 112,80 112,84 116,84 116,88 120,88 124,88 124,92 128,92 132,92 132,96 136,96 140,96 
		140,100 144,100 148,100 152,100 152,96 148,96 144,96 144,92 140,92 140,88 136,88 132,88 132,84 132,80 128,80 128,76 132,76 
		132,80 136,80 140,80 140,84 144,84 148,84 152,84 152,88 152,92 156,92 156,88 160,88 164,88 164,92 168,92 168,96 172,96 
		172,100 168,100 168,104 164,104 160,104 160,108 164,108 168,108 172,108 172,104 176,104 176,100 180,100 180,96 180,92 176,92 	
		"/>
	<rect x="156" y="92" class="st2" width="4" height="4"/>
	<polygon class="st2" points="290.9,96 286.9,96 282.9,96 282.9,100 286.9,100 290.9,100 294.9,100 294.9,96 	"/>
	<polygon class="st2" points="156,100 152,100 152,104 156,104 160,104 160,100 	"/>
	<polygon class="st2" points="338.9,100 334.9,100 330.9,100 326.9,100 322.9,100 318.9,100 314.9,100 310.9,100 306.9,100 
		302.9,100 298.9,100 294.9,100 294.9,104 298.9,104 302.9,104 306.9,104 310.9,104 314.9,104 318.9,104 322.9,104 326.9,104 
		330.9,104 334.9,104 338.9,104 342.9,104 342.9,100 	"/>
	<rect x="136" y="104" class="st2" width="4" height="4"/>
	<rect x="144" y="104" class="st2" width="4" height="4"/>
	<rect x="184" y="112" class="st2" width="4" height="4"/>
	<polygon class="st2" points="226.9,124 222.9,124 222.9,128 226.9,128 230.9,128 230.9,124 	"/>
	<rect x="230.9" y="128" class="st2" width="4" height="4"/>
	<rect x="254.9" y="128" class="st2" width="4" height="4"/>
	<rect x="234.9" y="132" class="st2" width="4" height="4"/>
	<rect x="258.9" y="132" class="st2" width="4" height="4"/>
	<rect x="238.9" y="136" class="st2" width="4" height="4"/>
	<rect x="262.9" y="136" class="st2" width="4" height="4"/>
	<rect x="266.9" y="140" class="st2" width="4" height="4"/>
	<polygon class="st2" points="274.9,144 270.9,144 270.9,148 270.9,152 274.9,152 274.9,148 	"/>
	<rect x="274.9" y="152" class="st2" width="4" height="4"/>
	<rect x="278.9" y="156" class="st2" width="4" height="4"/>
	<rect x="282.9" y="160" class="st2" width="4" height="4"/>
</g>
<g>
	<polygon class="st3" points="140,68 144,68 144,64 140,64 136,64 136,68 	"/>
	<rect x="144" y="68" class="st3" width="4" height="4"/>
	<rect x="382.9" y="68" class="st3" width="4" height="4"/>
	<polygon class="st3" points="164,72 160,72 156,72 156,76 160,76 164,76 168,76 168,72 	"/>
	<polygon class="st3" points="172,76 168,76 168,80 172,80 176,80 176,76 	"/>
	<rect x="176" y="80" class="st3" width="4" height="4"/>
	<rect x="180" y="84" class="st3" width="4" height="4"/>
	<polygon class="st3" points="254.9,84 250.9,84 246.9,84 242.9,84 238.9,84 234.9,84 230.9,84 226.9,84 222.9,84 218.9,84 
		218.9,88 222.9,88 226.9,88 230.9,88 234.9,88 238.9,88 242.9,88 246.9,88 250.9,88 254.9,88 258.9,88 258.9,84 	"/>
	<rect x="370.9" y="84" class="st3" width="4" height="4"/>
	<polygon class="st3" points="184,92 184,96 184,100 184,104 184,108 188,108 188,104 188,100 188,96 188,92 188,88 184,88 	"/>
	<polygon class="st3" points="262.9,88 258.9,88 258.9,92 262.9,92 266.9,92 266.9,88 	"/>
	<rect x="366.9" y="88" class="st3" width="4" height="4"/>
	<polygon class="st3" points="116,92 112,92 108,92 108,88 104,88 104,84 100,84 100,80 100,76 100,72 100,68 100,64 104,64 104,60 
		100,60 100,56 104,56 108,56 112,56 116,56 120,56 120,60 124,60 128,60 128,64 132,64 136,64 136,60 132,60 132,56 128,56 124,56 
		124,52 120,52 116,52 116,48 112,48 108,48 104,48 104,52 100,52 96,52 96,56 96,60 92,60 88,60 88,64 88,68 88,72 88,76 92,76 
		92,72 96,72 96,76 92,76 92,80 92,84 92,88 96,88 96,92 100,92 104,92 104,96 108,96 108,100 112,100 116,100 116,96 	"/>
	<polygon class="st3" points="274.9,92 270.9,92 266.9,92 266.9,96 270.9,96 274.9,96 278.9,96 282.9,96 282.9,92 278.9,92 	"/>
	<polygon class="st3" points="358.9,92 354.9,92 350.9,92 350.9,96 354.9,96 358.9,96 	"/>
	<polygon class="st3" points="342.9,96 342.9,100 346.9,100 350.9,100 350.9,96 346.9,96 	"/>
	<rect x="218.9" y="104" class="st3" width="4" height="4"/>
	<rect x="180" y="108" class="st3" width="4" height="4"/>
	<polygon class="st3" points="230.9,108 226.9,108 222.9,108 222.9,112 226.9,112 230.9,112 234.9,112 234.9,108 	"/>
	<polygon class="st3" points="144,112 140,112 140,108 136,108 132,108 132,104 128,104 128,100 124,100 124,96 120,96 120,100 
		116,100 116,104 120,104 124,104 124,108 128,108 128,112 132,112 136,112 136,116 140,116 144,116 148,116 148,112 	"/>
	<polygon class="st3" points="172,112 168,112 168,116 164,116 164,120 168,120 172,120 172,116 176,116 180,116 180,112 176,112 	
		"/>
	<polygon class="st3" points="242.9,112 238.9,112 234.9,112 234.9,116 238.9,116 242.9,116 	"/>
	<polygon class="st3" points="152,116 148,116 148,120 152,120 156,120 160,120 160,116 156,116 	"/>
	<rect x="200" y="116" class="st3" width="4" height="4"/>
	<rect x="242.9" y="116" class="st3" width="4" height="4"/>
	<polygon class="st3" points="214.9,120 210.9,120 210.9,124 214.9,124 218.9,124 222.9,124 222.9,120 218.9,120 	"/>
	<rect x="246.9" y="120" class="st3" width="4" height="4"/>
	<rect x="250.9" y="124" class="st3" width="4" height="4"/>
	<polygon class="st3" points="362.9,128 362.9,132 366.9,132 370.9,132 370.9,128 366.9,128 	"/>
	<rect x="358.9" y="132" class="st3" width="4" height="4"/>
	<rect x="242.9" y="140" class="st3" width="4" height="4"/>
	<polygon class="st3" points="346.9,144 346.9,140 342.9,140 338.9,140 338.9,144 342.9,144 	"/>
	<rect x="246.9" y="144" class="st3" width="4" height="4"/>
	<polygon class="st3" points="330.9,144 330.9,148 334.9,148 338.9,148 338.9,144 334.9,144 	"/>
	<rect x="250.9" y="148" class="st3" width="4" height="4"/>
	<polygon class="st3" points="322.9,148 318.9,148 314.9,148 314.9,152 318.9,152 322.9,152 326.9,152 330.9,152 330.9,148 
		326.9,148 	"/>
	<polygon class="st3" points="258.9,152 254.9,152 254.9,156 258.9,156 262.9,156 262.9,152 	"/>
	<polygon class="st3" points="306.9,152 302.9,152 298.9,152 294.9,152 290.9,152 290.9,156 294.9,156 298.9,156 302.9,156 
		306.9,156 310.9,156 314.9,156 314.9,152 310.9,152 	"/>
	<polygon class="st3" points="262.9,156 262.9,160 266.9,160 270.9,160 270.9,156 266.9,156 	"/>
	<polygon class="st3" points="290.9,164 286.9,164 286.9,168 290.9,168 294.9,168 294.9,164 	"/>
	<polygon class="st3" points="298.9,168 294.9,168 294.9,172 298.9,172 302.9,172 302.9,168 	"/>
	<polygon class="st3" points="310.9,172 306.9,172 302.9,172 302.9,176 306.9,176 310.9,176 314.9,176 314.9,172 	"/>
	<polygon class="st3" points="322.9,176 318.9,176 314.9,176 314.9,180 318.9,180 322.9,180 326.9,180 330.9,180 330.9,176 
		326.9,176 	"/>
	<polygon class="st3" points="346.9,176 342.9,176 342.9,180 346.9,180 350.9,180 350.9,176 	"/>
	<polygon class="st3" points="350.9,184 350.9,188 354.9,188 354.9,184 354.9,180 350.9,180 	"/>
	<rect x="346.9" y="188" class="st3" width="4" height="4"/>
	<rect x="334.9" y="192" class="st3" width="4" height="4"/>
	<rect x="342.9" y="192" class="st3" width="4" height="4"/>
</g>
<g>
	<polygon class="st4" points="196,0 192,0 188,0 184,0 180,0 176,0 172,0 168,0 164,0 160,0 156,0 152,0 148,0 144,0 140,0 136,0 
		132,0 128,0 124,0 120,0 116,0 112,0 108,0 104,0 100,0 96,0 92,0 88,0 84,0 80,0 76,0 72,0 68,0 64,0 60,0 56,0 52,0 48,0 44,0 
		40,0 36,0 32,0 28,0 24,0 20,0 16,0 12,0 8,0 4,0 0,0 0,4 0,8 0,12 0,16 0,20 0,24 0,28 0,32 0,36 0,40 0,44 0,48 0,52 0,56 0,60 
		0,64 0,68 0,72 0,76 0,80 0,84 0,88 0,92 0,96 0,100 0,104 0,108 0,112 0,116 0,120 0,124 0,128 0,132 0,136 0,140 0,144 0,148 
		0,152 0,156 0,160 0,164 0,168 0,172 0,176 0,180 0,184 0,188 0,192 0,196 0,200 0,204 0,208 4,208 8,208 12,208 16,208 20,208 
		24,208 28,208 32,208 36,208 40,208 44,208 48,208 52,208 56,208 60,208 64,208 68,208 72,208 76,208 80,208 84,208 88,208 92,208 
		96,208 100,208 104,208 108,208 112,208 116,208 120,208 124,208 128,208 132,208 136,208 140,208 144,208 148,208 152,208 
		156,208 160,208 164,208 168,208 172,208 176,208 180,208 184,208 188,208 192,208 196,208 200,208 204,208 204,204 204,200 
		204,196 204,192 204,188 204,184 204,180 204,176 204,172 204,168 204,164 204,160 204,156 204,152 204,148 204,144 204,140 
		204,136 204,132 204,128 204,124 204,120 200,120 196,120 192,120 188,120 188,116 184,116 184,112 180,112 180,116 176,116 
		172,116 172,120 176,120 176,124 180,124 180,128 180,132 176,132 176,128 176,124 172,124 172,120 168,120 164,120 164,124 
		164,128 164,132 164,136 160,136 160,132 160,128 160,124 160,120 156,120 152,120 148,120 144,120 144,124 144,128 144,132 
		140,132 140,128 140,124 140,120 144,120 144,116 140,116 136,116 136,112 132,112 128,112 128,116 124,116 124,120 120,120 
		120,116 124,116 124,112 128,112 128,108 124,108 124,104 120,104 116,104 112,104 112,108 112,112 108,112 108,116 108,120 
		104,120 104,116 104,112 108,112 108,108 108,104 112,104 112,100 108,100 108,96 104,96 100,96 100,100 96,100 92,100 92,104 
		88,104 88,100 92,100 92,96 96,96 100,96 100,92 96,92 96,88 92,88 92,84 92,80 88,80 88,84 84,84 84,88 80,88 76,88 76,84 80,84 
		84,84 84,80 88,80 88,76 88,72 84,72 80,72 80,68 76,68 72,68 68,68 68,64 72,64 76,64 80,64 80,68 84,68 88,68 88,64 88,60 92,60 
		92,56 88,56 88,52 84,52 84,48 88,48 88,52 92,52 92,56 96,56 96,52 96,48 96,44 96,40 100,40 100,44 100,48 100,52 104,52 104,48 
		108,48 112,48 112,44 116,44 116,40 120,40 120,44 116,44 116,48 116,52 120,52 124,52 124,48 128,48 128,44 132,44 132,40 132,36 
		136,36 136,40 136,44 132,44 132,48 128,48 128,52 128,56 132,56 132,60 136,60 136,56 140,56 140,52 144,52 144,56 140,56 140,60 
		136,60 136,64 140,64 144,64 144,68 148,68 152,68 152,64 156,64 160,64 160,60 164,60 164,64 160,64 160,68 156,68 152,68 152,72 
		156,72 160,72 164,72 168,72 168,76 172,76 172,72 176,72 176,68 180,68 180,64 184,64 184,68 180,68 180,72 176,72 176,76 176,80 
		180,80 180,84 184,84 184,88 188,88 192,88 192,84 196,84 200,84 204,84 204,80 204,76 204,72 204,68 204,64 204,60 204,56 204,52 
		204,48 204,44 204,40 204,36 204,32 204,28 204,24 204,20 204,16 204,12 204,8 204,4 204,0 200,0 	"/>
	<path class="st4" d="M410.9,0h-4h-4h-4h-4h-4h-4h-4h-4h-4h-4h-4h-4h-4h-4h-4h-4h-4h-4h-4h-4h-4h-4h-4h-4h-4h-4h-4h-4h-4h-4h-4h-4
		h-4h-4h-4h-4h-4h-4h-4h-4h-4h-4h-4h-4h-4h-4h-4h-4h-4h-4v4v4v4v4v4v4v4v4v4v4v4v4v4v4v4v4v4v4v4v4v4h4h4h4h4h4h4h4h4h4h4h4h4v4h4h4
		v4h4h4h4h4v4h4h4h4v4h4h4h4h4h4h4h4h4h4h4h4h4v-4h4h4v-4h4h4v4h-4h-4v4h-4h-4v4h-4h-4h-4h-4h-4h-4h-4h-4h-4h-4h-4h-4v-4h-4h-4h-4
		v-4h-4h-4h-4h-4v-4h-4h-4v-4h-4h-4h-4h-4h-4h-4h-4h-4h-4h-4h-4h-4v4v4v4v4h4h4h4v4h4h4h4v4h4h4v4h4v4h4v4h4v4h4v4h4v4h4v4h4v4h4v4
		v4h4v4h4v4h4v4h4h4v4h4h4v4h4h4h4v4h4h4h4h4v4h-4h-4h-4h-4v-4h-4h-4h-4v-4h-4h-4v-4h-4h-4v-4h-4v-4h-4v-4h-4v-4h-4v-4v-4h-4v-4h-4
		v-4h-4v-4h-4v-4h-4v-4h-4v-4h-4v-4h-4h-4v-4h-4h-4h-4v-4h-4h-4h-4v4v4v4h4h4h4v4h4h4v4h4v4h4v4h4v4h4v4h4v4h4v4h4h4v4h4h4v4h-4h-4
		v-4h-4h-4v-4h-4v-4h-4v-4h-4v-4h-4v-4h-4v-4h-4v-4h-4h-4v-4h-4h-4h-4v4v4v4v4v4v4v4v4v4v4v4v4v4v4v4v4v4v4v4v4v4h4h4h4h4h4h4h4h4h4
		h4h4h4h4h4h4h4h4h4h4h4h4h4h4h4h4h4h4h4h4h4h4h4h4h4h4h4h4h4h4h4h4h4h4h4h4h4h4h4h4h4h4v-4v-4v-4v-4v-4v-4v-4v-4v-4v-4v-4v-4v-4v-4
		v-4v-4v-4v-4v-4v-4v-4v-4v-4v-4v-4v-4v-4v-4v-4v-4v-4v-4v-4v-4v-4v-4v-4v-4v-4v-4v-4v-4v-4v-4v-4v-4v-4v-4v-4V8V4V0H410.9z
		 M334.9,192h4v4h-4V192z M342.9,192h4v-4h4v-4v-4h-4h-4v-4h4h4v4h4v4v4h-4v4h-4v4h-4V192z M358.9,132h4v-4h4h4v4h-4h-4v4h-4V132z
		 M386.9,72h-4v-4h4V72z M366.9,88h4v-4h4v4h-4v4h-4V88z M290.9,152h4h4h4h4h4h4v-4h4h4h4h4v-4h4h4v-4h4h4v4h-4h-4v4h-4h-4v4h-4h-4
		h-4h-4v4h-4h-4h-4h-4h-4h-4V152z"/>
	<polygon class="st4" points="188,92 188,96 188,100 192,100 196,100 200,100 204,100 204,96 204,92 204,88 200,88 196,88 192,88 
		192,92 	"/>
	<polygon class="st4" points="188,116 192,116 196,116 200,116 204,116 204,112 204,108 204,104 200,104 196,104 192,104 188,104 
		188,108 184,108 184,112 188,112 	"/>
</g>
</svg>
