<?xml version="1.0" encoding="utf-8"?>
<!-- Generator: Adobe Illustrator 24.2.0, SVG Export Plug-In . SVG Version: 6.00 Build 0)  -->
<svg version="1.1" id="圖層_1" shape-rendering="crispEdges"
	 xmlns="http://www.w3.org/2000/svg" xmlns:xlink="http://www.w3.org/1999/xlink" x="0px" y="0px" viewBox="0 0 96 96"
	 style="enable-background:new 0 0 96 96;" xml:space="preserve">
<style type="text/css">
	.st0{fill:#035E55;}
	.st1{fill:#05FFB5;}
	.st2{fill:#17CE98;}
	.st3{fill:#009A6C;}
	.st4{opacity:0.1176;fill:#011E1B;enable-background:new    ;}
</style>
<g>
	<rect x="16" class="st0" width="4" height="4"/>
	<polygon class="st0" points="12,8 12,4 12,0 8,0 4,0 0,0 0,4 4,4 8,4 8,8 	"/>
	<polygon class="st0" points="28,8 28,4 24,4 20,4 20,8 16,8 16,12 12,12 12,16 16,16 20,16 20,20 24,20 28,20 28,16 32,16 32,12 
		32,8 	"/>
</g>
<g>
	<polygon class="st1" points="44,4 44,0 40,0 40,4 40,8 44,8 44,12 44,16 40,16 40,20 36,20 36,24 36,28 40,28 40,24 44,24 44,20 
		48,20 48,16 48,12 48,8 48,4 	"/>
	<polygon class="st1" points="28,28 24,28 20,28 16,28 16,24 12,24 8,24 8,20 4,20 0,20 0,24 4,24 4,28 8,28 12,28 12,32 16,32 
		20,32 24,32 28,32 32,32 36,32 36,28 32,28 	"/>
</g>
<g>
	<polygon class="st2" points="40,0 36,0 32,0 32,4 36,4 36,8 40,8 40,4 	"/>
	<rect x="52" class="st2" width="4" height="4"/>
	<rect x="4" y="4" class="st2" width="4" height="4"/>
	<polygon class="st2" points="16,12 16,8 12,8 8,8 8,12 12,12 	"/>
	<polygon class="st2" points="40,12 36,12 36,16 36,20 40,20 40,16 44,16 44,12 44,8 40,8 	"/>
	<rect x="48" y="16" class="st2" width="4" height="4"/>
	<polygon class="st2" points="32,24 28,24 24,24 20,24 20,20 16,20 16,16 12,16 8,16 8,12 4,12 0,12 0,16 0,20 4,20 8,20 8,24 
		12,24 16,24 16,28 20,28 24,28 28,28 32,28 36,28 36,24 36,20 32,20 	"/>
	<rect x="52" y="20" class="st2" width="4" height="4"/>
	<polygon class="st2" points="4,36 4,40 8,40 8,36 8,32 4,32 	"/>
	<polygon class="st2" points="28,32 24,32 24,36 24,40 28,40 28,36 	"/>
	<rect y="40" class="st2" width="4" height="4"/>
	<rect x="28" y="40" class="st2" width="4" height="4"/>
</g>
<g>
	<polygon class="st3" points="16,0 12,0 12,4 12,8 16,8 20,8 20,4 16,4 	"/>
	<polygon class="st3" points="4,8 4,4 0,4 0,8 0,12 4,12 8,12 8,8 	"/>
	<polygon class="st3" points="36,8 36,4 32,4 32,0 28,0 24,0 20,0 20,4 24,4 28,4 28,8 32,8 32,12 32,16 28,16 28,20 24,20 20,20 
		20,24 24,24 28,24 32,24 32,20 36,20 36,16 36,12 40,12 40,8 	"/>
	<rect x="8" y="12" class="st3" width="4" height="4"/>
	<rect x="16" y="16" class="st3" width="4" height="4"/>
</g>
<g>
	<polygon class="st4" points="88,0 84,0 80,0 76,0 72,0 68,0 64,0 60,0 56,0 56,4 52,4 52,0 48,0 44,0 44,4 48,4 48,8 48,12 48,16 
		52,16 52,20 56,20 56,24 52,24 52,20 48,20 44,20 44,24 40,24 40,28 36,28 36,32 32,32 28,32 28,36 28,40 32,40 32,44 28,44 28,40 
		24,40 24,36 24,32 20,32 16,32 12,32 12,28 8,28 4,28 4,24 0,24 0,28 0,32 0,36 0,40 4,40 4,36 4,32 8,32 8,36 8,40 4,40 4,44 
		0,44 0,48 0,52 0,56 0,60 0,64 0,68 0,72 0,76 0,80 0,84 0,88 0,92 0,96 4,96 8,96 12,96 16,96 20,96 24,96 28,96 32,96 36,96 
		40,96 44,96 48,96 52,96 56,96 60,96 64,96 68,96 72,96 76,96 80,96 84,96 88,96 92,96 96,96 96,92 96,88 96,84 96,80 96,76 96,72 
		96,68 96,64 96,60 96,56 96,52 96,48 96,44 96,40 96,36 96,32 96,28 96,24 96,20 96,16 96,12 96,8 96,4 96,0 92,0 	"/>
</g>
</svg>
