<?xml version="1.0" encoding="utf-8"?>
<!-- Generator: Adobe Illustrator 24.2.0, SVG Export Plug-In . SVG Version: 6.00 Build 0)  -->
<svg version="1.1" id="圖層_1" shape-rendering="crispEdges"
	 xmlns="http://www.w3.org/2000/svg" xmlns:xlink="http://www.w3.org/1999/xlink" x="0px" y="0px" viewBox="0 0 96 96"
	 style="enable-background:new 0 0 96 96;" xml:space="preserve">
<style type="text/css">
	.st0{fill:#035E55;}
	.st1{fill:#05FFB5;}
	.st2{fill:#17CE98;}
	.st3{fill:#009A6C;}
	.st4{opacity:0.1176;fill:#011E1B;enable-background:new    ;}
</style>
<g>
	<polygon class="st1" points="88,0 84,0 84,4 88,4 88,8 92,8 96,8 96,4 96,0 92,0 	"/>
</g>
<g>
	<polygon class="st2" points="76,4 76,8 80,8 84,8 84,4 80,4 	"/>
	<rect x="72" y="8" class="st2" width="4" height="4"/>
</g>
<g>
</g>
<g>
	<polygon class="st4" points="88,8 88,4 84,4 84,8 80,8 76,8 76,12 72,12 72,8 76,8 76,4 80,4 84,4 84,0 80,0 76,0 72,0 68,0 64,0 
		60,0 56,0 52,0 48,0 44,0 40,0 36,0 32,0 28,0 24,0 20,0 16,0 12,0 8,0 4,0 0,0 0,4 0,8 0,12 0,16 0,20 0,24 0,28 0,32 0,36 0,40 
		0,44 0,48 0,52 0,56 0,60 0,64 0,68 0,72 0,76 0,80 0,84 0,88 0,92 0,96 4,96 8,96 12,96 16,96 20,96 24,96 28,96 32,96 36,96 
		40,96 44,96 48,96 52,96 56,96 60,96 64,96 68,96 72,96 76,96 80,96 84,96 88,96 92,96 96,96 96,92 96,88 96,84 96,80 96,76 96,72 
		96,68 96,64 96,60 96,56 96,52 96,48 96,44 96,40 96,36 96,32 96,28 96,24 96,20 96,16 96,12 96,8 92,8 	"/>
</g>
</svg>
