<?xml version="1.0" encoding="utf-8"?>
<!-- Generator: Adobe Illustrator 24.2.0, SVG Export Plug-In . SVG Version: 6.00 Build 0)  -->
<svg version="1.1" id="圖層_1" shape-rendering="crispEdges"
	 xmlns="http://www.w3.org/2000/svg" xmlns:xlink="http://www.w3.org/1999/xlink" x="0px" y="0px" viewBox="0 0 56 64"
	 style="enable-background:new 0 0 56 64;" xml:space="preserve">
<style type="text/css">
	.st0{fill:#FFAC83;}
	.st1{fill:#961515;}
	.st2{fill:#E13030;}
	.st3{fill:#FFE7D8;}
	.st4{fill:#D99F77;}
	.st5{fill:#4E7480;}
</style>
<g>
	<rect x="24" y="20" class="st0" width="4" height="4"/>
	<rect x="12" y="24" class="st0" width="4" height="4"/>
</g>
<rect x="24" y="28" class="st1" width="4" height="4"/>
<g>
	<path class="st2" d="M24,32c0-2,0-6,0-8h-4v4h-4v4h4v4c2,0,6,0,8,0v-4H24z"/>
	<rect x="16" y="36" class="st2" width="4" height="4"/>
</g>
<g>
	<rect x="28" y="36" class="st3" width="4" height="4"/>
	<rect x="32" y="40" class="st3" width="4" height="4"/>
</g>
<g>
	<rect x="12" y="36" class="st4" width="4" height="4"/>
	<rect x="36" y="44" class="st4" width="4" height="4"/>
	<rect x="40" y="48" class="st4" width="4" height="4"/>
</g>
<path class="st5" d="M48,8C32.1,8,15.9,8,0,8c0,18.6,0,37.4,0,56c18.6,0,37.4,0,56,0c0-18.6,0-37.4,0-56C54,8,50,8,48,8z M44,52h-4
	v-4h-4v-4h-4v-4h-4v-4c-2,0-6,0-8,0v4c-2,0-6,0-8,0v-4c2,0,6,0,8,0v-4h-4v-4h-4v-4h4v4h4v-4h4v-4h4v4h-4v4h4c0,2,0,6,0,8h4v4h4v4h4
	v4h4V52z"/>
</svg>
