<?xml version="1.0" encoding="utf-8"?>
<!-- Generator: Adobe Illustrator 24.2.0, SVG Export Plug-In . SVG Version: 6.00 Build 0)  -->
<svg version="1.1" id="圖層_1" shape-rendering="crispEdges"
	 xmlns="http://www.w3.org/2000/svg" xmlns:xlink="http://www.w3.org/1999/xlink" x="0px" y="0px" viewBox="0 0 56 56"
	 style="enable-background:new 0 0 56 56;" xml:space="preserve">
<style type="text/css">
	.st0{fill:#035E55;}
	.st1{fill:#009A6C;}
	.st2{fill:#05FFB5;}
	.st3{fill:#17CE98;}
	.st4{opacity:0.1176;fill:#011E1B;enable-background:new    ;}
</style>
<g>
</g>
<g>
	<polygon class="st1" points="48,44 44,44 40,44 36,44 32,44 28,44 28,48 32,48 36,48 40,48 44,48 48,48 52,48 56,48 56,44 52,44 	
		"/>
	<rect x="24" y="48" class="st1" width="4" height="4"/>
</g>
<g>
	<polygon class="st2" points="16,56 20,56 24,56 24,52 20,52 16,52 12,52 8,52 8,56 12,56 	"/>
</g>
<g>
	<rect x="12" y="40" class="st3" width="4" height="4"/>
	<rect y="48" class="st3" width="4" height="4"/>
</g>
<g>
	<path class="st4" d="M48,0h-4h-4h-4h-4h-4h-4h-4h-4h-4H8H4H0v4v4v4v4v4v4v4v4v4v4v4v4h4v4H0v4h4h4v-4h4h4h4h4v-4h4v-4h4h4h4h4h4h4
		h4v-4v-4v-4v-4v-4v-4v-4v-4V8V4V0h-4H48z M12,40h4v4h-4V40z"/>
	<polygon class="st4" points="24,52 24,56 28,56 32,56 36,56 40,56 44,56 48,56 52,56 56,56 56,52 56,48 52,48 48,48 44,48 40,48 
		36,48 32,48 28,48 28,52 	"/>
</g>
</svg>
