<?xml version="1.0" encoding="utf-8"?>
<!-- Generator: Adobe Illustrator 24.2.0, SVG Export Plug-In . SVG Version: 6.00 Build 0)  -->
<svg version="1.1" id="圖層_1" shape-rendering="crispEdges"
	 xmlns="http://www.w3.org/2000/svg" xmlns:xlink="http://www.w3.org/1999/xlink" x="0px" y="0px" viewBox="0 0 56 56"
	 style="enable-background:new 0 0 56 56;" xml:space="preserve">
<style type="text/css">
	.st0{fill:#035E55;}
	.st1{fill:#009A6C;}
	.st2{fill:#05FFB5;}
	.st3{fill:#17CE98;}
	.st4{opacity:0.1176;fill:#011E1B;enable-background:new    ;}
</style>
<g>
</g>
<g>
</g>
<g>
	<polygon class="st2" points="52,44 52,48 56,48 56,44 56,40 52,40 	"/>
</g>
<g>
	<rect x="40" y="32" class="st3" width="4" height="4"/>
	<polygon class="st3" points="48,36 44,36 44,40 48,40 52,40 56,40 56,36 52,36 	"/>
	<rect x="52" y="48" class="st3" width="4" height="4"/>
	<rect x="48" y="52" class="st3" width="4" height="4"/>
</g>
<g>
	<polygon class="st4" points="48,0 44,0 40,0 36,0 32,0 28,0 24,0 20,0 16,0 12,0 8,0 4,0 0,0 0,4 0,8 0,12 0,16 0,20 0,24 0,28 
		0,32 0,36 0,40 0,44 0,48 0,52 0,56 4,56 8,56 12,56 16,56 20,56 24,56 28,56 32,56 36,56 40,56 44,56 48,56 48,52 52,52 52,48 
		52,44 52,40 48,40 44,40 44,36 40,36 40,32 44,32 44,36 48,36 52,36 56,36 56,32 56,28 56,24 56,20 56,16 56,12 56,8 56,4 56,0 
		52,0 	"/>
	<rect x="52" y="52" class="st4" width="4" height="4"/>
</g>
</svg>
