<?xml version="1.0" encoding="utf-8"?>
<!-- Generator: Adobe Illustrator 24.2.0, SVG Export Plug-In . SVG Version: 6.00 Build 0)  -->
<svg version="1.1" id="圖層_1" shape-rendering="crispEdges"
	 xmlns="http://www.w3.org/2000/svg" xmlns:xlink="http://www.w3.org/1999/xlink" x="0px" y="0px" viewBox="0 0 56 56"
	 style="enable-background:new 0 0 56 56;" xml:space="preserve">
<style type="text/css">
	.st0{fill:#035E55;}
	.st1{fill:#009A6C;}
	.st2{fill:#05FFB5;}
	.st3{fill:#17CE98;}
	.st4{opacity:0.1176;fill:#011E1B;enable-background:new    ;}
</style>
<g>
</g>
<g>
	<polygon class="st1" points="48,48 44,48 44,52 48,52 52,52 52,48 	"/>
	<rect x="52" y="52" class="st1" width="4" height="4"/>
</g>
<g>
	<polygon class="st2" points="8,44 12,44 16,44 20,44 24,44 28,44 32,44 32,40 28,40 24,40 20,40 16,40 12,40 8,40 4,40 0,40 0,44 
		4,44 	"/>
</g>
<g>
	<polygon class="st3" points="36,44 32,44 32,48 36,48 40,48 44,48 44,44 40,44 	"/>
</g>
<g>
	<polygon class="st4" points="48,0 44,0 40,0 36,0 32,0 28,0 24,0 20,0 16,0 12,0 8,0 4,0 0,0 0,4 0,8 0,12 0,16 0,20 0,24 0,28 
		0,32 0,36 0,40 4,40 8,40 12,40 16,40 20,40 24,40 28,40 32,40 32,44 36,44 40,44 44,44 44,48 48,48 52,48 52,52 56,52 56,48 
		56,44 56,40 56,36 56,32 56,28 56,24 56,20 56,16 56,12 56,8 56,4 56,0 52,0 	"/>
	<polygon class="st4" points="44,52 44,48 40,48 36,48 32,48 32,44 28,44 24,44 20,44 16,44 12,44 8,44 4,44 0,44 0,48 0,52 0,56 
		4,56 8,56 12,56 16,56 20,56 24,56 28,56 32,56 36,56 40,56 44,56 48,56 52,56 52,52 48,52 	"/>
</g>
</svg>
