<?xml version="1.0" encoding="utf-8"?>
<!-- Generator: Adobe Illustrator 24.2.0, SVG Export Plug-In . SVG Version: 6.00 Build 0)  -->
<svg version="1.1" id="圖層_1" shape-rendering="crispEdges"
	 xmlns="http://www.w3.org/2000/svg" xmlns:xlink="http://www.w3.org/1999/xlink" x="0px" y="0px" viewBox="0 0 96 96"
	 style="enable-background:new 0 0 96 96;" xml:space="preserve">
<style type="text/css">
	.st0{fill:#035E55;}
	.st1{fill:#05FFB5;}
	.st2{fill:#17CE98;}
	.st3{fill:#009A6C;}
	.st4{opacity:0.1176;fill:#011E1B;enable-background:new    ;}
</style>
<g>
	<polygon class="st0" points="60,8 56,8 56,12 52,12 52,8 52,4 48,4 48,0 44,0 40,0 36,0 32,0 28,0 28,4 32,4 36,4 40,4 40,8 40,12 
		44,12 48,12 48,16 52,16 56,16 60,16 60,12 64,12 64,8 64,4 60,4 	"/>
</g>
<g>
	<polygon class="st1" points="72,4 72,8 72,12 72,16 76,16 76,12 76,8 76,4 76,0 72,0 	"/>
	<polygon class="st1" points="16,12 12,12 12,8 8,8 4,8 0,8 0,12 0,16 4,16 8,16 12,16 12,20 16,20 16,16 20,16 20,12 	"/>
	<rect x="68" y="16" class="st1" width="4" height="4"/>
	<polygon class="st1" points="40,20 36,20 36,16 32,16 28,16 24,16 20,16 20,20 20,24 24,24 28,24 32,24 36,24 36,28 40,28 44,28 
		44,24 40,24 	"/>
	<rect x="64" y="20" class="st1" width="4" height="4"/>
	<rect x="60" y="24" class="st1" width="4" height="4"/>
</g>
<g>
	<rect x="52" class="st2" width="4" height="4"/>
	<polygon class="st2" points="68,4 68,8 68,12 68,16 72,16 72,12 72,8 72,4 72,0 68,0 	"/>
	<rect x="84" y="4" class="st2" width="4" height="4"/>
	<rect x="16" y="16" class="st2" width="4" height="4"/>
	<rect x="64" y="16" class="st2" width="4" height="4"/>
	<rect x="8" y="20" class="st2" width="4" height="4"/>
	<rect x="60" y="20" class="st2" width="4" height="4"/>
	<rect x="4" y="24" class="st2" width="4" height="4"/>
	<polygon class="st2" points="52,24 48,24 48,20 44,20 44,16 40,16 40,12 36,12 32,12 28,12 28,8 28,4 24,4 20,4 16,4 12,4 12,0 
		8,0 4,0 0,0 0,4 0,8 4,8 8,8 12,8 12,12 16,12 20,12 20,16 24,16 28,16 32,16 36,16 36,20 40,20 40,24 44,24 44,28 48,28 52,28 
		52,32 56,32 56,28 60,28 60,24 56,24 	"/>
	<polygon class="st2" points="28,32 28,36 32,36 32,32 32,28 28,28 	"/>
	<rect x="56" y="32" class="st2" width="4" height="4"/>
	<polygon class="st2" points="24,40 24,44 28,44 28,40 28,36 24,36 	"/>
	<polygon class="st2" points="64,40 68,40 68,36 64,36 60,36 60,40 	"/>
</g>
<g>
	<polygon class="st3" points="24,0 20,0 16,0 12,0 12,4 16,4 20,4 24,4 28,4 28,0 	"/>
	<rect x="48" class="st3" width="4" height="4"/>
	<polygon class="st3" points="40,4 36,4 32,4 28,4 28,8 28,12 32,12 36,12 40,12 40,8 	"/>
	<polygon class="st3" points="88,8 84,8 80,8 76,8 76,12 80,12 84,12 88,12 92,12 96,12 96,8 92,8 	"/>
	<rect x="72" y="16" class="st3" width="4" height="4"/>
	<polygon class="st3" points="52,24 56,24 60,24 60,20 64,20 64,16 68,16 68,12 68,8 68,4 68,0 64,0 60,0 56,0 56,4 52,4 52,8 
		52,12 56,12 56,8 60,8 60,4 64,4 64,8 64,12 60,12 60,16 56,16 52,16 48,16 48,12 44,12 40,12 40,16 44,16 44,20 48,20 48,24 	"/>
	<polygon class="st3" points="80,20 76,20 76,24 80,24 84,24 84,20 	"/>
	<polygon class="st3" points="88,24 84,24 84,28 88,28 92,28 96,28 96,24 92,24 	"/>
	<polygon class="st3" points="68,28 64,28 64,32 68,32 72,32 72,28 	"/>
	<polygon class="st3" points="72,36 72,40 72,44 72,48 72,52 76,52 76,48 76,44 76,40 76,36 76,32 72,32 	"/>
	<polygon class="st3" points="68,56 68,60 72,60 72,56 72,52 68,52 	"/>
	<rect x="64" y="60" class="st3" width="4" height="4"/>
	<rect x="60" y="64" class="st3" width="4" height="4"/>
	<polygon class="st3" points="52,68 52,72 56,72 60,72 60,68 56,68 	"/>
</g>
<g>
	<polygon class="st4" points="88,0 84,0 80,0 76,0 76,4 76,8 80,8 84,8 84,4 88,4 88,8 92,8 96,8 96,4 96,0 92,0 	"/>
	<polygon class="st4" points="88,12 84,12 80,12 76,12 76,16 76,20 80,20 84,20 84,24 88,24 92,24 96,24 96,20 96,16 96,12 92,12 	
		"/>
	<path class="st4" d="M76,24v-4h-4h-4v4h-4v4h4h4v4h4v4v4v4v4v4h-4v4v4h-4v4h-4v4h-4v4h-4h-4v-4h4h4v-4h4v-4h4v-4v-4h4v-4v-4v-4v-4
		v-4h-4h-4v-4h-4h-4v4h4v4h4h4v4h-4h-4v-4h-4v-4h-4v-4h-4h-4h-4h-4v-4h-4h-4h-4h-4v-4h-4h-4v4H8v4H4v-4h4v-4h4v-4H8H4H0v4v4v4v4v4v4
		v4v4v4v4v4v4v4v4v4v4v4v4v4v4h4h4h4h4h4h4h4h4h4h4h4h4h4h4h4h4h4h4h4h4h4h4h4h4v-4v-4v-4v-4v-4v-4v-4v-4v-4v-4v-4v-4v-4v-4v-4v-4
		v-4h-4h-4h-4v-4h-4H76z M32,28v4v4h-4v4v4h-4v-4v-4h4v-4v-4H32z"/>
</g>
</svg>
