<?xml version="1.0" encoding="utf-8"?>
<!-- Generator: Adobe Illustrator 24.2.0, SVG Export Plug-In . SVG Version: 6.00 Build 0)  -->
<svg version="1.1" id="圖層_1" shape-rendering="crispEdges"
	 xmlns="http://www.w3.org/2000/svg" xmlns:xlink="http://www.w3.org/1999/xlink" x="0px" y="0px" viewBox="0 0 96 96"
	 style="enable-background:new 0 0 96 96;" xml:space="preserve">
<style type="text/css">
	.st0{fill:#035E55;}
	.st1{fill:#05FFB5;}
	.st2{fill:#17CE98;}
	.st3{fill:#009A6C;}
	.st4{opacity:0.1176;fill:#011E1B;enable-background:new    ;}
</style>
<g>
</g>
<g>
	<polygon class="st1" points="92,12 92,8 88,8 88,4 84,4 84,0 80,0 76,0 72,0 68,0 68,4 72,4 72,8 76,8 80,8 80,12 84,12 84,16 
		88,16 88,20 92,20 92,16 	"/>
	<rect x="28" y="16" class="st1" width="4" height="4"/>
	<rect x="24" y="20" class="st1" width="4" height="4"/>
	<rect x="92" y="20" class="st1" width="4" height="4"/>
	<polygon class="st1" points="56,44 52,44 48,44 44,44 44,48 48,48 52,48 56,48 60,48 60,44 	"/>
	<rect x="60" y="48" class="st1" width="4" height="4"/>
	<polygon class="st1" points="68,56 68,52 64,52 64,56 64,60 68,60 	"/>
	<rect x="60" y="60" class="st1" width="4" height="4"/>
	<rect x="56" y="64" class="st1" width="4" height="4"/>
</g>
<g>
	<rect x="60" class="st2" width="4" height="4"/>
	<polygon class="st2" points="92,0 88,0 84,0 84,4 88,4 88,8 92,8 92,12 92,16 92,20 96,20 96,16 96,12 96,8 96,4 92,4 	"/>
	<rect x="56" y="4" class="st2" width="4" height="4"/>
	<rect x="84" y="16" class="st2" width="4" height="4"/>
	<polygon class="st2" points="80,24 80,28 84,28 84,24 84,20 80,20 	"/>
</g>
<g>
	<rect x="92" class="st3" width="4" height="4"/>
	<polygon class="st3" points="24,28 20,28 20,32 20,36 24,36 24,32 	"/>
	<polygon class="st3" points="24,40 28,40 32,40 32,36 28,36 24,36 	"/>
	<polygon class="st3" points="36,44 40,44 44,44 44,40 40,40 36,40 32,40 32,44 	"/>
	<polygon class="st3" points="56,72 56,68 52,68 52,72 52,76 56,76 	"/>
	<rect x="48" y="76" class="st3" width="4" height="4"/>
	<rect x="44" y="80" class="st3" width="4" height="4"/>
	<rect x="40" y="84" class="st3" width="4" height="4"/>
	<polygon class="st3" points="32,88 32,92 36,92 40,92 40,88 36,88 	"/>
	<rect x="28" y="92" class="st3" width="4" height="4"/>
</g>
<g>
	<path class="st4" d="M92,20h-4h-4v4v4h-4v-4v-4h4v-4v-4h-4V8h-4h-4V4h-4V0h-4v4h-4v4h-4V4h4V0h-4h-4h-4h-4h-4h-4h-4h-4h-4h-4h-4h-4
		H8H4H0v4v4v4v4v4v4v4v4v4v4v4v4v4v4v4v4v4v4v4v4v4v4v4v4h4h4h4h4h4h4h4v-4h4v-4h4h4v-4h4v-4h4v-4h4v-4v-4h4v-4h4v-4h4v-4v-4h-4v-4
		h-4h-4h-4h-4v-4h-4h-4h-4v-4h-4h-4v-4h-4v-4v-4h4v4v4h4h4v4h4h4h4v4h4h4h4h4v4h4v4h4v4v4h-4v4h-4v4h-4v4v4h-4v4h-4v4h-4v4h-4v4h-4
		h-4v4h4h4h4h4h4h4h4h4h4h4h4h4h4h4h4h4v-4v-4v-4v-4v-4v-4v-4v-4v-4v-4v-4v-4v-4v-4v-4v-4v-4v-4h-4V20z M24,20h4v-4h4v4h-4v4h-4V20z
		"/>
</g>
</svg>
