<?xml version="1.0" encoding="utf-8"?>
<!-- Generator: Adobe Illustrator 24.2.0, SVG Export Plug-In . SVG Version: 6.00 Build 0)  -->
<svg version="1.1" id="圖層_1" shape-rendering="crispEdges"
	 xmlns="http://www.w3.org/2000/svg" xmlns:xlink="http://www.w3.org/1999/xlink" x="0px" y="0px" viewBox="0 0 56 56"
	 style="enable-background:new 0 0 56 56;" xml:space="preserve">
<style type="text/css">
	.st0{fill:#035E55;}
	.st1{fill:#009A6C;}
	.st2{fill:#05FFB5;}
	.st3{fill:#17CE98;}
	.st4{opacity:0.1176;fill:#011E1B;enable-background:new    ;}
</style>
<g>
</g>
<g>
	<rect y="20" class="st1" width="4" height="4"/>
	<rect x="4" y="24" class="st1" width="4" height="4"/>
	<rect x="8" y="28" class="st1" width="4" height="4"/>
</g>
<g>
</g>
<g>
	<polygon class="st3" points="16,32 12,32 12,36 12,40 16,40 16,36 	"/>
	<polygon class="st3" points="16,48 16,52 16,56 20,56 20,52 20,48 20,44 20,40 16,40 16,44 	"/>
</g>
<g>
	<polygon class="st4" points="48,0 44,0 40,0 36,0 32,0 28,0 24,0 20,0 16,0 12,0 8,0 4,0 0,0 0,4 0,8 0,12 0,16 0,20 4,20 4,24 
		8,24 8,28 12,28 12,32 16,32 16,36 16,40 20,40 20,44 20,48 20,52 20,56 24,56 28,56 32,56 36,56 40,56 44,56 48,56 52,56 56,56 
		56,52 56,48 56,44 56,40 56,36 56,32 56,28 56,24 56,20 56,16 56,12 56,8 56,4 56,0 52,0 	"/>
	<polygon class="st4" points="12,36 12,32 8,32 8,28 4,28 4,24 0,24 0,28 0,32 0,36 0,40 0,44 0,48 0,52 0,56 4,56 8,56 12,56 
		16,56 16,52 16,48 16,44 16,40 12,40 	"/>
</g>
</svg>
