<?xml version="1.0" encoding="utf-8"?>
<!-- Generator: Adobe Illustrator 24.2.0, SVG Export Plug-In . SVG Version: 6.00 Build 0)  -->
<svg version="1.1" id="圖層_1" shape-rendering="crispEdges"
	 xmlns="http://www.w3.org/2000/svg" xmlns:xlink="http://www.w3.org/1999/xlink" x="0px" y="0px" viewBox="0 0 96 96"
	 style="enable-background:new 0 0 96 96;" xml:space="preserve">
<style type="text/css">
	.st0{fill:#035E55;}
	.st1{fill:#05FFB5;}
	.st2{fill:#17CE98;}
	.st3{fill:#009A6C;}
	.st4{opacity:0.1176;fill:#011E1B;enable-background:new    ;}
</style>
<g>
	<polygon class="st0" points="-20,-128 -20,-132 -24,-132 -24,-128 -24,-124 -20,-124 -16,-124 -16,-128 	"/>
	<rect x="-16" y="-124" class="st0" width="4" height="4"/>
	<rect x="-12" y="-120" class="st0" width="4" height="4"/>
	<polygon class="st0" points="-8,-112 -12,-112 -12,-108 -8,-108 -8,-104 -4,-104 -4,-108 -4,-112 -4,-116 -8,-116 	"/>
	<rect y="-108" class="st0" width="4" height="4"/>
	<rect x="16" y="-100" class="st0" width="4" height="4"/>
	<polygon class="st0" points="12,-92 12,-96 12,-100 8,-100 4,-100 0,-100 0,-96 4,-96 8,-96 8,-92 	"/>
	<polygon class="st0" points="28,-92 28,-96 24,-96 20,-96 20,-92 16,-92 16,-88 12,-88 12,-84 16,-84 20,-84 20,-80 24,-80 28,-80 
		28,-84 32,-84 32,-88 32,-92 	"/>
	<rect x="-188" y="-12" class="st0" width="4" height="4"/>
	<polygon class="st0" points="-172,-8 -176,-8 -180,-8 -184,-8 -184,-4 -180,-4 -176,-4 -172,-4 	"/>
	<polygon class="st0" points="-140,8 -144,8 -144,12 -148,12 -148,8 -148,4 -152,4 -152,0 -156,0 -160,0 -164,0 -168,0 -172,0 
		-172,4 -168,4 -164,4 -160,4 -160,8 -160,12 -156,12 -152,12 -152,16 -148,16 -144,16 -140,16 -140,12 -136,12 -136,8 -136,4 
		-140,4 	"/>
</g>
<g>
	<polygon class="st1" points="-112,-172 -116,-172 -120,-172 -124,-172 -128,-172 -132,-172 -132,-168 -128,-168 -124,-168 
		-120,-168 -116,-168 -112,-168 -108,-168 -104,-168 -104,-172 -108,-172 	"/>
	<polygon class="st1" points="-84,-172 -88,-172 -92,-172 -96,-172 -100,-172 -100,-168 -96,-168 -92,-168 -88,-168 -84,-168 
		-80,-168 -80,-172 	"/>
	<polygon class="st1" points="-72,-168 -76,-168 -80,-168 -80,-164 -76,-164 -72,-164 -68,-164 -68,-168 	"/>
	<rect x="-68" y="-164" class="st1" width="4" height="4"/>
	<polygon class="st1" points="-112,-160 -112,-156 -108,-156 -104,-156 -104,-160 -108,-160 	"/>
	<polygon class="st1" points="-72,-156 -72,-160 -76,-160 -80,-160 -84,-160 -88,-160 -92,-160 -96,-160 -100,-160 -100,-156 
		-96,-156 -92,-156 -88,-156 -84,-156 -80,-156 -76,-156 	"/>
	<polygon class="st1" points="-120,-156 -124,-156 -124,-152 -120,-152 -116,-152 -112,-152 -112,-156 -116,-156 	"/>
	<polygon class="st1" points="-20,-156 -20,-160 -24,-160 -28,-160 -28,-156 -32,-156 -32,-160 -36,-160 -40,-160 -40,-156 
		-44,-156 -44,-152 -48,-152 -48,-148 -48,-144 -52,-144 -52,-140 -52,-136 -52,-132 -48,-132 -48,-128 -48,-124 -48,-120 -48,-116 
		-44,-116 -44,-112 -44,-108 -40,-108 -40,-104 -36,-104 -32,-104 -28,-104 -28,-108 -28,-112 -32,-112 -32,-116 -36,-116 -36,-120 
		-36,-124 -36,-128 -40,-128 -40,-132 -40,-136 -36,-136 -36,-140 -36,-144 -40,-144 -40,-148 -36,-148 -32,-148 -32,-152 -28,-152 
		-24,-152 -20,-152 -16,-152 -16,-156 	"/>
	<polygon class="st1" points="-156,-148 -156,-152 -160,-152 -164,-152 -164,-148 -160,-148 	"/>
	<polygon class="st1" points="-132,-152 -136,-152 -136,-148 -132,-148 -128,-148 -124,-148 -124,-152 -128,-152 	"/>
	<polygon class="st1" points="-8,-152 -12,-152 -16,-152 -16,-148 -12,-148 -12,-144 -8,-144 -8,-140 -8,-136 -8,-132 -8,-128 
		-4,-128 -4,-132 -4,-136 -4,-140 -4,-144 -4,-148 -8,-148 	"/>
	<rect x="-168" y="-148" class="st1" width="4" height="4"/>
	<polygon class="st1" points="-144,-148 -148,-148 -148,-144 -144,-144 -140,-144 -136,-144 -136,-148 -140,-148 	"/>
	<rect x="-200" y="-144" class="st1" width="4" height="4"/>
	<rect x="-172" y="-144" class="st1" width="4" height="4"/>
	<polygon class="st1" points="-192,-136 -188,-136 -184,-136 -180,-136 -176,-136 -172,-136 -172,-140 -176,-140 -180,-140 
		-184,-140 -188,-140 -192,-140 -196,-140 -196,-136 	"/>
	<polygon class="st1" points="-120,-140 -124,-140 -124,-136 -120,-136 -116,-136 -112,-136 -112,-140 -116,-140 	"/>
	<rect x="-128" y="-136" class="st1" width="4" height="4"/>
	<polygon class="st1" points="-136,-132 -136,-128 -132,-128 -128,-128 -128,-132 -132,-132 	"/>
	<polygon class="st1" points="4,-116 8,-116 8,-112 12,-112 12,-108 16,-108 20,-108 24,-108 24,-104 28,-104 32,-104 36,-104 
		40,-104 40,-108 36,-108 32,-108 32,-112 28,-112 24,-112 24,-116 20,-116 16,-116 16,-120 12,-120 12,-124 8,-124 4,-124 4,-128 
		0,-128 0,-124 0,-120 4,-120 	"/>
	<polygon class="st1" points="-208,-96 -208,-100 -212,-100 -216,-100 -216,-96 -212,-96 	"/>
	<rect x="-220" y="-96" class="st1" width="4" height="4"/>
	<polygon class="st1" points="-180,-96 -180,-92 -176,-92 -172,-92 -172,-96 -176,-96 	"/>
	<polygon class="st1" points="44,-96 44,-100 40,-100 40,-96 40,-92 44,-92 44,-88 44,-84 40,-84 40,-80 36,-80 36,-76 36,-72 
		40,-72 40,-76 44,-76 44,-80 48,-80 48,-84 48,-88 48,-92 48,-96 	"/>
	<polygon class="st1" points="-224,-88 -220,-88 -220,-92 -224,-92 -228,-92 -232,-92 -232,-88 -228,-88 	"/>
	<rect x="-272" y="-88" class="st1" width="4" height="4"/>
	<polygon class="st1" points="-240,-88 -244,-88 -248,-88 -252,-88 -256,-88 -260,-88 -264,-88 -264,-84 -260,-84 -256,-84 
		-252,-84 -248,-84 -244,-84 -240,-84 -236,-84 -232,-84 -232,-88 -236,-88 	"/>
	<polygon class="st1" points="-8,-88 -8,-92 -12,-92 -12,-96 -16,-96 -16,-100 -20,-100 -24,-100 -28,-100 -32,-100 -32,-96 
		-28,-96 -28,-92 -24,-92 -20,-92 -20,-88 -16,-88 -16,-84 -12,-84 -12,-80 -8,-80 -8,-84 	"/>
	<rect x="-72" y="-84" class="st1" width="4" height="4"/>
	<rect x="-76" y="-80" class="st1" width="4" height="4"/>
	<rect x="-8" y="-80" class="st1" width="4" height="4"/>
	<polygon class="st1" points="28,-72 24,-72 20,-72 16,-72 16,-76 12,-76 8,-76 8,-80 4,-80 0,-80 0,-76 4,-76 4,-72 8,-72 12,-72 
		12,-68 16,-68 20,-68 24,-68 28,-68 32,-68 36,-68 36,-72 32,-72 	"/>
	<polygon class="st1" points="-44,-56 -48,-56 -52,-56 -56,-56 -56,-52 -52,-52 -48,-52 -44,-52 -40,-52 -40,-56 	"/>
	<rect x="-40" y="-52" class="st1" width="4" height="4"/>
	<polygon class="st1" points="-32,-44 -32,-48 -36,-48 -36,-44 -36,-40 -32,-40 	"/>
	<polygon class="st1" points="-212,-40 -212,-36 -216,-36 -216,-40 -220,-40 -220,-36 -224,-36 -224,-32 -228,-32 -228,-28 
		-228,-24 -228,-20 -228,-16 -228,-12 -228,-8 -224,-8 -224,-12 -220,-12 -220,-16 -220,-20 -216,-20 -216,-24 -216,-28 -212,-28 
		-212,-32 -208,-32 -204,-32 -204,-36 -204,-40 -208,-40 	"/>
	<rect x="-40" y="-40" class="st1" width="4" height="4"/>
	<polygon class="st1" points="-196,-36 -196,-40 -200,-40 -200,-36 -200,-32 -200,-28 -196,-28 -196,-32 -192,-32 -192,-36 	"/>
	<rect x="-44" y="-36" class="st1" width="4" height="4"/>
	<polygon class="st1" points="-168,-24 -172,-24 -176,-24 -176,-28 -180,-28 -184,-28 -184,-32 -188,-32 -192,-32 -192,-28 
		-192,-24 -188,-24 -184,-24 -180,-24 -180,-20 -176,-20 -172,-20 -168,-20 -164,-20 -164,-24 	"/>
	<polygon class="st1" points="-152,-20 -156,-20 -160,-20 -164,-20 -164,-16 -160,-16 -156,-16 -152,-16 -148,-16 -148,-20 	"/>
	<polygon class="st1" points="-140,-16 -144,-16 -148,-16 -148,-12 -144,-12 -140,-12 	"/>
	<polygon class="st1" points="-224,-8 -224,-4 -220,-4 -216,-4 -212,-4 -212,-8 -216,-8 -216,-12 -220,-12 -220,-8 	"/>
	<rect x="-136" y="-8" class="st1" width="4" height="4"/>
	<polygon class="st1" points="-212,0 -216,0 -216,4 -212,4 -212,8 -208,8 -204,8 -204,4 -204,0 -208,0 	"/>
	<polygon class="st1" points="-128,4 -128,8 -128,12 -128,16 -124,16 -124,12 -124,8 -124,4 -124,0 -128,0 	"/>
	<rect x="-84" class="st1" width="4" height="4"/>
	<polygon class="st1" points="-92,4 -96,4 -96,8 -92,8 -88,8 -84,8 -84,4 -88,4 	"/>
	<rect x="-100" y="8" class="st1" width="4" height="4"/>
	<polygon class="st1" points="-184,12 -188,12 -188,8 -192,8 -196,8 -200,8 -200,12 -200,16 -196,16 -192,16 -188,16 -188,20 
		-184,20 -184,16 -180,16 -180,12 	"/>
	<rect x="-132" y="16" class="st1" width="4" height="4"/>
	<polygon class="st1" points="40,16 40,20 44,20 48,20 48,16 44,16 	"/>
	<polygon class="st1" points="-160,20 -164,20 -164,16 -168,16 -172,16 -176,16 -180,16 -180,20 -180,24 -176,24 -172,24 -168,24 
		-164,24 -164,28 -160,28 -156,28 -156,24 -160,24 	"/>
	<rect x="-136" y="20" class="st1" width="4" height="4"/>
	<polygon class="st1" points="32,20 32,24 36,24 40,24 40,20 36,20 	"/>
	<rect x="-140" y="24" class="st1" width="4" height="4"/>
	<polygon class="st1" points="20,24 20,28 24,28 28,28 28,24 24,24 	"/>
	<polygon class="st1" points="12,28 8,28 8,32 12,32 16,32 20,32 20,28 16,28 	"/>
	<polygon class="st1" points="-12,32 -12,36 -8,36 -4,36 -4,32 -8,32 	"/>
	<polygon class="st1" points="0,32 0,36 4,36 8,36 8,32 4,32 	"/>
	<polygon class="st1" points="-20,36 -24,36 -28,36 -32,36 -32,40 -28,40 -24,40 -20,40 -16,40 -12,40 -12,36 -16,36 	"/>
</g>
<g>
	<rect x="-44" y="-172" class="st2" width="4" height="4"/>
	<rect x="-40" y="-168" class="st2" width="4" height="4"/>
	<rect x="-36" y="-164" class="st2" width="4" height="4"/>
	<rect x="-16" y="-164" class="st2" width="4" height="4"/>
	<rect x="-60" y="-160" class="st2" width="4" height="4"/>
	<rect x="-32" y="-160" class="st2" width="4" height="4"/>
	<polygon class="st2" points="-64,-152 -64,-156 -68,-156 -72,-156 -72,-152 -68,-152 	"/>
	<rect x="-56" y="-156" class="st2" width="4" height="4"/>
	<rect x="-64" y="-152" class="st2" width="4" height="4"/>
	<rect x="-52" y="-152" class="st2" width="4" height="4"/>
	<polygon class="st2" points="-56,-144 -52,-144 -52,-148 -56,-148 -60,-148 -60,-144 	"/>
	<polygon class="st2" points="-72,-144 -76,-144 -76,-140 -72,-140 -68,-140 -68,-144 	"/>
	<polygon class="st2" points="-56,-136 -52,-136 -52,-140 -56,-140 -60,-140 -64,-140 -68,-140 -68,-136 -64,-136 -60,-136 	"/>
	<polygon class="st2" points="8,-136 8,-140 4,-140 0,-140 0,-136 4,-136 	"/>
	<path class="st2" d="M-8-136v-4v-4h-4v-4h-4v-4h-4h-4h-4h-4v4h-4h-4v4h4v4v4h-4v4v4h4v4v4v4h4v4h4v4v4h4h4h4v-4v-4h-4v-4h-4v-4h-4
		v-4h-4v-4v-4v-4h4h4h4h4v4h4v4h4v-4V-136z M-28-140v-4h4v4H-28z M-20-140v-4h4v4H-20z"/>
	<polygon class="st2" points="-52,-124 -52,-128 -56,-128 -60,-128 -60,-124 -56,-124 	"/>
	<rect x="-8" y="-128" class="st2" width="4" height="4"/>
	<rect x="20" y="-128" class="st2" width="4" height="4"/>
	<rect x="40" y="-128" class="st2" width="4" height="4"/>
	<rect x="-52" y="-124" class="st2" width="4" height="4"/>
	<rect x="16" y="-124" class="st2" width="4" height="4"/>
	<rect y="-120" class="st2" width="4" height="4"/>
	<rect x="32" y="-120" class="st2" width="4" height="4"/>
	<polygon class="st2" points="-44,-116 -48,-116 -52,-116 -56,-116 -56,-112 -52,-112 -48,-112 -44,-112 	"/>
	<rect x="28" y="-116" class="st2" width="4" height="4"/>
	<polygon class="st2" points="4,-108 8,-108 8,-104 12,-104 16,-104 20,-104 24,-104 24,-108 20,-108 16,-108 12,-108 12,-112 
		8,-112 8,-116 4,-116 4,-112 	"/>
	<rect x="-156" y="-108" class="st2" width="4" height="4"/>
	<polygon class="st2" points="-160,-96 -160,-100 -164,-100 -168,-100 -168,-96 -164,-96 	"/>
	<rect x="-40" y="-100" class="st2" width="4" height="4"/>
	<polygon class="st2" points="-8,-100 -12,-100 -16,-100 -16,-96 -12,-96 -12,-92 -8,-92 -8,-88 -8,-84 -8,-80 -4,-80 -4,-84 
		-4,-88 -4,-92 -4,-96 -8,-96 	"/>
	<polygon class="st2" points="40,-100 36,-100 32,-100 32,-96 36,-96 36,-92 40,-92 40,-96 	"/>
	<rect x="52" y="-100" class="st2" width="4" height="4"/>
	<rect x="-172" y="-96" class="st2" width="4" height="4"/>
	<rect x="-44" y="-96" class="st2" width="4" height="4"/>
	<rect x="4" y="-96" class="st2" width="4" height="4"/>
	<polygon class="st2" points="16,-88 16,-92 12,-92 8,-92 8,-88 12,-88 	"/>
	<polygon class="st2" points="40,-88 36,-88 36,-84 36,-80 40,-80 40,-84 44,-84 44,-88 44,-92 40,-92 	"/>
	<rect x="-16" y="-84" class="st2" width="4" height="4"/>
	<rect x="48" y="-84" class="st2" width="4" height="4"/>
	<polygon class="st2" points="-20,-76 -20,-72 -16,-72 -16,-76 -16,-80 -20,-80 	"/>
	<polygon class="st2" points="32,-76 28,-76 24,-76 20,-76 20,-80 16,-80 16,-84 12,-84 8,-84 8,-88 4,-88 0,-88 0,-84 0,-80 4,-80 
		8,-80 8,-76 12,-76 16,-76 16,-72 20,-72 24,-72 28,-72 32,-72 36,-72 36,-76 36,-80 32,-80 	"/>
	<rect x="52" y="-80" class="st2" width="4" height="4"/>
	<polygon class="st2" points="4,-64 4,-60 8,-60 8,-64 8,-68 4,-68 	"/>
	<polygon class="st2" points="28,-68 24,-68 24,-64 24,-60 28,-60 28,-64 	"/>
	<rect y="-60" class="st2" width="4" height="4"/>
	<rect x="28" y="-60" class="st2" width="4" height="4"/>
	<rect x="-188" y="-52" class="st2" width="4" height="4"/>
	<rect x="-192" y="-48" class="st2" width="4" height="4"/>
	<polygon class="st2" points="-216,-44 -216,-48 -216,-52 -220,-52 -220,-48 -220,-44 -220,-40 -216,-40 	"/>
	<rect x="-196" y="-44" class="st2" width="4" height="4"/>
	<rect x="-172" y="-44" class="st2" width="4" height="4"/>
	<polygon class="st2" points="-232,-40 -236,-40 -236,-36 -236,-32 -232,-32 -232,-36 	"/>
	<rect x="-216" y="-40" class="st2" width="4" height="4"/>
	<rect x="-192" y="-36" class="st2" width="4" height="4"/>
	<rect x="-232" y="-32" class="st2" width="4" height="4"/>
	<polygon class="st2" points="-212,-32 -212,-28 -216,-28 -216,-24 -216,-20 -220,-20 -220,-16 -220,-12 -216,-12 -216,-8 -212,-8 
		-212,-4 -208,-4 -204,-4 -204,-8 -204,-12 -208,-12 -208,-16 -204,-16 -204,-20 -208,-20 -208,-24 -204,-24 -204,-28 -204,-32 
		-208,-32 	"/>
	<polygon class="st2" points="-172,-32 -172,-36 -172,-40 -176,-40 -176,-36 -176,-32 -176,-28 -172,-28 	"/>
	<rect x="-152" y="-32" class="st2" width="4" height="4"/>
	<rect x="-156" y="-28" class="st2" width="4" height="4"/>
	<rect x="-140" y="-20" class="st2" width="4" height="4"/>
	<polygon class="st2" points="-240,-16 -240,-12 -236,-12 -232,-12 -232,-16 -236,-16 	"/>
	<rect x="-124" y="-16" class="st2" width="4" height="4"/>
	<rect x="-224" y="-12" class="st2" width="4" height="4"/>
	<rect x="-128" y="-12" class="st2" width="4" height="4"/>
	<polygon class="st2" points="-196,-8 -196,-12 -192,-12 -192,-16 -188,-16 -184,-16 -180,-16 -180,-12 -176,-12 -172,-12 -168,-12 
		-168,-8 -164,-8 -160,-8 -156,-8 -152,-8 -152,-4 -148,-4 -148,-8 -144,-8 -140,-8 -140,-4 -136,-4 -136,-8 -136,-12 -140,-12 
		-144,-12 -148,-12 -148,-16 -152,-16 -156,-16 -160,-16 -164,-16 -164,-20 -168,-20 -172,-20 -176,-20 -180,-20 -180,-24 -184,-24 
		-188,-24 -192,-24 -192,-28 -192,-32 -196,-32 -196,-28 -200,-28 -200,-24 -200,-20 -200,-16 -200,-12 -200,-8 -200,-4 -196,-4 	
		"/>
	<rect x="-132" y="-8" class="st2" width="4" height="4"/>
	<rect x="-148" class="st2" width="4" height="4"/>
	<polygon class="st2" points="-132,4 -132,8 -132,12 -132,16 -128,16 -128,12 -128,8 -128,4 -128,0 -132,0 	"/>
	<polygon class="st2" points="-224,4 -224,8 -220,8 -216,8 -216,4 -220,4 	"/>
	<rect x="-116" y="4" class="st2" width="4" height="4"/>
	<rect x="-228" y="8" class="st2" width="4" height="4"/>
	<rect x="-184" y="16" class="st2" width="4" height="4"/>
	<rect x="-136" y="16" class="st2" width="4" height="4"/>
	<rect x="-192" y="20" class="st2" width="4" height="4"/>
	<rect x="-140" y="20" class="st2" width="4" height="4"/>
	<rect x="-196" y="24" class="st2" width="4" height="4"/>
	<polygon class="st2" points="-148,24 -152,24 -152,20 -156,20 -156,16 -160,16 -160,12 -164,12 -168,12 -172,12 -172,8 -172,4 
		-176,4 -180,4 -184,4 -188,4 -188,0 -192,0 -196,0 -200,0 -200,4 -200,8 -196,8 -192,8 -188,8 -188,12 -184,12 -180,12 -180,16 
		-176,16 -172,16 -168,16 -164,16 -164,20 -160,20 -160,24 -156,24 -156,28 -152,28 -148,28 -148,32 -144,32 -144,28 -140,28 
		-140,24 -144,24 	"/>
	<polygon class="st2" points="-172,32 -172,36 -168,36 -168,32 -168,28 -172,28 	"/>
	<rect x="-144" y="32" class="st2" width="4" height="4"/>
	<polygon class="st2" points="-176,40 -176,44 -172,44 -172,40 -172,36 -176,36 	"/>
	<polygon class="st2" points="-136,40 -132,40 -132,36 -136,36 -140,36 -140,40 	"/>
</g>
<g>
	<polygon class="st3" points="-136,-164 -132,-164 -132,-168 -136,-168 -140,-168 -144,-168 -144,-164 -140,-164 	"/>
	<rect x="-148" y="-164" class="st3" width="4" height="4"/>
	<rect x="-152" y="-160" class="st3" width="4" height="4"/>
	<rect x="-64" y="-160" class="st3" width="4" height="4"/>
	<rect x="-216" y="-156" class="st3" width="4" height="4"/>
	<rect x="-156" y="-156" class="st3" width="4" height="4"/>
	<rect x="-212" y="-152" class="st3" width="4" height="4"/>
	<rect x="-208" y="-148" class="st3" width="4" height="4"/>
	<rect x="-152" y="-144" class="st3" width="4" height="4"/>
	<polygon class="st3" points="-112,-144 -112,-140 -108,-140 -104,-140 -104,-144 -108,-144 	"/>
	<polygon class="st3" points="-92,-140 -88,-140 -84,-140 -80,-140 -76,-140 -76,-144 -80,-144 -84,-144 -88,-144 -92,-144 
		-96,-144 -100,-144 -100,-140 -96,-140 	"/>
	<rect x="-28" y="-144" class="st3" width="4" height="4"/>
	<rect x="-20" y="-144" class="st3" width="4" height="4"/>
	<polygon class="st3" points="-152,-136 -152,-140 -156,-140 -160,-140 -160,-136 -156,-136 	"/>
	<polygon class="st3" points="-160,-132 -160,-136 -164,-136 -168,-136 -168,-132 -164,-132 	"/>
	<polygon class="st3" points="-168,-128 -168,-132 -172,-132 -176,-132 -176,-128 -172,-128 	"/>
	<rect x="-180" y="-128" class="st3" width="4" height="4"/>
	<rect x="-140" y="-128" class="st3" width="4" height="4"/>
	<polygon class="st3" points="-8,-128 -12,-128 -12,-132 -16,-132 -16,-136 -20,-136 -24,-136 -28,-136 -32,-136 -32,-132 -32,-128 
		-32,-124 -28,-124 -28,-120 -24,-120 -24,-116 -20,-116 -20,-112 -16,-112 -16,-108 -16,-104 -12,-104 -8,-104 -8,-108 -12,-108 
		-12,-112 -8,-112 -8,-116 -12,-116 -12,-120 -16,-120 -16,-124 -20,-124 -24,-124 -24,-128 -24,-132 -20,-132 -20,-128 -16,-128 
		-16,-124 -12,-124 -12,-120 -8,-120 -8,-116 -4,-116 -4,-120 -4,-124 -8,-124 	"/>
	<polygon class="st3" points="-180,-120 -180,-124 -184,-124 -188,-124 -188,-120 -184,-120 	"/>
	<rect x="-192" y="-120" class="st3" width="4" height="4"/>
	<polygon class="st3" points="-140,-120 -140,-124 -144,-124 -144,-120 -144,-116 -140,-116 	"/>
	<rect x="-196" y="-116" class="st3" width="4" height="4"/>
	<rect x="-148" y="-116" class="st3" width="4" height="4"/>
	<rect x="-200" y="-112" class="st3" width="4" height="4"/>
	<rect x="-152" y="-112" class="st3" width="4" height="4"/>
	<polygon class="st3" points="4,-112 4,-116 0,-116 0,-112 0,-108 4,-108 	"/>
	<rect x="4" y="-108" class="st3" width="4" height="4"/>
	<rect x="-8" y="-100" class="st3" width="4" height="4"/>
	<polygon class="st3" points="16,-100 12,-100 12,-96 12,-92 16,-92 20,-92 20,-96 16,-96 	"/>
	<polygon class="st3" points="4,-92 4,-96 0,-96 0,-92 0,-88 4,-88 8,-88 8,-92 	"/>
	<polygon class="st3" points="36,-92 36,-96 32,-96 32,-100 28,-100 24,-100 20,-100 20,-96 24,-96 28,-96 28,-92 32,-92 32,-88 
		32,-84 28,-84 28,-80 24,-80 20,-80 20,-76 24,-76 28,-76 32,-76 32,-80 36,-80 36,-84 36,-88 40,-88 40,-92 	"/>
	<rect x="8" y="-88" class="st3" width="4" height="4"/>
	<rect x="16" y="-84" class="st3" width="4" height="4"/>
	<polygon class="st3" points="-76,-72 -80,-72 -80,-68 -80,-64 -76,-64 -76,-68 	"/>
	<polygon class="st3" points="-76,-60 -72,-60 -68,-60 -68,-64 -72,-64 -76,-64 	"/>
	<polygon class="st3" points="-64,-56 -60,-56 -56,-56 -56,-60 -60,-60 -64,-60 -68,-60 -68,-56 	"/>
	<polygon class="st3" points="-44,-28 -44,-32 -48,-32 -48,-28 -48,-24 -44,-24 	"/>
	<rect x="-208" y="-24" class="st3" width="4" height="4"/>
	<rect x="-52" y="-24" class="st3" width="4" height="4"/>
	<rect x="-56" y="-20" class="st3" width="4" height="4"/>
	<rect x="-208" y="-16" class="st3" width="4" height="4"/>
	<rect x="-60" y="-16" class="st3" width="4" height="4"/>
	<polygon class="st3" points="-68,-12 -68,-8 -64,-8 -60,-8 -60,-12 -64,-12 	"/>
	<polygon class="st3" points="-184,-4 -184,-8 -188,-8 -188,-12 -184,-12 -184,-8 -180,-8 -176,-8 -172,-8 -172,-4 -168,-4 -164,-4 
		-160,-4 -156,-4 -152,-4 -152,-8 -156,-8 -160,-8 -164,-8 -168,-8 -168,-12 -172,-12 -176,-12 -180,-12 -180,-16 -184,-16 
		-188,-16 -192,-16 -192,-12 -196,-12 -196,-8 -196,-4 -192,-4 -188,-4 	"/>
	<polygon class="st3" points="-148,-8 -148,-4 -144,-4 -140,-4 -140,-8 -144,-8 	"/>
	<rect x="-72" y="-8" class="st3" width="4" height="4"/>
	<polygon class="st3" points="-176,0 -180,0 -184,0 -188,0 -188,4 -184,4 -180,4 -176,4 -172,4 -172,0 	"/>
	<rect x="-152" class="st3" width="4" height="4"/>
	<polygon class="st3" points="-160,4 -164,4 -168,4 -172,4 -172,8 -172,12 -168,12 -164,12 -160,12 -160,8 	"/>
	<polygon class="st3" points="-112,8 -116,8 -120,8 -124,8 -124,12 -120,12 -116,12 -112,12 -108,12 -104,12 -104,8 -108,8 	"/>
	<rect x="-128" y="16" class="st3" width="4" height="4"/>
	<polygon class="st3" points="-148,24 -144,24 -140,24 -140,20 -136,20 -136,16 -132,16 -132,12 -132,8 -132,4 -132,0 -136,0 
		-140,0 -144,0 -144,4 -148,4 -148,8 -148,12 -144,12 -144,8 -140,8 -140,4 -136,4 -136,8 -136,12 -140,12 -140,16 -144,16 -148,16 
		-152,16 -152,12 -156,12 -160,12 -160,16 -156,16 -156,20 -152,20 -152,24 	"/>
	<polygon class="st3" points="-120,20 -124,20 -124,24 -120,24 -116,24 -116,20 	"/>
	<polygon class="st3" points="-112,24 -116,24 -116,28 -112,28 -108,28 -104,28 -104,24 -108,24 	"/>
	<polygon class="st3" points="-132,28 -136,28 -136,32 -132,32 -128,32 -128,28 	"/>
	<polygon class="st3" points="-128,36 -128,40 -128,44 -128,48 -128,52 -124,52 -124,48 -124,44 -124,40 -124,36 -124,32 -128,32 	
		"/>
	<polygon class="st3" points="-92,32 -96,32 -100,32 -100,36 -96,36 -92,36 -88,36 -88,32 	"/>
	<polygon class="st3" points="-40,36 -44,36 -48,36 -52,36 -56,36 -60,36 -64,36 -68,36 -72,36 -76,36 -80,36 -84,36 -88,36 -88,40 
		-84,40 -80,40 -76,40 -72,40 -68,40 -64,40 -60,40 -56,40 -52,40 -48,40 -44,40 -40,40 -36,40 -32,40 -32,36 -36,36 	"/>
	<polygon class="st3" points="-132,56 -132,60 -128,60 -128,56 -128,52 -132,52 	"/>
	<rect x="-136" y="60" class="st3" width="4" height="4"/>
	<rect x="-140" y="64" class="st3" width="4" height="4"/>
	<polygon class="st3" points="-148,68 -148,72 -144,72 -140,72 -140,68 -144,68 	"/>
</g>
<g>
	<polygon class="st4" points="-212,-200 -216,-200 -220,-200 -224,-200 -228,-200 -232,-200 -236,-200 -240,-200 -244,-200 
		-248,-200 -252,-200 -256,-200 -260,-200 -264,-200 -268,-200 -272,-200 -276,-200 -280,-200 -284,-200 -288,-200 -292,-200 
		-296,-200 -300,-200 -300,-196 -300,-192 -300,-188 -300,-184 -300,-180 -300,-176 -300,-172 -300,-168 -300,-164 -300,-160 
		-300,-156 -300,-152 -300,-148 -300,-144 -300,-140 -300,-136 -300,-132 -300,-128 -300,-124 -300,-120 -300,-116 -300,-112 
		-300,-108 -300,-104 -296,-104 -292,-104 -288,-104 -284,-104 -280,-104 -276,-104 -272,-104 -268,-104 -264,-104 -260,-104 
		-256,-104 -252,-104 -248,-104 -244,-104 -240,-104 -236,-104 -232,-104 -228,-104 -224,-104 -220,-104 -216,-104 -212,-104 
		-208,-104 -204,-104 -204,-108 -204,-112 -204,-116 -204,-120 -204,-124 -204,-128 -204,-132 -204,-136 -204,-140 -204,-144 
		-208,-144 -208,-148 -212,-148 -212,-152 -216,-152 -216,-156 -212,-156 -212,-152 -208,-152 -208,-148 -204,-148 -204,-152 
		-204,-156 -204,-160 -204,-164 -204,-168 -204,-172 -204,-176 -204,-180 -204,-184 -204,-188 -204,-192 -204,-196 -204,-200 
		-208,-200 	"/>
	<polygon class="st4" points="-112,-200 -116,-200 -120,-200 -124,-200 -128,-200 -132,-200 -136,-200 -140,-200 -144,-200 
		-148,-200 -152,-200 -156,-200 -160,-200 -164,-200 -168,-200 -172,-200 -176,-200 -180,-200 -184,-200 -188,-200 -192,-200 
		-196,-200 -200,-200 -200,-196 -200,-192 -200,-188 -200,-184 -200,-180 -200,-176 -200,-172 -200,-168 -200,-164 -200,-160 
		-200,-156 -200,-152 -200,-148 -200,-144 -196,-144 -196,-140 -192,-140 -188,-140 -184,-140 -180,-140 -176,-140 -172,-140 
		-172,-144 -168,-144 -168,-148 -164,-148 -164,-152 -160,-152 -156,-152 -156,-156 -152,-156 -152,-160 -148,-160 -148,-164 
		-144,-164 -144,-168 -140,-168 -136,-168 -132,-168 -132,-172 -128,-172 -124,-172 -120,-172 -116,-172 -112,-172 -108,-172 
		-104,-172 -104,-176 -104,-180 -104,-184 -104,-188 -104,-192 -104,-196 -104,-200 -108,-200 	"/>
	<path class="st4" d="M-12-200h-4h-4h-4h-4h-4h-4h-4h-4h-4h-4h-4h-4h-4h-4h-4h-4h-4h-4h-4h-4h-4h-4v4v4v4v4v4v4v4h4h4h4h4h4v4h4h4h4
		v4h4v4h4h4v4h4v4h4h4v-4h4v-4h4v-4h-4v-4h-4v-4h4v4h4v4h4v4h4h4h4v4h4v4h4h4v4h4v-4v-4v-4v-4v-4v-4v-4v-4v-4v-4v-4v-4v-4h-4H-12z
		 M-16-164h4v4h-4V-164z"/>
	<path class="st4" d="M92-200h-4h-4h-4h-4h-4h-4h-4h-4h-4h-4h-4h-4h-4h-4h-4h-4h-4h-4h-4h-4H8H4H0v4v4v4v4v4v4v4v4v4v4v4v4v4v4v4h4
		h4v4H4H0v4v4h4v4h4h4v4h4v-4h4v-4h4v4h-4v4h-4v4h4h4v4h4v-4h4v-4h4v4h-4v4v4h4h4v4h4h4h4h4h4h4h4h4h4h4h4h4h4h4v-4v-4v-4v-4v-4v-4
		v-4v-4v-4v-4v-4v-4v-4v-4v-4v-4v-4v-4v-4v-4v-4v-4v-4v-4H92z M40-128h4v4h-4V-128z"/>
	<polygon class="st4" points="-136,-164 -140,-164 -144,-164 -144,-160 -148,-160 -148,-156 -152,-156 -152,-152 -156,-152 
		-156,-148 -160,-148 -164,-148 -164,-144 -168,-144 -168,-140 -172,-140 -172,-136 -176,-136 -180,-136 -184,-136 -188,-136 
		-192,-136 -196,-136 -196,-140 -200,-140 -200,-136 -200,-132 -200,-128 -200,-124 -200,-120 -200,-116 -200,-112 -196,-112 
		-196,-116 -192,-116 -192,-120 -188,-120 -188,-124 -184,-124 -180,-124 -180,-128 -176,-128 -176,-132 -172,-132 -168,-132 
		-168,-136 -164,-136 -160,-136 -160,-140 -156,-140 -152,-140 -152,-144 -148,-144 -148,-148 -144,-148 -140,-148 -136,-148 
		-136,-152 -132,-152 -128,-152 -124,-152 -124,-156 -120,-156 -116,-156 -112,-156 -112,-160 -108,-160 -104,-160 -104,-164 
		-104,-168 -108,-168 -112,-168 -116,-168 -120,-168 -124,-168 -128,-168 -132,-168 -132,-164 	"/>
	<polygon class="st4" points="-64,-156 -64,-160 -68,-160 -68,-164 -72,-164 -76,-164 -80,-164 -80,-168 -84,-168 -88,-168 
		-92,-168 -96,-168 -100,-168 -100,-164 -100,-160 -96,-160 -92,-160 -88,-160 -84,-160 -80,-160 -76,-160 -72,-160 -72,-156 
		-68,-156 	"/>
	<polygon class="st4" points="-56,-156 -60,-156 -64,-156 -64,-152 -60,-152 -60,-148 -56,-148 -52,-148 -52,-152 -56,-152 	"/>
	<polygon class="st4" points="-116,-152 -120,-152 -124,-152 -124,-148 -128,-148 -132,-148 -136,-148 -136,-144 -140,-144 
		-144,-144 -148,-144 -148,-140 -152,-140 -152,-136 -156,-136 -160,-136 -160,-132 -164,-132 -168,-132 -168,-128 -172,-128 
		-176,-128 -176,-124 -180,-124 -180,-120 -184,-120 -188,-120 -188,-116 -192,-116 -192,-112 -196,-112 -196,-108 -200,-108 
		-200,-104 -196,-104 -192,-104 -188,-104 -184,-104 -180,-104 -176,-104 -172,-104 -168,-104 -164,-104 -160,-104 -156,-104 
		-156,-108 -152,-108 -152,-112 -148,-112 -148,-116 -144,-116 -144,-120 -144,-124 -140,-124 -140,-128 -136,-128 -136,-132 
		-132,-132 -128,-132 -128,-136 -124,-136 -124,-140 -120,-140 -116,-140 -112,-140 -112,-144 -108,-144 -104,-144 -104,-148 
		-104,-152 -104,-156 -108,-156 -112,-156 -112,-152 	"/>
	<rect x="-52" y="-148" class="st4" width="4" height="4"/>
	<polygon class="st4" points="-60,-144 -60,-148 -64,-148 -64,-152 -68,-152 -72,-152 -72,-156 -76,-156 -80,-156 -84,-156 
		-88,-156 -92,-156 -96,-156 -100,-156 -100,-152 -100,-148 -100,-144 -96,-144 -92,-144 -88,-144 -84,-144 -80,-144 -76,-144 
		-72,-144 -68,-144 -68,-140 -64,-140 -60,-140 -56,-140 -52,-140 -52,-144 -56,-144 	"/>
	<polygon class="st4" points="-76,-140 -80,-140 -84,-140 -88,-140 -92,-140 -96,-140 -100,-140 -100,-136 -100,-132 -100,-128 
		-100,-124 -100,-120 -100,-116 -100,-112 -100,-108 -100,-104 -96,-104 -92,-104 -88,-104 -84,-104 -80,-104 -76,-104 -72,-104 
		-68,-104 -64,-104 -60,-104 -56,-104 -52,-104 -48,-104 -44,-104 -40,-104 -40,-108 -44,-108 -44,-112 -48,-112 -52,-112 -56,-112 
		-56,-116 -52,-116 -48,-116 -48,-120 -52,-120 -52,-124 -56,-124 -60,-124 -60,-128 -56,-128 -52,-128 -52,-124 -48,-124 -48,-128 
		-48,-132 -52,-132 -52,-136 -56,-136 -60,-136 -64,-136 -68,-136 -68,-140 -72,-140 	"/>
	<polygon class="st4" points="-116,-136 -120,-136 -124,-136 -124,-132 -128,-132 -128,-128 -132,-128 -136,-128 -136,-124 
		-140,-124 -140,-120 -140,-116 -144,-116 -144,-112 -148,-112 -148,-108 -152,-108 -152,-104 -148,-104 -144,-104 -140,-104 
		-136,-104 -132,-104 -128,-104 -124,-104 -120,-104 -116,-104 -112,-104 -108,-104 -104,-104 -104,-108 -104,-112 -104,-116 
		-104,-120 -104,-124 -104,-128 -104,-132 -104,-136 -104,-140 -108,-140 -112,-140 -112,-136 	"/>
	<path class="st4" d="M-208-96h-4h-4v4h-4v4h-4h-4h-4v4h-4h-4h-4h-4h-4h-4h-4h-4v-4h4h4h4h4h4h4h4h4v-4h4h4h4v-4h4v-4h-4h-4h-4h-4
		h-4h-4h-4h-4h-4h-4h-4h-4h-4h-4h-4h-4h-4h-4h-4h-4h-4v4v4v4v4v4v4v4v4v4v4v4v4v4v4v4v4v4v4v4v4v4v4v4v4h4h4h4h4h4h4h4h4h4h4h4h4h4
		h4h4h4h4h4h4v-4h-4v-4v-4v-4v-4v-4h-4v-4h-4v-4v-4h4v4v4h4h4v-4h4v-4v-4v-4v-4h4v4v4v4h4h4h4v-4v-4v-4v-4v-4v-4v-4v-4v-4v-4v-4v-4
		v-4v-4v-4h-4V-96z M-268-84h-4v-4h4V-84z M-232-12h-4h-4v-4h4h4V-12z"/>
	<path class="st4" d="M-112-100h-4h-4h-4h-4h-4h-4h-4h-4h-4h-4h-4h-4v4h-4h-4v4h-4h-4h-4v-4h4h4h4v-4h-4h-4h-4h-4h-4h-4h-4h-4v4v4v4
		v4v4v4v4v4v4v4v4v4v4v4v4h4v-4h4v-4h4v-4h4v4h-4v4h-4v4h-4v4h4h4v4h4v4h4h4v-4v-4v-4h4v-4h4v4h-4v4v4v4h-4v4h4h4h4v4h4h4h4h4v4h4h4
		v-4h4v4h-4v4h4v4h4h4v-4h4v-4h4v4h-4v4h-4v4h4h4h4h4h4h4v-4v-4v-4v-4v-4v-4v-4v-4v-4v-4v-4v-4v-4v-4v-4v-4v-4v-4v-4v-4v-4v-4v-4v-4
		h-4H-112z M-156-24v-4h4v-4h4v4h-4v4H-156z"/>
	<polygon class="st4" points="88,-100 84,-100 80,-100 76,-100 72,-100 68,-100 64,-100 60,-100 56,-100 56,-96 52,-96 52,-100 
		48,-100 44,-100 44,-96 48,-96 48,-92 48,-88 48,-84 52,-84 52,-80 56,-80 56,-76 52,-76 52,-80 48,-80 44,-80 44,-76 40,-76 
		40,-72 36,-72 36,-68 32,-68 28,-68 28,-64 28,-60 32,-60 32,-56 28,-56 28,-60 24,-60 24,-64 24,-68 20,-68 16,-68 12,-68 12,-72 
		8,-72 4,-72 4,-76 0,-76 0,-72 0,-68 0,-64 0,-60 4,-60 4,-64 4,-68 8,-68 8,-64 8,-60 4,-60 4,-56 0,-56 0,-52 0,-48 0,-44 0,-40 
		0,-36 0,-32 0,-28 0,-24 0,-20 0,-16 0,-12 0,-8 0,-4 4,-4 8,-4 12,-4 16,-4 20,-4 24,-4 28,-4 32,-4 36,-4 40,-4 44,-4 48,-4 
		52,-4 56,-4 60,-4 64,-4 68,-4 72,-4 76,-4 80,-4 84,-4 88,-4 92,-4 96,-4 96,-8 96,-12 96,-16 96,-20 96,-24 96,-28 96,-32 
		96,-36 96,-40 96,-44 96,-48 96,-52 96,-56 96,-60 96,-64 96,-68 96,-72 96,-76 96,-80 96,-84 96,-88 96,-92 96,-96 96,-100 
		92,-100 	"/>
	<path class="st4" d="M-8-80h-4h-4v4v4h-4v-4v-4h4v-4v-4h-4v-4h-4h-4v-4h-4v-4h-4v4h-4v4h-4v-4h4v-4h-4h-4h-4h-4h-4h-4h-4h-4h-4h-4
		h-4h-4h-4h-4h-4v4v4v4v4v4v4v4v4v4v4v4v4v4v4v4v4v4v4v4v4v4v4v4v4h4h4h4h4h4h4h4v-4h4v-4h4h4v-4h4v-4h4v-4h4v-4v-4h4v-4h4v-4h4v-4
		v-4h-4v-4h-4h-4h-4h-4v-4h-4h-4h-4v-4h-4h-4v-4h-4v-4v-4h4v4v4h4h4v4h4h4h4v4h4h4h4h4v4h4v4h4v4v4h-4v4h-4v4h-4v4v4h-4v4h-4v4h-4v4
		h-4v4h-4h-4v4h4h4h4h4h4h4h4h4h4h4h4h4h4h4h4h4v-4v-4v-4v-4v-4v-4v-4v-4v-4v-4v-4v-4v-4v-4v-4v-4v-4v-4h-4V-80z M-76-80h4v-4h4v4
		h-4v4h-4V-80z"/>
	<polygon class="st4" points="-112,0 -116,0 -120,0 -124,0 -124,4 -124,8 -120,8 -116,8 -116,4 -112,4 -112,8 -108,8 -104,8 -104,4 
		-104,0 -108,0 	"/>
	<polygon class="st4" points="-92,4 -88,4 -84,4 -84,0 -88,0 -92,0 -96,0 -100,0 -100,4 -100,8 -96,8 -96,4 	"/>
	<polygon class="st4" points="-12,0 -16,0 -20,0 -24,0 -28,0 -32,0 -36,0 -40,0 -44,0 -48,0 -52,0 -56,0 -60,0 -64,0 -68,0 -72,0 
		-76,0 -80,0 -80,4 -84,4 -84,8 -88,8 -92,8 -96,8 -96,12 -100,12 -100,16 -100,20 -100,24 -100,28 -100,32 -96,32 -92,32 -88,32 
		-88,36 -84,36 -80,36 -76,36 -72,36 -68,36 -64,36 -60,36 -56,36 -52,36 -48,36 -44,36 -40,36 -36,36 -32,36 -28,36 -24,36 -20,36 
		-16,36 -12,36 -12,32 -8,32 -4,32 -4,28 -4,24 -4,20 -4,16 -4,12 -4,8 -4,4 -4,0 -8,0 	"/>
	<path class="st4" d="M88,0h-4h-4h-4h-4h-4h-4h-4h-4h-4h-4h-4h-4h-4h-4h-4h-4h-4h-4h-4H8H4H0v4v4v4v4v4v4v4v4h4h4v-4h4h4h4v-4h4h4v4
		h-4h-4v4h-4h-4H8v4H4H0v4v4v4v4v4v4v4v4v4v4v4v4v4v4v4h4h4h4h4h4h4h4h4h4h4h4h4h4h4h4h4h4h4h4h4h4h4h4h4v-4v-4v-4v-4v-4v-4v-4v-4
		v-4v-4v-4v-4v-4v-4v-4v-4v-4v-4v-4v-4v-4V8V4V0h-4H88z M32,20h4h4v-4h4h4v4h-4h-4v4h-4h-4V20z"/>
	<polygon class="st4" points="-212,8 -212,4 -216,4 -216,8 -220,8 -224,8 -224,12 -228,12 -228,8 -224,8 -224,4 -220,4 -216,4 
		-216,0 -220,0 -224,0 -228,0 -232,0 -236,0 -240,0 -244,0 -248,0 -252,0 -256,0 -260,0 -264,0 -268,0 -272,0 -276,0 -280,0 -284,0 
		-288,0 -292,0 -296,0 -300,0 -300,4 -300,8 -300,12 -300,16 -300,20 -300,24 -300,28 -300,32 -300,36 -300,40 -300,44 -300,48 
		-300,52 -300,56 -300,60 -300,64 -300,68 -300,72 -300,76 -300,80 -300,84 -300,88 -300,92 -300,96 -296,96 -292,96 -288,96 
		-284,96 -280,96 -276,96 -272,96 -268,96 -264,96 -260,96 -256,96 -252,96 -248,96 -244,96 -240,96 -236,96 -232,96 -228,96 
		-224,96 -220,96 -216,96 -212,96 -208,96 -204,96 -204,92 -204,88 -204,84 -204,80 -204,76 -204,72 -204,68 -204,64 -204,60 
		-204,56 -204,52 -204,48 -204,44 -204,40 -204,36 -204,32 -204,28 -204,24 -204,20 -204,16 -204,12 -204,8 -208,8 	"/>
	<polygon class="st4" points="-112,12 -116,12 -120,12 -124,12 -124,16 -124,20 -120,20 -116,20 -116,24 -112,24 -108,24 -104,24 
		-104,20 -104,16 -104,12 -108,12 	"/>
	<path class="st4" d="M-124,24v-4h-4h-4v4h-4v4h4h4v4h4v4v4v4v4v4h-4v4v4h-4v4h-4v4h-4v4h-4h-4v-4h4h4v-4h4v-4h4v-4v-4h4v-4v-4v-4
		v-4v-4h-4h-4v-4h-4h-4v4h4v4h4h4v4h-4h-4v-4h-4v-4h-4v-4h-4h-4h-4h-4v-4h-4h-4h-4h-4v-4h-4h-4v4h-4v4h-4v-4h4v-4h4v-4h-4h-4h-4v4v4
		v4v4v4v4v4v4v4v4v4v4v4v4v4v4v4v4v4v4h4h4h4h4h4h4h4h4h4h4h4h4h4h4h4h4h4h4h4h4h4h4h4h4v-4v-4v-4v-4v-4v-4v-4v-4v-4v-4v-4v-4v-4v-4
		v-4v-4v-4h-4h-4h-4v-4h-4H-124z M-168,28v4v4h-4v4v4h-4v-4v-4h4v-4v-4H-168z"/>
	<polygon class="st4" points="-16,40 -20,40 -24,40 -28,40 -32,40 -36,40 -40,40 -44,40 -48,40 -52,40 -56,40 -60,40 -64,40 -68,40 
		-72,40 -76,40 -80,40 -84,40 -88,40 -88,36 -92,36 -96,36 -100,36 -100,40 -100,44 -100,48 -100,52 -100,56 -100,60 -100,64 
		-100,68 -100,72 -100,76 -100,80 -100,84 -100,88 -100,92 -100,96 -96,96 -92,96 -88,96 -84,96 -80,96 -76,96 -72,96 -68,96 
		-64,96 -60,96 -56,96 -52,96 -48,96 -44,96 -40,96 -36,96 -32,96 -28,96 -24,96 -20,96 -16,96 -12,96 -8,96 -4,96 -4,92 -4,88 
		-4,84 -4,80 -4,76 -4,72 -4,68 -4,64 -4,60 -4,56 -4,52 -4,48 -4,44 -4,40 -4,36 -8,36 -12,36 -12,40 	"/>
</g>
</svg>
