<?xml version="1.0" encoding="utf-8"?>
<!-- Generator: Adobe Illustrator 24.2.0, SVG Export Plug-In . SVG Version: 6.00 Build 0)  -->
<svg version="1.1" id="圖層_1" shape-rendering="crispEdges"
	 xmlns="http://www.w3.org/2000/svg" xmlns:xlink="http://www.w3.org/1999/xlink" x="0px" y="0px" viewBox="0 0 96 96"
	 style="enable-background:new 0 0 96 96;" xml:space="preserve">
<style type="text/css">
	.st0{fill:#035E55;}
	.st1{fill:#05FFB5;}
	.st2{fill:#17CE98;}
	.st3{fill:#009A6C;}
	.st4{opacity:0.1176;fill:#011E1B;enable-background:new    ;}
</style>
<g>
	<polygon class="st1" points="92,4 92,0 88,0 84,0 84,4 88,4 	"/>
	<rect x="80" y="4" class="st1" width="4" height="4"/>
	<polygon class="st1" points="76,12 80,12 80,8 76,8 72,8 68,8 68,12 72,12 	"/>
	<rect x="28" y="12" class="st1" width="4" height="4"/>
	<polygon class="st1" points="60,12 56,12 52,12 48,12 44,12 40,12 36,12 36,16 40,16 44,16 48,16 52,16 56,16 60,16 64,16 68,16 
		68,12 64,12 	"/>
	<polygon class="st1" points="88,60 88,64 84,64 84,60 80,60 80,64 76,64 76,68 72,68 72,72 72,76 72,80 72,84 72,88 72,92 76,92 
		76,88 80,88 80,84 80,80 84,80 84,76 84,72 88,72 88,68 92,68 96,68 96,64 96,60 92,60 	"/>
	<polygon class="st1" points="76,92 76,96 80,96 84,96 88,96 88,92 84,92 84,88 80,88 80,92 	"/>
</g>
<g>
	<polygon class="st2" points="84,56 84,52 84,48 80,48 80,52 80,56 80,60 84,60 	"/>
	<polygon class="st2" points="68,60 64,60 64,64 64,68 68,68 68,64 	"/>
	<rect x="84" y="60" class="st2" width="4" height="4"/>
	<rect x="68" y="68" class="st2" width="4" height="4"/>
	<polygon class="st2" points="88,68 88,72 84,72 84,76 84,80 80,80 80,84 80,88 84,88 84,92 88,92 88,96 92,96 96,96 96,92 96,88 
		92,88 92,84 96,84 96,80 92,80 92,76 96,76 96,72 96,68 92,68 	"/>
	<polygon class="st2" points="60,84 60,88 64,88 68,88 68,84 64,84 	"/>
	<rect x="76" y="88" class="st2" width="4" height="4"/>
</g>
<g>
	<rect x="92" y="76" class="st3" width="4" height="4"/>
	<rect x="92" y="84" class="st3" width="4" height="4"/>
</g>
<g>
	<path class="st4" d="M92,4h-4h-4v4h-4v4h-4h-4h-4v4h-4h-4h-4h-4h-4h-4h-4h-4v-4h4h4h4h4h4h4h4h4V8h4h4h4V4h4V0h-4h-4h-4h-4h-4h-4
		h-4h-4h-4h-4h-4h-4h-4h-4h-4h-4h-4h-4H8H4H0v4v4v4v4v4v4v4v4v4v4v4v4v4v4v4v4v4v4v4v4v4v4v4v4h4h4h4h4h4h4h4h4h4h4h4h4h4h4h4h4h4h4
		h4v-4h-4v-4v-4v-4v-4v-4h-4v-4h-4v-4v-4h4v4v4h4h4v-4h4v-4v-4v-4v-4h4v4v4v4h4h4h4v-4v-4v-4v-4v-4v-4v-4v-4v-4v-4v-4v-4V8V4V0h-4V4
		z M32,16h-4v-4h4V16z M68,88h-4h-4v-4h4h4V88z"/>
</g>
</svg>
