<?xml version="1.0" encoding="utf-8"?>
<!-- Generator: Adobe Illustrator 24.2.0, SVG Export Plug-In . SVG Version: 6.00 Build 0)  -->
<svg version="1.1" id="圖層_1" shape-rendering="crispEdges"
	 xmlns="http://www.w3.org/2000/svg" xmlns:xlink="http://www.w3.org/1999/xlink" x="0px" y="0px" viewBox="0 0 264 344"
	 style="enable-background:new 0 0 264 344;" xml:space="preserve">
<style type="text/css">
	.st0{fill:#9E856D;}
	.st1{fill:#745659;}
	.st2{fill:#EC5E5E;}
	.st3{fill:#B03F4B;}
	.st4{fill:#FFED9A;}
	.st5{fill:#DBBA25;}
	.st6{fill:#D99F77;}
	.st7{fill:#DA6329;}
	.st8{fill:#FF7E7E;}
	.st9{fill:#FFD1BA;}
	.st10{fill:#FFAC83;}
	.st11{fill:#FFE7D8;}
	.st12{fill:#FFFFFF;}
</style>
<rect x="144" y="4" class="st0" width="4" height="4"/>
<rect x="148" y="4" class="st1" width="4" height="4"/>
<rect x="112" y="52" class="st0" width="4" height="4"/>
<rect x="108" y="56" class="st0" width="4" height="4"/>
<rect x="112" y="56" class="st1" width="4" height="4"/>
<rect x="168" y="72" class="st2" width="4" height="4"/>
<rect x="156" y="88" class="st2" width="4" height="4"/>
<rect x="180" y="92" class="st2" width="4" height="4"/>
<rect x="132" y="96" class="st2" width="4" height="4"/>
<rect x="176" y="96" class="st2" width="4" height="4"/>
<rect x="208" y="96" class="st2" width="4" height="4"/>
<rect x="128" y="100" class="st2" width="4" height="4"/>
<rect x="132" y="100" class="st2" width="4" height="4"/>
<rect x="140" y="100" class="st2" width="4" height="4"/>
<rect x="152" y="100" class="st2" width="4" height="4"/>
<rect x="168" y="100" class="st2" width="4" height="4"/>
<rect x="172" y="100" class="st2" width="4" height="4"/>
<rect x="104" y="104" class="st2" width="4" height="4"/>
<rect x="108" y="104" class="st2" width="4" height="4"/>
<rect x="112" y="104" class="st2" width="4" height="4"/>
<rect x="116" y="104" class="st2" width="4" height="4"/>
<rect x="120" y="104" class="st2" width="4" height="4"/>
<rect x="124" y="104" class="st2" width="4" height="4"/>
<rect x="128" y="104" class="st2" width="4" height="4"/>
<rect x="144" y="104" class="st2" width="4" height="4"/>
<rect x="164" y="104" class="st2" width="4" height="4"/>
<rect x="168" y="104" class="st2" width="4" height="4"/>
<rect x="196" y="104" class="st2" width="4" height="4"/>
<rect x="256" y="104" class="st0" width="4" height="4"/>
<rect x="148" y="108" class="st2" width="4" height="4"/>
<rect x="152" y="108" class="st2" width="4" height="4"/>
<rect x="156" y="108" class="st2" width="4" height="4"/>
<rect x="160" y="108" class="st2" width="4" height="4"/>
<rect x="164" y="108" class="st2" width="4" height="4"/>
<rect x="176" y="108" class="st2" width="4" height="4"/>
<rect x="184" y="108" class="st2" width="4" height="4"/>
<rect x="256" y="108" class="st1" width="4" height="4"/>
<rect x="132" y="112" class="st2" width="4" height="4"/>
<rect x="136" y="112" class="st2" width="4" height="4"/>
<rect x="152" y="112" class="st2" width="4" height="4"/>
<rect x="172" y="112" class="st2" width="4" height="4"/>
<rect x="120" y="116" class="st2" width="4" height="4"/>
<rect x="140" y="116" class="st2" width="4" height="4"/>
<rect x="156" y="116" class="st2" width="4" height="4"/>
<rect x="172" y="116" class="st2" width="4" height="4"/>
<rect x="140" y="120" class="st2" width="4" height="4"/>
<rect x="148" y="120" class="st2" width="4" height="4"/>
<rect x="112" y="124" class="st2" width="4" height="4"/>
<rect x="136" y="124" class="st2" width="4" height="4"/>
<rect x="140" y="124" class="st2" width="4" height="4"/>
<rect x="144" y="124" class="st2" width="4" height="4"/>
<rect x="168" y="124" class="st2" width="4" height="4"/>
<rect x="132" y="128" class="st2" width="4" height="4"/>
<rect x="144" y="128" class="st2" width="4" height="4"/>
<rect x="124" y="132" class="st2" width="4" height="4"/>
<rect x="128" y="132" class="st2" width="4" height="4"/>
<rect x="144" y="132" class="st2" width="4" height="4"/>
<rect x="148" y="132" class="st2" width="4" height="4"/>
<rect x="148" y="136" class="st2" width="4" height="4"/>
<rect x="152" y="140" class="st2" width="4" height="4"/>
<rect x="140" y="148" class="st2" width="4" height="4"/>
<rect x="144" y="148" class="st2" width="4" height="4"/>
<rect x="148" y="148" class="st2" width="4" height="4"/>
<rect x="136" y="152" class="st2" width="4" height="4"/>
<rect x="140" y="152" class="st2" width="4" height="4"/>
<rect x="144" y="152" class="st2" width="4" height="4"/>
<rect x="152" y="152" class="st2" width="4" height="4"/>
<rect x="132" y="156" class="st2" width="4" height="4"/>
<rect x="136" y="156" class="st2" width="4" height="4"/>
<rect x="140" y="156" class="st2" width="4" height="4"/>
<g>
	<rect x="152" y="96" class="st3" width="4" height="4"/>
	<rect x="148" y="104" class="st3" width="4" height="4"/>
	<polygon class="st3" points="176,104 172,104 172,108 168,108 168,112 164,112 160,112 156,112 156,116 160,116 164,116 168,116 
		172,116 172,112 176,112 176,108 180,108 180,104 	"/>
	<polygon class="st3" points="152,112 148,112 148,108 144,108 144,104 140,104 140,100 136,100 136,104 132,104 132,108 128,108 
		124,108 120,108 116,108 116,112 120,112 124,112 128,112 132,112 136,112 140,112 140,116 144,116 144,120 144,124 148,124 
		148,120 152,120 156,120 156,116 152,116 	"/>
	<rect x="128" y="116" class="st3" width="4" height="4"/>
	<rect x="116" y="120" class="st3" width="4" height="4"/>
	<rect x="164" y="120" class="st3" width="4" height="4"/>
	<polygon class="st3" points="160,148 156,148 156,144 152,144 152,140 148,140 148,136 144,136 144,132 144,128 140,128 140,132 
		140,136 140,140 136,140 136,144 132,144 132,148 132,152 132,156 136,156 136,152 140,152 140,148 144,148 148,148 152,148 
		152,152 156,152 156,156 160,156 160,160 164,160 164,156 164,152 160,152 	"/>
</g>
<rect x="120" y="160" class="st4" width="4" height="4"/>
<rect x="128" y="160" class="st2" width="4" height="4"/>
<rect x="132" y="160" class="st2" width="4" height="4"/>
<rect x="136" y="160" class="st2" width="4" height="4"/>
<rect x="124" y="164" class="st5" width="4" height="4"/>
<rect x="128" y="164" class="st2" width="4" height="4"/>
<rect x="132" y="164" class="st2" width="4" height="4"/>
<rect x="136" y="164" class="st2" width="4" height="4"/>
<rect x="128" y="168" class="st5" width="4" height="4"/>
<rect x="132" y="168" class="st5" width="4" height="4"/>
<rect x="72" y="172" class="st6" width="4" height="4"/>
<rect x="116" y="172" class="st4" width="4" height="4"/>
<rect x="128" y="172" class="st2" width="4" height="4"/>
<rect x="132" y="172" class="st2" width="4" height="4"/>
<rect x="72" y="176" class="st1" width="4" height="4"/>
<rect x="76" y="176" class="st6" width="4" height="4"/>
<rect x="120" y="176" class="st4" width="4" height="4"/>
<rect x="124" y="176" class="st5" width="4" height="4"/>
<rect x="128" y="176" class="st2" width="4" height="4"/>
<rect x="132" y="176" class="st2" width="4" height="4"/>
<rect x="128" y="180" class="st5" width="4" height="4"/>
<rect x="116" y="184" class="st4" width="4" height="4"/>
<rect x="128" y="184" class="st2" width="4" height="4"/>
<rect x="120" y="188" class="st4" width="4" height="4"/>
<rect x="128" y="188" class="st2" width="4" height="4"/>
<rect x="124" y="192" class="st5" width="4" height="4"/>
<rect x="128" y="192" class="st5" width="4" height="4"/>
<rect x="132" y="192" class="st5" width="4" height="4"/>
<rect x="132" y="196" class="st2" width="4" height="4"/>
<rect x="216" y="196" class="st0" width="4" height="4"/>
<rect x="120" y="200" class="st4" width="4" height="4"/>
<rect x="132" y="200" class="st2" width="4" height="4"/>
<rect x="216" y="200" class="st1" width="4" height="4"/>
<rect x="220" y="200" class="st0" width="4" height="4"/>
<rect x="124" y="204" class="st4" width="4" height="4"/>
<rect x="128" y="204" class="st5" width="4" height="4"/>
<rect x="132" y="204" class="st2" width="4" height="4"/>
<rect x="132" y="208" class="st5" width="4" height="4"/>
<rect x="136" y="208" class="st5" width="4" height="4"/>
<rect x="116" y="212" class="st4" width="4" height="4"/>
<rect x="136" y="212" class="st2" width="4" height="4"/>
<rect x="120" y="216" class="st4" width="4" height="4"/>
<rect x="136" y="216" class="st2" width="4" height="4"/>
<rect x="124" y="220" class="st4" width="4" height="4"/>
<rect x="128" y="220" class="st5" width="4" height="4"/>
<rect x="132" y="220" class="st5" width="4" height="4"/>
<rect x="136" y="220" class="st2" width="4" height="4"/>
<rect x="124" y="224" class="st4" width="4" height="4"/>
<rect x="136" y="224" class="st2" width="4" height="4"/>
<rect x="112" y="228" class="st4" width="4" height="4"/>
<rect x="128" y="228" class="st5" width="4" height="4"/>
<rect x="132" y="228" class="st5" width="4" height="4"/>
<rect x="136" y="228" class="st5" width="4" height="4"/>
<rect x="116" y="232" class="st4" width="4" height="4"/>
<rect x="136" y="232" class="st2" width="4" height="4"/>
<rect x="120" y="236" class="st5" width="4" height="4"/>
<rect x="124" y="236" class="st5" width="4" height="4"/>
<rect x="128" y="236" class="st5" width="4" height="4"/>
<rect x="136" y="236" class="st2" width="4" height="4"/>
<rect x="132" y="240" class="st5" width="4" height="4"/>
<rect x="116" y="244" class="st4" width="4" height="4"/>
<rect x="108" y="248" class="st4" width="4" height="4"/>
<rect x="120" y="248" class="st5" width="4" height="4"/>
<rect x="128" y="248" class="st2" width="4" height="4"/>
<rect x="112" y="252" class="st4" width="4" height="4"/>
<rect x="124" y="252" class="st5" width="4" height="4"/>
<rect x="116" y="256" class="st5" width="4" height="4"/>
<rect x="124" y="256" class="st2" width="4" height="4"/>
<rect x="100" y="260" class="st4" width="4" height="4"/>
<rect x="116" y="260" class="st2" width="4" height="4"/>
<rect x="120" y="260" class="st5" width="4" height="4"/>
<rect x="76" y="264" class="st4" width="4" height="4"/>
<rect x="104" y="264" class="st4" width="4" height="4"/>
<rect x="116" y="264" class="st2" width="4" height="4"/>
<rect x="68" y="268" class="st2" width="4" height="4"/>
<rect x="76" y="268" class="st4" width="4" height="4"/>
<rect x="88" y="268" class="st4" width="4" height="4"/>
<rect x="104" y="268" class="st4" width="4" height="4"/>
<rect x="108" y="268" class="st2" width="4" height="4"/>
<rect x="112" y="268" class="st2" width="4" height="4"/>
<rect x="68" y="272" class="st2" width="4" height="4"/>
<rect x="72" y="272" class="st4" width="4" height="4"/>
<rect x="76" y="272" class="st2" width="4" height="4"/>
<rect x="84" y="272" class="st4" width="4" height="4"/>
<rect x="96" y="272" class="st7" width="4" height="4"/>
<rect x="100" y="272" class="st4" width="4" height="4"/>
<rect x="72" y="276" class="st4" width="4" height="4"/>
<rect x="76" y="276" class="st2" width="4" height="4"/>
<rect x="80" y="276" class="st2" width="4" height="4"/>
<rect x="84" y="276" class="st4" width="4" height="4"/>
<rect x="88" y="276" class="st2" width="4" height="4"/>
<rect x="92" y="276" class="st2" width="4" height="4"/>
<g>
	<rect x="172" y="68" class="st8" width="4" height="4"/>
	<rect x="164" y="80" class="st8" width="4" height="4"/>
	<rect x="92" y="96" class="st8" width="4" height="4"/>
	<polygon class="st8" points="176,96 180,96 180,92 184,92 184,88 188,88 188,84 188,80 188,76 188,72 188,68 188,64 184,64 184,60 
		184,56 180,56 180,60 176,60 176,64 180,64 180,68 180,72 176,72 176,76 176,80 176,84 172,84 172,88 172,92 168,92 168,96 164,96 
		164,100 164,104 168,104 168,100 172,100 176,100 	"/>
	<polygon class="st8" points="100,104 104,104 108,104 112,104 116,104 120,104 124,104 128,104 128,100 132,100 132,96 128,96 
		124,96 124,100 120,100 116,100 112,100 108,100 104,100 100,100 96,100 96,104 	"/>
	<polygon class="st8" points="148,100 148,96 144,96 140,96 140,100 144,100 144,104 148,104 152,104 152,100 	"/>
	<polygon class="st8" points="156,104 152,104 152,108 156,108 160,108 164,108 164,104 160,104 	"/>
	<rect x="200" y="104" class="st8" width="4" height="4"/>
	<polygon class="st8" points="184,108 184,104 180,104 180,108 180,112 184,112 	"/>
	<rect x="116" y="116" class="st8" width="4" height="4"/>
	<polygon class="st8" points="132,120 128,120 128,116 132,116 132,112 128,112 124,112 124,116 124,120 120,120 120,124 120,128 
		124,128 124,132 128,132 132,132 132,128 136,128 136,124 140,124 140,120 140,116 136,116 132,116 	"/>
	<rect x="160" y="116" class="st8" width="4" height="4"/>
	<rect x="112" y="120" class="st8" width="4" height="4"/>
	<polygon class="st8" points="188,120 184,120 184,116 180,116 180,112 176,112 176,116 176,120 176,124 180,124 184,124 184,128 
		188,128 192,128 192,124 188,124 	"/>
	<rect x="108" y="128" class="st8" width="4" height="4"/>
	<rect x="168" y="128" class="st8" width="4" height="4"/>
	<rect x="120" y="132" class="st8" width="4" height="4"/>
	<rect x="100" y="136" class="st8" width="4" height="4"/>
	<rect x="116" y="136" class="st8" width="4" height="4"/>
	<polygon class="st8" points="168,144 164,144 164,140 160,140 160,136 160,132 156,132 156,128 156,124 152,124 148,124 148,128 
		148,132 152,132 152,136 152,140 156,140 156,144 156,148 160,148 164,148 164,152 168,152 172,152 172,148 168,148 	"/>
	<rect x="184" y="144" class="st8" width="4" height="4"/>
	<rect x="196" y="160" class="st8" width="4" height="4"/>
	<rect x="148" y="176" class="st8" width="4" height="4"/>
	<rect x="148" y="192" class="st8" width="4" height="4"/>
	<rect x="144" y="196" class="st8" width="4" height="4"/>
	<polygon class="st8" points="140,200 140,196 144,196 144,192 140,192 140,188 140,184 144,184 148,184 148,180 144,180 140,180 
		140,176 144,176 144,172 144,168 144,164 148,164 148,160 152,160 152,156 152,152 148,152 148,156 144,156 144,160 140,160 
		140,164 140,168 136,168 136,172 136,176 136,180 132,180 132,184 132,188 132,192 136,192 136,196 136,200 136,204 136,208 
		140,208 140,204 	"/>
	<rect x="148" y="204" class="st8" width="4" height="4"/>
	<polygon class="st8" points="152,228 152,232 156,232 160,232 160,228 156,228 	"/>
	<polygon class="st8" points="148,236 144,236 144,232 144,228 144,224 144,220 148,220 152,220 152,216 148,216 144,216 144,212 
		144,208 140,208 140,212 140,216 140,220 140,224 140,228 140,232 140,236 140,240 136,240 136,244 132,244 132,248 132,252 
		128,252 128,256 128,260 124,260 124,264 120,264 120,268 116,268 116,272 112,272 108,272 104,272 104,276 100,276 96,276 96,280 
		92,280 88,280 84,280 80,280 80,284 84,284 88,284 92,284 96,284 100,284 104,284 108,284 108,280 112,280 112,284 116,284 
		116,280 116,276 120,276 124,276 124,272 128,272 128,268 132,268 132,264 132,260 132,256 136,256 136,252 136,248 140,248 
		140,244 144,244 148,244 152,244 152,240 148,240 	"/>
	<rect x="36" y="244" class="st8" width="4" height="4"/>
	<polygon class="st8" points="48,252 48,248 44,248 40,248 40,252 44,252 44,256 48,256 52,256 52,252 	"/>
	<polygon class="st8" points="60,256 56,256 52,256 52,260 56,260 60,260 	"/>
	<rect x="136" y="256" class="st8" width="4" height="4"/>
	<polygon class="st8" points="144,264 148,264 148,260 144,260 140,260 140,264 	"/>
	<polygon class="st8" points="60,264 60,268 64,268 68,268 68,264 64,264 	"/>
	<rect x="132" y="268" class="st8" width="4" height="4"/>
	<rect x="140" y="272" class="st8" width="4" height="4"/>
	<rect x="124" y="276" class="st8" width="4" height="4"/>
</g>
<g>
	<rect x="172" y="72" class="st9" width="4" height="4"/>
	<polygon class="st9" points="164,80 168,80 172,80 172,76 168,76 168,72 172,72 172,68 176,68 176,64 172,64 172,60 176,60 176,56 
		172,56 172,52 176,52 176,48 172,48 172,44 172,40 168,40 168,36 164,36 164,40 164,44 164,48 168,48 168,52 168,56 168,60 168,64 
		168,68 164,68 164,72 164,76 160,76 160,80 160,84 164,84 	"/>
	<polygon class="st9" points="96,84 100,84 100,80 100,76 96,76 96,80 92,80 92,84 92,88 96,88 	"/>
	<rect x="164" y="84" class="st9" width="4" height="4"/>
	<polygon class="st9" points="96,88 96,92 100,92 100,96 104,96 108,96 112,96 112,92 116,92 116,96 120,96 124,96 124,92 120,92 
		120,88 116,88 112,88 108,88 108,92 104,92 104,88 104,84 100,84 100,88 	"/>
	<rect x="160" y="88" class="st9" width="4" height="4"/>
	<polygon class="st9" points="232,88 228,88 224,88 220,88 220,92 216,92 216,96 212,96 212,100 208,100 208,104 204,104 204,108 
		200,108 196,108 196,112 192,112 192,116 196,116 200,116 204,116 204,112 208,112 208,108 212,108 212,104 216,104 220,104 
		220,100 224,100 224,96 228,96 228,92 232,92 236,92 236,88 	"/>
	<polygon class="st9" points="152,96 156,96 160,96 160,92 156,92 156,88 160,88 160,84 156,84 152,84 152,88 148,88 148,92 152,92 
			"/>
	<rect x="208" y="92" class="st9" width="4" height="4"/>
	<rect x="204" y="96" class="st9" width="4" height="4"/>
	<polygon class="st9" points="204,104 204,100 200,100 196,100 196,104 200,104 	"/>
	<rect x="192" y="104" class="st9" width="4" height="4"/>
	<rect x="188" y="108" class="st9" width="4" height="4"/>
	<rect x="172" y="128" class="st9" width="4" height="4"/>
	<polygon class="st9" points="104,136 104,132 108,132 108,128 104,128 100,128 100,132 96,132 96,136 96,140 100,140 100,136 	"/>
	<rect x="108" y="132" class="st9" width="4" height="4"/>
	<rect x="104" y="136" class="st9" width="4" height="4"/>
	<path class="st9" d="M200,152v-4h-4v-4h-4v-4v-4h-4v-4h-4h-4h-4v4h-4v-4h-4v4v4h4v4h4v4h4v4h4v4v4h4v4v4v4h4v4v4h4v4v4h4v-4h4v-4
		v-4v-4v-4v-4v-4v-4h-4V152z M180,144v-4h4v4h4v4h-4v-4H180z M200,172h-4v-4h4V172z M200,164h-4v-4h4V164z M192,156v-4h4v4H192z"/>
	<polygon class="st9" points="96,160 96,156 100,156 100,152 100,148 104,148 104,144 104,140 100,140 100,144 96,144 96,148 
		92,148 92,152 92,156 88,156 88,160 92,160 	"/>
	<rect x="148" y="172" class="st9" width="4" height="4"/>
	<polygon class="st9" points="156,192 156,188 160,188 160,184 160,180 156,180 152,180 152,184 152,188 148,188 148,192 152,192 	
		"/>
	<polygon class="st9" points="156,200 152,200 152,204 156,204 160,204 160,200 164,200 168,200 168,196 164,196 164,192 160,192 
		156,192 156,196 	"/>
	<polygon class="st9" points="168,220 168,216 168,212 172,212 172,208 168,208 164,208 160,208 160,212 156,212 152,212 152,216 
		156,216 160,216 164,216 164,220 160,220 160,224 160,228 164,228 168,228 168,224 172,224 176,224 176,220 172,220 	"/>
	<rect x="168" y="228" class="st9" width="4" height="4"/>
	<rect x="172" y="232" class="st9" width="4" height="4"/>
	<polygon class="st9" points="164,236 164,232 160,232 160,236 156,236 156,240 160,240 164,240 164,244 160,244 156,244 156,248 
		156,252 156,256 152,256 152,260 152,264 156,264 156,260 160,260 160,264 164,264 164,260 168,260 172,260 172,256 176,256 
		176,252 176,248 172,248 168,248 168,252 164,252 160,252 160,248 164,248 168,248 168,244 168,240 172,240 172,236 168,236 	"/>
	<rect x="16" y="248" class="st9" width="4" height="4"/>
	<rect x="12" y="260" class="st9" width="4" height="4"/>
	<polygon class="st9" points="40,264 44,264 44,268 44,272 48,272 48,276 52,276 52,280 48,280 48,284 52,284 52,288 56,288 56,284 
		60,284 64,284 64,288 68,288 72,288 72,292 76,292 80,292 80,296 84,296 88,296 92,296 96,296 100,296 104,296 104,292 100,292 
		96,292 96,288 92,288 88,288 84,288 80,288 76,288 76,284 72,284 72,280 68,280 68,276 64,276 64,272 60,272 60,276 60,280 56,280 
		56,276 56,272 60,272 60,268 56,268 56,264 56,260 52,260 48,260 44,260 44,256 40,256 36,256 36,260 40,260 	"/>
	<polygon class="st9" points="156,268 156,272 152,272 152,276 152,280 156,280 160,280 160,276 164,276 168,276 172,276 176,276 
		176,272 176,268 176,264 172,264 168,264 168,268 164,268 160,268 160,264 156,264 	"/>
	<rect x="136" y="276" class="st9" width="4" height="4"/>
	<polygon class="st9" points="156,284 152,284 148,284 148,288 144,288 144,292 144,296 148,296 152,296 152,292 156,292 160,292 
		164,292 164,288 168,288 172,288 172,284 172,280 168,280 164,280 160,280 160,284 	"/>
	<rect x="108" y="288" class="st9" width="4" height="4"/>
	<polygon class="st9" points="124,292 128,292 132,292 132,288 132,284 136,284 136,280 132,280 128,280 128,284 128,288 124,288 
		120,288 120,284 116,284 116,288 116,292 116,296 120,296 120,292 	"/>
	<rect x="132" y="292" class="st9" width="4" height="4"/>
	<rect x="164" y="292" class="st9" width="4" height="4"/>
	<rect x="120" y="296" class="st9" width="4" height="4"/>
	<rect x="136" y="296" class="st9" width="4" height="4"/>
	<polygon class="st9" points="156,296 152,296 152,300 148,300 144,300 140,300 140,304 144,304 144,308 148,308 152,308 156,308 
		156,304 160,304 160,300 164,300 164,296 160,296 	"/>
	<rect x="68" y="300" class="st9" width="4" height="4"/>
	<polygon class="st9" points="104,300 100,300 100,304 100,308 104,308 104,304 	"/>
	<rect x="124" y="300" class="st9" width="4" height="4"/>
	<rect x="64" y="304" class="st9" width="4" height="4"/>
	<rect x="80" y="304" class="st9" width="4" height="4"/>
	<rect x="116" y="304" class="st9" width="4" height="4"/>
	<polygon class="st9" points="140,304 136,304 132,304 128,304 128,308 124,308 120,308 120,312 116,312 116,316 112,316 108,316 
		108,312 108,308 104,308 104,312 104,316 104,320 108,320 108,324 112,324 116,324 120,324 120,320 124,320 124,324 128,324 
		128,320 132,320 136,320 136,316 136,312 132,312 132,308 136,308 136,312 140,312 140,316 144,316 148,316 148,312 144,312 
		144,308 140,308 	"/>
	<path class="st9" d="M64,312v-4h-4v4h-4v-4h-4v-4v-4h-4v-4v-4h4v-4h-4v-4h-4v-4h4v-4h-4v-4h-4v-4v-4h-4v-4h-4h-4h-4v4h4v4h4v4h-4
		v-4h-4v-4h-4v4h-4v4v4v4h4v4v4h4h4v4h-4v4h4v4h4v4h4v-4h4h4v4h4v4h-4v-4h-4h-4v4h4v4h4v4h4h4h4v4h4h4v-4V312z M20,276v-4h4v4h4h4v4
		h4v4h-4v-4h-4h-4v-4H20z M36,296h-4v-4h4h4v4H36z"/>
	<polygon class="st9" points="80,312 80,308 76,308 76,312 76,316 80,316 	"/>
	<polygon class="st9" points="100,316 96,316 96,320 92,320 92,324 96,324 96,328 100,328 100,324 104,324 104,320 100,320 	"/>
	<rect x="60" y="324" class="st9" width="4" height="4"/>
	<polygon class="st9" points="88,324 88,320 88,316 84,316 84,320 80,320 80,324 76,324 76,320 76,316 72,316 72,320 68,320 64,320 
		64,324 68,324 72,324 72,328 76,328 80,328 80,332 84,332 84,328 88,328 92,328 92,324 	"/>
	<rect x="136" y="324" class="st9" width="4" height="4"/>
	<rect x="92" y="328" class="st9" width="4" height="4"/>
	<rect x="108" y="328" class="st9" width="4" height="4"/>
	<rect x="124" y="328" class="st9" width="4" height="4"/>
</g>
<g>
	<rect x="152" y="8" class="st10" width="4" height="4"/>
	<rect x="156" y="12" class="st10" width="4" height="4"/>
	<polygon class="st10" points="160,24 160,28 164,28 164,32 164,36 168,36 168,32 168,28 168,24 164,24 164,20 164,16 160,16 
		160,20 	"/>
	<rect x="168" y="36" class="st10" width="4" height="4"/>
	<rect x="172" y="44" class="st10" width="4" height="4"/>
	<polygon class="st10" points="172,52 172,56 176,56 176,60 180,60 180,56 180,52 180,48 176,48 176,52 	"/>
	<rect x="104" y="60" class="st10" width="4" height="4"/>
	<rect x="172" y="60" class="st10" width="4" height="4"/>
	<polygon class="st10" points="104,68 104,64 100,64 100,68 100,72 104,72 	"/>
	<polygon class="st10" points="176,72 180,72 180,68 180,64 176,64 176,68 	"/>
	<rect x="96" y="72" class="st10" width="4" height="4"/>
	<rect x="92" y="76" class="st10" width="4" height="4"/>
	<rect x="96" y="84" class="st10" width="4" height="4"/>
	<rect x="160" y="84" class="st10" width="4" height="4"/>
	<rect x="104" y="88" class="st10" width="4" height="4"/>
	<polygon class="st10" points="92,96 96,96 96,100 100,100 104,100 108,100 112,100 116,100 120,100 124,100 124,96 120,96 116,96 
		116,92 112,92 112,96 108,96 104,96 100,96 100,92 96,92 96,88 92,88 92,84 92,80 88,80 88,84 88,88 88,92 92,92 	"/>
	<rect x="124" y="92" class="st10" width="4" height="4"/>
	<polygon class="st10" points="160,92 160,96 156,96 156,100 156,104 160,104 164,104 164,100 164,96 168,96 168,92 172,92 172,88 
		172,84 176,84 176,80 176,76 172,76 172,80 168,80 168,84 168,88 164,88 164,92 	"/>
	<rect x="212" y="92" class="st10" width="4" height="4"/>
	<polygon class="st10" points="244,92 244,88 240,88 236,88 236,92 232,92 228,92 228,96 232,96 236,96 240,96 244,96 248,96 
		248,92 	"/>
	<polygon class="st10" points="148,100 152,100 152,96 152,92 148,92 144,92 144,96 148,96 	"/>
	<rect x="224" y="96" class="st10" width="4" height="4"/>
	<rect x="248" y="96" class="st10" width="4" height="4"/>
	<rect x="204" y="100" class="st10" width="4" height="4"/>
	<rect x="220" y="100" class="st10" width="4" height="4"/>
	<rect x="252" y="100" class="st10" width="4" height="4"/>
	<polygon class="st10" points="188,104 184,104 184,108 188,108 192,108 192,104 	"/>
	<polygon class="st10" points="212,104 212,108 208,108 208,112 204,112 204,116 200,116 196,116 192,116 192,112 188,112 184,112 
		180,112 180,116 184,116 184,120 188,120 188,124 192,124 192,128 196,128 200,128 200,124 204,124 208,124 208,120 212,120 
		212,116 216,116 216,112 220,112 220,108 220,104 216,104 	"/>
	<rect x="192" y="108" class="st10" width="4" height="4"/>
	<polygon class="st10" points="168,124 172,124 172,128 176,128 176,132 180,132 184,132 184,128 180,128 180,124 176,124 176,120 
		172,120 172,116 168,116 164,116 164,120 168,120 	"/>
	<rect x="108" y="124" class="st10" width="4" height="4"/>
	<rect x="104" y="132" class="st10" width="4" height="4"/>
	<rect x="172" y="132" class="st10" width="4" height="4"/>
	<rect x="96" y="140" class="st10" width="4" height="4"/>
	<polygon class="st10" points="104,140 104,144 108,144 112,144 112,140 116,140 116,136 120,136 120,132 124,132 124,128 120,128 
		120,124 116,124 116,128 112,128 112,132 112,136 108,136 108,140 	"/>
	<rect x="180" y="140" class="st10" width="4" height="4"/>
	<rect x="160" y="148" class="st10" width="4" height="4"/>
	<polygon class="st10" points="104,152 104,148 100,148 100,152 100,156 104,156 	"/>
	<rect x="192" y="152" class="st10" width="4" height="4"/>
	<rect x="96" y="156" class="st10" width="4" height="4"/>
	<polygon class="st10" points="96,164 96,160 92,160 88,160 88,164 92,164 	"/>
	<rect x="160" y="160" class="st10" width="4" height="4"/>
	<rect x="84" y="164" class="st10" width="4" height="4"/>
	<rect x="80" y="168" class="st10" width="4" height="4"/>
	<rect x="196" y="168" class="st10" width="4" height="4"/>
	<polygon class="st10" points="148,172 152,172 152,168 152,164 156,164 156,160 160,160 160,156 156,156 152,156 152,160 148,160 
		148,164 144,164 144,168 144,172 144,176 140,176 140,180 144,180 148,180 148,176 	"/>
	<polygon class="st10" points="152,180 156,180 156,176 160,176 160,172 156,172 152,172 152,176 	"/>
	<polygon class="st10" points="168,188 168,184 164,184 160,184 160,188 164,188 	"/>
	<rect x="156" y="188" class="st10" width="4" height="4"/>
	<polygon class="st10" points="148,192 148,188 152,188 152,184 152,180 148,180 148,184 144,184 140,184 140,188 140,192 144,192 
		144,196 148,196 	"/>
	<polygon class="st10" points="168,204 168,200 164,200 160,200 160,204 164,204 	"/>
	<polygon class="st10" points="208,204 204,204 204,200 200,200 200,196 200,192 200,188 196,188 196,184 196,180 192,180 192,176 
		192,172 188,172 188,168 188,164 188,160 184,160 184,156 184,152 180,152 180,148 176,148 176,144 172,144 172,140 168,140 
		168,136 168,132 168,128 168,124 164,124 164,120 160,120 156,120 152,120 152,124 156,124 156,128 156,132 160,132 160,136 
		160,140 164,140 164,144 168,144 168,148 172,148 172,152 176,152 176,156 180,156 180,160 180,164 184,164 184,168 184,172 
		184,176 188,176 188,180 188,184 188,188 188,192 192,192 192,196 192,200 196,200 196,204 200,204 200,208 204,208 204,212 
		208,212 212,212 212,208 208,208 	"/>
	<rect x="212" y="204" class="st10" width="4" height="4"/>
	<polygon class="st10" points="156,212 156,208 160,208 160,204 156,204 152,204 152,208 148,208 148,204 152,204 152,200 156,200 
		156,196 156,192 152,192 152,196 148,196 148,200 144,200 144,196 140,196 140,200 140,204 140,208 144,208 144,212 144,216 
		148,216 152,216 152,212 	"/>
	<rect x="172" y="208" class="st10" width="4" height="4"/>
	<rect x="168" y="212" class="st10" width="4" height="4"/>
	<polygon class="st10" points="176,228 176,224 172,224 168,224 168,228 172,228 	"/>
	<polygon class="st10" points="164,232 168,232 168,228 164,228 160,228 160,232 	"/>
	<rect x="176" y="232" class="st10" width="4" height="4"/>
	<polygon class="st10" points="172,240 168,240 168,244 168,248 172,248 172,244 176,244 176,240 176,236 172,236 	"/>
	<rect x="160" y="248" class="st10" width="4" height="4"/>
	<polygon class="st10" points="32,256 36,256 40,256 44,256 44,252 40,252 40,248 36,248 32,248 32,252 	"/>
	<rect x="176" y="252" class="st10" width="4" height="4"/>
	<polygon class="st10" points="32,256 28,256 28,252 28,248 32,248 32,244 28,244 24,244 24,248 24,252 24,256 20,256 20,252 
		16,252 12,252 12,256 12,260 16,260 16,264 12,264 12,260 8,260 8,264 8,268 8,272 12,272 16,272 16,268 20,268 20,264 20,260 
		24,260 28,260 32,260 	"/>
	<rect x="44" y="256" class="st10" width="4" height="4"/>
	<rect x="172" y="256" class="st10" width="4" height="4"/>
	<rect x="156" y="260" class="st10" width="4" height="4"/>
	<polygon class="st10" points="164,260 164,264 168,264 172,264 172,260 168,260 	"/>
	<rect x="56" y="264" class="st10" width="4" height="4"/>
	<polygon class="st10" points="68,268 64,268 64,272 64,276 68,276 68,272 	"/>
	<polygon class="st10" points="16,276 12,276 12,280 12,284 16,284 16,280 	"/>
	<rect x="68" y="276" class="st10" width="4" height="4"/>
	<polygon class="st10" points="128,280 132,280 136,280 136,276 140,276 140,272 144,272 144,276 148,276 148,272 152,272 152,268 
		156,268 156,264 152,264 152,260 152,256 156,256 156,252 156,248 156,244 160,244 164,244 164,240 160,240 156,240 156,236 
		160,236 160,232 156,232 152,232 152,228 156,228 160,228 160,224 160,220 164,220 164,216 160,216 156,216 152,216 152,220 
		148,220 144,220 144,224 144,228 144,232 144,236 148,236 148,240 152,240 152,244 148,244 144,244 140,244 140,248 136,248 
		136,252 136,256 140,256 140,260 144,260 148,260 148,264 144,264 140,264 140,260 136,260 136,256 132,256 132,260 132,264 
		132,268 136,268 136,272 132,272 132,268 128,268 128,272 124,272 124,276 128,276 	"/>
	<rect x="140" y="276" class="st10" width="4" height="4"/>
	<polygon class="st10" points="164,276 160,276 160,280 164,280 168,280 172,280 172,276 168,276 	"/>
	<polygon class="st10" points="152,280 148,280 148,284 152,284 156,284 160,284 160,280 156,280 	"/>
	<polygon class="st10" points="120,288 124,288 128,288 128,284 128,280 124,280 124,276 120,276 116,276 116,280 116,284 120,284 	
		"/>
	<polygon class="st10" points="24,288 20,288 20,284 16,284 16,288 16,292 20,292 24,292 	"/>
	<polygon class="st10" points="112,292 116,292 116,288 116,284 112,284 112,280 108,280 108,284 104,284 100,284 96,284 92,284 
		88,284 84,284 80,284 80,280 76,280 72,280 72,284 76,284 76,288 80,288 84,288 88,288 92,288 96,288 96,292 100,292 104,292 
		108,292 108,288 112,288 	"/>
	<rect x="164" y="288" class="st10" width="4" height="4"/>
	<polygon class="st10" points="156,292 152,292 152,296 156,296 160,296 164,296 164,292 160,292 	"/>
	<rect x="24" y="296" class="st10" width="4" height="4"/>
	<polygon class="st10" points="144,296 140,296 140,300 144,300 148,300 152,300 152,296 148,296 	"/>
	<rect x="32" y="304" class="st10" width="4" height="4"/>
	<rect x="140" y="304" class="st10" width="4" height="4"/>
	<rect x="36" y="308" class="st10" width="4" height="4"/>
	<rect x="132" y="308" class="st10" width="4" height="4"/>
	<polygon class="st10" points="148,308 144,308 144,312 148,312 148,316 152,316 152,312 156,312 156,308 152,308 	"/>
	<polygon class="st10" points="48,316 44,316 40,316 40,320 44,320 48,320 52,320 52,316 	"/>
	<polygon class="st10" points="140,316 140,312 136,312 136,316 136,320 132,320 128,320 128,324 124,324 124,320 120,320 120,324 
		116,324 112,324 112,328 112,332 116,332 120,332 124,332 124,328 128,328 128,332 132,332 132,328 136,328 136,324 140,324 
		144,324 144,320 148,320 148,316 144,316 	"/>
	<polygon class="st10" points="60,320 56,320 52,320 52,324 52,328 56,328 60,328 60,324 64,324 64,320 	"/>
	<polygon class="st10" points="64,324 64,328 68,328 72,328 72,324 68,324 	"/>
	<polygon class="st10" points="100,324 100,328 96,328 96,332 100,332 104,332 108,332 108,328 108,324 104,324 	"/>
	<rect x="76" y="328" class="st10" width="4" height="4"/>
	<polygon class="st10" points="84,328 84,332 88,332 92,332 92,328 88,328 	"/>
</g>
<g>
	<rect x="260" y="108" class="st11" width="4" height="4"/>
	<polygon class="st11" points="160,172 160,176 156,176 156,180 160,180 160,184 164,184 168,184 168,180 168,176 168,172 164,172 
		164,168 164,164 160,164 160,160 156,160 156,164 152,164 152,168 152,172 156,172 	"/>
	<rect x="76" y="172" class="st11" width="4" height="4"/>
	<polygon class="st11" points="168,208 172,208 176,208 176,204 172,204 172,200 172,196 172,192 168,192 168,188 164,188 160,188 
		160,192 164,192 164,196 168,196 168,200 168,204 164,204 160,204 160,208 164,208 	"/>
	<rect x="156" y="208" class="st11" width="4" height="4"/>
	<polygon class="st11" points="172,216 168,216 168,220 172,220 176,220 176,216 176,212 172,212 	"/>
	<polygon class="st11" points="172,228 172,232 176,232 180,232 180,228 176,228 	"/>
	<polygon class="st11" points="164,232 164,236 168,236 172,236 172,232 168,232 	"/>
	<polygon class="st11" points="176,240 176,244 172,244 172,248 176,248 176,252 180,252 180,248 180,244 180,240 180,236 176,236 	
		"/>
	<rect x="24" y="240" class="st11" width="4" height="4"/>
	<rect x="12" y="244" class="st11" width="4" height="4"/>
	<polygon class="st11" points="36,244 36,240 32,240 32,244 32,248 36,248 	"/>
	<polygon class="st11" points="48,244 48,240 44,240 44,244 44,248 48,248 	"/>
	<polygon class="st11" points="60,248 60,244 56,244 56,248 56,252 60,252 	"/>
	<rect x="164" y="248" class="st11" width="4" height="4"/>
	<rect x="4" y="252" class="st11" width="4" height="4"/>
	<polygon class="st11" points="24,252 24,248 20,248 20,252 20,256 24,256 	"/>
	<rect x="52" y="252" class="st11" width="4" height="4"/>
	<rect x="64" y="252" class="st11" width="4" height="4"/>
	<rect x="8" y="256" class="st11" width="4" height="4"/>
	<rect x="48" y="256" class="st11" width="4" height="4"/>
	<rect x="60" y="256" class="st11" width="4" height="4"/>
	<rect x="80" y="256" class="st11" width="4" height="4"/>
	<polygon class="st11" points="176,260 172,260 172,264 176,264 180,264 180,260 180,256 176,256 	"/>
	<rect x="36" y="260" class="st11" width="4" height="4"/>
	<rect x="56" y="260" class="st11" width="4" height="4"/>
	<polygon class="st11" points="68,264 68,268 72,268 72,264 72,260 68,260 	"/>
	<rect x="76" y="260" class="st11" width="4" height="4"/>
	<rect x="88" y="264" class="st11" width="4" height="4"/>
	<polygon class="st11" points="160,264 160,268 164,268 168,268 168,264 164,264 	"/>
	<rect x="28" y="268" class="st11" width="4" height="4"/>
	<rect x="152" y="268" class="st11" width="4" height="4"/>
	<polygon class="st11" points="16,272 12,272 8,272 8,276 12,276 16,276 	"/>
	<polygon class="st11" points="148,276 144,276 144,280 140,280 136,280 136,284 132,284 132,288 132,292 136,292 136,296 140,296 
		144,296 144,292 144,288 148,288 148,284 148,280 152,280 152,276 152,272 148,272 	"/>
	<rect x="48" y="276" class="st11" width="4" height="4"/>
	<rect x="56" y="276" class="st11" width="4" height="4"/>
	<rect x="16" y="280" class="st11" width="4" height="4"/>
	<rect x="32" y="280" class="st11" width="4" height="4"/>
	<rect x="8" y="284" class="st11" width="4" height="4"/>
	<rect x="24" y="288" class="st11" width="4" height="4"/>
	<rect x="20" y="292" class="st11" width="4" height="4"/>
	<rect x="36" y="292" class="st11" width="4" height="4"/>
	<polygon class="st11" points="132,292 128,292 124,292 120,292 120,296 124,296 124,300 128,300 128,304 132,304 136,304 140,304 
		140,300 136,300 136,296 132,296 	"/>
	<rect x="28" y="300" class="st11" width="4" height="4"/>
	<rect x="40" y="300" class="st11" width="4" height="4"/>
	<polygon class="st11" points="124,300 120,300 120,296 116,296 116,292 112,292 108,292 104,292 104,296 100,296 96,296 92,296 
		88,296 84,296 80,296 80,292 76,292 72,292 72,288 68,288 64,288 64,284 60,284 56,284 56,288 52,288 52,292 48,292 48,296 48,300 
		52,300 52,304 52,308 56,308 56,312 60,312 60,308 64,308 64,304 68,304 68,300 72,300 72,304 68,304 68,308 64,308 64,312 64,316 
		64,320 68,320 72,320 72,316 76,316 76,312 76,308 80,308 80,304 84,304 84,308 80,308 80,312 80,316 76,316 76,320 76,324 80,324 
		80,320 84,320 84,316 88,316 88,320 88,324 92,324 92,320 96,320 96,316 100,316 100,320 104,320 104,316 104,312 104,308 100,308 
		100,304 100,300 104,300 104,304 104,308 108,308 108,312 108,316 112,316 116,316 116,312 120,312 120,308 116,308 116,304 
		120,304 120,308 124,308 128,308 128,304 124,304 	"/>
	<rect x="24" y="304" class="st11" width="4" height="4"/>
	<rect x="44" y="304" class="st11" width="4" height="4"/>
	<rect x="20" y="308" class="st11" width="4" height="4"/>
	<polygon class="st11" points="44,316 44,312 40,312 36,312 36,316 40,316 	"/>
	<rect x="32" y="316" class="st11" width="4" height="4"/>
	<rect x="52" y="316" class="st11" width="4" height="4"/>
	<rect x="48" y="320" class="st11" width="4" height="4"/>
	<rect x="104" y="320" class="st11" width="4" height="4"/>
	<rect x="144" y="320" class="st11" width="4" height="4"/>
	<polygon class="st11" points="40,324 40,328 44,328 48,328 48,324 44,324 	"/>
	<rect x="92" y="324" class="st11" width="4" height="4"/>
	<rect x="108" y="324" class="st11" width="4" height="4"/>
	<rect x="148" y="324" class="st11" width="4" height="4"/>
	<rect x="60" y="328" class="st11" width="4" height="4"/>
	<rect x="72" y="328" class="st11" width="4" height="4"/>
	<rect x="136" y="328" class="st11" width="4" height="4"/>
	<polygon class="st11" points="52,332 52,336 56,336 60,336 60,332 56,332 	"/>
	<rect x="68" y="332" class="st11" width="4" height="4"/>
	<rect x="80" y="332" class="st11" width="4" height="4"/>
	<rect x="92" y="332" class="st11" width="4" height="4"/>
	<rect x="108" y="332" class="st11" width="4" height="4"/>
	<rect x="124" y="332" class="st11" width="4" height="4"/>
	<rect x="88" y="336" class="st11" width="4" height="4"/>
	<rect x="120" y="336" class="st11" width="4" height="4"/>
</g>
<g>
	<polygon class="st12" points="144,0 144,4 148,4 152,4 152,0 148,0 	"/>
	<rect x="108" y="52" class="st12" width="4" height="4"/>
	<rect x="260" y="104" class="st12" width="4" height="4"/>
	<rect x="220" y="196" class="st12" width="4" height="4"/>
	<rect x="36" y="224" class="st12" width="4" height="4"/>
	<rect x="16" y="232" class="st12" width="4" height="4"/>
	<polygon class="st12" points="28,236 28,232 24,232 24,236 24,240 28,240 	"/>
	<polygon class="st12" points="36,236 36,232 36,228 32,228 32,232 32,236 32,240 36,240 	"/>
	<rect x="44" y="236" class="st12" width="4" height="4"/>
	<polygon class="st12" points="16,240 16,236 12,236 12,240 12,244 16,244 	"/>
	<rect x="20" y="244" class="st12" width="4" height="4"/>
	<rect x="4" y="248" class="st12" width="4" height="4"/>
	<polygon class="st12" points="32,248 28,248 28,252 28,256 32,256 32,252 	"/>
	<rect x="32" y="256" class="st12" width="4" height="4"/>
	<rect x="20" y="260" class="st12" width="4" height="4"/>
	<rect y="264" class="st12" width="4" height="4"/>
	<rect x="24" y="264" class="st12" width="4" height="4"/>
	<rect x="4" y="268" class="st12" width="4" height="4"/>
	<polygon class="st12" points="44,268 44,264 40,264 40,268 40,272 44,272 	"/>
	<rect x="60" y="268" class="st12" width="4" height="4"/>
	<rect x="20" y="272" class="st12" width="4" height="4"/>
	<rect x="44" y="272" class="st12" width="4" height="4"/>
	<rect x="56" y="272" class="st12" width="4" height="4"/>
	<polygon class="st12" points="28,280 32,280 32,276 28,276 24,276 24,280 	"/>
	<rect y="280" class="st12" width="4" height="4"/>
	<rect x="44" y="280" class="st12" width="4" height="4"/>
	<rect x="4" y="284" class="st12" width="4" height="4"/>
	<rect x="48" y="284" class="st12" width="4" height="4"/>
	<rect x="32" y="292" class="st12" width="4" height="4"/>
	<rect x="16" y="296" class="st12" width="4" height="4"/>
	<rect x="36" y="300" class="st12" width="4" height="4"/>
	<rect x="16" y="308" class="st12" width="4" height="4"/>
	<rect x="28" y="316" class="st12" width="4" height="4"/>
	<rect x="36" y="328" class="st12" width="4" height="4"/>
	<rect x="148" y="328" class="st12" width="4" height="4"/>
	<rect x="132" y="332" class="st12" width="4" height="4"/>
	<rect x="48" y="336" class="st12" width="4" height="4"/>
	<rect x="64" y="336" class="st12" width="4" height="4"/>
	<rect x="104" y="336" class="st12" width="4" height="4"/>
	<rect x="84" y="340" class="st12" width="4" height="4"/>
	<rect x="116" y="340" class="st12" width="4" height="4"/>
</g>
</svg>
