<?xml version="1.0" encoding="utf-8"?>
<!-- Generator: Adobe Illustrator 24.2.0, SVG Export Plug-In . SVG Version: 6.00 Build 0)  -->
<svg version="1.1" id="圖層_1" shape-rendering="crispEdges"
	 xmlns="http://www.w3.org/2000/svg" xmlns:xlink="http://www.w3.org/1999/xlink" x="0px" y="0px" viewBox="0 0 2608 800"
	 style="enable-background:new 0 0 2608 800;" xml:space="preserve">
<style type="text/css">
	.st0{opacity:0.8667;fill:#FAD1A0;enable-background:new    ;}
	.st1{opacity:0.8667;fill:#CA9453;enable-background:new    ;}
	.st2{opacity:0.8667;fill:#CA8553;enable-background:new    ;}
	.st3{opacity:0.8667;fill:#CA9153;enable-background:new    ;}
	.st4{opacity:0.8667;fill:#CA8853;enable-background:new    ;}
	.st5{opacity:0.5137;fill:#FFD8AA;enable-background:new    ;}
	.st6{opacity:0.5137;fill:#FFC98A;enable-background:new    ;}
	.st7{opacity:0.5137;fill:#CA8553;enable-background:new    ;}
	.st8{opacity:0.5137;fill:#E5AF70;enable-background:new    ;}
	.st9{opacity:0.5137;fill:#CA9453;enable-background:new    ;}
</style>
<rect x="1640" y="532" class="st0" width="4" height="4"/>
<rect x="940" y="608" class="st1" width="4" height="4"/>
<rect x="932" y="616" class="st2" width="4" height="4"/>
<rect x="924" y="620" class="st3" width="4" height="4"/>
<rect x="912" y="628" class="st4" width="4" height="4"/>
<rect x="900" y="636" class="st3" width="4" height="4"/>
<rect x="896" y="640" class="st3" width="4" height="4"/>
<rect x="872" y="652" class="st3" width="4" height="4"/>
<rect x="864" y="656" class="st1" width="4" height="4"/>
<rect x="852" y="660" class="st1" width="4" height="4"/>
<g>
	<rect x="1936" y="456" class="st5" width="4" height="4"/>
	<rect x="1940" y="456" class="st5" width="4" height="4"/>
	<rect x="1944" y="456" class="st5" width="4" height="4"/>
	<g>
		<path class="st6" d="M1908,440h-4v-4v-4v-4h-4h-4h-4v-4h-4h-4h-4h-4h-4v-4h-4h-4h-4h-4h-4h-4h-4h-4h-4h-4v4h-4h-4h-4h-4v4h4v4h-4
			v-4h-4h-4h-4h-4v4h-4h-4h-4h-4v4h-4h-4h-4v4h-4h-4h-4h-4v4h-4h-4h-4v4h-4h-4h-4v4h-4h-4v4h-4h-4h-4v4h-4h-4v4h-4h-4v4h-4h-4v4h-4
			h-4h-4v4h4v4h-4v-4h-4v4h-4h-4h-4v4h-4h-4h-4h-4h-4h-4h-4h-4h-4h-4h-4h-4h-4h-4h-4h-4h-4h-4v4h-4h-4h-4h-4h-4h-4v4h-4h-4h-4h-4h-4
			h-4v4h-4h-4v4h-4h-4v4h-4h-4h-4v4h-4h-4v4h-4h-4h-4v4h4v4h-4v-4h-4h-4v4h-4h-4h-4v4h-4h-4h-4v4h-4h-4h-4h-4v4h-4h-4h-4h-4h-4h-4
			h-4v4h-4h-4h-4h-4h-4h-4h-4h-4h-4v4h4h4h4h4h4h4v4h4h4h4v-4h4v-4h4h4h4h4v4h4h4v-4h4h4h4v4h4v-4h4v-4h4v4h4v-4h4v4h4v-4h4v-4h-4
			v-4h4v4h4v4v4h4v-4h4h4v-4h4v-4h-4v-4h4v4h4v4h-4v4h4h4v-4h4h4v-4h4h4h4v-4h4h4v4h4h4v-4h4h4h4h4v-4h-4h-4h-4v-4h4h4h4v4h4h4v4h4
			h4v-4h4h4v-4h4v4h4v4h4h4h4v-4h4h4v4h4h4v-4h4v4h4h4v4h4h4v4h4h4h4v4h4v-4v-4h4h4h4v4h4v-4h4v-4h-4h-4v-4h4h4v4h4h4h4h4v-4h-4v-4
			h4v4h4h4v-4h4v4h4v-4h4h4v-4h4h4h4h4h4h4h4v4h4v-4h4v4h4h4v-4h4v4h4h4v4h-4h-4v4h4h4h4h4v-4h4h4h4v-4h4h4v4h-4v4h4h4h4v-4h4h4h4h4
			h4v-4h-4v-4h4v4h4h4v-4h-4v-4h-4h-4h-4v4h-4v-4h-4h-4h-4v4h4v4h-4v-4h-4h-4h-4h-4h-4v4h-4v-4h-4h-4v-4h-4h-4h-4h-4v-4h4h4h4v-4v-4
			h-4v4h-4h-4h-4h-4h-4v-4h-4h-4v-4h4h4v-4h-4v-4h4h4v-4v-4h4h4v-4h-4h-4v-4h-4v4h-4h-4v-4h4v-4h-4h-4v4h-4v-4v-4h4h4h4v-4h4v-4h4h4
			v4h-4v4h4v4h4h4h4v-4h-4h-4v-4h4h4v4h4h4v-4h-4v-4h4v4h4h4v4h4h4h4v-4h-4h-4v-4h-4v-4h4v4h4v-4h4h4v4h4h4h4v-4h4h4h4h4v-4h4h4v-4
			h4h4v4h-4v4h4h4v-4h4h4h4v-4h4h4h4v4h4v4h4h4h4v-4h4h4v4h4h4h4h4v-4v-4h-4V440z M1520,512h4v4h-4V512z M1708,468h4v4h-4V468z
			 M1640,504h4v4h-4V504z M1604,500h4h4v4h-4h-4V500z M1632,504h4v4h-4V504z M1700,500h4v4h-4V500z M1708,500h4v4h-4V500z M1724,468
			h-4h-4v-4h4h4V468z M1696,472v4h-4v-4H1696z M1680,484v4h-4v-4H1680z M1648,488h4h4v4h-4h-4h-4v-4H1648z M1544,512v-4h4v4H1544z
			 M1564,504h4v4h-4V504z M1740,476h-4v-4h4V476z M1852,436v-4h4v4H1852z"/>
		<rect x="1868" y="440" class="st6" width="4" height="4"/>
		<polygon class="st6" points="1920,440 1916,440 1916,444 1920,444 1924,444 1924,440 		"/>
		<rect x="1856" y="444" class="st6" width="4" height="4"/>
		<polygon class="st6" points="1972,444 1968,444 1964,444 1960,444 1956,444 1952,444 1948,444 1944,444 1940,444 1936,444 
			1932,444 1928,444 1924,444 1924,448 1928,448 1932,448 1936,448 1940,448 1944,448 1948,448 1952,448 1956,448 1960,448 
			1964,448 1968,448 1972,448 1976,448 1976,444 		"/>
		<rect x="1796" y="448" class="st6" width="4" height="4"/>
		<rect x="1816" y="448" class="st6" width="4" height="4"/>
		<polygon class="st6" points="1752,460 1752,456 1748,456 1744,456 1744,460 1748,460 		"/>
		<rect x="1780" y="456" class="st6" width="4" height="4"/>
		<rect x="1752" y="460" class="st6" width="4" height="4"/>
		<rect x="1756" y="476" class="st6" width="4" height="4"/>
		<rect x="1780" y="476" class="st6" width="4" height="4"/>
		<polygon class="st6" points="1768,488 1772,488 1776,488 1780,488 1780,484 1776,484 1772,484 1768,484 1764,484 1760,484 
			1760,488 1764,488 		"/>
		<rect x="1800" y="484" class="st6" width="4" height="4"/>
		<polygon class="st6" points="1752,492 1756,492 1760,492 1760,488 1756,488 1752,488 1748,488 1748,492 		"/>
		<rect x="1796" y="488" class="st6" width="4" height="4"/>
		<rect x="1824" y="488" class="st6" width="4" height="4"/>
		<polygon class="st6" points="1800,500 1804,500 1804,496 1804,492 1800,492 1800,496 1796,496 1796,492 1792,492 1792,496 
			1792,500 1796,500 		"/>
		<rect x="1824" y="496" class="st6" width="4" height="4"/>
		<polygon class="st6" points="1784,504 1788,504 1792,504 1792,500 1788,500 1784,500 1780,500 1776,500 1776,504 1780,504 		"/>
		<rect x="1820" y="500" class="st6" width="4" height="4"/>
		<rect x="1836" y="500" class="st6" width="4" height="4"/>
		<rect x="1752" y="516" class="st6" width="4" height="4"/>
		<polygon class="st6" points="1564,520 1564,524 1568,524 1572,524 1572,520 1568,520 		"/>
		<rect x="1624" y="520" class="st6" width="4" height="4"/>
		<rect x="1536" y="524" class="st6" width="4" height="4"/>
		<polygon class="st6" points="1556,524 1556,528 1560,528 1564,528 1564,524 1560,524 		"/>
		<rect x="1524" y="528" class="st6" width="4" height="4"/>
		<polygon class="st6" points="1684,528 1680,528 1680,532 1684,532 1688,532 1692,532 1692,528 1688,528 		"/>
		<polygon class="st6" points="1516,532 1516,536 1520,536 1524,536 1524,532 1520,532 		"/>
		<polygon class="st6" points="1276,536 1272,536 1268,536 1264,536 1260,536 1256,536 1252,536 1248,536 1244,536 1240,536 
			1240,540 1244,540 1248,540 1252,540 1256,540 1260,540 1264,540 1268,540 1272,540 1276,540 1280,540 1280,536 		"/>
		<rect x="1484" y="536" class="st6" width="4" height="4"/>
		<rect x="1512" y="536" class="st6" width="4" height="4"/>
		<path class="st6" d="M1232,540h-4h-4h-4h-4h-4h-4h-4h-4h-4h-4h-4v4h-4h-4h-4h-4h-4h-4h-4h-4h-4h-4h-4h-4h-4v4h4v4h-4v-4h-4h-4h-4
			h-4v4h4v4h-4v-4h-4h-4h-4h-4h-4h-4h-4h-4v4h4h4h4v4h4h4h4h4v4h4h4h4v4h4h4v4h4h4v4h4h4v4h4h4v4h4h4h4h4v4h4v-4h4v-4h4v-4h-4v-4h4
			v-4h4h4v-4h-4h-4h-4v-4h4h4v-4h-4v-4h4v4h4h4h4h4v-4h4h4h4h4h4v-4h4h4h4h4v-4h-4v-4h-4H1232z M1140,560h4h4v4h-4h-4V560z
			 M1164,548h4h4v4h-4h-4h-4v-4H1164z M1180,576h-4h-4v-4h4h4V576z M1180,568h-4v-4h4V568z M1220,548h-4v-4h4h4v4H1220z"/>
		<polygon class="st6" points="1372,540 1368,540 1364,540 1360,540 1356,540 1352,540 1348,540 1344,540 1340,540 1336,540 
			1332,540 1328,540 1324,540 1320,540 1316,540 1312,540 1308,540 1304,540 1300,540 1296,540 1292,540 1288,540 1284,540 
			1280,540 1280,544 1284,544 1288,544 1292,544 1296,544 1300,544 1304,544 1308,544 1312,544 1316,544 1320,544 1324,544 
			1328,544 1332,544 1336,544 1340,544 1344,544 1348,544 1352,544 1356,544 1360,544 1364,544 1368,544 1372,544 1376,544 
			1380,544 1380,540 1376,540 		"/>
		<polygon class="st6" points="1428,540 1428,544 1432,544 1436,544 1436,540 1432,540 		"/>
		<polygon class="st6" points="1448,540 1444,540 1444,544 1448,544 1452,544 1456,544 1456,540 1452,540 		"/>
		<polygon class="st6" points="1476,540 1476,544 1480,544 1484,544 1484,540 1480,540 		"/>
		<polygon class="st6" points="1396,544 1392,544 1392,548 1396,548 1400,548 1404,548 1404,544 1400,544 		"/>
		<path class="st6" d="M196,548h-4h-4h-4v4h-4h-4h-4h-4h-4h-4h-4h-4h-4h-4h-4h-4h-4h-4h-4h-4h-4h-4h-4h-4h-4h-4h-4h-4h-4h-4h-4h-4
			h-4h-4h-4v4v4h4v-4h4v4h-4v4h4v4h4v-4h4h4v-4h-4v-4h4v4h4v-4h4v4h4v4h4v4v4h4v-4h4v-4h4v-4h4v-4h4v4h-4v4h-4v4v4h4v-4h4v-4h4h4h4
			v4h4h4h4v-4h4v-4h4v4h4v4h4v-4h4h4v-4h-4v-4h4v4h4v-4h4v4h4v-4h4v4h4v-4h4v-4h4v4v4h4v-4v-4h4h4v-4h-4H196z M100,560v-4h4v4H100z
			 M120,560v-4h4v4H120z M128,556h4v4h-4V556z"/>
		<rect x="248" y="548" class="st6" width="4" height="4"/>
		<path class="st6" d="M324,552v4h4v-4h4h4h4v4h4h4h4h4h4v4h4v4h4v-4h4v-4h4h4v4h4v-4h4h4h4h4h4h4h4h4h4h4h4h4h4h4v-4h-4h-4h-4h-4
			h-4h-4h-4h-4h-4h-4h-4h-4h-4h-4h-4h-4h-4v-4h-4h-4h-4h-4h-4h-4h-4v-4h-4h-4h-4h-4h-4h-4h-4h-4h-4v-4h-4h-4h-4h-4h-4h-4h-4h-4v4h-4
			h-4h-4h-4h-4v-4h-4h-4h-4h-4h-4h-4h-4h-4h-4v4h-4h-4h-4h-4v4h4v4h4v-4h4h4h4v-4h4h4h4h4h4h4h4v4h4h4v4h4h4v-4h4v4h-4v4v4h4v-4h4
			v-4h4v4v4h-4v4h4h4v-4v-4h4v-4h-4v-4h-4v-4h4v4h4v4h4v4v4h4v-4h4v-4h4v-4h4v4h4v-4h4v4v4h4v-4H324z M292,544h4v4h-4V544z"/>
		<polygon class="st6" points="56,552 60,552 60,548 56,548 52,548 48,548 44,548 40,548 36,548 32,548 28,548 24,548 20,548 
			16,548 12,548 8,548 4,548 4,552 0,552 0,556 0,560 0,564 4,564 4,560 8,560 8,564 12,564 12,560 16,560 16,556 12,556 12,552 
			16,552 16,556 20,556 20,552 24,552 28,552 28,556 24,556 24,560 28,560 32,560 32,556 36,556 36,560 40,560 40,556 44,556 
			44,552 48,552 52,552 52,556 48,556 44,556 44,560 48,560 52,560 56,560 56,556 		"/>
		<rect x="244" y="552" class="st6" width="4" height="4"/>
		<rect x="256" y="552" class="st6" width="4" height="4"/>
		<rect x="304" y="552" class="st6" width="4" height="4"/>
		<rect x="252" y="556" class="st6" width="4" height="4"/>
		<polygon class="st6" points="304,556 300,556 300,560 300,564 304,564 304,560 		"/>
		<polygon class="st6" points="308,556 308,560 308,564 312,564 312,560 316,560 316,556 312,556 		"/>
		<rect x="336" y="556" class="st6" width="4" height="4"/>
		<polygon class="st6" points="444,560 448,560 452,560 456,560 460,560 464,560 468,560 472,560 476,560 480,560 480,556 476,556 
			472,556 468,556 464,556 460,556 456,556 452,556 448,556 444,556 440,556 440,560 		"/>
		<rect x="32" y="560" class="st6" width="4" height="4"/>
		<rect x="40" y="560" class="st6" width="4" height="4"/>
		<rect x="56" y="560" class="st6" width="4" height="4"/>
		<rect x="84" y="560" class="st6" width="4" height="4"/>
		<rect x="168" y="560" class="st6" width="4" height="4"/>
		<polygon class="st6" points="176,564 176,568 180,568 180,564 180,560 176,560 		"/>
		<polygon class="st6" points="288,564 288,568 292,568 292,564 292,560 288,560 		"/>
		<polygon class="st6" points="324,560 324,556 320,556 320,560 320,564 324,564 		"/>
		<polygon class="st6" points="352,560 348,560 348,564 352,564 356,564 360,564 360,560 356,560 		"/>
		<polygon class="st6" points="484,564 488,564 492,564 496,564 496,560 492,560 488,560 484,560 480,560 480,564 		"/>
		<polygon class="st6" points="676,560 672,560 668,560 664,560 660,560 656,560 652,560 648,560 644,560 640,560 636,560 632,560 
			628,560 624,560 624,564 628,564 632,564 636,564 640,564 644,564 648,564 652,564 656,564 660,564 664,564 668,564 672,564 
			676,564 680,564 680,560 		"/>
		<rect x="28" y="564" class="st6" width="4" height="4"/>
		<polygon class="st6" points="48,564 48,568 52,568 56,568 56,564 52,564 		"/>
		<rect x="80" y="564" class="st6" width="4" height="4"/>
		<rect x="144" y="564" class="st6" width="4" height="4"/>
		<rect x="164" y="564" class="st6" width="4" height="4"/>
		<rect x="304" y="564" class="st6" width="4" height="4"/>
		<rect x="316" y="564" class="st6" width="4" height="4"/>
		<polygon class="st6" points="372,568 376,568 376,564 372,564 368,564 368,568 		"/>
		<rect x="380" y="564" class="st6" width="4" height="4"/>
		<rect x="496" y="564" class="st6" width="4" height="4"/>
		<polygon class="st6" points="616,564 612,564 608,564 608,568 612,568 616,568 620,568 624,568 624,564 620,564 		"/>
		<polygon class="st6" points="692,564 688,564 684,564 680,564 680,568 684,568 688,568 692,568 696,568 696,564 		"/>
		<polygon class="st6" points="1044,564 1040,564 1036,564 1032,564 1028,564 1024,564 1024,568 1020,568 1016,568 1012,568 
			1008,568 1004,568 1004,572 1008,572 1012,572 1016,572 1020,572 1024,572 1028,572 1032,572 1036,572 1036,568 1040,568 
			1044,568 1048,568 1052,568 1052,564 1048,564 		"/>
		<polygon class="st6" points="20,568 20,572 24,572 28,572 28,568 24,568 		"/>
		<rect x="44" y="568" class="st6" width="4" height="4"/>
		<rect x="124" y="568" class="st6" width="4" height="4"/>
		<rect x="172" y="568" class="st6" width="4" height="4"/>
		<rect x="284" y="568" class="st6" width="4" height="4"/>
		<polygon class="st6" points="508,568 504,568 504,572 508,572 512,572 512,568 		"/>
		<polygon class="st6" points="600,568 596,568 592,568 588,568 588,572 592,572 596,572 600,572 604,572 608,572 608,568 604,568 
					"/>
		<polygon class="st6" points="704,568 700,568 696,568 696,572 700,572 704,572 708,572 708,568 		"/>
		<rect x="104" y="572" class="st6" width="4" height="4"/>
		<polygon class="st6" points="324,576 324,572 328,572 332,572 336,572 340,572 344,572 348,572 352,572 356,572 360,572 360,568 
			356,568 352,568 348,568 348,564 344,564 340,564 336,564 332,564 332,568 328,568 324,568 320,568 320,572 316,572 316,576 
			320,576 		"/>
		<polygon class="st6" points="580,572 576,572 572,572 572,576 576,576 580,576 584,576 588,576 588,572 584,572 		"/>
		<polygon class="st6" points="716,572 712,572 708,572 708,576 712,576 716,576 720,576 720,572 		"/>
		<polygon class="st6" points="996,572 992,572 988,572 984,572 980,572 976,572 972,572 968,572 968,576 972,576 976,576 980,576 
			984,576 988,576 992,576 996,576 1000,576 1004,576 1004,572 1000,572 		"/>
		<polygon class="st6" points="1192,576 1196,576 1196,572 1192,572 1188,572 1188,576 		"/>
		<polygon class="st6" points="328,580 332,580 332,576 328,576 324,576 324,580 		"/>
		<rect x="344" y="576" class="st6" width="4" height="4"/>
		<polygon class="st6" points="564,576 560,576 556,576 552,576 548,576 544,576 540,576 536,576 536,572 532,572 528,572 524,572 
			520,572 516,572 512,572 512,576 516,576 520,576 524,576 528,576 528,580 532,580 536,580 540,580 544,580 548,580 552,580 
			556,580 560,580 564,580 568,580 572,580 572,576 568,576 		"/>
		<polygon class="st6" points="732,576 728,576 724,576 720,576 720,580 724,580 728,580 732,580 736,580 736,576 		"/>
		<polygon class="st6" points="960,576 956,576 952,576 948,576 944,576 940,576 936,576 932,576 928,576 924,576 920,576 916,576 
			912,576 908,576 904,576 900,576 900,580 904,580 908,580 912,580 916,580 920,580 924,580 928,580 932,580 936,580 940,580 
			944,580 948,580 952,580 956,580 960,580 964,580 968,580 968,576 964,576 		"/>
		<polygon class="st6" points="760,580 756,580 752,580 748,580 744,580 740,580 736,580 736,584 740,584 744,584 748,584 752,584 
			756,584 760,584 764,584 764,580 		"/>
		<polygon class="st6" points="892,580 888,580 884,580 880,580 876,580 872,580 868,580 864,580 860,580 856,580 852,580 848,580 
			848,584 852,584 856,584 860,584 864,584 868,584 872,584 876,584 880,584 884,584 888,584 892,584 896,584 900,584 900,580 
			896,580 		"/>
		<polygon class="st6" points="244,584 240,584 236,584 232,584 228,584 224,584 220,584 216,584 212,584 208,584 204,584 200,584 
			196,584 192,584 188,584 188,588 192,588 192,592 196,592 200,592 200,588 204,588 208,588 212,588 216,588 220,588 224,588 
			228,588 232,588 236,588 240,588 244,588 248,588 248,584 		"/>
		<rect x="336" y="584" class="st6" width="4" height="4"/>
		<polygon class="st6" points="840,584 836,584 832,584 828,584 824,584 820,584 816,584 812,584 808,584 804,584 800,584 796,584 
			792,584 788,584 784,584 780,584 776,584 772,584 768,584 764,584 764,588 768,588 772,588 776,588 780,588 784,588 788,588 
			792,588 796,588 800,588 804,588 808,588 812,588 816,588 820,588 824,588 828,588 832,588 836,588 840,588 844,588 848,588 
			848,584 844,584 		"/>
		<rect x="1128" y="584" class="st6" width="4" height="4"/>
		<rect x="1140" y="584" class="st6" width="4" height="4"/>
		<path class="st6" d="M180,588h-4h-4h-4h-4h-4h-4h-4v4h-4h-4h-4h-4v4h-4h-4v4h-4v-4h-4h-4h-4h-4h-4h-4h-4h-4v4h-4h-4h-4h-4h-4h-4
			h-4h-4h-4h-4h-4h-4h-4h-4h-4h-4h-4h-4h-4h-4H8H4H0v4h4v4h4h4h4v4h4h4h4h4h4v4h4h4h4h4v4h4h4v4h4v-4h4h4h4h4v-4h-4v-4h4h4h4v4h4v-4
			h4h4h4h4v-4h-4h-4v-4h4h4v4h4h4h4h4h4h4h4h4h4h4h4v-4h4h4h4h4h4h4v-4h-4h-4h-4h-4h-4h-4h-4v-4h4h4h4h4h4h4h4h4h4h4v-4v-4h-4H180z
			 M68,612h-4h-4h-4h-4v-4h4h4h4h4h4v4H68z M144,604h-4h-4v-4h4h4V604z"/>
		<rect x="1100" y="588" class="st6" width="4" height="4"/>
		<polygon class="st6" points="1132,588 1132,592 1136,592 1136,596 1140,596 1140,592 1140,588 1136,588 		"/>
		<polygon class="st6" points="204,596 208,596 212,596 212,592 208,592 204,592 200,592 200,596 		"/>
		<rect x="1112" y="592" class="st6" width="4" height="4"/>
		<polygon class="st6" points="1124,592 1124,588 1120,588 1120,592 1120,596 1120,600 1124,600 1124,596 1128,596 1132,596 
			1132,592 1128,592 		"/>
		<rect x="1144" y="592" class="st6" width="4" height="4"/>
		<rect x="1164" y="592" class="st6" width="4" height="4"/>
		<path class="st6" d="M396,596h-4h-4h-4h-4h-4h-4h-4h-4v-4h-4v4h-4h-4v-4h-4v4h-4v-4h-4h-4h-4v-4h-4h-4h-4h-4v-4h4h4v-4h-4h-4v-4
			h-4v-4h-4h-4h-4v4h-4v4h-4h-4h-4v4h-4h-4h-4v4h-4h-4h-4h-4h-4h-4v4h4h4h4h4h4h4h4h4v4h4h4h4h4h4h4h4h4h4h4v4h4h4h4h4h4h4h4h4h4h4
			h4h4h4h4h4h4h4h4h4h4v-4H396z M308,592v-4h4v4H308z"/>
		<rect x="1108" y="596" class="st6" width="4" height="4"/>
		<polygon class="st6" points="448,600 444,600 440,600 436,600 432,600 428,600 424,600 420,600 416,600 412,600 408,600 404,600 
			400,600 400,604 404,604 408,604 408,608 412,608 416,608 420,608 424,608 424,612 428,612 428,608 432,608 436,608 440,608 
			444,608 448,608 448,604 452,604 452,600 		"/>
		<polygon class="st6" points="180,608 184,608 184,604 180,604 176,604 176,608 		"/>
		<polygon class="st6" points="476,604 472,604 468,604 464,604 460,604 456,604 452,604 452,608 456,608 460,608 464,608 468,608 
			472,608 476,608 480,608 480,604 		"/>
		<rect x="108" y="612" class="st6" width="4" height="4"/>
		<polygon class="st6" points="136,612 132,612 132,616 136,616 140,616 144,616 144,612 140,612 		"/>
		<rect x="156" y="612" class="st6" width="4" height="4"/>
		<polygon class="st6" points="628,612 628,616 632,616 636,616 636,612 632,612 		"/>
		<rect x="32" y="616" class="st6" width="4" height="4"/>
		<rect x="616" y="616" class="st6" width="4" height="4"/>
		<polygon class="st6" points="600,620 600,624 604,624 608,624 608,620 604,620 		"/>
		<rect x="64" y="624" class="st6" width="4" height="4"/>
		<rect x="464" y="624" class="st6" width="4" height="4"/>
		<polygon class="st6" points="512,624 508,624 504,624 500,624 500,628 500,632 504,632 508,632 512,632 512,628 		"/>
		<rect x="496" y="632" class="st6" width="4" height="4"/>
		<polygon class="st6" points="620,636 624,636 628,636 628,632 624,632 624,628 620,628 616,628 616,632 620,632 		"/>
		<rect x="636" y="632" class="st6" width="4" height="4"/>
		<rect x="656" y="632" class="st6" width="4" height="4"/>
		<polygon class="st6" points="676,636 672,636 668,636 668,640 672,640 676,640 680,640 684,640 684,636 680,636 		"/>
		<path class="st6" d="M648,640h-4h-4h-4h-4h-4h-4h-4v4h-4h-4v-4h-4h-4h-4v-4h4h4h4v4h4h4v-4h-4v-4h-4h-4h-4h-4h-4v-4h-4h-4h-4v-4h4
			h4h4v-4h-4h-4v-4h4h4h4h4h4h4v-4h-4h-4h-4h-4h-4h-4h-4v4v4h-4h-4v-4h-4v4h-4h-4v-4h4v-4h-4h-4h-4h-4h-4h-4h-4h-4h-4h-4h-4h-4h-4
			h-4v-4h-4h-4h-4h-4h-4h-4h-4h-4v4h4h4h4h4v4h-4h-4h-4h-4v-4h-4h-4h-4h-4h-4h-4h-4h-4h-4h-4h-4v4h4h4h4h4h4h4h4h4h4h4v4h4h4h4h4h4
			h4h4h4h4h4h4v4h4h4h4v4h-4v4h-4h-4h-4h-4v4h4h4h4h4h4h4h4h4h4v4h4h4v-4h-4v-4h4h4h4v-4h4v4h4h4h4h4h4h4v4h-4h-4h-4h-4h-4h-4v4h4h4
			h4h4h4h4h4v4h4h4h4v4h-4v4h4h4h4h4h4h4h4h4h4h4h4v-4h-4h-4h-4v-4h4h4h4h4h4v-4h-4H648z M544,624v-4h4v4H544z M556,616v4h-4v-4H556
			z"/>
		<rect x="548" y="648" class="st6" width="4" height="4"/>
		<polygon class="st6" points="672,648 672,652 676,652 680,652 680,648 676,648 		"/>
		<polygon class="st6" points="580,652 576,652 576,656 580,656 584,656 588,656 588,652 584,652 		"/>
		<polygon class="st6" points="660,652 660,656 664,656 668,656 668,652 664,652 		"/>
		<polygon class="st6" points="632,656 628,656 624,656 624,660 628,660 632,660 636,660 640,660 640,656 636,656 		"/>
		<rect x="620" y="668" class="st6" width="4" height="4"/>
	</g>
	<g>
		<polygon class="st7" points="1124,564 1120,564 1116,564 1116,560 1112,560 1108,560 1104,560 1100,560 1100,556 1096,556 
			1092,556 1088,556 1088,560 1084,560 1080,560 1076,560 1076,564 1072,564 1072,560 1068,560 1064,560 1064,564 1068,564 
			1068,568 1064,568 1064,572 1068,572 1072,572 1072,576 1068,576 1068,580 1072,580 1072,584 1068,584 1064,584 1064,588 
			1060,588 1056,588 1056,592 1060,592 1064,592 1068,592 1068,588 1072,588 1076,588 1080,588 1084,588 1088,588 1088,584 
			1084,584 1084,580 1088,580 1092,580 1092,576 1096,576 1096,580 1100,580 1100,576 1104,576 1104,572 1108,572 1112,572 
			1112,568 1108,568 1108,564 1112,564 1112,568 1116,568 1116,572 1120,572 1120,568 1124,568 1128,568 1128,564 		"/>
		<rect x="496" y="572" class="st7" width="4" height="4"/>
		<rect x="456" y="576" class="st7" width="4" height="4"/>
		<rect x="1104" y="576" class="st7" width="4" height="4"/>
		<rect x="416" y="580" class="st7" width="4" height="4"/>
		<rect x="424" y="580" class="st7" width="4" height="4"/>
		<rect x="652" y="580" class="st7" width="4" height="4"/>
		<rect x="1052" y="580" class="st7" width="4" height="4"/>
		<rect x="412" y="584" class="st7" width="4" height="4"/>
		<rect x="620" y="584" class="st7" width="4" height="4"/>
		<rect x="480" y="588" class="st7" width="4" height="4"/>
		<polygon class="st7" points="400,592 400,596 404,596 408,596 408,592 404,592 		"/>
		<rect x="516" y="592" class="st7" width="4" height="4"/>
		<rect x="576" y="592" class="st7" width="4" height="4"/>
		<polygon class="st7" points="636,592 632,592 628,592 628,596 628,600 632,600 632,596 636,596 640,596 640,592 		"/>
		<polygon class="st7" points="652,592 648,592 648,596 644,596 640,596 640,600 640,604 644,604 648,604 652,604 652,600 656,600 
			660,600 660,596 660,592 656,592 		"/>
		<rect x="560" y="596" class="st7" width="4" height="4"/>
		<path class="st7" d="M624,596h-4h-4v-4h-4v4v4h-4h-4v-4h-4v4h-4v-4h-4h-4h-4h-4v4h4h4v4h-4h-4v-4h-4h-4h-4v4h-4h-4v4h-4v-4v-4h-4
			v4h-4v-4h-4h-4h-4h-4v-4h-4v4h-4h-4v4h-4v-4h-4h-4v4h-4h-4v-4v-4v-4h-4v-4h-4v4v4h4v4h-4v-4h-4h-4h-4v-4h-4v4h-4v-4h4v-4h4v-4v-4
			h-4v4h-4v-4h-4h-4h-4v4h-4h-4v-4h-4v4h-4h-4h-4h-4h-4v4h-4h-4h-4v4h4h4v4h-4h-4v4h4h4h4h4h4h4h4h4h4v4h4h4h4h4h4h4h4v4h4h4h4h4h4
			h4h4h4v4h4h4h4h4h4h4h4h4h4h4h4h4h4v-4h4h4h4h4h4h4h4v-4h4h4h4h4h4h4h4h4h4v-4h-4V596z M460,588h4v4h-4h-4v-4H460z M440,588h4v4
			h-4h-4v-4H440z M540,608h-4h-4v-4h4h4h4v4H540z"/>
		<polygon class="st7" points="1052,596 1052,600 1056,600 1060,600 1060,596 1056,596 		"/>
		<rect x="932" y="604" class="st7" width="4" height="4"/>
		<rect x="908" y="612" class="st7" width="4" height="4"/>
		<rect x="916" y="612" class="st7" width="4" height="4"/>
		<rect x="932" y="612" class="st7" width="4" height="4"/>
		<rect x="872" y="616" class="st7" width="4" height="4"/>
		<polygon class="st7" points="924,616 924,620 928,620 932,620 932,616 928,616 		"/>
		<polygon class="st7" points="916,620 912,620 912,624 908,624 908,628 908,632 912,632 912,628 916,628 920,628 920,624 916,624 
					"/>
		<rect x="880" y="624" class="st7" width="4" height="4"/>
		<polygon class="st7" points="904,628 904,624 900,624 900,628 896,628 896,632 892,632 888,632 888,636 884,636 884,632 880,632 
			880,636 880,640 880,644 880,648 884,648 888,648 888,644 892,644 896,644 896,640 900,640 900,636 904,636 908,636 908,632 
			904,632 		"/>
		<rect x="840" y="636" class="st7" width="4" height="4"/>
		<polygon class="st7" points="872,640 872,636 876,636 876,632 872,632 868,632 868,636 864,636 864,640 868,640 		"/>
		<polygon class="st7" points="872,648 872,644 868,644 864,644 864,640 860,640 856,640 856,644 860,644 860,648 856,648 852,648 
			848,648 848,644 844,644 840,644 840,648 844,648 844,652 840,652 840,656 840,660 844,660 848,660 852,660 856,660 856,656 
			860,656 864,656 868,656 872,656 872,652 876,652 880,652 880,648 876,648 		"/>
		<polygon class="st7" points="832,656 828,656 824,656 824,660 828,660 832,660 836,660 836,656 836,652 832,652 		"/>
		<rect x="804" y="660" class="st7" width="4" height="4"/>
		<rect x="792" y="672" class="st7" width="4" height="4"/>
	</g>
	<g>
		<rect x="1816" y="428" class="st8" width="4" height="4"/>
		<rect x="1852" y="432" class="st8" width="4" height="4"/>
		<rect x="1904" y="436" class="st8" width="4" height="4"/>
		<rect x="1784" y="444" class="st8" width="4" height="4"/>
		<polygon class="st8" points="1800,448 1800,444 1796,444 1792,444 1792,448 1788,448 1788,452 1792,452 1796,452 1796,448 		"/>
		<rect x="1772" y="448" class="st8" width="4" height="4"/>
		<path class="st8" d="M1952,448h-4h-4h-4h-4h-4h-4h-4v-4h-4h-4v-4h-4v4h-4h-4h-4h-4v-4h-4h-4v4h-4h-4h-4v-4h-4v4h-4v-4h4v-4h-4h-4
			h-4v4h-4h-4h-4v4h-4h-4v-4h4v-4h-4h-4v4h-4h-4v4h-4h-4h-4h-4v4h-4h-4h-4v4h-4v4h-4h-4h-4v4h-4v-4h4v-4h-4h-4v4h-4h-4v4h-4h-4h-4v4
			h-4v4h4h4v4h-4h-4v4v4h-4h-4v4h4v4h4h4h4v-4h4h4h4h4h4v4h-4h-4h-4h-4h-4v4h-4h-4h-4v4h4h4h4h4h4v-4h4v4v4h-4h-4h-4v4h4h4h4h4v-4h4
			h4h4h4v-4v-4h4v-4h4v-4h4v4h-4v4h4v4v4h-4h-4h-4v4h-4h-4h-4h-4v4h4h4v4h4v-4h4h4h4h4h4v-4h4h4h4v-4h4v-4h4v4h-4v4h4h4h4v-4h4v4h-4
			v4h4v4h4v-4h4h4v-4h4v-4h4h4v-4v-4h-4v4h-4v-4h4v-4h4h4v-4h-4h-4h-4h-4v4h-4v4h-4v-4h-4v-4h4v4h4v-4h4v-4h-4v-4h-4v-4h4v4h4v4h4
			v-4h4h4v-4h4v-4h4h4h4h4v-4v-4h4v4h4v4h4v-4h4h4h4v-4h4v4h-4v4h4h4h4v-4v-4h4v4h4v-4h4h4v-4h4h4h4v-4h4h4v-4H1952z M1836,480h-4
			v-4h4V480z M1800,468h4v4h-4V468z M1824,464h-4v-4h4V464z M1812,480h4v4h-4V480z M1860,444v4h-4v-4H1860z M1820,448v4h-4v-4H1820z
			 M1756,480v-4h4v4H1756z M1780,476h4v4h-4V476z M1824,492v-4h4v4H1824z M1836,488h-4v-4h4V488z M1840,468v-4h4v4H1840z M1856,472
			v-4h4v4H1856z M1872,464v-4h4v4H1872z M1900,460v-4h4v4H1900z"/>
		<polygon class="st8" points="1752,456 1752,452 1756,452 1756,448 1752,448 1748,448 1748,452 1744,452 1744,456 1748,456 		"/>
		<polygon class="st8" points="1764,452 1760,452 1760,456 1764,456 1768,456 1768,452 		"/>
		<polygon class="st8" points="1740,456 1736,456 1732,456 1732,460 1732,464 1736,464 1736,460 1740,460 1744,460 1744,456 		"/>
		<rect x="1752" y="456" class="st8" width="4" height="4"/>
		<polygon class="st8" points="1748,460 1744,460 1744,464 1740,464 1740,468 1744,468 1748,468 1748,464 1752,464 1752,460 		"/>
		<polygon class="st8" points="1724,468 1724,464 1720,464 1716,464 1716,468 1720,468 		"/>
		<polygon class="st8" points="1688,472 1688,468 1684,468 1680,468 1680,472 1684,472 		"/>
		<rect x="1708" y="468" class="st8" width="4" height="4"/>
		<polygon class="st8" points="1884,468 1884,472 1888,472 1892,472 1892,468 1888,468 		"/>
		<rect x="1672" y="472" class="st8" width="4" height="4"/>
		<rect x="1692" y="472" class="st8" width="4" height="4"/>
		<rect x="1736" y="472" class="st8" width="4" height="4"/>
		<rect x="1880" y="472" class="st8" width="4" height="4"/>
		<polygon class="st8" points="1668,480 1672,480 1672,476 1668,476 1664,476 1660,476 1660,480 1664,480 		"/>
		<rect x="1676" y="476" class="st8" width="4" height="4"/>
		<rect x="1864" y="476" class="st8" width="4" height="4"/>
		<polygon class="st8" points="1656,484 1660,484 1660,480 1656,480 1652,480 1648,480 1648,484 1652,484 		"/>
		<rect x="1868" y="480" class="st8" width="4" height="4"/>
		<rect x="1676" y="484" class="st8" width="4" height="4"/>
		<polygon class="st8" points="1652,492 1656,492 1656,488 1652,488 1648,488 1644,488 1644,492 1648,492 		"/>
		<polygon class="st8" points="1744,488 1740,488 1740,492 1744,492 1748,492 1748,488 		"/>
		<rect x="1796" y="492" class="st8" width="4" height="4"/>
		<polygon class="st8" points="1612,504 1612,500 1608,500 1604,500 1604,504 1608,504 		"/>
		<rect x="1700" y="500" class="st8" width="4" height="4"/>
		<rect x="1708" y="500" class="st8" width="4" height="4"/>
		<rect x="1564" y="504" class="st8" width="4" height="4"/>
		<rect x="1632" y="504" class="st8" width="4" height="4"/>
		<rect x="1640" y="504" class="st8" width="4" height="4"/>
		<rect x="1820" y="504" class="st8" width="4" height="4"/>
		<rect x="1544" y="508" class="st8" width="4" height="4"/>
		<rect x="1808" y="508" class="st8" width="4" height="4"/>
		<rect x="1828" y="508" class="st8" width="4" height="4"/>
		<rect x="1520" y="512" class="st8" width="4" height="4"/>
		<polygon class="st8" points="1560,512 1556,512 1552,512 1552,516 1556,516 1560,516 1564,516 1564,512 		"/>
		<rect x="1692" y="512" class="st8" width="4" height="4"/>
		<polygon class="st8" points="1832,512 1832,516 1836,516 1840,516 1840,512 1836,512 		"/>
		<rect x="1492" y="516" class="st8" width="4" height="4"/>
		<polygon class="st8" points="1572,520 1572,516 1568,516 1564,516 1564,520 1568,520 		"/>
		<rect x="1624" y="516" class="st8" width="4" height="4"/>
		<polygon class="st8" points="1676,516 1672,516 1672,520 1676,520 1680,520 1680,516 		"/>
		<path class="st8" d="M1824,516h-4h-4h-4v4h-4h-4h-4v-4h4v-4h-4h-4v4h-4h-4h-4v4h-4h-4h-4h-4v-4h4h4v-4h-4h-4v-4h-4v4h-4h-4v-4h-4
			v4h-4v-4h-4h-4h-4h-4h-4h-4h-4v4h-4h-4v4h-4v-4h-4v4h-4h-4v4h-4h-4h-4h-4v4h-4v4h-4v-4h-4h-4h-4v4v4h-4v-4h-4h-4h-4v-4h-4h-4v-4
			h-4h-4v4h-4v4h4h4h4v4h4h4h4h4v4h4h4h4h4h4v4h4v-4h4v4h4v-4h4v-4h-4h-4v-4h4h4h4v-4h4v4h-4v4h4h4h4v-4h4v-4h4v-4h4v4h-4v4h4h4v-4
			h4v-4h4h4v4h-4v4h4h4v-4h4h4v-4v-4h4v4h4v-4h4v4v4h-4h-4h-4v4h4h4h4h4v-4h4v4h4v4h4h4h4h4v4h4v4h4v-4h4h4h4v-4h4v-4h4h4v-4h4v-4h4
			h4h4v-4h-4H1824z M1796,532v-4h-4v-4h4v4h4v4H1796z"/>
		<rect x="1500" y="520" class="st8" width="4" height="4"/>
		<path class="st8" d="M1620,520h-4v-4h-4h-4v4h-4h-4h-4v-4h-4v-4h-4v4h-4h-4v4h-4h-4v4h-4h-4v4h-4h-4v-4h4h4v-4h-4h-4h-4h-4v4h-4
			h-4v4h-4v-4h4v-4h-4h-4v4h-4h-4h-4v4h-4h-4v4h-4h-4v-4h-4v4h-4h-4v4h-4v4h-4v4h-4h-4v-4h4h4v-4h4v-4v-4h-4v4h-4v4h-4v-4h-4v4h-4
			v-4h-4v4h-4v4h-4v4h-4h-4h-4v-4h-4h-4v4h-4h-4v-4h4h4v-4h-4h-4h-4h-4v4h-4v4h-4h-4h-4v4h-4h-4h-4v-4h4h4h4v-4h-4h-4h-4h-4h-4h-4v4
			h-4h-4h-4h-4h-4h-4h-4h-4h-4h-4h-4h-4h-4h-4h-4h-4h-4h-4h-4h-4h-4h-4h-4h-4h-4v-4h-4h-4h-4h-4h-4h-4h-4h-4h-4h-4v4h4v4h-4h-4h-4
			h-4v4h-4h-4h-4h-4h-4v4h-4h-4h-4h-4v4h-4h-4v4h4h4h4v4h-4h-4v4h4h4h4v-4h4h4v4h4h4v4h4h4h4v4h4h4v4h4h4v4h4h4h4h4h4h4v-4h4h4h4v4
			h4h4v-4v-4h-4h-4v-4h4h4h4v-4h4h4v-4h-4v-4h4v4h4v-4h4v4h4v4h4v-4h4h4v-4h4h4h4v4h4h4h4h4v-4h-4h-4h-4v-4h-4h-4v-4h4h4h4v4h4h4v4
			h4v-4h4h4v-4h4v-4h4h4h4v-4h4v4h-4v4v4h4h4h4v4h4v-4v-4h4h4v4h-4v4h-4v4h4h4h4v-4h4h4v-4h4h4h4v4h-4h-4v4h4h4h4v4h4h4h4h4v-4h-4
			h-4h-4v-4h4h4h4v4h4h4h4v-4h4h4h4v-4h4h4h4v-4h4h4h4h4h4h4v-4h4h4h4v-4h4v-4h4h4h4v-4h4h4h4v-4h4h4h4v-4h4h4h4v-4h4h4h4v-4h4h4h4
			h4h4h4h4h4h4h4v-4H1620z M1356,548v4h-4v-4H1356z M1236,560h4v4h-4V560z M1256,552v4h-4v-4H1256z M1240,572h4v4h-4V572z M1272,568
			v-4h4v4H1272z M1284,556h4v4h-4V556z M1296,552h4v4h-4V552z M1304,552h4v4h-4V552z M1276,580h-4v-4h4V580z M1292,568h-4h-4v-4h4h4
			V568z M1516,536v-4h4h4v-4h4v4h-4v4h-4H1516v4h-4v-4H1516z"/>
		<rect x="1480" y="524" class="st8" width="4" height="4"/>
		<rect x="1504" y="524" class="st8" width="4" height="4"/>
		<rect x="1724" y="528" class="st8" width="4" height="4"/>
		<rect x="1704" y="532" class="st8" width="4" height="4"/>
		<rect x="1732" y="532" class="st8" width="4" height="4"/>
		<rect x="1740" y="532" class="st8" width="4" height="4"/>
		<polygon class="st8" points="1748,536 1748,540 1752,540 1752,536 1752,532 1748,532 		"/>
		<rect x="1764" y="532" class="st8" width="4" height="4"/>
		<polygon class="st8" points="1452,540 1456,540 1456,536 1452,536 1448,536 1444,536 1444,540 1448,540 		"/>
		<rect x="1688" y="536" class="st8" width="4" height="4"/>
		<rect x="1724" y="536" class="st8" width="4" height="4"/>
		<polygon class="st8" points="1756,536 1756,540 1760,540 1764,540 1764,536 1760,536 		"/>
		<rect x="1776" y="536" class="st8" width="4" height="4"/>
		<rect x="280" y="544" class="st8" width="4" height="4"/>
		<rect x="292" y="544" class="st8" width="4" height="4"/>
		<polygon class="st8" points="1224,548 1224,544 1220,544 1216,544 1216,548 1220,548 		"/>
		<rect x="268" y="548" class="st8" width="4" height="4"/>
		<rect x="284" y="548" class="st8" width="4" height="4"/>
		<rect x="304" y="548" class="st8" width="4" height="4"/>
		<rect x="1136" y="548" class="st8" width="4" height="4"/>
		<polygon class="st8" points="1168,552 1172,552 1172,548 1168,548 1164,548 1160,548 1160,552 1164,552 		"/>
		<rect x="12" y="552" class="st8" width="4" height="4"/>
		<polygon class="st8" points="52,556 52,552 48,552 44,552 44,556 48,556 		"/>
		<rect x="300" y="552" class="st8" width="4" height="4"/>
		<polygon class="st8" points="312,556 316,556 316,552 316,548 312,548 312,552 308,552 308,556 		"/>
		<rect x="320" y="552" class="st8" width="4" height="4"/>
		<rect x="1120" y="552" class="st8" width="4" height="4"/>
		<rect x="1188" y="552" class="st8" width="4" height="4"/>
		<rect x="32" y="556" class="st8" width="4" height="4"/>
		<rect x="40" y="556" class="st8" width="4" height="4"/>
		<polygon class="st8" points="60,556 60,552 56,552 56,556 56,560 60,560 		"/>
		<rect x="64" y="556" class="st8" width="4" height="4"/>
		<rect x="76" y="556" class="st8" width="4" height="4"/>
		<rect x="84" y="556" class="st8" width="4" height="4"/>
		<rect x="100" y="556" class="st8" width="4" height="4"/>
		<rect x="112" y="556" class="st8" width="4" height="4"/>
		<rect x="120" y="556" class="st8" width="4" height="4"/>
		<rect x="128" y="556" class="st8" width="4" height="4"/>
		<rect x="160" y="556" class="st8" width="4" height="4"/>
		<rect x="168" y="556" class="st8" width="4" height="4"/>
		<rect x="176" y="556" class="st8" width="4" height="4"/>
		<polygon class="st8" points="256,556 256,560 256,564 252,564 252,568 256,568 260,568 260,564 264,564 264,568 264,572 264,576 
			268,576 268,572 272,572 276,572 280,572 280,568 284,568 288,568 288,564 288,560 292,560 292,556 292,552 288,552 288,556 
			284,556 284,560 284,564 280,564 276,564 276,560 280,560 280,556 280,552 276,552 276,556 272,556 272,560 268,560 268,556 
			268,552 264,552 260,552 260,556 		"/>
		<polygon class="st8" points="1372,560 1376,560 1376,556 1372,556 1368,556 1368,560 		"/>
		<rect x="80" y="560" class="st8" width="4" height="4"/>
		<rect x="108" y="560" class="st8" width="4" height="4"/>
		<rect x="144" y="560" class="st8" width="4" height="4"/>
		<rect x="164" y="560" class="st8" width="4" height="4"/>
		<polygon class="st8" points="308,560 308,556 304,556 304,560 304,564 308,564 		"/>
		<polygon class="st8" points="312,560 312,564 308,564 308,568 304,568 304,572 308,572 312,572 312,576 316,576 316,572 320,572 
			320,568 316,568 316,564 320,564 320,560 320,556 316,556 316,560 		"/>
		<polygon class="st8" points="324,564 320,564 320,568 324,568 328,568 332,568 332,564 336,564 340,564 344,564 348,564 348,560 
			352,560 356,560 360,560 360,556 356,556 352,556 348,556 344,556 340,556 340,560 336,560 336,556 340,556 340,552 336,552 
			332,552 328,552 328,556 324,556 324,560 		"/>
		<polygon class="st8" points="1140,564 1144,564 1148,564 1148,560 1144,560 1140,560 		"/>
		<polygon class="st8" points="168,564 168,568 172,568 176,568 176,564 176,560 172,560 172,564 		"/>
		<polygon class="st8" points="180,568 184,568 184,572 188,572 188,568 192,568 196,568 200,568 200,564 204,564 204,560 208,560 
			208,564 212,564 212,560 216,560 220,560 224,560 224,564 228,564 232,564 232,560 228,560 228,556 232,556 232,560 236,560 
			240,560 244,560 244,564 240,564 236,564 236,568 236,572 240,572 240,568 244,568 248,568 248,564 252,564 252,560 252,556 
			256,556 256,552 260,552 260,548 256,548 252,548 252,552 248,552 248,556 244,556 244,552 248,552 248,548 252,548 252,544 
			248,544 244,544 240,544 236,544 232,544 228,544 224,544 224,548 220,548 216,548 212,548 212,552 208,552 208,548 204,548 
			204,552 200,552 196,552 196,556 196,560 196,564 192,564 192,560 192,556 192,552 188,552 188,556 184,556 184,560 180,560 
			180,564 		"/>
		<rect x="220" y="564" class="st8" width="4" height="4"/>
		<polygon class="st8" points="292,568 288,568 288,572 292,572 292,576 296,576 300,576 300,572 300,568 304,568 304,564 300,564 
			300,560 300,556 296,556 296,560 292,560 292,564 		"/>
		<path class="st8" d="M356,564h-4h-4v4h4h4h4v4h-4h-4h-4h-4h-4h-4h-4h-4h-4v4h4h4v4h-4h-4v4h-4h-4v4h4h4h4h4v4h4h4h4v4h4v-4h4v4h4
			h4v-4h4v4h4h4v-4h-4v-4h4h4h4v-4h-4v-4h4h4h4h4v-4v-4h4v4h4h4h4h4v-4v-4h-4v4h-4v-4h-4v-4h4v4h4v-4h4h4h4h4v-4h4h4v4h4h4h4h4h4v4
			v4h4v-4h4h4h4v-4h4v4h4h4v-4v-4h-4h-4h-4h-4v4h-4v-4h-4h-4h-4h-4h-4v-4h-4h-4h-4h-4h-4v4h-4v-4h-4h-4h-4h-4h-4h-4h-4h-4v4h-4v-4
			h-4h-4v4h-4v4h4h4v4h-4h-4v-4h-4v-4h-4v4H356z M348,576v4h-4v-4H348z M336,588v-4h4v4H336z M364,584v-4h4v4H364z M388,576h-4v-4h4
			V576z M380,564h4v4h-4V564z"/>
		<rect x="424" y="564" class="st8" width="4" height="4"/>
		<path class="st8" d="M1056,564h-4v4h-4h-4h-4h-4v4h-4h-4h-4h-4h-4h-4h-4h-4v4h-4h-4v4h-4v-4h-4h-4h-4h-4h-4h-4v4h-4h-4h-4h-4h-4
			h-4h-4h-4h-4h-4h-4h-4h-4h-4h-4h-4h-4v4h-4h-4h-4h-4h-4h-4h-4h-4h-4h-4h-4h-4h-4v4h-4h-4h-4h-4h-4h-4h-4h-4h-4h-4h-4h-4h-4h-4h-4
			h-4h-4h-4h-4h-4h-4v-4h-4h-4v4h-4v-4h-4h-4h-4h-4v-4h-4h-4h-4h-4v-4h-4h-4h-4v-4h-4h-4h-4v-4h-4h-4h-4h-4v-4h-4h-4h-4h-4h-4h-4h-4
			h-4h-4h-4h-4h-4h-4h-4v4h-4h-4h-4h-4v4h-4h-4h-4h-4h-4v4h-4h-4h-4h-4v4h-4v4h4h4v4h4v-4v-4h4v4h4h4v-4h4h4v-4h4v4h4h4v-4h4v-4h4h4
			h4h4v4h-4v4h4h4h4v4h4v-4h4v-4h-4h-4h-4v-4h4h4h4h4v-4h4v4h-4v4h4h4v4h4v-4v-4h-4v-4h4v4h4h4v4h4v4h4v4h-4v4h4h4v-4v-4h4v4h4h4v-4
			h4v4h4h4v4h4h4v-4h4h4v4h-4h-4v4h4h4h4v4h-4v4h4h4v-4v-4h4v4h4h4v-4h4v4h4v4v4h4h4h4h4h4v-4h-4v-4h4v4h4h4v-4h4h4h4v4h4h4h4v-4h4
			v4h4h4h4v4h-4v4h4h4v-4h4h4v4h4h4v-4h4h4h4h4h4h4v-4h-4v-4h4v-4h4v4v4v4h4v-4v-4h4v-4h4v4h4v-4v-4h4v4v4h4h4v-4h4v4h4h4v-4h4h4v4
			h4h4v-4h-4v-4h4v4h4h4h4v-4h4v4h4v-4h4v4h4v-4h4h4v-4h4v4h4h4v-4h4v4h4h4h4v-4h-4v-4h4v4h4h4h4v4h4v-4v-4h4h4h4v-4h4v4h-4v4h4h4
			v-4v-4h4v4h4v4h4h4v-4h-4v-4h4v4h4h4h4v-4h-4v-4h4h4h4v-4h-4V564z M684,576v-4h4v4H684z M756,600v-4h4v4H756z M816,596v-4h4v4H816
			z M836,600v-4h4v4H836z M856,600h-4v-4h4V600z"/>
		<rect x="1176" y="564" class="st8" width="4" height="4"/>
		<polygon class="st8" points="1384,564 1380,564 1376,564 1372,564 1368,564 1368,568 1372,568 1376,568 1380,568 1384,568 
			1388,568 1392,568 1392,564 1388,564 		"/>
		<rect x="48" y="568" class="st8" width="4" height="4"/>
		<rect x="176" y="568" class="st8" width="4" height="4"/>
		<rect x="200" y="568" class="st8" width="4" height="4"/>
		<polygon class="st8" points="212,568 212,572 216,572 220,572 220,568 216,568 		"/>
		<rect x="416" y="568" class="st8" width="4" height="4"/>
		<rect x="440" y="568" class="st8" width="4" height="4"/>
		<polygon class="st8" points="1360,568 1356,568 1352,568 1352,572 1356,572 1360,572 1364,572 1368,572 1368,568 1364,568 		"/>
		<polygon class="st8" points="44,576 44,572 44,568 48,568 48,564 52,564 56,564 56,560 52,560 48,560 44,560 44,564 40,564 
			40,560 36,560 36,564 32,564 32,568 28,568 28,572 24,572 20,572 20,568 24,568 28,568 28,564 32,564 32,560 28,560 24,560 
			24,556 28,556 28,552 24,552 20,552 20,556 16,556 16,560 12,560 12,564 8,564 8,560 4,560 4,564 0,564 0,568 0,572 0,576 0,580 
			4,580 8,580 8,576 12,576 12,580 16,580 20,580 20,576 24,576 24,580 28,580 28,576 32,576 32,580 36,580 40,580 40,576 		"/>
		<polygon class="st8" points="68,576 68,572 72,572 72,568 68,568 68,564 64,564 64,560 60,560 60,564 60,568 56,568 56,572 
			52,572 52,576 52,580 56,580 56,584 60,584 60,580 64,580 64,576 		"/>
		<polygon class="st8" points="112,576 112,580 108,580 108,584 112,584 112,588 116,588 116,584 120,584 120,580 124,580 124,584 
			128,584 128,580 128,576 132,576 132,580 132,584 136,584 136,580 140,580 144,580 144,576 148,576 148,580 152,580 156,580 
			156,576 160,576 164,576 164,572 168,572 168,568 164,568 164,564 160,564 156,564 156,568 152,568 152,564 148,564 148,568 
			144,568 144,564 140,564 140,568 136,568 132,568 128,568 128,572 124,572 124,568 128,568 128,564 124,564 120,564 116,564 
			116,568 112,568 112,572 108,572 108,576 		"/>
		<polygon class="st8" points="168,572 168,576 172,576 172,580 176,580 176,576 176,572 172,572 		"/>
		<rect x="180" y="572" class="st8" width="4" height="4"/>
		<rect x="196" y="572" class="st8" width="4" height="4"/>
		<rect x="224" y="572" class="st8" width="4" height="4"/>
		<rect x="232" y="572" class="st8" width="4" height="4"/>
		<rect x="248" y="572" class="st8" width="4" height="4"/>
		<rect x="256" y="572" class="st8" width="4" height="4"/>
		<polygon class="st8" points="280,572 280,576 280,580 284,580 284,576 288,576 288,572 284,572 		"/>
		<polygon class="st8" points="428,572 424,572 424,576 428,576 432,576 432,572 		"/>
		<rect x="448" y="572" class="st8" width="4" height="4"/>
		<polygon class="st8" points="476,572 476,576 480,576 484,576 484,572 480,572 		"/>
		<polygon class="st8" points="488,576 492,576 492,572 496,572 500,572 500,576 504,576 504,580 508,580 512,580 512,584 516,584 
			516,580 520,580 520,584 524,584 528,584 532,584 532,588 536,588 536,584 540,584 540,588 536,588 536,592 540,592 544,592 
			548,592 548,588 548,584 552,584 556,584 556,588 560,588 560,584 564,584 564,580 560,580 556,580 552,580 548,580 544,580 
			540,580 536,580 532,580 528,580 528,576 524,576 520,576 516,576 512,576 512,572 508,572 504,572 504,568 500,568 496,568 
			496,564 492,564 488,564 484,564 484,568 484,572 488,572 		"/>
		<rect x="1068" y="572" class="st8" width="4" height="4"/>
		<rect x="1132" y="572" class="st8" width="4" height="4"/>
		<polygon class="st8" points="1172,572 1172,576 1176,576 1180,576 1180,572 1176,572 		"/>
		<rect x="1184" y="572" class="st8" width="4" height="4"/>
		<rect x="1308" y="572" class="st8" width="4" height="4"/>
		<polygon class="st8" points="1320,576 1324,576 1328,576 1332,576 1332,572 1328,572 1324,572 1320,572 1316,572 1316,576 		"/>
		<polygon class="st8" points="1340,572 1336,572 1336,576 1340,576 1344,576 1348,576 1348,572 1344,572 		"/>
		<rect x="1408" y="572" class="st8" width="4" height="4"/>
		<rect x="44" y="576" class="st8" width="4" height="4"/>
		<polygon class="st8" points="96,580 100,580 100,584 104,584 104,580 108,580 108,576 104,576 104,572 108,572 108,568 108,564 
			104,564 104,568 100,568 100,572 96,572 96,568 96,564 92,564 92,560 88,560 88,564 84,564 84,568 80,568 80,564 76,564 72,564 
			72,568 76,568 76,572 72,572 72,576 68,576 68,580 64,580 64,584 64,588 68,588 68,584 72,584 72,580 76,580 80,580 80,576 
			80,572 84,572 84,576 84,580 88,580 88,584 92,584 92,580 		"/>
		<rect x="164" y="576" class="st8" width="4" height="4"/>
		<rect x="188" y="576" class="st8" width="4" height="4"/>
		<rect x="212" y="576" class="st8" width="4" height="4"/>
		<rect x="228" y="576" class="st8" width="4" height="4"/>
		<rect x="236" y="576" class="st8" width="4" height="4"/>
		<rect x="272" y="576" class="st8" width="4" height="4"/>
		<polygon class="st8" points="320,576 316,576 316,580 320,580 324,580 324,576 		"/>
		<polygon class="st8" points="436,580 440,580 444,580 444,576 440,576 436,576 432,576 432,580 		"/>
		<polygon class="st8" points="492,576 492,580 496,580 500,580 500,576 496,576 		"/>
		<rect x="616" y="576" class="st8" width="4" height="4"/>
		<rect x="1056" y="576" class="st8" width="4" height="4"/>
		<rect x="1092" y="576" class="st8" width="4" height="4"/>
		<rect x="1188" y="576" class="st8" width="4" height="4"/>
		<rect x="1412" y="576" class="st8" width="4" height="4"/>
		<rect x="8" y="580" class="st8" width="4" height="4"/>
		<rect x="20" y="580" class="st8" width="4" height="4"/>
		<rect x="28" y="580" class="st8" width="4" height="4"/>
		<rect x="40" y="580" class="st8" width="4" height="4"/>
		<rect x="48" y="580" class="st8" width="4" height="4"/>
		<rect x="144" y="580" class="st8" width="4" height="4"/>
		<rect x="160" y="580" class="st8" width="4" height="4"/>
		<rect x="168" y="580" class="st8" width="4" height="4"/>
		<polygon class="st8" points="620,580 620,584 624,584 628,584 628,580 624,580 		"/>
		<rect x="672" y="580" class="st8" width="4" height="4"/>
		<polygon class="st8" points="1308,580 1308,584 1312,584 1316,584 1316,580 1312,580 		"/>
		<rect x="4" y="584" class="st8" width="4" height="4"/>
		<rect x="24" y="584" class="st8" width="4" height="4"/>
		<rect x="36" y="584" class="st8" width="4" height="4"/>
		<rect x="44" y="584" class="st8" width="4" height="4"/>
		<rect x="52" y="584" class="st8" width="4" height="4"/>
		<rect x="92" y="584" class="st8" width="4" height="4"/>
		<rect x="104" y="584" class="st8" width="4" height="4"/>
		<rect x="120" y="584" class="st8" width="4" height="4"/>
		<rect x="388" y="584" class="st8" width="4" height="4"/>
		<rect x="480" y="584" class="st8" width="4" height="4"/>
		<polygon class="st8" points="504,584 500,584 500,588 504,588 508,588 512,588 512,584 508,584 		"/>
		<rect x="592" y="584" class="st8" width="4" height="4"/>
		<rect x="600" y="584" class="st8" width="4" height="4"/>
		<rect x="636" y="584" class="st8" width="4" height="4"/>
		<rect x="1028" y="584" class="st8" width="4" height="4"/>
		<rect x="1048" y="584" class="st8" width="4" height="4"/>
		<rect x="1096" y="584" class="st8" width="4" height="4"/>
		<polygon class="st8" points="1168,584 1164,584 1160,584 1160,580 1156,580 1156,584 1152,584 1152,580 1148,580 1144,580 
			1144,576 1140,576 1140,580 1136,580 1132,580 1132,576 1128,576 1124,576 1120,576 1116,576 1116,580 1120,580 1120,584 
			1116,584 1112,584 1108,584 1108,580 1104,580 1104,584 1104,588 1104,592 1100,592 1096,592 1096,588 1092,588 1088,588 
			1088,592 1084,592 1080,592 1076,592 1076,596 1080,596 1084,596 1084,600 1080,600 1076,600 1072,600 1072,604 1076,604 
			1080,604 1084,604 1088,604 1092,604 1096,604 1096,600 1100,600 1104,600 1108,600 1108,596 1112,596 1112,592 1116,592 
			1116,596 1112,596 1112,600 1116,600 1120,600 1120,596 1120,592 1120,588 1124,588 1124,592 1128,592 1132,592 1132,588 
			1128,588 1128,584 1132,584 1132,588 1136,588 1140,588 1140,584 1144,584 1144,588 1140,588 1140,592 1140,596 1144,596 
			1144,592 1148,592 1148,596 1152,596 1156,596 1160,596 1164,596 1164,592 1168,592 1168,596 1172,596 1172,592 1176,592 
			1176,588 1176,584 1172,584 		"/>
		<polygon class="st8" points="1292,584 1292,588 1296,588 1300,588 1300,584 1296,584 		"/>
		<polygon class="st8" points="1328,584 1324,584 1320,584 1320,588 1324,588 1328,588 1332,588 1336,588 1336,584 1332,584 		"/>
		<rect x="28" y="588" class="st8" width="4" height="4"/>
		<rect x="48" y="588" class="st8" width="4" height="4"/>
		<rect x="60" y="588" class="st8" width="4" height="4"/>
		<rect x="88" y="588" class="st8" width="4" height="4"/>
		<rect x="132" y="588" class="st8" width="4" height="4"/>
		<rect x="308" y="588" class="st8" width="4" height="4"/>
		<rect x="512" y="588" class="st8" width="4" height="4"/>
		<rect x="528" y="588" class="st8" width="4" height="4"/>
		<rect x="604" y="588" class="st8" width="4" height="4"/>
		<rect x="1008" y="588" class="st8" width="4" height="4"/>
		<rect x="1040" y="588" class="st8" width="4" height="4"/>
		<rect x="16" y="592" class="st8" width="4" height="4"/>
		<rect x="32" y="592" class="st8" width="4" height="4"/>
		<rect x="56" y="592" class="st8" width="4" height="4"/>
		<rect x="68" y="592" class="st8" width="4" height="4"/>
		<rect x="80" y="592" class="st8" width="4" height="4"/>
		<rect x="388" y="592" class="st8" width="4" height="4"/>
		<polygon class="st8" points="712,596 712,592 708,592 704,592 704,596 708,596 		"/>
		<rect x="944" y="592" class="st8" width="4" height="4"/>
		<rect x="1004" y="592" class="st8" width="4" height="4"/>
		<rect x="1132" y="592" class="st8" width="4" height="4"/>
		<rect x="124" y="596" class="st8" width="4" height="4"/>
		<polygon class="st8" points="504,596 504,600 508,600 512,600 512,596 508,596 		"/>
		<rect x="624" y="596" class="st8" width="4" height="4"/>
		<rect x="684" y="596" class="st8" width="4" height="4"/>
		<polygon class="st8" points="908,596 908,600 912,600 916,600 916,596 912,596 		"/>
		<rect x="936" y="596" class="st8" width="4" height="4"/>
		<polygon class="st8" points="144,604 144,600 140,600 136,600 136,604 140,604 		"/>
		<polygon class="st8" points="676,604 676,600 672,600 668,600 668,604 672,604 		"/>
		<rect x="716" y="600" class="st8" width="4" height="4"/>
		<polygon class="st8" points="784,604 788,604 788,600 784,600 780,600 780,604 		"/>
		<polygon class="st8" points="804,604 800,604 796,604 796,608 800,608 804,608 808,608 808,604 808,600 804,600 		"/>
		<rect x="916" y="600" class="st8" width="4" height="4"/>
		<polygon class="st8" points="104,604 100,604 100,608 104,608 108,608 108,604 		"/>
		<path class="st8" d="M744,604v4h-4v4h-4v4h-4h-4h-4h-4h-4v-4h-4h-4h-4v-4h-4h-4v-4h-4h-4h-4h-4v4h4h4h4v4h4v4h-4h-4h-4h-4h-4h-4
			v-4h4h4v-4h-4h-4h-4h-4v-4h-4v-4h-4v4h-4h-4h-4h-4v-4h-4h-4h-4v4h-4h-4h-4h-4h-4h-4h-4h-4h-4v4h-4h-4h-4h-4h-4h-4h-4v4h4v4h-4v4h4
			h4v-4h4v4h4h4v-4v-4h4h4h4h4h4h4h4v4h-4h-4h-4h-4h-4h-4v4h4h4v4h-4h-4h-4v4h4h4h4v4h4h4h4h4h4v-4h4h4v4h4v4h-4h-4v4h4h4h4h4h4h4h4
			h4h4v4h-4h-4h-4h-4h-4v4h4h4h4v4h-4h-4h-4h-4h-4h-4h-4h-4h-4h-4h-4v-4h4v-4h-4h-4h-4v-4h-4h-4h-4h-4h-4h-4h-4v-4h4h4h4h4h4h4v-4
			h-4h-4h-4h-4h-4h-4v-4h-4v4h-4h-4h-4v4h4v4h-4h-4v-4h-4h-4h-4h-4h-4h-4h-4h-4h-4v-4h-4h-4h-4v4h-4v-4h4v-4v-4h4h4h4v4v4h4h4h4h4
			v-4h4v-4h-4h-4h-4v-4h-4h-4h-4h-4h-4h-4h-4h-4h-4h-4h-4v-4h-4h-4h-4h-4h-4h-4h-4h-4h-4h-4v-4h4h4h4h4h4h4h4h4h4h4h4v-4h-4h-4h-4
			h-4h-4h-4h-4v-4h-4v4h-4h-4h-4h-4h-4v4h-4v-4h-4h-4h-4h-4v-4h-4h-4v-4h-4h-4h-4h-4h-4h-4h-4h-4h-4h-4h-4h-4h-4h-4h-4h-4h-4h-4h-4
			h-4v-4h-4h-4h-4h-4h-4h-4h-4h-4h-4h-4v-4h-4h-4h-4h-4h-4h-4h-4h-4v-4h-4h-4h-4h-4h-4h-4h-4h-4h-4h-4h-4h-4v4h4h4h4v4h-4h-4h-4v-4
			h-4h-4v-4h-4v4v4h-4h-4h-4h-4h-4h-4h-4h-4h-4h-4v4h4h4h4h4h4h4h4v4h4h4v4v4h4h4h4v-4h4v4v4h4v4h4v-4h4h4v-4h4v4h4h4v-4v-4h4v4h4h4
			v-4h4v-4h4v4v4h-4v4h4h4v-4v-4h4v4h4h4v4h4v4h4v-4h4h4v4h-4h-4v4h4h4h4v-4h4v-4h4h4v4h-4v4h4v4h4v-4h4v-4h4v4h4h4v4h4h4v-4v-4h4v4
			h4h4v-4h4h4h4v-4h4h4v4h-4v4h4h4h4h4v4h4h4h4h4h4h4v-4h4v4h4v-4h4v4v4h4h4h4h4h4h4v4h-4h-4h-4h-4h-4h-4v4h4h4h4h4h4v4h4v-4h4h4h4
			h4h4v4h-4h-4h-4h-4h-4v4h4h4h4v4h4h4h4h4h4v4h4v4h-4h-4v-4h-4v4h-4v4h4h4h4v4h-4h-4h-4v-4h-4h-4h-4h-4v-4h-4v4h-4v4h4h4h4h4v4h4h4
			h4h4v4h4h4h4v4h4v-4h4h4v4h4h4h4h4h4h4v4h4h4h4h4h4h4h4h4h4h4v4h4h4h4h4h4h4h4h4h4h4h4h4h4h4v4h4h4h4h4h4h4h4h4v-4h-4v-4h4v4h4h4
			h4h4h4v-4h4h4h4h4v4h4v-4h4h4h4h4h4h4h4h4h4h4h4v-4h-4h-4h-4v-4h4h4h4h4v-4h4h4h4h4h4v-4h-4h-4h-4h-4v-4h4v-4h4h4h4v-4h-4v-4h4v4
			h4h4h4h4h4h4h4v-4h-4h-4v-4h4v-4h-4h-4h-4v-4h4h4h4h4v4h4h4v4h-4v4h4h4h4h4v-4h-4h-4v-4h4h4v-4h-4h-4v-4h4h4v4h4v-4h4v-4h-4h-4h-4
			h-4h-4v-4h-4v-4h4v-4h-4h-4h-4h-4h-4h-4v-4h-4h-4v-4h4v-4h4v-4h-4H744z M320,616h-4v-4h4V616z M288,604h4v4h-4V604z M524,664h4v4
			h-4V664z M544,664h4v4h-4V664z M588,656h-4h-4h-4v-4h4h4h4V656z M620,668h4v4h-4V668z M668,636h4h4h4h4v4h-4h-4h-4h-4V636z
			 M672,648h4h4v4h-4h-4V648z M636,612v4h-4h-4v-4h4H636z M664,652h4v4h-4h-4v-4H664z M552,652h-4v-4h4V652z M468,628h-4v-4h4V628z
			 M440,628h4v4h-4V628z M468,644h4v4h-4V644z M664,672h4v4h-4V672z M708,660h4v4h-4V660z M620,616v4h-4v-4H620z M600,620h4h4v4h-4
			h-4V620z M636,636v-4h4v4H636z M656,632h4v4h-4V632z M628,656h4h4h4v4h-4h-4h-4h-4v-4H628z M212,608h-4v-4h4V608z M228,604v-4h4v4
			H228z M256,600h4v4h-4V600z M268,612v-4h4v4H268z M276,612v-4h4v4H276z M308,612h4v4h-4V612z M340,616v-4h4v4H340z M360,620v-4h4
			v4H360z M412,628v-4h4v4H412z M456,644h-4v-4h4h4v4h4v4h-4v-4H456z M504,672h4v4h-4V672z M644,684v-4h4v4H644z M680,680v-4h4v4
			H680z M700,680h-4v-4h4V680z M708,672v-4h4v4H708z M744,652v-4h4v4H744z M756,636v-4h4v4H756z M764,636v-4h4v4H764z M756,624h4v4
			h-4h-4h-4h-4v-4h4h4H756z"/>
		<rect x="776" y="604" class="st8" width="4" height="4"/>
		<polygon class="st8" points="876,604 876,608 880,608 884,608 884,604 880,604 		"/>
		<rect x="896" y="604" class="st8" width="4" height="4"/>
		<rect x="12" y="608" class="st8" width="4" height="4"/>
		<polygon class="st8" points="64,608 60,608 56,608 52,608 52,612 56,612 60,612 64,612 68,612 72,612 72,608 68,608 		"/>
		<polygon class="st8" points="764,612 768,612 772,612 772,608 768,608 764,608 760,608 756,608 756,612 760,612 		"/>
		<polygon class="st8" points="848,608 844,608 844,612 848,612 852,612 856,612 856,608 852,608 		"/>
		<polygon class="st8" points="860,608 860,612 864,612 868,612 868,608 864,608 		"/>
		<polygon class="st8" points="32,612 28,612 24,612 20,612 20,616 24,616 28,616 32,616 36,616 36,612 		"/>
		<polygon class="st8" points="80,612 76,612 76,616 80,616 84,616 88,616 88,612 84,612 		"/>
		<polygon class="st8" points="100,612 96,612 92,612 92,616 96,616 100,616 104,616 108,616 108,612 104,612 		"/>
		<polygon class="st8" points="484,616 488,616 492,616 496,616 496,612 492,612 488,612 484,612 480,612 480,616 		"/>
		<rect x="752" y="612" class="st8" width="4" height="4"/>
		<polygon class="st8" points="784,612 780,612 776,612 776,616 780,616 784,616 788,616 788,612 		"/>
		<polygon class="st8" points="804,616 804,612 800,612 796,612 796,616 800,616 		"/>
		<polygon class="st8" points="832,612 832,616 836,616 840,616 840,612 836,612 		"/>
		<path class="st8" d="M192,616h-4h-4v-4h-4v-4h-4v-4h-4h-4h-4h-4h-4h-4v4h-4h-4h-4h-4h-4h-4h-4h-4h-4h-4h-4v4h4v4h4h4h4h4v4h4v4h4
			v4h4h4h4h4h4v4h4h4v-4v-4h-4v-4h4h4v-4h4v4h4h4h4h4h4h4h4v-4h-4H192z M132,612h4h4h4v4h-4h-4h-4V612z M144,624v-4h4v4H144z
			 M156,616v-4h4v4H156z"/>
		<rect x="216" y="616" class="st8" width="4" height="4"/>
		<rect x="552" y="616" class="st8" width="4" height="4"/>
		<polygon class="st8" points="796,616 792,616 788,616 788,620 792,620 796,620 		"/>
		<polygon class="st8" points="60,620 56,620 52,620 52,616 48,616 44,616 40,616 36,616 36,620 40,620 40,624 44,624 48,624 
			48,628 52,628 56,628 60,628 64,628 64,624 60,624 		"/>
		<polygon class="st8" points="64,620 64,624 68,624 72,624 72,620 68,620 		"/>
		<rect x="544" y="620" class="st8" width="4" height="4"/>
		<polygon class="st8" points="124,624 120,624 120,628 120,632 124,632 128,632 132,632 132,628 132,624 128,624 		"/>
		<rect x="192" y="624" class="st8" width="4" height="4"/>
		<polygon class="st8" points="344,624 344,628 348,628 352,628 352,624 348,624 		"/>
		<polygon class="st8" points="788,624 788,628 792,628 796,628 796,624 792,624 		"/>
		<polygon class="st8" points="812,624 808,624 804,624 804,620 800,620 800,624 800,628 804,628 808,628 812,628 812,632 816,632 
			816,628 820,628 820,624 816,624 		"/>
		<polygon class="st8" points="108,628 104,628 104,632 104,636 108,636 108,632 112,632 116,632 116,628 112,628 		"/>
		<polygon class="st8" points="280,628 280,632 284,632 288,632 288,628 284,628 		"/>
		<rect x="304" y="628" class="st8" width="4" height="4"/>
		<rect x="344" y="632" class="st8" width="4" height="4"/>
		<rect x="352" y="632" class="st8" width="4" height="4"/>
		<polygon class="st8" points="400,632 396,632 392,632 388,632 388,636 392,636 396,636 400,636 404,636 404,632 		"/>
		<rect x="616" y="632" class="st8" width="4" height="4"/>
		<polygon class="st8" points="380,636 376,636 376,640 380,640 384,640 388,640 388,636 384,636 		"/>
		<polygon class="st8" points="608,636 604,636 600,636 600,640 604,640 608,640 612,640 612,636 		"/>
		<polygon class="st8" points="800,640 804,640 804,636 800,636 796,636 796,640 		"/>
		<rect x="180" y="640" class="st8" width="4" height="4"/>
		<polygon class="st8" points="612,640 612,644 616,644 620,644 620,640 616,640 		"/>
		<polygon class="st8" points="420,648 420,644 416,644 412,644 412,648 416,648 		"/>
		<polygon class="st8" points="424,656 420,656 416,656 412,656 408,656 408,660 412,660 416,660 420,660 424,660 		"/>
		<polygon class="st8" points="744,664 748,664 752,664 756,664 756,660 752,660 748,660 744,660 740,660 740,664 		"/>
		<rect x="780" y="660" class="st8" width="4" height="4"/>
		<polygon class="st8" points="748,668 748,672 752,672 756,672 756,668 752,668 		"/>
		<rect x="760" y="672" class="st8" width="4" height="4"/>
		<rect x="736" y="676" class="st8" width="4" height="4"/>
	</g>
	<g>
		<rect x="1900" y="456" class="st9" width="4" height="4"/>
		<rect x="1820" y="460" class="st9" width="4" height="4"/>
		<rect x="1872" y="460" class="st9" width="4" height="4"/>
		<rect x="1908" y="460" class="st9" width="4" height="4"/>
		<rect x="1920" y="460" class="st9" width="4" height="4"/>
		<rect x="1840" y="464" class="st9" width="4" height="4"/>
		<polygon class="st9" points="1892,468 1892,464 1888,464 1888,460 1884,460 1884,464 1884,468 1888,468 		"/>
		<polygon class="st9" points="1900,464 1896,464 1896,468 1892,468 1892,472 1888,472 1884,472 1884,476 1880,476 1880,472 
			1884,472 1884,468 1880,468 1876,468 1872,468 1868,468 1868,472 1864,472 1864,476 1868,476 1868,480 1872,480 1872,484 
			1868,484 1868,488 1864,488 1860,488 1860,492 1864,492 1864,496 1868,496 1868,492 1872,492 1876,492 1876,488 1880,488 
			1880,484 1884,484 1888,484 1888,480 1892,480 1896,480 1896,476 1900,476 1904,476 1904,472 1908,472 1912,472 1912,468 
			1908,468 1908,464 1904,464 		"/>
		<rect x="1800" y="468" class="st9" width="4" height="4"/>
		<rect x="1856" y="468" class="st9" width="4" height="4"/>
		<rect x="1844" y="472" class="st9" width="4" height="4"/>
		<rect x="1832" y="476" class="st9" width="4" height="4"/>
		<rect x="1848" y="476" class="st9" width="4" height="4"/>
		<rect x="1812" y="480" class="st9" width="4" height="4"/>
		<polygon class="st9" points="1864,480 1864,476 1860,476 1856,476 1856,480 1852,480 1852,484 1856,484 1860,484 1864,484 
			1868,484 1868,480 		"/>
		<rect x="1832" y="484" class="st9" width="4" height="4"/>
		<rect x="1840" y="484" class="st9" width="4" height="4"/>
		<rect x="1848" y="484" class="st9" width="4" height="4"/>
		<rect x="1844" y="488" class="st9" width="4" height="4"/>
		<rect x="1856" y="492" class="st9" width="4" height="4"/>
		<rect x="1712" y="520" class="st9" width="4" height="4"/>
		<polygon class="st9" points="1752,524 1756,524 1756,520 1752,520 1748,520 1748,516 1744,516 1744,520 1744,524 1748,524 		"/>
		<rect x="1692" y="524" class="st9" width="4" height="4"/>
		<rect x="1792" y="524" class="st9" width="4" height="4"/>
		<rect x="1796" y="528" class="st9" width="4" height="4"/>
		<path class="st9" d="M1784,532h-4h-4h-4h-4v4h-4v4h-4h-4v-4h4h4v-4h4v-4h-4v-4h-4v4h-4h-4h-4h-4v-4h-4h-4v4h-4h-4v4h-4v-4h4v-4h4
			v-4h-4h-4v4h-4v4h-4h-4v-4h-4v4h-4v4h4v4h-4v-4h-4h-4h-4h-4v4h4v4h4h4h4h4h4v4h4h4h4h4h4h4h4h4h4h4h4h4h4h4h4h4h4v-4h-4v-4h4v4h4
			h4v-4h-4V532z M1744,536h-4v-4h4V536z M1736,532v4h-4v-4H1736z M1724,540v-4h4v4H1724z M1748,540v-4v-4h4v4v4H1748z"/>
		<rect x="1676" y="536" class="st9" width="4" height="4"/>
		<rect x="1684" y="536" class="st9" width="4" height="4"/>
		<rect x="1352" y="548" class="st9" width="4" height="4"/>
		<rect x="1380" y="548" class="st9" width="4" height="4"/>
		<rect x="1252" y="552" class="st9" width="4" height="4"/>
		<rect x="1296" y="552" class="st9" width="4" height="4"/>
		<rect x="1304" y="552" class="st9" width="4" height="4"/>
		<rect x="228" y="556" class="st9" width="4" height="4"/>
		<rect x="416" y="556" class="st9" width="4" height="4"/>
		<rect x="1084" y="556" class="st9" width="4" height="4"/>
		<rect x="1284" y="556" class="st9" width="4" height="4"/>
		<rect x="192" y="560" class="st9" width="4" height="4"/>
		<rect x="252" y="560" class="st9" width="4" height="4"/>
		<rect x="460" y="560" class="st9" width="4" height="4"/>
		<rect x="1072" y="560" class="st9" width="4" height="4"/>
		<rect x="1236" y="560" class="st9" width="4" height="4"/>
		<polygon class="st9" points="1348,560 1344,560 1344,556 1340,556 1336,556 1332,556 1332,560 1336,560 1340,560 1340,564 
			1344,564 1348,564 1352,564 1352,560 		"/>
		<polygon class="st9" points="1400,560 1404,560 1404,556 1400,556 1396,556 1396,560 1396,564 1400,564 		"/>
		<rect x="56" y="564" class="st9" width="4" height="4"/>
		<rect x="400" y="564" class="st9" width="4" height="4"/>
		<rect x="1108" y="564" class="st9" width="4" height="4"/>
		<rect x="1272" y="564" class="st9" width="4" height="4"/>
		<polygon class="st9" points="1292,568 1292,564 1288,564 1284,564 1284,568 1288,568 		"/>
		<rect x="1296" y="564" class="st9" width="4" height="4"/>
		<polygon class="st9" points="1360,568 1364,568 1368,568 1368,564 1372,564 1376,564 1380,564 1384,564 1388,564 1392,564 
			1392,560 1388,560 1384,560 1380,560 1380,556 1380,552 1376,552 1372,552 1368,552 1368,556 1372,556 1376,556 1376,560 
			1372,560 1368,560 1368,556 1364,556 1364,560 1360,560 1356,560 1356,564 1352,564 1352,568 1356,568 		"/>
		<polygon class="st9" points="1440,564 1436,564 1436,568 1440,568 1444,568 1448,568 1448,564 1444,564 		"/>
		<rect x="52" y="568" class="st9" width="4" height="4"/>
		<rect x="72" y="568" class="st9" width="4" height="4"/>
		<rect x="168" y="568" class="st9" width="4" height="4"/>
		<rect x="180" y="568" class="st9" width="4" height="4"/>
		<rect x="280" y="568" class="st9" width="4" height="4"/>
		<rect x="300" y="568" class="st9" width="4" height="4"/>
		<rect x="404" y="568" class="st9" width="4" height="4"/>
		<rect x="652" y="568" class="st9" width="4" height="4"/>
		<rect x="660" y="568" class="st9" width="4" height="4"/>
		<polygon class="st9" points="1136,572 1136,568 1132,568 1128,568 1124,568 1120,568 1120,572 1116,572 1116,568 1112,568 
			1112,572 1108,572 1104,572 1104,576 1108,576 1108,580 1108,584 1112,584 1116,584 1120,584 1120,580 1116,580 1116,576 
			1120,576 1124,576 1128,576 1132,576 1132,572 		"/>
		<path class="st9" d="M1432,568h-4h-4h-4v-4h4h4v-4h-4h-4h-4v4h-4h-4v4h-4h-4h-4v-4h-4v4h-4h-4h-4h-4h-4h-4v4h-4h-4h-4h-4v-4h-4h-4
			h-4h-4v-4h-4h-4h-4v4h-4h-4v4h4h4h4h4v4h-4h-4h-4h-4v-4h-4v4h-4v-4h4v-4h-4v-4h-4v4h-4v4h-4h-4v4h-4h-4h-4v4h4h4v4v4h-4h-4v-4h-4
			h-4h-4v4h-4h-4h-4v4h4h4h4h4v4h4h4h4v-4h4h4h4h4h4h4h4h4h4h4h4v-4h-4h-4v-4h4h4h4h4v4h4h4h4h4h4h4v-4h4h4h4h4h4h4h4h4v-4h4h4h4h4
			h4v-4h-4v-4h4v4h4v4h4v-4h4h4h4h4v-4h-4V568z M1336,572h4h4h4v4h-4h-4h-4V572z M1296,588h-4v-4h4h4v4H1296z M1312,584h-4v-4h4h4v4
			H1312z"/>
		<rect x="68" y="572" class="st9" width="4" height="4"/>
		<rect x="164" y="572" class="st9" width="4" height="4"/>
		<rect x="384" y="572" class="st9" width="4" height="4"/>
		<rect x="492" y="572" class="st9" width="4" height="4"/>
		<rect x="684" y="572" class="st9" width="4" height="4"/>
		<polygon class="st9" points="1140,572 1136,572 1136,576 1132,576 1132,580 1136,580 1140,580 1140,576 1144,576 1144,572 		"/>
		<rect x="1240" y="572" class="st9" width="4" height="4"/>
		<rect x="8" y="576" class="st9" width="4" height="4"/>
		<rect x="20" y="576" class="st9" width="4" height="4"/>
		<rect x="28" y="576" class="st9" width="4" height="4"/>
		<rect x="40" y="576" class="st9" width="4" height="4"/>
		<polygon class="st9" points="48,580 52,580 52,576 52,572 48,572 44,572 44,576 48,576 		"/>
		<rect x="64" y="576" class="st9" width="4" height="4"/>
		<rect x="108" y="576" class="st9" width="4" height="4"/>
		<rect x="144" y="576" class="st9" width="4" height="4"/>
		<rect x="168" y="576" class="st9" width="4" height="4"/>
		<polygon class="st9" points="292,580 296,580 296,576 292,576 292,572 288,572 288,576 284,576 284,580 288,580 		"/>
		<polygon class="st9" points="620,580 624,580 628,580 628,576 632,576 632,572 628,572 624,572 620,572 616,572 616,576 620,576 
					"/>
		<rect x="992" y="576" class="st9" width="4" height="4"/>
		<rect x="1016" y="576" class="st9" width="4" height="4"/>
		<rect x="1036" y="576" class="st9" width="4" height="4"/>
		<polygon class="st9" points="1100,580 1096,580 1092,580 1088,580 1084,580 1084,584 1088,584 1088,588 1092,588 1096,588 
			1096,584 1100,584 1100,588 1104,588 1104,584 1104,580 1104,576 1100,576 		"/>
		<polygon class="st9" points="1148,576 1144,576 1144,580 1148,580 1152,580 1152,576 		"/>
		<rect x="1272" y="576" class="st9" width="4" height="4"/>
		<rect x="24" y="580" class="st9" width="4" height="4"/>
		<rect x="44" y="580" class="st9" width="4" height="4"/>
		<rect x="52" y="580" class="st9" width="4" height="4"/>
		<rect x="104" y="580" class="st9" width="4" height="4"/>
		<rect x="120" y="580" class="st9" width="4" height="4"/>
		<rect x="364" y="580" class="st9" width="4" height="4"/>
		<rect x="676" y="580" class="st9" width="4" height="4"/>
		<rect x="984" y="580" class="st9" width="4" height="4"/>
		<rect x="1152" y="580" class="st9" width="4" height="4"/>
		<rect x="48" y="584" class="st9" width="4" height="4"/>
		<rect x="536" y="584" class="st9" width="4" height="4"/>
		<polygon class="st9" points="724,588 724,584 720,584 716,584 716,588 720,588 		"/>
		<rect x="752" y="584" class="st9" width="4" height="4"/>
		<polygon class="st9" points="444,588 440,588 436,588 436,592 440,592 444,592 		"/>
		<polygon class="st9" points="456,588 456,592 460,592 464,592 464,588 460,588 		"/>
		<rect x="476" y="588" class="st9" width="4" height="4"/>
		<rect x="920" y="588" class="st9" width="4" height="4"/>
		<rect x="944" y="588" class="st9" width="4" height="4"/>
		<path class="st9" d="M1080,588h-4h-4h-4v4h-4h-4h-4v-4h4h4v-4h4h4v-4h-4v-4v-4h-4v-4h4v-4h-4v-4h-4h-4h-4v4h4v4h4v4h-4h-4h-4v4h4
			v4h4v-4h4v4h-4v4h-4v4h-4v-4h4v-4h-4h-4h-4v4h-4h-4v4h-4v-4h4v-4h-4v-4h-4v4v4h-4h-4v-4h-4h-4h-4v4v4h-4v-4h-4h-4h-4v4h-4h-4h-4
			v-4h-4v4h-4h-4v-4h-4v4h-4h-4v4h-4v4h-4v-4h-4v-4h-4v4h-4h-4h-4v4h-4h-4v4h4v4h-4v-4h-4h-4v-4h-4h-4v-4h-4v4h-4h-4v-4v-4h-4v4v4
			h-4v-4h-4v4h-4v4v4h-4v-4v-4v-4h-4v4h-4v4h4v4h-4h-4h-4h-4h-4h-4v4h-4h-4v-4h-4h-4v4h-4h-4v-4h4v-4h-4h-4h-4v4v4h-4h-4h-4v-4h4h4
			v-4h-4h-4h-4v-4h-4h-4h-4v4h4h4v4h-4h-4v4h-4v-4h4v-4h-4h-4v4h-4h-4h-4h-4h-4v4h-4v4h-4v4h4h4v-4h4v-4h4h4h4h4v4h-4h-4h-4h-4v4h-4
			v4h4h4h4h4h4h4v4h-4v4h4v4h4h4h4h4h4v4h4h4v4h-4h-4v-4h-4v4h-4v4h-4h-4v4h4h4v4h-4h-4h-4h-4v-4h4v-4h-4h-4v-4h-4h-4h-4h-4v4h4h4h4
			v4h-4v4h4h4v4h-4h-4h-4h-4h-4h-4h-4v4h4h4h4h4v4h-4h-4h-4h-4v-4h-4h-4h-4v4h-4v4h4h4h4h4v4h-4h-4h-4h-4h-4v4h-4h-4h-4h-4v4h4h4h4
			v4h-4h-4h-4h-4h-4h-4h-4h-4h-4h-4h-4v4h-4v-4h-4h-4h-4h-4v4h-4h-4h-4h-4h-4v4h4h4h4h4h4h4h4h4h4h4h4h4h4h4h4h4h4h4h4v-4h4h4h4h4
			v-4h4h4h4h4h4h4h4h4h4h4h4h4h4v-4h4h4h4h4h4h4v-4h4h4h4v-4h4h4h4v-4h4h4h4v-4h4h4h4h4v-4h-4h-4h-4v-4v-4h4v-4h-4v-4h4h4v4h4h4h4
			v-4h-4v-4h4h4v-4h4v-4h4h4v4h-4v4h-4h-4v4h4h4v4h4h4v-4v-4v-4v-4h4v4h4v-4h4h4v-4h4v-4h4v4v4h4v-4v-4h4v-4h4v4h4h4v-4v-4h4h4v-4h4
			h4v-4h4h4v-4h4v-4h4h4h4h4h4h4h4h4h4v4h4h4h4v4h4h4h4h4v4h4h4h4h4h4h4h4h4v-4h4h4h4h4h4v-4h4v-4h4h4h4v-4h-4h-4v-4h4h4h4v-4h-4
			H1080z M1060,596v4h-4h-4v-4h4H1060z M1044,588v4h-4v-4H1044z M1008,592v-4h4v4H1008v4h-4v-4H1008z M940,596v4h-4v-4H940z
			 M760,672h4v4h-4V672z M800,624v-4h4v4h4h4h4h4v4h-4v4h-4v-4h-4h-4h-4V624z M784,664h-4v-4h4V664z M804,664v-4h4v4H804z M872,620
			v-4h4v4H872z M900,608h-4v-4h4V608z M880,604h4v4h-4h-4v-4H880z M864,608h4v4h-4h-4v-4H864z M848,608h4h4v4h-4h-4h-4v-4H848z
			 M836,612h4v4h-4h-4v-4H836z M776,612h4h4h4v4h4h4v-4h4h4v4h-4h-4v4h-4h-4v-4h-4h-4h-4V612z M792,628h-4v-4h4h4v4H792z M752,668h4
			v4h-4h-4v-4H752z M736,680v-4h4v4H736z M792,676v-4h4v4H792z M836,656v4h-4h-4h-4v-4h4h4v-4h4V656z M840,640v-4h4v4H840z M880,628
			v-4h4v4H880z M908,616v-4h4v4H908z M916,616v-4h4v4H916z M932,608v-4h4v4H932z"/>
		<rect x="1096" y="588" class="st9" width="4" height="4"/>
		<path class="st9" d="M136,592h-4v-4h4V592h4h4h4h4v-4h4h4h4h4h4h4h4h4h4v-4h4h4h4h4h4h4h4h4h4h4h4h4h4h4h4v4h4h4h4h4h4h4v-4h4h4h4
			v-4h-4v-4v-4h-4h-4h-4v4h-4v-4v-4v-4h-4v4h-4h-4v-4h-4v4h-4h-4v4h-4v4h4v4h-4v-4h-4v4h-4v-4h-4v-4h4v4h4v-4h4v-4v-4h4h4v-4h-4h-4
			h-4v4h-4h-4v4h-4v4h-4h-4v-4h4h4v-4h4v-4h-4h-4h-4v4h-4v-4h-4v4h-4v4h4v4h-4v4h-4v-4h4v-4h-4h-4h-4v4h-4v4h-4v-4h-4v4v4h-4v4h-4
			v-4h-4v4h-4v-4h4v-4h-4h-4v4h-4h-4v4h-4v-4h-4h-4v4h-4v-4v-4h-4v4v4h-4v4h-4v-4h-4v4h-4v-4h-4v4h-4v-4h-4v-4h-4h-4v4h4v4h-4v4h-4
			v-4h4v-4h-4v-4h-4v-4v-4h-4v4v4h-4h-4v4h-4v4h-4v4h-4v4h-4v-4h4v-4h4v-4v-4h-4v4h-4v4h-4v4h-4v-4h-4v-4h-4v4h-4v-4h4v-4h-4h-4v4
			h-4v4h4v4h4v4h-4v-4h-4v-4h-4v-4h-4v-4h-4h-4v4H8v4H4v-4h4v-4H4H0v4v4v4v4v4h4h4h4h4h4h4h4h4h4h4h4h4h4h4h4h4h4h4h4h4h4h4h4v-4h4
			h4h4h4h4h4h4h4h4h4h4V592z M276,576v4h-4v-4H276z M260,572v4h-4v-4H260z M252,572v4h-4v-4H252z M216,576v4h-4v-4H216z M192,576v4
			h-4v-4H192z M16,596v-4h4v4H16z M68,596v-4h4v4H68z M80,596v-4h4v4H80z"/>
		<rect x="472" y="592" class="st9" width="4" height="4"/>
		<rect x="816" y="592" class="st9" width="4" height="4"/>
		<polygon class="st9" points="916,596 916,592 912,592 908,592 908,596 912,596 		"/>
		<rect x="492" y="596" class="st9" width="4" height="4"/>
		<polygon class="st9" points="632,596 632,600 636,600 640,600 640,596 636,596 		"/>
		<path class="st9" d="M752,596h-4v-4h-4v4h-4h-4v-4h-4v4v4h-4h-4v-4h4v-4h-4h-4h-4v-4h-4h-4v-4h-4h-4v-4h-4v4h-4h-4v-4h-4v4v4h-4
			h-4v-4h-4v-4h4v-4h-4v-4h-4h-4v4v4h-4v-4h-4h-4v-4h-4h-4h-4h-4v4h4h4h4v4h-4v4h-4v4h-4v-4h4v-4h-4h-4h-4v4h-4v4h-4v-4v-4h-4v-4h-4
			v4h-4h-4v-4h-4v4h-4h-4v4h4v4h-4v-4h-4h-4v-4h-4v4v4h-4v-4h-4h-4v-4h-4v4h-4v4h-4v-4h-4h-4v4v4h-4h-4h-4v-4h-4v4h-4v-4h4v-4h-4h-4
			h-4v-4h-4v4h-4v4h4v4h4v4h-4v-4h-4v-4h-4h-4h-4v-4h4h4h4v-4h-4h-4v-4h-4v4h-4h-4v-4h-4v-4h-4v4h-4h-4v-4h4h4v-4v-4h-4v4h-4h-4v-4
			h-4v4h-4h-4h-4v4h-4v4h-4v-4h4v-4v-4h-4h-4h-4h-4h-4v-4h-4h-4v4h4v4h-4v-4h-4h-4h-4h-4v4h4v4v4h-4h-4h-4h-4v-4h-4v4v4h-4h-4h-4h-4
			v4h4v4h-4h-4h-4v4h4v4h4h4h4h4v-4h4v4h4h4v-4h4h4v4h-4h-4v4h4h4h4h4v-4h4h4v-4h-4h-4v-4h-4v-4h4v-4h4v4h-4v4h4h4h4v-4h-4v-4h4v4h4
			h4h4h4h4v-4h4v4h4h4v-4h-4v-4h4v4h4h4h4v4h4v-4h4v4h4v4v4h-4v4h4h4h4v-4v-4h4v4h4v4v4v4h4h4v-4h-4v-4h4h4v4h4v4h4v-4h4h4v-4h4v4h4
			h4h4h4v4h4v-4h4v4v4h4v-4h4h4v-4h4h4h4v-4h-4v-4h4v4h4h4h4h4v4h4v-4h4v4h4h4v-4v-4h4v4h4h4h4v-4h4h4h4v4h4h4v-4h4h4h4v4v4v4h4v4h4
			h4h4h4v-4h4h4h4h4v4h4h4v4h4h4h4v4h4h4h4h4h4v-4h4v-4h4v-4h4h4v-4V596z M444,568v4h-4v-4H444z M416,568h4v4h-4V568z M388,588v-4h4
			v4H388z M440,580h-4h-4v-4h-4h-4v-4h4h4v4h4h4h4v4H440z M560,600v-4h4v4H560z M604,592v-4h-4v-4h4v4h4v4H604z M720,604h-4v-4h4
			V604z M712,592v4h-4h-4v-4h4H712z M656,580v4h-4v-4H656z M672,604h-4v-4h4h4v4H672z M684,600v-4h4v4H684z"/>
		<rect x="756" y="596" class="st9" width="4" height="4"/>
		<rect x="768" y="596" class="st9" width="4" height="4"/>
		<rect x="804" y="596" class="st9" width="4" height="4"/>
		<rect x="836" y="596" class="st9" width="4" height="4"/>
		<rect x="852" y="596" class="st9" width="4" height="4"/>
		<rect x="228" y="600" class="st9" width="4" height="4"/>
		<rect x="256" y="600" class="st9" width="4" height="4"/>
		<polygon class="st9" points="584,604 588,604 588,600 584,600 580,600 580,604 		"/>
		<rect x="652" y="600" class="st9" width="4" height="4"/>
		<rect x="208" y="604" class="st9" width="4" height="4"/>
		<rect x="288" y="604" class="st9" width="4" height="4"/>
		<polygon class="st9" points="544,604 540,604 536,604 532,604 532,608 536,608 540,608 544,608 		"/>
		<rect x="180" y="608" class="st9" width="4" height="4"/>
		<polygon class="st9" points="200,608 196,608 196,612 192,612 188,612 184,612 184,616 188,616 192,616 196,616 200,616 200,612 
					"/>
		<rect x="268" y="608" class="st9" width="4" height="4"/>
		<rect x="276" y="608" class="st9" width="4" height="4"/>
		<rect x="216" y="612" class="st9" width="4" height="4"/>
		<rect x="308" y="612" class="st9" width="4" height="4"/>
		<rect x="316" y="612" class="st9" width="4" height="4"/>
		<rect x="340" y="612" class="st9" width="4" height="4"/>
		<polygon class="st9" points="676,612 672,612 672,616 676,616 680,616 684,616 688,616 692,616 696,616 696,612 692,612 692,608 
			688,608 684,608 680,608 680,612 		"/>
		<polygon class="st9" points="280,620 280,616 276,616 272,616 272,620 276,620 		"/>
		<rect x="360" y="616" class="st9" width="4" height="4"/>
		<rect x="144" y="620" class="st9" width="4" height="4"/>
		<rect x="412" y="624" class="st9" width="4" height="4"/>
		<polygon class="st9" points="760,624 756,624 752,624 748,624 744,624 744,628 748,628 752,628 756,628 760,628 		"/>
		<rect x="440" y="628" class="st9" width="4" height="4"/>
		<rect x="100" y="632" class="st9" width="4" height="4"/>
		<polygon class="st9" points="108,632 108,636 104,636 104,640 108,640 112,640 116,640 116,636 116,632 112,632 		"/>
		<polygon class="st9" points="408,636 412,636 416,636 420,636 424,636 428,636 428,632 424,632 420,632 416,632 412,632 408,632 
			404,632 404,636 		"/>
		<rect x="756" y="632" class="st9" width="4" height="4"/>
		<rect x="764" y="632" class="st9" width="4" height="4"/>
		<polygon class="st9" points="784,636 780,636 780,640 784,640 788,640 788,636 		"/>
		<polygon class="st9" points="436,644 440,644 444,644 448,644 448,640 444,640 440,640 436,640 432,640 428,640 428,644 432,644 
					"/>
		<polygon class="st9" points="456,640 452,640 452,644 456,644 460,644 460,640 		"/>
		<rect x="460" y="644" class="st9" width="4" height="4"/>
		<rect x="468" y="644" class="st9" width="4" height="4"/>
		<rect x="744" y="648" class="st9" width="4" height="4"/>
		<path class="st9" d="M460,652h-4h-4h-4h-4h-4v-4h-4h-4h-4v-4h-4v-4h-4h-4h-4h-4h-4v-4h-4h-4h-4h-4v4h-4h-4h-4v-4h4h4h4v-4h4h4h4h4
			v-4v-4h-4v4h-4v-4h-4v4h-4h-4h-4h-4h-4h-4v-4h-4h-4h-4h-4v4h-4h-4v-4h4h4v-4h4v-4h-4h-4v4h-4h-4h-4v4h-4h-4v-4h-4v4v4h-4h-4v-4h-4
			h-4v-4h-4v4h-4v4h-4v-4h-4v-4h4v-4h-4h-4v4h-4v4h-4h-4h-4v-4h-4v-4h-4v-4h-4h-4v-4h-4v4v4h-4h-4v-4h4v-4v-4h-4v4h-4v4h-4h-4v-4h-4
			v4v4h-4h-4v4h-4v-4h-4h-4v4h-4v-4h-4v4h-4h-4h-4h-4h-4h-4h-4v-4h-4v4h-4h-4v4h4v4v4h-4h-4v-4h-4h-4h-4h-4h-4v4v4h4h4v4v4h4h4h4h4
			h4h4h4h4h4v-4h4h4h4h4h4h4v-4h4h4h4v-4h4h4v-4h4h4h4v4h4h4h4h4v4h4h4h4h4h4v4h4h4h4h4h4h4v4h4h4h4h4h4h4h4v4h4h4h4h4h4h4v4h4h4h4
			h4h4h4v4h4h4h4h4h4v4h4h4h4h4v-4h4h4h4h4v4h-4h-4h-4h-4v4h4h4h4h4h4v-4h4v4h4h4h4h4v-4h4v-4h4v4h4h4v-4h-4V652z M416,644h4v4h-4
			h-4v-4H416z M356,632v4h-4v-4H356z M348,632v4h-4v-4H348z M308,628v4h-4v-4H308z M284,628h4v4h-4h-4v-4H284z M196,624v4h-4v-4H196
			z"/>
		<rect x="736" y="652" class="st9" width="4" height="4"/>
		<polygon class="st9" points="856,656 856,660 860,660 864,660 864,656 860,656 		"/>
		<rect x="708" y="660" class="st9" width="4" height="4"/>
		<polygon class="st9" points="452,668 456,668 460,668 460,664 456,664 452,664 448,664 448,668 		"/>
		<rect x="524" y="664" class="st9" width="4" height="4"/>
		<rect x="544" y="664" class="st9" width="4" height="4"/>
		<rect x="708" y="668" class="st9" width="4" height="4"/>
		<rect x="504" y="672" class="st9" width="4" height="4"/>
		<rect x="664" y="672" class="st9" width="4" height="4"/>
		<rect x="680" y="676" class="st9" width="4" height="4"/>
		<rect x="696" y="676" class="st9" width="4" height="4"/>
		<rect x="644" y="680" class="st9" width="4" height="4"/>
		<rect x="628" y="684" class="st9" width="4" height="4"/>
	</g>
</g>
</svg>
