<?xml version="1.0" encoding="utf-8"?>
<!-- Generator: Adobe Illustrator 24.2.0, SVG Export Plug-In . SVG Version: 6.00 Build 0)  -->
<svg version="1.1" id="圖層_1" shape-rendering="crispEdges"
	 xmlns="http://www.w3.org/2000/svg" xmlns:xlink="http://www.w3.org/1999/xlink" x="0px" y="0px" viewBox="0 0 56 56"
	 style="enable-background:new 0 0 56 56;" xml:space="preserve">
<style type="text/css">
	.st0{fill:#035E55;}
	.st1{fill:#009A6C;}
	.st2{fill:#05FFB5;}
	.st3{fill:#17CE98;}
	.st4{opacity:0.1176;fill:#011E1B;enable-background:new    ;}
</style>
<g>
</g>
<g>
	<polygon class="st1" points="4,12 0,12 0,16 4,16 8,16 8,12 	"/>
	<polygon class="st1" points="20,16 16,16 12,16 8,16 8,20 12,20 16,20 20,20 24,20 24,16 	"/>
	<rect x="24" y="20" class="st1" width="4" height="4"/>
</g>
<g>
	<rect x="20" class="st2" width="4" height="4"/>
	<polygon class="st2" points="12,4 12,8 16,8 20,8 20,4 16,4 	"/>
	<polygon class="st2" points="4,8 0,8 0,12 4,12 8,12 12,12 12,8 8,8 	"/>
	<polygon class="st2" points="36,20 32,20 28,20 28,24 32,24 36,24 40,24 44,24 44,20 40,20 	"/>
	<rect x="48" y="20" class="st2" width="4" height="4"/>
</g>
<g>
</g>
<g>
	<polygon class="st4" points="16,4 20,4 20,0 16,0 12,0 8,0 4,0 0,0 0,4 0,8 4,8 8,8 12,8 12,4 	"/>
	<path class="st4" d="M48,0h-4h-4h-4h-4h-4h-4v4h-4v4h-4h-4v4H8v4h4h4h4h4v4h4h4h4h4h4v4h-4h-4h-4h-4h-4v-4h-4h-4h-4H8v-4H4H0v4v4v4
		v4v4v4v4v4v4v4h4h4h4h4h4h4h4h4h4h4h4h4h4h4v-4v-4v-4v-4v-4v-4v-4v-4v-4v-4v-4V8V4V0h-4H48z M52,24h-4v-4h4V24z"/>
</g>
</svg>
