<?xml version="1.0" encoding="utf-8"?>
<!-- Generator: Adobe Illustrator 24.2.0, SVG Export Plug-In . SVG Version: 6.00 Build 0)  -->
<svg version="1.1" id="圖層_1" shape-rendering="crispEdges"
	 xmlns="http://www.w3.org/2000/svg" xmlns:xlink="http://www.w3.org/1999/xlink" x="0px" y="0px" viewBox="0 0 1200 800"
	 style="enable-background:new 0 0 1200 800;" xml:space="preserve">
<style type="text/css">
	.st0{fill:#878585;}
	.st1{fill:#696969;}
	.st2{fill:#2E3135;}
	.st3{fill:#D2E0F0;}
	.st4{fill:#CECBCB;}
	.st5{fill:#A99A8C;}
	.st6{fill:#5CC1D6;}
	.st7{fill:#FFE25B;}
	.st8{fill:#4F392F;}
	.st9{fill:#254A5A;}
	.st10{fill:#4F7F8C;}
	.st11{fill:#ADA8A8;}
	.st12{fill:#9A9696;}
	.st13{fill:#E5BCA0;}
	.st14{fill:#266951;}
	.st15{fill:#3B8B6F;}
	.st16{fill:#ABC0DA;}
	.st17{fill:#D6D0D0;}
	.st18{fill:#798594;}
	.st19{fill:#961515;}
	.st20{fill:#124365;}
	.st21{fill:#59E1B1;}
	.st22{fill:#EC5E5E;}
	.st23{fill:#26282D;}
	.st24{fill:#D6BDA4;}
	.st25{fill:#B03F4B;}
	.st26{fill:#9A7D6F;}
	.st27{fill:#8B6A5A;}
	.st28{fill:#7B817A;}
	.st29{fill:#694D3F;}
	.st30{fill:#716566;}
	.st31{fill:#A8E9D2;}
	.st32{fill:#DAEBEF;}
	.st33{fill:#F0F0F0;}
	.st34{fill:#89C3AE;}
	.st35{fill:#5E5044;}
	.st36{fill:#366F96;}
	.st37{fill:#E5CAAE;}
	.st38{fill:#18537C;}
	.st39{fill:#E9D3BD;}
	.st40{fill:#71835F;}
	.st41{fill:#FFE7D8;}
	.st42{fill:#99AEC7;}
	.st43{fill:#BFCFE2;}
	.st44{fill:#8995A5;}
	.st45{fill:#849673;}
	.st46{fill:#FFFFFF;}
	.st47{fill:#9BA8B8;}
	.st48{fill:#9E856D;}
	.st49{fill:#E5BB7E;}
	.st50{fill:#807367;}
	.st51{fill:#BC965F;}
	.st52{fill:#968677;}
	.st53{fill:#BFAFA0;}
	.st54{fill:#78695B;}
	.st55{fill:#33363B;}
	.st56{fill:#616A74;}
	.st57{fill:#DDDDDD;}
	.st58{fill:#44484E;}
	.st59{fill:#92785F;}
	.st60{fill:#4F393B;}
	.st61{fill:#745659;}
	.st62{fill:#758CA9;}
	.st63{fill:#62768E;}
	.st64{fill:#5E4547;}
	.st65{fill:#45566D;}
	.st66{fill:#D6C8BA;}
</style>
<rect x="584" y="60" class="st0" width="4" height="4"/>
<rect x="584" y="64" class="st0" width="4" height="4"/>
<rect x="584" y="68" class="st0" width="4" height="4"/>
<rect x="588" y="68" class="st1" width="4" height="4"/>
<rect x="584" y="72" class="st0" width="4" height="4"/>
<rect x="588" y="72" class="st1" width="4" height="4"/>
<rect x="584" y="76" class="st0" width="4" height="4"/>
<rect x="588" y="76" class="st1" width="4" height="4"/>
<rect x="584" y="80" class="st0" width="4" height="4"/>
<rect x="588" y="80" class="st1" width="4" height="4"/>
<rect x="584" y="84" class="st0" width="4" height="4"/>
<rect x="588" y="84" class="st1" width="4" height="4"/>
<rect x="584" y="88" class="st0" width="4" height="4"/>
<rect x="588" y="88" class="st1" width="4" height="4"/>
<rect x="584" y="92" class="st0" width="4" height="4"/>
<rect x="588" y="92" class="st1" width="4" height="4"/>
<rect x="584" y="96" class="st0" width="4" height="4"/>
<rect x="588" y="96" class="st1" width="4" height="4"/>
<rect x="588" y="116" class="st0" width="4" height="4"/>
<rect x="588" y="120" class="st0" width="4" height="4"/>
<rect x="588" y="124" class="st0" width="4" height="4"/>
<rect x="584" y="348" class="st2" width="4" height="4"/>
<g>
	<path class="st3" d="M780,360c-2,0-6,0-8,0v4c5,0,11,0,16,0v-4C786,360,782,360,780,360z"/>
	<path class="st3" d="M748,368v-4c-2,0-6,0-8,0v4C742,368,746,368,748,368z"/>
	<rect x="808" y="368" class="st3" width="4" height="4"/>
	<rect x="856" y="368" class="st3" width="4" height="4"/>
	<path class="st3" d="M764,376h-4v4c3.6,0,8.4,0,12,0v-4C770,376,766,376,764,376z"/>
	<path class="st3" d="M856,380v4h4c0-2,0-6,0-8h-4V380z"/>
	<path class="st3" d="M780,380h-4v4c3.6,0,8.4,0,12,0v-4C786,380,782,380,780,380z"/>
	<path class="st3" d="M812,384c0-2,0-6,0-8c-2,0-6,0-8,0c0,2,0,6,0,8C806,384,810,384,812,384z"/>
	<path class="st3" d="M744,384h-4v4h4v4c2,0,6,0,8,0c0-2,0-6,0-8C750,384,746,384,744,384z"/>
	<path class="st3" d="M760,392h-4v4c3.6,0,8.4,0,12,0v-4C766,392,762,392,760,392z"/>
	<rect x="808" y="396" class="st3" width="4" height="4"/>
	<path class="st3" d="M760,412v4c2,0,6,0,8,0v-4C766,412,762,412,760,412z"/>
	<path class="st3" d="M808,416h-4c0,2,0,6,0,8c3.6,0,8.4,0,12,0c0-2,0-6,0-8C814,416,810,416,808,416z"/>
	<path class="st3" d="M760,420h-4v4c3.6,0,8.4,0,12,0v-4C766,420,762,420,760,420z"/>
</g>
<rect x="580" y="424" class="st2" width="4" height="4"/>
<g>
	<rect x="764" y="360" class="st4" width="4" height="4"/>
	<polygon class="st4" points="756,364 756,368 756,372 760,372 764,372 764,368 764,364 760,364 	"/>
	<polygon class="st4" points="824,372 820,372 820,376 824,376 828,376 828,372 	"/>
	<polygon class="st4" points="832,380 832,376 828,376 828,380 828,384 832,384 	"/>
	<polygon class="st4" points="844,380 844,376 840,376 840,380 840,384 844,384 	"/>
	<polygon class="st4" points="852,380 852,376 848,376 848,380 848,384 852,384 	"/>
	<rect x="772" y="384" class="st4" width="4" height="4"/>
	<polygon class="st4" points="828,388 828,384 824,384 820,384 820,388 824,388 	"/>
	<polygon class="st4" points="760,388 756,388 756,392 760,392 764,392 768,392 768,388 764,388 	"/>
	<polygon class="st4" points="792,396 792,400 796,400 796,396 796,392 792,392 	"/>
	<polygon class="st4" points="760,396 756,396 756,400 760,400 764,400 768,400 768,396 764,396 	"/>
	<path class="st4" d="M856,404h-4v-4h-4v4h-4v4v4v4h4h4h4h4v-4v-4v-4H856z M856,412h-4v-4h4V412z"/>
	<rect x="748" y="416" class="st4" width="4" height="4"/>
	<polygon class="st4" points="780,416 776,416 772,416 772,420 776,420 780,420 784,420 784,416 	"/>
	<polygon class="st4" points="828,416 824,416 824,420 824,424 828,424 832,424 836,424 836,420 836,416 832,416 	"/>
	<rect x="752" y="420" class="st4" width="4" height="4"/>
	<rect x="784" y="420" class="st4" width="4" height="4"/>
	<rect x="748" y="424" class="st4" width="4" height="4"/>
	<polygon class="st4" points="776,424 772,424 772,428 776,428 780,428 784,428 784,424 780,424 	"/>
	<polygon class="st4" points="848,424 844,424 844,428 848,428 852,428 856,428 856,424 852,424 	"/>
</g>
<g>
	<path class="st5" d="M788,356c-14.6,0-29.4,0-44,0c0,2,0,6,0,8c2,0,6,0,8,0c0,2,0,6,0,8h4c0-3.6,0-8.4,0-12c3.6,0,8.4,0,12,0
		c0,3.6,0,8.4,0,12h4c0-3.6,0-8.4,0-12c6.4,0,13.6,0,20,0c0,3.6,0,8.4,0,12h4c0-5,0-11,0-16C794,356,790,356,788,356z"/>
	<path class="st5" d="M860,356c-17.2,0-34.8,0-52,0c0,3.6,0,8.4,0,12h4v4h4c0,5,0,11,0,16h4c0-5,0-11,0-16h4v-4h4v4h4c0,5,0,11,0,16
		c2,0,6,0,8,0c0-6.4,0-13.6,0-20h4c0,6.4,0,13.6,0,20h4c0-6.4,0-13.6,0-20h4c0,6.4,0,13.6,0,20h4c0-6.4,0-13.6,0-20h4
		c0,6.4,0,13.6,0,20h4c0-10.5,0-21.5,0-32H860z"/>
	<path class="st5" d="M788,376c-3.6,0-8.4,0-12,0v4c5,0,11,0,16,0c0,3.6,0,8.4,0,12h4c0-5,0-11,0-16C794,376,790,376,788,376z"/>
	<path class="st5" d="M752,384h4v-4h4v-4c-5,0-11,0-16,0c0,2,0,6,0,8C746,384,750,384,752,384z"/>
	<rect x="772" y="380" class="st5" width="4" height="4"/>
	<rect x="756" y="384" class="st5" width="4" height="4"/>
	<path class="st5" d="M772,388c0,3.6,0,8.4,0,12c2,0,6,0,8,0c0-2,0-6,0-8h-4v-4H772z"/>
	<path class="st5" d="M856,392c-15.9,0-32.1,0-48,0v4h4c0,2,0,6,0,8c2,0,6,0,8,0c0,3.6,0,8.4,0,12h-4c0,3.6,0,8.4,0,12c2,0,6,0,8,0
		c0-7.8,0-16.2,0-24h4c0-2,0-6,0-8h4c0,2,0,6,0,8c2,0,6,0,8,0c0,3.6,0,8.4,0,12h-4c0,3.6,0,8.4,0,12c2,0,6,0,8,0c0-7.8,0-16.2,0-24
		h4c0-2,0-6,0-8h4c0,2,0,6,0,8c2,0,6,0,8,0c0,3.6,0,8.4,0,12h-4c0,3.6,0,8.4,0,12c2,0,6,0,8,0c0-11.9,0-24.1,0-36
		C862,392,858,392,856,392z"/>
	<path class="st5" d="M788,404c-13.2,0-26.8,0-40,0c0,2,0,6,0,8h4v4c2,0,6,0,8,0v-4c2,0,6,0,8,0v4c2,0,6,0,8,0v-4c2,0,6,0,8,0v4h4
		c0,3.6,0,8.4,0,12c2,0,6,0,8,0c0-7.8,0-16.2,0-24C794,404,790,404,788,404z"/>
	<rect x="812" y="408" class="st5" width="4" height="4"/>
	<rect x="832" y="408" class="st5" width="4" height="4"/>
	<rect x="852" y="408" class="st5" width="4" height="4"/>
</g>
<g>
	<path class="st6" d="M452,420c0,3.6,0,8.4,0,12h4c0-5,0-11,0-16h-4V420z"/>
	<path class="st6" d="M472,416c0,5,0,11,0,16h4c0-5,0-11,0-16H472z"/>
</g>
<path class="st7" d="M480,408v-4h-4v-4h-4v-4c-5,0-11,0-16,0v4h-4v4h-4v4h-4c0,5,0,11,0,16h4v4h4c0-5,0-11,0-16c2,0,6,0,8,0v4h-4
	c0,6.4,0,13.6,0,20c5,0,11,0,16,0c0-6.4,0-13.6,0-20h-4v-4c2,0,6,0,8,0c0,5,0,11,0,16h4v-4h4c0-5,0-11,0-16H480z M468,428
	c-2,0-6,0-8,0v-4c2,0,6,0,8,0V428z"/>
<g>
	<rect x="636" y="428" class="st8" width="4" height="4"/>
	<rect x="632" y="432" class="st8" width="4" height="4"/>
	<rect x="640" y="432" class="st8" width="4" height="4"/>
</g>
<path class="st9" d="M552,388c-40,0-80,0-120,0c0,17.2,0,34.8,0,52h4c0-15.9,0-32.1,0-48c40,0,80,0,120,0v-4H552z"/>
<path class="st10" d="M552,392c-38.6,0-77.4,0-116,0c0,15.9,0,32.1,0,48c40,0,80,0,120,0c0-15.9,0-32.1,0-48H552z M468,436
	c-3.6,0-8.4,0-12,0v-4h-4v-4h-4v-4h-4c0-5,0-11,0-16h4v-4h4v-4h4v-4c5,0,11,0,16,0v4h4v4h4v4h4c0,5,0,11,0,16h-4v4h-4v4h-4v4H468z"
	/>
<g>
	<path class="st11" d="M588,136c0-6.4,0-13.6,0-20h-4c0,7.8,0,16.2,0,24h4V136z"/>
	<path class="st11" d="M588,164c0,14.6,0,29.4,0,44h4c0-15.9,0-32.1,0-48h-4V164z"/>
	<rect x="576" y="348" class="st11" width="4" height="4"/>
	<rect x="580" y="356" class="st11" width="4" height="4"/>
	<path class="st11" d="M768,368v-4h-4c0,2,0,6,0,8h4V368z"/>
	<rect x="828" y="372" class="st11" width="4" height="4"/>
	<rect x="840" y="372" class="st11" width="4" height="4"/>
	<rect x="848" y="372" class="st11" width="4" height="4"/>
	<rect x="828" y="384" class="st11" width="4" height="4"/>
	<rect x="840" y="384" class="st11" width="4" height="4"/>
	<rect x="848" y="384" class="st11" width="4" height="4"/>
	<rect x="768" y="388" class="st11" width="4" height="4"/>
	<rect x="768" y="396" class="st11" width="4" height="4"/>
	<path class="st11" d="M832,404v-4h-4v4h-4c0,3.6,0,8.4,0,12c5,0,11,0,16,0c0-3.6,0-8.4,0-12C838,404,834,404,832,404z M836,412h-4
		v-4h4V412z"/>
	<rect x="752" y="416" class="st11" width="4" height="4"/>
	<rect x="784" y="416" class="st11" width="4" height="4"/>
	<rect x="752" y="424" class="st11" width="4" height="4"/>
	<rect x="784" y="424" class="st11" width="4" height="4"/>
	<path class="st11" d="M828,424h-4v4c3.6,0,8.4,0,12,0v-4C834,424,830,424,828,424z"/>
	<path class="st11" d="M580,436v4c2,0,6,0,8,0v-4C586,436,582,436,580,436z"/>
</g>
<g>
	<path class="st12" d="M588,128c0,10.5,0,21.5,0,32h4c0-10.5,0-21.5,0-32H588z"/>
	<path class="st12" d="M588,416c0-5,0-11,0-16h-4c0,6.4,0,13.6,0,20h4V416z"/>
	<path class="st12" d="M588,428h-4c0,2,0,6,0,8h4C588,434,588,430,588,428z"/>
	<rect x="588" y="436" class="st12" width="4" height="4"/>
</g>
<g>
	<path class="st13" d="M320,396c-2,0-6,0-8,0v4c2,0,6,0,8,0c0,9.2,0,18.8,0,28h-4v4h-4v4c-7.8,0-16.2,0-24,0c0,2,0,6,0,8
		c11.9,0,24.1,0,36,0c0-15.9,0-32.1,0-48H320z"/>
	<path class="st13" d="M292,424c0-7.8,0-16.2,0-24c2,0,6,0,8,0v-4c-3.6,0-8.4,0-12,0c0,10.5,0,21.5,0,32h4V424z"/>
</g>
<path class="st14" d="M740,392c-41.3,0-82.7,0-124,0c0,17.2,0,34.8,0,52h4c0-15.9,0-32.1,0-48c41.3,0,82.7,0,124,0v-4H740z"/>
<g>
	<path class="st15" d="M740,396c-40,0-80,0-120,0c0,15.9,0,32.1,0,48c41.3,0,82.7,0,124,0c0-15.9,0-32.1,0-48H740z M636,400
		c2,0,6,0,8,0v4h4v4h-4v4c-3.6,0-8.4,0-12,0v-4h-4v-4h4v-4H636z M640,440c-2,0-6,0-8,0v-4h-4c0-6.4,0-13.6,0-20h4v4
		c3.6,0,8.4,0,12,0v-4h4c0,6.4,0,13.6,0,20h-4v4H640z"/>
	<path class="st15" d="M636,404h-4v4c3.6,0,8.4,0,12,0v-4C642,404,638,404,636,404z"/>
</g>
<g>
	<rect x="788" y="360" class="st16" width="4" height="4"/>
	<rect x="748" y="364" class="st16" width="4" height="4"/>
	<path class="st16" d="M780,364c-2,0-6,0-8,0c0,2,0,6,0,8c5,0,11,0,16,0c0-2,0-6,0-8C786,364,782,364,780,364z"/>
	<path class="st16" d="M748,368c-2,0-6,0-8,0v4c2,0,6,0,8,0V368z"/>
	<path class="st16" d="M808,372h-4v4c2,0,6,0,8,0v-4H808z"/>
	<rect x="856" y="372" class="st16" width="4" height="4"/>
	<rect x="772" y="376" class="st16" width="4" height="4"/>
	<path class="st16" d="M764,384h4v-4c-3.6,0-8.4,0-12,0v4C758,384,762,384,764,384z"/>
	<rect x="788" y="380" class="st16" width="4" height="4"/>
	<path class="st16" d="M816,380v-4h-4c0,2,0,6,0,8h4V380z"/>
	<path class="st16" d="M440,388c38.6,0,77.4,0,116,0v-4c-41.3,0-82.7,0-124,0v4C434,388,438,388,440,388z"/>
	<path class="st16" d="M780,384h-4c0,2,0,6,0,8c3.6,0,8.4,0,12,0c0-2,0-6,0-8C786,384,782,384,780,384z"/>
	<path class="st16" d="M812,388v-4c-2,0-6,0-8,0v4C806,388,810,388,812,388z"/>
	<rect x="856" y="384" class="st16" width="4" height="4"/>
	<path class="st16" d="M556,392c0,15.9,0,32.1,0,48h4c0-17.2,0-34.8,0-52h-4V392z"/>
	<path class="st16" d="M756,388v-4h-4c0,2,0,6,0,8h4V388z"/>
	<path class="st16" d="M748,396v4h4c0-2,0-6,0-8h-4V396z"/>
	<rect x="768" y="392" class="st16" width="4" height="4"/>
	<path class="st16" d="M812,404v-4h-4v4h-4c0,3.6,0,8.4,0,12c5,0,11,0,16,0c0-3.6,0-8.4,0-12C818,404,814,404,812,404z M816,412h-4
		v-4h4V412z"/>
	<path class="st16" d="M764,416c-2,0-6,0-8,0v4c3.6,0,8.4,0,12,0v-4H764z"/>
	<rect x="768" y="420" class="st16" width="4" height="4"/>
	<path class="st16" d="M760,424h-4v4c3.6,0,8.4,0,12,0v-4C766,424,762,424,760,424z"/>
	<path class="st16" d="M808,424h-4v4c3.6,0,8.4,0,12,0v-4C814,424,810,424,808,424z"/>
	<path class="st16" d="M432,432c0-14.6,0-29.4,0-44h-4c0,17.2,0,34.8,0,52h4C432,438,432,434,432,432z"/>
	<path class="st16" d="M548,440c-38.6,0-77.4,0-116,0v4c10.5,0,21.5,0,32,0v4h4v4c2,0,6,0,8,0c0-2,0-6,0-8c26.6,0,53.4,0,80,0v-4
		C554,440,550,440,548,440z"/>
	<rect x="476" y="452" class="st16" width="4" height="4"/>
</g>
<g>
	<path class="st17" d="M588,172c0-10.5,0-21.5,0-32h-4c0,11.9,0,24.1,0,36h4V172z"/>
	<path class="st17" d="M588,348h4c0-46.6,0-93.4,0-140h-4c0,41.3,0,82.7,0,124h-4c0,3.6,0,8.4,0,12h4V348z"/>
	<path class="st17" d="M600,452v-4h-4v-4h-4v-4c-3.6,0-8.4,0-12,0v4c2,0,6,0,8,0v4h4v4h4v4c2,0,6,0,8,0v-4H600z"/>
</g>
<g>
	<path class="st18" d="M1032,160v-4c-19.9,0-40.1,0-60,0v4h-4c0,19.9,0,40.1,0,60h4v4c19.9,0,40.1,0,60,0v-4h4c0-19.9,0-40.1,0-60
		H1032z M1032,184c0,5,0,11,0,16h-4c0,2,0,6,0,8h-4v4h-4v4c-2,0-6,0-8,0v4c-6.4,0-13.6,0-20,0v-4c-2,0-6,0-8,0v-4h-4v-4h-4
		c0-2,0-6,0-8h-4c0-6.4,0-13.6,0-20h4c0-2,0-6,0-8h4v-4h4v-4c2,0,6,0,8,0v-4c6.4,0,13.6,0,20,0v4c2,0,6,0,8,0v4h4v4h4c0,2,0,6,0,8h4
		V184z"/>
	<rect x="1000" y="188" class="st18" width="4" height="4"/>
	<path class="st18" d="M264,256c-15.9,0-32.1,0-48,0c0,7.8,0,16.2,0,24c11.9,0,24.1,0,36,0v-4h4v-4h4v-4h4v-4h4v-4h4v-4
		C270,256,266,256,264,256z"/>
	<path class="st18" d="M436,256c-26.6,0-53.4,0-80,0c0,13.2,0,26.8,0,40c23.9,0,48.1,0,72,0v-4h4v-4h4c0-2,0-6,0-8h4v-4h4
		c0-6.4,0-13.6,0-20C442,256,438,256,436,256z"/>
	<path class="st18" d="M528,260h-4v4h-4v4h-4c0,2,0,6,0,8h-4v4h-4v4h-4v4h-4c0,2,0,6,0,8c10.5,0,21.5,0,32,0c0-13.2,0-26.8,0-40h-4
		V260z"/>
	<path class="st18" d="M576,256c-13.2,0-26.8,0-40,0c0,13.2,0,26.8,0,40c15.9,0,32.1,0,48,0c0-13.2,0-26.8,0-40
		C582,256,578,256,576,256z"/>
	<path class="st18" d="M612,256c-6.4,0-13.6,0-20,0c0,13.2,0,26.8,0,40c9.2,0,18.8,0,28,0c0-13.2,0-26.8,0-40
		C618,256,614,256,612,256z"/>
	<path class="st18" d="M680,256c-2,0-6,0-8,0v4h-4v4h-4c0,2,0,6,0,8h-4v4h-4v4h-4c0,2,0,6,0,8h-4v4h-4v4c5,0,11,0,16,0v-4h4v-4h4
		c0-2,0-6,0-8h4v-4h4v-4h4c0-2,0-6,0-8h4v-4h4v-4C686,256,682,256,680,256z"/>
	<path class="st18" d="M848,256c-19.9,0-40.1,0-60,0v4h-4v4h-4c0,2,0,6,0,8h-4v4h-4v4h-4c0,5,0,11,0,16c22.6,0,45.4,0,68,0
		c0-2,0-6,0-8h4v-4h4v-4h4v-4h4c0-2,0-6,0-8h4c0-3.6,0-8.4,0-12C854,256,850,256,848,256z"/>
	<rect x="860" y="256" class="st18" width="4" height="4"/>
	<path class="st18" d="M912,256c-9.2,0-18.8,0-28,0v4h-4v4h-4v4h-4c0,2,0,6,0,8h-4v4h-4v4h-4c0,3.6,0,8.4,0,12c9.2,0,18.8,0,28,0v-4
		h4v-4h4v-4h4v-4h4c0-2,0-6,0-8h4v-4h4v-4h4v-4h4v-4C918,256,914,256,912,256z"/>
	<path class="st18" d="M1024,256c-6.4,0-13.6,0-20,0v4h-4v4h-4v4h-4v4h-4c0,2,0,6,0,8h-4v4h-4v4h-4v4h-4v4c19.9,0,40.1,0,60,0
		c0-13.2,0-26.8,0-40C1030,256,1026,256,1024,256z"/>
	<path class="st18" d="M452,260h4v-4c-2,0-6,0-8,0c0,2,0,6,0,8h4V260z"/>
	<path class="st18" d="M500,264h4v-4h4v-4c-14.6,0-29.4,0-44,0v4h-4v4h-4c0,2,0,6,0,8h-4v4h-4c0,6.4,0,13.6,0,20c10.5,0,21.5,0,32,0
		c0-2,0-6,0-8h4v-4h4v-4h4v-4h4c0-2,0-6,0-8h4V264z"/>
	<path class="st18" d="M644,284v-4h4v-4h4v-4h4c0-2,0-6,0-8h4v-4h4v-4c-13.2,0-26.8,0-40,0c0,13.2,0,26.8,0,40c3.6,0,8.4,0,12,0v-4
		h4v-4h4V284z"/>
	<path class="st18" d="M440,292h-4v4c2,0,6,0,8,0c0-2,0-6,0-8h-4V292z"/>
	<path class="st18" d="M664,480h-4c0,3.6,0,8.4,0,12h4v-4h4c0-3.6,0-8.4,0-12h-4V480z"/>
</g>
<rect x="656" y="500" class="st19" width="4" height="4"/>
<rect x="656" y="504" class="st19" width="4" height="4"/>
<rect x="656" y="508" class="st19" width="4" height="4"/>
<rect x="504" y="512" class="st20" width="4" height="4"/>
<rect x="640" y="512" class="st21" width="4" height="4"/>
<rect x="652" y="512" class="st19" width="4" height="4"/>
<rect x="644" y="516" class="st21" width="4" height="4"/>
<rect x="648" y="516" class="st19" width="4" height="4"/>
<rect x="652" y="516" class="st21" width="4" height="4"/>
<rect x="808" y="516" class="st22" width="4" height="4"/>
<rect x="504" y="520" class="st20" width="4" height="4"/>
<rect x="504" y="528" class="st20" width="4" height="4"/>
<rect x="584" y="528" class="st19" width="4" height="4"/>
<rect x="588" y="528" class="st19" width="4" height="4"/>
<rect x="584" y="532" class="st19" width="4" height="4"/>
<rect x="584" y="536" class="st19" width="4" height="4"/>
<rect x="588" y="536" class="st19" width="4" height="4"/>
<g>
	<path class="st23" d="M792,520c0-2,0-6,0-8h-4v4h-4v4C786,520,790,520,792,520z"/>
	<rect x="780" y="520" class="st23" width="4" height="4"/>
	<rect x="776" y="524" class="st23" width="4" height="4"/>
	<path class="st23" d="M772,532h-4v4c2,0,6,0,8,0c0-2,0-6,0-8h-4V532z"/>
	<rect x="792" y="528" class="st23" width="4" height="4"/>
	<rect x="788" y="532" class="st23" width="4" height="4"/>
	<path class="st23" d="M812,532c0,3.6,0,8.4,0,12h4c0-3.6,0-8.4,0-12H812z"/>
	<path class="st23" d="M764,540c-3.6,0-8.4,0-12,0v4c5,0,11,0,16,0c0-2,0-6,0-8h-4V540z"/>
	<rect x="784" y="536" class="st23" width="4" height="4"/>
</g>
<g>
	<path class="st24" d="M556,532c-5,0-11,0-16,0v-4h-4c0,6.4,0,13.6,0,20h4v4h4c0-3.6,0-8.4,0-12c3.6,0,8.4,0,12,0v-4h4c0-2,0-6,0-8
		h-4V532z"/>
	<path class="st24" d="M608,532v-4c-2,0-6,0-8,0v-4c-2,0-6,0-8,0v-4c-7.8,0-16.2,0-24,0v4h-4v4c10.5,0,21.5,0,32,0v4h4v4
		c3.6,0,8.4,0,12,0v-4H608z"/>
</g>
<g>
	<path class="st25" d="M200,428c0,2,0,6,0,8c2,0,6,0,8,0c0-2,0-6,0-8C206,428,202,428,200,428z"/>
	<rect x="188" y="492" class="st25" width="4" height="4"/>
	<rect x="656" y="496" class="st25" width="4" height="4"/>
	<path class="st25" d="M640,512v-4h-4c0,3.6,0,8.4,0,12h4C640,518,640,514,640,512z"/>
	<path class="st25" d="M640,520c0,2,0,6,0,8h4v-4h4v-4C646,520,642,520,640,520z"/>
	<rect x="636" y="528" class="st25" width="4" height="4"/>
	<path class="st25" d="M596,532c-2,0-6,0-8,0v4c3.6,0,8.4,0,12,0v-4H596z"/>
	<rect x="632" y="532" class="st25" width="4" height="4"/>
	<path class="st25" d="M624,536c-7.8,0-16.2,0-24,0v4c10.5,0,21.5,0,32,0v-4C630,536,626,536,624,536z"/>
	<path class="st25" d="M200,548c0,2,0,6,0,8c2,0,6,0,8,0c0-2,0-6,0-8C206,548,202,548,200,548z"/>
</g>
<g>
	<path class="st26" d="M224,400c-15.9,0-32.1,0-48,0v4h-4c0,11.9,0,24.1,0,36h4c0-10.5,0-21.5,0-32h4v-4c15.9,0,32.1,0,48,0v-4H224z
		"/>
	<rect x="228" y="404" class="st26" width="4" height="4"/>
	<path class="st26" d="M224,460c-15.9,0-32.1,0-48,0v4h-4c0,11.9,0,24.1,0,36h4c0-10.5,0-21.5,0-32h4v-4c15.9,0,32.1,0,48,0v-4H224z
		"/>
	<rect x="228" y="464" class="st26" width="4" height="4"/>
	<path class="st26" d="M224,520c-15.9,0-32.1,0-48,0v4h-4c0,11.9,0,24.1,0,36h4c0-10.5,0-21.5,0-32h4v-4c15.9,0,32.1,0,48,0v-4H224z
		"/>
	<rect x="228" y="524" class="st26" width="4" height="4"/>
</g>
<g>
	<path class="st27" d="M188,408c13.2,0,26.8,0,40,0v-4c-15.9,0-32.1,0-48,0v4C182,408,186,408,188,408z"/>
	<path class="st27" d="M228,408c0,10.5,0,21.5,0,32h4c0-10.5,0-21.5,0-32H228z"/>
	<path class="st27" d="M220,440c-13.2,0-26.8,0-40,0c0-10.5,0-21.5,0-32h-4c0,11.9,0,24.1,0,36c17.2,0,34.8,0,52,0v-4
		C226,440,222,440,220,440z"/>
	<path class="st27" d="M188,468c13.2,0,26.8,0,40,0v-4c-15.9,0-32.1,0-48,0v4C182,468,186,468,188,468z"/>
	<path class="st27" d="M228,472c0,9.2,0,18.8,0,28h4c0-10.5,0-21.5,0-32h-4V472z"/>
	<path class="st27" d="M220,500c-13.2,0-26.8,0-40,0c0-10.5,0-21.5,0-32h-4c0,11.9,0,24.1,0,36c17.2,0,34.8,0,52,0v-4
		C226,500,222,500,220,500z"/>
	<path class="st27" d="M188,528c13.2,0,26.8,0,40,0v-4c-15.9,0-32.1,0-48,0v4C182,528,186,528,188,528z"/>
	<path class="st27" d="M228,532c0,9.2,0,18.8,0,28h4c0-10.5,0-21.5,0-32h-4V532z"/>
	<path class="st27" d="M220,560c-13.2,0-26.8,0-40,0c0-10.5,0-21.5,0-32h-4c0,11.9,0,24.1,0,36c17.2,0,34.8,0,52,0v-4
		C226,560,222,560,220,560z"/>
</g>
<g>
	<path class="st28" d="M632,504v-4h-4v-4h-4c0-2,0-6,0-8h-4v-4h-4c0-2,0-6,0-8h-4v-4h-4v-4h-4c0-2,0-6,0-8h-4v-4c-9.2,0-18.8,0-28,0
		v4h-4c0,2,0,6,0,8h-4v4h-4v4h-4c0,2,0,6,0,8h-4v4h-4c0,2,0,6,0,8h-4v4h-4v4h-4c0,2,0,6,0,8h-4v4h-4v4h-4v4h-4c0,6.4,0,13.6,0,20
		c5,0,11,0,16,0c0-5,0-11,0-16h4v4c5,0,11,0,16,0v-4c2,0,6,0,8,0v-4h4v-4c7.8,0,16.2,0,24,0v4c2,0,6,0,8,0v4c2,0,6,0,8,0v4h4v4
		c2,0,6,0,8,0v-4h4c0-2,0-6,0-8h4c0-2,0-6,0-8h4v-4h4c0-2,0-6,0-8H632z"/>
	<path class="st28" d="M516,552c0,3.6,0,8.4,0,12h4c0-5,0-11,0-16h-4V552z"/>
</g>
<g>
	<rect x="172" y="440" class="st29" width="4" height="4"/>
	<rect x="228" y="440" class="st29" width="4" height="4"/>
	<path class="st29" d="M220,444c-14.6,0-29.4,0-44,0v4c17.2,0,34.8,0,52,0v-4C226,444,222,444,220,444z"/>
	<rect x="172" y="500" class="st29" width="4" height="4"/>
	<rect x="228" y="500" class="st29" width="4" height="4"/>
	<path class="st29" d="M220,504c-14.6,0-29.4,0-44,0v4c17.2,0,34.8,0,52,0v-4C226,504,222,504,220,504z"/>
	<rect x="172" y="560" class="st29" width="4" height="4"/>
	<rect x="228" y="560" class="st29" width="4" height="4"/>
	<path class="st29" d="M220,564c-14.6,0-29.4,0-44,0v4c17.2,0,34.8,0,52,0v-4C226,564,222,564,220,564z"/>
</g>
<g>
	<path class="st30" d="M312,396c0-2,0-6,0-8c-3.6,0-8.4,0-12,0c0,3.6,0,8.4,0,12h-4v4c6.4,0,13.6,0,20,0v-4h-4V396z M304,392h4v4h-4
		V392z"/>
	<path class="st30" d="M356,484c0-3.6,0-8.4,0-12c-3.6,0-8.4,0-12,0c0,3.6,0,8.4,0,12h-4v4c6.4,0,13.6,0,20,0v-4H356z M348,476h4v4
		h-4V476z"/>
	<path class="st30" d="M344,564c0-2,0-6,0-8c-3.6,0-8.4,0-12,0c0,3.6,0,8.4,0,12h-4v4c6.4,0,13.6,0,20,0v-4h-4V564z M336,560h4v4h-4
		V560z"/>
</g>
<g>
	<path class="st31" d="M624,392c40,0,80,0,120,0v-4c-42.6,0-85.4,0-128,0v4C618,392,622,392,624,392z"/>
	<path class="st31" d="M744,392c0,17.2,0,34.8,0,52h4c0-17.2,0-34.8,0-52H744z"/>
	<path class="st31" d="M616,436c0-14.6,0-29.4,0-44h-4c0,17.2,0,34.8,0,52h4C616,442,616,438,616,436z"/>
	<path class="st31" d="M736,444c-40,0-80,0-120,0v4c17.2,0,34.8,0,52,0c0,2,0,6,0,8c2,0,6,0,8,0v-4h4v-4c21.3,0,42.7,0,64,0v-4
		C742,444,738,444,736,444z"/>
	<rect x="664" y="456" class="st31" width="4" height="4"/>
	<rect x="640" y="516" class="st31" width="4" height="4"/>
	<path class="st31" d="M640,520h-4c0,2,0,6,0,8h4C640,526,640,522,640,520z"/>
	<path class="st31" d="M648,520v4h-4v4h-4v4h-4c0,2,0,6,0,8h-4c0,2,0,6,0,8h-4v4h-4c0,5,0,11,0,16h4v4c3.6,0,8.4,0,12,0v-4h4v-4h4
		v-4h4c0-5,0-11,0-16h4c0-7.8,0-16.2,0-24C654,520,650,520,648,520z"/>
</g>
<g>
	<path class="st32" d="M600,568c-2,0-6,0-8,0v4c5,0,11,0,16,0v-4C606,568,602,568,600,568z"/>
	<path class="st32" d="M620,568h-4v4h-4v4c3.6,0,8.4,0,12,0c0-2,0-6,0-8H620z"/>
	<path class="st32" d="M584,572v-4c-9.2,0-18.8,0-28,0v-4c-3.6,0-8.4,0-12,0v-4h4v-4c5,0,11,0,16,0v-4c2,0,6,0,8,0v-4h-4v-4
		c-2,0-6,0-8,0v4h-4v4c-5,0-11,0-16,0v-4h-4v-4c-5,0-11,0-16,0c0,7.8,0,16.2,0,24h4v4c3.6,0,8.4,0,12,0v4c6.4,0,13.6,0,20,0v4
		c15.9,0,32.1,0,48,0v-4c-3.6,0-8.4,0-12,0v-4C590,572,586,572,584,572z"/>
</g>
<g>
	<path class="st33" d="M588,328c0-50.6,0-101.4,0-152h-4c0,52,0,104,0,156h4V328z"/>
	<path class="st33" d="M588,348v-4c-2,0-6,0-8,0c0,2,0,6,0,8h4v-4H588z"/>
	<path class="st33" d="M588,352h-4v4c2,0,6,0,8,0c0-2,0-6,0-8h-4V352z"/>
	<path class="st33" d="M548,384h4v-4c-3.6,0-8.4,0-12,0v4C542,384,546,384,548,384z"/>
	<path class="st33" d="M640,404h4v-4c-3.6,0-8.4,0-12,0v4C634,404,638,404,640,404z"/>
	<rect x="628" y="404" class="st33" width="4" height="4"/>
	<rect x="644" y="404" class="st33" width="4" height="4"/>
	<path class="st33" d="M636,408h-4v4c3.6,0,8.4,0,12,0v-4C642,408,638,408,636,408z"/>
	<path class="st33" d="M580,420v4h4v4h4c0-2,0-6,0-8C586,420,582,420,580,420z"/>
	<path class="st33" d="M580,424h-4c0,2,0,6,0,8c2,0,6,0,8,0v-4h-4V424z"/>
	<path class="st33" d="M548,576c-3.6,0-8.4,0-12,0v-4c-3.6,0-8.4,0-12,0v-4h-4c0,3.6,0,8.4,0,12c11.9,0,24.1,0,36,0v-4
		C554,576,550,576,548,576z"/>
	<path class="st33" d="M616,576c-3.6,0-8.4,0-12,0v4c6.4,0,13.6,0,20,0v-4C622,576,618,576,616,576z"/>
</g>
<path class="st34" d="M652,544c0,5,0,11,0,16h-4v4h-4v4h-4v4c-3.6,0-8.4,0-12,0v-4h-4c0,2,0,6,0,8h4v4c9.2,0,18.8,0,28,0
	c0-11.9,0-24.1,0-36H652z"/>
<rect x="496" y="580" class="st20" width="4" height="4"/>
<rect x="500" y="580" class="st20" width="4" height="4"/>
<rect x="504" y="580" class="st20" width="4" height="4"/>
<rect x="508" y="580" class="st20" width="4" height="4"/>
<g>
	<path class="st35" d="M844,520c-5,0-11,0-16,0c0,2,0,6,0,8h4v-4h4v4h-4v4c3.6,0,8.4,0,12,0v-4h-4v-4h4v4h4c0-2,0-6,0-8H844z"/>
	<rect x="644" y="580" class="st35" width="4" height="4"/>
</g>
<g>
	<path class="st36" d="M492,512h-4v4h-4v4h-4v4h-4c0,2,0,6,0,8h-4c0,5,0,11,0,16c2,0,6,0,8,0c0-3.6,0-8.4,0-12h4c0-2,0-6,0-8h4v-4h4
		v-4h4c0-2,0-6,0-8H492z"/>
	<path class="st36" d="M492,564c0-5,0-11,0-16h-4c0,2,0,6,0,8h-4c0,10.5,0,21.5,0,32h4v-4h4v-4h4c0-3.6,0-8.4,0-12h-4V564z"/>
</g>
<g>
	<path class="st37" d="M308,408c-3.6,0-8.4,0-12,0v4c6.4,0,13.6,0,20,0v-4C314,408,310,408,308,408z"/>
	<path class="st37" d="M308,416c-3.6,0-8.4,0-12,0v4c6.4,0,13.6,0,20,0v-4C314,416,310,416,308,416z"/>
	<path class="st37" d="M296,424v4c2,0,6,0,8,0v-4C302,424,298,424,296,424z"/>
	<path class="st37" d="M660,488c-2,0-6,0-8,0v-4h-4c0,3.6,0,8.4,0,12c-2,0-6,0-8,0c0-3.6,0-8.4,0-12h-4c0,2,0,6,0,8h-4c0,2,0,6,0,8
		h4v4h4v4c2,0,6,0,8,0v-4c2,0,6,0,8,0c0-2,0-6,0-8h4v4h4c0-2,0-6,0-8h-4V488z"/>
	<path class="st37" d="M512,496c0-5,0-11,0-16h-4c0,3.6,0,8.4,0,12h-4c0-3.6,0-8.4,0-12c-2,0-6,0-8,0c0,2,0,6,0,8h-4c0,2,0,6,0,8h4
		v4h4v4c2,0,6,0,8,0v-4h4V496z"/>
	<path class="st37" d="M620,540c-2,0-6,0-8,0v4h-4v-4c-2,0-6,0-8,0v-4h-4c0,2,0,6,0,8h4v4h4v4h4v4c2,0,6,0,8,0v-4c2,0,6,0,8,0v-4h4
		c0-2,0-6,0-8C626,540,622,540,620,540z"/>
	<path class="st37" d="M476,552c0,11.9,0,24.1,0,36h4c0-13.2,0-26.8,0-40h-4V552z"/>
	<path class="st37" d="M676,548h-4c0,11.9,0,24.1,0,36h4c0-5,0-11,0-16h4c0-6.4,0-13.6,0-20H676z"/>
	<path class="st37" d="M512,556c0,10.5,0,21.5,0,32h4c0-11.9,0-24.1,0-36h-4V556z"/>
</g>
<g>
	<path class="st38" d="M516,528c0-2,0-6,0-8h-4c0-2,0-6,0-8h-4v4h-4v-4c-2,0-6,0-8,0c0,2,0,6,0,8h-4v4h-4v4h-4c0,2,0,6,0,8h-4
		c0,5,0,11,0,16h4v4h4c0-2,0-6,0-8h4c0,6.4,0,13.6,0,20h4c0,3.6,0,8.4,0,12c5,0,11,0,16,0c0-9.2,0-18.8,0-28h4v-4h4
		c0-6.4,0-13.6,0-20H516z M508,532h-4v-4h4V532z M508,520v4h-4v-4H508z"/>
	<rect x="492" y="580" class="st38" width="4" height="4"/>
	<rect x="488" y="584" class="st38" width="4" height="4"/>
	<rect x="484" y="588" class="st38" width="4" height="4"/>
</g>
<g>
	<rect x="500" y="508" class="st39" width="4" height="4"/>
	<polygon class="st39" points="648,512 644,512 644,516 648,516 652,516 652,512 	"/>
	<polygon class="st39" points="340,576 336,576 332,576 328,576 328,580 332,580 336,580 340,580 344,580 348,580 348,576 344,576 	
		"/>
	<polygon class="st39" points="332,584 328,584 328,588 332,588 336,588 340,588 340,584 336,584 	"/>
	<polygon class="st39" points="328,592 328,596 332,596 336,596 336,592 332,592 	"/>
</g>
<g>
	<path class="st40" d="M1048,548v-4h-4c0,2,0,6,0,8h4V548z"/>
	<rect x="1040" y="552" class="st40" width="4" height="4"/>
	<path class="st40" d="M1052,572c0,3.6,0,8.4,0,12h-4c0,2,0,6,0,8h-4c0,2,0,6,0,8h4v-4h4v-4h4c0-6.4,0-13.6,0-20H1052z"/>
	<path class="st40" d="M1040,576h-4c0,2,0,6,0,8h4C1040,582,1040,578,1040,576z"/>
	<path class="st40" d="M1048,580c0-3.6,0-8.4,0-12h-4c0,5,0,11,0,16h4V580z"/>
	<path class="st40" d="M1044,584h-4c0,2,0,6,0,8h4C1044,590,1044,586,1044,584z"/>
	<path class="st40" d="M1036,596v4h4c0-2,0-6,0-8h-4V596z"/>
</g>
<g>
	<path class="st41" d="M788,352c-18.6,0-37.4,0-56,0v4c21.3,0,42.7,0,64,0v-4C794,352,790,352,788,352z"/>
	<path class="st41" d="M856,352c-18.6,0-37.4,0-56,0v4c21.3,0,42.7,0,64,0v-4C862,352,858,352,856,352z"/>
	<path class="st41" d="M924,352c-18.6,0-37.4,0-56,0v4c21.3,0,42.7,0,64,0v-4C930,352,926,352,924,352z"/>
	<path class="st41" d="M956,352c-6.4,0-13.6,0-20,0v4c9.2,0,18.8,0,28,0v-4C962,352,958,352,956,352z"/>
	<path class="st41" d="M1024,352c-5,0-11,0-16,0v4c6.4,0,13.6,0,20,0v-4H1024z"/>
	<path class="st41" d="M308,428c0,2,0,6,0,8h4v-4h4v-4C314,428,310,428,308,428z"/>
	<path class="st41" d="M512,476v-4c-5,0-11,0-16,0c0,2,0,6,0,8c2,0,6,0,8,0c0,3.6,0,8.4,0,12h4c0-3.6,0-8.4,0-12h4V476z"/>
	<path class="st41" d="M656,476c-6.4,0-13.6,0-20,0c0,2,0,6,0,8h4c0,3.6,0,8.4,0,12c2,0,6,0,8,0c0-3.6,0-8.4,0-12h4v4c2,0,6,0,8,0
		c0-2,0-6,0-8h-4V476z"/>
	<rect x="592" y="528" class="st41" width="4" height="4"/>
	<rect x="740" y="544" class="st41" width="4" height="4"/>
	<path class="st41" d="M668,588c0,2,0,6,0,8c2,0,6,0,8,0c0-2,0-6,0-8C674,588,670,588,668,588z"/>
	<path class="st41" d="M476,596v4h4c0-2,0-6,0-8h-4V596z"/>
	<path class="st41" d="M512,596v4h4c0-2,0-6,0-8h-4V596z"/>
	<rect x="348" y="596" class="st41" width="4" height="4"/>
	<rect x="344" y="600" class="st41" width="4" height="4"/>
</g>
<g>
	<path class="st42" d="M788,368v4h4c0-2,0-6,0-8h-4V368z"/>
	<rect x="748" y="368" class="st42" width="4" height="4"/>
	<rect x="812" y="372" class="st42" width="4" height="4"/>
	<rect x="768" y="380" class="st42" width="4" height="4"/>
	<path class="st42" d="M788,388v4h4c0-2,0-6,0-8h-4V388z"/>
	<rect x="812" y="384" class="st42" width="4" height="4"/>
	<path class="st42" d="M752,396v4h4c0-2,0-6,0-8h-4V396z"/>
	<path class="st42" d="M644,420c-3.6,0-8.4,0-12,0v-4h-4c0,6.4,0,13.6,0,20h4v-4h4v-4h4v4h4v4h4c0-6.4,0-13.6,0-20h-4V420z"/>
	<rect x="768" y="416" class="st42" width="4" height="4"/>
	<rect x="768" y="424" class="st42" width="4" height="4"/>
	<path class="st42" d="M640,432h-4v4h-4v4c3.6,0,8.4,0,12,0v-4h-4V432z"/>
	<path class="st42" d="M900,512c-9.2,0-18.8,0-28,0v4h4v4h4v4h4v4h4v4h4v4c3.6,0,8.4,0,12,0c0-7.8,0-16.2,0-24H900z"/>
	<path class="st42" d="M804,520h-4v4c3.6,0,8.4,0,12,0v-4C810,520,806,520,804,520z"/>
	<path class="st42" d="M616,580c-31.9,0-64.1,0-96,0c0,7.8,0,16.2,0,24c34.6,0,69.4,0,104,0c0-7.8,0-16.2,0-24
		C622,580,618,580,616,580z"/>
</g>
<g>
	<path class="st43" d="M268,404c3.6,0,8.4,0,12,0v-4c-6.4,0-13.6,0-20,0v4C262,404,266,404,268,404z"/>
	<rect x="324" y="400" class="st43" width="4" height="4"/>
	<rect x="348" y="400" class="st43" width="4" height="4"/>
	<path class="st43" d="M268,428c3.6,0,8.4,0,12,0v-4c-6.4,0-13.6,0-20,0v4C262,428,266,428,268,428z"/>
	<rect x="324" y="424" class="st43" width="4" height="4"/>
	<rect x="348" y="424" class="st43" width="4" height="4"/>
	<path class="st43" d="M268,452c3.6,0,8.4,0,12,0v-4c-6.4,0-13.6,0-20,0v4C262,452,266,452,268,452z"/>
	<rect x="300" y="448" class="st43" width="4" height="4"/>
	<rect x="324" y="448" class="st43" width="4" height="4"/>
	<rect x="348" y="448" class="st43" width="4" height="4"/>
	<path class="st43" d="M276,484c-5,0-11,0-16,0v4c7.8,0,16.2,0,24,0v-4C282,484,278,484,276,484z"/>
	<rect x="304" y="484" class="st43" width="4" height="4"/>
	<rect x="328" y="484" class="st43" width="4" height="4"/>
	<path class="st43" d="M276,508c-5,0-11,0-16,0v4c7.8,0,16.2,0,24,0v-4C282,508,278,508,276,508z"/>
	<rect x="304" y="508" class="st43" width="4" height="4"/>
	<rect x="328" y="508" class="st43" width="4" height="4"/>
	<path class="st43" d="M792,520v4c2,0,6,0,8,0v-4C798,520,794,520,792,520z"/>
	<path class="st43" d="M276,532c-5,0-11,0-16,0v4c7.8,0,16.2,0,24,0v-4C282,532,278,532,276,532z"/>
	<rect x="304" y="532" class="st43" width="4" height="4"/>
	<rect x="328" y="532" class="st43" width="4" height="4"/>
	<rect x="352" y="532" class="st43" width="4" height="4"/>
	<path class="st43" d="M888,532v-4h-4v-4h-4v-4h-4v-4h-4v-4c-2,0-6,0-8,0c0,7.8,0,16.2,0,24c9.2,0,18.8,0,28,0v-4H888z"/>
	<path class="st43" d="M272,568c-3.6,0-8.4,0-12,0v4c6.4,0,13.6,0,20,0v-4C278,568,274,568,272,568z"/>
	<rect x="300" y="568" class="st43" width="4" height="4"/>
	<path class="st43" d="M272,592c-3.6,0-8.4,0-12,0v4c6.4,0,13.6,0,20,0v-4C278,592,274,592,272,592z"/>
	<rect x="300" y="592" class="st43" width="4" height="4"/>
	<path class="st43" d="M272,616c-3.6,0-8.4,0-12,0v4c6.4,0,13.6,0,20,0v-4C278,616,274,616,272,616z"/>
	<rect x="300" y="616" class="st43" width="4" height="4"/>
	<rect x="324" y="616" class="st43" width="4" height="4"/>
	<rect x="348" y="616" class="st43" width="4" height="4"/>
</g>
<g>
	<path class="st44" d="M944,256c0,13.2,0,26.8,0,40h4c0-13.2,0-26.8,0-40H944z"/>
	<path class="st44" d="M856,268c0,6.4,0,13.6,0,20h4c0-7.8,0-16.2,0-24h-4V268z"/>
	<path class="st44" d="M444,276v4h4c0-2,0-6,0-8h-4V276z"/>
	<path class="st44" d="M272,280c-18.6,0-37.4,0-56,0v4c18.6,0,37.4,0,56,0V280z"/>
	<path class="st44" d="M272,388c0,3.6,0,8.4,0,12h4c0-5,0-11,0-16h-4V388z"/>
	<path class="st44" d="M312,388c0,2,0,6,0,8c3.6,0,8.4,0,12,0c0-3.6,0-8.4,0-12c-6.4,0-13.6,0-20,0v4C306,388,310,388,312,388z"/>
	<path class="st44" d="M364,384c-3.6,0-8.4,0-12,0c0,5,0,11,0,16c6.4,0,13.6,0,20,0c0-5,0-11,0-16C370,384,366,384,364,384z"/>
	<rect x="304" y="392" class="st44" width="4" height="4"/>
	<path class="st44" d="M288,400v-4c3.6,0,8.4,0,12,0c0-3.6,0-8.4,0-12c-6.4,0-13.6,0-20,0c0,5,0,11,0,16C282,400,286,400,288,400z"
		/>
	<path class="st44" d="M336,400c3.6,0,8.4,0,12,0c0-5,0-11,0-16c-6.4,0-13.6,0-20,0c0,5,0,11,0,16C330,400,334,400,336,400z"/>
	<path class="st44" d="M364,404c-3.6,0-8.4,0-12,0c0,6.4,0,13.6,0,20c6.4,0,13.6,0,20,0c0-6.4,0-13.6,0-20C370,404,366,404,364,404z
		"/>
	<path class="st44" d="M276,420c0-5,0-11,0-16h-4c0,6.4,0,13.6,0,20h4V420z"/>
	<path class="st44" d="M288,424c0-6.4,0-13.6,0-20c-2,0-6,0-8,0c0,6.4,0,13.6,0,20C282,424,286,424,288,424z"/>
	<path class="st44" d="M336,424c3.6,0,8.4,0,12,0c0-6.4,0-13.6,0-20c-6.4,0-13.6,0-20,0c0,6.4,0,13.6,0,20C330,424,334,424,336,424z
		"/>
	<path class="st44" d="M272,432c0,5,0,11,0,16h4c0-6.4,0-13.6,0-20h-4V432z"/>
	<path class="st44" d="M364,428c-3.6,0-8.4,0-12,0c0,6.4,0,13.6,0,20c6.4,0,13.6,0,20,0c0-6.4,0-13.6,0-20C370,428,366,428,364,428z
		"/>
	<path class="st44" d="M288,448c3.6,0,8.4,0,12,0v-4c-3.6,0-8.4,0-12,0c0-2,0-6,0-8h-4v-4h4v-4c-2,0-6,0-8,0c0,6.4,0,13.6,0,20
		C282,448,286,448,288,448z"/>
	<path class="st44" d="M312,448c3.6,0,8.4,0,12,0v-4c-6.4,0-13.6,0-20,0v4C306,448,310,448,312,448z"/>
	<path class="st44" d="M336,448c3.6,0,8.4,0,12,0c0-6.4,0-13.6,0-20c-6.4,0-13.6,0-20,0c0,6.4,0,13.6,0,20C330,448,334,448,336,448z
		"/>
	<path class="st44" d="M272,456c0,2,0,6,0,8h4c0-3.6,0-8.4,0-12h-4V456z"/>
	<path class="st44" d="M364,452c-3.6,0-8.4,0-12,0c0,3.6,0,8.4,0,12c6.4,0,13.6,0,20,0c0-3.6,0-8.4,0-12C370,452,366,452,364,452z"
		/>
	<path class="st44" d="M288,464c3.6,0,8.4,0,12,0c0-3.6,0-8.4,0-12c-6.4,0-13.6,0-20,0c0,3.6,0,8.4,0,12C282,464,286,464,288,464z"
		/>
	<path class="st44" d="M312,464c3.6,0,8.4,0,12,0c0-3.6,0-8.4,0-12c-6.4,0-13.6,0-20,0c0,3.6,0,8.4,0,12C306,464,310,464,312,464z"
		/>
	<path class="st44" d="M336,464c3.6,0,8.4,0,12,0c0-3.6,0-8.4,0-12c-6.4,0-13.6,0-20,0c0,3.6,0,8.4,0,12C330,464,334,464,336,464z"
		/>
	<path class="st44" d="M352,468c-6.4,0-13.6,0-20,0c0,3.6,0,8.4,0,12c3.6,0,8.4,0,12,0c0-2,0-6,0-8c2,0,6,0,8,0V468z"/>
	<path class="st44" d="M364,468c-2,0-6,0-8,0c0,3.6,0,8.4,0,12c3.6,0,8.4,0,12,0v4h4c0-5,0-11,0-16C370,468,366,468,364,468z"/>
	<rect x="348" y="476" class="st44" width="4" height="4"/>
	<path class="st44" d="M280,480c0-3.6,0-8.4,0-12c-2,0-6,0-8,0c0,5,0,11,0,16c2,0,6,0,8,0V480z"/>
	<path class="st44" d="M304,480c0-3.6,0-8.4,0-12c-6.4,0-13.6,0-20,0c0,5,0,11,0,16c6.4,0,13.6,0,20,0V480z"/>
	<path class="st44" d="M328,480c0-3.6,0-8.4,0-12c-6.4,0-13.6,0-20,0c0,5,0,11,0,16c6.4,0,13.6,0,20,0V480z"/>
	<path class="st44" d="M368,492c0,5,0,11,0,16h4c0-6.4,0-13.6,0-20h-4V492z"/>
	<path class="st44" d="M280,504c0-5,0-11,0-16c-2,0-6,0-8,0c0,6.4,0,13.6,0,20c2,0,6,0,8,0V504z"/>
	<path class="st44" d="M304,504c0-5,0-11,0-16c-6.4,0-13.6,0-20,0c0,6.4,0,13.6,0,20c6.4,0,13.6,0,20,0V504z"/>
	<path class="st44" d="M328,504c0-5,0-11,0-16c-6.4,0-13.6,0-20,0c0,6.4,0,13.6,0,20c6.4,0,13.6,0,20,0V504z"/>
	<path class="st44" d="M272,512c0,6.4,0,13.6,0,20c2,0,6,0,8,0c0-6.4,0-13.6,0-20C278,512,274,512,272,512z"/>
	<path class="st44" d="M296,512c-3.6,0-8.4,0-12,0c0,6.4,0,13.6,0,20c6.4,0,13.6,0,20,0c0-6.4,0-13.6,0-20C302,512,298,512,296,512z
		"/>
	<path class="st44" d="M320,512c-3.6,0-8.4,0-12,0c0,6.4,0,13.6,0,20c6.4,0,13.6,0,20,0c0-6.4,0-13.6,0-20C326,512,322,512,320,512z
		"/>
	<path class="st44" d="M368,516c0,3.6,0,8.4,0,12c-3.6,0-8.4,0-12,0v4c5,0,11,0,16,0c0-6.4,0-13.6,0-20h-4V516z"/>
	<path class="st44" d="M344,528c-3.6,0-8.4,0-12,0v4c6.4,0,13.6,0,20,0v-4C350,528,346,528,344,528z"/>
	<path class="st44" d="M364,536c-2,0-6,0-8,0c0,2,0,6,0,8c5,0,11,0,16,0c0-2,0-6,0-8C370,536,366,536,364,536z"/>
	<path class="st44" d="M280,540v-4c-2,0-6,0-8,0c0,2,0,6,0,8c2,0,6,0,8,0V540z"/>
	<path class="st44" d="M304,540v-4c-6.4,0-13.6,0-20,0c0,2,0,6,0,8c6.4,0,13.6,0,20,0V540z"/>
	<path class="st44" d="M328,540v-4c-6.4,0-13.6,0-20,0c0,2,0,6,0,8c6.4,0,13.6,0,20,0V540z"/>
	<path class="st44" d="M352,540v-4c-6.4,0-13.6,0-20,0c0,2,0,6,0,8c6.4,0,13.6,0,20,0V540z"/>
	<path class="st44" d="M272,556c0,3.6,0,8.4,0,12h4c0-5,0-11,0-16h-4V556z"/>
	<path class="st44" d="M292,552c-3.6,0-8.4,0-12,0c0,5,0,11,0,16c6.4,0,13.6,0,20,0c0-5,0-11,0-16C298,552,294,552,292,552z"/>
	<path class="st44" d="M316,552c-3.6,0-8.4,0-12,0c0,5,0,11,0,16c5,0,11,0,16,0v-4h4c0-3.6,0-8.4,0-12C322,552,318,552,316,552z"/>
	<path class="st44" d="M340,552c-3.6,0-8.4,0-12,0c0,3.6,0,8.4,0,12h4c0-2,0-6,0-8c3.6,0,8.4,0,12,0c0,2,0,6,0,8h4c0-3.6,0-8.4,0-12
		C346,552,342,552,340,552z"/>
	<path class="st44" d="M364,552c-3.6,0-8.4,0-12,0c0,3.6,0,8.4,0,12h4v4c5,0,11,0,16,0c0-5,0-11,0-16C370,552,366,552,364,552z"/>
	<rect x="336" y="560" class="st44" width="4" height="4"/>
	<path class="st44" d="M272,576c0,5,0,11,0,16h4c0-6.4,0-13.6,0-20h-4V576z"/>
	<path class="st44" d="M292,572c-3.6,0-8.4,0-12,0c0,6.4,0,13.6,0,20c6.4,0,13.6,0,20,0c0-6.4,0-13.6,0-20C298,572,294,572,292,572z
		"/>
	<path class="st44" d="M364,572c-2,0-6,0-8,0c0,6.4,0,13.6,0,20c5,0,11,0,16,0c0-6.4,0-13.6,0-20C370,572,366,572,364,572z"/>
	<path class="st44" d="M304,584c0,2,0,6,0,8c5,0,11,0,16,0c0-6.4,0-13.6,0-20c-5,0-11,0-16,0C304,575.6,304,580.4,304,584z"/>
	<path class="st44" d="M272,600c0,5,0,11,0,16h4c0-6.4,0-13.6,0-20h-4V600z"/>
	<path class="st44" d="M292,596c-3.6,0-8.4,0-12,0c0,6.4,0,13.6,0,20c6.4,0,13.6,0,20,0c0-6.4,0-13.6,0-20C298,596,294,596,292,596z
		"/>
	<path class="st44" d="M364,596c-2,0-6,0-8,0c0,5,0,11,0,16h-4v4c6.4,0,13.6,0,20,0c0-6.4,0-13.6,0-20C370,596,366,596,364,596z"/>
	<path class="st44" d="M320,608c0-3.6,0-8.4,0-12c-5,0-11,0-16,0c0,6.4,0,13.6,0,20c6.4,0,13.6,0,20,0v-4h-4V608z"/>
	<path class="st44" d="M340,612c-3.6,0-8.4,0-12,0v4c6.4,0,13.6,0,20,0v-4C346,612,342,612,340,612z"/>
	<rect x="272" y="620" class="st44" width="4" height="4"/>
	<path class="st44" d="M292,620c-3.6,0-8.4,0-12,0v4c6.4,0,13.6,0,20,0v-4C298,620,294,620,292,620z"/>
	<path class="st44" d="M316,620c-3.6,0-8.4,0-12,0v4c6.4,0,13.6,0,20,0v-4C322,620,318,620,316,620z"/>
	<path class="st44" d="M340,620c-3.6,0-8.4,0-12,0v4c6.4,0,13.6,0,20,0v-4C346,620,342,620,340,620z"/>
	<path class="st44" d="M364,620c-3.6,0-8.4,0-12,0v4c6.4,0,13.6,0,20,0v-4C370,620,366,620,364,620z"/>
</g>
<g>
	<path class="st45" d="M1024,524h-4v4c2,0,6,0,8,0v-4H1024z"/>
	<rect x="1016" y="528" class="st45" width="4" height="4"/>
	<path class="st45" d="M1032,528h-4c0,2,0,6,0,8h4C1032,534,1032,530,1032,528z"/>
	<rect x="1052" y="528" class="st45" width="4" height="4"/>
	<path class="st45" d="M1052,536v-4h-4c0,2,0,6,0,8h4V536z"/>
	<path class="st45" d="M1036,540v-4h-4c0,3.6,0,8.4,0,12h4C1036,546,1036,542,1036,540z"/>
	<rect x="1044" y="540" class="st45" width="4" height="4"/>
	<rect x="1072" y="540" class="st45" width="4" height="4"/>
	<path class="st45" d="M1072,548v-4c-2,0-6,0-8,0v4C1066,548,1070,548,1072,548z"/>
	<path class="st45" d="M1040,548h-4c0,2,0,6,0,8h4C1040,554,1040,550,1040,548z"/>
	<path class="st45" d="M1064,552v-4h-4c0,2,0,6,0,8h4V552z"/>
	<path class="st45" d="M1056,560v4h4c0-2,0-6,0-8h-4V560z"/>
	<path class="st45" d="M1052,568v4h4c0-2,0-6,0-8h-4V568z"/>
	<path class="st45" d="M1084,568h-4v4c2,0,6,0,8,0v-4H1084z"/>
	<path class="st45" d="M1036,572c0-2,0-6,0-8h-4c0,3.6,0,8.4,0,12h4V572z"/>
	<path class="st45" d="M1072,572h-4v4c3.6,0,8.4,0,12,0v-4C1078,572,1074,572,1072,572z"/>
	<rect x="1088" y="572" class="st45" width="4" height="4"/>
	<path class="st45" d="M1024,576c-2,0-6,0-8,0v4c3.6,0,8.4,0,12,0v-4H1024z"/>
	<path class="st45" d="M1044,576c0-6.4,0-13.6,0-20h-4c0,9.2,0,18.8,0,28h4C1044,582,1044,578,1044,576z"/>
	<path class="st45" d="M1064,580h-4v4c3.6,0,8.4,0,12,0v-4h-4v-4h-4V580z"/>
	<rect x="1092" y="576" class="st45" width="4" height="4"/>
	<rect x="1028" y="580" class="st45" width="4" height="4"/>
	<path class="st45" d="M1096,580c0,2,0,6,0,8h4c0-2,0-6,0-8H1096z"/>
	<rect x="1032" y="584" class="st45" width="4" height="4"/>
	<path class="st45" d="M1056,588v4h4c0-2,0-6,0-8h-4V588z"/>
	<rect x="1072" y="584" class="st45" width="4" height="4"/>
	<rect x="1036" y="588" class="st45" width="4" height="4"/>
	<path class="st45" d="M1048,588v-4h-4c0,2,0,6,0,8h4V588z"/>
	<rect x="1076" y="588" class="st45" width="4" height="4"/>
	<path class="st45" d="M1040,596v4h4c0-2,0-6,0-8h-4V596z"/>
	<rect x="1052" y="592" class="st45" width="4" height="4"/>
	<rect x="1048" y="596" class="st45" width="4" height="4"/>
	<path class="st45" d="M1080,600h4c0-2,0-6,0-8h-4C1080,594,1080,598,1080,600z"/>
	<path class="st45" d="M1084,608c0,2,0,6,0,8h4c0-5,0-11,0-16h-4C1084,602,1084,606,1084,608z"/>
	<path class="st45" d="M1088,624h4c0-2,0-6,0-8h-4C1088,618,1088,622,1088,624z"/>
</g>
<g>
	<path class="st46" d="M880,104c-56,0-112,0-168,0v4h-4v4h-4v4c54.6,0,109.4,0,164,0v-4c2,0,6,0,8,0v-4c2,0,6,0,8,0v-4H880z"/>
	<path class="st46" d="M260,116c44,0,88,0,132,0v-4h-4v-4h-4v-4c-57.3,0-114.7,0-172,0v4c2,0,6,0,8,0v4c2,0,6,0,8,0v4
		C238.5,116,249.5,116,260,116z"/>
	<path class="st46" d="M628,116h4v-4h4v-4h4v-4c-61.3,0-122.7,0-184,0v4h4v4h4v4C518.6,116,573.4,116,628,116z"/>
	<path class="st46" d="M408,140c-50.6,0-101.4,0-152,0v4c2,0,6,0,8,0v4c49.3,0,98.7,0,148,0v-4h-4V140z"/>
	<path class="st46" d="M576,140c-33.3,0-66.7,0-100,0v4h4v4c34.6,0,69.4,0,104,0c0-2,0-6,0-8C582,140,578,140,576,140z"/>
	<path class="st46" d="M612,140c-6.4,0-13.6,0-20,0c0,2,0,6,0,8c7.8,0,16.2,0,24,0v-4h4v-4C618,140,614,140,612,140z"/>
	<path class="st46" d="M836,140c-49.3,0-98.7,0-148,0v4h-4v4c50.6,0,101.4,0,152,0v-4c2,0,6,0,8,0v-4C842,140,838,140,836,140z"/>
	<path class="st46" d="M320,424c0-7.8,0-16.2,0-24h-4v4c-6.4,0-13.6,0-20,0v-4h-4c0,9.2,0,18.8,0,28h-4v4h-4v4c7.8,0,16.2,0,24,0
		c0-2,0-6,0-8c3.6,0,8.4,0,12,0V424z M304,428c-2,0-6,0-8,0v-4c2,0,6,0,8,0V428z M316,420c-6.4,0-13.6,0-20,0v-4c6.4,0,13.6,0,20,0
		V420z M316,412c-6.4,0-13.6,0-20,0v-4c6.4,0,13.6,0,20,0V412z"/>
	<path class="st46" d="M360,488c-6.4,0-13.6,0-20,0v-4h-4c0,10.5,0,21.5,0,32h-4v4c9.2,0,18.8,0,28,0v-4h4c0-10.5,0-21.5,0-32h-4
		V488z M348,512c-2,0-6,0-8,0v-4c2,0,6,0,8,0V512z M360,512c-2,0-6,0-8,0v-4c2,0,6,0,8,0V512z M360,504c-6.4,0-13.6,0-20,0v-4
		c6.4,0,13.6,0,20,0V504z M360,496c-6.4,0-13.6,0-20,0v-4c6.4,0,13.6,0,20,0V496z"/>
	<path class="st46" d="M632,516c0,2,0,6,0,8h4c0-3.6,0-8.4,0-12h-4V516z"/>
	<path class="st46" d="M660,520v-4h4c0-2,0-6,0-8h-4v4h-4c0,3.6,0,8.4,0,12h4V520z"/>
	<path class="st46" d="M668,528c-3.6,0-8.4,0-12,0c0,18.6,0,37.4,0,56c-7.8,0-16.2,0-24,0c0,14.6,0,29.4,0,44c3.6,0,8.4,0,12,0
		c0-9.2,0-18.8,0-28c2,0,6,0,8,0c0,9.2,0,18.8,0,28c3.6,0,8.4,0,12,0c0-10.5,0-21.5,0-32h-4c0-17.2,0-34.8,0-52h4v4c2,0,6,0,8,0
		c0-5,0-11,0-16h-4V528z"/>
	<rect x="632" y="536" class="st46" width="4" height="4"/>
	<path class="st46" d="M632,544v-4h-4c0,2,0,6,0,8h4V544z"/>
	<path class="st46" d="M348,572c-6.4,0-13.6,0-20,0v-4h-4c0,10.5,0,21.5,0,32h-4v4c7.8,0,16.2,0,24,0v-4h4v-4h4c0-9.2,0-18.8,0-28
		h-4V572z M336,596c-2,0-6,0-8,0v-4c2,0,6,0,8,0V596z M340,588c-3.6,0-8.4,0-12,0v-4c3.6,0,8.4,0,12,0V588z M348,580
		c-6.4,0-13.6,0-20,0v-4c6.4,0,13.6,0,20,0V580z"/>
	<path class="st46" d="M624,580c0,5,0,11,0,16h4c0-6.4,0-13.6,0-20h-4V580z"/>
</g>
<g>
	<path class="st47" d="M1000,164c-2,0-6,0-8,0v4h-4v4h-4c0,3.6,0,8.4,0,12h4v4c2,0,6,0,8,0v-4h4c0-2,0-6,0-8h4c0-2,0-6,0-8h-4V164z"
		/>
	<path class="st47" d="M1024,184v-4c-5,0-11,0-16,0c0,2,0,6,0,8h4c0,2,0,6,0,8h4v4c2,0,6,0,8,0v-4h4c0-3.6,0-8.4,0-12H1024z"/>
	<path class="st47" d="M996,196c-2,0-6,0-8,0v4h-4c0,2,0,6,0,8h4v4h4v4h4v-4h4v-4h4c0-3.6,0-8.4,0-12C1002,196,998,196,996,196z"/>
	<path class="st47" d="M456,256v4h-4v4h-4c0,3.6,0,8.4,0,12h4v-4h4c0-2,0-6,0-8h4v-4h4v-4C462,256,458,256,456,256z"/>
	<path class="st47" d="M520,256c-3.6,0-8.4,0-12,0v4h-4v4h-4v4h-4c0,2,0,6,0,8h-4v4h-4v4h-4v4h-4c0,2,0,6,0,8c6.4,0,13.6,0,20,0
		c0-2,0-6,0-8h4v-4h4v-4h4v-4h4c0-2,0-6,0-8h4v-4h4v-4h4v-4C526,256,522,256,520,256z"/>
	<path class="st47" d="M704,256c-5,0-11,0-16,0v4h-4v4h-4c0,2,0,6,0,8h-4v4h-4v4h-4c0,2,0,6,0,8h-4v4h-4v4c17.2,0,34.8,0,52,0
		c0-13.2,0-26.8,0-40C710,256,706,256,704,256z"/>
	<path class="st47" d="M780,256c-3.6,0-8.4,0-12,0c0,7.8,0,16.2,0,24h4v-4h4v-4h4c0-2,0-6,0-8h4v-4h4v-4C786,256,782,256,780,256z"
		/>
	<path class="st47" d="M876,256c-3.6,0-8.4,0-12,0v4h-4c0,7.8,0,16.2,0,24h4v-4h4v-4h4c0-2,0-6,0-8h4v-4h4v-4h4v-4
		C882,256,878,256,876,256z"/>
	<path class="st47" d="M936,256c-5,0-11,0-16,0v4h-4v4h-4v4h-4v4h-4c0,2,0,6,0,8h-4v4h-4v4h-4v4h-4v4c18.6,0,37.4,0,56,0
		c0-13.2,0-26.8,0-40C942,256,938,256,936,256z"/>
	<path class="st47" d="M996,256c-15.9,0-32.1,0-48,0c0,13.2,0,26.8,0,40c7.8,0,16.2,0,24,0v-4h4v-4h4v-4h4v-4h4c0-2,0-6,0-8h4v-4h4
		v-4h4v-4h4v-4C1002,256,998,256,996,256z"/>
	<path class="st47" d="M852,272v4h-4v4h-4v4h-4v4h-4c0,2,0,6,0,8c6.4,0,13.6,0,20,0c0-9.2,0-18.8,0-28h-4V272z"/>
	<path class="st47" d="M280,280v-4h4v-4h4v-4h4v-4h4v-4h4v-4c-9.2,0-18.8,0-28,0v4h-4v4h-4v4h-4v4h-4v4h-4v4
		C261.2,280,270.8,280,280,280z"/>
	<path class="st47" d="M440,280h-4c0,2,0,6,0,8h-4v4h-4v4c2,0,6,0,8,0v-4h4v-4h4c0-3.6,0-8.4,0-12h-4V280z"/>
	<path class="st47" d="M644,296v-4h4v-4h4c0-2,0-6,0-8h4v-4h4v-4h4c0-2,0-6,0-8h4v-4h4v-4c-2,0-6,0-8,0v4h-4v4h-4c0,2,0,6,0,8h-4v4
		h-4v4h-4c0,2,0,6,0,8h-4v4h-4v4C638,296,642,296,644,296z"/>
	<rect x="300" y="384" class="st47" width="4" height="4"/>
	<path class="st47" d="M280,392c0-2,0-6,0-8h-4c0,5,0,11,0,16h4C280,398,280,394,280,392z"/>
	<path class="st47" d="M328,392c0-2,0-6,0-8h-4c0,5,0,11,0,16h4C328,398,328,394,328,392z"/>
	<path class="st47" d="M352,396c0-3.6,0-8.4,0-12h-4c0,5,0,11,0,16h4V396z"/>
	<path class="st47" d="M288,404v-4c-2,0-6,0-8,0v4C282,404,286,404,288,404z"/>
	<path class="st47" d="M336,404c3.6,0,8.4,0,12,0v-4c-6.4,0-13.6,0-20,0v4C330,404,334,404,336,404z"/>
	<path class="st47" d="M364,400c-3.6,0-8.4,0-12,0v4c6.4,0,13.6,0,20,0v-4C370,400,366,400,364,400z"/>
	<path class="st47" d="M348,408c0,5,0,11,0,16h4c0-6.4,0-13.6,0-20h-4V408z"/>
	<path class="st47" d="M280,416c0-3.6,0-8.4,0-12h-4c0,6.4,0,13.6,0,20h4C280,422,280,418,280,416z"/>
	<path class="st47" d="M328,416c0-3.6,0-8.4,0-12h-4c0,6.4,0,13.6,0,20h4C328,422,328,418,328,416z"/>
	<path class="st47" d="M288,428v-4c-2,0-6,0-8,0v4C282,428,286,428,288,428z"/>
	<path class="st47" d="M336,428c3.6,0,8.4,0,12,0v-4c-6.4,0-13.6,0-20,0v4C330,428,334,428,336,428z"/>
	<path class="st47" d="M356,428c5,0,11,0,16,0v-4c-6.4,0-13.6,0-20,0v4H356z"/>
	<path class="st47" d="M348,432c0,5,0,11,0,16h4c0-6.4,0-13.6,0-20h-4V432z"/>
	<path class="st47" d="M280,440c0-3.6,0-8.4,0-12h-4c0,6.4,0,13.6,0,20h4C280,446,280,442,280,440z"/>
	<rect x="300" y="444" class="st47" width="4" height="4"/>
	<path class="st47" d="M328,444c0-5,0-11,0-16h-4c0,6.4,0,13.6,0,20h4V444z"/>
	<path class="st47" d="M296,448c-5,0-11,0-16,0v4c6.4,0,13.6,0,20,0v-4H296z"/>
	<path class="st47" d="M320,448c-5,0-11,0-16,0v4c6.4,0,13.6,0,20,0v-4H320z"/>
	<path class="st47" d="M344,448c-5,0-11,0-16,0v4c6.4,0,13.6,0,20,0v-4H344z"/>
	<path class="st47" d="M356,452c5,0,11,0,16,0v-4c-6.4,0-13.6,0-20,0v4H356z"/>
	<path class="st47" d="M276,456c0,2,0,6,0,8h4c0-3.6,0-8.4,0-12h-4V456z"/>
	<path class="st47" d="M300,456c0,2,0,6,0,8h4c0-3.6,0-8.4,0-12h-4V456z"/>
	<path class="st47" d="M324,456c0,2,0,6,0,8h4c0-3.6,0-8.4,0-12h-4V456z"/>
	<path class="st47" d="M348,456c0,2,0,6,0,8h4c0-3.6,0-8.4,0-12h-4V456z"/>
	<rect x="352" y="468" class="st47" width="4" height="4"/>
	<path class="st47" d="M656,472v-4c-7.8,0-16.2,0-24,0v4h-4v4c9.2,0,18.8,0,28,0v4c2,0,6,0,8,0c0-2,0-6,0-8C662,472,658,472,656,472
		z"/>
	<path class="st47" d="M284,476c0-2,0-6,0-8h-4c0,5,0,11,0,16h4C284,482,284,478,284,476z"/>
	<path class="st47" d="M308,480c0-3.6,0-8.4,0-12h-4c0,5,0,11,0,16h4V480z"/>
	<path class="st47" d="M332,480c0-3.6,0-8.4,0-12h-4c0,5,0,11,0,16h4V480z"/>
	<path class="st47" d="M292,488c3.6,0,8.4,0,12,0v-4c-6.4,0-13.6,0-20,0v4C286,488,290,488,292,488z"/>
	<path class="st47" d="M312,488c5,0,11,0,16,0v-4c-6.4,0-13.6,0-20,0v4H312z"/>
	<rect x="368" y="484" class="st47" width="4" height="4"/>
	<path class="st47" d="M328,496c0,3.6,0,8.4,0,12h4c0-6.4,0-13.6,0-20h-4C328,490,328,494,328,496z"/>
	<path class="st47" d="M284,500c0-3.6,0-8.4,0-12h-4c0,6.4,0,13.6,0,20h4C284,506,284,502,284,500z"/>
	<path class="st47" d="M308,504c0-5,0-11,0-16h-4c0,6.4,0,13.6,0,20h4V504z"/>
	<path class="st47" d="M292,512c3.6,0,8.4,0,12,0v-4c-6.4,0-13.6,0-20,0v4C286,512,290,512,292,512z"/>
	<path class="st47" d="M320,508c-3.6,0-8.4,0-12,0v4c6.4,0,13.6,0,20,0v-4C326,508,322,508,320,508z"/>
	<rect x="368" y="508" class="st47" width="4" height="4"/>
	<path class="st47" d="M328,520c0,3.6,0,8.4,0,12h4c0-6.4,0-13.6,0-20h-4C328,514,328,518,328,520z"/>
	<path class="st47" d="M284,524c0-3.6,0-8.4,0-12h-4c0,6.4,0,13.6,0,20h4C284,530,284,526,284,524z"/>
	<path class="st47" d="M308,524c0-3.6,0-8.4,0-12h-4c0,6.4,0,13.6,0,20h4C308,530,308,526,308,524z"/>
	<rect x="352" y="528" class="st47" width="4" height="4"/>
	<path class="st47" d="M300,532c-5,0-11,0-16,0v4c6.4,0,13.6,0,20,0v-4H300z"/>
	<path class="st47" d="M324,532c-5,0-11,0-16,0v4c6.4,0,13.6,0,20,0v-4H324z"/>
	<path class="st47" d="M348,532c-5,0-11,0-16,0v4c6.4,0,13.6,0,20,0v-4H348z"/>
	<path class="st47" d="M364,532c-2,0-6,0-8,0v4c5,0,11,0,16,0v-4C370,532,366,532,364,532z"/>
	<path class="st47" d="M280,540c0,2,0,6,0,8h4c0-3.6,0-8.4,0-12h-4V540z"/>
	<path class="st47" d="M304,540c0,2,0,6,0,8h4c0-3.6,0-8.4,0-12h-4V540z"/>
	<path class="st47" d="M328,540c0,2,0,6,0,8h4c0-3.6,0-8.4,0-12h-4V540z"/>
	<path class="st47" d="M352,540c0,2,0,6,0,8h4c0-3.6,0-8.4,0-12h-4V540z"/>
	<path class="st47" d="M280,560c0-2,0-6,0-8h-4c0,5,0,11,0,16h4C280,566,280,562,280,560z"/>
	<path class="st47" d="M328,560c0-2,0-6,0-8h-4c0,3.6,0,8.4,0,12h4V560z"/>
	<path class="st47" d="M352,560c0-2,0-6,0-8h-4c0,3.6,0,8.4,0,12h4V560z"/>
	<path class="st47" d="M304,564c0-3.6,0-8.4,0-12h-4c0,5,0,11,0,16h4V564z"/>
	<path class="st47" d="M288,572c3.6,0,8.4,0,12,0v-4c-6.4,0-13.6,0-20,0v4C282,572,286,572,288,572z"/>
	<path class="st47" d="M308,572c3.6,0,8.4,0,12,0v-4c-5,0-11,0-16,0v4H308z"/>
	<path class="st47" d="M364,568c-2,0-6,0-8,0v4c5,0,11,0,16,0v-4C370,568,366,568,364,568z"/>
	<path class="st47" d="M300,576c0,5,0,11,0,16h4c0-6.4,0-13.6,0-20h-4V576z"/>
	<path class="st47" d="M280,584c0-3.6,0-8.4,0-12h-4c0,6.4,0,13.6,0,20h4C280,590,280,586,280,584z"/>
	<path class="st47" d="M288,596c3.6,0,8.4,0,12,0v-4c-6.4,0-13.6,0-20,0v4C282,596,286,596,288,596z"/>
	<path class="st47" d="M308,596c3.6,0,8.4,0,12,0v-4c-5,0-11,0-16,0v4H308z"/>
	<path class="st47" d="M364,592c-2,0-6,0-8,0v4c5,0,11,0,16,0v-4C370,592,366,592,364,592z"/>
	<path class="st47" d="M300,600c0,5,0,11,0,16h4c0-6.4,0-13.6,0-20h-4V600z"/>
	<path class="st47" d="M280,608c0-3.6,0-8.4,0-12h-4c0,6.4,0,13.6,0,20h4C280,614,280,610,280,608z"/>
	<rect x="324" y="612" class="st47" width="4" height="4"/>
	<rect x="348" y="612" class="st47" width="4" height="4"/>
	<path class="st47" d="M296,616c-5,0-11,0-16,0v4c6.4,0,13.6,0,20,0v-4H296z"/>
	<path class="st47" d="M320,616c-5,0-11,0-16,0v4c6.4,0,13.6,0,20,0v-4H320z"/>
	<path class="st47" d="M344,616c-5,0-11,0-16,0v4c6.4,0,13.6,0,20,0v-4H344z"/>
	<path class="st47" d="M364,616c-3.6,0-8.4,0-12,0v4c6.4,0,13.6,0,20,0v-4C370,616,366,616,364,616z"/>
	<path class="st47" d="M276,624c0,2,0,6,0,8h4c0-3.6,0-8.4,0-12h-4V624z"/>
	<path class="st47" d="M300,624c0,2,0,6,0,8h4c0-3.6,0-8.4,0-12h-4V624z"/>
	<path class="st47" d="M324,624c0,2,0,6,0,8h4c0-3.6,0-8.4,0-12h-4V624z"/>
	<path class="st47" d="M348,624c0,2,0,6,0,8h4c0-3.6,0-8.4,0-12h-4V624z"/>
</g>
<g>
	<path class="st48" d="M460,412c-2,0-6,0-8,0v4c2,0,6,0,8,0V412z"/>
	<path class="st48" d="M468,412v4c2,0,6,0,8,0v-4C474,412,470,412,468,412z"/>
	<path class="st48" d="M460,424v4c2,0,6,0,8,0v-4C466,424,462,424,460,424z"/>
	<path class="st48" d="M556,540c-3.6,0-8.4,0-12,0c0,3.6,0,8.4,0,12c3.6,0,8.4,0,12,0v-4h4c0-3.6,0-8.4,0-12h-4V540z"/>
	<rect x="608" y="540" class="st48" width="4" height="4"/>
	<path class="st48" d="M580,548c2,0,6,0,8,0c0-2,0-6,0-8h-4c0-3.6,0-8.4,0-12c-7.8,0-16.2,0-24,0c0,2,0,6,0,8h4v4h4v4c2,0,6,0,8,0v4
		H580z"/>
	<path class="st48" d="M596,556c-2,0-6,0-8,0v4c6.4,0,13.6,0,20,0c0-2,0-6,0-8h-4v-4h-4v-4h-4v-4h-4c0,2,0,6,0,8h4
		C596,550,596,554,596,556z"/>
	<path class="st48" d="M620,552h-4c0,3.6,0,8.4,0,12h-4v4h-4v4c-5,0-11,0-16,0v4c6.4,0,13.6,0,20,0v-4h4v-4h4v-4h4c0-3.6,0-8.4,0-12
		H620z"/>
	<rect x="580" y="564" class="st48" width="4" height="4"/>
	<path class="st48" d="M588,568h-4v4c2,0,6,0,8,0v-4H588z"/>
	<path class="st48" d="M504,584c-3.6,0-8.4,0-12,0v4h-4c0,3.6,0,8.4,0,12h4c0,10.5,0,21.5,0,32h4c0-13.2,0-26.8,0-40
		c3.6,0,8.4,0,12,0c0,13.2,0,26.8,0,40h4c0-15.9,0-32.1,0-48C510,584,506,584,504,584z"/>
</g>
<g>
	<path class="st49" d="M1064,600c-13.2,0-26.8,0-40,0c0,2,0,6,0,8c14.6,0,29.4,0,44,0c0-2,0-6,0-8H1064z"/>
	<path class="st49" d="M1048,612c-6.4,0-13.6,0-20,0c0,2,0,6,0,8h4c0,3.6,0,8.4,0,12c6.4,0,13.6,0,20,0c0-3.6,0-8.4,0-12h4
		c0-2,0-6,0-8C1054,612,1050,612,1048,612z"/>
</g>
<g>
	<path class="st50" d="M1060,140c-33.3,0-66.7,0-100,0c0,21.3,0,42.7,0,64c2,0,6,0,8,0c0-14.6,0-29.4,0-44h4v-4c19.9,0,40.1,0,60,0
		v4h4c0,21.3,0,42.7,0,64h-4v4c-19.9,0-40.1,0-60,0v-4h-4c0-3.6,0-8.4,0-12c-3.6,0-8.4,0-12,0v-4h-4c0-22.6,0-45.4,0-68
		c-36,0-72,0-108,0v4c-2,0-6,0-8,0v4c-52,0-104,0-156,0v-4h4v-4c-21.3,0-42.7,0-64,0v4h-4v4c-7.8,0-16.2,0-24,0c0,33.3,0,66.7,0,100
		c41.3,0,82.7,0,124,0v4h4c0,15.9,0,32.1,0,48h-4v4c-41.3,0-82.7,0-124,0c0,17.2,0,34.8,0,52c-2,0-6,0-8,0v4h-4v4h-4v4h-4v4h-4v4h-4
		v4h-4v4h-4v4h4c0,2,0,6,0,8h4v4h4v4h4v4h4v4h4v4h4c0-5,0-11,0-16h4c0,11.9,0,24.1,0,36h4c0,2,0,6,0,8h4v4h4v4h4v4h-4v4h4
		c0,2,0,6,0,8h4v4h4v4h4c0,2,0,6,0,8h4v4h4c0,2,0,6,0,8h4v4h4c0-2,0-6,0-8h4c0-5,0-11,0-16c-2,0-6,0-8,0v-4h4v-4c7.8,0,16.2,0,24,0
		v4c2,0,6,0,8,0v4h4c0,3.6,0,8.4,0,12h-4c0,3.6,0,8.4,0,12h-4c0,2,0,6,0,8h4v4h4v4h4v4h4c0,2,0,6,0,8h4c0,13.2,0,26.8,0,40h-4
		c0,9.2,0,18.8,0,28c-2,0-6,0-8,0c0,11.9,0,24.1,0,36c25.3,0,50.7,0,76,0c0-25.3,0-50.7,0-76h4c0-2,0-6,0-8c-2,0-6,0-8,0v-4
		c3.6,0,8.4,0,12,0v-4c3.6,0,8.4,0,12,0v-4h4c0-2,0-6,0-8h4v-4h4v-4h4v-4h4v-4c2,0,6,0,8,0v4c9.2,0,18.8,0,28,0c0,3.6,0,8.4,0,12h-4
		c0,2,0,6,0,8c2,0,6,0,8,0v-4h4c0-3.6,0-8.4,0-12c6.4,0,13.6,0,20,0c0,5,0,11,0,16h4v4c2,0,6,0,8,0c0-10.5,0-21.5,0-32
		c15.9,0,32.1,0,48,0c0,11.9,0,24.1,0,36c37.3,0,74.7,0,112,0v4c-2,0-6,0-8,0c0,2,0,6,0,8h4c0,6.4,0,13.6,0,20c3.6,0,8.4,0,12,0v4h4
		v4h4c0-2,0-6,0-8h-4c0-3.6,0-8.4,0-12h4c0,3.6,0,8.4,0,12h4c0-6.4,0-13.6,0-20h-4c0-2,0-6,0-8h-4c0-3.6,0-8.4,0-12h-4c0-2,0-6,0-8
		c-2,0-6,0-8,0v4h-4v-4h4v-4c2,0,6,0,8,0v4h4c0,2,0,6,0,8h4c0,3.6,0,8.4,0,12h4v4h4c0-3.6,0-8.4,0-12h4c0-2,0-6,0-8h4v-4h4v4h-4
		c0,2,0,6,0,8h-4c0,3.6,0,8.4,0,12h-4c0,5,0,11,0,16h4c0,5,0,11,0,16h4c0-6.4,0-13.6,0-20h4c0-2,0-6,0-8h4c0-2,0-6,0-8h4
		c0-37.3,0-74.7,0-112c-105.3,0-210.7,0-316,0c0,2,0,6,0,8h-4v4c-21.3,0-42.7,0-64,0v4h-4v4c-2,0-6,0-8,0v4h-4v-4h4c0-2,0-6,0-8
		c-17.2,0-34.8,0-52,0v-4h-4c0-17.2,0-34.8,0-52h4v-4c38.6,0,77.4,0,116,0c0-11.9,0-24.1,0-36c110.7,0,221.3,0,332,0
		c0-70.6,0-141.4,0-212H1060z M1040,252c0,15.9,0,32.1,0,48h-4v4c-90.6,0-181.4,0-272,0v-4h-4c0-15.9,0-32.1,0-48h4v-4
		c90.6,0,181.4,0,272,0v4H1040z"/>
	<path class="st50" d="M1028,252c-88,0-176,0-264,0c0,15.9,0,32.1,0,48c90.6,0,181.4,0,272,0c0-15.9,0-32.1,0-48
		C1034,252,1030,252,1028,252z M1032,260c0,11.9,0,24.1,0,36c-88,0-176,0-264,0c0-13.2,0-26.8,0-40c88,0,176,0,264,0V260z"/>
	<path class="st50" d="M212,260c0,13.2,0,26.8,0,40c30.6,0,61.4,0,92,0c0-15.9,0-32.1,0-48c-30.6,0-61.4,0-92,0
		C212,254,212,258,212,260z M220,256c26.6,0,53.4,0,80,0c0,13.2,0,26.8,0,40c-27.9,0-56.1,0-84,0c0-13.2,0-26.8,0-40H220z"/>
	<path class="st50" d="M352,260c0,13.2,0,26.8,0,40c77.3,0,154.7,0,232,0v-4c-76,0-152,0-228,0c0-13.2,0-26.8,0-40c76,0,152,0,228,0
		v-4c-77.3,0-154.7,0-232,0C352,254,352,258,352,260z"/>
	<path class="st50" d="M716,292c0-13.2,0-26.8,0-40c-41.3,0-82.7,0-124,0v4c40,0,80,0,120,0c0,13.2,0,26.8,0,40c-40,0-80,0-120,0v4
		c41.3,0,82.7,0,124,0C716,298,716,294,716,292z"/>
	<path class="st50" d="M572,356v4h-4v4h-4v4h-4v4h-4v4h-4c0,2,0,6,0,8h4v-4h4v-4h4v-4h4v-4h4v-4h4v-4h4v-4h4v-4c-2,0-6,0-8,0v4H572z
		"/>
	<path class="st50" d="M576,412h-4v-4h-4v-4h-4v-4h-4c0,2,0,6,0,8h4v4h4v4h4v4h4v4h4c0-2,0-6,0-8h-4V412z"/>
	<path class="st50" d="M572,420h-4v-4h-4v-4h-4c0,9.2,0,18.8,0,28h-4v4c-26.6,0-53.4,0-80,0c0,2,0,6,0,8h4v4h-4v-4c-2,0-6,0-8,0v-4
		h-4v-4c-10.5,0-21.5,0-32,0v-4h-4c0-17.2,0-34.8,0-52h4v-4c36,0,72,0,108,0v-4c2,0,6,0,8,0v-4h4v-4h4v-4h4v-4h4v-4h4v-4h4v-4h4v-4
		h4v-4h4c0-13.2,0-26.8,0-40c-77.3,0-154.7,0-232,0v-4h-4c0-15.9,0-32.1,0-48h4v-4c77.3,0,154.7,0,232,0c0-33.3,0-66.7,0-100
		c-34.6,0-69.4,0-104,0v-4h-4v-4c-21.3,0-42.7,0-64,0v4h4v4c-50.6,0-101.4,0-152,0v-4c-2,0-6,0-8,0v-4c-23.9,0-48.1,0-72,0
		c0,86.6,0,173.4,0,260c14.6,0,29.4,0,44,0v4h4c0,13.2,0,26.8,0,40h-4v4c-14.6,0-29.4,0-44,0c0,3.6,0,8.4,0,12c14.6,0,29.4,0,44,0v4
		h4c0,13.2,0,26.8,0,40h-4v4c-14.6,0-29.4,0-44,0c0,3.6,0,8.4,0,12c14.6,0,29.4,0,44,0v4h4c0,13.2,0,26.8,0,40h-4v4
		c-14.6,0-29.4,0-44,0c0,21.3,0,42.7,0,64c23.9,0,48.1,0,72,0c0-84,0-168,0-252c44,0,88,0,132,0c0,84,0,168,0,252
		c34.6,0,69.4,0,104,0c0-10.5,0-21.5,0-32h-4c0-2,0-6,0-8h-4c0-13.2,0-26.8,0-40h-4c0,15.9,0,32.1,0,48h-4c0-17.2,0-34.8,0-52h-4
		c0-5,0-11,0-16h4c0-2,0-6,0-8h4v-4h4v-4h4v-4c2,0,6,0,8,0c0-3.6,0-8.4,0-12h-4c0-3.6,0-8.4,0-12h-4c0-6.4,0-13.6,0-20h4v-4
		c6.4,0,13.6,0,20,0v-4h4c0,2,0,6,0,8h-4c0,10.5,0,21.5,0,32h-4v4h-4c0,2,0,6,0,8c2,0,6,0,8,0c0,2,0,6,0,8h4c0,2,0,6,0,8h4v-4h4v-4
		h4v-4h4v-4h4c0-2,0-6,0-8h4v-4h4v-4h4c0-2,0-6,0-8h4v-4h4c0-2,0-6,0-8h4v-4h4v-4h4c0-2,0-6,0-8h4v-4h-4v-4h4v-4h4v-4h4c0-2,0-6,0-8
		h4v-4c-2,0-6,0-8,0c0-2,0-6,0-8h-4V420z M208,296c0-14.6,0-29.4,0-44h4v-4c30.6,0,61.4,0,92,0v4h4c0,15.9,0,32.1,0,48h-4v4
		c-30.6,0-61.4,0-92,0v-4h-4V296z"/>
	<path class="st50" d="M196,436v-4c-2,0-6,0-8,0v4C190,436,194,436,196,436z"/>
	<path class="st50" d="M220,436v-4c-2,0-6,0-8,0v4C214,436,218,436,220,436z"/>
	<path class="st50" d="M204,496h4v-4c-3.6,0-8.4,0-12,0v4C198,496,202,496,204,496z"/>
	<path class="st50" d="M220,496v-4c-2,0-6,0-8,0v4C214,496,218,496,220,496z"/>
	<rect x="632" y="500" class="st50" width="4" height="4"/>
	<rect x="636" y="504" class="st50" width="4" height="4"/>
	<rect x="784" y="520" class="st50" width="4" height="4"/>
	<rect x="780" y="524" class="st50" width="4" height="4"/>
	<rect x="776" y="528" class="st50" width="4" height="4"/>
	<path class="st50" d="M844,532c-5,0-11,0-16,0v4h-4v4c-2,0-6,0-8,0v4c7.8,0,16.2,0,24,0v-4c2,0,6,0,8,0v-4h-4V532z"/>
	<path class="st50" d="M768,544h4c0-2,0-6,0-8h-4C768,538,768,542,768,544z"/>
	<path class="st50" d="M804,540v4c2,0,6,0,8,0v-4C810,540,806,540,804,540z"/>
	<path class="st50" d="M196,556v-4c-2,0-6,0-8,0v4C190,556,194,556,196,556z"/>
	<path class="st50" d="M220,556v-4c-2,0-6,0-8,0v4C214,556,218,556,220,556z"/>
	<path class="st50" d="M1060,564h-4c0,6.4,0,13.6,0,20h4v-4h4c0-7.8,0-16.2,0-24h-4C1060,558,1060,562,1060,564z"/>
	<path class="st50" d="M1032,584h-4v-4c-3.6,0-8.4,0-12,0c0,17.2,0,34.8,0,52c5,0,11,0,16,0c0-3.6,0-8.4,0-12h-4c0-3.6,0-8.4,0-12
		h-4c0-2,0-6,0-8c3.6,0,8.4,0,12,0c0-3.6,0-8.4,0-12h-4V584z"/>
	<rect x="1036" y="584" class="st50" width="4" height="4"/>
	<path class="st50" d="M1060,592h-4v4h-4v4c3.6,0,8.4,0,12,0c0-5,0-11,0-16h-4C1060,586,1060,590,1060,592z"/>
	<path class="st50" d="M628,596h-4c0,2,0,6,0,8h-4c0,9.2,0,18.8,0,28c3.6,0,8.4,0,12,0c0-13.2,0-26.8,0-40h-4V596z"/>
	<path class="st50" d="M500,600h-4c0,10.5,0,21.5,0,32c3.6,0,8.4,0,12,0c0-10.5,0-21.5,0-32C506,600,502,600,500,600z"/>
	<path class="st50" d="M520,600c0-11.9,0-24.1,0-36h-4c0,11.9,0,24.1,0,36h-4c0,10.5,0,21.5,0,32c3.6,0,8.4,0,12,0
		c0-9.2,0-18.8,0-28h-4V600z"/>
	<path class="st50" d="M648,616c0,5,0,11,0,16h4c0-6.4,0-13.6,0-20h-4V616z"/>
	<path class="st50" d="M1060,624c0,2,0,6,0,8h4c0-3.6,0-8.4,0-12h-4V624z"/>
</g>
<path class="st51" d="M1060,608c-10.5,0-21.5,0-32,0v4c9.2,0,18.8,0,28,0c0,2,0,6,0,8h-4c0,3.6,0,8.4,0,12c-5,0-11,0-16,0v4
	c6.4,0,13.6,0,20,0v-4h4c0-3.6,0-8.4,0-12h4c0-3.6,0-8.4,0-12H1060z"/>
<g>
	<path class="st52" d="M956,204c0-31.9,0-64.1,0-96h-4c0,33.3,0,66.7,0,100h4V204z"/>
	<path class="st52" d="M960,212c2,0,6,0,8,0v-4c-3.6,0-8.4,0-12,0v4H960z"/>
	<path class="st52" d="M296,248c-27.9,0-56.1,0-84,0v4c30.6,0,61.4,0,92,0v-4C302,248,298,248,296,248z"/>
	<path class="st52" d="M576,248c-74.6,0-149.4,0-224,0v4c77.3,0,154.7,0,232,0v-4C582,248,578,248,576,248z"/>
	<path class="st52" d="M708,248c-38.6,0-77.4,0-116,0v4c41.3,0,82.7,0,124,0v-4C714,248,710,248,708,248z"/>
	<path class="st52" d="M772,252c88,0,176,0,264,0v-4c-90.6,0-181.4,0-272,0v4C766,252,770,252,772,252z"/>
	<path class="st52" d="M208,256c0,14.6,0,29.4,0,44h4c0-15.9,0-32.1,0-48h-4V256z"/>
	<path class="st52" d="M348,256c0,14.6,0,29.4,0,44h4c0-15.9,0-32.1,0-48h-4V256z"/>
	<path class="st52" d="M764,296c0-14.6,0-29.4,0-44h-4c0,15.9,0,32.1,0,48h4V296z"/>
	<path class="st52" d="M740,368v-4h4c0-2,0-6,0-8c-2,0-6,0-8,0c0,5,0,11,0,16h4V368z"/>
	<path class="st52" d="M808,368c0-3.6,0-8.4,0-12c-2,0-6,0-8,0c0,10.5,0,21.5,0,32h4c0-5,0-11,0-16h4V368z"/>
	<path class="st52" d="M744,380v-4c-2,0-6,0-8,0c0,3.6,0,8.4,0,12h4v-4h4V380z"/>
	<path class="st52" d="M800,392c0,11.9,0,24.1,0,36h4c0-7.8,0-16.2,0-24h4c0-3.6,0-8.4,0-12C806,392,802,392,800,392z"/>
	<path class="st52" d="M196,416v-4c-2,0-6,0-8,0v4C190,416,194,416,196,416z"/>
	<path class="st52" d="M212,412c-3.6,0-8.4,0-12,0v4c6.4,0,13.6,0,20,0v-4C218,412,214,412,212,412z"/>
	<path class="st52" d="M196,424h4v-4c-3.6,0-8.4,0-12,0v4C190,424,194,424,196,424z"/>
	<rect x="204" y="420" class="st52" width="4" height="4"/>
	<rect x="216" y="420" class="st52" width="4" height="4"/>
	<path class="st52" d="M936,424c0-22.6,0-45.4,0-68h-4c0,25.3,0,50.7,0,76h4C936,430,936,426,936,424z"/>
	<path class="st52" d="M1008,424c0-22.6,0-45.4,0-68h-4c0,25.3,0,50.7,0,76h4C1008,430,1008,426,1008,424z"/>
	<path class="st52" d="M924,432c-58.6,0-117.4,0-176,0v4c61.3,0,122.7,0,184,0v-4C930,432,926,432,924,432z"/>
	<path class="st52" d="M996,432c-19.9,0-40.1,0-60,0v4c22.6,0,45.4,0,68,0v-4C1002,432,998,432,996,432z"/>
	<path class="st52" d="M1068,432c-19.9,0-40.1,0-60,0v4c21.3,0,42.7,0,64,0v-4H1068z"/>
	<rect x="204" y="476" class="st52" width="4" height="4"/>
	<rect x="212" y="476" class="st52" width="4" height="4"/>
	<path class="st52" d="M196,488c2,0,6,0,8,0v-4c-5,0-11,0-16,0v4C190,488,194,488,196,488z"/>
	<path class="st52" d="M212,484h-4v4c3.6,0,8.4,0,12,0v-4C218,484,214,484,212,484z"/>
	<path class="st52" d="M196,536v-4c-2,0-6,0-8,0v4C190,536,194,536,196,536z"/>
	<path class="st52" d="M212,532c-3.6,0-8.4,0-12,0v4c6.4,0,13.6,0,20,0v-4C218,532,214,532,212,532z"/>
	<path class="st52" d="M192,540h-4v4c3.6,0,8.4,0,12,0v-4C198,540,194,540,192,540z"/>
	<rect x="204" y="540" class="st52" width="4" height="4"/>
	<rect x="216" y="540" class="st52" width="4" height="4"/>
	<path class="st52" d="M1004,552c-85.3,0-170.7,0-256,0v4c19.9,0,40.1,0,60,0c0,26.6,0,53.4,0,80c-21.3,0-42.7,0-64,0v4
		c36,0,72,0,108,0v-4c-13.2,0-26.8,0-40,0c0-26.6,0-53.4,0-80c21.3,0,42.7,0,64,0c0,26.6,0,53.4,0,80c-6.4,0-13.6,0-20,0v4
		c52,0,104,0,156,0v-4c-21.3,0-42.7,0-64,0c0-26.6,0-53.4,0-80c21.3,0,42.7,0,64,0v-4C1010,552,1006,552,1004,552z M944,560
		c0,25.3,0,50.7,0,76c-21.3,0-42.7,0-64,0c0-26.6,0-53.4,0-80c21.3,0,42.7,0,64,0V560z"/>
	<path class="st52" d="M348,564h-4v4c2,0,6,0,8,0c0,10.5,0,21.5,0,32h-4v4c-9.2,0-18.8,0-28,0c0,2,0,6,0,8c11.9,0,24.1,0,36,0
		c0-15.9,0-32.1,0-48C354,564,350,564,348,564z"/>
	<path class="st52" d="M324,596c0-9.2,0-18.8,0-28c2,0,6,0,8,0v-4c-3.6,0-8.4,0-12,0c0,11.9,0,24.1,0,36h4V596z"/>
</g>
<g>
	<rect x="384" y="104" class="st53" width="4" height="4"/>
	<rect x="708" y="104" class="st53" width="4" height="4"/>
	<rect x="388" y="108" class="st53" width="4" height="4"/>
	<rect x="704" y="108" class="st53" width="4" height="4"/>
	<rect x="408" y="140" class="st53" width="4" height="4"/>
	<rect x="684" y="140" class="st53" width="4" height="4"/>
	<rect x="412" y="144" class="st53" width="4" height="4"/>
	<rect x="680" y="144" class="st53" width="4" height="4"/>
	<path class="st53" d="M1072,356c-21.3,0-42.7,0-64,0c0,25.3,0,50.7,0,76c22.6,0,45.4,0,68,0c0-25.3,0-50.7,0-76H1072z M1016,420
		c5,0,11,0,16,0v4c-5,0-11,0-16,0V420z"/>
	<path class="st53" d="M368,380c-37.3,0-74.7,0-112,0c0,89.3,0,178.7,0,268c2,0,6,0,8,0v-4c36,0,72,0,108,0v4h4
		c0-89.3,0-178.7,0-268C374,380,370,380,368,380z M372,556c0,25.3,0,50.7,0,76c-37.3,0-74.7,0-112,0c0-26.6,0-53.4,0-80
		c37.3,0,74.7,0,112,0V556z M372,472c0,25.3,0,50.7,0,76c-37.3,0-74.7,0-112,0c0-26.6,0-53.4,0-80c37.3,0,74.7,0,112,0V472z
		 M372,388c0,25.3,0,50.7,0,76c-37.3,0-74.7,0-112,0c0-26.6,0-53.4,0-80c37.3,0,74.7,0,112,0V388z"/>
	<path class="st53" d="M220,408c-13.2,0-26.8,0-40,0c0,10.5,0,21.5,0,32c15.9,0,32.1,0,48,0c0-10.5,0-21.5,0-32
		C226,408,222,408,220,408z M204,412c5,0,11,0,16,0v4c-6.4,0-13.6,0-20,0v-4H204z M220,424h-4v-4h4V424z M192,424h-4v-4
		c3.6,0,8.4,0,12,0v4C198,424,194,424,192,424z M204,420h4v4h-4V420z M192,412h4v4c-2,0-6,0-8,0v-4H192z M192,436h-4v-4c2,0,6,0,8,0
		v4H192z M204,436h-4c0-2,0-6,0-8c2,0,6,0,8,0c0,2,0,6,0,8H204z M216,436h-4v-4c2,0,6,0,8,0v4H216z"/>
	<path class="st53" d="M884,432c15.9,0,32.1,0,48,0c0-25.3,0-50.7,0-76c-21.3,0-42.7,0-64,0c0,25.3,0,50.7,0,76
		C873,432,879,432,884,432z M924,424c-5,0-11,0-16,0v-4c5,0,11,0,16,0V424z"/>
	<path class="st53" d="M952,432c17.2,0,34.8,0,52,0c0-25.3,0-50.7,0-76c-22.6,0-45.4,0-68,0c0,25.3,0,50.7,0,76
		C941,432,947,432,952,432z M944,420c5,0,11,0,16,0v4c-5,0-11,0-16,0V420z"/>
	<path class="st53" d="M220,468c-13.2,0-26.8,0-40,0c0,10.5,0,21.5,0,32c15.9,0,32.1,0,48,0c0-10.5,0-21.5,0-32
		C226,468,222,468,220,468z M220,488c-3.6,0-8.4,0-12,0v-4c3.6,0,8.4,0,12,0V488z M188,484c5,0,11,0,16,0v4c-5,0-11,0-16,0V484z
		 M204,476h4v4h-4V476z M216,480h-4v-4h4V480z M196,472v4h4v4h-4v-4h-4v4h-4v-4h4v-4H196z M188,496v-4h4v4H188z M204,496
		c-2,0-6,0-8,0v-4c3.6,0,8.4,0,12,0v4H204z M216,496h-4v-4c2,0,6,0,8,0v4H216z"/>
	<path class="st53" d="M360,480h-4v4c2,0,6,0,8,0c0,10.5,0,21.5,0,32h-4v4c-9.2,0-18.8,0-28,0c0,2,0,6,0,8c11.9,0,24.1,0,36,0
		c0-15.9,0-32.1,0-48C366,480,362,480,360,480z"/>
	<path class="st53" d="M340,492v4c6.4,0,13.6,0,20,0v-4C353.6,492,346.4,492,340,492z"/>
	<path class="st53" d="M360,500c-6.4,0-13.6,0-20,0v4c6.4,0,13.6,0,20,0V500z"/>
	<path class="st53" d="M500,500h-4c0,3.6,0,8.4,0,12h4v-4h4v-4h-4V500z"/>
	<path class="st53" d="M648,504v4h-4v4c3.6,0,8.4,0,12,0c0-2,0-6,0-8C654,504,650,504,648,504z"/>
	<path class="st53" d="M340,508v4c2,0,6,0,8,0v-4C346,508,342,508,340,508z"/>
	<path class="st53" d="M352,508v4c2,0,6,0,8,0v-4C358,508,354,508,352,508z"/>
	<path class="st53" d="M336,512c0-9.2,0-18.8,0-28c2,0,6,0,8,0v-4c-3.6,0-8.4,0-12,0c0,11.9,0,24.1,0,36h4V512z"/>
	<path class="st53" d="M220,528c-13.2,0-26.8,0-40,0c0,10.5,0,21.5,0,32c15.9,0,32.1,0,48,0c0-10.5,0-21.5,0-32
		C226,528,222,528,220,528z M204,532c5,0,11,0,16,0v4c-6.4,0-13.6,0-20,0v-4H204z M220,544h-4v-4h4V544z M192,544h-4v-4
		c3.6,0,8.4,0,12,0v4C198,544,194,544,192,544z M204,540h4v4h-4V540z M192,532h4v4c-2,0-6,0-8,0v-4H192z M192,556h-4v-4c2,0,6,0,8,0
		v4H192z M204,556h-4c0-2,0-6,0-8c2,0,6,0,8,0c0,2,0,6,0,8H204z M216,556h-4v-4c2,0,6,0,8,0v4H216z"/>
	<rect x="592" y="536" class="st53" width="4" height="4"/>
	<rect x="624" y="548" class="st53" width="4" height="4"/>
	<path class="st53" d="M800,556c-17.2,0-34.8,0-52,0c0,26.6,0,53.4,0,80c19.9,0,40.1,0,60,0c0-26.6,0-53.4,0-80
		C806,556,802,556,800,556z M800,568c-5,0-11,0-16,0v-4c5,0,11,0,16,0V568z"/>
	<path class="st53" d="M868,556c-18.6,0-37.4,0-56,0c0,26.6,0,53.4,0,80c13.2,0,26.8,0,40,0c0-13.2,0-26.8,0-40c-6.4,0-13.6,0-20,0
		c0-2,0-6,0-8h4v-4c11.9,0,24.1,0,36,0v4h4c0-10.5,0-21.5,0-32C874,556,870,556,868,556z M820,564c5,0,11,0,16,0v4c-5,0-11,0-16,0
		V564z"/>
	<path class="st53" d="M936,556c-18.6,0-37.4,0-56,0c0,26.6,0,53.4,0,80c21.3,0,42.7,0,64,0c0-26.6,0-53.4,0-80
		C942,556,938,556,936,556z M936,568c-5,0-11,0-16,0v-4c5,0,11,0,16,0V568z"/>
	<path class="st53" d="M1008,556c-19.9,0-40.1,0-60,0c0,26.6,0,53.4,0,80c22.6,0,45.4,0,68,0c0-26.6,0-53.4,0-80
		C1014,556,1010,556,1008,556z M956,564c5,0,11,0,16,0v4c-5,0-11,0-16,0V564z"/>
	<path class="st53" d="M608,560c-14.6,0-29.4,0-44,0v-4c-5,0-11,0-16,0v4h-4v4c3.6,0,8.4,0,12,0v4c7.8,0,16.2,0,24,0v-4h4v4
		c9.2,0,18.8,0,28,0v-4h4v-4C614,560,610,560,608,560z"/>
	<rect x="620" y="564" class="st53" width="4" height="4"/>
	<rect x="672" y="584" class="st53" width="4" height="4"/>
	<rect x="476" y="588" class="st53" width="4" height="4"/>
	<rect x="512" y="588" class="st53" width="4" height="4"/>
	<path class="st53" d="M868,596h-4v4h4v4c2,0,6,0,8,0c0-2,0-6,0-8C874,596,870,596,868,596z"/>
	<path class="st53" d="M864,600h-4v-4h-4c0,13.2,0,26.8,0,40c6.4,0,13.6,0,20,0c0-9.2,0-18.8,0-28c-2,0-6,0-8,0v-4h-4V600z"/>
</g>
<g>
	<path class="st54" d="M964,208h4v-4c-2,0-6,0-8,0c0-31.9,0-64.1,0-96h-4c0,33.3,0,66.7,0,100C958,208,962,208,964,208z"/>
	<path class="st54" d="M304,256c0,14.6,0,29.4,0,44h4c0-15.9,0-32.1,0-48h-4V256z"/>
	<path class="st54" d="M716,256c0,14.6,0,29.4,0,44h4c0-15.9,0-32.1,0-48h-4V256z"/>
	<path class="st54" d="M1036,252c0,15.9,0,32.1,0,48h4c0-15.9,0-32.1,0-48H1036z"/>
	<path class="st54" d="M296,300c-27.9,0-56.1,0-84,0v4c30.6,0,61.4,0,92,0v-4C302,300,298,300,296,300z"/>
	<path class="st54" d="M576,300c-74.6,0-149.4,0-224,0v4c77.3,0,154.7,0,232,0v-4C582,300,578,300,576,300z"/>
	<path class="st54" d="M708,300c-38.6,0-77.4,0-116,0v4c41.3,0,82.7,0,124,0v-4C714,300,710,300,708,300z"/>
	<path class="st54" d="M1028,300c-88,0-176,0-264,0v4c90.6,0,181.4,0,272,0v-4C1034,300,1030,300,1028,300z"/>
	<path class="st54" d="M380,380h-4c0,89.3,0,178.7,0,268h4c0-2,0-6,0-8h4c0-2,0-6,0-8h4c0-84,0-168,0-252C386,380,382,380,380,380z"
		/>
	<rect x="932" y="432" class="st54" width="4" height="4"/>
	<rect x="1004" y="432" class="st54" width="4" height="4"/>
	<rect x="192" y="472" class="st54" width="4" height="4"/>
	<rect x="188" y="476" class="st54" width="4" height="4"/>
	<rect x="196" y="476" class="st54" width="4" height="4"/>
	<path class="st54" d="M1004,548c-85.3,0-170.7,0-256,0v4c88,0,176,0,264,0v-4C1010,548,1006,548,1004,548z"/>
</g>
<g>
	<rect x="784" y="512" class="st55" width="4" height="4"/>
	<rect x="780" y="516" class="st55" width="4" height="4"/>
	<path class="st55" d="M816,520v4h-4v4h-4v4h-4v4h-4v4c-2,0-6,0-8,0v-4h-4v4h-4v-4h-4v4c-2,0-6,0-8,0v4c10.5,0,21.5,0,32,0v-4h4v-4
		h4v-4h4v-4h4c0-3.6,0-8.4,0-12h-4V520z"/>
	<rect x="776" y="520" class="st55" width="4" height="4"/>
	<rect x="772" y="524" class="st55" width="4" height="4"/>
	<rect x="768" y="528" class="st55" width="4" height="4"/>
	<rect x="788" y="528" class="st55" width="4" height="4"/>
	<rect x="796" y="528" class="st55" width="4" height="4"/>
	<rect x="784" y="532" class="st55" width="4" height="4"/>
	<rect x="792" y="532" class="st55" width="4" height="4"/>
	<path class="st55" d="M904,540c-9.2,0-18.8,0-28,0v4c10.5,0,21.5,0,32,0v-4H904z"/>
	<path class="st55" d="M868,588c-11.9,0-24.1,0-36,0c0,2,0,6,0,8c14.6,0,29.4,0,44,0c0-2,0-6,0-8C874,588,870,588,868,588z"/>
	<path class="st55" d="M868,604v4c2,0,6,0,8,0v-4C874,604,870,604,868,604z"/>
	<path class="st55" d="M860,644h-4c0-7.8,0-16.2,0-24h-4c0,7.8,0,16.2,0,24c-2,0-6,0-8,0v4c2,0,6,0,8,0v4h4v-4c2,0,6,0,8,0v-4H860z"
		/>
	<path class="st55" d="M836,648v4c2,0,6,0,8,0v-4C842,648,838,648,836,648z"/>
	<path class="st55" d="M864,648v4c2,0,6,0,8,0v-4C870,648,866,648,864,648z"/>
</g>
<g>
	<path class="st56" d="M1004,196h4c0-3.6,0-8.4,0-12c-3.6,0-8.4,0-12,0c0,3.6,0,8.4,0,12C998,196,1002,196,1004,196z M1000,188h4v4
		h-4V188z"/>
	<rect x="968" y="220" class="st56" width="4" height="4"/>
	<rect x="1032" y="220" class="st56" width="4" height="4"/>
	<path class="st56" d="M1024,224c-17.2,0-34.8,0-52,0v4c19.9,0,40.1,0,60,0v-4C1030,224,1026,224,1024,224z"/>
	<path class="st56" d="M444,260c0,3.6,0,8.4,0,12h4c0-5,0-11,0-16h-4V260z"/>
	<path class="st56" d="M532,260c0,11.9,0,24.1,0,36h4c0-13.2,0-26.8,0-40h-4V260z"/>
	<path class="st56" d="M620,260c0,11.9,0,24.1,0,36h4c0-13.2,0-26.8,0-40h-4V260z"/>
	<path class="st56" d="M860,260v-4h-4c0,2,0,6,0,8h4V260z"/>
	<rect x="272" y="280" class="st56" width="4" height="4"/>
	<path class="st56" d="M444,284c0,3.6,0,8.4,0,12h4c0-5,0-11,0-16h-4V284z"/>
	<path class="st56" d="M860,292v-4h-4c0,2,0,6,0,8h4V292z"/>
	<path class="st56" d="M268,400h4c0-5,0-11,0-16c-3.6,0-8.4,0-12,0c0,5,0,11,0,16C262,400,266,400,268,400z"/>
	<path class="st56" d="M268,424h4c0-6.4,0-13.6,0-20c-3.6,0-8.4,0-12,0c0,6.4,0,13.6,0,20C262,424,266,424,268,424z"/>
	<path class="st56" d="M268,448h4c0-6.4,0-13.6,0-20c-3.6,0-8.4,0-12,0c0,6.4,0,13.6,0,20C262,448,266,448,268,448z"/>
	<path class="st56" d="M268,464h4c0-3.6,0-8.4,0-12c-3.6,0-8.4,0-12,0c0,3.6,0,8.4,0,12C262,464,266,464,268,464z"/>
	<path class="st56" d="M268,484h4c0-5,0-11,0-16c-3.6,0-8.4,0-12,0c0,5,0,11,0,16C262,484,266,484,268,484z"/>
	<path class="st56" d="M268,508h4c0-6.4,0-13.6,0-20c-3.6,0-8.4,0-12,0c0,6.4,0,13.6,0,20C262,508,266,508,268,508z"/>
	<path class="st56" d="M900,508c-13.2,0-26.8,0-40,0c0,10.5,0,21.5,0,32c15.9,0,32.1,0,48,0c0-10.5,0-21.5,0-32
		C906,508,902,508,900,508z M904,516c0,6.4,0,13.6,0,20c-13.2,0-26.8,0-40,0c0-7.8,0-16.2,0-24c13.2,0,26.8,0,40,0V516z"/>
	<rect x="832" y="524" class="st56" width="4" height="4"/>
	<rect x="840" y="524" class="st56" width="4" height="4"/>
	<path class="st56" d="M268,532h4c0-6.4,0-13.6,0-20c-3.6,0-8.4,0-12,0c0,6.4,0,13.6,0,20C262,532,266,532,268,532z"/>
	<rect x="828" y="528" class="st56" width="4" height="4"/>
	<path class="st56" d="M848,528h-4c0,2,0,6,0,8h4C848,534,848,530,848,528z"/>
	<rect x="824" y="532" class="st56" width="4" height="4"/>
	<rect x="808" y="536" class="st56" width="4" height="4"/>
	<path class="st56" d="M816,536v4c2,0,6,0,8,0v-4C822,536,818,536,816,536z"/>
	<rect x="848" y="536" class="st56" width="4" height="4"/>
	<path class="st56" d="M280,544c-2,0-6,0-8,0c0-2,0-6,0-8c-3.6,0-8.4,0-12,0c0,3.6,0,8.4,0,12c6.4,0,13.6,0,20,0V544z"/>
	<path class="st56" d="M304,544c-6.4,0-13.6,0-20,0v4c6.4,0,13.6,0,20,0V544z"/>
	<path class="st56" d="M328,544c-6.4,0-13.6,0-20,0v4c6.4,0,13.6,0,20,0V544z"/>
	<path class="st56" d="M352,544c-6.4,0-13.6,0-20,0v4c6.4,0,13.6,0,20,0V544z"/>
	<path class="st56" d="M364,544c-2,0-6,0-8,0v4c5,0,11,0,16,0v-4C370,544,366,544,364,544z"/>
	<path class="st56" d="M268,568h4c0-5,0-11,0-16c-3.6,0-8.4,0-12,0c0,5,0,11,0,16C262,568,266,568,268,568z"/>
	<path class="st56" d="M268,592h4c0-6.4,0-13.6,0-20c-3.6,0-8.4,0-12,0c0,6.4,0,13.6,0,20C262,592,266,592,268,592z"/>
	<path class="st56" d="M852,600c0,3.6,0,8.4,0,12h4c0-5,0-11,0-16h-4V600z"/>
	<rect x="860" y="596" class="st56" width="4" height="4"/>
	<rect x="864" y="600" class="st56" width="4" height="4"/>
	<path class="st56" d="M268,616h4c0-6.4,0-13.6,0-20c-3.6,0-8.4,0-12,0c0,6.4,0,13.6,0,20C262,616,266,616,268,616z"/>
	<path class="st56" d="M272,620c-3.6,0-8.4,0-12,0c0,3.6,0,8.4,0,12c5,0,11,0,16,0c0-2,0-6,0-8h-4V620z"/>
	<path class="st56" d="M292,624c-3.6,0-8.4,0-12,0c0,2,0,6,0,8c6.4,0,13.6,0,20,0c0-2,0-6,0-8C298,624,294,624,292,624z"/>
	<path class="st56" d="M316,624c-3.6,0-8.4,0-12,0c0,2,0,6,0,8c6.4,0,13.6,0,20,0c0-2,0-6,0-8C322,624,318,624,316,624z"/>
	<path class="st56" d="M340,624c-3.6,0-8.4,0-12,0c0,2,0,6,0,8c6.4,0,13.6,0,20,0c0-2,0-6,0-8C346,624,342,624,340,624z"/>
	<path class="st56" d="M364,624c-3.6,0-8.4,0-12,0c0,2,0,6,0,8c6.4,0,13.6,0,20,0c0-2,0-6,0-8C370,624,366,624,364,624z"/>
	<rect x="836" y="652" class="st56" width="4" height="4"/>
	<rect x="852" y="652" class="st56" width="4" height="4"/>
	<rect x="872" y="652" class="st56" width="4" height="4"/>
</g>
<g>
	<path class="st57" d="M252,104c44,0,88,0,132,0v-4c-57.3,0-114.7,0-172,0v4C225.2,104,238.8,104,252,104z"/>
	<path class="st57" d="M480,104c53.3,0,106.7,0,160,0v-4c-61.3,0-122.7,0-184,0v4C463.8,104,472.2,104,480,104z"/>
	<path class="st57" d="M880,100c-56,0-112,0-168,0v4c57.3,0,114.7,0,172,0v-4H880z"/>
	<path class="st57" d="M400,136c-50.6,0-101.4,0-152,0v4c53.3,0,106.7,0,160,0v-4C406,136,402,136,400,136z"/>
	<path class="st57" d="M552,140c10.5,0,21.5,0,32,0v-4c-36,0-72,0-108,0v4C501.3,140,526.7,140,552,140z"/>
	<path class="st57" d="M620,136c-9.2,0-18.8,0-28,0v4c9.2,0,18.8,0,28,0V136z"/>
	<path class="st57" d="M844,140c2,0,6,0,8,0v-4c-54.6,0-109.4,0-164,0v4C740,140,792,140,844,140z"/>
	<rect x="572" y="352" class="st57" width="4" height="4"/>
	<rect x="568" y="356" class="st57" width="4" height="4"/>
	<rect x="564" y="360" class="st57" width="4" height="4"/>
	<rect x="576" y="360" class="st57" width="4" height="4"/>
	<path class="st57" d="M764,364v-4c-2,0-6,0-8,0v4C758,364,762,364,764,364z"/>
	<rect x="560" y="364" class="st57" width="4" height="4"/>
	<rect x="572" y="364" class="st57" width="4" height="4"/>
	<rect x="556" y="368" class="st57" width="4" height="4"/>
	<rect x="568" y="368" class="st57" width="4" height="4"/>
	<rect x="824" y="368" class="st57" width="4" height="4"/>
	<rect x="840" y="368" class="st57" width="4" height="4"/>
	<rect x="848" y="368" class="st57" width="4" height="4"/>
	<rect x="552" y="372" class="st57" width="4" height="4"/>
	<rect x="564" y="372" class="st57" width="4" height="4"/>
	<rect x="548" y="376" class="st57" width="4" height="4"/>
	<rect x="560" y="376" class="st57" width="4" height="4"/>
	<rect x="556" y="380" class="st57" width="4" height="4"/>
	<path class="st57" d="M828,380v-4c-2,0-6,0-8,0c0,2,0,6,0,8c2,0,6,0,8,0V380z"/>
	<path class="st57" d="M772,384c-3.6,0-8.4,0-12,0v4c3.6,0,8.4,0,12,0V384z"/>
	<path class="st57" d="M784,392h-4c0,2,0,6,0,8c3.6,0,8.4,0,12,0c0-2,0-6,0-8C790,392,786,392,784,392z"/>
	<rect x="560" y="396" class="st57" width="4" height="4"/>
	<rect x="828" y="396" class="st57" width="4" height="4"/>
	<rect x="848" y="396" class="st57" width="4" height="4"/>
	<rect x="564" y="400" class="st57" width="4" height="4"/>
	<rect x="568" y="404" class="st57" width="4" height="4"/>
	<rect x="560" y="408" class="st57" width="4" height="4"/>
	<rect x="572" y="408" class="st57" width="4" height="4"/>
	<rect x="564" y="412" class="st57" width="4" height="4"/>
	<rect x="576" y="412" class="st57" width="4" height="4"/>
	<rect x="748" y="412" class="st57" width="4" height="4"/>
	<path class="st57" d="M776,412v4c2,0,6,0,8,0v-4C782,412,778,412,776,412z"/>
	<rect x="568" y="416" class="st57" width="4" height="4"/>
	<rect x="580" y="416" class="st57" width="4" height="4"/>
	<path class="st57" d="M848,416h-4c0,2,0,6,0,8c3.6,0,8.4,0,12,0c0-2,0-6,0-8C854,416,850,416,848,416z"/>
	<rect x="572" y="420" class="st57" width="4" height="4"/>
	<rect x="748" y="420" class="st57" width="4" height="4"/>
	<path class="st57" d="M776,420h-4v4c3.6,0,8.4,0,12,0v-4C782,420,778,420,776,420z"/>
	<path class="st57" d="M592,448h-4v-4c-3.6,0-8.4,0-12,0v4h-4v4h-4v4c9.2,0,18.8,0,28,0v-4h-4V448z"/>
	<rect x="640" y="508" class="st57" width="4" height="4"/>
	<path class="st57" d="M676,524v-4h-4v-4h-4v-4h-4v4h-4c0,2,0,6,0,8h-4v4c3.6,0,8.4,0,12,0v4h4c0,5,0,11,0,16c2,0,6,0,8,0
		c0-6.4,0-13.6,0-20h-4V524z"/>
	<path class="st57" d="M632,536v-4h4c0-2,0-6,0-8h-4c0-2,0-6,0-8h-4c0,2,0,6,0,8h-4c0,2,0,6,0,8h-4v4C623.6,536,628.4,536,632,536z"
		/>
	<path class="st57" d="M664,548v-4h-4c0,17.2,0,34.8,0,52h4c0,10.5,0,21.5,0,32c-3.6,0-8.4,0-12,0c0,10.5,0,21.5,0,32c5,0,11,0,16,0
		c0-23.9,0-48.1,0-72h4c0-13.2,0-26.8,0-40C670,548,666,548,664,548z"/>
	<path class="st57" d="M632,588c0-2,0-6,0-8h-4c0,3.6,0,8.4,0,12h4V588z"/>
	<path class="st57" d="M652,608c0-2,0-6,0-8c-2,0-6,0-8,0c0,9.2,0,18.8,0,28c-3.6,0-8.4,0-12,0c0,10.5,0,21.5,0,32c5,0,11,0,16,0
		c0-15.9,0-32.1,0-48h4V608z"/>
</g>
<g>
	<path class="st58" d="M800,520c2,0,6,0,8,0v-4c-5,0-11,0-16,0v4C794,520,798,520,800,520z"/>
	<path class="st58" d="M812,520v4h4c0-2,0-6,0-8h-4V520z"/>
	<path class="st58" d="M804,524c-3.6,0-8.4,0-12,0v-4h-4v4h-4v4h-4v4h-4v4h-4v4c2,0,6,0,8,0v-4h4v-4h4v-4c3.6,0,8.4,0,12,0v4h-4v4
		h-4v4c2,0,6,0,8,0v-4h4v-4h4v-4h4v-4C810,524,806,524,804,524z"/>
	<path class="st58" d="M872,540c-10.5,0-21.5,0-32,0v4c11.9,0,24.1,0,36,0v-4H872z"/>
	<path class="st58" d="M872,588v-4c-11.9,0-24.1,0-36,0v4C847.9,588,860.1,588,872,588z"/>
	<path class="st58" d="M852,616v4h4c0-2,0-6,0-8h-4V616z"/>
	<path class="st58" d="M836,652h-4c0,2,0,6,0,8c2,0,6,0,8,0v-4h-4V652z"/>
	<path class="st58" d="M852,652h-4c0,2,0,6,0,8c2,0,6,0,8,0v-4h-4V652z"/>
	<path class="st58" d="M872,652h-4c0,2,0,6,0,8c2,0,6,0,8,0v-4h-4V652z"/>
</g>
<g>
	<path class="st59" d="M564,540v-4h-4c0,2,0,6,0,8c2,0,6,0,8,0v-4H564z"/>
	<path class="st59" d="M592,544v-4h-4c0,2,0,6,0,8c-3.6,0-8.4,0-12,0v-4c-2,0-6,0-8,0v4h4v4c-2,0-6,0-8,0c0,2,0,6,0,8
		c7.8,0,16.2,0,24,0v-4c2,0,6,0,8,0c0-2,0-6,0-8h-4V544z"/>
	<path class="st59" d="M608,556v4c2,0,6,0,8,0v-4C614,556,610,556,608,556z"/>
	<path class="st59" d="M636,580h-4v4c3.6,0,8.4,0,12,0v-4C642,580,638,580,636,580z"/>
	<path class="st59" d="M656,580c-2,0-6,0-8,0v4c2,0,6,0,8,0V580z"/>
	<path class="st59" d="M508,596v-4c-3.6,0-8.4,0-12,0c0,2,0,6,0,8c3.6,0,8.4,0,12,0V596z"/>
	<path class="st59" d="M492,636c0,10.5,0,21.5,0,32h4c0-11.9,0-24.1,0-36h-4V636z"/>
	<path class="st59" d="M508,636c0,10.5,0,21.5,0,32h4c0-11.9,0-24.1,0-36h-4V636z"/>
	<path class="st59" d="M636,660v4c2,0,6,0,8,0v-4C642,660,638,660,636,660z"/>
	<path class="st59" d="M660,660h-4v4c2,0,6,0,8,0v-4H660z"/>
</g>
<rect x="636" y="664" class="st60" width="4" height="4"/>
<rect x="508" y="668" class="st60" width="4" height="4"/>
<g>
	<path class="st61" d="M512,464c-6.4,0-13.6,0-20,0v4h-4v4h4v4h4v-4c5,0,11,0,16,0v-4h4c0-2,0-6,0-8h-4V464z"/>
	<path class="st61" d="M660,664v4c-3.6,0-8.4,0-12,0v4c5,0,11,0,16,0c0-2,0-6,0-8H660z"/>
	<path class="st61" d="M496,672h-4v-4h-4c0,2,0,6,0,8c5,0,11,0,16,0v-4C502,672,498,672,496,672z"/>
</g>
<path class="st62" d="M612,624c-29.3,0-58.7,0-88,0c0,17.2,0,34.8,0,52c30.6,0,61.4,0,92,0c0-17.2,0-34.8,0-52H612z"/>
<path class="st63" d="M616,604c-30.6,0-61.4,0-92,0c0,6.4,0,13.6,0,20c30.6,0,61.4,0,92,0c0,17.2,0,34.8,0,52h4c0-23.9,0-48.1,0-72
	H616z"/>
<rect x="628" y="672" class="st60" width="4" height="4"/>
<rect x="632" y="672" class="st60" width="4" height="4"/>
<rect x="636" y="672" class="st60" width="4" height="4"/>
<rect x="640" y="672" class="st60" width="4" height="4"/>
<g>
	<path class="st64" d="M496,488c0-3.6,0-8.4,0-12h-4v-4h-4c0,5,0,11,0,16C490,488,494,488,496,488z"/>
	<rect x="492" y="496" class="st64" width="4" height="4"/>
	<path class="st64" d="M640,668c-3.6,0-8.4,0-12,0v4c5,0,11,0,16,0c0-2,0-6,0-8h-4V668z"/>
	<rect x="656" y="664" class="st64" width="4" height="4"/>
	<rect x="492" y="668" class="st64" width="4" height="4"/>
	<path class="st64" d="M512,672h-4v-4h-4c0,2,0,6,0,8c5,0,11,0,16,0v-4C518,672,514,672,512,672z"/>
	<path class="st64" d="M660,672c-3.6,0-8.4,0-12,0v4c5,0,11,0,16,0v-4H660z"/>
	<path class="st64" d="M496,676c-2,0-6,0-8,0v4c5,0,11,0,16,0v-4C502,676,498,676,496,676z"/>
</g>
<rect x="504" y="676" class="st60" width="4" height="4"/>
<rect x="508" y="676" class="st60" width="4" height="4"/>
<rect x="512" y="676" class="st60" width="4" height="4"/>
<rect x="516" y="676" class="st60" width="4" height="4"/>
<path class="st65" d="M612,676c-27.9,0-56.1,0-84,0v4c29.3,0,58.7,0,88,0v-4H612z"/>
<g>
	<rect x="932" y="352" class="st66" width="4" height="4"/>
	<path class="st66" d="M972,356c11.9,0,24.1,0,36,0v-4c-14.6,0-29.4,0-44,0v4C966,356,970,356,972,356z"/>
	<path class="st66" d="M1036,356c13.2,0,26.8,0,40,0v-4c-15.9,0-32.1,0-48,0v4C1030,356,1034,356,1036,356z"/>
	<path class="st66" d="M736,384c0-2,0-6,0-8c19.9,0,40.1,0,60,0c0,7.8,0,16.2,0,24c-15.9,0-32.1,0-48,0v4c15.9,0,32.1,0,48,0
		c0,7.8,0,16.2,0,24c-15.9,0-32.1,0-48,0v4c40,0,80,0,120,0c0-26.6,0-53.4,0-80h-4c0,11.9,0,24.1,0,36c-21.3,0-42.7,0-64,0
		c0-11.9,0-24.1,0-36h-4c0,6.4,0,13.6,0,20c-19.9,0-40.1,0-60,0c0-5,0-11,0-16h-4c0,10.5,0,21.5,0,32h4V384z M804,392
		c19.9,0,40.1,0,60,0c0,11.9,0,24.1,0,36c-21.3,0-42.7,0-64,0c0-11.9,0-24.1,0-36H804z"/>
	<path class="st66" d="M916,424c2,0,6,0,8,0v-4c-5,0-11,0-16,0v4C910,424,914,424,916,424z"/>
	<path class="st66" d="M952,424c2,0,6,0,8,0v-4c-5,0-11,0-16,0v4C946,424,950,424,952,424z"/>
	<path class="st66" d="M1024,424c2,0,6,0,8,0v-4c-5,0-11,0-16,0v4C1018,424,1022,424,1024,424z"/>
	<path class="st66" d="M864,544c-40,0-80,0-120,0v4c92,0,184,0,276,0v-4C968,544,916,544,864,544z"/>
	<path class="st66" d="M792,564c-2,0-6,0-8,0v4c5,0,11,0,16,0v-4C798,564,794,564,792,564z"/>
	<path class="st66" d="M828,564c-2,0-6,0-8,0v4c5,0,11,0,16,0v-4C834,564,830,564,828,564z"/>
	<path class="st66" d="M928,564c-2,0-6,0-8,0v4c5,0,11,0,16,0v-4C934,564,930,564,928,564z"/>
	<path class="st66" d="M964,564c-2,0-6,0-8,0v4c5,0,11,0,16,0v-4C970,564,966,564,964,564z"/>
	<path class="st66" d="M504,672v-4h4c0-11.9,0-24.1,0-36c-3.6,0-8.4,0-12,0c0,13.2,0,26.8,0,40C498,672,502,672,504,672z"/>
	<path class="st66" d="M1120,692v-4h-4v-4h-4v-4h-4v-4h-4v-4h-4v-4h-4v-4h-4v-4h-4v-4h-4v-4h-4v-4h-4v-4h-4v-4h-4v-4h-4v-4
		c-2,0-6,0-8,0v4c-6.4,0-13.6,0-20,0v-4c-6.4,0-13.6,0-20,0v4h-4v4c-52,0-104,0-156,0v4c2,0,6,0,8,0v4c2,0,6,0,8,0v4h4c0,2,0,6,0,8
		c-2,0-6,0-8,0c0-2,0-6,0-8h-4v-4c-2,0-6,0-8,0c0,3.6,0,8.4,0,12c-2,0-6,0-8,0c0-2,0-6,0-8h4v-4c-2,0-6,0-8,0v4h-4c0,2,0,6,0,8
		c-2,0-6,0-8,0c0-2,0-6,0-8h4v-4c2,0,6,0,8,0v-4c2,0,6,0,8,0v-4c-36,0-72,0-108,0v-4h4c0-26.6,0-53.4,0-80h-4c0,25.3,0,50.7,0,76
		c-25.3,0-50.7,0-76,0c0,9.2,0,18.8,0,28h-4c0,5,0,11,0,16c-5,0-11,0-16,0c0-2,0-6,0-8c2,0,6,0,8,0c0-2,0-6,0-8h-4
		c0-9.2,0-18.8,0-28h-4c0,9.2,0,18.8,0,28h-4c0,5,0,11,0,16c-5,0-11,0-16,0c0-2,0-6,0-8c2,0,6,0,8,0c0-2,0-6,0-8h-4
		c0-9.2,0-18.8,0-28c-3.6,0-8.4,0-12,0c0,14.6,0,29.4,0,44h-4v4c-29.3,0-58.7,0-88,0v-4h-4c0-14.6,0-29.4,0-44c-3.6,0-8.4,0-12,0
		c0,13.2,0,26.8,0,40c2,0,6,0,8,0c0,2,0,6,0,8c-10.5,0-21.5,0-32,0c0-3.6,0-8.4,0-12h4c0-11.9,0-24.1,0-36c-36,0-72,0-108,0
		c0,2,0,6,0,8h-4c0,2,0,6,0,8c-2,0-6,0-8,0v-4c-36,0-72,0-108,0v4c-2,0-6,0-8,0c0-5,0-11,0-16c-25.3,0-50.7,0-76,0v4h-4v4h-4v4h-4v4
		h-4v4h-4v4h-4v4h-4v4h-4v4h-4v4h-4v4h-4v4h-4v4h-4v4h-4v4h-4v4c334.7,0,669.3,0,1004,0v-4H1120z"/>
</g>
</svg>
