<?xml version="1.0" encoding="utf-8"?>
<!-- Generator: Adobe Illustrator 24.2.0, SVG Export Plug-In . SVG Version: 6.00 Build 0)  -->
<svg version="1.1" id="圖層_1" shape-rendering="crispEdges"
	 xmlns="http://www.w3.org/2000/svg" xmlns:xlink="http://www.w3.org/1999/xlink" x="0px" y="0px" viewBox="0 0 96 96"
	 style="enable-background:new 0 0 96 96;" xml:space="preserve">
<style type="text/css">
	.st0{fill:#035E55;}
	.st1{fill:#05FFB5;}
	.st2{fill:#17CE98;}
	.st3{fill:#009A6C;}
	.st4{opacity:0.1176;fill:#011E1B;enable-background:new    ;}
</style>
<g>
</g>
<g>
	<polygon class="st1" points="88,28 84,28 80,28 76,28 72,28 68,28 68,32 72,32 76,32 80,32 84,32 88,32 92,32 96,32 96,28 92,28 	
		"/>
	<polygon class="st1" points="88,40 88,44 92,44 96,44 96,40 92,40 	"/>
	<polygon class="st1" points="80,44 76,44 76,48 80,48 84,48 88,48 88,44 84,44 	"/>
	<polygon class="st1" points="44,52 44,48 40,48 36,48 36,52 40,52 	"/>
	<polygon class="st1" points="68,48 64,48 64,52 68,52 72,52 76,52 76,48 72,48 	"/>
	<rect x="32" y="52" class="st1" width="4" height="4"/>
	<polygon class="st1" points="56,52 52,52 52,56 56,56 60,56 64,56 64,52 60,52 	"/>
	<rect y="56" class="st1" width="4" height="4"/>
	<rect x="28" y="56" class="st1" width="4" height="4"/>
	<polygon class="st1" points="8,64 12,64 16,64 20,64 24,64 28,64 28,60 24,60 20,60 16,60 12,60 8,60 4,60 4,64 	"/>
	<polygon class="st1" points="80,60 76,60 76,64 80,64 84,64 88,64 88,60 84,60 	"/>
	<rect x="72" y="64" class="st1" width="4" height="4"/>
	<polygon class="st1" points="64,68 64,72 68,72 72,72 72,68 68,68 	"/>
</g>
<g>
	<rect x="44" y="92" class="st2" width="4" height="4"/>
</g>
<g>
	<polygon class="st3" points="64,36 68,36 68,32 64,32 60,32 56,32 56,36 60,36 	"/>
	<rect x="52" y="36" class="st3" width="4" height="4"/>
	<rect x="48" y="40" class="st3" width="4" height="4"/>
	<rect x="44" y="44" class="st3" width="4" height="4"/>
	<rect x="48" y="56" class="st3" width="4" height="4"/>
	<polygon class="st3" points="88,56 88,60 92,60 96,60 96,56 92,56 	"/>
	<polygon class="st3" points="48,64 48,60 44,60 40,60 40,64 44,64 	"/>
	<polygon class="st3" points="40,68 40,64 36,64 32,64 32,68 36,68 	"/>
	<polygon class="st3" points="32,72 32,68 28,68 24,68 24,72 28,72 	"/>
	<rect x="20" y="72" class="st3" width="4" height="4"/>
	<rect x="60" y="72" class="st3" width="4" height="4"/>
	<polygon class="st3" points="20,80 20,76 16,76 12,76 12,80 16,80 	"/>
	<rect x="8" y="80" class="st3" width="4" height="4"/>
	<polygon class="st3" points="60,80 60,76 56,76 56,80 56,84 60,84 	"/>
	<rect x="4" y="84" class="st3" width="4" height="4"/>
	<rect x="52" y="84" class="st3" width="4" height="4"/>
	<rect y="88" class="st3" width="4" height="4"/>
	<rect x="48" y="88" class="st3" width="4" height="4"/>
</g>
<g>
	<polygon class="st4" points="88,0 84,0 80,0 76,0 72,0 68,0 64,0 60,0 56,0 52,0 48,0 44,0 40,0 36,0 32,0 28,0 24,0 20,0 16,0 
		12,0 8,0 4,0 0,0 0,4 0,8 0,12 0,16 0,20 0,24 0,28 0,32 0,36 0,40 0,44 0,48 0,52 0,56 4,56 4,60 8,60 12,60 16,60 20,60 24,60 
		28,60 28,56 32,56 32,52 36,52 36,48 40,48 44,48 44,44 48,44 48,40 52,40 52,36 56,36 56,32 60,32 64,32 68,32 68,28 72,28 76,28 
		80,28 84,28 88,28 92,28 96,28 96,24 96,20 96,16 96,12 96,8 96,4 96,0 92,0 	"/>
	<polygon class="st4" points="64,36 60,36 56,36 56,40 52,40 52,44 48,44 48,48 44,48 44,52 40,52 36,52 36,56 32,56 32,60 28,60 
		28,64 24,64 20,64 16,64 12,64 8,64 4,64 4,60 0,60 0,64 0,68 0,72 0,76 0,80 0,84 0,88 4,88 4,84 8,84 8,80 12,80 12,76 16,76 
		20,76 20,72 24,72 24,68 28,68 32,68 32,64 36,64 40,64 40,60 44,60 48,60 48,56 52,56 52,52 56,52 60,52 64,52 64,48 68,48 72,48 
		76,48 76,44 80,44 84,44 88,44 88,40 92,40 96,40 96,36 96,32 92,32 88,32 84,32 80,32 76,32 72,32 68,32 68,36 	"/>
	<polygon class="st4" points="84,48 80,48 76,48 76,52 72,52 68,52 64,52 64,56 60,56 56,56 52,56 52,60 48,60 48,64 44,64 40,64 
		40,68 36,68 32,68 32,72 28,72 24,72 24,76 20,76 20,80 16,80 12,80 12,84 8,84 8,88 4,88 4,92 0,92 0,96 4,96 8,96 12,96 16,96 
		20,96 24,96 28,96 32,96 36,96 40,96 44,96 44,92 48,92 48,88 52,88 52,84 56,84 56,80 56,76 60,76 60,72 64,72 64,68 68,68 72,68 
		72,64 76,64 76,60 80,60 84,60 88,60 88,56 92,56 96,56 96,52 96,48 96,44 92,44 88,44 88,48 	"/>
	<polygon class="st4" points="84,64 80,64 76,64 76,68 72,68 72,72 68,72 64,72 64,76 60,76 60,80 60,84 56,84 56,88 52,88 52,92 
		48,92 48,96 52,96 56,96 60,96 64,96 68,96 72,96 76,96 80,96 84,96 88,96 92,96 96,96 96,92 96,88 96,84 96,80 96,76 96,72 96,68 
		96,64 96,60 92,60 88,60 88,64 	"/>
</g>
</svg>
