<?xml version="1.0" encoding="utf-8"?>
<!-- Generator: Adobe Illustrator 24.2.0, SVG Export Plug-In . SVG Version: 6.00 Build 0)  -->
<svg version="1.1" id="圖層_1" shape-rendering="crispEdges"
	 xmlns="http://www.w3.org/2000/svg" xmlns:xlink="http://www.w3.org/1999/xlink" x="0px" y="0px" viewBox="0 0 56 56"
	 style="enable-background:new 0 0 56 56;" xml:space="preserve">
<style type="text/css">
	.st0{fill:#035E55;}
	.st1{fill:#009A6C;}
	.st2{fill:#05FFB5;}
	.st3{fill:#17CE98;}
	.st4{opacity:0.1176;fill:#011E1B;enable-background:new    ;}
</style>
<g>
</g>
<g>
	<rect y="44" class="st1" width="4" height="4"/>
	<polygon class="st1" points="4,48 4,52 8,52 12,52 12,48 8,48 	"/>
	<rect x="16" y="52" class="st1" width="4" height="4"/>
</g>
<g>
</g>
<g>
	<polygon class="st3" points="4,8 0,8 0,12 4,12 8,12 8,8 	"/>
	<rect x="8" y="12" class="st3" width="4" height="4"/>
	<rect x="12" y="16" class="st3" width="4" height="4"/>
	<polygon class="st3" points="48,16 48,20 52,20 56,20 56,16 52,16 	"/>
	<rect x="44" y="20" class="st3" width="4" height="4"/>
	<polygon class="st3" points="4,28 0,28 0,32 0,36 4,36 4,32 	"/>
	<polygon class="st3" points="8,36 4,36 4,40 4,44 8,44 8,40 	"/>
	<rect x="8" y="44" class="st3" width="4" height="4"/>
	<polygon class="st3" points="12,52 12,56 16,56 16,52 16,48 12,48 	"/>
</g>
<g>
	<polygon class="st4" points="48,0 44,0 40,0 36,0 32,0 28,0 24,0 20,0 16,0 12,0 8,0 4,0 0,0 0,4 0,8 4,8 8,8 8,12 12,12 12,16 
		16,16 16,20 12,20 12,16 8,16 8,12 4,12 0,12 0,16 0,20 0,24 0,28 4,28 4,32 4,36 8,36 8,40 8,44 12,44 12,48 16,48 16,52 20,52 
		20,56 24,56 28,56 32,56 36,56 40,56 44,56 48,56 52,56 56,56 56,52 56,48 56,44 56,40 56,36 56,32 56,28 56,24 56,20 52,20 48,20 
		48,24 44,24 44,20 48,20 48,16 52,16 56,16 56,12 56,8 56,4 56,0 52,0 	"/>
	<polygon class="st4" points="4,36 0,36 0,40 0,44 4,44 4,40 	"/>
	<rect x="4" y="44" class="st4" width="4" height="4"/>
	<polygon class="st4" points="0,52 0,56 4,56 8,56 12,56 12,52 8,52 4,52 4,48 0,48 	"/>
</g>
</svg>
