<?xml version="1.0" encoding="utf-8"?>
<!-- Generator: Adobe Illustrator 24.2.0, SVG Export Plug-In . SVG Version: 6.00 Build 0)  -->
<svg version="1.1" id="圖層_1" shape-rendering="crispEdges"
	 xmlns="http://www.w3.org/2000/svg" xmlns:xlink="http://www.w3.org/1999/xlink" x="0px" y="0px" viewBox="0 0 56 56"
	 style="enable-background:new 0 0 56 56;" xml:space="preserve">
<style type="text/css">
	.st0{fill:#035E55;}
	.st1{fill:#009A6C;}
	.st2{fill:#05FFB5;}
	.st3{fill:#17CE98;}
	.st4{opacity:0.1176;fill:#011E1B;enable-background:new    ;}
</style>
<g>
	<polygon class="st0" points="12,4 8,4 8,0 4,0 0,0 0,4 0,8 0,12 4,12 4,8 8,8 12,8 16,8 16,4 	"/>
	<polygon class="st0" points="8,16 12,16 12,12 8,12 4,12 4,16 	"/>
</g>
<g>
	<rect x="8" y="8" class="st1" width="4" height="4"/>
	<rect y="12" class="st1" width="4" height="4"/>
</g>
<g>
	<rect x="16" class="st2" width="4" height="4"/>
	<polygon class="st2" points="20,4 20,8 20,12 16,12 16,16 12,16 8,16 8,20 4,20 0,20 0,24 4,24 8,24 12,24 16,24 16,20 20,20 
		20,16 24,16 24,12 24,8 24,4 	"/>
	<rect x="4" y="8" class="st2" width="4" height="4"/>
	<rect x="12" y="8" class="st2" width="4" height="4"/>
</g>
<g>
	<polygon class="st3" points="12,0 8,0 8,4 12,4 16,4 16,0 	"/>
	<rect x="32" class="st3" width="4" height="4"/>
	<polygon class="st3" points="16,12 20,12 20,8 20,4 16,4 16,8 	"/>
	<rect x="12" y="12" class="st3" width="4" height="4"/>
	<polygon class="st3" points="0,16 0,20 4,20 8,20 8,16 4,16 	"/>
	<rect x="16" y="20" class="st3" width="4" height="4"/>
	<polygon class="st3" points="0,28 0,32 0,36 4,36 4,32 4,28 4,24 0,24 	"/>
	<rect x="20" y="24" class="st3" width="4" height="4"/>
</g>
<g>
	<polygon class="st4" points="48,0 44,0 40,0 36,0 36,4 32,4 32,0 28,0 24,0 20,0 20,4 24,4 24,8 24,12 24,16 20,16 20,20 20,24 
		24,24 24,28 20,28 20,24 16,24 12,24 8,24 4,24 4,28 4,32 4,36 0,36 0,40 0,44 0,48 0,52 0,56 4,56 8,56 12,56 16,56 20,56 24,56 
		28,56 32,56 36,56 40,56 44,56 48,56 52,56 56,56 56,52 56,48 56,44 56,40 56,36 56,32 56,28 56,24 56,20 56,16 56,12 56,8 56,4 
		56,0 52,0 	"/>
</g>
</svg>
