<?xml version="1.0" encoding="utf-8"?>
<!-- Generator: Adobe Illustrator 24.2.0, SVG Export Plug-In . SVG Version: 6.00 Build 0)  -->
<svg version="1.1" id="圖層_1" shape-rendering="crispEdges"
	 xmlns="http://www.w3.org/2000/svg" xmlns:xlink="http://www.w3.org/1999/xlink" x="0px" y="0px" viewBox="0 0 772 216"
	 style="enable-background:new 0 0 772 216;" xml:space="preserve">
<style type="text/css">
	.st0{fill:#FFC98A;}
</style>
<g>
	<rect x="76" class="st0" width="4" height="4"/>
	<rect x="236" y="4" class="st0" width="4" height="4"/>
	<rect x="140" y="12" class="st0" width="4" height="4"/>
	<rect x="240" y="12" class="st0" width="4" height="4"/>
	<rect x="324" y="12" class="st0" width="4" height="4"/>
	<rect x="344" y="12" class="st0" width="4" height="4"/>
	<rect x="124" y="16" class="st0" width="4" height="4"/>
	<rect x="160" y="16" class="st0" width="4" height="4"/>
	<rect x="244" y="16" class="st0" width="4" height="4"/>
	<rect x="24" y="20" class="st0" width="4" height="4"/>
	<rect x="132" y="20" class="st0" width="4" height="4"/>
	<rect x="268" y="20" class="st0" width="4" height="4"/>
	<rect x="368" y="20" class="st0" width="4" height="4"/>
	<rect x="168" y="24" class="st0" width="4" height="4"/>
	<rect x="256" y="24" class="st0" width="4" height="4"/>
	<rect x="120" y="28" class="st0" width="4" height="4"/>
	<rect x="236" y="28" class="st0" width="4" height="4"/>
	<rect x="348" y="28" class="st0" width="4" height="4"/>
	<rect x="548" y="28" class="st0" width="4" height="4"/>
	<rect x="52" y="32" class="st0" width="4" height="4"/>
	<rect x="184" y="32" class="st0" width="4" height="4"/>
	<rect x="264" y="32" class="st0" width="4" height="4"/>
	<rect x="300" y="32" class="st0" width="4" height="4"/>
	<rect x="408" y="32" class="st0" width="4" height="4"/>
	<rect x="464" y="32" class="st0" width="4" height="4"/>
	<rect x="160" y="36" class="st0" width="4" height="4"/>
	<rect x="180" y="36" class="st0" width="4" height="4"/>
	<rect x="284" y="36" class="st0" width="4" height="4"/>
	<rect x="372" y="36" class="st0" width="4" height="4"/>
	<rect x="444" y="36" class="st0" width="4" height="4"/>
	<rect x="664" y="36" class="st0" width="4" height="4"/>
	<rect x="92" y="40" class="st0" width="4" height="4"/>
	<rect x="156" y="40" class="st0" width="4" height="4"/>
	<rect x="204" y="40" class="st0" width="4" height="4"/>
	<polygon class="st0" points="272,44 268,44 268,48 272,48 276,48 280,48 280,44 284,44 284,40 280,40 280,36 276,36 276,40 272,40 
			"/>
	<rect x="376" y="40" class="st0" width="4" height="4"/>
	<rect x="428" y="40" class="st0" width="4" height="4"/>
	<rect x="640" y="40" class="st0" width="4" height="4"/>
	<rect x="168" y="44" class="st0" width="4" height="4"/>
	<rect x="232" y="44" class="st0" width="4" height="4"/>
	<rect x="244" y="44" class="st0" width="4" height="4"/>
	<rect x="252" y="44" class="st0" width="4" height="4"/>
	<rect x="364" y="44" class="st0" width="4" height="4"/>
	<polygon class="st0" points="408,48 408,44 404,44 400,44 400,48 404,48 	"/>
	<rect x="104" y="48" class="st0" width="4" height="4"/>
	<rect x="124" y="48" class="st0" width="4" height="4"/>
	<polygon class="st0" points="164,52 164,56 164,60 168,60 168,56 168,52 168,48 164,48 	"/>
	<polygon class="st0" points="176,52 180,52 180,48 176,48 172,48 172,52 	"/>
	<rect x="320" y="48" class="st0" width="4" height="4"/>
	<rect x="332" y="48" class="st0" width="4" height="4"/>
	<rect x="360" y="48" class="st0" width="4" height="4"/>
	<polygon class="st0" points="380,52 384,52 388,52 392,52 392,48 388,48 384,48 380,48 	"/>
	<rect x="584" y="48" class="st0" width="4" height="4"/>
	<polygon class="st0" points="140,52 136,52 136,56 140,56 144,56 144,52 	"/>
	<rect x="156" y="52" class="st0" width="4" height="4"/>
	<polygon class="st0" points="184,56 184,60 188,60 188,56 192,56 192,52 188,52 184,52 180,52 180,56 	"/>
	<polygon class="st0" points="236,52 232,52 232,48 228,48 224,48 224,44 220,44 216,44 212,44 208,44 208,48 208,52 212,52 212,48 
		216,48 216,52 216,56 220,56 220,52 224,52 228,52 228,56 232,56 236,56 240,56 240,52 	"/>
	<polygon class="st0" points="272,56 276,56 280,56 284,56 288,56 288,52 284,52 280,52 276,52 272,52 268,52 264,52 264,56 268,56 
			"/>
	<rect x="292" y="52" class="st0" width="4" height="4"/>
	<polygon class="st0" points="312,56 316,56 316,52 312,52 308,52 308,48 304,48 300,48 300,52 304,52 304,56 308,56 	"/>
	<rect x="344" y="52" class="st0" width="4" height="4"/>
	<rect x="376" y="52" class="st0" width="4" height="4"/>
	<rect x="440" y="52" class="st0" width="4" height="4"/>
	<rect x="452" y="52" class="st0" width="4" height="4"/>
	<rect x="480" y="52" class="st0" width="4" height="4"/>
	<rect x="496" y="52" class="st0" width="4" height="4"/>
	<rect x="520" y="52" class="st0" width="4" height="4"/>
	<rect x="552" y="52" class="st0" width="4" height="4"/>
	<rect x="20" y="56" class="st0" width="4" height="4"/>
	<rect x="60" y="56" class="st0" width="4" height="4"/>
	<rect x="104" y="56" class="st0" width="4" height="4"/>
	<rect x="176" y="56" class="st0" width="4" height="4"/>
	<polygon class="st0" points="196,60 196,64 200,64 200,68 196,68 196,72 192,72 192,76 196,76 200,76 200,72 204,72 204,68 208,68 
		208,72 204,72 204,76 208,76 212,76 212,72 212,68 216,68 216,72 220,72 220,68 224,68 224,64 220,64 216,64 212,64 212,60 208,60 
		204,60 204,56 200,56 196,56 192,56 192,60 	"/>
	<rect x="220" y="56" class="st0" width="4" height="4"/>
	<polygon class="st0" points="304,60 304,56 300,56 296,56 296,60 300,60 	"/>
	<polygon class="st0" points="324,60 328,60 328,56 328,52 324,52 324,56 	"/>
	<polygon class="st0" points="412,56 408,56 408,60 412,60 416,60 416,56 	"/>
	<rect x="424" y="56" class="st0" width="4" height="4"/>
	<rect x="468" y="56" class="st0" width="4" height="4"/>
	<rect x="548" y="56" class="st0" width="4" height="4"/>
	<rect x="600" y="56" class="st0" width="4" height="4"/>
	<rect x="64" y="60" class="st0" width="4" height="4"/>
	<polygon class="st0" points="140,64 140,60 136,60 132,60 132,64 136,64 	"/>
	<rect x="172" y="60" class="st0" width="4" height="4"/>
	<polygon class="st0" points="244,60 248,60 248,64 252,64 252,68 252,72 248,72 248,76 244,76 244,80 240,80 240,84 244,84 248,84 
		248,80 252,80 256,80 260,80 264,80 264,76 264,72 268,72 268,68 264,68 260,68 260,64 260,60 256,60 252,60 252,56 248,56 248,52 
		244,52 244,56 240,56 240,60 240,64 244,64 	"/>
	<rect x="268" y="60" class="st0" width="4" height="4"/>
	<rect x="372" y="60" class="st0" width="4" height="4"/>
	<rect x="380" y="60" class="st0" width="4" height="4"/>
	<polygon class="st0" points="400,60 400,56 396,56 396,60 396,64 400,64 	"/>
	<rect x="416" y="60" class="st0" width="4" height="4"/>
	<rect x="428" y="60" class="st0" width="4" height="4"/>
	<rect x="440" y="60" class="st0" width="4" height="4"/>
	<rect x="612" y="60" class="st0" width="4" height="4"/>
	<rect x="48" y="64" class="st0" width="4" height="4"/>
	<polygon class="st0" points="92,64 88,64 88,60 84,60 84,64 80,64 76,64 76,68 80,68 84,68 88,68 92,68 	"/>
	<rect x="96" y="64" class="st0" width="4" height="4"/>
	<polygon class="st0" points="116,68 116,64 116,60 112,60 112,64 108,64 108,68 112,68 	"/>
	<polygon class="st0" points="236,68 240,68 240,64 236,64 232,64 232,60 228,60 228,64 228,68 232,68 	"/>
	<rect x="312" y="64" class="st0" width="4" height="4"/>
	<rect x="320" y="64" class="st0" width="4" height="4"/>
	<rect x="356" y="64" class="st0" width="4" height="4"/>
	<polygon class="st0" points="392,68 388,68 388,72 392,72 392,76 396,76 396,80 400,80 400,84 404,84 404,80 408,80 408,76 412,76 
		412,72 412,68 412,64 408,64 404,64 404,68 408,68 408,72 404,72 400,72 396,72 396,68 396,64 392,64 	"/>
	<rect x="468" y="64" class="st0" width="4" height="4"/>
	<rect x="532" y="64" class="st0" width="4" height="4"/>
	<rect x="556" y="64" class="st0" width="4" height="4"/>
	<rect x="572" y="64" class="st0" width="4" height="4"/>
	<rect x="584" y="64" class="st0" width="4" height="4"/>
	<rect x="664" y="64" class="st0" width="4" height="4"/>
	<rect x="12" y="68" class="st0" width="4" height="4"/>
	<rect x="116" y="68" class="st0" width="4" height="4"/>
	<polygon class="st0" points="328,72 328,76 332,76 332,72 332,68 328,68 324,68 324,72 	"/>
	<polygon class="st0" points="336,72 340,72 340,68 344,68 344,64 340,64 336,64 336,60 332,60 332,64 332,68 336,68 	"/>
	<polygon class="st0" points="348,72 352,72 356,72 356,68 352,68 348,68 344,68 344,72 	"/>
	<rect x="380" y="68" class="st0" width="4" height="4"/>
	<polygon class="st0" points="440,68 440,64 436,64 436,68 436,72 440,72 	"/>
	<rect x="444" y="68" class="st0" width="4" height="4"/>
	<rect x="464" y="68" class="st0" width="4" height="4"/>
	<polygon class="st0" points="496,68 496,72 496,76 500,76 500,72 504,72 504,68 500,68 	"/>
	<rect x="588" y="68" class="st0" width="4" height="4"/>
	<rect x="616" y="68" class="st0" width="4" height="4"/>
	<rect x="640" y="68" class="st0" width="4" height="4"/>
	<polygon class="st0" points="160,76 160,72 164,72 164,68 168,68 168,64 164,64 160,64 156,64 152,64 152,60 156,60 156,56 152,56 
		152,52 152,48 152,44 148,44 144,44 144,48 144,52 148,52 148,56 144,56 144,60 148,60 148,64 148,68 144,68 144,72 144,76 144,80 
		148,80 148,76 148,72 152,72 156,72 156,76 	"/>
	<polygon class="st0" points="184,76 184,72 184,68 180,68 176,68 172,68 172,72 176,72 180,72 180,76 	"/>
	<polygon class="st0" points="220,72 220,76 224,76 228,76 232,76 232,72 228,72 228,68 224,68 224,72 	"/>
	<rect x="240" y="72" class="st0" width="4" height="4"/>
	<polygon class="st0" points="292,76 292,72 296,72 296,76 300,76 300,80 300,84 304,84 308,84 308,88 312,88 316,88 316,84 312,84 
		312,80 312,76 312,72 308,72 308,76 308,80 304,80 304,76 304,72 304,68 300,68 300,64 296,64 296,60 292,60 288,60 288,64 284,64 
		284,60 280,60 276,60 276,64 272,64 272,68 276,68 280,68 284,68 288,68 288,72 284,72 284,76 288,76 	"/>
	<rect x="340" y="72" class="st0" width="4" height="4"/>
	<polygon class="st0" points="360,76 360,80 364,80 364,76 368,76 368,72 364,72 364,68 360,68 360,72 	"/>
	<polygon class="st0" points="416,72 416,76 416,80 420,80 420,76 424,76 424,80 428,80 432,80 432,84 436,84 436,80 436,76 436,72 
		432,72 428,72 428,68 428,64 424,64 424,68 424,72 420,72 	"/>
	<rect x="440" y="72" class="st0" width="4" height="4"/>
	<rect x="480" y="72" class="st0" width="4" height="4"/>
	<polygon class="st0" points="520,76 520,72 516,72 512,72 512,76 516,76 	"/>
	<polygon class="st0" points="540,72 540,68 536,68 536,72 536,76 540,76 544,76 544,72 	"/>
	<rect x="564" y="72" class="st0" width="4" height="4"/>
	<rect x="580" y="72" class="st0" width="4" height="4"/>
	<rect y="76" class="st0" width="4" height="4"/>
	<rect x="60" y="76" class="st0" width="4" height="4"/>
	<rect x="96" y="76" class="st0" width="4" height="4"/>
	<rect x="176" y="76" class="st0" width="4" height="4"/>
	<rect x="292" y="76" class="st0" width="4" height="4"/>
	<rect x="380" y="76" class="st0" width="4" height="4"/>
	<polygon class="st0" points="448,80 452,80 452,76 452,72 448,72 448,76 	"/>
	<rect x="464" y="76" class="st0" width="4" height="4"/>
	<polygon class="st0" points="548,76 544,76 544,80 548,80 552,80 552,76 	"/>
	<rect x="664" y="76" class="st0" width="4" height="4"/>
	<rect x="740" y="76" class="st0" width="4" height="4"/>
	<rect x="768" y="76" class="st0" width="4" height="4"/>
	<polygon class="st0" points="132,80 128,80 124,80 124,76 120,76 116,76 112,76 112,80 116,80 120,80 120,84 124,84 128,84 132,84 
			"/>
	<rect x="148" y="80" class="st0" width="4" height="4"/>
	<rect x="160" y="80" class="st0" width="4" height="4"/>
	<rect x="168" y="80" class="st0" width="4" height="4"/>
	<polygon class="st0" points="228,80 224,80 224,84 228,84 232,84 232,80 	"/>
	<polygon class="st0" points="272,80 276,80 276,76 276,72 272,72 272,76 268,76 268,80 268,84 268,88 272,88 272,84 	"/>
	<rect x="316" y="80" class="st0" width="4" height="4"/>
	<rect x="324" y="80" class="st0" width="4" height="4"/>
	<rect x="368" y="80" class="st0" width="4" height="4"/>
	<polygon class="st0" points="440,80 440,84 440,88 436,88 436,92 432,92 432,96 436,96 440,96 440,92 444,92 444,88 448,88 448,84 
		448,80 444,80 	"/>
	<rect x="456" y="80" class="st0" width="4" height="4"/>
	<rect x="468" y="80" class="st0" width="4" height="4"/>
	<polygon class="st0" points="536,84 536,88 540,88 540,84 540,80 536,80 	"/>
	<rect x="552" y="80" class="st0" width="4" height="4"/>
	<rect x="644" y="80" class="st0" width="4" height="4"/>
	<polygon class="st0" points="136,88 140,88 140,84 140,80 136,80 136,84 132,84 132,88 	"/>
	<rect x="144" y="84" class="st0" width="4" height="4"/>
	<rect x="176" y="84" class="st0" width="4" height="4"/>
	<polygon class="st0" points="204,88 204,84 200,84 196,84 196,88 200,88 	"/>
	<polygon class="st0" points="220,84 216,84 216,80 212,80 212,84 208,84 208,88 212,88 216,88 220,88 	"/>
	<polygon class="st0" points="232,84 232,88 236,88 240,88 240,84 236,84 	"/>
	<polygon class="st0" points="256,84 256,88 256,92 252,92 252,96 252,100 256,100 260,100 260,96 264,96 264,92 264,88 260,88 
		260,84 	"/>
	<rect x="320" y="84" class="st0" width="4" height="4"/>
	<polygon class="st0" points="432,84 428,84 424,84 424,88 420,88 420,84 416,84 416,88 416,92 420,92 420,96 424,96 428,96 428,92 
		432,92 432,88 	"/>
	<rect x="464" y="84" class="st0" width="4" height="4"/>
	<rect x="476" y="84" class="st0" width="4" height="4"/>
	<polygon class="st0" points="488,84 488,80 484,80 484,84 484,88 488,88 	"/>
	<rect x="500" y="84" class="st0" width="4" height="4"/>
	<rect x="516" y="84" class="st0" width="4" height="4"/>
	<rect x="548" y="84" class="st0" width="4" height="4"/>
	<rect x="564" y="84" class="st0" width="4" height="4"/>
	<rect x="624" y="84" class="st0" width="4" height="4"/>
	<rect x="664" y="84" class="st0" width="4" height="4"/>
	<rect x="92" y="88" class="st0" width="4" height="4"/>
	<rect x="172" y="88" class="st0" width="4" height="4"/>
	<polygon class="st0" points="184,92 188,92 192,92 196,92 196,88 192,88 188,88 188,84 184,84 184,88 180,88 180,92 	"/>
	<rect x="228" y="88" class="st0" width="4" height="4"/>
	<polygon class="st0" points="324,88 324,92 328,92 332,92 332,96 336,96 336,100 340,100 340,104 344,104 344,100 344,96 340,96 
		340,92 336,92 336,88 332,88 332,84 328,84 328,88 	"/>
	<polygon class="st0" points="340,92 344,92 344,88 348,88 352,88 356,88 360,88 360,84 356,84 356,80 352,80 352,84 348,84 344,84 
		340,84 340,80 336,80 336,84 336,88 340,88 	"/>
	<polygon class="st0" points="364,92 368,92 372,92 376,92 376,88 372,88 368,88 364,88 360,88 360,92 	"/>
	<rect x="380" y="88" class="st0" width="4" height="4"/>
	<rect x="392" y="88" class="st0" width="4" height="4"/>
	<polygon class="st0" points="404,92 408,92 408,88 412,88 412,84 408,84 404,84 404,88 	"/>
	<rect x="524" y="88" class="st0" width="4" height="4"/>
	<rect x="532" y="88" class="st0" width="4" height="4"/>
	<polygon class="st0" points="556,88 552,88 552,92 552,96 556,96 556,92 	"/>
	<rect x="560" y="88" class="st0" width="4" height="4"/>
	<rect x="572" y="88" class="st0" width="4" height="4"/>
	<rect x="584" y="88" class="st0" width="4" height="4"/>
	<rect x="592" y="88" class="st0" width="4" height="4"/>
	<polygon class="st0" points="96,92 96,96 100,96 104,96 104,92 100,92 	"/>
	<rect x="152" y="92" class="st0" width="4" height="4"/>
	<polygon class="st0" points="160,96 164,96 168,96 168,92 164,92 160,92 	"/>
	<polygon class="st0" points="208,96 208,92 204,92 200,92 200,96 200,100 204,100 204,96 	"/>
	<rect x="216" y="92" class="st0" width="4" height="4"/>
	<rect x="240" y="92" class="st0" width="4" height="4"/>
	<polygon class="st0" points="444,92 444,96 440,96 440,100 436,100 436,104 440,104 444,104 444,100 448,100 452,100 452,96 
		452,92 456,92 460,92 460,88 456,88 452,88 448,88 448,92 	"/>
	<rect x="468" y="92" class="st0" width="4" height="4"/>
	<rect x="544" y="92" class="st0" width="4" height="4"/>
	<polygon class="st0" points="140,96 136,96 132,96 132,100 136,100 140,100 	"/>
	<polygon class="st0" points="240,96 236,96 232,96 232,100 232,104 236,104 236,100 240,100 	"/>
	<rect x="368" y="96" class="st0" width="4" height="4"/>
	<polygon class="st0" points="376,100 376,104 380,104 384,104 384,100 380,100 380,96 380,92 376,92 376,96 	"/>
	<rect x="460" y="96" class="st0" width="4" height="4"/>
	<polygon class="st0" points="476,96 476,100 476,104 480,104 480,100 484,100 484,96 480,96 	"/>
	<rect x="488" y="96" class="st0" width="4" height="4"/>
	<rect x="516" y="96" class="st0" width="4" height="4"/>
	<rect x="524" y="96" class="st0" width="4" height="4"/>
	<rect x="548" y="96" class="st0" width="4" height="4"/>
	<rect x="556" y="96" class="st0" width="4" height="4"/>
	<rect x="564" y="96" class="st0" width="4" height="4"/>
	<rect x="620" y="96" class="st0" width="4" height="4"/>
	<rect x="168" y="100" class="st0" width="4" height="4"/>
	<rect x="204" y="100" class="st0" width="4" height="4"/>
	<rect x="320" y="100" class="st0" width="4" height="4"/>
	<polygon class="st0" points="396,100 396,96 392,96 392,100 392,104 396,104 400,104 404,104 404,100 400,100 	"/>
	<polygon class="st0" points="416,100 416,96 412,96 408,96 404,96 404,100 408,100 412,100 412,104 416,104 420,104 420,100 	"/>
	<rect x="424" y="100" class="st0" width="4" height="4"/>
	<rect x="468" y="100" class="st0" width="4" height="4"/>
	<polygon class="st0" points="512,100 512,96 508,96 508,100 508,104 512,104 	"/>
	<rect x="560" y="100" class="st0" width="4" height="4"/>
	<rect x="624" y="100" class="st0" width="4" height="4"/>
	<rect x="336" y="104" class="st0" width="4" height="4"/>
	<rect x="364" y="104" class="st0" width="4" height="4"/>
	<rect x="420" y="104" class="st0" width="4" height="4"/>
	<rect x="428" y="104" class="st0" width="4" height="4"/>
	<rect x="520" y="104" class="st0" width="4" height="4"/>
	<rect x="548" y="104" class="st0" width="4" height="4"/>
	<rect x="564" y="104" class="st0" width="4" height="4"/>
	<polygon class="st0" points="196,108 192,108 192,104 188,104 188,108 184,108 184,112 188,112 192,112 196,112 	"/>
	<polygon class="st0" points="216,112 220,112 220,108 220,104 216,104 212,104 212,108 216,108 	"/>
	<rect x="236" y="108" class="st0" width="4" height="4"/>
	<rect x="284" y="108" class="st0" width="4" height="4"/>
	<polygon class="st0" points="328,108 324,108 324,112 328,112 332,112 336,112 336,108 332,108 	"/>
	<rect x="348" y="108" class="st0" width="4" height="4"/>
	<rect x="356" y="108" class="st0" width="4" height="4"/>
	<polygon class="st0" points="376,108 372,108 368,108 368,112 372,112 372,116 376,116 376,112 	"/>
	<rect x="384" y="108" class="st0" width="4" height="4"/>
	<rect x="440" y="108" class="st0" width="4" height="4"/>
	<rect x="532" y="108" class="st0" width="4" height="4"/>
	<rect x="112" y="112" class="st0" width="4" height="4"/>
	<rect x="204" y="112" class="st0" width="4" height="4"/>
	<polygon class="st0" points="224,116 228,116 228,112 228,108 224,108 224,112 220,112 220,116 	"/>
	<rect x="248" y="112" class="st0" width="4" height="4"/>
	<rect x="364" y="112" class="st0" width="4" height="4"/>
	<polygon class="st0" points="408,116 408,112 408,108 404,108 400,108 400,112 396,112 396,116 396,120 396,124 400,124 400,120 
		404,120 404,116 	"/>
	<rect x="416" y="112" class="st0" width="4" height="4"/>
	<rect x="424" y="112" class="st0" width="4" height="4"/>
	<rect x="444" y="112" class="st0" width="4" height="4"/>
	<rect x="452" y="112" class="st0" width="4" height="4"/>
	<rect x="468" y="112" class="st0" width="4" height="4"/>
	<rect x="628" y="112" class="st0" width="4" height="4"/>
	<rect x="708" y="112" class="st0" width="4" height="4"/>
	<rect x="196" y="116" class="st0" width="4" height="4"/>
	<polygon class="st0" points="284,116 280,116 280,112 276,112 276,108 272,108 268,108 264,108 264,112 260,112 260,108 256,108 
		252,108 252,112 256,112 256,116 256,120 260,120 260,116 264,116 268,116 272,116 276,116 276,120 280,120 280,124 284,124 
		284,120 	"/>
	<rect x="292" y="116" class="st0" width="4" height="4"/>
	<rect x="304" y="116" class="st0" width="4" height="4"/>
	<polygon class="st0" points="324,120 324,116 324,112 320,112 316,112 316,108 320,108 320,104 316,104 312,104 312,108 308,108 
		308,104 304,104 300,104 300,108 296,108 296,104 296,100 300,100 304,100 308,100 312,100 316,100 320,100 320,96 324,96 324,92 
		320,92 316,92 312,92 312,96 308,96 304,96 304,92 300,92 300,88 300,84 296,84 292,84 288,84 284,84 284,80 284,76 280,76 280,80 
		276,80 276,84 280,84 280,88 284,88 288,88 292,88 292,92 296,92 296,96 292,96 292,92 288,92 288,96 284,96 280,96 280,92 280,88 
		276,88 272,88 272,92 272,96 276,96 276,100 280,100 280,104 284,104 284,100 288,100 288,104 288,108 292,108 292,112 296,112 
		300,112 304,112 308,112 312,112 312,116 312,120 316,120 320,120 	"/>
	<rect x="340" y="116" class="st0" width="4" height="4"/>
	<polygon class="st0" points="380,120 384,120 384,116 384,112 380,112 380,116 376,116 376,120 	"/>
	<rect x="420" y="116" class="st0" width="4" height="4"/>
	<rect x="436" y="116" class="st0" width="4" height="4"/>
	<rect x="476" y="116" class="st0" width="4" height="4"/>
	<rect x="576" y="116" class="st0" width="4" height="4"/>
	<rect x="140" y="120" class="st0" width="4" height="4"/>
	<rect x="164" y="120" class="st0" width="4" height="4"/>
	<polygon class="st0" points="244,120 240,120 240,124 236,124 232,124 232,128 236,128 236,132 240,132 240,128 244,128 244,132 
		248,132 248,128 248,124 244,124 	"/>
	<rect x="344" y="120" class="st0" width="4" height="4"/>
	<rect x="352" y="120" class="st0" width="4" height="4"/>
	<polygon class="st0" points="412,120 408,120 404,120 404,124 408,124 412,124 	"/>
	<rect x="428" y="120" class="st0" width="4" height="4"/>
	<rect x="444" y="120" class="st0" width="4" height="4"/>
	<rect x="472" y="120" class="st0" width="4" height="4"/>
	<rect x="512" y="120" class="st0" width="4" height="4"/>
	<rect x="564" y="120" class="st0" width="4" height="4"/>
	<rect x="152" y="124" class="st0" width="4" height="4"/>
	<rect x="160" y="124" class="st0" width="4" height="4"/>
	<polygon class="st0" points="296,128 300,128 300,124 300,120 296,120 296,124 	"/>
	<polygon class="st0" points="324,124 320,124 320,128 320,132 324,132 324,128 	"/>
	<polygon class="st0" points="436,124 432,124 432,128 432,132 436,132 436,128 	"/>
	<rect x="448" y="124" class="st0" width="4" height="4"/>
	<rect x="460" y="124" class="st0" width="4" height="4"/>
	<rect x="500" y="124" class="st0" width="4" height="4"/>
	<rect x="520" y="124" class="st0" width="4" height="4"/>
	<rect x="116" y="128" class="st0" width="4" height="4"/>
	<polygon class="st0" points="224,128 220,128 220,132 224,132 228,132 232,132 232,128 228,128 	"/>
	<polygon class="st0" points="308,128 304,128 304,132 308,132 308,136 312,136 316,136 316,132 316,128 312,128 	"/>
	<rect x="340" y="128" class="st0" width="4" height="4"/>
	<rect x="380" y="128" class="st0" width="4" height="4"/>
	<rect x="592" y="128" class="st0" width="4" height="4"/>
	<rect x="216" y="132" class="st0" width="4" height="4"/>
	<rect x="260" y="132" class="st0" width="4" height="4"/>
	<polygon class="st0" points="328,136 328,140 328,144 332,144 336,144 336,140 336,136 336,132 336,128 332,128 328,128 328,132 
		324,132 324,136 	"/>
	<rect x="344" y="132" class="st0" width="4" height="4"/>
	<polygon class="st0" points="360,136 360,132 360,128 356,128 352,128 352,132 356,132 356,136 	"/>
	<rect x="384" y="132" class="st0" width="4" height="4"/>
	<rect x="408" y="132" class="st0" width="4" height="4"/>
	<rect x="416" y="132" class="st0" width="4" height="4"/>
	<polygon class="st0" points="428,136 428,140 432,140 432,136 432,132 428,132 	"/>
	<rect x="436" y="132" class="st0" width="4" height="4"/>
	<rect x="552" y="132" class="st0" width="4" height="4"/>
	<rect x="652" y="132" class="st0" width="4" height="4"/>
	<rect x="668" y="132" class="st0" width="4" height="4"/>
	<polygon class="st0" points="204,136 204,140 208,140 212,140 212,136 208,136 	"/>
	<rect x="240" y="136" class="st0" width="4" height="4"/>
	<polygon class="st0" points="252,136 252,140 256,140 260,140 260,136 256,136 	"/>
	<rect x="272" y="136" class="st0" width="4" height="4"/>
	<polygon class="st0" points="280,140 284,140 284,136 288,136 288,132 288,128 288,124 284,124 284,128 280,128 276,128 272,128 
		268,128 268,124 268,120 264,120 264,124 264,128 264,132 268,132 272,132 276,132 280,132 280,136 	"/>
	<polygon class="st0" points="400,136 400,140 404,140 408,140 408,136 404,136 	"/>
	<rect x="440" y="136" class="st0" width="4" height="4"/>
	<rect x="500" y="136" class="st0" width="4" height="4"/>
	<rect x="184" y="140" class="st0" width="4" height="4"/>
	<polygon class="st0" points="436,144 436,148 440,148 440,144 440,140 436,140 	"/>
	<rect x="456" y="140" class="st0" width="4" height="4"/>
	<rect x="568" y="140" class="st0" width="4" height="4"/>
	<rect x="168" y="144" class="st0" width="4" height="4"/>
	<rect x="240" y="144" class="st0" width="4" height="4"/>
	<rect x="268" y="144" class="st0" width="4" height="4"/>
	<rect x="288" y="144" class="st0" width="4" height="4"/>
	<polygon class="st0" points="304,144 304,140 300,140 300,144 300,148 304,148 	"/>
	<polygon class="st0" points="320,148 320,152 324,152 324,148 324,144 320,144 	"/>
	<rect x="368" y="144" class="st0" width="4" height="4"/>
	<polygon class="st0" points="400,144 396,144 392,144 392,140 388,140 388,144 384,144 384,148 388,148 392,148 396,148 400,148 	
		"/>
	<rect x="452" y="144" class="st0" width="4" height="4"/>
	<rect x="244" y="148" class="st0" width="4" height="4"/>
	<rect x="336" y="148" class="st0" width="4" height="4"/>
	<polygon class="st0" points="412,148 412,144 408,144 404,144 404,148 408,148 408,152 412,152 	"/>
	<rect x="428" y="148" class="st0" width="4" height="4"/>
	<polygon class="st0" points="620,148 620,152 624,152 628,152 628,148 624,148 	"/>
	<rect x="284" y="152" class="st0" width="4" height="4"/>
	<rect x="304" y="152" class="st0" width="4" height="4"/>
	<rect x="312" y="152" class="st0" width="4" height="4"/>
	<rect x="340" y="152" class="st0" width="4" height="4"/>
	<rect x="404" y="152" class="st0" width="4" height="4"/>
	<rect x="492" y="152" class="st0" width="4" height="4"/>
	<rect x="512" y="152" class="st0" width="4" height="4"/>
	<rect x="252" y="156" class="st0" width="4" height="4"/>
	<rect x="348" y="156" class="st0" width="4" height="4"/>
	<polygon class="st0" points="364,156 364,152 360,152 360,156 360,160 364,160 	"/>
	<polygon class="st0" points="368,156 368,160 372,160 376,160 376,156 372,156 	"/>
	<rect x="380" y="156" class="st0" width="4" height="4"/>
	<rect x="388" y="156" class="st0" width="4" height="4"/>
	<polygon class="st0" points="288,164 292,164 292,160 296,160 296,156 292,156 288,156 288,160 	"/>
	<rect x="352" y="160" class="st0" width="4" height="4"/>
	<rect x="204" y="164" class="st0" width="4" height="4"/>
	<rect x="296" y="164" class="st0" width="4" height="4"/>
	<rect x="388" y="164" class="st0" width="4" height="4"/>
	<rect x="408" y="164" class="st0" width="4" height="4"/>
	<rect x="292" y="168" class="st0" width="4" height="4"/>
	<polygon class="st0" points="340,172 340,168 340,164 336,164 332,164 328,164 328,168 332,168 336,168 336,172 	"/>
	<rect x="200" y="172" class="st0" width="4" height="4"/>
	<rect x="400" y="172" class="st0" width="4" height="4"/>
	<rect x="440" y="172" class="st0" width="4" height="4"/>
	<rect x="512" y="172" class="st0" width="4" height="4"/>
	<rect x="520" y="172" class="st0" width="4" height="4"/>
	<rect x="372" y="176" class="st0" width="4" height="4"/>
	<rect x="412" y="176" class="st0" width="4" height="4"/>
	<rect x="452" y="176" class="st0" width="4" height="4"/>
	<rect x="264" y="188" class="st0" width="4" height="4"/>
	<rect x="304" y="188" class="st0" width="4" height="4"/>
	<rect x="340" y="188" class="st0" width="4" height="4"/>
	<rect x="388" y="188" class="st0" width="4" height="4"/>
	<polygon class="st0" points="328,192 328,196 332,196 336,196 336,192 332,192 	"/>
	<rect x="344" y="196" class="st0" width="4" height="4"/>
	<rect x="412" y="196" class="st0" width="4" height="4"/>
	<rect x="364" y="200" class="st0" width="4" height="4"/>
	<rect x="284" y="212" class="st0" width="4" height="4"/>
</g>
</svg>
