<?xml version="1.0" encoding="utf-8"?>
<!-- Generator: Adobe Illustrator 24.2.0, SVG Export Plug-In . SVG Version: 6.00 Build 0)  -->
<svg version="1.1" id="圖層_1" shape-rendering="crispEdges"
	 xmlns="http://www.w3.org/2000/svg" xmlns:xlink="http://www.w3.org/1999/xlink" x="0px" y="0px" viewBox="0 0 548 132"
	 style="enable-background:new 0 0 548 132;" xml:space="preserve">
<style type="text/css">
	.st0{fill:#AD8E6F;}
	.st1{fill:#4F4546;}
	.st2{fill:#4F392F;}
	.st3{fill:#C7A685;}
	.st4{fill:#FFFFFF;}
	.st5{fill:#FFE7D8;}
	.st6{fill:#78624E;}
	.st7{fill:#5E5044;}
</style>
<rect x="528" y="8" class="st0" width="4" height="4"/>
<rect x="24" y="16" class="st1" width="4" height="4"/>
<rect x="28" y="16" class="st1" width="4" height="4"/>
<rect x="32" y="16" class="st1" width="4" height="4"/>
<rect x="36" y="16" class="st1" width="4" height="4"/>
<rect x="40" y="16" class="st1" width="4" height="4"/>
<rect x="44" y="16" class="st1" width="4" height="4"/>
<rect x="48" y="16" class="st1" width="4" height="4"/>
<rect x="52" y="16" class="st1" width="4" height="4"/>
<rect x="56" y="16" class="st1" width="4" height="4"/>
<rect x="60" y="16" class="st1" width="4" height="4"/>
<rect x="64" y="16" class="st1" width="4" height="4"/>
<rect x="68" y="16" class="st1" width="4" height="4"/>
<rect x="72" y="16" class="st1" width="4" height="4"/>
<rect x="76" y="16" class="st1" width="4" height="4"/>
<rect x="80" y="16" class="st1" width="4" height="4"/>
<rect x="84" y="16" class="st1" width="4" height="4"/>
<rect x="88" y="16" class="st1" width="4" height="4"/>
<rect x="92" y="16" class="st1" width="4" height="4"/>
<rect x="96" y="16" class="st1" width="4" height="4"/>
<rect x="100" y="16" class="st1" width="4" height="4"/>
<rect x="104" y="16" class="st1" width="4" height="4"/>
<rect x="108" y="16" class="st1" width="4" height="4"/>
<rect x="112" y="16" class="st1" width="4" height="4"/>
<rect x="116" y="16" class="st1" width="4" height="4"/>
<rect x="120" y="16" class="st1" width="4" height="4"/>
<rect x="124" y="16" class="st1" width="4" height="4"/>
<rect x="128" y="16" class="st1" width="4" height="4"/>
<rect x="132" y="16" class="st1" width="4" height="4"/>
<rect x="136" y="16" class="st1" width="4" height="4"/>
<rect x="140" y="16" class="st1" width="4" height="4"/>
<rect x="144" y="16" class="st1" width="4" height="4"/>
<rect x="148" y="16" class="st1" width="4" height="4"/>
<rect x="152" y="16" class="st1" width="4" height="4"/>
<rect x="156" y="16" class="st1" width="4" height="4"/>
<rect x="160" y="16" class="st1" width="4" height="4"/>
<rect x="164" y="16" class="st1" width="4" height="4"/>
<rect x="168" y="16" class="st1" width="4" height="4"/>
<rect x="172" y="16" class="st1" width="4" height="4"/>
<rect x="176" y="16" class="st1" width="4" height="4"/>
<rect x="180" y="16" class="st1" width="4" height="4"/>
<rect x="184" y="16" class="st1" width="4" height="4"/>
<rect x="188" y="16" class="st1" width="4" height="4"/>
<rect x="192" y="16" class="st1" width="4" height="4"/>
<rect x="196" y="16" class="st1" width="4" height="4"/>
<rect x="200" y="16" class="st1" width="4" height="4"/>
<rect x="204" y="16" class="st1" width="4" height="4"/>
<rect x="208" y="16" class="st1" width="4" height="4"/>
<rect x="212" y="16" class="st1" width="4" height="4"/>
<rect x="216" y="16" class="st1" width="4" height="4"/>
<rect x="220" y="16" class="st1" width="4" height="4"/>
<rect x="224" y="16" class="st1" width="4" height="4"/>
<rect x="228" y="16" class="st1" width="4" height="4"/>
<rect x="232" y="16" class="st1" width="4" height="4"/>
<rect x="236" y="16" class="st1" width="4" height="4"/>
<rect x="240" y="16" class="st1" width="4" height="4"/>
<rect x="244" y="16" class="st1" width="4" height="4"/>
<rect x="248" y="16" class="st1" width="4" height="4"/>
<rect x="252" y="16" class="st1" width="4" height="4"/>
<rect x="256" y="16" class="st1" width="4" height="4"/>
<rect x="20" y="20" class="st1" width="4" height="4"/>
<rect x="24" y="20" class="st1" width="4" height="4"/>
<rect x="28" y="20" class="st1" width="4" height="4"/>
<rect x="32" y="20" class="st1" width="4" height="4"/>
<rect x="36" y="20" class="st1" width="4" height="4"/>
<rect x="40" y="20" class="st1" width="4" height="4"/>
<rect x="44" y="20" class="st1" width="4" height="4"/>
<rect x="48" y="20" class="st1" width="4" height="4"/>
<rect x="52" y="20" class="st1" width="4" height="4"/>
<rect x="56" y="20" class="st1" width="4" height="4"/>
<rect x="60" y="20" class="st1" width="4" height="4"/>
<rect x="64" y="20" class="st1" width="4" height="4"/>
<rect x="68" y="20" class="st1" width="4" height="4"/>
<rect x="72" y="20" class="st1" width="4" height="4"/>
<rect x="76" y="20" class="st1" width="4" height="4"/>
<rect x="80" y="20" class="st1" width="4" height="4"/>
<rect x="84" y="20" class="st1" width="4" height="4"/>
<rect x="88" y="20" class="st1" width="4" height="4"/>
<rect x="92" y="20" class="st1" width="4" height="4"/>
<rect x="96" y="20" class="st1" width="4" height="4"/>
<rect x="100" y="20" class="st1" width="4" height="4"/>
<rect x="104" y="20" class="st1" width="4" height="4"/>
<rect x="108" y="20" class="st1" width="4" height="4"/>
<rect x="112" y="20" class="st1" width="4" height="4"/>
<rect x="116" y="20" class="st1" width="4" height="4"/>
<rect x="120" y="20" class="st1" width="4" height="4"/>
<rect x="124" y="20" class="st1" width="4" height="4"/>
<rect x="128" y="20" class="st1" width="4" height="4"/>
<rect x="132" y="20" class="st1" width="4" height="4"/>
<rect x="136" y="20" class="st1" width="4" height="4"/>
<rect x="140" y="20" class="st1" width="4" height="4"/>
<rect x="144" y="20" class="st1" width="4" height="4"/>
<rect x="148" y="20" class="st1" width="4" height="4"/>
<rect x="152" y="20" class="st1" width="4" height="4"/>
<rect x="156" y="20" class="st1" width="4" height="4"/>
<rect x="160" y="20" class="st1" width="4" height="4"/>
<rect x="164" y="20" class="st1" width="4" height="4"/>
<rect x="168" y="20" class="st1" width="4" height="4"/>
<rect x="172" y="20" class="st1" width="4" height="4"/>
<rect x="176" y="20" class="st1" width="4" height="4"/>
<rect x="180" y="20" class="st1" width="4" height="4"/>
<rect x="184" y="20" class="st1" width="4" height="4"/>
<rect x="188" y="20" class="st1" width="4" height="4"/>
<rect x="192" y="20" class="st1" width="4" height="4"/>
<rect x="196" y="20" class="st1" width="4" height="4"/>
<rect x="200" y="20" class="st1" width="4" height="4"/>
<rect x="204" y="20" class="st1" width="4" height="4"/>
<rect x="208" y="20" class="st1" width="4" height="4"/>
<rect x="212" y="20" class="st1" width="4" height="4"/>
<rect x="216" y="20" class="st1" width="4" height="4"/>
<rect x="220" y="20" class="st1" width="4" height="4"/>
<rect x="224" y="20" class="st1" width="4" height="4"/>
<rect x="228" y="20" class="st1" width="4" height="4"/>
<rect x="232" y="20" class="st1" width="4" height="4"/>
<rect x="236" y="20" class="st1" width="4" height="4"/>
<rect x="240" y="20" class="st1" width="4" height="4"/>
<rect x="244" y="20" class="st1" width="4" height="4"/>
<rect x="248" y="20" class="st1" width="4" height="4"/>
<rect x="252" y="20" class="st1" width="4" height="4"/>
<rect x="256" y="20" class="st1" width="4" height="4"/>
<rect x="260" y="20" class="st1" width="4" height="4"/>
<rect x="16" y="24" class="st1" width="4" height="4"/>
<rect x="20" y="24" class="st1" width="4" height="4"/>
<rect x="24" y="24" class="st1" width="4" height="4"/>
<rect x="28" y="24" class="st1" width="4" height="4"/>
<rect x="16" y="28" class="st1" width="4" height="4"/>
<rect x="20" y="28" class="st1" width="4" height="4"/>
<rect x="24" y="28" class="st1" width="4" height="4"/>
<rect x="16" y="32" class="st1" width="4" height="4"/>
<rect x="20" y="32" class="st1" width="4" height="4"/>
<rect x="16" y="36" class="st1" width="4" height="4"/>
<rect x="20" y="36" class="st1" width="4" height="4"/>
<rect x="16" y="40" class="st1" width="4" height="4"/>
<rect x="20" y="40" class="st1" width="4" height="4"/>
<rect x="16" y="44" class="st1" width="4" height="4"/>
<rect x="20" y="44" class="st1" width="4" height="4"/>
<rect x="16" y="48" class="st1" width="4" height="4"/>
<rect x="20" y="48" class="st1" width="4" height="4"/>
<rect x="16" y="52" class="st1" width="4" height="4"/>
<rect x="20" y="52" class="st1" width="4" height="4"/>
<rect x="16" y="56" class="st1" width="4" height="4"/>
<rect x="20" y="56" class="st1" width="4" height="4"/>
<rect x="16" y="60" class="st1" width="4" height="4"/>
<rect x="20" y="60" class="st1" width="4" height="4"/>
<rect x="16" y="64" class="st1" width="4" height="4"/>
<rect x="20" y="64" class="st1" width="4" height="4"/>
<rect x="16" y="68" class="st1" width="4" height="4"/>
<rect x="20" y="68" class="st1" width="4" height="4"/>
<rect x="16" y="72" class="st1" width="4" height="4"/>
<rect x="20" y="72" class="st1" width="4" height="4"/>
<rect x="16" y="76" class="st1" width="4" height="4"/>
<rect x="20" y="76" class="st1" width="4" height="4"/>
<rect x="16" y="80" class="st1" width="4" height="4"/>
<rect x="20" y="80" class="st1" width="4" height="4"/>
<rect x="16" y="84" class="st1" width="4" height="4"/>
<rect x="20" y="84" class="st1" width="4" height="4"/>
<rect x="16" y="88" class="st1" width="4" height="4"/>
<rect x="20" y="88" class="st1" width="4" height="4"/>
<rect x="16" y="92" class="st1" width="4" height="4"/>
<rect x="20" y="92" class="st1" width="4" height="4"/>
<rect x="16" y="96" class="st1" width="4" height="4"/>
<rect x="20" y="96" class="st1" width="4" height="4"/>
<rect x="16" y="100" class="st1" width="4" height="4"/>
<rect x="20" y="100" class="st1" width="4" height="4"/>
<rect x="16" y="104" class="st1" width="4" height="4"/>
<rect x="20" y="104" class="st1" width="4" height="4"/>
<rect x="12" y="108" class="st1" width="4" height="4"/>
<g>
	<polygon class="st2" points="528,12 524,12 520,12 516,12 512,12 508,12 504,12 500,12 496,12 492,12 488,12 484,12 480,12 476,12 
		472,12 468,12 464,12 460,12 456,12 452,12 448,12 444,12 440,12 436,12 432,12 428,12 424,12 420,12 416,12 412,12 408,12 404,12 
		400,12 396,12 392,12 388,12 384,12 380,12 376,12 372,12 368,12 364,12 360,12 356,12 352,12 348,12 344,12 340,12 336,12 332,12 
		328,12 324,12 320,12 316,12 312,12 308,12 304,12 300,12 296,12 292,12 288,12 284,12 280,12 276,12 272,12 268,12 264,12 260,12 
		256,12 252,12 248,12 244,12 240,12 236,12 232,12 228,12 224,12 220,12 216,12 212,12 208,12 204,12 200,12 196,12 192,12 188,12 
		184,12 180,12 176,12 172,12 168,12 164,12 160,12 156,12 152,12 148,12 144,12 140,12 136,12 132,12 128,12 124,12 120,12 116,12 
		112,12 108,12 104,12 100,12 96,12 92,12 88,12 84,12 80,12 76,12 72,12 68,12 64,12 60,12 56,12 52,12 48,12 44,12 40,12 36,12 
		32,12 28,12 24,12 20,12 20,16 16,16 16,20 12,20 12,24 12,28 12,32 12,36 12,40 12,44 12,48 12,52 12,56 12,60 12,64 12,68 12,72 
		12,76 12,80 12,84 12,88 12,92 12,96 12,100 12,104 12,108 16,108 16,104 16,100 16,96 16,92 16,88 16,84 16,80 16,76 16,72 16,68 
		16,64 16,60 16,56 16,52 16,48 16,44 16,40 16,36 16,32 16,28 16,24 20,24 20,20 24,20 24,16 28,16 32,16 36,16 40,16 44,16 48,16 
		52,16 56,16 60,16 64,16 68,16 72,16 76,16 80,16 84,16 88,16 92,16 96,16 100,16 104,16 108,16 112,16 116,16 120,16 124,16 
		128,16 132,16 136,16 140,16 144,16 148,16 152,16 156,16 160,16 164,16 168,16 172,16 176,16 180,16 184,16 188,16 192,16 196,16 
		200,16 204,16 208,16 212,16 216,16 220,16 224,16 228,16 232,16 236,16 240,16 244,16 248,16 252,16 256,16 260,16 264,16 268,16 
		272,16 276,16 280,16 284,16 288,16 292,16 296,16 300,16 304,16 308,16 312,16 316,16 320,16 324,16 328,16 332,16 336,16 340,16 
		344,16 348,16 352,16 356,16 360,16 364,16 368,16 372,16 376,16 380,16 384,16 388,16 392,16 396,16 400,16 404,16 408,16 412,16 
		416,16 420,16 424,16 428,16 432,16 436,16 440,16 444,16 448,16 452,16 456,16 460,16 464,16 468,16 472,16 476,16 480,16 484,16 
		488,16 492,16 496,16 500,16 504,16 508,16 512,16 516,16 520,16 524,16 528,16 532,16 532,12 	"/>
	<rect x="16" y="108" class="st2" width="4" height="4"/>
</g>
<rect x="20" y="108" class="st1" width="4" height="4"/>
<rect x="24" y="108" class="st1" width="4" height="4"/>
<rect x="12" y="112" class="st1" width="4" height="4"/>
<rect x="16" y="112" class="st1" width="4" height="4"/>
<rect x="20" y="112" class="st1" width="4" height="4"/>
<rect x="24" y="112" class="st1" width="4" height="4"/>
<rect x="28" y="112" class="st1" width="4" height="4"/>
<rect x="8" y="116" class="st0" width="4" height="4"/>
<g>
	<polygon class="st3" points="28,4 32,4 36,4 40,4 44,4 48,4 52,4 56,4 60,4 64,4 68,4 72,4 76,4 80,4 84,4 88,4 92,4 96,4 100,4 
		104,4 108,4 112,4 116,4 120,4 124,4 128,4 132,4 136,4 140,4 144,4 148,4 152,4 156,4 160,4 164,4 168,4 172,4 176,4 180,4 184,4 
		188,4 192,4 196,4 200,4 204,4 208,4 212,4 216,4 220,4 224,4 228,4 232,4 236,4 240,4 244,4 248,4 252,4 256,4 260,4 264,4 268,4 
		272,4 276,4 280,4 284,4 288,4 292,4 296,4 300,4 304,4 308,4 312,4 316,4 320,4 324,4 328,4 332,4 336,4 340,4 344,4 348,4 352,4 
		356,4 360,4 364,4 368,4 372,4 376,4 380,4 384,4 388,4 392,4 396,4 400,4 404,4 408,4 412,4 416,4 420,4 424,4 428,4 432,4 436,4 
		440,4 444,4 448,4 452,4 456,4 460,4 464,4 468,4 472,4 476,4 480,4 484,4 488,4 492,4 496,4 500,4 504,4 508,4 512,4 516,4 520,4 
		524,4 528,4 528,0 524,0 520,0 516,0 512,0 508,0 504,0 500,0 496,0 492,0 488,0 484,0 480,0 476,0 472,0 468,0 464,0 460,0 456,0 
		452,0 448,0 444,0 440,0 436,0 432,0 428,0 424,0 420,0 416,0 412,0 408,0 404,0 400,0 396,0 392,0 388,0 384,0 380,0 376,0 372,0 
		368,0 364,0 360,0 356,0 352,0 348,0 344,0 340,0 336,0 332,0 328,0 324,0 320,0 316,0 312,0 308,0 304,0 300,0 296,0 292,0 288,0 
		284,0 280,0 276,0 272,0 268,0 264,0 260,0 256,0 252,0 248,0 244,0 240,0 236,0 232,0 228,0 224,0 220,0 216,0 212,0 208,0 204,0 
		200,0 196,0 192,0 188,0 184,0 180,0 176,0 172,0 168,0 164,0 160,0 156,0 152,0 148,0 144,0 140,0 136,0 132,0 128,0 124,0 120,0 
		116,0 112,0 108,0 104,0 100,0 96,0 92,0 88,0 84,0 80,0 76,0 72,0 68,0 64,0 60,0 56,0 52,0 48,0 44,0 40,0 36,0 32,0 28,0 24,0 
		20,0 20,4 24,4 	"/>
	<polygon class="st3" points="20,4 16,4 12,4 12,8 16,8 20,8 	"/>
	<rect x="532" y="4" class="st3" width="4" height="4"/>
	<rect x="8" y="8" class="st3" width="4" height="4"/>
	<polygon class="st3" points="536,8 536,12 536,16 540,16 540,12 540,8 	"/>
	<polygon class="st3" points="4,16 4,20 8,20 8,16 8,12 4,12 	"/>
	<polygon class="st3" points="532,20 532,24 532,28 532,32 532,36 532,40 532,44 532,48 532,52 532,56 532,60 532,64 532,68 532,72 
		532,76 532,80 532,84 532,88 532,92 532,96 532,100 532,104 536,104 536,100 536,96 536,92 536,88 536,84 536,80 536,76 536,72 
		536,68 536,64 536,60 536,56 536,52 536,48 536,44 536,40 536,36 536,32 536,28 536,24 536,20 536,16 532,16 	"/>
	<polygon class="st3" points="0,24 0,28 0,32 0,36 0,40 0,44 0,48 0,52 0,56 0,60 0,64 0,68 0,72 0,76 0,80 0,84 0,88 0,92 0,96 
		0,100 0,104 0,108 0,112 4,112 4,116 8,116 8,112 8,108 4,108 4,104 4,100 4,96 4,92 4,88 4,84 4,80 4,76 4,72 4,68 4,64 4,60 
		4,56 4,52 4,48 4,44 4,40 4,36 4,32 4,28 4,24 4,20 0,20 	"/>
	<polygon class="st3" points="528,108 528,112 532,112 532,108 532,104 528,104 	"/>
	<polygon class="st3" points="520,112 520,116 524,116 528,116 528,112 524,112 	"/>
	<polygon class="st3" points="512,116 508,116 504,116 500,116 496,116 492,116 488,116 484,116 480,116 476,116 472,116 468,116 
		464,116 460,116 456,116 452,116 448,116 444,116 440,116 436,116 432,116 428,116 424,116 420,116 416,116 412,116 408,116 
		404,116 400,116 396,116 392,116 388,116 384,116 380,116 376,116 372,116 368,116 364,116 360,116 356,116 352,116 348,116 
		344,116 340,116 336,116 332,116 328,116 324,116 320,116 316,116 312,116 308,116 304,116 300,116 296,116 292,116 288,116 
		284,116 280,116 276,116 272,116 268,116 264,116 260,116 256,116 252,116 248,116 244,116 240,116 236,116 232,116 228,116 
		224,116 220,116 216,116 212,116 208,116 204,116 200,116 196,116 192,116 188,116 184,116 180,116 176,116 172,116 168,116 
		164,116 160,116 156,116 152,116 148,116 144,116 140,116 136,116 132,116 128,116 124,116 120,116 116,116 112,116 108,116 
		104,116 100,116 96,116 92,116 88,116 84,116 80,116 76,116 72,116 68,116 64,116 60,116 56,116 52,116 48,116 44,116 40,116 
		36,116 32,116 28,116 24,116 20,116 20,120 24,120 28,120 32,120 36,120 40,120 44,120 48,120 52,120 56,120 60,120 64,120 68,120 
		72,120 76,120 80,120 84,120 88,120 92,120 96,120 100,120 104,120 108,120 112,120 116,120 120,120 124,120 128,120 132,120 
		136,120 140,120 144,120 148,120 152,120 156,120 160,120 164,120 168,120 172,120 176,120 180,120 184,120 188,120 192,120 
		196,120 200,120 204,120 208,120 212,120 216,120 220,120 224,120 228,120 232,120 236,120 240,120 244,120 248,120 252,120 
		256,120 260,120 264,120 268,120 272,120 276,120 280,120 284,120 288,120 292,120 296,120 300,120 304,120 308,120 312,120 
		316,120 320,120 324,120 328,120 332,120 336,120 340,120 344,120 348,120 352,120 356,120 360,120 364,120 368,120 372,120 
		376,120 380,120 384,120 388,120 392,120 396,120 400,120 404,120 408,120 412,120 416,120 420,120 424,120 428,120 432,120 
		436,120 440,120 444,120 448,120 452,120 456,120 460,120 464,120 468,120 472,120 476,120 480,120 484,120 488,120 492,120 
		496,120 500,120 504,120 508,120 512,120 516,120 520,120 520,116 516,116 	"/>
</g>
<rect x="12" y="120" class="st0" width="4" height="4"/>
<rect x="16" y="120" class="st0" width="4" height="4"/>
<g>
	<polygon class="st4" points="36,4 32,4 28,4 24,4 20,4 20,8 24,8 28,8 32,8 36,8 40,8 44,8 44,4 40,4 	"/>
	<polygon class="st4" points="80,4 76,4 72,4 68,4 64,4 60,4 60,8 64,8 68,8 72,8 76,8 80,8 84,8 88,8 88,4 84,4 	"/>
	<polygon class="st4" points="480,4 476,4 472,4 468,4 464,4 460,4 456,4 452,4 448,4 444,4 440,4 436,4 432,4 428,4 424,4 420,4 
		416,4 412,4 408,4 404,4 400,4 396,4 392,4 388,4 384,4 380,4 376,4 372,4 368,4 364,4 360,4 356,4 352,4 348,4 344,4 340,4 336,4 
		332,4 328,4 324,4 320,4 316,4 312,4 308,4 304,4 300,4 296,4 292,4 288,4 284,4 280,4 276,4 272,4 268,4 264,4 260,4 256,4 252,4 
		248,4 244,4 240,4 236,4 232,4 228,4 224,4 220,4 216,4 212,4 208,4 204,4 200,4 196,4 192,4 188,4 184,4 180,4 176,4 172,4 168,4 
		164,4 160,4 156,4 152,4 148,4 144,4 140,4 136,4 132,4 128,4 124,4 120,4 116,4 112,4 108,4 104,4 100,4 96,4 92,4 92,8 96,8 
		100,8 104,8 108,8 112,8 116,8 120,8 124,8 128,8 132,8 136,8 140,8 144,8 148,8 152,8 156,8 160,8 164,8 168,8 172,8 176,8 180,8 
		184,8 188,8 192,8 196,8 200,8 204,8 208,8 212,8 216,8 220,8 224,8 228,8 232,8 236,8 240,8 244,8 248,8 252,8 256,8 260,8 264,8 
		268,8 272,8 276,8 280,8 284,8 288,8 292,8 296,8 300,8 304,8 308,8 312,8 316,8 320,8 324,8 328,8 332,8 336,8 340,8 344,8 348,8 
		352,8 356,8 360,8 364,8 368,8 372,8 376,8 380,8 384,8 388,8 392,8 396,8 400,8 404,8 408,8 412,8 416,8 420,8 424,8 428,8 432,8 
		436,8 440,8 444,8 448,8 452,8 456,8 460,8 464,8 468,8 472,8 476,8 480,8 484,8 488,8 488,4 484,4 	"/>
	<rect x="532" y="12" class="st4" width="4" height="4"/>
	<polygon class="st4" points="12,16 12,12 8,12 8,16 8,20 12,20 	"/>
	<polygon class="st4" points="536,16 536,20 536,24 540,24 540,20 540,16 	"/>
	<rect x="4" y="20" class="st4" width="4" height="4"/>
	<polygon class="st4" points="4,36 4,40 4,44 4,48 4,52 4,56 4,60 4,64 4,68 8,68 8,64 8,60 8,56 8,52 8,48 8,44 8,40 8,36 8,32 
		4,32 	"/>
	<polygon class="st4" points="536,100 536,104 540,104 540,100 540,96 536,96 	"/>
	<polygon class="st4" points="4,104 4,108 8,108 8,104 8,100 4,100 	"/>
	<polygon class="st4" points="532,108 532,112 536,112 536,108 536,104 532,104 	"/>
	<rect x="528" y="112" class="st4" width="4" height="4"/>
	<polygon class="st4" points="16,116 12,116 12,120 16,120 20,120 20,116 	"/>
	<rect x="20" y="120" class="st4" width="4" height="4"/>
	<polygon class="st4" points="32,120 32,124 36,124 40,124 40,120 36,120 	"/>
	<rect x="508" y="120" class="st4" width="4" height="4"/>
</g>
<g>
	<polygon class="st5" points="52,8 56,8 60,8 60,4 56,4 52,4 48,4 44,4 44,8 48,8 	"/>
	<rect x="88" y="4" class="st5" width="4" height="4"/>
	<polygon class="st5" points="528,4 524,4 520,4 516,4 512,4 508,4 504,4 500,4 496,4 492,4 488,4 488,8 492,8 496,8 500,8 504,8 
		508,8 512,8 516,8 520,8 524,8 528,8 532,8 532,4 	"/>
	<polygon class="st5" points="12,8 12,12 16,12 20,12 20,8 16,8 	"/>
	<rect x="532" y="8" class="st5" width="4" height="4"/>
	<polygon class="st5" points="536,24 536,28 536,32 536,36 536,40 536,44 536,48 536,52 536,56 536,60 536,64 536,68 536,72 536,76 
		536,80 536,84 536,88 536,92 536,96 540,96 540,92 540,88 540,84 540,80 540,76 540,72 540,68 540,64 540,60 540,56 540,52 540,48 
		540,44 540,40 540,36 540,32 540,28 540,24 	"/>
	<polygon class="st5" points="8,28 8,24 4,24 4,28 4,32 8,32 	"/>
	<polygon class="st5" points="8,96 8,92 8,88 8,84 8,80 8,76 8,72 8,68 4,68 4,72 4,76 4,80 4,84 4,88 4,92 4,96 4,100 8,100 	"/>
	<polygon class="st5" points="8,112 8,116 12,116 12,112 12,108 8,108 	"/>
	<polygon class="st5" points="520,116 520,120 524,120 528,120 528,116 524,116 	"/>
	<polygon class="st5" points="24,120 24,124 28,124 32,124 32,120 28,120 	"/>
	<polygon class="st5" points="500,120 496,120 492,120 488,120 484,120 480,120 476,120 472,120 468,120 464,120 460,120 456,120 
		452,120 448,120 444,120 440,120 436,120 432,120 428,120 424,120 420,120 416,120 412,120 408,120 404,120 400,120 396,120 
		392,120 388,120 384,120 380,120 376,120 372,120 368,120 364,120 360,120 356,120 352,120 348,120 344,120 340,120 336,120 
		332,120 328,120 324,120 320,120 316,120 312,120 308,120 304,120 300,120 296,120 292,120 288,120 284,120 280,120 276,120 
		272,120 268,120 264,120 260,120 256,120 252,120 248,120 244,120 240,120 236,120 232,120 228,120 224,120 220,120 216,120 
		212,120 208,120 204,120 200,120 196,120 192,120 188,120 184,120 180,120 176,120 172,120 168,120 164,120 160,120 156,120 
		152,120 148,120 144,120 140,120 136,120 132,120 128,120 124,120 120,120 116,120 112,120 108,120 104,120 100,120 96,120 92,120 
		88,120 84,120 80,120 76,120 72,120 68,120 64,120 60,120 56,120 52,120 48,120 44,120 40,120 40,124 44,124 48,124 52,124 56,124 
		60,124 64,124 68,124 72,124 76,124 80,124 84,124 88,124 92,124 96,124 100,124 104,124 108,124 112,124 116,124 120,124 124,124 
		128,124 132,124 136,124 140,124 144,124 148,124 152,124 156,124 160,124 164,124 168,124 172,124 176,124 180,124 184,124 
		188,124 192,124 196,124 200,124 204,124 208,124 212,124 216,124 220,124 224,124 228,124 232,124 236,124 240,124 244,124 
		248,124 252,124 256,124 260,124 264,124 268,124 272,124 276,124 280,124 284,124 288,124 292,124 296,124 300,124 304,124 
		308,124 312,124 316,124 320,124 324,124 328,124 332,124 336,124 340,124 344,124 348,124 352,124 356,124 360,124 364,124 
		368,124 372,124 376,124 380,124 384,124 388,124 392,124 396,124 400,124 404,124 408,124 412,124 416,124 420,124 424,124 
		428,124 432,124 436,124 440,124 444,124 448,124 452,124 456,124 460,124 464,124 468,124 472,124 476,124 480,124 484,124 
		488,124 492,124 496,124 500,124 504,124 508,124 508,120 504,120 	"/>
	<polygon class="st5" points="512,120 512,124 516,124 520,124 520,120 516,120 	"/>
</g>
<g>
	<polygon class="st6" points="104,12 108,12 112,12 116,12 120,12 124,12 128,12 132,12 136,12 140,12 144,12 148,12 152,12 156,12 
		160,12 164,12 168,12 172,12 176,12 180,12 184,12 188,12 192,12 196,12 200,12 204,12 208,12 212,12 216,12 220,12 224,12 228,12 
		232,12 236,12 240,12 244,12 248,12 252,12 256,12 260,12 264,12 268,12 272,12 276,12 280,12 284,12 288,12 292,12 296,12 300,12 
		304,12 308,12 312,12 316,12 320,12 324,12 328,12 332,12 336,12 340,12 344,12 348,12 352,12 356,12 360,12 364,12 368,12 372,12 
		376,12 380,12 384,12 388,12 392,12 396,12 400,12 404,12 408,12 412,12 416,12 420,12 424,12 428,12 432,12 436,12 440,12 444,12 
		448,12 452,12 456,12 460,12 464,12 468,12 472,12 476,12 480,12 484,12 488,12 492,12 496,12 500,12 504,12 508,12 512,12 516,12 
		520,12 524,12 528,12 528,8 524,8 520,8 516,8 512,8 508,8 504,8 500,8 496,8 492,8 488,8 484,8 480,8 476,8 472,8 468,8 464,8 
		460,8 456,8 452,8 448,8 444,8 440,8 436,8 432,8 428,8 424,8 420,8 416,8 412,8 408,8 404,8 400,8 396,8 392,8 388,8 384,8 380,8 
		376,8 372,8 368,8 364,8 360,8 356,8 352,8 348,8 344,8 340,8 336,8 332,8 328,8 324,8 320,8 316,8 312,8 308,8 304,8 300,8 296,8 
		292,8 288,8 284,8 280,8 276,8 272,8 268,8 264,8 260,8 256,8 252,8 248,8 244,8 240,8 236,8 232,8 228,8 224,8 220,8 216,8 212,8 
		208,8 204,8 200,8 196,8 192,8 188,8 184,8 180,8 176,8 172,8 168,8 164,8 160,8 156,8 152,8 148,8 144,8 140,8 136,8 132,8 128,8 
		124,8 120,8 116,8 112,8 108,8 104,8 100,8 96,8 92,8 88,8 84,8 80,8 76,8 72,8 68,8 64,8 60,8 56,8 52,8 48,8 44,8 40,8 36,8 
		32,8 28,8 24,8 20,8 20,12 24,12 28,12 32,12 36,12 40,12 44,12 48,12 52,12 56,12 60,12 64,12 68,12 72,12 76,12 80,12 84,12 
		88,12 92,12 96,12 100,12 	"/>
	<polygon class="st6" points="12,12 12,16 12,20 16,20 16,16 20,16 20,12 16,12 	"/>
	<polygon class="st6" points="8,24 8,28 8,32 8,36 8,40 8,44 8,48 8,52 8,56 8,60 8,64 8,68 8,72 8,76 8,80 8,84 8,88 8,92 8,96 
		8,100 8,104 8,108 12,108 12,104 12,100 12,96 12,92 12,88 12,84 12,80 12,76 12,72 12,68 12,64 12,60 12,56 12,52 12,48 12,44 
		12,40 12,36 12,32 12,28 12,24 12,20 8,20 	"/>
	<polygon class="st6" points="528,24 524,24 520,24 516,24 512,24 508,24 504,24 500,24 496,24 492,24 488,24 484,24 480,24 476,24 
		472,24 468,24 464,24 460,24 456,24 452,24 448,24 444,24 440,24 436,24 432,24 428,24 424,24 420,24 416,24 412,24 408,24 404,24 
		400,24 396,24 392,24 388,24 384,24 380,24 376,24 372,24 368,24 364,24 360,24 356,24 352,24 348,24 344,24 340,24 336,24 332,24 
		328,24 324,24 320,24 316,24 312,24 308,24 304,24 300,24 296,24 292,24 288,24 284,24 280,24 276,24 272,24 268,24 264,24 264,28 
		264,32 268,32 268,36 268,40 272,40 272,44 276,44 276,48 276,52 280,52 280,56 280,60 284,60 284,64 284,68 284,72 288,72 288,76 
		288,80 292,80 292,84 292,88 296,88 296,92 296,96 296,100 300,100 300,104 300,108 304,108 304,112 304,116 308,116 312,116 
		316,116 320,116 324,116 328,116 332,116 336,116 340,116 344,116 348,116 352,116 356,116 360,116 364,116 368,116 372,116 
		376,116 380,116 384,116 388,116 392,116 396,116 400,116 404,116 408,116 412,116 416,116 420,116 424,116 428,116 432,116 
		436,116 440,116 444,116 448,116 452,116 456,116 460,116 464,116 468,116 472,116 476,116 480,116 484,116 488,116 492,116 
		496,116 500,116 504,116 508,116 512,116 516,116 520,116 520,112 524,112 528,112 528,108 528,104 532,104 532,100 532,96 532,92 
		532,88 532,84 532,80 532,76 532,72 532,68 532,64 532,60 532,56 532,52 532,48 532,44 532,40 532,36 532,32 532,28 528,28 	"/>
	<polygon class="st6" points="544,36 544,32 540,32 540,36 540,40 540,44 540,48 544,48 544,52 548,52 548,48 548,44 548,40 548,36 
			"/>
	<polygon class="st6" points="544,84 540,84 540,88 540,92 544,92 544,96 548,96 548,92 548,88 544,88 	"/>
	<polygon class="st6" points="44,124 40,124 36,124 32,124 28,124 24,124 20,124 20,128 24,128 28,128 28,132 32,132 36,132 40,132 
		44,132 48,132 48,128 44,128 	"/>
	<polygon class="st6" points="508,124 504,124 500,124 496,124 492,124 488,124 484,124 480,124 476,124 472,124 468,124 464,124 
		460,124 456,124 452,124 448,124 444,124 440,124 436,124 432,124 428,124 424,124 420,124 416,124 412,124 408,124 404,124 
		400,124 396,124 392,124 388,124 384,124 380,124 376,124 372,124 368,124 364,124 360,124 356,124 352,124 348,124 344,124 
		340,124 336,124 332,124 328,124 324,124 320,124 316,124 312,124 308,124 304,124 300,124 296,124 292,124 288,124 284,124 
		280,124 276,124 272,124 268,124 264,124 260,124 256,124 252,124 248,124 244,124 240,124 236,124 232,124 228,124 224,124 
		220,124 216,124 212,124 208,124 204,124 200,124 196,124 192,124 188,124 184,124 180,124 176,124 172,124 168,124 164,124 
		160,124 156,124 152,124 148,124 144,124 140,124 136,124 132,124 128,124 124,124 120,124 116,124 112,124 108,124 104,124 
		100,124 100,128 104,128 104,132 108,132 112,132 116,132 120,132 124,132 128,132 132,132 136,132 140,132 144,132 148,132 
		152,132 156,132 160,132 164,132 168,132 172,132 176,132 180,132 184,132 188,132 192,132 196,132 200,132 204,132 208,132 
		212,132 216,132 220,132 224,132 228,132 232,132 236,132 240,132 244,132 248,132 252,132 256,132 260,132 264,132 268,132 
		272,132 276,132 280,132 284,132 288,132 292,132 296,132 300,132 304,132 308,132 312,132 316,132 320,132 324,132 328,132 
		332,132 336,132 340,132 344,132 348,132 352,132 356,132 360,132 364,132 368,132 372,132 376,132 380,132 384,132 388,132 
		392,132 396,132 400,132 404,132 408,132 412,132 416,132 420,132 424,132 428,132 432,132 436,132 440,132 444,132 448,132 
		452,132 456,132 460,132 464,132 468,132 472,132 476,132 480,132 484,132 488,132 492,132 496,132 500,132 504,132 508,132 
		512,132 512,128 508,128 	"/>
</g>
<g>
	<polygon class="st7" points="512,24 516,24 520,24 524,24 528,24 528,28 532,28 532,24 532,20 532,16 528,16 524,16 520,16 516,16 
		512,16 508,16 504,16 500,16 496,16 492,16 488,16 484,16 480,16 476,16 472,16 468,16 464,16 460,16 456,16 452,16 448,16 444,16 
		440,16 436,16 432,16 428,16 424,16 420,16 416,16 412,16 408,16 404,16 400,16 396,16 392,16 388,16 384,16 380,16 376,16 372,16 
		368,16 364,16 360,16 356,16 352,16 348,16 344,16 340,16 336,16 332,16 328,16 324,16 320,16 316,16 312,16 308,16 304,16 300,16 
		296,16 292,16 288,16 284,16 280,16 276,16 272,16 268,16 264,16 260,16 260,20 264,20 264,24 268,24 272,24 276,24 280,24 284,24 
		288,24 292,24 296,24 300,24 304,24 308,24 312,24 316,24 320,24 324,24 328,24 332,24 336,24 340,24 344,24 348,24 352,24 356,24 
		360,24 364,24 368,24 372,24 376,24 380,24 384,24 388,24 392,24 396,24 400,24 404,24 408,24 412,24 416,24 420,24 424,24 428,24 
		432,24 436,24 440,24 444,24 448,24 452,24 456,24 460,24 464,24 468,24 472,24 476,24 480,24 484,24 488,24 492,24 496,24 500,24 
		504,24 508,24 	"/>
	<polygon class="st7" points="544,20 544,16 544,12 540,12 540,16 540,20 540,24 540,28 540,32 544,32 544,36 548,36 548,32 548,28 
		548,24 548,20 	"/>
	<polygon class="st7" points="256,24 252,24 248,24 244,24 240,24 236,24 232,24 228,24 224,24 220,24 216,24 212,24 208,24 204,24 
		200,24 196,24 192,24 188,24 184,24 180,24 176,24 172,24 168,24 164,24 160,24 156,24 152,24 148,24 144,24 140,24 136,24 132,24 
		128,24 124,24 120,24 116,24 112,24 108,24 104,24 100,24 96,24 92,24 88,24 84,24 80,24 76,24 72,24 68,24 64,24 60,24 56,24 
		52,24 48,24 44,24 40,24 36,24 32,24 32,28 28,28 28,32 24,32 24,36 24,40 24,44 24,48 24,52 24,56 24,60 24,64 24,68 24,72 24,76 
		24,80 24,84 24,88 24,92 24,96 24,100 24,104 24,108 28,108 28,112 32,112 32,116 36,116 40,116 44,116 48,116 52,116 56,116 
		60,116 64,116 68,116 72,116 76,116 80,116 84,116 88,116 92,116 96,116 100,116 104,116 108,116 112,116 116,116 120,116 124,116 
		128,116 132,116 136,116 140,116 144,116 148,116 152,116 156,116 160,116 164,116 168,116 172,116 176,116 180,116 184,116 
		188,116 192,116 196,116 200,116 204,116 208,116 212,116 216,116 220,116 224,116 228,116 232,116 236,116 240,116 244,116 
		248,116 252,116 256,116 260,116 264,116 268,116 272,116 276,116 280,116 284,116 288,116 292,116 296,116 300,116 304,116 
		304,112 304,108 300,108 300,104 300,100 296,100 296,96 296,92 296,88 292,88 292,84 292,80 288,80 288,76 288,72 284,72 284,68 
		284,64 284,60 280,60 280,56 280,52 276,52 276,48 276,44 272,44 272,40 268,40 268,36 268,32 264,32 264,28 264,24 260,24 	"/>
	<polygon class="st7" points="544,48 540,48 540,52 540,56 540,60 540,64 540,68 540,72 540,76 540,80 540,84 544,84 544,88 548,88 
		548,84 548,80 548,76 548,72 548,68 548,64 548,60 548,56 548,52 544,52 	"/>
	<polygon class="st7" points="544,92 540,92 540,96 540,100 540,104 536,104 536,108 536,112 532,112 532,116 528,116 528,120 
		524,120 520,120 520,124 516,124 512,124 508,124 508,128 512,128 512,132 516,132 520,132 524,132 524,128 528,128 532,128 
		532,124 536,124 536,120 540,120 540,116 544,116 544,112 544,108 544,104 548,104 548,100 548,96 544,96 	"/>
	<polygon class="st7" points="100,124 96,124 92,124 88,124 84,124 80,124 76,124 72,124 68,124 64,124 60,124 56,124 52,124 
		48,124 44,124 44,128 48,128 48,132 52,132 56,132 60,132 64,132 68,132 72,132 76,132 80,132 84,132 88,132 92,132 96,132 
		100,132 104,132 104,128 100,128 	"/>
</g>
</svg>
