<?xml version="1.0" encoding="utf-8"?>
<!-- Generator: Adobe Illustrator 24.2.0, SVG Export Plug-In . SVG Version: 6.00 Build 0)  -->
<svg version="1.1" id="圖層_1" shape-rendering="crispEdges"
	 xmlns="http://www.w3.org/2000/svg" xmlns:xlink="http://www.w3.org/1999/xlink" x="0px" y="0px" viewBox="0 0 316 160"
	 style="enable-background:new 0 0 316 160;" xml:space="preserve">
<style type="text/css">
	.st0{fill:#FFF691;}
	.st1{fill:#A88F1E;}
	.st2{fill:#FFEA00;}
	.st3{fill:#DBBA25;}
	.st4{fill:#FFE25B;}
	.st5{fill:#FFF9BB;}
</style>
<rect x="68" y="28" class="st0" width="4" height="4"/>
<rect x="72" y="28" class="st0" width="4" height="4"/>
<g>
	<polygon class="st1" points="52,36 48,36 48,40 44,40 44,44 48,44 52,44 56,44 56,40 52,40 	"/>
	<rect x="60" y="40" class="st1" width="4" height="4"/>
	<polygon class="st1" points="100,60 100,56 96,56 96,52 92,52 88,52 88,56 92,56 92,60 88,60 88,56 84,56 84,52 84,48 80,48 76,48 
		72,48 72,44 68,44 64,44 64,48 64,52 68,52 72,52 72,56 76,56 76,52 80,52 80,56 76,56 76,60 80,60 84,60 84,64 88,64 92,64 92,68 
		96,68 100,68 100,64 104,64 104,60 	"/>
</g>
<g>
	<rect x="48" y="4" class="st2" width="4" height="4"/>
	<polygon class="st2" points="68,4 68,0 64,0 64,4 64,8 68,8 	"/>
	<rect x="44" y="8" class="st2" width="4" height="4"/>
	<rect x="60" y="8" class="st2" width="4" height="4"/>
	<rect x="16" y="12" class="st2" width="4" height="4"/>
	<polygon class="st2" points="32,12 32,8 32,4 28,4 28,8 28,12 28,16 32,16 	"/>
	<polygon class="st2" points="56,16 56,20 60,20 60,16 60,12 56,12 	"/>
	<rect x="20" y="16" class="st2" width="4" height="4"/>
	<rect x="72" y="16" class="st2" width="4" height="4"/>
	<rect x="24" y="20" class="st2" width="4" height="4"/>
	<rect x="68" y="20" class="st2" width="4" height="4"/>
	<rect x="92" y="24" class="st2" width="4" height="4"/>
	<polygon class="st2" points="12,32 12,28 8,28 4,28 0,28 0,32 4,32 8,32 	"/>
	<polygon class="st2" points="84,28 84,32 88,32 92,32 92,28 88,28 	"/>
	<rect x="112" y="28" class="st2" width="4" height="4"/>
	<polygon class="st2" points="16,36 20,36 20,32 16,32 12,32 12,36 	"/>
	<rect x="80" y="32" class="st2" width="4" height="4"/>
	<rect x="108" y="32" class="st2" width="4" height="4"/>
	<rect x="24" y="36" class="st2" width="4" height="4"/>
	<rect x="104" y="36" class="st2" width="4" height="4"/>
	<rect x="20" y="40" class="st2" width="4" height="4"/>
	<rect x="16" y="44" class="st2" width="4" height="4"/>
	<polygon class="st2" points="8,48 8,52 12,52 16,52 16,48 12,48 	"/>
	<rect x="32" y="56" class="st2" width="4" height="4"/>
	<polygon class="st2" points="24,60 24,64 28,64 32,64 32,60 28,60 	"/>
	<rect x="48" y="60" class="st2" width="4" height="4"/>
	<rect x="20" y="64" class="st2" width="4" height="4"/>
	<rect x="44" y="64" class="st2" width="4" height="4"/>
	<polygon class="st2" points="40,72 40,76 44,76 44,72 44,68 40,68 	"/>
	<polygon class="st2" points="36,80 36,84 40,84 40,80 40,76 36,76 	"/>
	<rect x="56" y="76" class="st2" width="4" height="4"/>
	<rect x="52" y="80" class="st2" width="4" height="4"/>
	<rect x="76" y="80" class="st2" width="4" height="4"/>
	<polygon class="st2" points="92,84 92,88 92,92 92,96 92,100 96,100 96,96 96,92 96,88 96,84 96,80 92,80 	"/>
	<polygon class="st2" points="72,88 72,92 72,96 76,96 76,92 76,88 76,84 72,84 	"/>
	<rect x="104" y="84" class="st2" width="4" height="4"/>
	<polygon class="st2" points="108,92 108,96 112,96 112,92 112,88 108,88 	"/>
</g>
<g>
	<rect x="76" y="52" class="st3" width="4" height="4"/>
	<polygon class="st3" points="108,52 104,52 100,52 100,48 96,48 92,48 88,48 88,44 84,44 80,44 80,40 76,40 72,40 68,40 68,36 
		64,36 60,36 60,32 56,32 52,32 48,32 48,28 44,28 44,32 44,36 40,36 40,40 40,44 44,44 44,40 48,40 48,36 52,36 52,40 56,40 56,44 
		52,44 48,44 44,44 44,48 48,48 48,52 52,52 56,52 56,56 60,56 64,56 64,60 68,60 72,60 72,64 76,64 80,64 84,64 84,60 80,60 76,60 
		76,56 72,56 72,52 68,52 64,52 64,48 64,44 60,44 60,40 64,40 64,44 68,44 72,44 72,48 76,48 80,48 84,48 84,52 84,56 88,56 88,52 
		92,52 96,52 96,56 100,56 100,60 104,60 104,64 100,64 100,68 96,68 92,68 92,72 96,72 100,72 104,72 104,68 108,68 108,64 112,64 
		112,60 112,56 108,56 	"/>
	<rect x="88" y="56" class="st3" width="4" height="4"/>
	<polygon class="st3" points="88,64 84,64 84,68 88,68 92,68 92,64 	"/>
	<rect x="68" y="68" class="st3" width="4" height="4"/>
	<rect x="76" y="68" class="st3" width="4" height="4"/>
	<rect x="116" y="76" class="st3" width="4" height="4"/>
	<rect x="160" y="92" class="st3" width="4" height="4"/>
	<rect x="164" y="96" class="st3" width="4" height="4"/>
	<rect x="188" y="96" class="st3" width="4" height="4"/>
	<rect x="168" y="100" class="st3" width="4" height="4"/>
	<rect x="192" y="100" class="st3" width="4" height="4"/>
	<rect x="196" y="104" class="st3" width="4" height="4"/>
	<polygon class="st3" points="200,108 200,112 200,116 204,116 204,112 204,108 	"/>
</g>
<g>
	<path class="st4" d="M112,48h-4v-4h-4h-4v-4h-4h-4h-4v-4h-4h-4h-4v-4h-4h-4v-4h-4h-4v-4h-4h-4v-4h-4h-4h-4h-4h-4v4h4v4h-4v4v4v4v4
		v4h4v4h4v4h4h4v4h4h4v4h4v4h4v4h4v-4h4v4v4h4h4v4h4h4h4h4h4v-4h4h4h4v-4h4v-4v-4v-4v-4v-4h-4V48z M76,72v-4h4v4H76z M112,56v4v4h-4
		v4h-4v4h-4h-4h-4v-4h-4h-4v-4h-4h-4h-4v-4h-4h-4v-4h-4h-4v-4h-4h-4v-4h-4v-4h-4v-4v-4h4v-4v-4h4v4h4h4h4v4h4h4v4h4h4h4v4h4h4v4h4h4
		h4v4h4h4v4H112z"/>
	<polygon class="st4" points="140,48 136,48 132,48 128,48 124,48 124,52 128,52 132,52 136,52 140,52 144,52 148,52 148,48 144,48 
			"/>
	<rect x="120" y="52" class="st4" width="4" height="4"/>
	<polygon class="st4" points="220,60 216,60 212,60 212,64 216,64 220,64 224,64 224,60 	"/>
	<polygon class="st4" points="132,64 128,64 124,64 120,64 120,68 124,68 128,68 132,68 136,68 136,64 	"/>
	<polygon class="st4" points="268,64 264,64 260,64 256,64 252,64 248,64 244,64 240,64 236,64 232,64 228,64 224,64 224,68 228,68 
		232,68 236,68 240,68 244,68 248,68 252,68 256,68 260,68 264,68 268,68 272,68 272,64 	"/>
	<polygon class="st4" points="140,68 136,68 136,72 140,72 144,72 148,72 148,68 144,68 	"/>
	<polygon class="st4" points="124,80 120,80 120,84 124,84 128,84 132,84 132,80 128,80 	"/>
	<polygon class="st4" points="152,88 152,92 156,92 160,92 160,88 156,88 	"/>
	<rect x="184" y="92" class="st4" width="4" height="4"/>
	<rect x="204" y="116" class="st4" width="4" height="4"/>
	<rect x="208" y="120" class="st4" width="4" height="4"/>
	<rect x="212" y="124" class="st4" width="4" height="4"/>
</g>
<g>
	<rect x="76" y="32" class="st5" width="4" height="4"/>
	<rect x="312" y="32" class="st5" width="4" height="4"/>
	<polygon class="st5" points="96,36 92,36 88,36 88,40 92,40 96,40 100,40 100,36 	"/>
	<polygon class="st5" points="104,40 100,40 100,44 104,44 108,44 108,40 	"/>
	<rect x="108" y="44" class="st5" width="4" height="4"/>
	<rect x="112" y="48" class="st5" width="4" height="4"/>
	<polygon class="st5" points="184,48 180,48 176,48 172,48 168,48 164,48 160,48 156,48 152,48 148,48 148,52 152,52 156,52 160,52 
		164,52 168,52 172,52 176,52 180,52 184,52 188,52 188,48 	"/>
	<rect x="300" y="48" class="st5" width="4" height="4"/>
	<polygon class="st5" points="116,56 116,60 116,64 116,68 116,72 120,72 120,68 120,64 120,60 120,56 120,52 116,52 	"/>
	<polygon class="st5" points="192,52 188,52 188,56 192,56 196,56 196,52 	"/>
	<rect x="296" y="52" class="st5" width="4" height="4"/>
	<polygon class="st5" points="48,56 44,56 40,56 40,52 36,52 36,48 32,48 32,44 32,40 32,36 32,32 32,28 36,28 36,24 32,24 32,20 
		36,20 40,20 44,20 48,20 52,20 52,24 56,24 60,24 60,28 64,28 68,28 68,24 64,24 64,20 60,20 56,20 56,16 52,16 48,16 48,12 44,12 
		40,12 36,12 36,16 32,16 28,16 28,20 28,24 24,24 20,24 20,28 20,32 20,36 20,40 24,40 24,36 28,36 28,40 24,40 24,44 24,48 24,52 
		28,52 28,56 32,56 36,56 36,60 40,60 40,64 44,64 48,64 48,60 	"/>
	<polygon class="st5" points="204,56 200,56 196,56 196,60 200,60 204,60 208,60 212,60 212,56 208,56 	"/>
	<polygon class="st5" points="288,56 284,56 280,56 280,60 284,60 288,60 	"/>
	<polygon class="st5" points="272,60 272,64 276,64 280,64 280,60 276,60 	"/>
	<rect x="148" y="68" class="st5" width="4" height="4"/>
	<rect x="112" y="72" class="st5" width="4" height="4"/>
	<polygon class="st5" points="160,72 156,72 152,72 152,76 156,76 160,76 164,76 164,72 	"/>
	<polygon class="st5" points="76,76 72,76 72,72 68,72 64,72 64,68 60,68 60,64 56,64 56,60 52,60 52,64 48,64 48,68 52,68 56,68 
		56,72 60,72 60,76 64,76 68,76 68,80 72,80 76,80 80,80 80,76 	"/>
	<polygon class="st5" points="104,76 100,76 100,80 96,80 96,84 100,84 104,84 104,80 108,80 112,80 112,76 108,76 	"/>
	<polygon class="st5" points="172,76 168,76 164,76 164,80 168,80 172,80 	"/>
	<polygon class="st5" points="84,80 80,80 80,84 84,84 88,84 92,84 92,80 88,80 	"/>
	<polygon class="st5" points="136,80 132,80 132,84 136,84 140,84 140,80 	"/>
	<rect x="172" y="80" class="st5" width="4" height="4"/>
	<polygon class="st5" points="144,84 140,84 140,88 144,88 148,88 152,88 152,84 148,84 	"/>
	<rect x="176" y="84" class="st5" width="4" height="4"/>
	<rect x="180" y="88" class="st5" width="4" height="4"/>
	<polygon class="st5" points="292,92 292,96 296,96 300,96 300,92 296,92 	"/>
	<rect x="288" y="96" class="st5" width="4" height="4"/>
	<rect x="172" y="104" class="st5" width="4" height="4"/>
	<polygon class="st5" points="276,108 276,104 272,104 268,104 268,108 272,108 	"/>
	<rect x="176" y="108" class="st5" width="4" height="4"/>
	<polygon class="st5" points="260,108 260,112 264,112 268,112 268,108 264,108 	"/>
	<rect x="180" y="112" class="st5" width="4" height="4"/>
	<polygon class="st5" points="252,112 248,112 244,112 244,116 248,116 252,116 256,116 260,116 260,112 256,112 	"/>
	<polygon class="st5" points="188,116 184,116 184,120 188,120 192,120 192,116 	"/>
	<polygon class="st5" points="236,116 232,116 228,116 224,116 220,116 216,116 216,120 220,120 224,120 228,120 232,120 236,120 
		240,120 244,120 244,116 240,116 	"/>
	<polygon class="st5" points="192,120 192,124 196,124 200,124 200,120 196,120 	"/>
	<polygon class="st5" points="220,128 216,128 216,132 220,132 224,132 224,128 	"/>
	<polygon class="st5" points="228,132 224,132 224,136 228,136 232,136 232,132 	"/>
	<polygon class="st5" points="240,136 236,136 232,136 232,140 236,140 240,140 244,140 244,136 	"/>
	<polygon class="st5" points="252,140 248,140 244,140 244,144 248,144 252,144 256,144 260,144 260,140 256,140 	"/>
	<polygon class="st5" points="276,140 272,140 272,144 276,144 280,144 280,140 	"/>
	<polygon class="st5" points="280,148 280,152 284,152 284,148 284,144 280,144 	"/>
	<rect x="276" y="152" class="st5" width="4" height="4"/>
	<rect x="264" y="156" class="st5" width="4" height="4"/>
	<rect x="272" y="156" class="st5" width="4" height="4"/>
</g>
</svg>
