<?xml version="1.0" encoding="utf-8"?>
<!-- Generator: Adobe Illustrator 24.2.0, SVG Export Plug-In . SVG Version: 6.00 Build 0)  -->
<svg version="1.1" id="圖層_1" shape-rendering="crispEdges"
	 xmlns="http://www.w3.org/2000/svg" xmlns:xlink="http://www.w3.org/1999/xlink" x="0px" y="0px" viewBox="0 0 328 344"
	 style="enable-background:new 0 0 328 344;" xml:space="preserve">
<style type="text/css">
	.st0{fill:#FFFFFF;}
	.st1{fill:#BFCFE2;}
	.st2{fill:#807367;}
	.st3{fill:#716566;}
	.st4{fill:#9BA8B8;}
	.st5{fill:#F0CDAA;}
	.st6{fill:#D6C8BA;}
	.st7{opacity:0.8235;fill:#78402C;enable-background:new    ;}
	.st8{fill:#8B6A5A;}
	.st9{fill:#694D3F;}
	.st10{fill:#4F392F;}
	.st11{fill:#C7A685;}
	.st12{opacity:0.8235;fill:#975D3D;enable-background:new    ;}
	.st13{opacity:0.8235;fill:#8C5438;enable-background:new    ;}
</style>
<g>
	<polygon class="st0" points="212,216 208,216 204,216 200,216 200,220 204,220 208,220 212,220 216,220 220,220 220,216 216,216 	
		"/>
	<rect x="196" y="220" class="st0" width="4" height="4"/>
	<rect x="224" y="220" class="st0" width="4" height="4"/>
	<polygon class="st0" points="204,228 208,228 212,228 216,228 220,228 220,224 216,224 212,224 208,224 204,224 200,224 200,228 	
		"/>
</g>
<rect x="224" y="224" class="st1" width="4" height="4"/>
<rect x="224" y="228" class="st1" width="4" height="4"/>
<rect x="224" y="232" class="st1" width="4" height="4"/>
<rect x="220" y="236" class="st1" width="4" height="4"/>
<g>
	<polygon class="st2" points="200,228 200,224 196,224 196,228 196,232 196,236 200,236 200,232 	"/>
	<polygon class="st2" points="200,236 200,240 200,244 204,244 204,240 204,236 	"/>
</g>
<polygon class="st3" points="204,228 200,228 200,232 200,236 204,236 204,240 204,244 208,244 208,240 208,236 208,232 208,228 "/>
<polygon class="st4" points="220,228 216,228 212,228 208,228 208,232 208,236 208,240 208,244 212,244 216,244 216,240 220,240 
	220,236 220,232 224,232 224,228 "/>
<rect x="216" y="240" class="st1" width="4" height="4"/>
<rect x="220" y="240" class="st1" width="4" height="4"/>
<g>
	<polygon class="st5" points="240,148 240,144 240,140 236,140 236,144 236,148 236,152 240,152 	"/>
	<polygon class="st5" points="192,224 196,224 196,220 192,220 188,220 184,220 184,224 188,224 	"/>
	<polygon class="st5" points="236,224 240,224 240,220 236,220 232,220 228,220 228,224 232,224 	"/>
	<polygon class="st5" points="168,228 172,228 176,228 180,228 184,228 184,224 180,224 176,224 172,224 168,224 164,224 160,224 
		160,228 164,228 	"/>
	<rect x="252" y="224" class="st5" width="4" height="4"/>
	<polygon class="st5" points="268,224 264,224 260,224 260,228 264,228 268,228 272,228 272,224 	"/>
	<polygon class="st5" points="160,232 160,228 156,228 152,228 148,228 148,232 152,232 152,236 156,236 156,232 	"/>
	<polygon class="st5" points="280,228 276,228 272,228 272,232 276,232 280,232 284,232 284,228 	"/>
	<polygon class="st5" points="284,232 284,236 280,236 276,236 276,240 272,240 268,240 264,240 260,240 256,240 256,244 256,248 
		260,248 260,252 264,252 264,248 268,248 268,244 272,244 272,248 276,248 276,244 280,244 284,244 284,240 288,240 288,236 
		288,232 	"/>
	<polygon class="st5" points="160,240 164,240 164,244 168,244 172,244 176,244 180,244 180,240 176,240 172,240 168,240 168,236 
		164,236 160,236 156,236 156,240 	"/>
	<polygon class="st5" points="248,244 244,244 240,244 236,244 232,244 228,244 224,244 220,244 216,244 212,244 208,244 204,244 
		200,244 196,244 192,244 188,244 184,244 184,248 188,248 192,248 196,248 200,248 204,248 208,248 212,248 216,248 220,248 
		224,248 228,248 232,248 232,252 236,252 240,252 244,252 248,252 248,248 	"/>
	<rect x="268" y="248" class="st5" width="4" height="4"/>
	<rect x="248" y="252" class="st5" width="4" height="4"/>
	<polygon class="st5" points="224,260 220,260 220,264 224,264 228,264 228,260 228,256 224,256 	"/>
	<polygon class="st5" points="284,260 284,264 288,264 288,260 288,256 284,256 	"/>
	<rect x="240" y="260" class="st5" width="4" height="4"/>
	<rect x="272" y="264" class="st5" width="4" height="4"/>
	<rect x="280" y="264" class="st5" width="4" height="4"/>
	<rect x="224" y="268" class="st5" width="4" height="4"/>
	<rect x="248" y="276" class="st5" width="4" height="4"/>
</g>
<g>
	<rect x="200" y="28" class="st6" width="4" height="4"/>
	<polygon class="st6" points="204,36 204,40 204,44 208,44 208,40 208,36 208,32 204,32 	"/>
	<polygon class="st6" points="224,44 224,40 224,36 224,32 220,32 220,36 220,40 220,44 220,48 224,48 	"/>
	<polygon class="st6" points="224,56 228,56 232,56 232,52 236,52 236,48 236,44 232,44 232,48 228,48 228,52 224,52 	"/>
	<rect x="220" y="72" class="st6" width="4" height="4"/>
	<polygon class="st6" points="224,84 224,88 228,88 228,84 228,80 228,76 224,76 224,80 	"/>
	<polygon class="st6" points="228,96 228,100 232,100 232,96 232,92 228,92 	"/>
	<polygon class="st6" points="232,108 232,104 228,104 228,108 228,112 232,112 	"/>
	<rect x="232" y="112" class="st6" width="4" height="4"/>
	<polygon class="st6" points="236,148 236,144 236,140 236,136 236,132 236,128 232,128 232,132 232,136 232,140 232,144 232,148 
		232,152 236,152 	"/>
	<polygon class="st6" points="236,160 236,164 240,164 240,160 240,156 236,156 	"/>
	<rect x="248" y="176" class="st6" width="4" height="4"/>
	<rect x="252" y="180" class="st6" width="4" height="4"/>
	<rect x="256" y="184" class="st6" width="4" height="4"/>
	<polygon class="st6" points="248,216 248,212 244,212 244,216 244,220 244,224 248,224 248,220 	"/>
	<rect x="292" y="216" class="st6" width="4" height="4"/>
	<rect x="296" y="220" class="st6" width="4" height="4"/>
	<rect x="300" y="224" class="st6" width="4" height="4"/>
	<polygon class="st6" points="248,232 252,232 252,228 252,224 248,224 248,228 	"/>
	<polygon class="st6" points="252,240 256,240 256,236 256,232 252,232 252,236 	"/>
	<polygon class="st6" points="256,244 252,244 252,248 252,252 256,252 256,248 	"/>
	<rect x="316" y="244" class="st6" width="4" height="4"/>
	<polygon class="st6" points="324,248 320,248 320,252 320,256 324,256 324,252 	"/>
	<polygon class="st6" points="256,256 256,260 256,264 256,268 260,268 260,264 260,260 260,256 260,252 256,252 	"/>
	<polygon class="st6" points="324,256 324,260 324,264 328,264 328,260 328,256 	"/>
	<rect x="268" y="288" class="st6" width="4" height="4"/>
</g>
<g>
	<polygon class="st7" points="44,280 40,280 40,284 44,284 48,284 48,280 	"/>
	<rect x="36" y="284" class="st7" width="4" height="4"/>
	<polygon class="st7" points="32,292 32,296 36,296 36,292 36,288 32,288 	"/>
</g>
<g>
	<rect x="268" y="4" class="st8" width="4" height="4"/>
	<rect x="244" y="24" class="st8" width="4" height="4"/>
	<rect x="196" y="28" class="st8" width="4" height="4"/>
	<polygon class="st8" points="200,40 200,44 204,44 204,40 204,36 204,32 200,32 200,36 	"/>
	<polygon class="st8" points="220,36 220,32 216,32 216,36 216,40 220,40 	"/>
	<polygon class="st8" points="240,40 244,40 244,36 244,32 240,32 240,36 236,36 236,40 236,44 240,44 	"/>
	<polygon class="st8" points="208,76 208,72 208,68 204,68 204,72 200,72 200,76 204,76 	"/>
	<polygon class="st8" points="220,72 220,68 216,68 216,72 216,76 220,76 	"/>
	<rect x="220" y="76" class="st8" width="4" height="4"/>
	<polygon class="st8" points="200,84 200,80 200,76 196,76 196,80 192,80 192,84 196,84 	"/>
	<rect x="188" y="84" class="st8" width="4" height="4"/>
	<polygon class="st8" points="188,92 188,88 184,88 184,92 184,96 188,96 	"/>
	<polygon class="st8" points="180,104 180,100 180,96 176,96 176,100 172,100 172,104 176,104 	"/>
	<polygon class="st8" points="224,124 224,120 224,116 220,116 220,120 220,124 220,128 224,128 	"/>
	<polygon class="st8" points="224,140 228,140 228,144 228,148 228,152 232,152 232,148 232,144 232,140 232,136 228,136 224,136 	
		"/>
	<polygon class="st8" points="204,152 204,148 204,144 204,140 204,136 204,132 204,128 204,124 204,120 204,116 200,116 200,120 
		200,124 200,128 200,132 200,136 200,140 200,144 200,148 200,152 200,156 204,156 	"/>
	<polygon class="st8" points="232,160 236,160 236,156 236,152 232,152 232,156 	"/>
	<polygon class="st8" points="220,168 220,172 220,176 224,176 224,172 224,168 224,164 220,164 	"/>
	<polygon class="st8" points="240,168 240,164 236,164 236,168 236,172 236,176 240,176 240,172 244,172 244,168 	"/>
	<polygon class="st8" points="248,172 244,172 244,176 244,180 248,180 248,176 	"/>
	<rect x="248" y="180" class="st8" width="4" height="4"/>
	<polygon class="st8" points="256,184 252,184 252,188 252,192 256,192 256,188 	"/>
	<rect x="256" y="192" class="st8" width="4" height="4"/>
	<rect x="260" y="196" class="st8" width="4" height="4"/>
	<polygon class="st8" points="204,200 204,196 204,192 204,188 204,184 204,180 204,176 204,172 204,168 204,164 200,164 200,168 
		200,172 200,176 200,180 200,184 200,188 200,192 200,196 200,200 200,204 204,204 	"/>
	<polygon class="st8" points="220,204 220,208 220,212 220,216 224,216 224,212 224,208 224,204 224,200 220,200 	"/>
	<polygon class="st8" points="268,204 268,200 264,200 264,204 264,208 268,208 272,208 272,204 	"/>
	<rect x="272" y="208" class="st8" width="4" height="4"/>
	<polygon class="st8" points="204,212 204,208 200,208 200,212 200,216 204,216 	"/>
	<polygon class="st8" points="280,212 276,212 276,216 280,216 284,216 284,212 	"/>
	<polygon class="st8" points="244,216 244,212 244,208 240,208 240,212 240,216 240,220 240,224 244,224 244,220 	"/>
	<rect x="284" y="216" class="st8" width="4" height="4"/>
	<polygon class="st8" points="292,220 288,220 288,224 292,224 296,224 296,220 	"/>
	<polygon class="st8" points="84,228 84,232 84,236 88,236 88,232 88,228 88,224 84,224 	"/>
	<rect x="244" y="224" class="st8" width="4" height="4"/>
	<polygon class="st8" points="300,224 296,224 296,228 296,232 300,232 300,228 	"/>
	<rect x="248" y="232" class="st8" width="4" height="4"/>
	<rect x="300" y="232" class="st8" width="4" height="4"/>
	<rect x="80" y="236" class="st8" width="4" height="4"/>
	<rect x="304" y="236" class="st8" width="4" height="4"/>
	<rect x="76" y="240" class="st8" width="4" height="4"/>
	<rect x="284" y="240" class="st8" width="4" height="4"/>
	<rect x="308" y="240" class="st8" width="4" height="4"/>
	<rect x="268" y="244" class="st8" width="4" height="4"/>
	<rect x="276" y="244" class="st8" width="4" height="4"/>
	<rect x="312" y="244" class="st8" width="4" height="4"/>
	<rect x="212" y="248" class="st8" width="4" height="4"/>
	<rect x="228" y="248" class="st8" width="4" height="4"/>
	<rect x="256" y="248" class="st8" width="4" height="4"/>
	<rect x="272" y="248" class="st8" width="4" height="4"/>
	<polygon class="st8" points="320,248 316,248 316,252 316,256 320,256 320,252 	"/>
	<polygon class="st8" points="200,252 200,248 196,248 196,252 196,256 200,256 	"/>
	<polygon class="st8" points="236,256 240,256 240,252 236,252 232,252 232,256 	"/>
	<rect x="252" y="252" class="st8" width="4" height="4"/>
	<rect x="208" y="256" class="st8" width="4" height="4"/>
	<rect x="220" y="256" class="st8" width="4" height="4"/>
	<polygon class="st8" points="320,256 320,260 320,264 320,268 324,268 324,264 324,260 324,256 	"/>
	<rect x="204" y="260" class="st8" width="4" height="4"/>
	<rect x="212" y="260" class="st8" width="4" height="4"/>
	<rect x="224" y="264" class="st8" width="4" height="4"/>
	<polygon class="st8" points="264,264 264,268 268,268 272,268 272,264 268,264 	"/>
	<path class="st8" d="M176,272h4h4h4h4h4v-4h-4h-4h-4v-4h-4v-4h4h4v4h4v-4h4v-4h-4h-4h-4v-4h-4v4h-4v-4h-4h-4v-4h-4h-4v4h-4v-4h4v-4
		h-4h-4v-4h-4h-4h-4v4v4v4v4v4v4h4v4h4h4h4h4h4h4v-4h4v-4h4v4h-4v4h-4v4h4H176z M156,264v-4h-4v-4h-4v-4h4v4h4h4h4v4h-4v4H156z"/>
	<polygon class="st8" points="200,272 200,276 204,276 204,272 204,268 200,268 	"/>
	<rect x="208" y="268" class="st8" width="4" height="4"/>
	<polygon class="st8" points="244,268 240,268 236,268 232,268 232,272 236,272 240,272 244,272 248,272 252,272 252,268 248,268 	
		"/>
	<polygon class="st8" points="152,272 148,272 144,272 144,276 148,276 152,276 156,276 156,272 	"/>
	<polygon class="st8" points="224,272 220,272 220,276 220,280 224,280 224,276 228,276 232,276 232,272 228,272 	"/>
	<polygon class="st8" points="140,280 140,284 144,284 144,288 148,288 148,284 148,280 144,280 144,276 140,276 	"/>
	<path class="st8" d="M204,280h-4h-4h-4h-4v-4h-4v4h-4h-4v-4h-4h-4v-4h-4v4h-4h-4v4h4v4v4h4h4v4h4v-4v-4h4v4h4h4h4h4h4v-4h4v4h4h4
		v-4h-4V280z M164,284v-4h4v4H164z"/>
	<rect x="224" y="280" class="st8" width="4" height="4"/>
	<rect x="156" y="288" class="st8" width="4" height="4"/>
	<rect x="148" y="292" class="st8" width="4" height="4"/>
</g>
<g>
	<polygon class="st9" points="256,16 260,16 260,12 264,12 264,8 268,8 268,4 268,0 264,0 264,4 260,4 260,8 256,8 256,12 252,12 
		252,16 248,16 248,20 244,20 244,24 248,24 252,24 252,20 256,20 	"/>
	<polygon class="st9" points="240,28 240,32 244,32 244,28 244,24 240,24 	"/>
	<polygon class="st9" points="212,72 212,68 212,64 208,64 208,68 208,72 208,76 212,76 	"/>
	<polygon class="st9" points="204,80 208,80 208,76 204,76 200,76 200,80 200,84 204,84 	"/>
	<polygon class="st9" points="192,92 196,92 196,88 200,88 200,84 196,84 192,84 192,88 188,88 188,92 188,96 192,96 	"/>
	<polygon class="st9" points="212,92 208,92 208,96 212,96 216,96 216,92 	"/>
	<rect x="204" y="96" class="st9" width="4" height="4"/>
	<rect x="216" y="96" class="st9" width="4" height="4"/>
	<polygon class="st9" points="184,100 188,100 188,96 184,96 180,96 180,100 180,104 184,104 	"/>
	<polygon class="st9" points="204,100 200,100 200,104 200,108 204,108 204,104 	"/>
	<polygon class="st9" points="220,108 224,108 224,104 224,100 220,100 220,104 	"/>
	<rect x="204" y="108" class="st9" width="4" height="4"/>
	<rect x="216" y="108" class="st9" width="4" height="4"/>
	<polygon class="st9" points="208,112 208,116 212,116 216,116 216,112 212,112 	"/>
	<polygon class="st9" points="164,120 168,120 168,116 172,116 172,112 176,112 176,108 180,108 180,104 176,104 172,104 172,108 
		168,108 168,112 164,112 160,112 160,116 156,116 156,120 160,120 	"/>
	<rect x="152" y="120" class="st9" width="4" height="4"/>
	<rect x="144" y="128" class="st9" width="4" height="4"/>
	<polygon class="st9" points="144,148 148,148 152,148 152,144 148,144 148,140 144,140 144,144 140,144 140,148 140,152 144,152 	
		"/>
	<polygon class="st9" points="140,156 140,152 136,152 136,156 136,160 140,160 	"/>
	<rect x="132" y="160" class="st9" width="4" height="4"/>
	<polygon class="st9" points="128,168 124,168 124,172 120,172 120,176 116,176 116,180 120,180 124,180 124,176 128,176 128,172 
		132,172 132,168 132,164 128,164 	"/>
	<polygon class="st9" points="112,184 108,184 108,188 104,188 104,192 100,192 100,196 96,196 96,200 92,200 92,204 88,204 88,208 
		84,208 84,212 84,216 80,216 80,220 80,224 80,228 80,232 76,232 76,236 72,236 72,240 68,240 68,244 64,244 64,248 64,252 60,252 
		60,256 56,256 56,260 52,260 52,264 48,264 48,268 48,272 44,272 44,276 44,280 48,280 52,280 52,276 56,276 56,272 56,268 60,268 
		60,264 64,264 64,260 68,260 68,256 68,252 72,252 72,248 76,248 76,244 76,240 80,240 80,236 84,236 84,232 84,228 84,224 88,224 
		88,220 88,216 92,216 92,212 92,208 96,208 96,204 100,204 100,200 104,200 104,196 108,196 108,192 112,192 112,188 116,188 
		116,184 116,180 112,180 	"/>
	<polygon class="st9" points="204,220 200,220 200,224 204,224 208,224 212,224 212,220 208,220 	"/>
	<rect x="256" y="224" class="st9" width="4" height="4"/>
	<polygon class="st9" points="164,232 160,232 160,236 164,236 168,236 168,232 	"/>
	<polygon class="st9" points="244,232 240,232 236,232 236,236 240,236 240,240 236,240 236,236 232,236 228,236 224,236 224,240 
		224,244 228,244 232,244 236,244 240,244 244,244 248,244 248,240 248,236 244,236 	"/>
	<polygon class="st9" points="268,236 264,236 260,236 256,236 256,240 260,240 264,240 268,240 272,240 272,236 	"/>
	<polygon class="st9" points="156,240 156,236 152,236 152,232 148,232 144,232 144,236 140,236 140,240 144,240 148,240 152,240 
		152,244 156,244 160,244 160,240 	"/>
	<polygon class="st9" points="196,244 200,244 200,240 196,240 196,236 196,232 192,232 192,236 192,240 188,240 184,240 184,236 
		180,236 176,236 172,236 168,236 168,240 172,240 176,240 180,240 180,244 184,244 188,244 192,244 	"/>
	<polygon class="st9" points="164,244 160,244 160,248 164,248 168,248 168,244 	"/>
	<rect x="156" y="248" class="st9" width="4" height="4"/>
	<polygon class="st9" points="172,248 168,248 168,252 172,252 176,252 176,248 	"/>
	<path class="st9" d="M216,248v4h-4h-4v4h4v4h4v4h-4v-4h-4v4h-4v-4h4v-4h-4v-4h-4v4h-4v4h-4v4h-4v-4h-4h-4v4h4v4h4h4h4v4h-4h-4v4h4
		h4h4v-4v-4h4v4v4h4h4h4h4v-4h4v-4v-4h-4v-4v-4h4v-4v-4h-4H216z M208,272v-4h4v4H208z"/>
	<rect x="148" y="252" class="st9" width="4" height="4"/>
	<rect x="176" y="252" class="st9" width="4" height="4"/>
	<polygon class="st9" points="188,256 192,256 192,252 188,252 188,248 184,248 180,248 180,252 184,252 184,256 	"/>
	<polygon class="st9" points="160,264 160,260 164,260 164,256 160,256 156,256 152,256 152,260 156,260 156,264 	"/>
	<rect x="172" y="260" class="st9" width="4" height="4"/>
	<rect x="168" y="264" class="st9" width="4" height="4"/>
	<polygon class="st9" points="164,268 160,268 156,268 152,268 148,268 144,268 144,264 140,264 140,260 136,260 136,264 136,268 
		136,272 136,276 136,280 136,284 140,284 140,280 140,276 144,276 144,272 148,272 152,272 156,272 156,276 160,276 164,276 
		164,272 168,272 168,268 	"/>
	<polygon class="st9" points="176,272 172,272 168,272 168,276 172,276 176,276 180,276 184,276 184,272 180,272 	"/>
	<polygon class="st9" points="148,276 144,276 144,280 148,280 148,284 148,288 144,288 144,284 140,284 140,288 136,288 136,292 
		140,292 140,296 144,296 148,296 148,292 152,292 152,296 156,296 160,296 164,296 168,296 168,292 168,288 164,288 160,288 
		160,292 156,292 156,288 160,288 160,284 160,280 156,280 156,276 152,276 	"/>
	<rect x="164" y="280" class="st9" width="4" height="4"/>
	<polygon class="st9" points="176,288 172,288 172,292 176,292 180,292 184,292 184,288 180,288 	"/>
</g>
<g>
	<polygon class="st10" points="212,60 212,64 212,68 212,72 212,76 212,80 212,84 212,88 212,92 216,92 216,88 216,84 216,80 
		216,76 216,72 216,68 220,68 220,64 220,60 220,56 224,56 224,52 220,52 220,48 220,44 220,40 216,40 216,44 216,48 216,52 212,52 
		212,48 208,48 208,44 204,44 204,48 204,52 208,52 208,56 204,56 204,60 208,60 	"/>
	<polygon class="st10" points="228,60 232,60 232,56 228,56 224,56 224,60 	"/>
	<polygon class="st10" points="224,80 220,80 220,84 220,88 224,88 224,84 	"/>
	<polygon class="st10" points="224,96 224,100 224,104 224,108 228,108 228,104 228,100 228,96 228,92 228,88 224,88 224,92 	"/>
	<rect x="168" y="104" class="st10" width="4" height="4"/>
	<polygon class="st10" points="216,108 216,104 216,100 216,96 212,96 212,100 212,104 208,104 208,108 212,108 	"/>
	<rect x="164" y="108" class="st10" width="4" height="4"/>
	<polygon class="st10" points="156,128 160,128 160,124 164,124 164,120 160,120 156,120 156,124 152,124 148,124 148,128 148,132 
		144,132 144,136 144,140 148,140 148,144 152,144 152,140 152,136 152,132 156,132 	"/>
	<polygon class="st10" points="232,132 232,128 232,124 232,120 232,116 232,112 228,112 228,116 228,120 228,124 228,128 228,132 
		228,136 232,136 	"/>
	<polygon class="st10" points="144,152 140,152 140,156 140,160 144,160 144,156 148,156 148,152 148,148 144,148 	"/>
	<polygon class="st10" points="136,164 132,164 132,168 132,172 136,172 136,168 140,168 140,164 140,160 136,160 	"/>
	<polygon class="st10" points="232,164 232,168 232,172 236,172 236,168 236,164 236,160 232,160 	"/>
	<rect x="128" y="172" class="st10" width="4" height="4"/>
	<polygon class="st10" points="116,180 116,184 116,188 120,188 120,184 124,184 124,180 120,180 	"/>
	<polygon class="st10" points="240,180 240,176 236,176 236,180 236,184 236,188 240,188 240,184 	"/>
	<rect x="112" y="188" class="st10" width="4" height="4"/>
	<rect x="108" y="192" class="st10" width="4" height="4"/>
	<polygon class="st10" points="240,196 240,200 240,204 240,208 244,208 244,204 244,200 244,196 244,192 244,188 240,188 240,192 	
		"/>
	<rect x="104" y="196" class="st10" width="4" height="4"/>
	<rect x="100" y="200" class="st10" width="4" height="4"/>
	<rect x="96" y="204" class="st10" width="4" height="4"/>
	<rect x="92" y="208" class="st10" width="4" height="4"/>
	<polygon class="st10" points="212,220 212,224 216,224 220,224 220,220 216,220 	"/>
	<polygon class="st10" points="196,228 196,224 192,224 188,224 184,224 184,228 180,228 176,228 172,228 168,228 164,228 160,228 
		160,232 164,232 168,232 168,236 172,236 176,236 180,236 184,236 184,240 188,240 192,240 192,236 192,232 196,232 	"/>
	<polygon class="st10" points="248,228 244,228 244,224 240,224 236,224 232,224 228,224 228,228 228,232 228,236 232,236 236,236 
		236,232 240,232 244,232 244,236 248,236 248,232 	"/>
	<rect x="156" y="232" class="st10" width="4" height="4"/>
	<polygon class="st10" points="280,232 276,232 272,232 272,228 268,228 264,228 260,228 256,228 252,228 252,232 256,232 256,236 
		260,236 264,236 268,236 272,236 272,240 276,240 276,236 280,236 284,236 284,232 	"/>
	<rect x="196" y="236" class="st10" width="4" height="4"/>
	<rect x="236" y="236" class="st10" width="4" height="4"/>
	<rect x="160" y="240" class="st10" width="4" height="4"/>
	<polygon class="st10" points="248,244 248,248 248,252 252,252 252,248 252,244 252,240 252,236 248,236 248,240 	"/>
	<polygon class="st10" points="256,260 256,256 252,256 252,260 252,264 252,268 256,268 256,264 	"/>
	<polygon class="st10" points="260,268 256,268 256,272 256,276 260,276 260,272 	"/>
	<polygon class="st10" points="264,280 264,276 260,276 260,280 260,284 260,288 264,288 264,284 	"/>
	<polygon class="st10" points="268,288 264,288 264,292 264,296 268,296 268,292 	"/>
	<polygon class="st10" points="272,296 268,296 268,300 268,304 272,304 272,300 	"/>
	<polygon class="st10" points="272,308 272,312 272,316 276,316 276,312 276,308 276,304 272,304 	"/>
</g>
<g>
	<rect x="220" y="48" class="st11" width="4" height="4"/>
	<polygon class="st11" points="224,68 224,64 224,60 224,56 220,56 220,60 220,64 220,68 220,72 224,72 	"/>
	<rect x="228" y="100" class="st11" width="4" height="4"/>
	<polygon class="st11" points="232,120 232,124 232,128 236,128 236,124 236,120 236,116 232,116 	"/>
	<polygon class="st11" points="224,136 224,132 224,128 220,128 220,132 220,136 220,140 224,140 	"/>
	<polygon class="st11" points="224,152 224,148 224,144 220,144 220,148 220,152 220,156 224,156 	"/>
	<polygon class="st11" points="244,160 244,156 240,156 240,160 240,164 240,168 244,168 244,164 	"/>
	<rect x="244" y="168" class="st11" width="4" height="4"/>
	<rect x="248" y="172" class="st11" width="4" height="4"/>
	<polygon class="st11" points="224,180 224,176 220,176 220,180 220,184 224,184 	"/>
	<polygon class="st11" points="244,184 244,180 244,176 244,172 240,172 240,176 240,180 240,184 240,188 244,188 	"/>
	<rect x="256" y="188" class="st11" width="4" height="4"/>
	<polygon class="st11" points="244,196 244,200 244,204 244,208 244,212 248,212 248,208 248,204 248,200 248,196 248,192 248,188 
		244,188 244,192 	"/>
	<rect x="260" y="192" class="st11" width="4" height="4"/>
	<polygon class="st11" points="224,196 224,192 220,192 220,196 220,200 224,200 	"/>
	<rect x="264" y="196" class="st11" width="4" height="4"/>
	<rect x="268" y="200" class="st11" width="4" height="4"/>
	<rect x="272" y="204" class="st11" width="4" height="4"/>
	<polygon class="st11" points="280,208 276,208 276,212 280,212 284,212 284,208 	"/>
	<rect x="284" y="212" class="st11" width="4" height="4"/>
	<rect x="288" y="216" class="st11" width="4" height="4"/>
	<polygon class="st11" points="224,224 224,220 224,216 220,216 220,220 220,224 220,228 224,228 	"/>
	<rect x="300" y="228" class="st11" width="4" height="4"/>
	<rect x="220" y="232" class="st11" width="4" height="4"/>
	<rect x="304" y="232" class="st11" width="4" height="4"/>
	<rect x="308" y="236" class="st11" width="4" height="4"/>
	<rect x="252" y="240" class="st11" width="4" height="4"/>
	<rect x="312" y="240" class="st11" width="4" height="4"/>
	<polygon class="st11" points="176,248 176,252 180,252 180,248 184,248 184,244 180,244 176,244 172,244 168,244 168,248 172,248 	
		"/>
	<path class="st11" d="M280,244v4h-4v4h-4h-4v-4h-4v4h-4v4v4v4v4v4v4h4v4v4v4h4v-4v-4v-4h4v-4h4h4h4h4v-4v-4h-4v4h-4v-4h4v-4v-4h4
		v-4v-4v-4h-4H280z M276,268h-4h-4h-4v-4h4h4h4V268z"/>
	<polygon class="st11" points="192,256 196,256 196,252 196,248 192,248 188,248 188,252 192,252 	"/>
	<polygon class="st11" points="204,256 208,256 208,252 212,252 212,248 208,248 204,248 200,248 200,252 204,252 	"/>
	<path class="st11" d="M236,268h4h4h4h4v-4v-4v-4h-4v-4h-4h-4v4h-4h-4v-4h-4v-4h-4v4v4h4v4v4v4v4h4v-4H236z M244,260v4h-4v-4H244z"
		/>
	<rect x="324" y="264" class="st11" width="4" height="4"/>
	<rect x="184" y="272" class="st11" width="4" height="4"/>
	<polygon class="st11" points="256,272 256,268 252,268 252,272 248,272 244,272 240,272 236,272 232,272 232,276 228,276 224,276 
		224,280 228,280 232,280 232,284 236,284 240,284 240,280 244,280 248,280 248,276 252,276 252,280 256,280 260,280 260,276 
		256,276 	"/>
	<polygon class="st11" points="176,276 176,280 180,280 184,280 184,276 180,276 	"/>
	<polygon class="st11" points="220,276 216,276 212,276 208,276 204,276 200,276 196,276 192,276 188,276 188,280 192,280 196,280 
		200,280 204,280 204,284 208,284 212,284 216,284 220,284 224,284 224,280 220,280 	"/>
	<rect x="172" y="284" class="st11" width="4" height="4"/>
	<rect x="196" y="284" class="st11" width="4" height="4"/>
	<rect x="268" y="292" class="st11" width="4" height="4"/>
	<polygon class="st11" points="276,296 272,296 272,300 272,304 276,304 276,300 	"/>
	<polygon class="st11" points="276,308 276,312 276,316 280,316 280,312 280,308 280,304 276,304 	"/>
</g>
<rect x="248" y="328" class="st12" width="4" height="4"/>
<rect x="236" y="336" class="st12" width="4" height="4"/>
<g>
	<rect x="316" y="268" class="st13" width="4" height="4"/>
	<rect x="312" y="272" class="st13" width="4" height="4"/>
	<rect x="268" y="276" class="st13" width="4" height="4"/>
	<polygon class="st13" points="304,276 304,280 308,280 312,280 312,276 308,276 	"/>
	<polygon class="st13" points="232,280 228,280 228,284 224,284 220,284 216,284 212,284 208,284 208,288 204,288 200,288 196,288 
		192,288 188,288 184,288 184,292 180,292 176,292 172,292 168,292 168,296 172,296 176,296 176,300 180,300 184,300 188,300 
		188,296 192,296 192,292 196,292 196,296 192,296 192,300 196,300 200,300 200,296 204,296 208,296 212,296 212,292 216,292 
		220,292 220,288 224,288 228,288 232,288 232,292 236,292 236,288 236,284 232,284 	"/>
	<polygon class="st13" points="260,284 260,280 256,280 252,280 248,280 244,280 240,280 240,284 244,284 248,284 252,284 256,284 	
		"/>
	<rect x="292" y="284" class="st13" width="4" height="4"/>
	<rect x="288" y="288" class="st13" width="4" height="4"/>
	<rect x="280" y="296" class="st13" width="4" height="4"/>
	<rect x="24" y="300" class="st13" width="4" height="4"/>
	<rect x="112" y="300" class="st13" width="4" height="4"/>
	<polygon class="st13" points="168,300 168,304 172,304 176,304 176,300 172,300 	"/>
	<rect x="188" y="300" class="st13" width="4" height="4"/>
	<path class="st13" d="M160,304v-4h4h4v-4h-4h-4h-4h-4h-4h-4h-4v-4h-4v-4h-4v4h-4v4h4v4h-4v-4h-4h-4h-4v4h4v4h-4v4h-4h-4v4h-4v-4h-4
		v4v4v4h4v-4h4v4h4v-4h4v-4h4v-4h4v4h-4v4h-4v4h4h4v-4h4v4v4h4v-4v-4h4v4h4v-4h4h4v-4h4h4h4v-4h4h4v-4h-4H160z M128,304h4v4h-4V304z
		 M140,312v-4h4v4H140z"/>
	<rect x="92" y="312" class="st13" width="4" height="4"/>
	<rect x="16" y="316" class="st13" width="4" height="4"/>
	<polygon class="st13" points="268,316 268,320 272,320 276,320 276,316 272,316 	"/>
	<rect x="96" y="320" class="st13" width="4" height="4"/>
	<rect x="104" y="320" class="st13" width="4" height="4"/>
	<rect x="112" y="320" class="st13" width="4" height="4"/>
	<rect x="264" y="320" class="st13" width="4" height="4"/>
	<polygon class="st13" points="84,324 84,328 88,328 92,328 92,324 88,324 	"/>
	<rect x="108" y="324" class="st13" width="4" height="4"/>
	<rect x="120" y="324" class="st13" width="4" height="4"/>
	<polygon class="st13" points="256,324 256,328 260,328 264,328 264,324 260,324 	"/>
	<rect x="12" y="328" class="st13" width="4" height="4"/>
	<rect x="96" y="328" class="st13" width="4" height="4"/>
	<rect x="104" y="328" class="st13" width="4" height="4"/>
	<rect x="8" y="332" class="st13" width="4" height="4"/>
	<rect x="4" y="336" class="st13" width="4" height="4"/>
	<rect y="340" class="st13" width="4" height="4"/>
</g>
<rect x="228" y="340" class="st12" width="4" height="4"/>
<rect x="232" y="340" class="st12" width="4" height="4"/>
</svg>
