<?xml version="1.0" encoding="utf-8"?>
<!-- Generator: Adobe Illustrator 24.2.0, SVG Export Plug-In . SVG Version: 6.00 Build 0)  -->
<svg version="1.1" id="圖層_1" shape-rendering="crispEdges"
	 xmlns="http://www.w3.org/2000/svg" xmlns:xlink="http://www.w3.org/1999/xlink" x="0px" y="0px" viewBox="0 0 55.6 56"
	 style="enable-background:new 0 0 55.6 56;" xml:space="preserve">
<style type="text/css">
	.st0{fill:#035E55;}
	.st1{fill:#009A6C;}
	.st2{fill:#05FFB5;}
	.st3{fill:#17CE98;}
	.st4{opacity:0.1176;fill:#011E1B;enable-background:new    ;}
</style>
<g>
	<polygon class="st0" points="-0.4,24 -0.4,28 -0.4,32 -0.4,36 3.6,36 3.6,32 3.6,28 3.6,24 3.6,20 -0.4,20 	"/>
</g>
<g>
	<rect x="31.6" class="st1" width="4" height="4"/>
	<rect x="27.6" y="4" class="st1" width="4" height="4"/>
	<rect x="23.6" y="8" class="st1" width="4" height="4"/>
	<polygon class="st1" points="7.6,16 7.6,12 3.6,12 -0.4,12 -0.4,16 -0.4,20 3.6,20 3.6,16 	"/>
	<rect x="19.6" y="12" class="st1" width="4" height="4"/>
	<rect x="7.6" y="16" class="st1" width="4" height="4"/>
	<polygon class="st1" points="3.6,24 3.6,28 3.6,32 3.6,36 7.6,36 7.6,32 7.6,28 7.6,24 7.6,20 3.6,20 	"/>
	<polygon class="st1" points="-0.4,40 -0.4,44 3.6,44 3.6,40 3.6,36 -0.4,36 	"/>
</g>
<g>
	<polygon class="st2" points="15.6,4 11.6,4 11.6,0 7.6,0 3.6,0 -0.4,0 -0.4,4 -0.4,8 3.6,8 7.6,8 7.6,12 11.6,12 15.6,12 15.6,16 
		15.6,20 15.6,24 19.6,24 19.6,20 19.6,16 19.6,12 19.6,8 15.6,8 	"/>
	<rect x="3.6" y="16" class="st2" width="4" height="4"/>
	<rect x="7.6" y="20" class="st2" width="4" height="4"/>
	<polygon class="st2" points="11.6,28 11.6,32 11.6,36 15.6,36 15.6,32 15.6,28 15.6,24 11.6,24 	"/>
	<rect x="7.6" y="40" class="st2" width="4" height="4"/>
	<rect x="3.6" y="48" class="st2" width="4" height="4"/>
	<rect x="-0.4" y="52" class="st2" width="4" height="4"/>
</g>
<g>
	<rect x="11.6" class="st3" width="4" height="4"/>
	<rect x="23.6" class="st3" width="4" height="4"/>
	<rect x="19.6" y="4" class="st3" width="4" height="4"/>
	<polygon class="st3" points="3.6,8 -0.4,8 -0.4,12 3.6,12 7.6,12 7.6,8 	"/>
	<polygon class="st3" points="15.6,20 15.6,16 15.6,12 11.6,12 7.6,12 7.6,16 11.6,16 11.6,20 11.6,24 15.6,24 	"/>
	<polygon class="st3" points="7.6,28 7.6,32 7.6,36 3.6,36 3.6,40 3.6,44 -0.4,44 -0.4,48 -0.4,52 3.6,52 3.6,48 7.6,48 7.6,44 
		7.6,40 11.6,40 11.6,36 11.6,32 11.6,28 11.6,24 7.6,24 	"/>
	<rect x="15.6" y="28" class="st3" width="4" height="4"/>
	<polygon class="st3" points="19.6,32 19.6,36 23.6,36 27.6,36 27.6,32 23.6,32 	"/>
</g>
<g>
	<polygon class="st4" points="23.6,4 23.6,0 19.6,0 15.6,0 15.6,4 15.6,8 19.6,8 19.6,4 	"/>
	<rect x="27.6" class="st4" width="4" height="4"/>
	<polygon class="st4" points="47.6,0 43.6,0 39.6,0 35.6,0 35.6,4 31.6,4 31.6,8 27.6,8 27.6,12 23.6,12 23.6,16 19.6,16 19.6,20 
		19.6,24 15.6,24 15.6,28 19.6,28 19.6,32 23.6,32 27.6,32 27.6,36 23.6,36 19.6,36 19.6,32 15.6,32 15.6,36 11.6,36 11.6,40 
		11.6,44 7.6,44 7.6,48 7.6,52 3.6,52 3.6,56 7.6,56 11.6,56 15.6,56 19.6,56 23.6,56 27.6,56 31.6,56 35.6,56 39.6,56 43.6,56 
		47.6,56 51.6,56 55.6,56 55.6,52 55.6,48 55.6,44 55.6,40 55.6,36 55.6,32 55.6,28 55.6,24 55.6,20 55.6,16 55.6,12 55.6,8 55.6,4 
		55.6,0 51.6,0 	"/>
	<rect x="23.6" y="4" class="st4" width="4" height="4"/>
	<rect x="19.6" y="8" class="st4" width="4" height="4"/>
</g>
</svg>
