<?xml version="1.0" encoding="utf-8"?>
<!-- Generator: Adobe Illustrator 24.2.0, SVG Export Plug-In . SVG Version: 6.00 Build 0)  -->
<svg version="1.1" id="圖層_1" shape-rendering="crispEdges"
	 xmlns="http://www.w3.org/2000/svg" xmlns:xlink="http://www.w3.org/1999/xlink" x="0px" y="0px" viewBox="0 0 56 56"
	 style="enable-background:new 0 0 56 56;" xml:space="preserve">
<style type="text/css">
	.st0{fill:#035E55;}
	.st1{fill:#009A6C;}
	.st2{fill:#05FFB5;}
	.st3{fill:#17CE98;}
	.st4{opacity:0.1176;fill:#011E1B;enable-background:new    ;}
</style>
<g>
	<rect x="-112" y="-188" class="st0" width="4" height="4"/>
	<polygon class="st0" points="-80,-180 -84,-180 -88,-180 -92,-180 -96,-180 -100,-180 -100,-176 -96,-176 -92,-176 -88,-176 
		-84,-176 -80,-176 -76,-176 -72,-176 -72,-180 -76,-180 	"/>
	<rect x="-208" y="-88" class="st0" width="4" height="4"/>
	<polygon class="st0" points="-208,-68 -204,-68 -204,-64 -200,-64 -196,-64 -196,-68 -196,-72 -200,-72 -200,-76 -204,-76 
		-204,-80 -208,-80 -212,-80 -212,-76 -208,-76 -208,-72 	"/>
	<polygon class="st0" points="-200,-60 -204,-60 -204,-56 -200,-56 -200,-52 -200,-48 -196,-48 -196,-44 -192,-44 -192,-48 
		-192,-52 -192,-56 -192,-60 -196,-60 	"/>
	<polygon class="st0" points="-300,-36 -300,-32 -300,-28 -300,-24 -296,-24 -296,-28 -296,-32 -296,-36 -296,-40 -300,-40 	"/>
	<polygon class="st0" points="-308,-24 -308,-20 -304,-20 -304,-24 -304,-28 -308,-28 	"/>
	<polygon class="st0" points="-312,-16 -312,-12 -316,-12 -316,-8 -312,-8 -308,-8 -308,-12 -304,-12 -304,-16 -308,-16 	"/>
	<polygon class="st0" points="-8,-8 -12,-8 -16,-8 -16,-4 -12,-4 -8,-4 	"/>
	<rect x="-8" class="st0" width="4" height="4"/>
	<polygon class="st0" points="12,4 8,4 8,0 4,0 0,0 0,4 0,8 0,12 4,12 4,8 8,8 12,8 16,8 16,4 	"/>
	<polygon class="st0" points="8,16 12,16 12,12 8,12 4,12 4,16 	"/>
</g>
<g>
	<rect x="-248" y="-196" class="st1" width="4" height="4"/>
	<polygon class="st1" points="-12,-196 -16,-196 -20,-196 -24,-196 -28,-196 -32,-196 -32,-192 -28,-192 -24,-192 -20,-192 
		-16,-192 -12,-192 -8,-192 -4,-192 -4,-196 -8,-196 	"/>
	<polygon class="st1" points="8,-192 8,-196 4,-196 0,-196 0,-192 4,-192 	"/>
	<polygon class="st1" points="-252,-188 -252,-184 -248,-184 -248,-188 -248,-192 -252,-192 	"/>
	<polygon class="st1" points="-108,-188 -108,-184 -104,-184 -100,-184 -100,-188 -104,-188 -104,-192 -108,-192 -112,-192 
		-116,-192 -116,-188 -112,-188 	"/>
	<rect x="-36" y="-192" class="st1" width="4" height="4"/>
	<polygon class="st1" points="-108,-180 -108,-176 -104,-176 -100,-176 -100,-180 -104,-180 	"/>
	<rect x="-72" y="-180" class="st1" width="4" height="4"/>
	<polygon class="st1" points="-252,-176 -252,-180 -256,-180 -256,-176 -256,-172 -252,-172 	"/>
	<polygon class="st1" points="-72,-172 -72,-176 -76,-176 -80,-176 -84,-176 -88,-176 -92,-176 -96,-176 -96,-172 -92,-172 
		-88,-172 -84,-172 -80,-172 -76,-172 	"/>
	<rect x="-8" y="-164" class="st1" width="4" height="4"/>
	<polygon class="st1" points="-308,-160 -308,-164 -308,-168 -308,-172 -308,-176 -308,-180 -312,-180 -312,-176 -312,-172 
		-312,-168 -312,-164 -312,-160 -312,-156 -312,-152 -308,-152 -308,-156 	"/>
	<rect x="-16" y="-160" class="st1" width="4" height="4"/>
	<rect y="-160" class="st1" width="4" height="4"/>
	<rect x="4" y="-156" class="st1" width="4" height="4"/>
	<polygon class="st1" points="-308,-148 -308,-144 -304,-144 -304,-148 -304,-152 -308,-152 	"/>
	<polygon class="st1" points="-12,-148 -12,-144 -12,-140 -12,-136 -12,-132 -12,-128 -8,-128 -8,-132 -8,-136 -8,-140 -8,-144 
		-8,-148 -8,-152 -8,-156 -12,-156 -12,-152 	"/>
	<rect x="8" y="-152" class="st1" width="4" height="4"/>
	<rect x="-252" y="-148" class="st1" width="4" height="4"/>
	<rect x="-256" y="-144" class="st1" width="4" height="4"/>
	<rect x="-260" y="-140" class="st1" width="4" height="4"/>
	<polygon class="st1" points="-264,-128 -264,-132 -268,-132 -268,-128 -268,-124 -264,-124 	"/>
	<rect x="-56" y="-128" class="st1" width="4" height="4"/>
	<polygon class="st1" points="-272,-116 -272,-120 -276,-120 -276,-116 -276,-112 -272,-112 	"/>
	<polygon class="st1" points="-276,-108 -276,-112 -280,-112 -280,-108 -280,-104 -276,-104 	"/>
	<polygon class="st1" points="-264,-108 -264,-112 -268,-112 -268,-108 -268,-104 -264,-104 	"/>
	<polygon class="st1" points="-52,-96 -52,-100 -52,-104 -52,-108 -52,-112 -52,-116 -52,-120 -56,-120 -56,-116 -56,-112 -56,-108 
		-56,-104 -56,-100 -56,-96 -56,-92 -52,-92 	"/>
	<polygon class="st1" points="-52,-84 -48,-84 -48,-88 -48,-92 -52,-92 -52,-88 	"/>
	<polygon class="st1" points="-204,-80 -204,-76 -200,-76 -200,-72 -196,-72 -196,-76 -196,-80 -196,-84 -200,-84 -200,-88 
		-204,-88 -204,-84 -208,-84 -208,-88 -212,-88 -212,-84 -212,-80 -208,-80 	"/>
	<polygon class="st1" points="-264,-80 -264,-84 -268,-84 -268,-80 -268,-76 -264,-76 	"/>
	<polygon class="st1" points="-212,-80 -216,-80 -216,-76 -216,-72 -212,-72 -212,-76 	"/>
	<polygon class="st1" points="-272,-72 -272,-68 -272,-64 -268,-64 -268,-68 -268,-72 -268,-76 -272,-76 	"/>
	<polygon class="st1" points="-264,-68 -264,-64 -260,-64 -260,-68 -260,-72 -264,-72 	"/>
	<rect x="-212" y="-72" class="st1" width="4" height="4"/>
	<polygon class="st1" points="-72,-72 -76,-72 -76,-68 -72,-68 -68,-68 -68,-72 	"/>
	<rect x="-208" y="-68" class="st1" width="4" height="4"/>
	<polygon class="st1" points="-196,-64 -192,-64 -192,-68 -192,-72 -196,-72 -196,-68 	"/>
	<rect x="-68" y="-68" class="st1" width="4" height="4"/>
	<rect x="-268" y="-60" class="st1" width="4" height="4"/>
	<rect x="-272" y="-56" class="st1" width="4" height="4"/>
	<polygon class="st1" points="-200,-56 -204,-56 -204,-52 -204,-48 -200,-48 -200,-52 	"/>
	<polygon class="st1" points="-56,-56 -56,-60 -60,-60 -60,-56 -60,-52 -56,-52 	"/>
	<rect x="-276" y="-52" class="st1" width="4" height="4"/>
	<polygon class="st1" points="-292,-44 -292,-48 -296,-48 -300,-48 -300,-44 -300,-40 -296,-40 -296,-44 	"/>
	<rect x="-280" y="-48" class="st1" width="4" height="4"/>
	<rect x="-292" y="-44" class="st1" width="4" height="4"/>
	<polygon class="st1" points="-296,-36 -296,-32 -296,-28 -296,-24 -292,-24 -292,-28 -292,-32 -292,-36 -292,-40 -296,-40 	"/>
	<polygon class="st1" points="-192,-36 -192,-40 -188,-40 -188,-44 -188,-48 -188,-52 -188,-56 -188,-60 -192,-60 -192,-56 
		-192,-52 -192,-48 -192,-44 -196,-44 -196,-48 -200,-48 -200,-44 -200,-40 -196,-40 -196,-36 	"/>
	<polygon class="st1" points="-308,-32 -308,-28 -304,-28 -304,-32 -304,-36 -308,-36 	"/>
	<rect x="-200" y="-36" class="st1" width="4" height="4"/>
	<polygon class="st1" points="-56,-32 -60,-32 -60,-28 -56,-28 -52,-28 -52,-32 	"/>
	<rect x="-52" y="-28" class="st1" width="4" height="4"/>
	<polygon class="st1" points="-300,-20 -300,-16 -296,-16 -296,-20 -296,-24 -300,-24 	"/>
	<rect x="-192" y="-24" class="st1" width="4" height="4"/>
	<rect x="-48" y="-24" class="st1" width="4" height="4"/>
	<polygon class="st1" points="-312,-20 -312,-16 -308,-16 -304,-16 -304,-20 -308,-20 	"/>
	<rect x="-188" y="-20" class="st1" width="4" height="4"/>
	<rect x="-316" y="-16" class="st1" width="4" height="4"/>
	<rect x="-180" y="-16" class="st1" width="4" height="4"/>
	<polygon class="st1" points="-320,-8 -320,-4 -316,-4 -312,-4 -308,-4 -308,-8 -312,-8 -316,-8 -316,-12 -320,-12 	"/>
	<rect x="-308" y="-12" class="st1" width="4" height="4"/>
	<polygon class="st1" points="-176,-12 -176,-8 -172,-8 -168,-8 -168,-12 -172,-12 	"/>
	<polygon class="st1" points="-12,-12 -16,-12 -16,-16 -20,-16 -20,-12 -24,-12 -24,-8 -20,-8 -20,-4 -16,-4 -16,-8 -12,-8 -8,-8 
		-8,-12 	"/>
	<rect x="-164" y="-8" class="st1" width="4" height="4"/>
	<rect x="-8" y="-8" class="st1" width="4" height="4"/>
	<polygon class="st1" points="-152,0 -156,0 -156,4 -152,4 -148,4 -148,0 	"/>
	<rect x="-12" class="st1" width="4" height="4"/>
	<polygon class="st1" points="-192,8 -192,12 -192,16 -192,20 -188,20 -188,16 -188,12 -188,8 -188,4 -192,4 	"/>
	<polygon class="st1" points="-140,4 -144,4 -148,4 -148,8 -144,8 -140,8 -136,8 -136,4 	"/>
	<rect x="-8" y="4" class="st1" width="4" height="4"/>
	<polygon class="st1" points="-132,8 -136,8 -136,12 -132,12 -128,12 -124,12 -124,8 -128,8 	"/>
	<rect x="8" y="8" class="st1" width="4" height="4"/>
	<polygon class="st1" points="-116,12 -120,12 -120,16 -116,16 -112,16 -112,12 	"/>
	<rect y="12" class="st1" width="4" height="4"/>
	<polygon class="st1" points="-100,16 -104,16 -108,16 -112,16 -112,20 -108,20 -104,20 -100,20 -96,20 -96,16 	"/>
	<rect x="-196" y="20" class="st1" width="4" height="4"/>
	<rect x="-96" y="20" class="st1" width="4" height="4"/>
</g>
<g>
	<polygon class="st2" points="-228,-204 -232,-204 -236,-204 -240,-204 -240,-200 -236,-200 -232,-200 -228,-200 	"/>
	<polygon class="st2" points="-92,-200 -92,-204 -96,-204 -100,-204 -100,-208 -104,-208 -108,-208 -108,-204 -112,-204 -112,-208 
		-108,-208 -108,-212 -112,-212 -116,-212 -116,-208 -120,-208 -120,-204 -120,-200 -120,-196 -116,-196 -116,-200 -112,-200 
		-108,-200 -104,-200 -104,-196 -100,-196 -96,-196 -96,-200 	"/>
	<rect x="-292" y="-200" class="st2" width="4" height="4"/>
	<polygon class="st2" points="-128,-196 -128,-192 -124,-192 -124,-196 -124,-200 -128,-200 	"/>
	<rect x="-296" y="-196" class="st2" width="4" height="4"/>
	<polygon class="st2" points="-72,-196 -72,-192 -76,-192 -76,-196 -80,-196 -80,-200 -84,-200 -84,-196 -88,-196 -88,-200 
		-92,-200 -92,-196 -96,-196 -96,-192 -92,-192 -92,-188 -88,-188 -88,-192 -84,-192 -84,-188 -80,-188 -76,-188 -76,-184 -72,-184 
		-72,-188 -68,-188 -68,-184 -64,-184 -64,-188 -64,-192 -64,-196 -68,-196 	"/>
	<rect x="-300" y="-192" class="st2" width="4" height="4"/>
	<rect x="-120" y="-188" class="st2" width="4" height="4"/>
	<polygon class="st2" points="-44,-184 -40,-184 -36,-184 -36,-188 -40,-188 -44,-188 -48,-188 -52,-188 -52,-184 -48,-184 	"/>
	<rect x="-116" y="-180" class="st2" width="4" height="4"/>
	<polygon class="st2" points="-108,-172 -104,-172 -104,-176 -108,-176 -112,-176 -112,-172 	"/>
	<polygon class="st2" points="-100,-168 -96,-168 -96,-172 -100,-172 -104,-172 -104,-168 	"/>
	<polygon class="st2" points="-72,-172 -76,-172 -76,-168 -72,-168 -68,-168 -64,-168 -64,-172 -68,-172 	"/>
	<polygon class="st2" points="-32,-168 -28,-168 -24,-168 -20,-168 -16,-168 -16,-172 -20,-172 -24,-172 -28,-172 -32,-172 
		-36,-172 -40,-172 -44,-172 -48,-172 -48,-168 -44,-168 -40,-168 -36,-168 	"/>
	<polygon class="st2" points="-84,-168 -88,-168 -92,-168 -92,-164 -88,-164 -84,-164 -80,-164 -76,-164 -76,-168 -80,-168 	"/>
	<polygon class="st2" points="-12,-164 -8,-164 -8,-168 -12,-168 -16,-168 -16,-164 	"/>
	<polygon class="st2" points="-192,-152 -196,-152 -200,-152 -204,-152 -204,-148 -200,-148 -196,-148 -192,-148 -188,-148 
		-188,-152 	"/>
	<rect x="-188" y="-148" class="st2" width="4" height="4"/>
	<rect x="-180" y="-148" class="st2" width="4" height="4"/>
	<rect x="-176" y="-144" class="st2" width="4" height="4"/>
	<rect x="-48" y="-144" class="st2" width="4" height="4"/>
	<rect x="-168" y="-132" class="st2" width="4" height="4"/>
	<rect x="-24" y="-112" class="st2" width="4" height="4"/>
	<polygon class="st2" points="-204,-96 -208,-96 -212,-96 -216,-96 -220,-96 -220,-92 -224,-92 -224,-88 -228,-88 -228,-84 
		-228,-80 -228,-76 -228,-72 -224,-72 -224,-68 -220,-68 -220,-64 -216,-64 -216,-68 -216,-72 -220,-72 -220,-76 -220,-80 -220,-84 
		-220,-88 -216,-88 -216,-92 -212,-92 -208,-92 -204,-92 -200,-92 -200,-96 	"/>
	<rect x="-200" y="-92" class="st2" width="4" height="4"/>
	<rect x="-196" y="-88" class="st2" width="4" height="4"/>
	<rect x="16" y="-88" class="st2" width="4" height="4"/>
	<polygon class="st2" points="-188,-84 -192,-84 -192,-80 -192,-76 -188,-76 -188,-80 	"/>
	<polygon class="st2" points="-44,-84 -48,-84 -48,-80 -48,-76 -44,-76 -44,-80 	"/>
	<polygon class="st2" points="-112,-76 -108,-76 -104,-76 -100,-76 -96,-76 -92,-76 -88,-76 -88,-80 -92,-80 -96,-80 -100,-80 
		-104,-80 -108,-80 -112,-80 -116,-80 -120,-80 -120,-76 -116,-76 	"/>
	<rect x="12" y="-80" class="st2" width="4" height="4"/>
	<polygon class="st2" points="-188,-72 -188,-68 -188,-64 -184,-64 -184,-68 -184,-72 -184,-76 -188,-76 	"/>
	<polygon class="st2" points="-132,-76 -132,-72 -128,-72 -124,-72 -124,-76 -128,-76 	"/>
	<polygon class="st2" points="-44,-72 -44,-68 -40,-68 -40,-72 -40,-76 -44,-76 	"/>
	<rect x="-136" y="-72" class="st2" width="4" height="4"/>
	<polygon class="st2" points="-32,-60 -36,-60 -36,-56 -36,-52 -32,-52 -32,-56 	"/>
	<polygon class="st2" points="-284,-56 -288,-56 -288,-60 -292,-60 -296,-60 -300,-60 -300,-56 -300,-52 -296,-52 -292,-52 
		-292,-48 -288,-48 -284,-48 -284,-44 -284,-40 -284,-36 -280,-36 -280,-40 -280,-44 -280,-48 -280,-52 -284,-52 	"/>
	<polygon class="st2" points="-308,-48 -308,-44 -304,-44 -304,-48 -304,-52 -308,-52 	"/>
	<rect x="-32" y="-52" class="st2" width="4" height="4"/>
	<polygon class="st2" points="-88,-48 -92,-48 -96,-48 -100,-48 -104,-48 -108,-48 -112,-48 -116,-48 -120,-48 -120,-44 -116,-44 
		-112,-44 -108,-44 -104,-44 -100,-44 -96,-44 -92,-44 -88,-44 -84,-44 -84,-48 	"/>
	<polygon class="st2" points="-312,-40 -316,-40 -316,-36 -316,-32 -320,-32 -320,-28 -320,-24 -324,-24 -324,-20 -328,-20 
		-328,-16 -332,-16 -332,-12 -332,-8 -332,-4 -328,-4 -328,-8 -328,-12 -324,-12 -324,-16 -320,-16 -320,-20 -316,-20 -316,-24 
		-312,-24 -312,-28 -308,-28 -308,-32 -308,-36 -308,-40 -308,-44 -312,-44 	"/>
	<rect x="-296" y="-44" class="st2" width="4" height="4"/>
	<polygon class="st2" points="-76,-44 -80,-44 -84,-44 -84,-40 -80,-40 -76,-40 -72,-40 -72,-44 	"/>
	<rect x="-292" y="-40" class="st2" width="4" height="4"/>
	<polygon class="st2" points="-188,-36 -188,-32 -192,-32 -192,-28 -196,-28 -196,-32 -200,-32 -200,-28 -204,-28 -208,-28 
		-208,-24 -204,-24 -200,-24 -196,-24 -192,-24 -188,-24 -188,-28 -184,-28 -184,-32 -184,-36 -184,-40 -188,-40 	"/>
	<rect x="-72" y="-40" class="st2" width="4" height="4"/>
	<polygon class="st2" points="-288,-32 -288,-28 -288,-24 -284,-24 -284,-28 -284,-32 -284,-36 -288,-36 	"/>
	<polygon class="st2" points="-204,-32 -204,-36 -208,-36 -208,-40 -208,-44 -208,-48 -208,-52 -212,-52 -212,-56 -212,-60 
		-216,-60 -220,-60 -224,-60 -224,-56 -220,-56 -220,-52 -220,-48 -220,-44 -216,-44 -216,-40 -220,-40 -220,-36 -216,-36 -216,-32 
		-212,-32 -212,-28 -208,-28 -208,-32 	"/>
	<rect x="-68" y="-36" class="st2" width="4" height="4"/>
	<polygon class="st2" points="-8,-28 -12,-28 -16,-28 -16,-32 -20,-32 -24,-32 -24,-36 -24,-40 -24,-44 -24,-48 -28,-48 -28,-44 
		-28,-40 -28,-36 -28,-32 -28,-28 -28,-24 -32,-24 -32,-20 -32,-16 -32,-12 -32,-8 -28,-8 -28,-4 -24,-4 -20,-4 -20,-8 -24,-8 
		-24,-12 -24,-16 -28,-16 -28,-20 -24,-20 -24,-24 -20,-24 -16,-24 -16,-20 -12,-20 -12,-16 -8,-16 -8,-20 -4,-20 -4,-24 -8,-24 	
		"/>
	<rect x="-292" y="-20" class="st2" width="4" height="4"/>
	<rect x="-8" y="-16" class="st2" width="4" height="4"/>
	<rect y="-16" class="st2" width="4" height="4"/>
	<rect x="-296" y="-12" class="st2" width="4" height="4"/>
	<rect x="-300" y="-8" class="st2" width="4" height="4"/>
	<polygon class="st2" points="-92,-8 -92,-12 -96,-12 -96,-8 -96,-4 -92,-4 	"/>
	<polygon class="st2" points="4,-4 8,-4 12,-4 12,-8 8,-8 8,-12 4,-12 4,-8 	"/>
	<polygon class="st2" points="-312,0 -312,4 -316,4 -320,4 -320,0 -324,0 -328,0 -328,4 -324,4 -324,8 -320,8 -316,8 -312,8 -308,8 
		-308,4 -304,4 -304,0 -308,0 	"/>
	<rect x="-100" class="st2" width="4" height="4"/>
	<rect x="16" class="st2" width="4" height="4"/>
	<polygon class="st2" points="-108,4 -108,8 -104,8 -100,8 -100,4 -104,4 	"/>
	<polygon class="st2" points="20,4 20,8 20,12 16,12 16,16 12,16 8,16 8,20 4,20 0,20 0,24 4,24 8,24 12,24 16,24 16,20 20,20 
		20,16 24,16 24,12 24,8 24,4 	"/>
	<polygon class="st2" points="-116,8 -120,8 -120,12 -116,12 -112,12 -108,12 -108,8 -112,8 	"/>
	<polygon class="st2" points="-8,8 -12,8 -12,4 -16,4 -16,0 -20,0 -24,0 -24,4 -20,4 -20,8 -16,8 -16,12 -12,12 -12,16 -8,16 -8,12 
			"/>
	<rect x="4" y="8" class="st2" width="4" height="4"/>
	<rect x="12" y="8" class="st2" width="4" height="4"/>
	<polygon class="st2" points="-132,12 -136,12 -140,12 -144,12 -144,16 -140,16 -136,16 -132,16 -128,16 -124,16 -124,12 -128,12 	
		"/>
	<rect x="-8" y="16" class="st2" width="4" height="4"/>
	<polygon class="st2" points="-84,20 -88,20 -92,20 -92,24 -88,24 -84,24 -80,24 -76,24 -76,20 -80,20 	"/>
	<rect x="-72" y="20" class="st2" width="4" height="4"/>
	<rect x="-220" y="24" class="st2" width="4" height="4"/>
	<rect x="-200" y="24" class="st2" width="4" height="4"/>
	<polygon class="st2" points="-208,28 -212,28 -212,32 -208,32 -204,32 -200,32 -200,28 -204,28 	"/>
</g>
<g>
	<rect x="-100" y="-220" class="st3" width="4" height="4"/>
	<rect x="-104" y="-216" class="st3" width="4" height="4"/>
	<polygon class="st3" points="-116,-212 -116,-216 -116,-220 -120,-220 -120,-216 -120,-212 -120,-208 -116,-208 	"/>
	<rect x="-108" y="-212" class="st3" width="4" height="4"/>
	<polygon class="st3" points="-216,-204 -216,-208 -220,-208 -224,-208 -224,-204 -220,-204 	"/>
	<rect x="-140" y="-208" class="st3" width="4" height="4"/>
	<rect x="-112" y="-208" class="st3" width="4" height="4"/>
	<rect x="-288" y="-204" class="st3" width="4" height="4"/>
	<polygon class="st3" points="-132,-204 -136,-204 -136,-200 -132,-200 -128,-200 -124,-200 -124,-204 -128,-204 	"/>
	<rect x="-68" y="-204" class="st3" width="4" height="4"/>
	<rect x="-96" y="-200" class="st3" width="4" height="4"/>
	<polygon class="st3" points="-84,-200 -84,-204 -84,-208 -84,-212 -88,-212 -88,-208 -88,-204 -88,-200 -88,-196 -84,-196 	"/>
	<rect x="-72" y="-200" class="st3" width="4" height="4"/>
	<rect x="-48" y="-200" class="st3" width="4" height="4"/>
	<rect x="-76" y="-196" class="st3" width="4" height="4"/>
	<rect x="-128" y="-192" class="st3" width="4" height="4"/>
	<rect x="-60" y="-192" class="st3" width="4" height="4"/>
	<rect x="8" y="-192" class="st3" width="4" height="4"/>
	<rect x="-308" y="-188" class="st3" width="4" height="4"/>
	<rect x="-132" y="-188" class="st3" width="4" height="4"/>
	<rect x="-116" y="-188" class="st3" width="4" height="4"/>
	<polygon class="st3" points="-84,-188 -84,-192 -88,-192 -88,-188 -92,-188 -92,-192 -96,-192 -96,-196 -100,-196 -104,-196 
		-104,-200 -108,-200 -112,-200 -116,-200 -116,-196 -120,-196 -120,-192 -120,-188 -116,-188 -116,-192 -112,-192 -108,-192 
		-104,-192 -104,-188 -100,-188 -100,-184 -96,-184 -92,-184 -88,-184 -84,-184 -80,-184 -76,-184 -76,-188 -80,-188 	"/>
	<rect x="-72" y="-188" class="st3" width="4" height="4"/>
	<rect x="-112" y="-180" class="st3" width="4" height="4"/>
	<polygon class="st3" points="-68,-176 -72,-176 -72,-172 -68,-172 -64,-172 -64,-176 -64,-180 -68,-180 	"/>
	<polygon class="st3" points="-44,-176 -44,-180 -48,-180 -52,-180 -52,-176 -48,-176 	"/>
	<rect x="-128" y="-176" class="st3" width="4" height="4"/>
	<polygon class="st3" points="-100,-176 -104,-176 -104,-172 -100,-172 -96,-172 -96,-176 	"/>
	<rect x="-56" y="-176" class="st3" width="4" height="4"/>
	<polygon class="st3" points="-40,-172 -36,-172 -32,-172 -32,-176 -36,-176 -40,-176 -44,-176 -44,-172 	"/>
	<polygon class="st3" points="-260,-168 -260,-164 -260,-160 -256,-160 -256,-164 -256,-168 -256,-172 -260,-172 	"/>
	<polygon class="st3" points="-112,-168 -112,-164 -112,-160 -108,-160 -108,-164 -108,-168 -108,-172 -112,-172 	"/>
	<polygon class="st3" points="-84,-172 -88,-172 -92,-172 -96,-172 -96,-168 -92,-168 -88,-168 -84,-168 -80,-168 -76,-168 
		-76,-172 -80,-172 	"/>
	<rect x="-52" y="-172" class="st3" width="4" height="4"/>
	<rect x="-24" y="-168" class="st3" width="4" height="4"/>
	<rect x="-88" y="-164" class="st3" width="4" height="4"/>
	<rect x="-20" y="-164" class="st3" width="4" height="4"/>
	<polygon class="st3" points="-264,-156 -264,-152 -264,-148 -264,-144 -264,-140 -264,-136 -264,-132 -264,-128 -264,-124 
		-260,-124 -260,-128 -260,-132 -260,-136 -260,-140 -260,-144 -260,-148 -260,-152 -260,-156 -260,-160 -264,-160 	"/>
	<rect x="-84" y="-160" class="st3" width="4" height="4"/>
	<rect x="-68" y="-160" class="st3" width="4" height="4"/>
	<polygon class="st3" points="-232,-152 -228,-152 -224,-152 -220,-152 -216,-152 -212,-152 -208,-152 -204,-152 -204,-156 
		-208,-156 -212,-156 -216,-156 -220,-156 -224,-156 -228,-156 -232,-156 -236,-156 -240,-156 -240,-152 -236,-152 	"/>
	<rect x="-248" y="-152" class="st3" width="4" height="4"/>
	<polygon class="st3" points="16,-148 12,-148 12,-144 12,-140 16,-140 16,-144 	"/>
	<rect x="-300" y="-140" class="st3" width="4" height="4"/>
	<rect x="-172" y="-140" class="st3" width="4" height="4"/>
	<rect x="-296" y="-136" class="st3" width="4" height="4"/>
	<polygon class="st3" points="-52,-132 -52,-128 -48,-128 -48,-132 -48,-136 -52,-136 	"/>
	<polygon class="st3" points="16,-132 16,-128 16,-124 20,-124 20,-128 20,-132 20,-136 20,-140 16,-140 16,-136 	"/>
	<polygon class="st3" points="-288,-128 -284,-128 -284,-132 -288,-132 -292,-132 -292,-128 	"/>
	<rect x="-284" y="-128" class="st3" width="4" height="4"/>
	<rect x="-16" y="-128" class="st3" width="4" height="4"/>
	<polygon class="st3" points="-272,-116 -272,-112 -268,-112 -268,-116 -268,-120 -272,-120 	"/>
	<polygon class="st3" points="-264,-116 -264,-112 -264,-108 -264,-104 -264,-100 -264,-96 -264,-92 -264,-88 -264,-84 -264,-80 
		-264,-76 -264,-72 -260,-72 -260,-76 -260,-80 -260,-84 -260,-88 -260,-92 -260,-96 -260,-100 -260,-104 -260,-108 -260,-112 
		-260,-116 -260,-120 -264,-120 	"/>
	<rect x="-16" y="-120" class="st3" width="4" height="4"/>
	<polygon class="st3" points="20,-116 20,-112 20,-108 20,-104 20,-100 20,-96 20,-92 20,-88 24,-88 24,-92 24,-96 24,-100 24,-104 
		24,-108 24,-112 24,-116 24,-120 20,-120 	"/>
	<polygon class="st3" points="-204,-108 -204,-104 -204,-100 -204,-96 -200,-96 -200,-100 -200,-104 -200,-108 -200,-112 -204,-112 
			"/>
	<polygon class="st3" points="-228,-108 -232,-108 -232,-104 -228,-104 -224,-104 -224,-108 	"/>
	<rect x="-224" y="-104" class="st3" width="4" height="4"/>
	<rect x="-220" y="-100" class="st3" width="4" height="4"/>
	<polygon class="st3" points="-280,-96 -280,-100 -280,-104 -284,-104 -284,-100 -284,-96 -284,-92 -280,-92 	"/>
	<rect x="-240" y="-96" class="st3" width="4" height="4"/>
	<rect x="-236" y="-92" class="st3" width="4" height="4"/>
	<polygon class="st3" points="-204,-92 -208,-92 -212,-92 -216,-92 -216,-88 -220,-88 -220,-84 -220,-80 -220,-76 -220,-72 
		-216,-72 -216,-76 -216,-80 -212,-80 -212,-84 -212,-88 -208,-88 -204,-88 -200,-88 -200,-92 	"/>
	<rect x="-188" y="-92" class="st3" width="4" height="4"/>
	<rect x="-232" y="-88" class="st3" width="4" height="4"/>
	<rect x="-200" y="-88" class="st3" width="4" height="4"/>
	<polygon class="st3" points="-196,-76 -196,-72 -192,-72 -192,-68 -192,-64 -188,-64 -188,-68 -188,-72 -188,-76 -192,-76 
		-192,-80 -192,-84 -196,-84 -196,-80 	"/>
	<rect x="-212" y="-76" class="st3" width="4" height="4"/>
	<polygon class="st3" points="-84,-76 -88,-76 -88,-72 -84,-72 -80,-72 -76,-72 -76,-76 -80,-76 	"/>
	<rect x="-240" y="-72" class="st3" width="4" height="4"/>
	<polygon class="st3" points="-172,-72 -172,-68 -168,-68 -164,-68 -164,-72 -168,-72 	"/>
	<rect x="-300" y="-68" class="st3" width="4" height="4"/>
	<polygon class="st3" points="-284,-68 -284,-72 -284,-76 -284,-80 -284,-84 -284,-88 -284,-92 -288,-92 -288,-88 -288,-84 
		-288,-80 -288,-76 -288,-72 -288,-68 -288,-64 -284,-64 	"/>
	<polygon class="st3" points="-232,-64 -228,-64 -224,-64 -220,-64 -220,-68 -224,-68 -228,-68 -232,-68 -236,-68 -236,-64 	"/>
	<polygon class="st3" points="-216,-64 -212,-64 -208,-64 -208,-68 -212,-68 -212,-72 -216,-72 -216,-68 	"/>
	<rect x="-176" y="-68" class="st3" width="4" height="4"/>
	<rect x="-40" y="-68" class="st3" width="4" height="4"/>
	<rect x="-288" y="-60" class="st3" width="4" height="4"/>
	<rect x="-276" y="-60" class="st3" width="4" height="4"/>
	<polygon class="st3" points="-188,-56 -188,-52 -188,-48 -188,-44 -188,-40 -184,-40 -184,-44 -184,-48 -184,-52 -184,-56 
		-184,-60 -188,-60 	"/>
	<polygon class="st3" points="-312,-56 -316,-56 -316,-52 -316,-48 -312,-48 -312,-52 	"/>
	<rect x="-280" y="-56" class="st3" width="4" height="4"/>
	<polygon class="st3" points="-296,-52 -300,-52 -300,-48 -296,-48 -292,-48 -292,-52 	"/>
	<polygon class="st3" points="-228,-52 -232,-52 -232,-48 -228,-48 -224,-48 -220,-48 -220,-52 -224,-52 	"/>
	<polygon class="st3" points="-176,-52 -180,-52 -180,-48 -176,-48 -172,-48 -172,-52 	"/>
	<rect x="-56" y="-52" class="st3" width="4" height="4"/>
	<rect x="-312" y="-48" class="st3" width="4" height="4"/>
	<rect x="-172" y="-48" class="st3" width="4" height="4"/>
	<polygon class="st3" points="-48,-48 -52,-48 -52,-44 -52,-40 -48,-40 -48,-44 	"/>
	<polygon class="st3" points="-308,-40 -308,-36 -304,-36 -304,-40 -304,-44 -308,-44 	"/>
	<rect x="-220" y="-44" class="st3" width="4" height="4"/>
	<rect x="-168" y="-44" class="st3" width="4" height="4"/>
	<polygon class="st3" points="-132,-44 -132,-40 -128,-40 -124,-40 -124,-44 -128,-44 	"/>
	<polygon class="st3" points="-284,-40 -284,-44 -284,-48 -288,-48 -292,-48 -292,-44 -288,-44 -288,-40 -288,-36 -284,-36 	"/>
	<polygon class="st3" points="-228,-40 -228,-36 -224,-36 -220,-36 -220,-40 -224,-40 	"/>
	<polygon class="st3" points="-200,-40 -200,-44 -200,-48 -204,-48 -204,-52 -204,-56 -204,-60 -208,-60 -212,-60 -212,-56 
		-212,-52 -208,-52 -208,-48 -208,-44 -208,-40 -208,-36 -204,-36 -204,-32 -208,-32 -208,-28 -204,-28 -200,-28 -200,-32 -200,-36 
		-196,-36 -196,-40 	"/>
	<polygon class="st3" points="-192,-36 -196,-36 -196,-32 -196,-28 -192,-28 -192,-32 -188,-32 -188,-36 -188,-40 -192,-40 	"/>
	<rect x="-136" y="-40" class="st3" width="4" height="4"/>
	<rect x="-48" y="-40" class="st3" width="4" height="4"/>
	<rect x="-328" y="-36" class="st3" width="4" height="4"/>
	<polygon class="st3" points="-292,-32 -292,-28 -292,-24 -296,-24 -296,-20 -296,-16 -300,-16 -300,-12 -300,-8 -296,-8 -296,-12 
		-292,-12 -292,-16 -292,-20 -288,-20 -288,-24 -288,-28 -288,-32 -288,-36 -292,-36 	"/>
	<rect x="-232" y="-36" class="st3" width="4" height="4"/>
	<rect x="-44" y="-36" class="st3" width="4" height="4"/>
	<rect x="-284" y="-32" class="st3" width="4" height="4"/>
	<polygon class="st3" points="-176,-32 -180,-32 -180,-28 -180,-24 -176,-24 -176,-28 	"/>
	<rect x="-40" y="-32" class="st3" width="4" height="4"/>
	<rect x="8" y="-32" class="st3" width="4" height="4"/>
	<polygon class="st3" points="-280,-28 -280,-24 -276,-24 -272,-24 -272,-28 -276,-28 	"/>
	<rect x="-212" y="-28" class="st3" width="4" height="4"/>
	<rect x="-36" y="-28" class="st3" width="4" height="4"/>
	<rect x="-8" y="-28" class="st3" width="4" height="4"/>
	<polygon class="st3" points="-328,-20 -324,-20 -324,-24 -328,-24 -332,-24 -336,-24 -336,-20 -332,-20 	"/>
	<polygon class="st3" points="-308,-24 -308,-28 -312,-28 -312,-24 -316,-24 -316,-20 -320,-20 -320,-16 -324,-16 -324,-12 
		-328,-12 -328,-8 -328,-4 -324,-4 -320,-4 -320,-8 -320,-12 -316,-12 -316,-16 -312,-16 -312,-20 -308,-20 	"/>
	<rect x="-216" y="-24" class="st3" width="4" height="4"/>
	<rect x="-200" y="-24" class="st3" width="4" height="4"/>
	<polygon class="st3" points="-172,-24 -176,-24 -176,-20 -176,-16 -172,-16 -172,-20 	"/>
	<polygon class="st3" points="-192,-20 -196,-20 -196,-16 -196,-12 -192,-12 -192,-16 	"/>
	<rect x="-44" y="-20" class="st3" width="4" height="4"/>
	<polygon class="st3" points="-12,-20 -16,-20 -16,-24 -20,-24 -24,-24 -24,-20 -28,-20 -28,-16 -24,-16 -24,-12 -20,-12 -20,-16 
		-16,-16 -16,-12 -12,-12 -8,-12 -8,-16 -12,-16 	"/>
	<rect x="-8" y="-20" class="st3" width="4" height="4"/>
	<polygon class="st3" points="16,-20 16,-16 20,-16 24,-16 24,-20 20,-20 	"/>
	<rect x="-172" y="-16" class="st3" width="4" height="4"/>
	<rect x="-40" y="-16" class="st3" width="4" height="4"/>
	<polygon class="st3" points="8,-16 4,-16 4,-12 8,-12 12,-12 16,-12 16,-16 12,-16 	"/>
	<polygon class="st3" points="-192,-8 -192,-4 -188,-4 -188,-8 -188,-12 -192,-12 	"/>
	<polygon class="st3" points="-168,-8 -168,-4 -164,-4 -164,-8 -164,-12 -168,-12 	"/>
	<rect x="-36" y="-12" class="st3" width="4" height="4"/>
	<rect x="-8" y="-12" class="st3" width="4" height="4"/>
	<polygon class="st3" points="0,-8 0,-4 4,-4 4,-8 4,-12 0,-12 	"/>
	<rect x="-340" y="-8" class="st3" width="4" height="4"/>
	<rect x="-308" y="-8" class="st3" width="4" height="4"/>
	<rect x="-32" y="-8" class="st3" width="4" height="4"/>
	<polygon class="st3" points="-320,0 -320,4 -316,4 -312,4 -312,0 -316,0 	"/>
	<polygon class="st3" points="-292,4 -292,8 -288,8 -288,4 -288,0 -292,0 	"/>
	<rect x="-192" class="st3" width="4" height="4"/>
	<rect x="-160" class="st3" width="4" height="4"/>
	<rect x="-16" class="st3" width="4" height="4"/>
	<polygon class="st3" points="12,0 8,0 8,4 12,4 16,4 16,0 	"/>
	<rect x="32" class="st3" width="4" height="4"/>
	<rect x="-156" y="4" class="st3" width="4" height="4"/>
	<rect x="-28" y="4" class="st3" width="4" height="4"/>
	<rect x="-12" y="4" class="st3" width="4" height="4"/>
	<rect x="-332" y="8" class="st3" width="4" height="4"/>
	<polygon class="st3" points="-316,12 -316,16 -312,16 -312,12 -312,8 -316,8 	"/>
	<polygon class="st3" points="-152,8 -152,12 -148,12 -144,12 -144,8 -148,8 	"/>
	<rect x="-32" y="8" class="st3" width="4" height="4"/>
	<polygon class="st3" points="-8,12 -8,16 -4,16 -4,12 -4,8 -8,8 	"/>
	<polygon class="st3" points="16,12 20,12 20,8 20,4 16,4 16,8 	"/>
	<rect x="12" y="12" class="st3" width="4" height="4"/>
	<rect x="-16" y="16" class="st3" width="4" height="4"/>
	<polygon class="st3" points="0,16 0,20 4,20 8,20 8,16 4,16 	"/>
	<rect x="-20" y="20" class="st3" width="4" height="4"/>
	<rect x="16" y="20" class="st3" width="4" height="4"/>
	<polygon class="st3" points="-24,28 -24,32 -20,32 -20,28 -20,24 -24,24 	"/>
	<polygon class="st3" points="0,28 0,32 0,36 4,36 4,32 4,28 4,24 0,24 	"/>
	<rect x="20" y="24" class="st3" width="4" height="4"/>
</g>
<g>
	<polygon class="st4" points="-312,-240 -316,-240 -320,-240 -324,-240 -328,-240 -332,-240 -336,-240 -340,-240 -344,-240 
		-348,-240 -352,-240 -356,-240 -360,-240 -360,-236 -360,-232 -360,-228 -360,-224 -360,-220 -360,-216 -360,-212 -360,-208 
		-360,-204 -360,-200 -360,-196 -360,-192 -360,-188 -360,-184 -356,-184 -352,-184 -348,-184 -344,-184 -340,-184 -336,-184 
		-332,-184 -328,-184 -324,-184 -320,-184 -316,-184 -312,-184 -308,-184 -308,-188 -304,-188 -304,-192 -304,-196 -304,-200 
		-304,-204 -304,-208 -304,-212 -304,-216 -304,-220 -304,-224 -304,-228 -304,-232 -304,-236 -304,-240 -308,-240 	"/>
	<polygon class="st4" points="-252,-240 -256,-240 -260,-240 -264,-240 -268,-240 -272,-240 -276,-240 -280,-240 -284,-240 
		-288,-240 -292,-240 -296,-240 -300,-240 -300,-236 -300,-232 -300,-228 -300,-224 -300,-220 -300,-216 -300,-212 -300,-208 
		-300,-204 -300,-200 -300,-196 -300,-192 -296,-192 -296,-196 -292,-196 -292,-200 -288,-200 -288,-204 -284,-204 -284,-200 
		-288,-200 -288,-196 -292,-196 -292,-192 -296,-192 -296,-188 -300,-188 -300,-184 -296,-184 -292,-184 -288,-184 -284,-184 
		-280,-184 -276,-184 -272,-184 -268,-184 -264,-184 -260,-184 -256,-184 -252,-184 -252,-188 -252,-192 -248,-192 -248,-196 
		-244,-196 -244,-200 -244,-204 -244,-208 -244,-212 -244,-216 -244,-220 -244,-224 -244,-228 -244,-232 -244,-236 -244,-240 
		-248,-240 	"/>
	<path class="st4" d="M-192-240h-4h-4h-4h-4h-4h-4h-4h-4h-4h-4h-4h-4v4v4v4v4v4v4v4v4v4h4h4h4v4h-4h-4h-4v4v4v4v4h4h4h4h4h4h4h4h4h4
		h4h4h4h4h4v-4v-4v-4v-4v-4v-4v-4v-4v-4v-4v-4v-4v-4v-4h-4H-192z M-224-208h4h4v4h-4h-4V-208z"/>
	<polygon class="st4" points="-132,-240 -136,-240 -140,-240 -144,-240 -148,-240 -152,-240 -156,-240 -160,-240 -164,-240 
		-168,-240 -172,-240 -176,-240 -180,-240 -180,-236 -180,-232 -180,-228 -180,-224 -180,-220 -180,-216 -180,-212 -180,-208 
		-180,-204 -180,-200 -180,-196 -180,-192 -180,-188 -180,-184 -176,-184 -172,-184 -168,-184 -164,-184 -160,-184 -156,-184 
		-152,-184 -148,-184 -144,-184 -140,-184 -136,-184 -132,-184 -132,-188 -128,-188 -128,-192 -128,-196 -128,-200 -132,-200 
		-136,-200 -136,-204 -140,-204 -140,-208 -136,-208 -136,-204 -132,-204 -128,-204 -124,-204 -124,-208 -124,-212 -124,-216 
		-124,-220 -124,-224 -124,-228 -124,-232 -124,-236 -124,-240 -128,-240 	"/>
	<polygon class="st4" points="-72,-240 -76,-240 -80,-240 -84,-240 -88,-240 -92,-240 -96,-240 -100,-240 -104,-240 -108,-240 
		-112,-240 -116,-240 -120,-240 -120,-236 -120,-232 -120,-228 -120,-224 -120,-220 -116,-220 -116,-216 -116,-212 -112,-212 
		-108,-212 -104,-212 -104,-216 -100,-216 -100,-220 -96,-220 -96,-216 -100,-216 -100,-212 -104,-212 -104,-208 -100,-208 
		-100,-204 -96,-204 -92,-204 -92,-200 -88,-200 -88,-204 -88,-208 -88,-212 -84,-212 -84,-208 -84,-204 -84,-200 -80,-200 
		-80,-196 -76,-196 -72,-196 -72,-200 -68,-200 -68,-204 -64,-204 -64,-208 -64,-212 -64,-216 -64,-220 -64,-224 -64,-228 -64,-232 
		-64,-236 -64,-240 -68,-240 	"/>
	<path class="st4" d="M-12-240h-4h-4h-4h-4h-4h-4h-4h-4h-4h-4h-4h-4v4v4v4v4v4v4v4v4v4v4v4v4h4v4h-4v4h4h4v-4h4h4h4h4v-4h4v-4h4h4h4
		h4h4h4h4v-4v-4v-4v-4v-4v-4v-4v-4v-4v-4v-4h-4H-12z M-48-200h4v4h-4V-200z"/>
	<polygon class="st4" points="52,-240 48,-240 44,-240 40,-240 36,-240 32,-240 28,-240 24,-240 20,-240 16,-240 12,-240 8,-240 
		4,-240 0,-240 0,-236 0,-232 0,-228 0,-224 0,-220 0,-216 0,-212 0,-208 0,-204 0,-200 0,-196 4,-196 8,-196 8,-192 12,-192 
		12,-188 8,-188 8,-192 4,-192 0,-192 0,-188 0,-184 4,-184 8,-184 12,-184 16,-184 20,-184 24,-184 28,-184 32,-184 36,-184 
		40,-184 44,-184 48,-184 52,-184 56,-184 56,-188 56,-192 56,-196 56,-200 56,-204 56,-208 56,-212 56,-216 56,-220 56,-224 
		56,-228 56,-232 56,-236 56,-240 	"/>
	<rect x="-68" y="-200" class="st4" width="4" height="4"/>
	<polygon class="st4" points="-248,-184 -244,-184 -244,-188 -244,-192 -248,-192 -248,-188 	"/>
	<rect x="-128" y="-188" class="st4" width="4" height="4"/>
	<polygon class="st4" points="-36,-188 -36,-184 -32,-184 -28,-184 -24,-184 -20,-184 -16,-184 -12,-184 -8,-184 -4,-184 -4,-188 
		-4,-192 -8,-192 -12,-192 -16,-192 -20,-192 -24,-192 -28,-192 -32,-192 -32,-188 	"/>
	<polygon class="st4" points="-308,-176 -308,-172 -308,-168 -308,-164 -308,-160 -308,-156 -308,-152 -304,-152 -304,-156 
		-304,-160 -304,-164 -304,-168 -304,-172 -304,-176 -304,-180 -308,-180 	"/>
	<polygon class="st4" points="-252,-180 -252,-176 -252,-172 -256,-172 -256,-168 -256,-164 -256,-160 -260,-160 -260,-156 
		-260,-152 -260,-148 -260,-144 -260,-140 -256,-140 -256,-144 -252,-144 -252,-148 -248,-148 -248,-152 -244,-152 -244,-156 
		-244,-160 -244,-164 -244,-168 -244,-172 -244,-176 -244,-180 -248,-180 	"/>
	<polygon class="st4" points="-192,-180 -196,-180 -200,-180 -204,-180 -208,-180 -212,-180 -216,-180 -220,-180 -224,-180 
		-228,-180 -232,-180 -236,-180 -240,-180 -240,-176 -240,-172 -240,-168 -240,-164 -240,-160 -240,-156 -236,-156 -232,-156 
		-228,-156 -224,-156 -220,-156 -216,-156 -212,-156 -208,-156 -204,-156 -204,-152 -200,-152 -196,-152 -192,-152 -188,-152 
		-188,-148 -184,-148 -184,-152 -184,-156 -184,-160 -184,-164 -184,-168 -184,-172 -184,-176 -184,-180 -188,-180 	"/>
	<path class="st4" d="M-132-180h-4h-4h-4h-4h-4h-4h-4h-4h-4h-4h-4h-4v4v4v4v4v4v4v4v4h4v4h4v4h4v4h-4v-4h-4v-4h-4v4v4v4v4v4h4h4h4h4
		h4h4h4h4h4h4h4h4h4h4v-4v-4v-4v-4v-4v-4v-4v-4v-4v-4v-4v-4h-4v-4h4v-4h-4H-132z M-168-128v-4h4v4H-168z"/>
	<polygon class="st4" points="-12,-180 -16,-180 -20,-180 -24,-180 -28,-180 -32,-180 -36,-180 -40,-180 -44,-180 -44,-176 
		-40,-176 -36,-176 -32,-176 -32,-172 -28,-172 -24,-172 -20,-172 -16,-172 -16,-168 -12,-168 -8,-168 -8,-164 -4,-164 -4,-168 
		-4,-172 -4,-176 -4,-180 -8,-180 	"/>
	<polygon class="st4" points="48,-180 44,-180 40,-180 36,-180 32,-180 28,-180 24,-180 20,-180 16,-180 12,-180 8,-180 4,-180 
		0,-180 0,-176 0,-172 0,-168 0,-164 0,-160 4,-160 4,-156 8,-156 8,-152 12,-152 12,-148 16,-148 16,-144 16,-140 20,-140 20,-136 
		20,-132 20,-128 20,-124 24,-124 28,-124 32,-124 36,-124 40,-124 44,-124 48,-124 52,-124 56,-124 56,-128 56,-132 56,-136 
		56,-140 56,-144 56,-148 56,-152 56,-156 56,-160 56,-164 56,-168 56,-172 56,-176 56,-180 52,-180 	"/>
	<polygon class="st4" points="-48,-172 -44,-172 -44,-176 -48,-176 -52,-176 -52,-172 	"/>
	<polygon class="st4" points="-260,-168 -260,-172 -256,-172 -256,-176 -256,-180 -260,-180 -264,-180 -268,-180 -272,-180 
		-276,-180 -280,-180 -284,-180 -288,-180 -292,-180 -296,-180 -300,-180 -300,-176 -300,-172 -300,-168 -300,-164 -300,-160 
		-300,-156 -300,-152 -300,-148 -300,-144 -300,-140 -296,-140 -296,-136 -292,-136 -292,-132 -288,-132 -284,-132 -284,-128 
		-280,-128 -280,-124 -276,-124 -272,-124 -268,-124 -268,-128 -268,-132 -264,-132 -264,-136 -264,-140 -264,-144 -264,-148 
		-264,-152 -264,-156 -264,-160 -260,-160 -260,-164 	"/>
	<polygon class="st4" points="-72,-168 -76,-168 -76,-164 -80,-164 -84,-164 -84,-160 -80,-160 -80,-156 -84,-156 -84,-160 
		-88,-160 -88,-164 -92,-164 -92,-168 -96,-168 -100,-168 -104,-168 -104,-172 -108,-172 -108,-168 -108,-164 -108,-160 -112,-160 
		-112,-164 -112,-168 -112,-172 -112,-176 -116,-176 -116,-180 -120,-180 -120,-176 -120,-172 -120,-168 -120,-164 -120,-160 
		-120,-156 -120,-152 -120,-148 -120,-144 -120,-140 -120,-136 -120,-132 -120,-128 -120,-124 -116,-124 -112,-124 -108,-124 
		-104,-124 -100,-124 -96,-124 -92,-124 -88,-124 -84,-124 -80,-124 -76,-124 -72,-124 -68,-124 -64,-124 -64,-128 -64,-132 
		-64,-136 -64,-140 -64,-144 -64,-148 -64,-152 -64,-156 -68,-156 -68,-160 -64,-160 -64,-164 -64,-168 -68,-168 	"/>
	<rect x="-20" y="-168" class="st4" width="4" height="4"/>
	<polygon class="st4" points="-16,-164 -16,-160 -12,-160 -12,-156 -8,-156 -8,-152 -8,-148 -8,-144 -8,-140 -8,-136 -8,-132 
		-8,-128 -12,-128 -12,-124 -8,-124 -4,-124 -4,-128 -4,-132 -4,-136 -4,-140 -4,-144 -4,-148 -4,-152 -4,-156 -4,-160 -8,-160 
		-8,-164 -12,-164 	"/>
	<polygon class="st4" points="-312,-156 -312,-160 -312,-164 -312,-168 -312,-172 -312,-176 -312,-180 -316,-180 -320,-180 
		-324,-180 -328,-180 -332,-180 -336,-180 -340,-180 -344,-180 -348,-180 -352,-180 -356,-180 -360,-180 -360,-176 -360,-172 
		-360,-168 -360,-164 -360,-160 -360,-156 -360,-152 -360,-148 -360,-144 -360,-140 -360,-136 -360,-132 -360,-128 -360,-124 
		-356,-124 -352,-124 -348,-124 -344,-124 -340,-124 -336,-124 -332,-124 -328,-124 -324,-124 -320,-124 -316,-124 -312,-124 
		-308,-124 -304,-124 -304,-128 -304,-132 -304,-136 -304,-140 -304,-144 -308,-144 -308,-148 -308,-152 -312,-152 	"/>
	<polygon class="st4" points="-196,-148 -200,-148 -204,-148 -204,-152 -208,-152 -212,-152 -216,-152 -220,-152 -224,-152 
		-228,-152 -232,-152 -236,-152 -240,-152 -240,-148 -240,-144 -240,-140 -240,-136 -240,-132 -240,-128 -240,-124 -236,-124 
		-232,-124 -228,-124 -224,-124 -220,-124 -216,-124 -212,-124 -208,-124 -204,-124 -200,-124 -196,-124 -192,-124 -188,-124 
		-184,-124 -184,-128 -184,-132 -184,-136 -184,-140 -184,-144 -188,-144 -188,-148 -192,-148 	"/>
	<polygon class="st4" points="-252,-144 -252,-140 -256,-140 -256,-136 -260,-136 -260,-132 -260,-128 -260,-124 -256,-124 
		-252,-124 -248,-124 -244,-124 -244,-128 -244,-132 -244,-136 -244,-140 -244,-144 -244,-148 -248,-148 -248,-144 	"/>
	<polygon class="st4" points="12,-144 12,-148 8,-148 8,-152 4,-152 4,-156 0,-156 0,-152 0,-148 0,-144 0,-140 0,-136 0,-132 
		0,-128 0,-124 4,-124 8,-124 12,-124 16,-124 16,-128 16,-132 16,-136 16,-140 12,-140 	"/>
	<path class="st4" d="M-12-136v-4v-4v-4v-4v-4h-4v-4h-4v-4h-4v-4h-4h-4h-4h-4h-4h-4h-4v-4h-4v-4h4v-4h-4h-4v4v4v4v4v4v4v4v4v4v4v4v4
		v4v4h4v-4h4v-4v-4h4v4v4h-4v4h4h4h4h4h4h4h4h4h4v-4h4v-4V-136z M-48-144h4v4h-4V-144z"/>
	<polygon class="st4" points="-292,-128 -292,-132 -296,-132 -296,-136 -300,-136 -300,-132 -300,-128 -300,-124 -296,-124 
		-292,-124 -288,-124 -284,-124 -284,-128 -288,-128 	"/>
	<polygon class="st4" points="-312,-120 -316,-120 -320,-120 -324,-120 -328,-120 -332,-120 -336,-120 -340,-120 -344,-120 
		-348,-120 -352,-120 -356,-120 -360,-120 -360,-116 -360,-112 -360,-108 -360,-104 -360,-100 -360,-96 -360,-92 -360,-88 -360,-84 
		-360,-80 -360,-76 -360,-72 -360,-68 -360,-64 -356,-64 -352,-64 -348,-64 -344,-64 -340,-64 -336,-64 -332,-64 -328,-64 -324,-64 
		-320,-64 -316,-64 -312,-64 -308,-64 -304,-64 -304,-68 -304,-72 -304,-76 -304,-80 -304,-84 -304,-88 -304,-92 -304,-96 
		-304,-100 -304,-104 -304,-108 -304,-112 -304,-116 -304,-120 -308,-120 	"/>
	<polygon class="st4" points="-252,-120 -256,-120 -260,-120 -260,-116 -260,-112 -260,-108 -260,-104 -260,-100 -260,-96 -260,-92 
		-260,-88 -260,-84 -260,-80 -260,-76 -260,-72 -260,-68 -260,-64 -256,-64 -252,-64 -248,-64 -244,-64 -244,-68 -244,-72 -244,-76 
		-244,-80 -244,-84 -244,-88 -244,-92 -244,-96 -244,-100 -244,-104 -244,-108 -244,-112 -244,-116 -244,-120 -248,-120 	"/>
	<polygon class="st4" points="-192,-120 -196,-120 -200,-120 -204,-120 -208,-120 -212,-120 -216,-120 -220,-120 -224,-120 
		-228,-120 -232,-120 -236,-120 -240,-120 -240,-116 -240,-112 -240,-108 -240,-104 -240,-100 -240,-96 -236,-96 -236,-92 -232,-92 
		-232,-88 -228,-88 -224,-88 -224,-92 -220,-92 -220,-96 -220,-100 -224,-100 -224,-104 -228,-104 -232,-104 -232,-108 -228,-108 
		-224,-108 -224,-104 -220,-104 -220,-100 -216,-100 -216,-96 -212,-96 -208,-96 -204,-96 -204,-100 -204,-104 -204,-108 -204,-112 
		-200,-112 -200,-108 -200,-104 -200,-100 -200,-96 -200,-92 -196,-92 -196,-88 -192,-88 -192,-84 -188,-84 -188,-80 -188,-76 
		-184,-76 -184,-80 -184,-84 -184,-88 -188,-88 -188,-92 -184,-92 -184,-96 -184,-100 -184,-104 -184,-108 -184,-112 -184,-116 
		-184,-120 -188,-120 	"/>
	<polygon class="st4" points="-132,-120 -136,-120 -140,-120 -144,-120 -148,-120 -152,-120 -156,-120 -160,-120 -164,-120 
		-168,-120 -172,-120 -176,-120 -180,-120 -180,-116 -180,-112 -180,-108 -180,-104 -180,-100 -180,-96 -180,-92 -180,-88 -180,-84 
		-180,-80 -180,-76 -180,-72 -180,-68 -180,-64 -176,-64 -176,-68 -172,-68 -172,-72 -168,-72 -164,-72 -164,-68 -168,-68 -172,-68 
		-172,-64 -168,-64 -164,-64 -160,-64 -156,-64 -152,-64 -148,-64 -144,-64 -140,-64 -136,-64 -132,-64 -128,-64 -124,-64 -124,-68 
		-124,-72 -128,-72 -132,-72 -132,-68 -136,-68 -136,-72 -132,-72 -132,-76 -128,-76 -124,-76 -124,-80 -124,-84 -124,-88 -124,-92 
		-124,-96 -124,-100 -124,-104 -124,-108 -124,-112 -124,-116 -124,-120 -128,-120 	"/>
	<polygon class="st4" points="-72,-120 -76,-120 -80,-120 -84,-120 -88,-120 -92,-120 -96,-120 -100,-120 -104,-120 -108,-120 
		-112,-120 -116,-120 -120,-120 -120,-116 -120,-112 -120,-108 -120,-104 -120,-100 -120,-96 -120,-92 -120,-88 -120,-84 -120,-80 
		-116,-80 -112,-80 -108,-80 -104,-80 -100,-80 -96,-80 -92,-80 -88,-80 -88,-76 -84,-76 -80,-76 -76,-76 -76,-72 -72,-72 -68,-72 
		-68,-68 -64,-68 -64,-72 -64,-76 -64,-80 -64,-84 -64,-88 -64,-92 -64,-96 -64,-100 -64,-104 -64,-108 -64,-112 -64,-116 -64,-120 
		-68,-120 	"/>
	<path class="st4" d="M-12-120v4h-4v-4h-4h-4h-4h-4h-4h-4h-4h-4h-4v4v4v4v4v4v4v4h4v4v4h4v4v4h4v4v4h4v4h4h4h4h4h4h4h4h4v-4v-4v-4
		v-4v-4v-4v-4v-4v-4v-4v-4v-4v-4v-4h-4H-12z M-20-108h-4v-4h4V-108z"/>
	<path class="st4" d="M48-120h-4h-4h-4h-4h-4h-4v4v4v4v4v4v4v4v4h-4v4h-4v-4h4v-4v-4v-4v-4v-4v-4v-4v-4h-4h-4H8H4H0v4v4v4v4v4v4v4v4
		v4v4v4v4v4v4h4h4h4h4h4h4h4h4h4h4h4h4h4h4v-4v-4v-4v-4v-4v-4v-4v-4v-4v-4v-4v-4v-4v-4h-4H48z M16-76h-4v-4h4V-76z"/>
	<polygon class="st4" points="-264,-116 -264,-120 -268,-120 -268,-116 -268,-112 -264,-112 	"/>
	<polygon class="st4" points="-276,-104 -280,-104 -280,-100 -280,-96 -280,-92 -284,-92 -284,-88 -284,-84 -284,-80 -284,-76 
		-284,-72 -284,-68 -284,-64 -280,-64 -276,-64 -272,-64 -272,-68 -272,-72 -272,-76 -268,-76 -268,-80 -268,-84 -264,-84 -264,-88 
		-264,-92 -264,-96 -264,-100 -264,-104 -268,-104 -268,-108 -268,-112 -272,-112 -276,-112 -276,-108 	"/>
	<polygon class="st4" points="-236,-92 -240,-92 -240,-88 -240,-84 -240,-80 -240,-76 -240,-72 -236,-72 -236,-68 -232,-68 
		-228,-68 -224,-68 -224,-72 -228,-72 -228,-76 -228,-80 -228,-84 -232,-84 -232,-88 -236,-88 	"/>
	<polygon class="st4" points="-268,-68 -268,-64 -264,-64 -264,-68 -264,-72 -264,-76 -268,-76 -268,-72 	"/>
	<polygon class="st4" points="-44,-72 -44,-76 -48,-76 -48,-80 -48,-84 -52,-84 -52,-88 -52,-92 -56,-92 -56,-96 -56,-100 -56,-104 
		-56,-108 -56,-112 -56,-116 -56,-120 -60,-120 -60,-116 -60,-112 -60,-108 -60,-104 -60,-100 -60,-96 -60,-92 -60,-88 -60,-84 
		-60,-80 -60,-76 -60,-72 -60,-68 -60,-64 -56,-64 -52,-64 -48,-64 -44,-64 -40,-64 -40,-68 -44,-68 	"/>
	<polygon class="st4" points="-296,-64 -292,-64 -288,-64 -288,-68 -288,-72 -288,-76 -288,-80 -288,-84 -288,-88 -288,-92 
		-284,-92 -284,-96 -284,-100 -284,-104 -280,-104 -280,-108 -280,-112 -276,-112 -276,-116 -276,-120 -280,-120 -284,-120 
		-288,-120 -292,-120 -296,-120 -300,-120 -300,-116 -300,-112 -300,-108 -300,-104 -300,-100 -300,-96 -300,-92 -300,-88 -300,-84 
		-300,-80 -300,-76 -300,-72 -300,-68 -296,-68 	"/>
	<rect x="-240" y="-68" class="st4" width="4" height="4"/>
	<polygon class="st4" points="-76,-68 -76,-72 -80,-72 -84,-72 -88,-72 -88,-76 -92,-76 -96,-76 -100,-76 -104,-76 -108,-76 
		-112,-76 -116,-76 -120,-76 -120,-72 -120,-68 -120,-64 -116,-64 -112,-64 -108,-64 -104,-64 -100,-64 -96,-64 -92,-64 -88,-64 
		-84,-64 -80,-64 -76,-64 -72,-64 -68,-64 -68,-68 -72,-68 	"/>
	<path class="st4" d="M-312-60h-4h-4h-4h-4h-4h-4h-4h-4h-4h-4h-4h-4v4v4v4v4v4v4v4v4v4v4v4v4v4v4h4h4h4h4h4v-4h4v4h4v-4v-4v-4h4v-4
		h-4h-4v-4h4h4h4h4v-4v-4h4v-4v-4h4v-4v-4h-4v-4v-4h4v4v4h4v-4h4v-4v-4h-4H-312z M-328-32v-4h4v4H-328z"/>
	<polygon class="st4" points="-276,-56 -276,-60 -280,-60 -284,-60 -284,-56 -284,-52 -280,-52 -280,-56 	"/>
	<rect x="-272" y="-60" class="st4" width="4" height="4"/>
	<polygon class="st4" points="-252,-60 -256,-60 -260,-60 -264,-60 -264,-56 -268,-56 -268,-52 -272,-52 -272,-48 -276,-48 
		-276,-44 -280,-44 -280,-40 -280,-36 -284,-36 -284,-32 -280,-32 -280,-28 -276,-28 -272,-28 -272,-24 -276,-24 -280,-24 -280,-28 
		-284,-28 -284,-24 -288,-24 -288,-20 -288,-16 -292,-16 -292,-12 -292,-8 -296,-8 -296,-4 -292,-4 -288,-4 -284,-4 -280,-4 
		-276,-4 -272,-4 -268,-4 -264,-4 -260,-4 -256,-4 -252,-4 -248,-4 -244,-4 -244,-8 -244,-12 -244,-16 -244,-20 -244,-24 -244,-28 
		-244,-32 -244,-36 -244,-40 -244,-44 -244,-48 -244,-52 -244,-56 -244,-60 -248,-60 	"/>
	<polygon class="st4" points="-132,-60 -136,-60 -140,-60 -144,-60 -148,-60 -152,-60 -156,-60 -160,-60 -164,-60 -168,-60 
		-172,-60 -176,-60 -180,-60 -180,-56 -180,-52 -176,-52 -172,-52 -172,-48 -168,-48 -168,-44 -164,-44 -164,-40 -168,-40 -168,-44 
		-172,-44 -172,-48 -176,-48 -180,-48 -180,-44 -180,-40 -180,-36 -180,-32 -176,-32 -176,-28 -176,-24 -172,-24 -172,-20 -172,-16 
		-168,-16 -168,-12 -164,-12 -164,-8 -160,-8 -160,-4 -156,-4 -152,-4 -148,-4 -144,-4 -140,-4 -136,-4 -132,-4 -128,-4 -124,-4 
		-124,-8 -124,-12 -124,-16 -124,-20 -124,-24 -124,-28 -124,-32 -124,-36 -124,-40 -128,-40 -132,-40 -132,-36 -136,-36 -136,-40 
		-132,-40 -132,-44 -128,-44 -124,-44 -124,-48 -124,-52 -124,-56 -124,-60 -128,-60 	"/>
	<polygon class="st4" points="-72,-60 -76,-60 -80,-60 -84,-60 -88,-60 -92,-60 -96,-60 -100,-60 -104,-60 -108,-60 -112,-60 
		-116,-60 -120,-60 -120,-56 -120,-52 -120,-48 -116,-48 -112,-48 -108,-48 -104,-48 -100,-48 -96,-48 -92,-48 -88,-48 -84,-48 
		-84,-44 -80,-44 -76,-44 -72,-44 -72,-40 -68,-40 -68,-36 -64,-36 -64,-40 -64,-44 -64,-48 -64,-52 -64,-56 -64,-60 -68,-60 	"/>
	<polygon class="st4" points="-12,-60 -16,-60 -20,-60 -24,-60 -28,-60 -32,-60 -32,-56 -32,-52 -28,-52 -28,-48 -24,-48 -24,-44 
		-24,-40 -24,-36 -24,-32 -20,-32 -16,-32 -16,-28 -12,-28 -8,-28 -4,-28 -4,-32 -4,-36 -4,-40 -4,-44 -4,-48 -4,-52 -4,-56 -4,-60 
		-8,-60 	"/>
	<path class="st4" d="M48-60h-4h-4h-4h-4h-4h-4h-4h-4h-4H8H4H0v4v4v4v4v4v4v4v4v4v4v4h4h4h4h4v-4h4h4v4h-4h-4v4h-4H8v4h4v4h4h4h4h4
		h4h4h4h4h4h4h4v-4v-4v-4v-4v-4v-4v-4v-4v-4v-4v-4v-4v-4v-4h-4H48z M8-28v-4h4v4H8z"/>
	<rect x="-276" y="-56" class="st4" width="4" height="4"/>
	<rect x="-280" y="-52" class="st4" width="4" height="4"/>
	<polygon class="st4" points="-32,-52 -36,-52 -36,-56 -36,-60 -40,-60 -44,-60 -48,-60 -52,-60 -56,-60 -56,-56 -56,-52 -52,-52 
		-52,-48 -48,-48 -48,-44 -48,-40 -44,-40 -44,-36 -40,-36 -40,-32 -36,-32 -36,-28 -32,-28 -32,-24 -28,-24 -28,-28 -28,-32 
		-28,-36 -28,-40 -28,-44 -28,-48 -32,-48 	"/>
	<polygon class="st4" points="-72,-40 -76,-40 -80,-40 -84,-40 -84,-44 -88,-44 -92,-44 -96,-44 -100,-44 -104,-44 -108,-44 
		-112,-44 -116,-44 -120,-44 -120,-40 -120,-36 -120,-32 -120,-28 -120,-24 -120,-20 -120,-16 -120,-12 -120,-8 -120,-4 -116,-4 
		-112,-4 -108,-4 -104,-4 -100,-4 -96,-4 -96,-8 -96,-12 -92,-12 -92,-8 -92,-4 -88,-4 -84,-4 -80,-4 -76,-4 -72,-4 -68,-4 -64,-4 
		-64,-8 -64,-12 -64,-16 -64,-20 -64,-24 -64,-28 -64,-32 -68,-32 -68,-36 -72,-36 	"/>
	<polygon class="st4" points="-188,-24 -188,-20 -184,-20 -184,-24 -184,-28 -188,-28 	"/>
	<polygon class="st4" points="-36,-28 -40,-28 -40,-32 -44,-32 -44,-36 -48,-36 -48,-40 -52,-40 -52,-44 -52,-48 -56,-48 -56,-52 
		-60,-52 -60,-48 -60,-44 -60,-40 -60,-36 -60,-32 -56,-32 -52,-32 -52,-28 -48,-28 -48,-24 -44,-24 -44,-20 -40,-20 -40,-16 
		-36,-16 -36,-12 -32,-12 -32,-16 -32,-20 -32,-24 -36,-24 	"/>
	<rect x="-196" y="-24" class="st4" width="4" height="4"/>
	<polygon class="st4" points="-176,-24 -180,-24 -180,-20 -180,-16 -176,-16 -176,-20 	"/>
	<polygon class="st4" points="-192,-16 -192,-12 -188,-12 -188,-8 -188,-4 -184,-4 -184,-8 -184,-12 -184,-16 -188,-16 -188,-20 
		-192,-20 	"/>
	<polygon class="st4" points="-196,-16 -196,-20 -200,-20 -200,-24 -204,-24 -208,-24 -212,-24 -212,-20 -216,-20 -216,-24 
		-212,-24 -212,-28 -212,-32 -216,-32 -216,-36 -220,-36 -224,-36 -228,-36 -228,-32 -232,-32 -232,-36 -228,-36 -228,-40 -224,-40 
		-220,-40 -220,-44 -220,-48 -224,-48 -228,-48 -232,-48 -232,-52 -228,-52 -224,-52 -220,-52 -220,-56 -224,-56 -224,-60 -228,-60 
		-232,-60 -236,-60 -240,-60 -240,-56 -240,-52 -240,-48 -240,-44 -240,-40 -240,-36 -240,-32 -240,-28 -240,-24 -240,-20 -240,-16 
		-240,-12 -240,-8 -240,-4 -236,-4 -232,-4 -228,-4 -224,-4 -220,-4 -216,-4 -212,-4 -208,-4 -204,-4 -200,-4 -196,-4 -192,-4 
		-192,-8 -192,-12 -196,-12 	"/>
	<rect x="-176" y="-16" class="st4" width="4" height="4"/>
	<polygon class="st4" points="-40,-16 -44,-16 -44,-20 -48,-20 -48,-24 -52,-24 -52,-28 -56,-28 -60,-28 -60,-24 -60,-20 -60,-16 
		-60,-12 -60,-8 -60,-4 -56,-4 -52,-4 -48,-4 -44,-4 -40,-4 -36,-4 -32,-4 -32,-8 -36,-8 -36,-12 -40,-12 	"/>
	<polygon class="st4" points="-180,-8 -180,-4 -176,-4 -172,-4 -168,-4 -168,-8 -172,-8 -176,-8 -176,-12 -180,-12 	"/>
	<polygon class="st4" points="-252,0 -256,0 -260,0 -264,0 -268,0 -272,0 -276,0 -280,0 -284,0 -288,0 -288,4 -288,8 -292,8 -292,4 
		-292,0 -296,0 -300,0 -300,4 -300,8 -300,12 -300,16 -300,20 -300,24 -300,28 -300,32 -300,36 -300,40 -300,44 -300,48 -300,52 
		-300,56 -296,56 -292,56 -288,56 -284,56 -280,56 -276,56 -272,56 -268,56 -264,56 -260,56 -256,56 -252,56 -248,56 -244,56 
		-244,52 -244,48 -244,44 -244,40 -244,36 -244,32 -244,28 -244,24 -244,20 -244,16 -244,12 -244,8 -244,4 -244,0 -248,0 	"/>
	<path class="st4" d="M-188,4v4v4v4v4h-4v4h-4v4h-4v4h-4h-4h-4v-4h4h4h4v-4h4v-4h4v-4v-4V8V4V0h-4h-4h-4h-4h-4h-4h-4h-4h-4h-4h-4h-4
		v4v4v4v4v4v4v4v4v4v4v4v4v4v4h4h4h4h4h4h4h4h4h4h4h4h4h4h4v-4v-4v-4v-4v-4v-4v-4v-4v-4v-4v-4V8V4V0h-4V4z M-220,28v-4h4v4H-220z"/>
	<polygon class="st4" points="-132,0 -136,0 -140,0 -144,0 -148,0 -148,4 -144,4 -140,4 -136,4 -136,8 -132,8 -128,8 -124,8 -124,4 
		-124,0 -128,0 	"/>
	<polygon class="st4" points="-104,4 -100,4 -100,0 -104,0 -108,0 -112,0 -116,0 -120,0 -120,4 -120,8 -116,8 -112,8 -108,8 -108,4 
			"/>
	<path class="st4" d="M-72,0h-4h-4h-4h-4h-4h-4v4h-4v4h-4h-4v4h-4v4h4h4h4h4v4h4h4h4h4h4v4h-4h-4h-4h-4h-4v-4h-4h-4h-4h-4v-4h-4h-4
		v4v4v4v4v4v4v4v4v4v4h4h4h4h4h4h4h4h4h4h4h4h4h4h4v-4v-4v-4v-4v-4v-4v-4v-4v-4v-4v-4V8V4V0h-4H-72z M-68,24h-4v-4h4V24z"/>
	<polygon class="st4" points="48,0 44,0 40,0 36,0 36,4 32,4 32,0 28,0 24,0 20,0 20,4 24,4 24,8 24,12 24,16 20,16 20,20 20,24 
		24,24 24,28 20,28 20,24 16,24 12,24 8,24 4,24 4,28 4,32 4,36 0,36 0,40 0,44 0,48 0,52 0,56 4,56 8,56 12,56 16,56 20,56 24,56 
		28,56 32,56 36,56 40,56 44,56 48,56 52,56 56,56 56,52 56,48 56,44 56,40 56,36 56,32 56,28 56,24 56,20 56,16 56,12 56,8 56,4 
		56,0 52,0 	"/>
	<path class="st4" d="M-308,8h-4v4v4h-4v-4V8h-4h-4V4h-4V0h-4h-4h-4h-4h-4h-4h-4h-4v4v4v4v4v4v4v4v4v4v4v4v4v4v4h4h4h4h4h4h4h4h4h4
		h4h4h4h4h4v-4v-4v-4v-4v-4v-4v-4v-4v-4v-4v-4V8V4h-4V8z M-328,12h-4V8h4V12z"/>
	<rect x="-152" y="4" class="st4" width="4" height="4"/>
	<polygon class="st4" points="-144,8 -144,12 -140,12 -136,12 -136,8 -140,8 	"/>
	<polygon class="st4" points="-152,12 -152,8 -156,8 -156,4 -160,4 -160,0 -164,0 -168,0 -172,0 -176,0 -180,0 -180,4 -180,8 
		-180,12 -180,16 -180,20 -180,24 -180,28 -180,32 -180,36 -180,40 -180,44 -180,48 -180,52 -180,56 -176,56 -172,56 -168,56 
		-164,56 -160,56 -156,56 -152,56 -148,56 -144,56 -140,56 -136,56 -132,56 -128,56 -124,56 -124,52 -124,48 -124,44 -124,40 
		-124,36 -124,32 -124,28 -124,24 -124,20 -124,16 -128,16 -132,16 -136,16 -140,16 -144,16 -144,12 -148,12 	"/>
	<polygon class="st4" points="-8,16 -12,16 -12,20 -16,20 -16,24 -20,24 -20,28 -20,32 -24,32 -24,28 -24,24 -20,24 -20,20 -16,20 
		-16,16 -12,16 -12,12 -16,12 -16,8 -20,8 -20,4 -24,4 -24,8 -28,8 -28,12 -32,12 -32,8 -28,8 -28,4 -24,4 -24,0 -28,0 -32,0 -36,0 
		-40,0 -44,0 -48,0 -52,0 -56,0 -60,0 -60,4 -60,8 -60,12 -60,16 -60,20 -60,24 -60,28 -60,32 -60,36 -60,40 -60,44 -60,48 -60,52 
		-60,56 -56,56 -52,56 -48,56 -44,56 -40,56 -36,56 -32,56 -28,56 -24,56 -20,56 -16,56 -12,56 -8,56 -4,56 -4,52 -4,48 -4,44 
		-4,40 -4,36 -4,32 -4,28 -4,24 -4,20 -8,20 	"/>
</g>
</svg>
