<?xml version="1.0" encoding="utf-8"?>
<!-- Generator: Adobe Illustrator 24.2.0, SVG Export Plug-In . SVG Version: 6.00 Build 0)  -->
<svg version="1.1" id="圖層_1" shape-rendering="crispEdges"
	 xmlns="http://www.w3.org/2000/svg" xmlns:xlink="http://www.w3.org/1999/xlink" x="0px" y="0px" viewBox="0 0 56 56"
	 style="enable-background:new 0 0 56 56;" xml:space="preserve">
<style type="text/css">
	.st0{fill:#035E55;}
	.st1{fill:#009A6C;}
	.st2{fill:#05FFB5;}
	.st3{fill:#17CE98;}
	.st4{opacity:0.1176;fill:#011E1B;enable-background:new    ;}
</style>
<g>
</g>
<g>
</g>
<g>
	<rect y="32" class="st2" width="4" height="4"/>
	<rect x="4" y="36" class="st2" width="4" height="4"/>
	<rect x="12" y="48" class="st2" width="4" height="4"/>
</g>
<g>
	<rect x="52" y="4" class="st3" width="4" height="4"/>
	<rect x="8" y="40" class="st3" width="4" height="4"/>
</g>
<g>
	<path class="st4" d="M48,0h-4h-4h-4h-4h-4h-4h-4h-4h-4H8H4H0v4v4v4v4v4v4v4v4h4v4h4v4h4v4H8v-4H4v-4H0v4v4v4v4v4h4h4h4h4h4h4h4h4h4
		h4h4h4h4h4v-4v-4v-4v-4v-4v-4v-4v-4v-4v-4v-4V8h-4V4h4V0h-4H48z M12,52v-4h4v4H12z"/>
</g>
</svg>
