<?xml version="1.0" encoding="utf-8"?>
<!-- Generator: Adobe Illustrator 24.2.0, SVG Export Plug-In . SVG Version: 6.00 Build 0)  -->
<svg version="1.1" id="圖層_1" shape-rendering="crispEdges"
	 xmlns="http://www.w3.org/2000/svg" xmlns:xlink="http://www.w3.org/1999/xlink" x="0px" y="0px" viewBox="0 0 56 64"
	 style="enable-background:new 0 0 56 64;" xml:space="preserve">
<style type="text/css">
	.st0{fill:#FFF9BB;}
	.st1{fill:#A87D22;}
	.st2{fill:#DBBA25;}
	.st3{fill:#FFE25B;}
	.st4{fill:#4E7480;}
</style>
<g>
	<path class="st0" d="M16,24c0,2,0,6,0,8h4v-4h4v-4C22,24,18,24,16,24z"/>
	<rect x="28" y="36" class="st0" width="4" height="4"/>
</g>
<g>
	<rect x="16" y="20" class="st1" width="4" height="4"/>
	<rect x="12" y="24" class="st1" width="4" height="4"/>
	<rect x="28" y="24" class="st1" width="4" height="4"/>
	<rect x="12" y="32" class="st1" width="4" height="4"/>
	<rect x="20" y="40" class="st1" width="4" height="4"/>
</g>
<g>
	<rect x="20" y="28" class="st2" width="4" height="4"/>
	<rect x="24" y="32" class="st2" width="4" height="4"/>
	<rect x="32" y="36" class="st2" width="4" height="4"/>
	<rect x="28" y="40" class="st2" width="4" height="4"/>
	<rect x="36" y="40" class="st2" width="4" height="4"/>
	<rect x="32" y="44" class="st2" width="4" height="4"/>
	<rect x="40" y="44" class="st2" width="4" height="4"/>
</g>
<g>
	<rect x="24" y="28" class="st3" width="4" height="4"/>
	<rect x="20" y="32" class="st3" width="4" height="4"/>
	<rect x="28" y="32" class="st3" width="4" height="4"/>
	<rect x="24" y="36" class="st3" width="4" height="4"/>
	<rect x="36" y="48" class="st3" width="4" height="4"/>
</g>
<g>
	<path class="st4" d="M52,8C34.8,8,17.2,8,0,8c0,18.6,0,37.4,0,56c18.6,0,37.4,0,56,0c0-18.6,0-37.4,0-56H52z M44,48h-4v4h-4v-4h-4
		v-4h-4v-4h-4v4h-4v-4h4v-4h-4v-4h-4v4h-4v-4h4v-4h-4v-4h4v-4h4v4h4v4h4v-4h4v4h-4v4h4v4h4v4h4v4h4V48z"/>
	<rect x="32" y="40" class="st4" width="4" height="4"/>
	<rect x="36" y="44" class="st4" width="4" height="4"/>
</g>
</svg>
