<?xml version="1.0" encoding="utf-8"?>
<!-- Generator: Adobe Illustrator 24.2.0, SVG Export Plug-In . SVG Version: 6.00 Build 0)  -->
<svg version="1.1" id="圖層_1" shape-rendering="crispEdges"
	 xmlns="http://www.w3.org/2000/svg" xmlns:xlink="http://www.w3.org/1999/xlink" x="0px" y="0px" viewBox="0 0 376 256"
	 style="enable-background:new 0 0 376 256;" xml:space="preserve">
<style type="text/css">
	.st0{fill:#FFEA00;}
	.st1{fill:#A88F1E;}
	.st2{fill:#FFE25B;}
	.st3{fill:#DBBA25;}
	.st4{fill:#FFF9BB;}
</style>
<rect x="220" class="st0" width="4" height="4"/>
<rect x="240" class="st0" width="4" height="4"/>
<rect x="220" y="4" class="st0" width="4" height="4"/>
<rect x="236" y="4" class="st0" width="4" height="4"/>
<rect x="252" y="8" class="st0" width="4" height="4"/>
<rect x="200" y="12" class="st0" width="4" height="4"/>
<rect x="252" y="12" class="st0" width="4" height="4"/>
<rect x="204" y="16" class="st0" width="4" height="4"/>
<rect x="208" y="16" class="st0" width="4" height="4"/>
<rect x="212" y="16" class="st0" width="4" height="4"/>
<rect x="252" y="16" class="st0" width="4" height="4"/>
<rect x="272" y="16" class="st0" width="4" height="4"/>
<rect x="268" y="20" class="st0" width="4" height="4"/>
<rect x="292" y="20" class="st0" width="4" height="4"/>
<rect x="212" y="28" class="st0" width="4" height="4"/>
<rect x="280" y="28" class="st0" width="4" height="4"/>
<rect x="208" y="32" class="st0" width="4" height="4"/>
<rect x="276" y="32" class="st0" width="4" height="4"/>
<rect x="216" y="40" class="st0" width="4" height="4"/>
<rect x="212" y="44" class="st0" width="4" height="4"/>
<rect x="228" y="48" class="st0" width="4" height="4"/>
<rect x="228" y="52" class="st0" width="4" height="4"/>
<rect x="228" y="56" class="st0" width="4" height="4"/>
<rect x="252" y="56" class="st0" width="4" height="4"/>
<rect x="256" y="60" class="st0" width="4" height="4"/>
<rect x="272" y="60" class="st0" width="4" height="4"/>
<rect x="136" y="108" class="st0" width="4" height="4"/>
<rect x="108" y="112" class="st0" width="4" height="4"/>
<rect x="112" y="112" class="st0" width="4" height="4"/>
<rect x="136" y="112" class="st0" width="4" height="4"/>
<rect x="116" y="116" class="st0" width="4" height="4"/>
<rect x="136" y="116" class="st0" width="4" height="4"/>
<rect x="120" y="120" class="st0" width="4" height="4"/>
<rect x="136" y="120" class="st0" width="4" height="4"/>
<rect x="100" y="124" class="st0" width="4" height="4"/>
<rect x="104" y="128" class="st0" width="4" height="4"/>
<rect x="152" y="128" class="st0" width="4" height="4"/>
<rect x="108" y="132" class="st0" width="4" height="4"/>
<rect x="100" y="148" class="st0" width="4" height="4"/>
<rect x="168" y="148" class="st0" width="4" height="4"/>
<rect x="172" y="148" class="st0" width="4" height="4"/>
<rect x="40" y="152" class="st0" width="4" height="4"/>
<rect x="104" y="152" class="st0" width="4" height="4"/>
<rect x="108" y="152" class="st0" width="4" height="4"/>
<rect x="112" y="152" class="st0" width="4" height="4"/>
<rect x="164" y="152" class="st0" width="4" height="4"/>
<rect x="40" y="156" class="st0" width="4" height="4"/>
<rect x="160" y="156" class="st0" width="4" height="4"/>
<rect x="24" y="164" class="st0" width="4" height="4"/>
<rect x="24" y="168" class="st0" width="4" height="4"/>
<rect x="108" y="168" class="st0" width="4" height="4"/>
<rect x="112" y="168" class="st0" width="4" height="4"/>
<rect x="116" y="168" class="st0" width="4" height="4"/>
<rect x="160" y="168" class="st0" width="4" height="4"/>
<rect x="164" y="168" class="st0" width="4" height="4"/>
<rect x="168" y="172" class="st0" width="4" height="4"/>
<rect x="172" y="176" class="st0" width="4" height="4"/>
<rect x="112" y="180" class="st0" width="4" height="4"/>
<rect x="116" y="180" class="st0" width="4" height="4"/>
<rect x="12" y="184" class="st0" width="4" height="4"/>
<rect x="108" y="184" class="st0" width="4" height="4"/>
<rect x="336" y="184" class="st0" width="4" height="4"/>
<rect x="56" y="188" class="st0" width="4" height="4"/>
<rect x="336" y="188" class="st0" width="4" height="4"/>
<rect x="348" y="188" class="st0" width="4" height="4"/>
<rect x="60" y="192" class="st0" width="4" height="4"/>
<rect x="64" y="192" class="st0" width="4" height="4"/>
<rect x="128" y="192" class="st0" width="4" height="4"/>
<rect x="332" y="192" class="st0" width="4" height="4"/>
<rect x="4" y="196" class="st0" width="4" height="4"/>
<rect x="8" y="196" class="st0" width="4" height="4"/>
<rect x="12" y="196" class="st0" width="4" height="4"/>
<rect x="124" y="196" class="st0" width="4" height="4"/>
<rect x="356" y="200" class="st0" width="4" height="4"/>
<rect x="360" y="200" class="st0" width="4" height="4"/>
<rect x="344" y="204" class="st0" width="4" height="4"/>
<rect x="348" y="204" class="st0" width="4" height="4"/>
<rect x="352" y="204" class="st0" width="4" height="4"/>
<rect y="212" class="st0" width="4" height="4"/>
<rect x="48" y="220" class="st0" width="4" height="4"/>
<rect x="372" y="220" class="st0" width="4" height="4"/>
<rect x="48" y="224" class="st0" width="4" height="4"/>
<rect x="312" y="224" class="st0" width="4" height="4"/>
<rect x="8" y="228" class="st0" width="4" height="4"/>
<rect x="24" y="228" class="st0" width="4" height="4"/>
<rect x="308" y="228" class="st0" width="4" height="4"/>
<rect x="24" y="232" class="st0" width="4" height="4"/>
<g>
	<rect x="228" y="32" class="st1" width="4" height="4"/>
	<polygon class="st1" points="260,40 260,36 256,36 252,36 248,36 248,40 244,40 240,40 240,44 244,44 248,44 252,44 256,44 260,44 
		264,44 268,44 268,40 264,40 	"/>
	<rect x="132" y="132" class="st1" width="4" height="4"/>
	<polygon class="st1" points="140,160 140,156 144,156 144,152 144,148 140,148 140,144 136,144 136,140 132,140 128,140 128,144 
		132,144 132,148 132,152 136,152 136,156 136,160 136,164 140,164 140,168 140,172 144,172 144,176 148,176 148,172 148,168 
		148,164 148,160 144,160 	"/>
	<polygon class="st1" points="40,184 40,188 36,188 36,192 32,192 32,196 32,200 36,200 36,196 40,196 44,196 44,192 44,188 44,184 
		44,180 40,180 	"/>
	<polygon class="st1" points="28,204 28,208 24,208 24,212 28,212 32,212 32,208 36,208 36,204 32,204 	"/>
	<polygon class="st1" points="352,224 348,224 348,220 344,220 344,216 340,216 336,216 332,216 332,212 328,212 324,212 324,216 
		328,216 328,220 332,220 332,224 336,224 336,228 340,228 340,232 344,232 344,228 348,228 352,228 356,228 356,224 	"/>
	<polygon class="st1" points="348,236 352,236 352,232 348,232 344,232 344,236 	"/>
</g>
<rect x="324" y="236" class="st0" width="4" height="4"/>
<g>
	<polygon class="st2" points="124,16 124,12 120,12 116,12 116,16 120,16 	"/>
	<rect x="228" y="12" class="st2" width="4" height="4"/>
	<rect x="52" y="16" class="st2" width="4" height="4"/>
	<rect x="244" y="20" class="st2" width="4" height="4"/>
	<rect x="348" y="28" class="st2" width="4" height="4"/>
	<rect x="224" y="32" class="st2" width="4" height="4"/>
	<polygon class="st2" points="260,32 256,32 256,28 252,28 252,32 248,32 248,28 244,28 244,24 240,24 236,24 236,20 232,20 228,20 
		224,20 224,24 220,24 220,28 220,32 224,32 224,28 228,28 232,28 236,28 236,32 240,32 240,36 244,36 248,36 252,36 256,36 260,36 
		264,36 264,32 	"/>
	<polygon class="st2" points="272,32 268,32 268,36 264,36 264,40 268,40 272,40 272,36 	"/>
	<polygon class="st2" points="36,36 36,32 32,32 32,36 32,40 36,40 	"/>
	<polygon class="st2" points="228,44 232,44 232,40 232,36 228,36 228,40 	"/>
	<polygon class="st2" points="272,44 268,44 268,48 272,48 276,48 276,44 276,40 272,40 	"/>
	<rect x="280" y="40" class="st2" width="4" height="4"/>
	<polygon class="st2" points="296,44 296,40 292,40 288,40 288,44 292,44 	"/>
	<polygon class="st2" points="240,44 236,44 236,48 240,48 244,48 244,44 	"/>
	<rect x="284" y="44" class="st2" width="4" height="4"/>
	<polygon class="st2" points="300,48 304,48 308,48 308,44 304,44 300,44 296,44 296,48 	"/>
	<polygon class="st2" points="80,52 80,56 80,60 84,60 84,56 84,52 84,48 80,48 	"/>
	<polygon class="st2" points="256,48 252,48 248,48 244,48 244,52 248,52 252,52 256,52 260,52 264,52 264,48 260,48 	"/>
	<rect x="288" y="48" class="st2" width="4" height="4"/>
	<rect x="316" y="52" class="st2" width="4" height="4"/>
	<rect x="320" y="56" class="st2" width="4" height="4"/>
	<polygon class="st2" points="76,64 76,68 76,72 76,76 76,80 76,84 76,88 76,92 76,96 76,100 76,104 76,108 76,112 76,116 76,120 
		76,124 76,128 76,132 76,136 76,140 76,144 76,148 80,148 80,144 80,140 80,136 80,132 80,128 80,124 80,120 80,116 80,112 80,108 
		80,104 80,100 80,96 80,92 80,88 80,84 80,80 80,76 80,72 80,68 80,64 80,60 76,60 	"/>
	<polygon class="st2" points="124,68 128,68 132,68 136,68 136,64 132,64 128,64 124,64 120,64 116,64 112,64 108,64 104,64 100,64 
		100,68 104,68 108,68 112,68 116,68 120,68 	"/>
	<polygon class="st2" points="92,68 92,72 96,72 100,72 100,68 96,68 	"/>
	<polygon class="st2" points="356,72 352,72 352,76 352,80 356,80 356,76 	"/>
	<rect x="40" y="80" class="st2" width="4" height="4"/>
	<rect x="168" y="80" class="st2" width="4" height="4"/>
	<rect x="44" y="84" class="st2" width="4" height="4"/>
	<polygon class="st2" points="288,88 288,92 292,92 292,88 292,84 288,84 	"/>
	<polygon class="st2" points="52,88 48,88 48,92 52,92 56,92 56,88 	"/>
	<polygon class="st2" points="60,92 56,92 56,96 60,96 64,96 64,92 	"/>
	<polygon class="st2" points="324,96 324,100 324,104 328,104 328,100 328,96 328,92 324,92 	"/>
	<polygon class="st2" points="360,92 360,88 360,84 360,80 356,80 356,84 356,88 356,92 356,96 356,100 360,100 360,96 	"/>
	<rect x="64" y="96" class="st2" width="4" height="4"/>
	<polygon class="st2" points="68,104 68,108 72,108 72,104 72,100 68,100 	"/>
	<polygon class="st2" points="360,100 360,104 360,108 360,112 360,116 360,120 360,124 360,128 360,132 364,132 364,128 364,124 
		364,120 364,116 364,112 364,108 364,104 364,100 	"/>
	<polygon class="st2" points="60,124 60,120 60,116 56,116 56,120 56,124 56,128 60,128 	"/>
	<polygon class="st2" points="52,132 52,136 52,140 52,144 52,148 52,152 52,156 52,160 52,164 56,164 56,160 56,156 56,152 56,148 
		56,144 56,140 56,136 56,132 56,128 52,128 	"/>
	<rect x="140" y="132" class="st2" width="4" height="4"/>
	<polygon class="st2" points="124,140 128,140 128,136 128,132 132,132 136,132 140,132 140,128 136,128 132,128 128,128 124,128 
		124,132 120,132 120,136 120,140 120,144 120,148 124,148 124,144 	"/>
	<polygon class="st2" points="144,144 144,148 148,148 148,152 148,156 148,160 152,160 152,156 152,152 152,148 152,144 148,144 
		148,140 148,136 144,136 144,140 	"/>
	<rect x="128" y="144" class="st2" width="4" height="4"/>
	<polygon class="st2" points="256,144 252,144 252,148 256,148 260,148 264,148 264,144 260,144 	"/>
	<polygon class="st2" points="300,156 300,160 304,160 304,156 304,152 300,152 	"/>
	<rect x="64" y="160" class="st2" width="4" height="4"/>
	<rect x="60" y="164" class="st2" width="4" height="4"/>
	<polygon class="st2" points="44,168 40,168 40,172 44,172 48,172 48,168 	"/>
	<rect x="284" y="168" class="st2" width="4" height="4"/>
	<polygon class="st2" points="36,176 32,176 32,180 32,184 36,184 36,180 40,180 40,176 40,172 36,172 	"/>
	<polygon class="st2" points="48,172 48,176 52,176 52,180 52,184 56,184 56,180 56,176 56,172 52,172 	"/>
	<rect x="216" y="172" class="st2" width="4" height="4"/>
	<polygon class="st2" points="292,172 288,172 288,176 288,180 292,180 292,176 	"/>
	<polygon class="st2" points="156,176 156,172 156,168 156,164 156,160 152,160 152,164 152,168 152,172 152,176 152,180 156,180 	
		"/>
	<polygon class="st2" points="208,176 208,180 212,180 216,180 216,176 212,176 	"/>
	<polygon class="st2" points="140,180 140,176 140,172 136,172 136,168 136,164 136,160 132,160 132,156 132,152 128,152 128,148 
		124,148 124,152 124,156 128,156 128,160 128,164 128,168 132,168 132,172 132,176 132,180 132,184 136,184 136,188 136,192 
		140,192 140,188 140,184 144,184 144,180 	"/>
	<polygon class="st2" points="148,184 144,184 144,188 144,192 148,192 148,188 152,188 152,184 152,180 148,180 	"/>
	<rect x="204" y="180" class="st2" width="4" height="4"/>
	<rect x="292" y="180" class="st2" width="4" height="4"/>
	<polygon class="st2" points="48,188 48,192 48,196 44,196 44,200 44,204 40,204 40,208 36,208 36,212 32,212 32,216 28,216 28,220 
		32,220 36,220 36,216 40,216 40,212 44,212 44,208 48,208 48,204 48,200 52,200 52,196 52,192 52,188 52,184 48,184 	"/>
	<rect x="156" y="184" class="st2" width="4" height="4"/>
	<rect x="296" y="184" class="st2" width="4" height="4"/>
	<polygon class="st2" points="164,188 160,188 160,192 160,196 164,196 164,192 	"/>
	<rect x="300" y="188" class="st2" width="4" height="4"/>
	<rect x="304" y="192" class="st2" width="4" height="4"/>
	<rect x="140" y="196" class="st2" width="4" height="4"/>
	<polygon class="st2" points="168,196 164,196 164,200 164,204 168,204 168,200 	"/>
	<polygon class="st2" points="148,200 144,200 144,204 144,208 148,208 148,204 	"/>
	<rect x="296" y="200" class="st2" width="4" height="4"/>
	<rect x="332" y="200" class="st2" width="4" height="4"/>
	<rect x="168" y="204" class="st2" width="4" height="4"/>
	<rect x="300" y="204" class="st2" width="4" height="4"/>
	<polygon class="st2" points="328,204 328,200 324,200 324,196 320,196 316,196 316,200 312,200 312,204 316,204 316,208 320,208 
		320,204 324,204 324,208 328,208 332,208 332,204 	"/>
	<polygon class="st2" points="148,212 148,216 148,220 148,224 152,224 152,220 152,216 152,212 152,208 148,208 	"/>
	<polygon class="st2" points="176,208 172,208 172,212 172,216 176,216 176,212 	"/>
	<rect x="304" y="208" class="st2" width="4" height="4"/>
	<rect x="332" y="208" class="st2" width="4" height="4"/>
	<polygon class="st2" points="344,208 340,208 340,212 336,212 336,216 340,216 344,216 344,212 	"/>
	<rect x="308" y="212" class="st2" width="4" height="4"/>
	<polygon class="st2" points="24,216 20,216 20,212 20,208 24,208 24,204 28,204 28,200 32,200 32,196 32,192 28,192 28,196 24,196 
		24,200 20,200 20,204 16,204 16,208 12,208 12,212 12,216 12,220 16,220 20,220 20,224 24,224 28,224 28,220 24,220 	"/>
	<rect x="176" y="216" class="st2" width="4" height="4"/>
	<rect x="320" y="216" class="st2" width="4" height="4"/>
	<rect x="180" y="220" class="st2" width="4" height="4"/>
	<rect x="324" y="220" class="st2" width="4" height="4"/>
	<polygon class="st2" points="352,220 352,216 348,216 344,216 344,220 348,220 348,224 352,224 356,224 356,220 	"/>
	<rect x="184" y="224" class="st2" width="4" height="4"/>
	<rect x="328" y="224" class="st2" width="4" height="4"/>
	<polygon class="st2" points="356,228 356,232 360,232 360,228 360,224 356,224 	"/>
	<polygon class="st2" points="188,228 188,232 192,232 196,232 196,228 192,228 	"/>
	<polygon class="st2" points="340,228 336,228 332,228 332,232 332,236 336,236 340,236 340,232 	"/>
	<rect x="352" y="232" class="st2" width="4" height="4"/>
	<polygon class="st2" points="340,236 340,240 344,240 348,240 348,236 344,236 	"/>
</g>
<g>
	<rect x="92" y="24" class="st3" width="4" height="4"/>
	<polygon class="st3" points="320,28 324,28 328,28 332,28 336,28 340,28 344,28 348,28 348,24 344,24 340,24 336,24 332,24 328,24 
		324,24 320,24 316,24 312,24 308,24 308,28 312,28 316,28 	"/>
	<polygon class="st3" points="88,32 88,36 92,36 92,32 92,28 88,28 	"/>
	<polygon class="st3" points="232,32 232,36 232,40 232,44 236,44 240,44 240,40 244,40 248,40 248,36 244,36 240,36 240,32 236,32 
		236,28 232,28 228,28 224,28 224,32 228,32 	"/>
	<rect x="304" y="28" class="st3" width="4" height="4"/>
	<polygon class="st3" points="84,40 84,44 84,48 88,48 88,44 88,40 88,36 84,36 	"/>
	<rect x="260" y="36" class="st3" width="4" height="4"/>
	<rect x="268" y="40" class="st3" width="4" height="4"/>
	<polygon class="st3" points="268,48 268,44 264,44 260,44 256,44 252,44 248,44 244,44 244,48 248,48 252,48 256,48 260,48 264,48 
			"/>
	<polygon class="st3" points="336,56 332,56 332,60 336,60 340,60 340,56 	"/>
	<rect x="324" y="60" class="st3" width="4" height="4"/>
	<rect x="340" y="60" class="st3" width="4" height="4"/>
	<polygon class="st3" points="32,64 32,60 32,56 32,52 32,48 32,44 32,40 28,40 28,44 28,48 28,52 28,56 28,60 28,64 28,68 32,68 	
		"/>
	<rect x="344" y="64" class="st3" width="4" height="4"/>
	<polygon class="st3" points="328,72 328,76 328,80 328,84 328,88 328,92 332,92 332,88 332,84 332,80 332,76 332,72 332,68 332,64 
		328,64 328,68 	"/>
	<rect x="348" y="68" class="st3" width="4" height="4"/>
	<polygon class="st3" points="32,76 36,76 36,72 36,68 32,68 32,72 	"/>
	<rect x="88" y="72" class="st3" width="4" height="4"/>
	<rect x="36" y="76" class="st3" width="4" height="4"/>
	<rect x="84" y="76" class="st3" width="4" height="4"/>
	<rect x="80" y="80" class="st3" width="4" height="4"/>
	<polygon class="st3" points="76,92 76,88 72,88 72,92 72,96 76,96 	"/>
	<rect x="68" y="96" class="st3" width="4" height="4"/>
	<polygon class="st3" points="68,104 68,100 64,100 64,104 64,108 68,108 	"/>
	<polygon class="st3" points="72,112 72,116 76,116 76,112 76,108 72,108 	"/>
	<polygon class="st3" points="64,112 64,108 60,108 60,112 60,116 64,116 	"/>
	<polygon class="st3" points="288,124 288,120 288,116 288,112 288,108 288,104 288,100 288,96 288,92 284,92 284,96 284,100 
		284,104 284,108 284,112 284,116 284,120 284,124 284,128 288,128 	"/>
	<polygon class="st3" points="288,136 292,136 292,132 292,128 288,128 288,132 	"/>
	<polygon class="st3" points="76,140 76,136 72,136 72,140 72,144 76,144 	"/>
	<polygon class="st3" points="124,144 124,148 128,148 128,144 128,140 124,140 	"/>
	<polygon class="st3" points="144,140 144,136 140,136 140,132 136,132 136,136 132,136 132,132 128,132 128,136 128,140 132,140 
		136,140 136,144 140,144 140,148 144,148 144,144 	"/>
	<polygon class="st3" points="72,148 72,144 68,144 68,148 68,152 68,156 72,156 72,152 	"/>
	<polygon class="st3" points="76,152 76,156 80,156 80,152 80,148 76,148 	"/>
	<rect x="128" y="148" class="st3" width="4" height="4"/>
	<polygon class="st3" points="268,148 264,148 264,152 268,152 272,152 272,148 	"/>
	<polygon class="st3" points="148,152 148,148 144,148 144,152 144,156 140,156 140,160 144,160 148,160 148,156 	"/>
	<rect x="272" y="152" class="st3" width="4" height="4"/>
	<rect x="64" y="156" class="st3" width="4" height="4"/>
	<polygon class="st3" points="72,160 72,164 76,164 76,160 76,156 72,156 	"/>
	<polygon class="st3" points="132,160 136,160 136,156 136,152 132,152 132,156 	"/>
	<rect x="276" y="156" class="st3" width="4" height="4"/>
	<rect x="68" y="164" class="st3" width="4" height="4"/>
	<polygon class="st3" points="140,164 136,164 136,168 136,172 140,172 140,168 	"/>
	<polygon class="st3" points="280,168 284,168 284,164 284,160 280,160 280,164 	"/>
	<rect x="64" y="168" class="st3" width="4" height="4"/>
	<polygon class="st3" points="48,176 48,172 44,172 40,172 40,176 40,180 44,180 44,176 	"/>
	<rect x="60" y="172" class="st3" width="4" height="4"/>
	<rect x="48" y="176" class="st3" width="4" height="4"/>
	<polygon class="st3" points="36,184 32,184 32,188 32,192 36,192 36,188 40,188 40,184 40,180 36,180 	"/>
	<polygon class="st3" points="44,184 44,188 44,192 44,196 48,196 48,192 48,188 48,184 48,180 44,180 	"/>
	<polygon class="st3" points="148,184 148,180 152,180 152,176 152,172 152,168 152,164 152,160 148,160 148,164 148,168 148,172 
		148,176 144,176 144,172 140,172 140,176 140,180 144,180 144,184 	"/>
	<rect x="140" y="184" class="st3" width="4" height="4"/>
	<polygon class="st3" points="284,188 280,188 280,192 284,192 288,192 288,188 	"/>
	<rect x="288" y="192" class="st3" width="4" height="4"/>
	<polygon class="st3" points="36,196 36,200 32,200 28,200 28,204 32,204 36,204 36,208 40,208 40,204 44,204 44,200 44,196 40,196 
			"/>
	<rect x="148" y="196" class="st3" width="4" height="4"/>
	<rect x="292" y="196" class="st3" width="4" height="4"/>
	<rect x="152" y="200" class="st3" width="4" height="4"/>
	<rect x="24" y="204" class="st3" width="4" height="4"/>
	<polygon class="st3" points="160,204 156,204 156,208 160,208 164,208 164,204 	"/>
	<rect x="32" y="208" class="st3" width="4" height="4"/>
	<polygon class="st3" points="164,208 164,212 168,212 172,212 172,208 168,208 	"/>
	<polygon class="st3" points="328,208 324,208 324,204 320,204 320,208 316,208 316,212 320,212 320,216 324,216 324,212 328,212 
		332,212 332,208 	"/>
	<polygon class="st3" points="24,212 24,208 20,208 20,212 20,216 24,216 24,220 28,220 28,216 32,216 32,212 28,212 	"/>
	<rect x="176" y="212" class="st3" width="4" height="4"/>
	<rect x="332" y="212" class="st3" width="4" height="4"/>
	<rect x="180" y="216" class="st3" width="4" height="4"/>
	<rect x="324" y="216" class="st3" width="4" height="4"/>
	<polygon class="st3" points="188,220 184,220 184,224 188,224 192,224 192,220 	"/>
	<rect x="328" y="220" class="st3" width="4" height="4"/>
	<polygon class="st3" points="148,228 148,232 148,236 148,240 152,240 152,236 152,232 152,228 152,224 148,224 	"/>
	<polygon class="st3" points="200,224 196,224 192,224 192,228 196,228 200,228 204,228 204,224 	"/>
	<rect x="332" y="224" class="st3" width="4" height="4"/>
	<polygon class="st3" points="216,228 212,228 208,228 204,228 204,232 208,232 212,232 216,232 220,232 220,228 	"/>
	<rect x="348" y="228" class="st3" width="4" height="4"/>
	<polygon class="st3" points="224,232 220,232 220,236 224,236 228,236 228,232 	"/>
	<rect x="340" y="232" class="st3" width="4" height="4"/>
	<polygon class="st3" points="240,236 236,236 232,236 228,236 228,240 232,240 236,240 240,240 244,240 244,236 	"/>
	<rect x="144" y="240" class="st3" width="4" height="4"/>
	<rect x="244" y="240" class="st3" width="4" height="4"/>
</g>
<rect x="320" y="240" class="st0" width="4" height="4"/>
<rect x="356" y="240" class="st0" width="4" height="4"/>
<rect x="316" y="244" class="st0" width="4" height="4"/>
<rect x="340" y="244" class="st0" width="4" height="4"/>
<rect x="360" y="244" class="st0" width="4" height="4"/>
<g>
	<polygon class="st4" points="112,16 108,16 104,16 100,16 100,20 104,20 108,20 112,20 	"/>
	<path class="st4" d="M248,20v-4h-4h-4v-4h-4V8h-4h-4h-4h-4v4h-4v4v4h-4v4v4h4v4v4h4v4h4v4h4v-4v-4h-4v-4h-4v-4v-4h4v-4h4h4h4v4h4h4
		v-4H248z M228,16v-4h4v4H228z"/>
	<rect x="48" y="20" class="st4" width="4" height="4"/>
	<rect x="96" y="20" class="st4" width="4" height="4"/>
	<rect x="44" y="24" class="st4" width="4" height="4"/>
	<polygon class="st4" points="44,32 44,28 40,28 36,28 36,32 40,32 	"/>
	<polygon class="st4" points="296,36 300,36 304,36 304,32 300,32 296,32 292,32 288,32 288,36 292,36 	"/>
	<polygon class="st4" points="280,36 276,36 276,32 280,32 280,28 276,28 276,24 272,24 268,24 264,24 260,24 260,20 256,20 252,20 
		248,20 248,24 244,24 244,28 248,28 248,32 252,32 252,28 256,28 256,32 260,32 264,32 264,36 268,36 268,32 272,32 272,36 272,40 
		276,40 276,44 276,48 280,48 280,44 280,40 284,40 288,40 288,36 284,36 	"/>
	<polygon class="st4" points="232,48 236,48 236,44 232,44 228,44 228,48 	"/>
	<polygon class="st4" points="240,52 244,52 244,48 240,48 236,48 236,52 	"/>
	<polygon class="st4" points="268,48 264,48 264,52 268,52 272,52 276,52 276,48 272,48 	"/>
	<polygon class="st4" points="308,52 312,52 316,52 320,52 324,52 324,48 320,48 316,48 312,48 308,48 304,48 300,48 296,48 292,48 
		292,52 296,52 300,52 304,52 	"/>
	<polygon class="st4" points="256,52 252,52 248,52 248,56 252,56 256,56 260,56 264,56 264,52 260,52 	"/>
	<polygon class="st4" points="328,56 332,56 332,52 328,52 324,52 324,56 	"/>
	<polygon class="st4" points="148,68 144,68 140,68 136,68 136,72 140,72 144,72 148,72 152,72 152,68 	"/>
	<polygon class="st4" points="160,72 156,72 152,72 152,76 156,76 160,76 164,76 164,72 	"/>
	<rect x="164" y="76" class="st4" width="4" height="4"/>
	<rect x="292" y="76" class="st4" width="4" height="4"/>
	<rect x="172" y="88" class="st4" width="4" height="4"/>
	<rect x="316" y="108" class="st4" width="4" height="4"/>
	<rect x="140" y="128" class="st4" width="4" height="4"/>
	<rect x="144" y="132" class="st4" width="4" height="4"/>
	<rect x="356" y="132" class="st4" width="4" height="4"/>
	<polygon class="st4" points="296,136 292,136 292,140 292,144 296,144 296,140 	"/>
	<polygon class="st4" points="148,144 152,144 152,140 152,136 148,136 148,140 	"/>
	<polygon class="st4" points="228,144 232,144 236,144 240,144 244,144 248,144 252,144 252,140 248,140 244,140 240,140 236,140 
		232,140 228,140 224,140 220,140 220,144 224,144 	"/>
	<rect x="352" y="140" class="st4" width="4" height="4"/>
	<polygon class="st4" points="216,148 220,148 220,144 216,144 212,144 208,144 208,148 212,148 	"/>
	<polygon class="st4" points="296,148 296,152 300,152 300,148 300,144 296,144 	"/>
	<polygon class="st4" points="152,152 152,156 152,160 156,160 156,156 156,152 156,148 156,144 152,144 152,148 	"/>
	<rect x="204" y="148" class="st4" width="4" height="4"/>
	<polygon class="st4" points="156,164 156,168 156,172 156,176 156,180 152,180 152,184 152,188 148,188 148,192 144,192 144,188 
		140,188 140,192 136,192 136,188 136,184 132,184 132,180 132,176 132,172 132,168 128,168 128,164 128,160 128,156 124,156 
		124,152 124,148 120,148 120,144 120,140 120,136 120,132 124,132 124,128 128,128 132,128 136,128 140,128 140,124 136,124 
		132,124 128,124 124,124 120,124 120,128 116,128 116,132 112,132 112,136 112,140 112,144 112,148 116,148 116,152 116,156 
		116,160 116,164 120,164 120,168 120,172 120,176 120,180 120,184 124,184 124,188 128,188 128,192 132,192 132,196 136,196 
		140,196 144,196 148,196 152,196 152,192 156,192 156,188 156,184 160,184 160,180 160,176 160,172 160,168 160,164 160,160 
		156,160 	"/>
	<polygon class="st4" points="308,160 304,160 304,164 304,168 308,168 308,164 	"/>
	<polygon class="st4" points="56,164 52,164 52,160 48,160 44,160 40,160 40,164 36,164 36,168 32,168 32,172 28,172 28,176 28,180 
		24,180 24,184 24,188 20,188 20,192 20,196 16,196 16,200 12,200 12,204 8,204 8,208 8,212 8,216 8,220 12,220 12,216 12,212 
		12,208 16,208 16,204 20,204 20,200 24,200 24,196 28,196 28,192 32,192 32,188 32,184 32,180 32,176 36,176 36,172 40,172 40,168 
		44,168 48,168 48,172 52,172 56,172 56,176 56,180 56,184 60,184 60,180 60,176 60,172 60,168 56,168 	"/>
	<rect x="308" y="168" class="st4" width="4" height="4"/>
	<polygon class="st4" points="252,172 248,172 244,172 240,172 236,172 232,172 228,172 224,172 220,172 220,176 224,176 228,176 
		232,176 236,176 240,176 244,176 248,176 252,176 256,176 256,172 	"/>
	<rect x="44" y="176" class="st4" width="4" height="4"/>
	<polygon class="st4" points="264,176 260,176 256,176 256,180 260,180 264,180 268,180 268,176 	"/>
	<rect x="48" y="180" class="st4" width="4" height="4"/>
	<rect x="268" y="180" class="st4" width="4" height="4"/>
	<polygon class="st4" points="52,188 52,192 52,196 56,196 56,192 56,188 56,184 52,184 	"/>
	<polygon class="st4" points="272,184 272,188 276,188 280,188 280,184 276,184 	"/>
	<rect x="48" y="200" class="st4" width="4" height="4"/>
	<polygon class="st4" points="332,204 332,208 336,208 336,212 340,212 340,208 344,208 344,204 340,204 340,200 336,200 336,204 	
		"/>
	<rect x="44" y="208" class="st4" width="4" height="4"/>
	<rect x="40" y="212" class="st4" width="4" height="4"/>
	<polygon class="st4" points="344,216 348,216 352,216 352,212 348,212 348,208 344,208 344,212 	"/>
	<rect x="36" y="216" class="st4" width="4" height="4"/>
	<polygon class="st4" points="248,216 248,212 248,208 244,208 244,212 244,216 244,220 248,220 	"/>
	<rect x="352" y="216" class="st4" width="4" height="4"/>
	<polygon class="st4" points="16,224 16,228 20,228 24,228 28,228 32,228 32,224 36,224 36,220 32,220 28,220 28,224 24,224 20,224 
		20,220 16,220 12,220 12,224 	"/>
	<rect x="240" y="220" class="st4" width="4" height="4"/>
	<rect x="356" y="220" class="st4" width="4" height="4"/>
	<polygon class="st4" points="232,224 232,228 236,228 240,228 240,224 236,224 	"/>
	<polygon class="st4" points="360,224 360,228 360,232 356,232 356,236 352,236 348,236 348,240 344,240 340,240 340,236 336,236 
		332,236 332,240 336,240 336,244 340,244 344,244 348,244 352,244 356,244 356,240 360,240 360,236 364,236 364,232 364,228 
		364,224 	"/>
	<polygon class="st4" points="224,228 220,228 220,232 224,232 228,232 232,232 232,228 228,228 	"/>
	<polygon class="st4" points="332,228 328,228 328,224 324,224 324,220 320,220 320,216 320,212 316,212 316,208 316,204 312,204 
		312,200 316,200 316,196 320,196 324,196 324,200 328,200 328,204 332,204 332,200 336,200 336,196 332,196 332,192 328,192 
		324,192 324,188 320,188 316,188 316,184 316,180 316,176 316,172 312,172 312,176 312,180 312,184 312,188 312,192 312,196 
		308,196 308,200 308,204 308,208 308,212 312,212 312,216 312,220 316,220 316,224 320,224 320,228 324,228 324,232 328,232 
		328,236 332,236 332,232 	"/>
	<rect x="344" y="228" class="st4" width="4" height="4"/>
	<rect x="352" y="228" class="st4" width="4" height="4"/>
	<polygon class="st4" points="212,232 208,232 204,232 200,232 196,232 196,236 200,236 204,236 208,236 212,236 216,236 220,236 
		220,232 216,232 	"/>
	<polygon class="st4" points="256,240 252,240 248,240 248,244 252,244 256,244 260,244 264,244 264,240 260,240 	"/>
	<rect x="268" y="240" class="st4" width="4" height="4"/>
	<rect x="120" y="244" class="st4" width="4" height="4"/>
	<rect x="140" y="244" class="st4" width="4" height="4"/>
	<polygon class="st4" points="132,248 128,248 128,252 132,252 136,252 140,252 140,248 136,248 	"/>
</g>
<rect x="316" y="248" class="st0" width="4" height="4"/>
<rect x="340" y="248" class="st0" width="4" height="4"/>
<rect x="340" y="252" class="st0" width="4" height="4"/>
</svg>
