<?xml version="1.0" encoding="utf-8"?>
<!-- Generator: Adobe Illustrator 24.2.0, SVG Export Plug-In . SVG Version: 6.00 Build 0)  -->
<svg version="1.1" id="圖層_1" shape-rendering="crispEdges"
	 xmlns="http://www.w3.org/2000/svg" xmlns:xlink="http://www.w3.org/1999/xlink" x="0px" y="0px" viewBox="0 0 56 56"
	 style="enable-background:new 0 0 56 56;" xml:space="preserve">
<style type="text/css">
	.st0{fill:#035E55;}
	.st1{fill:#009A6C;}
	.st2{fill:#05FFB5;}
	.st3{fill:#17CE98;}
	.st4{opacity:0.1176;fill:#011E1B;enable-background:new    ;}
</style>
<g>
</g>
<g>
</g>
<g>
	<rect y="44" class="st2" width="4" height="4"/>
	<polygon class="st2" points="4,56 8,56 12,56 12,52 8,52 8,48 4,48 4,52 	"/>
</g>
<g>
	<rect x="8" y="28" class="st3" width="4" height="4"/>
	<polygon class="st3" points="16,40 16,44 20,44 24,44 24,40 20,40 	"/>
	<polygon class="st3" points="8,44 4,44 4,48 8,48 12,48 16,48 16,44 12,44 	"/>
	<polygon class="st3" points="0,52 0,56 4,56 4,52 4,48 0,48 	"/>
</g>
<g>
	<path class="st4" d="M48,0h-4h-4h-4h-4h-4h-4h-4h-4h-4H8H4H0v4v4v4v4v4v4v4v4v4v4v4h4h4h4h4v-4h4h4v4h-4h-4v4h-4H8v4h4v4h4h4h4h4h4
		h4h4h4h4h4h4v-4v-4v-4v-4v-4v-4v-4v-4v-4v-4v-4V8V4V0h-4H48z M8,32v-4h4v4H8z"/>
</g>
</svg>
